<svg width="100" height="101" viewBox="0 0 100 101" fill="none" xmlns="http://www.w3.org/2000/svg">
<path d="M65 48.7C65 40.4 58.3 33.7 50 33.7C41.7 33.7 35 40.4 35 48.7C35 55.6 39.6 61.2999 45.9 63.0999L50.1 67.5999L54.3 63.0999C60.4 61.2999 65 55.5 65 48.7Z" fill="#00F7F7"/>
<path d="M76.3992 40.7H75.6992C72.1992 29.5 61.7992 21.7 49.9992 21.7C38.1992 21.7 27.6992 29.5 24.2992 40.7H23.5992C21.1992 40.7 19.1992 42.6999 19.1992 45.0999V53C19.1992 55.4 21.1992 57.4 23.5992 57.4H27.9992C28.5992 57.4 29.0992 56.8999 29.0992 56.2999V41.7999C29.0992 41.1999 28.5992 40.7 27.9992 40.7H26.5992C29.9992 30.7 39.3992 23.9 49.9992 23.9C60.5992 23.9 70.0992 30.7 73.3992 40.7H71.9992C71.3992 40.7 70.8992 41.1999 70.8992 41.7999V56.4C70.8992 57 71.3992 57.5 71.9992 57.5H73.0992C69.9992 65.5 62.8992 71.5 54.3992 73C53.7992 71.0999 51.9992 69.8 49.9992 69.8C47.3992 69.8 45.2992 71.9 45.2992 74.5C45.2992 77.0999 47.3992 79.1999 49.9992 79.1999C52.3992 79.1999 54.2992 77.3999 54.5992 75.1999C64.1992 73.4999 72.1992 66.7 75.3992 57.5H76.2992C78.6992 57.5 80.6992 55.5 80.6992 53.0999V45.2C80.7992 42.7 78.7992 40.7 76.3992 40.7ZM26.8992 55.2999H23.5992C22.3992 55.2999 21.3992 54.2999 21.3992 53.0999V45.2C21.3992 44 22.3992 43 23.5992 43H26.8992V55.2999ZM49.9992 77.0999C48.5992 77.0999 47.4992 76 47.4992 74.5999C47.4992 73.1999 48.5992 72.0999 49.9992 72.0999C51.3992 72.0999 52.4992 73.1999 52.4992 74.5999C52.4992 75.8999 51.3992 77.0999 49.9992 77.0999ZM78.5992 53.0999C78.5992 54.2999 77.5992 55.2999 76.3992 55.2999H74.9992C74.7992 55.2999 74.6992 55.2999 74.4992 55.2999H73.0992V42.9H76.3992C77.5992 42.9 78.5992 43.8999 78.5992 45.0999V53.0999Z" fill="#0F0C22"/>
<path d="M58.2992 48.7C58.2992 48.1 57.7992 47.6 57.1992 47.6H42.7992C42.1992 47.6 41.6992 48.1 41.6992 48.7C41.6992 49.3 42.1992 49.8 42.7992 49.8H57.2992C57.8992 49.8 58.2992 49.3 58.2992 48.7Z" fill="#0F0C22"/>
<path d="M54.1996 43.4C54.7996 43.4 55.2996 42.8999 55.2996 42.2999C55.2996 41.6999 54.7996 41.2 54.1996 41.2H45.6996C45.0996 41.2 44.5996 41.6999 44.5996 42.2999C44.5996 42.8999 45.0996 43.4 45.6996 43.4H54.1996Z" fill="#0F0C22"/>
<path d="M54.1996 56.2C54.7996 56.2 55.2996 55.7 55.2996 55.1C55.2996 54.5 54.7996 54 54.1996 54H45.6996C45.0996 54 44.5996 54.5 44.5996 55.1C44.5996 55.7 45.0996 56.2 45.6996 56.2H54.1996Z" fill="#0F0C22"/>
</svg>
