<svg width="46" height="46" viewBox="0 0 46 46" fill="none" xmlns="http://www.w3.org/2000/svg">
<rect x="1.25" y="1.25" width="43.5" height="43.5" rx="21.75" stroke="white" stroke-width="1.5"/>
<g clip-path="url(#clip0_756_1282)">
<path d="M23 44C34.598 44 44 34.598 44 23C44 11.402 34.598 2 23 2C11.402 2 2 11.402 2 23C2 34.598 11.402 44 23 44Z" fill="#F0F0F0"/>
<path d="M13.8691 30.3025L15.6952 42.6922C17.9701 43.5364 20.4308 43.9982 22.9995 43.9982C32.0287 43.9982 39.7262 38.2993 42.6933 30.3025H13.8691Z" fill="black"/>
<path d="M13.8691 15.6967L15.6952 3.307C17.9701 2.46281 20.4308 2.00098 22.9995 2.00098C32.0287 2.00098 39.7262 7.69985 42.6933 15.6967H13.8691Z" fill="#6DA544"/>
<path d="M2 23C2 32.0292 7.69896 39.7266 15.6957 42.6938V3.30615C7.69896 6.27331 2 13.9707 2 23Z" fill="#A2001D"/>
</g>
<defs>
<clipPath id="clip0_756_1282">
<rect width="42" height="42" fill="white" transform="translate(2 2)"/>
</clipPath>
</defs>
</svg>
