<svg width="129" height="40" viewBox="0 0 129 40" fill="none" xmlns="http://www.w3.org/2000/svg">
<path fill-rule="evenodd" clip-rule="evenodd" d="M67.7891 10.0322C67.7891 11.447 66.629 12.6688 65.1465 12.6688C63.6641 12.6688 62.5039 11.5113 62.5039 10.0322C62.5039 8.55306 63.5996 7.39551 65.1465 7.39551C66.6934 7.52413 67.7891 8.68168 67.7891 10.0322ZM57.0256 15.3055C57.0256 15.5627 57.0256 15.9485 57.0256 15.9485C57.0256 15.9485 55.8009 14.3408 53.1583 14.3408C48.7754 14.3408 45.3594 17.6849 45.3594 22.2508C45.3594 26.8167 48.711 30.1608 53.1583 30.1608C55.8654 30.1608 57.0256 28.4887 57.0256 28.4887V29.1961C57.0256 29.5177 57.2834 29.7749 57.6056 29.7749H60.8283V14.7267C60.8283 14.7267 57.8635 14.7267 57.6056 14.7267C57.2834 14.7267 57.0256 15.0482 57.0256 15.3055ZM57.0275 24.9517C56.4474 25.852 55.2227 26.6237 53.8047 26.6237C51.2266 26.6237 49.293 25.016 49.293 22.315C49.293 19.6141 51.291 18.0063 53.8047 18.0063C55.2227 18.0063 56.5118 18.7781 57.0275 19.6784V24.9517ZM63.2773 14.7266H67.1446V29.7748H63.2773V14.7266ZM120.836 14.3408C118.193 14.3408 116.969 15.9486 116.969 15.9486V7.52412H113.102V29.8392C113.102 29.8392 116.066 29.8392 116.324 29.8392C116.647 29.8392 116.904 29.582 116.904 29.2604V28.5531C116.904 28.5531 118.129 30.2251 120.772 30.2251C125.154 30.2251 128.571 26.881 128.571 22.3151C128.635 17.6849 125.219 14.3408 120.836 14.3408ZM120.192 26.5595C118.709 26.5595 117.549 25.7878 116.969 24.8875V19.4855C117.549 18.7138 118.838 17.8135 120.192 17.8135C122.77 17.8135 124.703 19.4212 124.703 22.1222C124.703 24.8232 122.77 26.5595 120.192 26.5595ZM111.104 20.9003V29.9035H107.236V21.3505C107.236 18.8424 106.463 17.8778 104.271 17.8778C103.111 17.8778 101.887 18.4566 101.113 19.3569V29.8392H97.2459V14.7267H100.275C100.597 14.7267 100.855 14.9839 100.855 15.3055V15.9486C101.951 14.791 103.498 14.3408 104.98 14.3408C106.656 14.3408 108.074 14.791 109.17 15.7556C110.588 16.9132 111.104 18.328 111.104 20.9003ZM87.8985 14.3406C85.2559 14.3406 84.0313 15.9484 84.0313 15.9484V7.52393H80.1641V29.839C80.1641 29.839 83.1289 29.839 83.3868 29.839C83.709 29.839 83.9669 29.5818 83.9669 29.2603V28.5529C83.9669 28.5529 85.1915 30.2249 87.8341 30.2249C92.217 30.2249 95.633 26.8808 95.633 22.3149C95.6975 17.6847 92.2814 14.3406 87.8985 14.3406ZM87.254 26.5595C85.7715 26.5595 84.6113 25.7878 84.0312 24.8874V19.4855C84.6113 18.7138 85.9004 17.8135 87.254 17.8135C89.8321 17.8135 91.7657 19.4212 91.7657 22.1222C91.7657 24.8231 89.8321 26.5595 87.254 26.5595ZM76.8126 14.3408C77.9728 14.3408 78.5529 14.5337 78.5529 14.5337V18.0707C78.5529 18.0707 75.3302 16.9775 73.3321 19.2926V29.8392H69.4648V14.7267C69.4648 14.7267 72.4297 14.7267 72.6875 14.7267C73.0098 14.7267 73.2676 14.9839 73.2676 15.3055V15.9485C74.0411 15.1125 75.6524 14.3408 76.8126 14.3408ZM36.788 28.4887C36.5947 28.0386 36.4013 27.4598 36.2079 27.074C35.8857 26.3666 35.5634 25.6592 35.3056 25.0161L35.2411 24.9518C32.4696 18.9711 29.5047 12.8617 26.3465 6.81672L26.2176 6.55949C25.8953 5.98071 25.573 5.33762 25.2508 4.69453C24.864 3.98714 24.4773 3.21543 23.8328 2.50804C22.5437 0.900321 20.6745 0 18.7409 0C16.7428 0 14.9381 0.900322 13.5846 2.37942C12.94 3.15113 12.4889 3.85852 12.1021 4.63023C11.7799 5.27331 11.4576 5.9164 11.1353 6.49518L11.0064 6.75241C7.91263 12.7331 4.8833 18.8424 2.11177 24.8875L2.04732 24.9518C1.7895 25.5949 1.46723 26.3022 1.14496 27.0096C0.951602 27.4598 0.75824 27.91 0.564878 28.4244C0.0492459 29.9035 -0.144116 31.3183 0.1137 32.7331C0.564878 35.7556 2.56295 38.2637 5.33447 39.3569C6.36574 39.8071 7.46146 40 8.55717 40C8.87945 40 9.26617 39.9357 9.58844 39.9357C10.942 39.8071 12.2955 39.3569 13.5846 38.5852C15.2604 37.6849 16.8073 36.3344 18.5475 34.4051C20.2878 36.3344 21.8992 37.6206 23.5105 38.5852C24.864 39.3569 26.2176 39.8071 27.5067 39.9357C27.8289 40 28.2156 40 28.5379 40C29.6336 40 30.7938 39.8071 31.7606 39.3569C34.5966 38.2637 36.5302 35.6913 36.9814 32.7331C37.4326 31.3183 37.3037 29.9678 36.788 28.4887ZM18.6745 30.5468C16.4831 27.8458 15.1296 25.2734 14.6139 23.087C14.4206 22.1866 14.3561 21.3506 14.485 20.6432C14.5495 20.0001 14.8073 19.4214 15.1296 18.9712C15.903 17.878 17.1921 17.2349 18.6745 17.2349C20.157 17.2349 21.5105 17.878 22.2195 18.9712C22.5418 19.4214 22.7996 20.0001 22.8641 20.6432C22.993 21.3506 22.9285 22.1866 22.7351 23.087C22.2195 25.2091 20.8015 27.7815 18.6745 30.5468ZM34.6606 32.4115C34.4028 34.4694 32.9848 36.27 30.9868 37.106C30.02 37.4919 28.9887 37.6205 27.9574 37.4919C26.9262 37.3633 25.9594 37.0417 24.9281 36.4629C23.5101 35.6912 22.0277 34.4051 20.3519 32.6044C22.9945 29.389 24.6058 26.3665 25.1859 23.7298C25.4437 22.508 25.5082 21.3504 25.3793 20.3215C25.2504 19.2925 24.8636 18.3922 24.2836 17.6205C23.0589 15.8199 20.9319 14.7909 18.6116 14.7909C16.2913 14.7909 14.1643 15.8842 12.9397 17.6205C12.3596 18.3922 12.0373 19.3568 11.8439 20.3215C11.715 21.3504 11.715 22.508 12.0373 23.7298C12.6174 26.3665 14.2932 29.389 16.8713 32.6044C15.1955 34.4694 13.7131 35.6912 12.2951 36.4629C11.2638 37.0417 10.2326 37.3633 9.26577 37.4919C8.17005 37.6205 7.13879 37.4276 6.23643 37.106C4.23836 36.3343 2.88483 34.4694 2.56256 32.4115C2.43365 31.3826 2.4981 30.4179 2.94928 29.2604C3.07819 28.8745 3.27155 28.4887 3.46491 27.9742C3.72273 27.3311 4.045 26.6237 4.36727 25.9806L4.43172 25.9163C7.20324 19.9356 10.1681 13.8263 13.2619 7.90989L13.3908 7.65265C13.7131 7.07387 14.0354 6.43079 14.3576 5.7877C14.6799 5.14461 15.0666 4.56583 15.4534 4.05137C16.2913 3.08674 17.4514 2.57227 18.6761 2.57227C19.9007 2.57227 21.0609 3.08674 21.8988 4.05137C22.3499 4.56583 22.6722 5.14461 22.9945 5.7877C23.3167 6.36648 23.639 7.00956 23.9613 7.65265L24.0902 7.90989C27.1195 13.8906 30.0844 19.9999 32.8559 25.9163V25.9806C33.1782 26.6237 33.436 27.3311 33.7583 27.9742C33.9517 28.4244 34.145 28.8745 34.2739 29.2604C34.7251 30.3536 34.854 31.3826 34.6606 32.4115Z" fill="#787878"/>
</svg>
