<svg width="71" height="48" viewBox="0 0 71 48" fill="none" xmlns="http://www.w3.org/2000/svg">
<path fill-rule="evenodd" clip-rule="evenodd" d="M25.7763 27.2067V16.1367C25.7763 14.0927 24.1136 12.4535 22.0813 12.4535H7.52705C5.49479 12.4535 3.83203 14.113 3.83203 16.1367V30.4447C3.83203 32.4887 5.49479 34.1279 7.52705 34.1279H22.0813C24.1136 34.1279 25.7763 32.4887 25.7763 30.4447C25.5916 30.3637 18.0373 27.2674 17.1751 26.7007C16.8262 27.1257 14.2602 30.5256 9.80564 30.5256C8.06077 30.5256 5.4332 29.2102 5.4332 26.8424C5.4332 23.3818 8.86136 22.7342 9.72353 22.7342C12.7206 22.7342 16.354 24.1103 16.354 24.1103C17.2367 22.5925 17.6062 21.0747 17.6062 21.0747H9.06664V20.2854H13.4391V18.6867H8.12235V17.8367H13.4185L13.4391 15.8332C13.4391 15.5094 13.5417 15.3272 13.9317 15.3272H15.9845L15.964 17.8569H21.2397V18.7069H15.9845V20.3057H20.2748C20.2748 20.3057 19.3306 23.6853 18.3863 24.8389C18.4273 24.8186 24.8936 27.0448 25.7763 27.2067ZM16.0051 25.8508C16.0051 25.8508 13.2543 24.1913 10.4831 24.1913C8.8203 24.1913 6.97279 24.7782 6.97279 26.721C6.97279 28.3602 9.08716 29.0888 10.4831 29.0888C13.6854 29.0685 16.0051 25.8508 16.0051 25.8508Z" fill="#2CA7DF"/>
<path fill-rule="evenodd" clip-rule="evenodd" d="M29.5128 15.7525H33.9263V14.3763C33.9263 14.3763 33.9263 14.2549 34.0084 14.1537C34.1316 13.9918 34.2753 14.012 34.2753 14.012H36.3691V15.7322H40.8852V16.5822H36.3486V17.9786H40.2078C40.2078 17.9786 39.8178 19.6786 38.6682 20.994C37.4981 22.3499 36.5539 22.9975 36.5539 22.9975C36.5539 22.9975 37.1902 23.382 38.2987 23.9285C39.3251 24.4344 41.0084 25.0213 41.0084 25.0213V26.0129C41.0084 26.0129 39.4072 25.8105 37.1492 24.7784C35.9175 24.2118 35.1785 23.8273 35.1785 23.8273C35.1785 23.8273 34.4395 24.3534 32.8383 24.9808C30.2929 25.9927 29.4102 25.9927 29.4102 25.9927V24.9808C29.4102 24.9808 30.6418 24.6368 31.894 24.0701C33.0436 23.5439 33.9263 22.9773 33.9263 22.9773C33.9263 22.9773 32.7562 22.1678 32.0993 21.4595C31.1756 20.4476 30.7034 19.5976 30.7034 19.5976H32.6741C32.6741 19.5976 33.2694 20.3666 33.8442 20.9535C34.419 21.5404 35.1374 22.0261 35.1374 22.0261C35.1374 22.0261 35.6506 21.8035 36.5949 20.5893C37.5392 19.3548 37.6213 18.7679 37.6213 18.7679H30.1081V17.8977H33.9058V16.5215H29.4717L29.5128 15.7525ZM43.5538 14.1739L45.7298 14.1537L44.2723 17.412H45.0113V25.8915L43.0407 25.9117V19.4964H41.2958L43.5538 14.1739ZM45.8119 16.2584H50.7591V14.2549H52.8119V16.2584H53.6125V17.1084H52.8119V25.0415C52.8119 25.0415 52.7914 25.3451 52.5861 25.5475C52.4424 25.6689 52.2577 25.7498 52.0729 25.7701H49.3838V24.8189H50.4923C50.4923 24.8189 50.636 24.8391 50.6975 24.7582C50.7591 24.6772 50.7797 24.5558 50.7797 24.5558V17.1286H45.8324L45.8119 16.2584ZM46.4688 18.2822H48.2958C48.2958 18.2822 48.4395 18.2822 48.6653 18.8488C48.809 19.1929 49.7533 22.3094 49.7533 22.3094H47.8031C47.7826 22.3094 46.4688 18.2822 46.4688 18.2822ZM55.0084 15.1656H59.2371V14.012H61.6389V15.1656H65.3544C65.3544 15.1656 65.5597 15.1656 65.7239 15.3072C65.806 15.4084 65.8676 15.5299 65.8676 15.6715V17.2703H63.5275V16.056H57.2665V17.2703H55.0084V15.1656ZM55.0084 17.9988H65.8676V18.8488H61.4952V20.4476H65.8676V21.3178H61.4952V24.7784H63.6712L63.0964 22.9773H65.067C65.067 22.9773 65.1902 22.9773 65.2929 23.1189C65.3955 23.2606 65.4981 23.6249 65.4981 23.6249L66.0729 25.6284H54.9879V24.7582H59.2782V21.2976H54.9879V20.4273H59.2782V18.8488H54.9879C55.0084 18.8488 55.0084 17.9988 55.0084 17.9988ZM30.7239 32.5294L32.5304 27.5712H33.2489L35.158 32.5497H34.1521L33.8442 31.5378H32.0377L31.6682 32.5497C31.6682 32.5294 30.7239 32.5294 30.7239 32.5294ZM32.243 30.9711L32.9204 28.9474H32.982L33.6389 30.9711H32.243ZM54.7826 32.5294L56.589 27.5712H57.3075L59.2166 32.5497H58.2107L57.9028 31.5378H56.0964L55.7269 32.5497L54.7826 32.5294ZM56.3017 30.9711L56.9791 28.9474H57.0407L57.6975 30.9711H56.3017ZM38.0729 27.5712V32.5294H41.1316V31.8211H39.0172V27.5712H38.0729ZM44.416 27.5712V32.5294H45.3603V27.551C45.3603 27.5712 44.416 27.5712 44.416 27.5712ZM49.0143 27.5712V32.5497H49.9585V30.6676H51.2723C51.2723 30.6676 52.6066 30.5259 52.6682 29.089C52.6066 27.6522 51.2723 27.5712 51.2723 27.5712H49.0143ZM49.897 28.2795V29.939H51.1286C51.1286 29.939 51.7239 29.7973 51.7239 29.0688C51.7239 28.3402 51.1286 28.2795 51.1286 28.2795H49.897ZM61.2694 27.5712H62.2137L63.2401 29.6557L64.1843 27.5712H65.1902L63.7327 30.4449V32.5294H62.7063L62.7269 30.4449L61.2694 27.5712Z" fill="#3F3A39"/>
<path fill-rule="evenodd" clip-rule="evenodd" d="M66.5455 1.86941C68.4751 1.86941 70.0353 3.52889 70.0353 5.55264V42.3648C70.0353 44.3885 68.4751 46.048 66.5455 46.048H5.2904C3.36078 46.048 1.80066 44.3885 1.80066 42.3648V5.5324C1.80066 3.50865 3.36078 1.84917 5.2904 1.84917H66.5455M66.5455 0.938477H5.2904C2.88864 0.938477 0.917969 3.00271 0.917969 5.5324V42.3445C0.917969 44.8742 2.88864 46.9385 5.2904 46.9385H66.5455C68.9473 46.9385 70.918 44.8742 70.918 42.3445V5.5324C70.918 3.00271 68.9473 0.938477 66.5455 0.938477Z" fill="#DDDDDD"/>
</svg>
