<svg width="70" height="46" viewBox="0 0 70 46" fill="none" xmlns="http://www.w3.org/2000/svg">
<path fill-rule="evenodd" clip-rule="evenodd" d="M65.625 0H4.375C1.96875 0 0 1.97143 0 4.38095V41.619C0 44.0286 1.96875 46 4.375 46H65.625C68.0312 46 70 44.0286 70 41.619V4.38095C70 1.97143 68.0312 0 65.625 0Z" fill="#3498D8"/>
<path fill-rule="evenodd" clip-rule="evenodd" d="M14.6543 23.6571H18.1543L16.4043 19.2762L14.6543 23.6571ZM63.4355 15.3333H54.4668L52.2793 17.7428L50.3105 15.3333H31.2793L29.5293 19.2762L27.7793 15.3333H20.123V17.0857L19.248 15.3333H12.6855L6.3418 30.6666H13.998L14.873 28.2571H17.0605L17.9355 30.6666H26.4668V28.9143L27.123 30.6666H31.498L32.1543 28.6952V30.6666H49.6543L51.8418 28.2571L53.8105 30.6666H62.7793L57.0918 23L63.4355 15.3333ZM36.9668 28.4762H34.5605V19.9333L30.8418 28.4762H28.6543L24.9355 19.9333V28.4762H19.9043L19.0293 26.0666H13.7793L12.9043 28.4762H10.0605L14.6543 17.5238H18.373L22.5293 27.819V17.5238H26.6855L29.9668 24.9714L33.0293 17.5238H37.1855V28.4762H36.9668ZM58.623 28.4762H55.3418L52.498 24.7524L49.2168 28.4762H39.373V17.5238H49.4355L52.498 21.0286L55.7793 17.5238H58.8418L54.0293 23L58.623 28.4762ZM41.7793 19.7143V21.6857H47.248V23.8762H41.7793V26.0666H47.9043L50.7481 22.7809L48.123 19.7143H41.7793Z" fill="white"/>
</svg>
