<svg width="70" height="47" viewBox="0 0 70 47" fill="none" xmlns="http://www.w3.org/2000/svg">
<path fill-rule="evenodd" clip-rule="evenodd" d="M65.625 0.333496H4.375C1.96875 0.333496 0 2.30492 0 4.71445V41.9525C0 44.3621 1.96875 46.3335 4.375 46.3335H65.625C68.0312 46.3335 70 44.3621 70 41.9525V4.71445C70 2.30492 68.0312 0.333496 65.625 0.333496Z" fill="#3498D8"/>
<path fill-rule="evenodd" clip-rule="evenodd" d="M14.6543 23.9908H18.1543L16.4043 19.6098L14.6543 23.9908ZM63.4355 15.667H54.4668L52.2793 18.0765L50.3105 15.667H31.2793L29.5293 19.6098L27.7793 15.667H20.123V17.4194L19.248 15.667H12.6855L6.3418 31.0003H13.998L14.873 28.5908H17.0605L17.9355 31.0003H26.4668V29.2479L27.123 31.0003H31.498L32.1543 29.0289V31.0003H49.6543L51.8418 28.5908L53.8105 31.0003H62.7793L57.0918 23.3337L63.4355 15.667ZM36.9668 28.8098H34.5605V20.267L30.8418 28.8098H28.6543L24.9355 20.267V28.8098H19.9043L19.0293 26.4003H13.7793L12.9043 28.8098H10.0605L14.6543 17.8575H18.373L22.5293 28.1527V17.8575H26.6855L29.9668 25.3051L33.0293 17.8575H37.1855V28.8098H36.9668ZM58.623 28.8098H55.3418L52.498 25.086L49.2168 28.8098H39.373V17.8575H49.4355L52.498 21.3622L55.7793 17.8575H58.8418L54.0293 23.3337L58.623 28.8098ZM41.7793 20.0479V22.0194H47.248V24.2098H41.7793V26.4003H47.9043L50.7481 23.1146L48.123 20.0479H41.7793Z" fill="white"/>
</svg>
