<svg width="47" height="47" viewBox="0 0 47 47" fill="none" xmlns="http://www.w3.org/2000/svg">
<path d="M43.0837 15.6666V23.4999M20.0732 10.7707H13.317C10.0267 10.7707 8.38153 10.7707 7.12479 11.4111C6.01934 11.9743 5.12058 12.8731 4.55733 13.9785C3.91699 15.2353 3.91699 16.8804 3.91699 20.1707L3.91699 22.5207C3.91699 24.3457 3.917 25.2581 4.21514 25.9779C4.61265 26.9376 5.37513 27.7001 6.33482 28.0976C7.05459 28.3957 7.96706 28.3957 9.792 28.3957V36.7186C9.792 37.1733 9.792 37.4006 9.81086 37.5921C9.99401 39.4517 11.4652 40.9229 13.3248 41.106C13.5163 41.1249 13.7436 41.1249 14.1982 41.1249C14.6529 41.1249 14.8802 41.1249 15.0717 41.106C16.9313 40.9229 18.4025 39.4517 18.5856 37.5921C18.6045 37.4006 18.6045 37.1733 18.6045 36.7186V28.3957H20.0732C23.5325 28.3957 27.7641 30.25 31.0287 32.0297C32.9333 33.0679 33.8855 33.587 34.5092 33.5106C35.0876 33.4398 35.5249 33.1801 35.8639 32.7062C36.2295 32.1952 36.2295 31.1726 36.2295 29.1276V10.0389C36.2295 7.9938 36.2295 6.97126 35.8639 6.46021C35.5249 5.98632 35.0876 5.72664 34.5092 5.65581C33.8855 5.57942 32.9333 6.09853 31.0287 7.13675C27.7641 8.9164 23.5325 10.7707 20.0732 10.7707Z" stroke="white" stroke-width="2" stroke-linecap="round" stroke-linejoin="round"/>
</svg>
