<svg width="54" height="54" viewBox="0 0 54 54" fill="none" xmlns="http://www.w3.org/2000/svg">
<g id="annotation-x">
<path id="Icon" d="M21.375 18L32.625 29.25M32.625 18L21.375 29.25M22.275 43.2L25.56 47.58C26.0485 48.2314 26.2928 48.557 26.5922 48.6735C26.8545 48.7755 27.1455 48.7755 27.4078 48.6735C27.7072 48.557 27.9515 48.2314 28.44 47.58L31.725 43.2C32.3846 42.3206 32.7144 41.8808 33.1166 41.5451C33.653 41.0975 34.2862 40.7809 34.9661 40.6204C35.476 40.5 36.0257 40.5 37.125 40.5C40.2701 40.5 41.8427 40.5 43.0831 39.9862C44.7371 39.3011 46.0511 37.9871 46.7362 36.3331C47.25 35.0927 47.25 33.5201 47.25 30.375V17.55C47.25 13.7696 47.25 11.8795 46.5143 10.4356C45.8671 9.16547 44.8345 8.13285 43.5644 7.48571C42.1205 6.75 40.2304 6.75 36.45 6.75H17.55C13.7696 6.75 11.8795 6.75 10.4356 7.48571C9.16547 8.13285 8.13285 9.16547 7.48571 10.4356C6.75 11.8795 6.75 13.7696 6.75 17.55V30.375C6.75 33.5201 6.75 35.0927 7.26381 36.3331C7.9489 37.9871 9.26295 39.3011 10.9169 39.9862C12.1573 40.5 13.7299 40.5 16.875 40.5C17.9743 40.5 18.524 40.5 19.0339 40.6204C19.7138 40.7809 20.347 41.0975 20.8834 41.5451C21.2856 41.8808 21.6154 42.3206 22.275 43.2Z" stroke="white" stroke-width="2" stroke-linecap="round" stroke-linejoin="round"/>
</g>
</svg>
