<svg width="70" height="46" viewBox="0 0 70 46" fill="none" xmlns="http://www.w3.org/2000/svg">
<g clip-path="url(#clip0_2397_15765)">
<path d="M4.29825 1H65.7018C67.5618 1 69 2.43821 69 4.12821V41.8718C69 43.5618 67.5618 45 65.7018 45H4.29825C2.43825 45 1 43.5618 1 41.8718V4.12821C1 2.4382 2.43825 1 4.29825 1Z" fill="white" stroke="#F3F3F3" stroke-width="2"/>
<path fill-rule="evenodd" clip-rule="evenodd" d="M21.6098 16.411C21.1007 17.0203 20.2861 17.5007 19.4714 17.4321C19.3695 16.6084 19.7683 15.7332 20.2351 15.1928C20.7442 14.5664 21.6353 14.1202 22.3566 14.0859C22.4415 14.9439 22.1105 15.7848 21.6098 16.411ZM22.348 17.5951C21.6304 17.5534 20.9756 17.8133 20.4466 18.0233C20.1062 18.1585 19.8179 18.2729 19.5986 18.2729C19.3525 18.2729 19.0524 18.1523 18.7154 18.0169C18.2738 17.8396 17.769 17.6369 17.2395 17.6465C16.0261 17.6638 14.8974 18.3587 14.2779 19.4654C13.005 21.6791 13.947 24.9566 15.1774 26.7584C15.78 27.6506 16.5012 28.6288 17.4517 28.5944C17.8699 28.5785 18.1706 28.4495 18.4819 28.3159C18.8402 28.1621 19.2125 28.0024 19.7938 28.0024C20.355 28.0024 20.711 28.158 21.0527 28.3073C21.3776 28.4493 21.6897 28.5856 22.1529 28.5773C23.1374 28.5601 23.7567 27.685 24.3593 26.7926C25.0095 25.835 25.2952 24.9003 25.3386 24.7585L25.3437 24.7421C25.3437 24.7421 25.3346 24.7373 25.3204 24.7308C25.103 24.6301 23.4417 23.8612 23.4258 21.7992C23.4099 20.0685 24.7435 19.1916 24.9535 19.0535C24.9663 19.0451 24.9749 19.0394 24.9787 19.0365C24.1301 17.7667 22.8063 17.6294 22.348 17.5951ZM29.1623 28.4829V15.107H34.1266C36.6895 15.107 38.48 16.8915 38.48 19.4998C38.48 22.1081 36.6554 23.9098 34.0588 23.9098H31.216V28.4829H29.1623ZM31.216 16.8572H33.5835C35.3656 16.8572 36.3839 17.8181 36.3839 19.5084C36.3839 21.1987 35.3656 22.1682 33.5751 22.1682H31.216V16.8572ZM45.2602 26.8784C44.7171 27.9252 43.5206 28.5858 42.2308 28.5858C40.3214 28.5858 38.9891 27.4361 38.9891 25.703C38.9891 23.9871 40.279 23.0004 42.6636 22.8545L45.2263 22.7V21.9623C45.2263 20.8726 44.522 20.2806 43.2661 20.2806C42.2308 20.2806 41.4755 20.8211 41.3228 21.6447H39.4728C39.5322 19.9116 41.1446 18.6504 43.3255 18.6504C45.676 18.6504 47.2036 19.8945 47.2036 21.8249V28.4829H45.3027V26.8784H45.2602ZM42.7824 26.9986C41.6877 26.9986 40.9918 26.4666 40.9918 25.6515C40.9918 24.8108 41.6622 24.3216 42.9436 24.2445L45.2263 24.0986V24.8536C45.2263 26.1063 44.174 26.9986 42.7824 26.9986ZM53.5087 29.0063C52.6856 31.3485 51.7436 32.1207 49.7409 32.1207C49.5882 32.1207 49.079 32.1036 48.9601 32.0693V30.4648C49.0874 30.482 49.4015 30.4991 49.5627 30.4991C50.4707 30.4991 50.9799 30.113 51.2938 29.1093L51.4805 28.5172L48.0012 18.7791H50.1482L52.5667 26.6811H52.6092L55.0277 18.7791H57.1152L53.5087 29.0063Z" fill="black"/>
</g>
<defs>
<clipPath id="clip0_2397_15765">
<rect width="70" height="46" fill="white"/>
</clipPath>
</defs>
</svg>
