<svg width="71" height="50" viewBox="0 0 71 50" fill="none" xmlns="http://www.w3.org/2000/svg">
<g clip-path="url(#clip0_768_1171)">
<path d="M65.569 1.46484H5.22414C2.89121 1.46484 1 3.35605 1 5.68898V44.3097C1 46.6426 2.89121 48.5338 5.22414 48.5338H65.569C67.9019 48.5338 69.7931 46.6426 69.7931 44.3097V5.68898C69.7931 3.35605 67.9019 1.46484 65.569 1.46484Z" fill="white" stroke="#F3F3F3" stroke-width="2"/>
<path fill-rule="evenodd" clip-rule="evenodd" d="M21.6098 18.8759C21.1007 19.4851 20.2861 19.9656 19.4714 19.8969C19.3695 19.0732 19.7683 18.1981 20.2351 17.6576C20.7442 17.0312 21.6353 16.5851 22.3566 16.5508C22.4415 17.4088 22.1105 18.2496 21.6098 18.8759ZM22.348 20.06C21.6304 20.0182 20.9756 20.2782 20.4466 20.4882C20.1062 20.6233 19.8179 20.7377 19.5986 20.7377C19.3525 20.7377 19.0524 20.6172 18.7154 20.4818C18.2738 20.3045 17.769 20.1017 17.2395 20.1114C16.0261 20.1286 14.8974 20.8236 14.2779 21.9303C13.005 24.144 13.947 27.4214 15.1774 29.2232C15.78 30.1155 16.5012 31.0936 17.4517 31.0592C17.8699 31.0433 18.1706 30.9143 18.4819 30.7807C18.8402 30.6269 19.2125 30.4673 19.7938 30.4673C20.355 30.4673 20.711 30.6228 21.0527 30.7721C21.3776 30.9142 21.6897 31.0504 22.1529 31.0421C23.1374 31.025 23.7567 30.1498 24.3593 29.2575C25.0095 28.2998 25.2952 27.3652 25.3386 27.2234L25.3437 27.207C25.3437 27.207 25.3346 27.2021 25.3204 27.1956C25.103 27.095 23.4417 26.326 23.4258 24.2641C23.4099 22.5334 24.7435 21.6564 24.9535 21.5184C24.9663 21.5099 24.9749 21.5042 24.9787 21.5013C24.1301 20.2316 22.8063 20.0942 22.348 20.06ZM29.1623 30.9477V17.5718H34.1266C36.6895 17.5718 38.48 19.3563 38.48 21.9647C38.48 24.5729 36.6554 26.3747 34.0588 26.3747H31.216V30.9477H29.1623ZM31.216 19.3221H33.5835C35.3656 19.3221 36.3839 20.283 36.3839 21.9732C36.3839 23.6635 35.3656 24.633 33.5751 24.633H31.216V19.3221ZM45.2602 29.3433C44.7171 30.39 43.5206 31.0507 42.2308 31.0507C40.3214 31.0507 38.9891 29.901 38.9891 28.1679C38.9891 26.4519 40.279 25.4653 42.6636 25.3194L45.2263 25.1649V24.4271C45.2263 23.3374 44.522 22.7454 43.2661 22.7454C42.2308 22.7454 41.4755 23.286 41.3228 24.1096H39.4728C39.5322 22.3765 41.1446 21.1153 43.3255 21.1153C45.676 21.1153 47.2036 22.3593 47.2036 24.2898V30.9477H45.3027V29.3433H45.2602ZM42.7824 29.4635C41.6877 29.4635 40.9918 28.9315 40.9918 28.1163C40.9918 27.2756 41.6622 26.7865 42.9436 26.7094L45.2263 26.5634V27.3185C45.2263 28.5711 44.174 29.4635 42.7824 29.4635ZM53.5087 31.4712C52.6856 33.8134 51.7436 34.5856 49.7409 34.5856C49.5882 34.5856 49.079 34.5684 48.9601 34.5341V32.9297C49.0874 32.9468 49.4015 32.964 49.5627 32.964C50.4707 32.964 50.9799 32.5779 51.2938 31.5741L51.4805 30.982L48.0012 21.2439H50.1482L52.5667 29.146H52.6092L55.0277 21.2439H57.1152L53.5087 31.4712Z" fill="black"/>
</g>
<defs>
<clipPath id="clip0_768_1171">
<rect width="71" height="49" fill="white" transform="translate(0 0.464844)"/>
</clipPath>
</defs>
</svg>
