<svg width="141" height="28" viewBox="0 0 141 28" fill="none" xmlns="http://www.w3.org/2000/svg">
<path fill-rule="evenodd" clip-rule="evenodd" d="M23.172 27.9999H24.4671C27.8193 27.6758 30.4394 24.8608 30.4394 21.4355C30.4394 17.793 27.4757 14.8398 23.8196 14.8398C20.1634 14.8398 17.1992 17.793 17.1992 21.4355C17.1992 24.8608 19.8198 27.6758 23.172 27.9999ZM5.97274 28H7.26787C10.6202 27.6758 13.2407 24.8608 13.2407 21.4355C13.2407 17.793 10.2765 14.8409 6.62034 14.8409C2.96368 14.8409 0 17.793 0 21.4355C0 24.8608 2.62007 27.6758 5.97274 28ZM15.2219 13.1918C18.878 13.1918 21.8417 10.2381 21.8417 6.59562C21.8417 2.95365 18.878 0 15.2219 0C11.5658 0 8.60156 2.95365 8.60156 6.59562C8.60156 10.2381 11.5658 13.1918 15.2219 13.1918ZM62.308 18.9263C63.9321 20.0475 65.7046 20.5915 67.4084 20.5915C69.0315 20.5915 70.7092 19.7532 70.7092 18.2945C70.7092 16.8169 68.6058 16.2856 66.5876 15.7758C65.945 15.6135 65.311 15.4534 64.7563 15.2656C62.4586 14.488 60.4796 12.8799 60.4796 10.2761C60.4796 6.29202 64.043 4.64648 67.3688 4.64648C69.4764 4.64648 71.6502 5.33896 73.0602 6.33043C73.5458 6.69691 73.2498 7.1179 73.2498 7.1179L71.904 9.03232C71.7529 9.24775 71.4887 9.4341 71.1089 9.20103C71.0925 9.19096 71.0744 9.17957 71.0545 9.16701C71.0428 9.15959 71.0305 9.15177 71.0175 9.14356C70.5437 8.84308 69.2591 8.02839 67.3688 8.02839C65.3399 8.02839 64.1175 8.96224 64.1175 10.1193C64.1175 11.5068 65.7057 11.9434 67.5668 12.4163C70.8093 13.2873 74.3466 14.3338 74.3466 18.2945C74.3466 21.8047 71.051 23.974 67.4084 23.974C64.648 23.974 62.2981 23.1901 60.327 21.7491C59.9159 21.3396 60.203 20.9596 60.203 20.9596L61.542 19.055C61.814 18.6984 62.1579 18.823 62.308 18.9263ZM40.5977 14.3099C40.5977 17.7795 43.3597 20.5914 46.7668 20.5914C50.1739 20.5914 52.9354 17.7795 52.9354 14.3099C52.9354 10.8413 50.1739 8.02881 46.7668 8.02881C43.3597 8.02881 40.5977 10.8413 40.5977 14.3099ZM55.1569 23.5789C53.8153 23.5789 53.0405 22.3523 52.9555 21.3883V21.3857C51.6832 23.0629 49.115 23.9739 46.7583 23.9739V23.9734C41.4015 23.9734 37.0586 19.6468 37.0586 14.3099C37.0586 8.97311 41.4015 4.64697 46.7583 4.64697C49.115 4.64697 51.4648 5.40589 52.9555 7.23518V5.8383H52.9587C52.9748 5.54864 53.215 5.31661 53.5094 5.31661H55.9422C56.2365 5.31661 56.4767 5.54864 56.4929 5.8383H56.496V23.0276C56.496 23.3308 56.2464 23.5789 55.9422 23.5789H55.1569ZM80.2344 14.3099C80.2344 17.7795 82.9964 20.5914 86.403 20.5914C89.8101 20.5914 92.5716 17.7795 92.5716 14.3099C92.5716 10.8413 89.8101 8.02881 86.403 8.02881C82.9964 8.02881 80.2344 10.8413 80.2344 14.3099ZM94.7937 23.5789C93.4515 23.5789 92.6772 22.3523 92.5917 21.3883V21.3857C91.3194 23.0629 88.7512 23.9739 86.3945 23.9739V23.9734C81.0377 23.9734 76.6953 19.6468 76.6953 14.3099C76.6953 8.97311 81.0377 4.64697 86.3945 4.64697C88.7512 4.64697 91.101 5.40589 92.5917 7.23518V5.8383H92.5949C92.611 5.54864 92.8512 5.31661 93.1456 5.31661H95.5784C95.8722 5.31661 96.1129 5.54864 96.1291 5.8383H96.1322V23.0276C96.1322 23.3308 95.8832 23.5789 95.5784 23.5789H94.7937ZM130.716 20.5914C127.309 20.5914 124.547 17.7795 124.547 14.3099C124.547 10.8413 127.309 8.02881 130.716 8.02881C134.123 8.02881 136.884 10.8413 136.884 14.3099C136.884 17.7795 134.123 20.5914 130.716 20.5914ZM136.905 21.3883C136.99 22.3523 137.764 23.5789 139.107 23.5789H139.892C140.196 23.5789 140.446 23.3308 140.446 23.0276V5.8383H140.442C140.426 5.54864 140.186 5.31661 139.892 5.31661H137.459C137.165 5.31661 136.924 5.54864 136.908 5.8383H136.905V7.23518C135.415 5.40589 133.064 4.64697 130.708 4.64697C125.351 4.64697 121.008 8.97311 121.008 14.3099C121.008 19.6468 125.351 23.9734 130.708 23.9734V23.9739C133.064 23.9739 135.632 23.0629 136.905 21.3857V21.3883ZM117.93 13.0844L117.932 21.9791L117.932 21.9796V23.1008H117.929C117.929 23.1008 117.929 23.1013 117.929 23.1024C117.923 23.2098 117.886 23.3095 117.826 23.392C117.825 23.3936 117.823 23.3951 117.822 23.3972C117.803 23.4221 117.782 23.446 117.76 23.4683C117.757 23.4707 117.754 23.4727 117.751 23.4748L117.751 23.4748L117.751 23.4749C117.749 23.4769 117.746 23.479 117.743 23.4813C117.724 23.499 117.703 23.5166 117.68 23.5317C117.673 23.5363 117.666 23.5398 117.659 23.5434C117.654 23.5455 117.65 23.5475 117.646 23.5498L117.641 23.5525C117.624 23.5625 117.607 23.5723 117.589 23.5799C117.575 23.5857 117.56 23.59 117.546 23.5941L117.53 23.5986C117.524 23.6001 117.519 23.6018 117.513 23.6036C117.505 23.6063 117.496 23.609 117.488 23.6106C117.453 23.6178 117.416 23.622 117.379 23.622H114.946C114.652 23.622 114.411 23.39 114.395 23.1008H114.392V21.4542C114.392 21.4516 114.392 21.449 114.392 21.4464L114.392 21.4426L114.391 21.4372L114.391 21.4309L114.39 21.434L114.388 12.9468C114.388 10.2537 112.196 8.07041 109.493 8.07041C106.79 8.07041 104.599 10.2537 104.599 12.9468V23.1008H104.595C104.59 23.2088 104.553 23.3095 104.492 23.3925L104.491 23.3931C104.472 23.4201 104.45 23.4455 104.426 23.4689L104.424 23.4704L104.421 23.4721L104.418 23.4746C104.417 23.4755 104.416 23.4765 104.415 23.4777C104.393 23.4969 104.37 23.5156 104.346 23.5317C104.337 23.5374 104.327 23.542 104.317 23.5478L104.306 23.5536C104.29 23.5631 104.273 23.5726 104.255 23.5799C104.244 23.5847 104.232 23.5881 104.22 23.5914L104.213 23.5935L104.201 23.5971C104.195 23.5987 104.189 23.6007 104.183 23.6026C104.179 23.6039 104.175 23.6052 104.171 23.6064C104.165 23.608 104.16 23.6095 104.154 23.6106C104.119 23.6178 104.082 23.622 104.045 23.622H101.612C101.318 23.622 101.077 23.39 101.062 23.1008H101.059V21.4335V21.4309V5.90994C101.059 5.60679 101.307 5.35814 101.612 5.35814H102.4C103.945 5.35814 104.444 6.34131 104.595 7.27672C105.064 6.06826 107.276 4.68799 109.693 4.68799C114.756 4.68799 117.931 8.07041 117.931 13.0844H117.93Z" fill="#787878"/>
</svg>
