<svg width="56" height="54" viewBox="0 0 56 54" fill="none" xmlns="http://www.w3.org/2000/svg">
<path d="M11.8 21.5714V32.4286M44.2 21.5714V32.4286M1 16.6857L1 37.3143C1 40.3546 1 41.8747 1.58856 43.0359C2.10628 44.0574 2.93238 44.8879 3.94845 45.4083C5.10357 46 6.61572 46 9.64 46L46.36 46C49.3843 46 50.8964 46 52.0516 45.4083C53.0676 44.8879 53.8937 44.0574 54.4114 43.0359C55 41.8747 55 40.3546 55 37.3143V16.6857C55 13.6454 55 12.1253 54.4114 10.9641C53.8937 9.9426 53.0676 9.11214 52.0516 8.59168C50.8964 8 49.3843 8 46.36 8L9.64 8C6.61572 8 5.10358 8 3.94845 8.59168C2.93238 9.11213 2.10628 9.9426 1.58857 10.9641C1 12.1253 1 13.6454 1 16.6857ZM34.75 27C34.75 30.7476 31.7279 33.7857 28 33.7857C24.2721 33.7857 21.25 30.7476 21.25 27C21.25 23.2524 24.2721 20.2143 28 20.2143C31.7279 20.2143 34.75 23.2524 34.75 27Z" stroke="white" stroke-width="2" stroke-linecap="round" stroke-linejoin="round"/>
</svg>
