<svg width="70" height="46" viewBox="0 0 70 46" fill="none" xmlns="http://www.w3.org/2000/svg">
<path d="M4.375 0.5H65.625C67.7544 0.5 69.4999 2.24688 69.5 4.38086V41.6191C69.4999 43.7531 67.7544 45.5 65.625 45.5H4.375C2.24556 45.5 0.500051 43.7531 0.5 41.6191V4.38086C0.500051 2.24688 2.24556 0.5 4.375 0.5Z" fill="white" stroke="#F3F3F3"/>
<path d="M21.4238 19.3675H24.4955C25.7395 19.3675 26.6669 19.9127 26.6669 21.0611C26.6669 21.9031 26.2366 22.3719 25.4902 22.6207V22.64C26.3802 22.822 26.8394 23.3004 26.8394 24.1136C26.8394 25.7116 25.4325 26.0464 24.2365 26.0464H21.4238V19.3675ZM23.2034 22.0089H23.701C24.2846 22.0089 24.8879 21.8652 24.8879 21.3003C24.8879 20.6885 24.3134 20.6308 23.7197 20.6308H23.2034V22.0089ZM23.2034 24.7837H23.7298C24.3807 24.7837 25.0598 24.6875 25.0598 24.0084C25.0598 23.2812 24.3615 23.2145 23.7485 23.2145H23.2034V24.7837Z" fill="#00529C"/>
<path d="M29.1762 19.3675H31.3578L33.9319 26.0464H31.9799L31.4822 24.6208H28.9755L28.449 26.0464H26.6406L29.1762 19.3675ZM30.267 20.7456H30.2478L29.3866 23.3581H31.0615L30.267 20.7456Z" fill="#00529C"/>
<path d="M34.1777 19.3675H36.4453L38.7038 23.9032H38.7225L38.6942 19.3675H40.3211V26.0464H38.1101L35.7758 21.4819H35.7571L35.8137 26.0464H34.1777V19.3675Z" fill="#00529C"/>
<path d="M40.9238 19.3675H42.7034V22.0948H42.7226L44.7318 19.3675H46.8749L44.4066 22.4771L47.0666 26.0464H44.7985L42.7226 23.0132H42.7034V26.0464H40.9238V19.3675Z" fill="#00529C"/>
<path d="M49.2734 19.3675H52.3451C53.5886 19.3675 54.5171 19.9127 54.5171 21.0611C54.5171 21.9031 54.0868 22.3719 53.3403 22.6207V22.64C54.2304 22.822 54.689 23.3004 54.689 24.1136C54.689 25.7116 53.2827 26.0464 52.0867 26.0464H49.2734V19.3675ZM51.053 22.0089H51.5506C52.1348 22.0089 52.737 21.8652 52.737 21.3003C52.737 20.6885 52.1636 20.6308 51.5698 20.6308H51.053V22.0089ZM51.053 24.7837H51.5795C52.2298 24.7837 52.9095 24.6875 52.9095 24.0084C52.9095 23.2812 52.2111 23.2145 51.5987 23.2145H51.053V24.7837Z" fill="#00529C"/>
<path d="M55.084 19.3675H58.2608C59.4472 19.3675 60.4136 19.9036 60.4136 21.0521C60.4136 21.9416 59.9929 22.5348 59.1317 22.7355V22.7547C59.7051 22.908 59.7435 23.4152 60.0788 24.2284L60.7291 26.0464H58.8732L58.4904 24.8414C58.1268 23.6929 57.8967 23.405 57.2368 23.405H56.8635V26.0464H55.084V19.3675ZM56.8635 22.1423H57.3323C57.9068 22.1423 58.6341 22.1231 58.6341 21.3671C58.6341 20.7456 58.012 20.6308 57.3323 20.6308H56.8635V22.1423Z" fill="#00529C"/>
<path d="M61.2207 19.3677H63.0003V26.0465H61.2207V19.3677Z" fill="#00529C"/>
<path d="M17.3616 15.9998H8.04759C6.91664 15.9998 6 16.9391 6 18.0978V18.1198V27.3218C6 28.4692 6.89967 29.4022 8.01593 29.4192H17.3565C18.4874 29.4192 19.4046 28.4805 19.4046 27.3218L19.4086 18.0978C19.4086 16.9391 18.4925 15.9998 17.3616 15.9998ZM9.15423 28.3442L8.64643 28.3499C8.03119 28.3499 7.53244 27.8443 7.53244 27.2206L7.52962 27.1318V18.6135L7.53301 18.1543C7.55619 17.551 8.01479 17.0658 8.61477 17.0658H9.64789C10.5843 17.0658 11.3432 17.8801 11.3432 18.8397C11.3432 19.3147 11.1572 19.7456 10.8558 20.0588L8.22006 22.7336L10.6906 25.2494C11.009 25.5779 11.2013 26.0088 11.2013 26.481C11.2013 27.5101 10.2852 28.3442 9.15423 28.3442ZM16.7492 28.3357L12.1433 28.334C12.1433 28.334 12.6755 27.1833 12.6755 26.4708C12.6755 25.6017 12.3854 24.8258 11.9307 24.3124L10.3553 22.7064L11.963 21.045C12.4419 20.5955 12.7597 19.797 12.7597 18.8872C12.7597 18.1668 12.5607 17.5289 12.24 17.0658H13.3557C14.2922 17.0658 15.0516 17.8801 15.0516 18.8397C15.0516 19.3147 14.8656 19.7456 14.5642 20.0588L11.9788 22.7058L17.3486 28.1814C17.1784 28.2882 16.964 28.3357 16.7492 28.3357ZM17.8739 26.6263L14.0258 22.7041L15.8585 20.8415C16.2312 20.3749 16.4681 19.6726 16.4681 18.8872C16.4681 18.1622 16.2662 17.508 15.9428 17.0449L16.7627 17.0697C17.378 17.0697 17.8767 17.5753 17.8767 18.199L17.8739 26.6263Z" fill="#00529C"/>
</svg>
