<svg width="70" height="46" viewBox="0 0 70 46" fill="none" xmlns="http://www.w3.org/2000/svg">
<rect x="0.5" y="0.5" width="69" height="45" rx="4.5" fill="white"/>
<rect x="0.5" y="0.5" width="69" height="45" rx="4.5" stroke="#F3F3F3"/>
<path d="M21.3966 21V12.36H24.8526C25.4686 12.36 25.9666 12.484 26.3466 12.732C26.7266 12.976 27.0046 13.284 27.1806 13.656C27.3566 14.028 27.4446 14.404 27.4446 14.784C27.4446 15.268 27.3346 15.67 27.1146 15.99C26.8986 16.31 26.6006 16.524 26.2206 16.632V16.332C26.7606 16.444 27.1646 16.694 27.4326 17.082C27.7046 17.47 27.8406 17.904 27.8406 18.384C27.8406 18.9 27.7446 19.354 27.5526 19.746C27.3646 20.138 27.0766 20.446 26.6886 20.67C26.3006 20.89 25.8126 21 25.2246 21H21.3966ZM23.0526 19.464H25.0566C25.2766 19.464 25.4726 19.418 25.6446 19.326C25.8166 19.23 25.9506 19.098 26.0466 18.93C26.1466 18.758 26.1966 18.556 26.1966 18.324C26.1966 18.12 26.1546 17.938 26.0706 17.778C25.9866 17.618 25.8586 17.492 25.6866 17.4C25.5186 17.304 25.3086 17.256 25.0566 17.256H23.0526V19.464ZM23.0526 15.732H24.8286C25.0126 15.732 25.1766 15.7 25.3206 15.636C25.4646 15.572 25.5786 15.474 25.6626 15.342C25.7466 15.206 25.7886 15.032 25.7886 14.82C25.7886 14.556 25.7066 14.334 25.5426 14.154C25.3786 13.974 25.1406 13.884 24.8286 13.884H23.0526V15.732ZM30.8373 21.18C30.3733 21.18 29.9793 21.092 29.6553 20.916C29.3353 20.736 29.0913 20.498 28.9233 20.202C28.7593 19.902 28.6773 19.572 28.6773 19.212C28.6773 18.912 28.7233 18.638 28.8153 18.39C28.9073 18.142 29.0553 17.924 29.2593 17.736C29.4673 17.544 29.7453 17.384 30.0933 17.256C30.3333 17.168 30.6193 17.09 30.9513 17.022C31.2833 16.954 31.6593 16.89 32.0793 16.83C32.4993 16.766 32.9613 16.696 33.4653 16.62L32.8773 16.944C32.8773 16.56 32.7853 16.278 32.6013 16.098C32.4173 15.918 32.1093 15.828 31.6773 15.828C31.4373 15.828 31.1873 15.886 30.9273 16.002C30.6673 16.118 30.4853 16.324 30.3813 16.62L28.9053 16.152C29.0693 15.616 29.3773 15.18 29.8293 14.844C30.2813 14.508 30.8973 14.34 31.6773 14.34C32.2493 14.34 32.7573 14.428 33.2013 14.604C33.6453 14.78 33.9813 15.084 34.2093 15.516C34.3373 15.756 34.4133 15.996 34.4373 16.236C34.4613 16.476 34.4733 16.744 34.4733 17.04V21H33.0453V19.668L33.2493 19.944C32.9333 20.38 32.5913 20.696 32.2233 20.892C31.8593 21.084 31.3973 21.18 30.8373 21.18ZM31.1853 19.896C31.4853 19.896 31.7373 19.844 31.9413 19.74C32.1493 19.632 32.3133 19.51 32.4333 19.374C32.5573 19.238 32.6413 19.124 32.6853 19.032C32.7693 18.856 32.8173 18.652 32.8293 18.42C32.8453 18.184 32.8533 17.988 32.8533 17.832L33.3333 17.952C32.8493 18.032 32.4573 18.1 32.1573 18.156C31.8573 18.208 31.6153 18.256 31.4313 18.3C31.2473 18.344 31.0853 18.392 30.9453 18.444C30.7853 18.508 30.6553 18.578 30.5553 18.654C30.4593 18.726 30.3873 18.806 30.3393 18.894C30.2953 18.982 30.2733 19.08 30.2733 19.188C30.2733 19.336 30.3093 19.464 30.3813 19.572C30.4573 19.676 30.5633 19.756 30.6993 19.812C30.8353 19.868 30.9973 19.896 31.1853 19.896ZM40.4494 21V17.94C40.4494 17.792 40.4414 17.604 40.4254 17.376C40.4094 17.144 40.3594 16.912 40.2754 16.68C40.1914 16.448 40.0534 16.254 39.8614 16.098C39.6734 15.942 39.4054 15.864 39.0574 15.864C38.9174 15.864 38.7674 15.886 38.6074 15.93C38.4474 15.974 38.2974 16.06 38.1574 16.188C38.0174 16.312 37.9014 16.496 37.8094 16.74C37.7214 16.984 37.6774 17.308 37.6774 17.712L36.7414 17.268C36.7414 16.756 36.8454 16.276 37.0534 15.828C37.2614 15.38 37.5734 15.018 37.9894 14.742C38.4094 14.466 38.9374 14.328 39.5734 14.328C40.0814 14.328 40.4954 14.414 40.8154 14.586C41.1354 14.758 41.3834 14.976 41.5594 15.24C41.7394 15.504 41.8674 15.78 41.9434 16.068C42.0194 16.352 42.0654 16.612 42.0814 16.848C42.0974 17.084 42.1054 17.256 42.1054 17.364V21H40.4494ZM36.0214 21V14.52H37.4734V16.668H37.6774V21H36.0214ZM43.6503 21L43.6623 12.36H45.3183V17.64L47.5143 14.52H49.5303L47.1903 17.76L49.6863 21H47.5623L45.3183 17.88V21H43.6503ZM9.99439 35V27.884H7.27039V26.36H14.3504V27.884H11.6264V35H9.99439ZM14.717 35V28.52H16.157V30.104L16.001 29.9C16.085 29.676 16.197 29.472 16.337 29.288C16.477 29.104 16.649 28.952 16.853 28.832C17.009 28.736 17.179 28.662 17.363 28.61C17.547 28.554 17.737 28.52 17.933 28.508C18.129 28.492 18.325 28.496 18.521 28.52V30.044C18.341 29.988 18.131 29.97 17.891 29.99C17.655 30.006 17.441 30.06 17.249 30.152C17.057 30.24 16.895 30.358 16.763 30.506C16.631 30.65 16.531 30.822 16.463 31.022C16.395 31.218 16.361 31.44 16.361 31.688V35H14.717ZM21.3334 35.18C20.8694 35.18 20.4754 35.092 20.1514 34.916C19.8314 34.736 19.5874 34.498 19.4194 34.202C19.2554 33.902 19.1734 33.572 19.1734 33.212C19.1734 32.912 19.2194 32.638 19.3114 32.39C19.4034 32.142 19.5514 31.924 19.7554 31.736C19.9634 31.544 20.2414 31.384 20.5894 31.256C20.8294 31.168 21.1154 31.09 21.4474 31.022C21.7794 30.954 22.1554 30.89 22.5754 30.83C22.9954 30.766 23.4574 30.696 23.9614 30.62L23.3734 30.944C23.3734 30.56 23.2814 30.278 23.0974 30.098C22.9134 29.918 22.6054 29.828 22.1734 29.828C21.9334 29.828 21.6834 29.886 21.4234 30.002C21.1634 30.118 20.9814 30.324 20.8774 30.62L19.4014 30.152C19.5654 29.616 19.8734 29.18 20.3254 28.844C20.7774 28.508 21.3934 28.34 22.1734 28.34C22.7454 28.34 23.2534 28.428 23.6974 28.604C24.1414 28.78 24.4774 29.084 24.7054 29.516C24.8334 29.756 24.9094 29.996 24.9334 30.236C24.9574 30.476 24.9694 30.744 24.9694 31.04V35H23.5414V33.668L23.7454 33.944C23.4294 34.38 23.0874 34.696 22.7194 34.892C22.3554 35.084 21.8934 35.18 21.3334 35.18ZM21.6814 33.896C21.9814 33.896 22.2334 33.844 22.4374 33.74C22.6454 33.632 22.8094 33.51 22.9294 33.374C23.0534 33.238 23.1374 33.124 23.1814 33.032C23.2654 32.856 23.3134 32.652 23.3254 32.42C23.3414 32.184 23.3494 31.988 23.3494 31.832L23.8294 31.952C23.3454 32.032 22.9534 32.1 22.6534 32.156C22.3534 32.208 22.1114 32.256 21.9274 32.3C21.7434 32.344 21.5814 32.392 21.4414 32.444C21.2814 32.508 21.1514 32.578 21.0514 32.654C20.9554 32.726 20.8834 32.806 20.8354 32.894C20.7914 32.982 20.7694 33.08 20.7694 33.188C20.7694 33.336 20.8054 33.464 20.8774 33.572C20.9534 33.676 21.0594 33.756 21.1954 33.812C21.3314 33.868 21.4934 33.896 21.6814 33.896ZM30.9455 35V31.94C30.9455 31.792 30.9375 31.604 30.9215 31.376C30.9055 31.144 30.8555 30.912 30.7715 30.68C30.6875 30.448 30.5495 30.254 30.3575 30.098C30.1695 29.942 29.9015 29.864 29.5535 29.864C29.4135 29.864 29.2635 29.886 29.1035 29.93C28.9435 29.974 28.7935 30.06 28.6535 30.188C28.5135 30.312 28.3975 30.496 28.3055 30.74C28.2175 30.984 28.1735 31.308 28.1735 31.712L27.2375 31.268C27.2375 30.756 27.3415 30.276 27.5495 29.828C27.7575 29.38 28.0695 29.018 28.4855 28.742C28.9055 28.466 29.4335 28.328 30.0695 28.328C30.5775 28.328 30.9915 28.414 31.3115 28.586C31.6315 28.758 31.8795 28.976 32.0555 29.24C32.2355 29.504 32.3635 29.78 32.4395 30.068C32.5155 30.352 32.5615 30.612 32.5775 30.848C32.5935 31.084 32.6015 31.256 32.6015 31.364V35H30.9455ZM26.5175 35V28.52H27.9695V30.668H28.1735V35H26.5175ZM36.6904 35.18C35.8744 35.18 35.2144 34.996 34.7104 34.628C34.2104 34.256 33.9064 33.732 33.7984 33.056L35.4664 32.804C35.5344 33.108 35.6844 33.346 35.9164 33.518C36.1524 33.69 36.4504 33.776 36.8104 33.776C37.1064 33.776 37.3344 33.72 37.4944 33.608C37.6544 33.492 37.7344 33.332 37.7344 33.128C37.7344 33 37.7024 32.898 37.6384 32.822C37.5744 32.742 37.4304 32.664 37.2064 32.588C36.9864 32.512 36.6424 32.412 36.1744 32.288C35.6464 32.152 35.2244 32 34.9084 31.832C34.5924 31.664 34.3644 31.464 34.2244 31.232C34.0844 30.996 34.0144 30.712 34.0144 30.38C34.0144 29.964 34.1204 29.604 34.3324 29.3C34.5444 28.992 34.8424 28.756 35.2264 28.592C35.6144 28.424 36.0704 28.34 36.5944 28.34C37.1024 28.34 37.5524 28.418 37.9444 28.574C38.3364 28.73 38.6524 28.952 38.8924 29.24C39.1364 29.528 39.2864 29.868 39.3424 30.26L37.6744 30.56C37.6464 30.32 37.5424 30.13 37.3624 29.99C37.1824 29.85 36.9384 29.768 36.6304 29.744C36.3304 29.724 36.0884 29.764 35.9044 29.864C35.7244 29.964 35.6344 30.108 35.6344 30.296C35.6344 30.408 35.6724 30.502 35.7484 30.578C35.8284 30.654 35.9904 30.732 36.2344 30.812C36.4824 30.892 36.8584 30.996 37.3624 31.124C37.8544 31.252 38.2484 31.402 38.5444 31.574C38.8444 31.742 39.0624 31.946 39.1984 32.186C39.3344 32.422 39.4024 32.708 39.4024 33.044C39.4024 33.708 39.1624 34.23 38.6824 34.61C38.2024 34.99 37.5384 35.18 36.6904 35.18ZM41.2609 35V28.544C41.2609 28.38 41.2649 28.194 41.2729 27.986C41.2809 27.778 41.3129 27.568 41.3689 27.356C41.4289 27.144 41.5369 26.952 41.6929 26.78C41.8929 26.556 42.1089 26.404 42.3409 26.324C42.5769 26.24 42.8049 26.196 43.0249 26.192C43.2449 26.184 43.4329 26.18 43.5889 26.18H44.3929V27.5H43.6489C43.3929 27.5 43.2029 27.566 43.0789 27.698C42.9549 27.826 42.8929 27.98 42.8929 28.16V35H41.2609ZM40.2409 29.78V28.52H44.3929V29.78H40.2409ZM48.1274 35.18C47.4634 35.18 46.8774 35.038 46.3694 34.754C45.8654 34.466 45.4694 34.072 45.1814 33.572C44.8974 33.068 44.7554 32.492 44.7554 31.844C44.7554 31.136 44.8954 30.52 45.1754 29.996C45.4554 29.472 45.8414 29.066 46.3334 28.778C46.8254 28.486 47.3914 28.34 48.0314 28.34C48.7114 28.34 49.2894 28.5 49.7654 28.82C50.2414 29.14 50.5934 29.59 50.8214 30.17C51.0494 30.75 51.1294 31.432 51.0614 32.216H49.4474V31.616C49.4474 30.956 49.3414 30.482 49.1294 30.194C48.9214 29.902 48.5794 29.756 48.1034 29.756C47.5474 29.756 47.1374 29.926 46.8734 30.266C46.6134 30.602 46.4834 31.1 46.4834 31.76C46.4834 32.364 46.6134 32.832 46.8734 33.164C47.1374 33.492 47.5234 33.656 48.0314 33.656C48.3514 33.656 48.6254 33.586 48.8534 33.446C49.0814 33.306 49.2554 33.104 49.3754 32.84L51.0074 33.308C50.7634 33.9 50.3774 34.36 49.8494 34.688C49.3254 35.016 48.7514 35.18 48.1274 35.18ZM45.9794 32.216V31.004H50.2754V32.216H45.9794ZM52.4162 35V28.52H53.8562V30.104L53.7002 29.9C53.7842 29.676 53.8962 29.472 54.0362 29.288C54.1762 29.104 54.3482 28.952 54.5522 28.832C54.7082 28.736 54.8782 28.662 55.0622 28.61C55.2462 28.554 55.4362 28.52 55.6322 28.508C55.8282 28.492 56.0242 28.496 56.2202 28.52V30.044C56.0402 29.988 55.8302 29.97 55.5902 29.99C55.3542 30.006 55.1402 30.06 54.9482 30.152C54.7562 30.24 54.5942 30.358 54.4622 30.506C54.3302 30.65 54.2302 30.822 54.1622 31.022C54.0942 31.218 54.0602 31.44 54.0602 31.688V35H52.4162ZM59.6591 35.18C58.8431 35.18 58.1831 34.996 57.6791 34.628C57.1791 34.256 56.8751 33.732 56.7671 33.056L58.4351 32.804C58.5031 33.108 58.6531 33.346 58.8851 33.518C59.1211 33.69 59.4191 33.776 59.7791 33.776C60.0751 33.776 60.3031 33.72 60.4631 33.608C60.6231 33.492 60.7031 33.332 60.7031 33.128C60.7031 33 60.6711 32.898 60.6071 32.822C60.5431 32.742 60.3991 32.664 60.1751 32.588C59.9551 32.512 59.6111 32.412 59.1431 32.288C58.6151 32.152 58.1931 32 57.8771 31.832C57.5611 31.664 57.3331 31.464 57.1931 31.232C57.0531 30.996 56.9831 30.712 56.9831 30.38C56.9831 29.964 57.0891 29.604 57.3011 29.3C57.5131 28.992 57.8111 28.756 58.1951 28.592C58.5831 28.424 59.0391 28.34 59.5631 28.34C60.0711 28.34 60.5211 28.418 60.9131 28.574C61.3051 28.73 61.6211 28.952 61.8611 29.24C62.1051 29.528 62.2551 29.868 62.3111 30.26L60.6431 30.56C60.6151 30.32 60.5111 30.13 60.3311 29.99C60.1511 29.85 59.9071 29.768 59.5991 29.744C59.2991 29.724 59.0571 29.764 58.8731 29.864C58.6931 29.964 58.6031 30.108 58.6031 30.296C58.6031 30.408 58.6411 30.502 58.7171 30.578C58.7971 30.654 58.9591 30.732 59.2031 30.812C59.4511 30.892 59.8271 30.996 60.3311 31.124C60.8231 31.252 61.2171 31.402 61.5131 31.574C61.8131 31.742 62.0311 31.946 62.1671 32.186C62.3031 32.422 62.3711 32.708 62.3711 33.044C62.3711 33.708 62.1311 34.23 61.6511 34.61C61.1711 34.99 60.5071 35.18 59.6591 35.18Z" fill="black"/>
</svg>
