<svg width="70" height="46" viewBox="0 0 70 46" fill="none" xmlns="http://www.w3.org/2000/svg">
<g opacity="0.9">
<g clip-path="url(#clip0_768_1024)">
<rect y="0.464844" width="70" height="44.8" rx="5" fill="#E7E8E3"/>
<path d="M8.0099 33.5573V27.1388H6.18164V25.1523H12.0625V27.1388H10.2341V33.5573H8.0099Z" fill="#00AFD8"/>
<path d="M13.1484 33.5573V25.1523H15.473C16.3834 25.1523 17.018 25.1954 17.3766 25.2815C17.7352 25.3676 18.0446 25.5121 18.3048 25.7149C18.5984 25.9446 18.8241 26.2375 18.9821 26.5933C19.14 26.9491 19.2191 27.3416 19.2191 27.7701C19.2191 28.4208 19.0639 28.9501 18.7537 29.3574C18.4432 29.7652 17.9908 30.0359 17.3961 30.1701L19.6204 33.5573H17.1063L15.2333 30.2677V33.5573H13.1484ZM15.2333 29.1251H15.6458C16.1252 29.1251 16.4753 29.0408 16.6965 28.8723C16.9178 28.7041 17.0284 28.44 17.0284 28.0801C17.0284 27.6591 16.9253 27.3596 16.719 27.1817C16.5128 27.0036 16.1662 26.9148 15.6793 26.9148H15.2335L15.2333 29.1251Z" fill="#00AFD8"/>
<path d="M19.5117 33.5573L22.3267 25.1523H25.1139L27.9345 33.5573H25.7215L25.309 32.053H22.1483L21.7246 33.5573H19.5117ZM22.6278 30.4169H24.8408L24.0102 27.6439C23.9842 27.5597 23.9489 27.4239 23.9042 27.2362C23.8596 27.0488 23.8021 26.8077 23.7314 26.5129C23.683 26.7196 23.6357 26.9166 23.5893 27.1042C23.5429 27.2916 23.4954 27.4715 23.4472 27.6438L22.6278 30.4169Z" fill="#00AFD8"/>
<path d="M28.7129 33.5575V25.1525H30.859L33.9417 29.4754C34.0011 29.5637 34.0984 29.7405 34.2342 30.0066C34.3698 30.2726 34.5197 30.5893 34.683 30.9567C34.6385 30.6084 34.6059 30.2985 34.5856 30.0267C34.565 29.7548 34.5548 29.5137 34.5548 29.3032V25.1523H36.6897V33.5573H34.5548L31.4721 29.2171C31.4088 29.1289 31.3095 28.952 31.1739 28.6861C31.0381 28.4198 30.8905 28.1072 30.7308 27.7473C30.7754 28.0994 30.8076 28.4113 30.8283 28.6831C30.8485 28.955 30.859 29.1962 30.859 29.4066V33.5575H28.7129Z" fill="#00AFD8"/>
<path d="M38.8026 30.8419C39.1334 31.2286 39.4595 31.5175 39.7809 31.7087C40.1023 31.9001 40.4228 31.9958 40.7425 31.9958C41.0397 31.9958 41.284 31.9135 41.4754 31.749C41.6667 31.5845 41.7626 31.3758 41.7626 31.1232C41.7626 30.8438 41.6798 30.6285 41.5147 30.4773C41.3491 30.3261 40.9749 30.1702 40.3914 30.0094C39.5924 29.7875 39.0274 29.4984 38.6967 29.1425C38.366 28.7867 38.2005 28.2987 38.2005 27.6787C38.2005 26.8749 38.4615 26.2195 38.9838 25.7123C39.5057 25.205 40.183 24.9517 41.0155 24.9517C41.4652 24.9517 41.8915 25.0138 42.2948 25.1382C42.6978 25.2626 43.0798 25.451 43.4403 25.7037L42.7434 27.3514C42.4906 27.1296 42.2314 26.9619 41.9657 26.8493C41.7001 26.7363 41.4372 26.6797 41.1768 26.6797C40.9093 26.6797 40.6919 26.7459 40.5247 26.8777C40.3573 27.0099 40.2738 27.1792 40.2738 27.3859C40.2738 27.5964 40.3471 27.7647 40.4939 27.891C40.6406 28.0173 40.924 28.1378 41.3441 28.2526L41.4444 28.2813C42.351 28.534 42.9475 28.8116 43.2337 29.1138C43.4269 29.3207 43.5737 29.5684 43.6741 29.8573C43.7744 30.1464 43.8248 30.4668 43.8248 30.8189C43.8248 31.7108 43.5404 32.4273 42.9719 32.9691C42.4034 33.5107 41.6451 33.7815 40.6975 33.7815C40.1289 33.7815 39.6114 33.6818 39.145 33.483C38.6786 33.284 38.2301 32.972 37.7988 32.5471L38.8026 30.8419Z" fill="#00AFD8"/>
<path d="M45.0742 33.5573V25.1523H50.0745V26.9953H47.2426V28.4534H49.9127V30.2563H47.2426V33.5573H45.0742Z" fill="#00AFD8"/>
<path d="M51.2852 33.5573V25.1523H56.2853V26.9953H53.4534V28.4534H56.1236V30.2563H53.4534V31.6741H56.2853V33.5573H51.2852Z" fill="#00AFD8"/>
<path d="M57.7559 33.5573V25.1523H60.0804C60.9909 25.1523 61.6254 25.1954 61.984 25.2815C62.3426 25.3676 62.6522 25.5121 62.9121 25.7149C63.2058 25.9446 63.4315 26.2375 63.5894 26.5933C63.7472 26.9491 63.8264 27.3416 63.8264 27.7701C63.8264 28.4208 63.671 28.9501 63.361 29.3574C63.0505 29.7652 62.5982 30.0359 62.0036 30.1701L64.2278 33.5573H61.7137L59.8406 30.2677V33.5573H57.7559ZM59.8406 29.1251H60.2532C60.7327 29.1251 61.0829 29.0408 61.304 28.8723C61.525 28.7041 61.6358 28.44 61.6358 28.0801C61.6358 27.6591 61.5327 27.3596 61.3264 27.1817C61.1201 27.0036 60.7736 26.9148 60.2867 26.9148H59.8406V29.1251Z" fill="#00AFD8"/>
<path d="M19.7598 23.6291V12.4224H22.7402C23.9691 12.4224 24.8275 12.4633 25.3155 12.5449C25.8035 12.6265 26.2235 12.7668 26.5754 12.9659C26.9767 13.1956 27.2825 13.503 27.4932 13.8884C27.7039 14.2736 27.8092 14.7189 27.8092 15.2241C27.8092 15.8621 27.6518 16.3685 27.3372 16.7436C27.0225 17.1188 26.5207 17.4032 25.8322 17.5971C26.6051 17.6584 27.2097 17.9377 27.6457 18.4354C28.0815 18.933 28.2998 19.5976 28.2998 20.4294C28.2998 21.0265 28.1771 21.5523 27.9318 22.0062C27.6866 22.4607 27.336 22.8127 26.8802 23.0626C26.5086 23.2668 26.0503 23.4121 25.5051 23.499C24.96 23.5859 24.068 23.6293 22.8295 23.6293H19.7598V23.6291ZM22.5098 16.9005H23.1044C23.8375 16.9005 24.3407 16.8177 24.6132 16.6517C24.8855 16.4859 25.022 16.1988 25.022 15.7905C25.022 15.367 24.8944 15.0698 24.6393 14.8987C24.384 14.7279 23.8873 14.6423 23.149 14.6423H22.5098V16.9005ZM22.5098 21.3402H23.5503C24.2539 21.3402 24.7518 21.2497 25.0442 21.0684C25.3367 20.8873 25.4827 20.5849 25.4827 20.1615C25.4827 19.692 25.349 19.364 25.0813 19.1777C24.8137 18.9916 24.3182 18.8984 23.5948 18.8984H22.5097L22.5098 21.3402Z" fill="#006E90"/>
<path d="M28.8047 23.6291L32.5581 12.4224H36.2744L40.0353 23.6291H37.0846L36.5346 21.6235H32.3205L31.7554 23.6291H28.8047ZM32.9593 19.4419H35.9102L34.8026 15.7446C34.7679 15.6325 34.7208 15.4513 34.6614 15.2012C34.6019 14.9512 34.525 14.6296 34.4308 14.2366C34.3664 14.5122 34.3033 14.7751 34.2413 15.025C34.1793 15.2751 34.1161 15.5149 34.0518 15.7446L32.9593 19.4419Z" fill="#006E90"/>
<path d="M41.0742 23.6291V12.4224H43.9357L48.0459 18.1864C48.1249 18.3038 48.2549 18.5399 48.4361 18.8946C48.6168 19.2493 48.8162 19.6716 49.0345 20.1615C48.9749 19.6971 48.9314 19.2838 48.9043 18.9213C48.8771 18.559 48.8635 18.2377 48.8635 17.9569V12.4224H51.71V23.6291H48.8635L44.7533 17.842C44.6689 17.7247 44.5366 17.4887 44.3557 17.1338C44.1748 16.7791 43.9777 16.362 43.7648 15.8823C43.8244 16.3519 43.8677 16.7679 43.895 17.13C43.922 17.4923 43.9358 17.814 43.9358 18.0946V23.6291H41.0742Z" fill="#006E90"/>
<path d="M54.0449 23.6291V12.4224H56.9808V17.5128L60.4221 12.4224H63.8782L59.8572 17.8879L64.2275 23.629H60.5261L56.9808 18.5997V23.629L54.0449 23.6291Z" fill="#006E90"/>
<path d="M17.3807 12.3936H5.33008V14.6145H17.3807V12.3936Z" fill="url(#paint0_linear_768_1024)"/>
<path d="M17.3807 16.7046H5.33008V18.9255H17.3807V16.7046Z" fill="url(#paint1_linear_768_1024)"/>
<path d="M17.3807 21.4077H5.33008V23.6288H17.3807V21.4077Z" fill="url(#paint2_linear_768_1024)"/>
</g>
</g>
<defs>
<linearGradient id="paint0_linear_768_1024" x1="5.33002" y1="13.504" x2="17.3806" y2="13.504" gradientUnits="userSpaceOnUse">
<stop stop-color="#E70000" stop-opacity="0"/>
<stop offset="0.3317" stop-color="#DE0000" stop-opacity="0.4506"/>
<stop offset="0.7362" stop-color="#CD0000"/>
<stop offset="0.7931" stop-color="#C20000"/>
<stop offset="0.8916" stop-color="#A60000"/>
<stop offset="1" stop-color="#800000"/>
</linearGradient>
<linearGradient id="paint1_linear_768_1024" x1="5.33002" y1="17.815" x2="17.3806" y2="17.815" gradientUnits="userSpaceOnUse">
<stop stop-color="#E70000" stop-opacity="0"/>
<stop offset="0.3317" stop-color="#DE0000" stop-opacity="0.4506"/>
<stop offset="0.7362" stop-color="#CD0000"/>
<stop offset="0.7931" stop-color="#C20000"/>
<stop offset="0.8916" stop-color="#A60000"/>
<stop offset="1" stop-color="#800000"/>
</linearGradient>
<linearGradient id="paint2_linear_768_1024" x1="5.33002" y1="22.5182" x2="17.3806" y2="22.5182" gradientUnits="userSpaceOnUse">
<stop stop-color="#E70000" stop-opacity="0"/>
<stop offset="0.3317" stop-color="#DE0000" stop-opacity="0.4506"/>
<stop offset="0.7362" stop-color="#CD0000"/>
<stop offset="0.7931" stop-color="#C20000"/>
<stop offset="0.8916" stop-color="#A60000"/>
<stop offset="1" stop-color="#800000"/>
</linearGradient>
<clipPath id="clip0_768_1024">
<rect y="0.464844" width="70" height="44.8" rx="5" fill="white"/>
</clipPath>
</defs>
</svg>
