<svg width="56" height="56" viewBox="0 0 56 56" fill="none" xmlns="http://www.w3.org/2000/svg">
<path d="M21 49H10.7333C9.42654 49 8.77315 49 8.27402 48.7457C7.83498 48.522 7.47802 48.165 7.25432 47.726C7 47.2268 7 46.5735 7 45.2667V10.7333C7 9.42654 7 8.77315 7.25432 8.27402C7.47802 7.83498 7.83498 7.47802 8.27402 7.25432C8.77315 7 9.42654 7 10.7333 7H17.2667C18.5735 7 19.2269 7 19.726 7.25432C20.165 7.47802 20.522 7.83498 20.7457 8.27402C21 8.77315 21 9.42654 21 10.7333V16.3333M21 49H35M21 49L21 16.3333M21 16.3333H31.2667C32.5735 16.3333 33.2268 16.3333 33.726 16.5877C34.165 16.8114 34.522 17.1683 34.7457 17.6074C35 18.1065 35 18.7599 35 20.0667V49M35 25.6667H45.2667C46.5735 25.6667 47.2268 25.6667 47.726 25.921C48.165 26.1447 48.522 26.5016 48.7457 26.9407C49 27.4398 49 28.0932 49 29.4V45.2667C49 46.5735 49 47.2268 48.7457 47.726C48.522 48.165 48.165 48.522 47.726 48.7457C47.2269 49 46.5735 49 45.2667 49H35" stroke="#F2F2F2" stroke-width="2" stroke-linecap="round" stroke-linejoin="round"/>
</svg>
