<svg width="70" height="46" viewBox="0 0 70 46" fill="none" xmlns="http://www.w3.org/2000/svg">
<rect x="0.5" y="0.5" width="69" height="45" rx="4.5" fill="white" stroke="#F3F3F3"/>
<path d="M36.9005 23.5778C40.4445 21.9704 40.9686 16.7249 35.9276 16.7249H30.0898L27.9324 20.9551H28.9477L26.3672 31.0653H33.1356C38.0735 31.1076 40.2942 25.2931 36.9005 23.5778ZM33.1356 27.3851H31.4435L32.078 25.1008H33.6854C35.5891 25.4814 34.4047 27.4696 33.1356 27.3851ZM34.1508 22.5202H32.7126L33.1356 20.532H34.743C36.2962 20.9128 34.9547 22.6049 34.1508 22.5202Z" fill="#005FAF" stroke="#005FAF" stroke-width="0.121297"/>
<path d="M50.7601 22.1275L52.9763 18.2151L49.9774 16.6509L49.5863 17.1336C47.9685 16.2773 39.4972 17.4597 38.9668 25.8162C39.2839 32.8264 47.139 31.5654 47.9094 31.1206L50.0699 26.6545C47.954 28.0482 43.6215 28.7173 43.4382 24.5307C43.8182 21.0784 47.8943 19.7891 50.7601 22.1275ZM61.8192 16.7249H55.0061L52.8404 20.8285H53.953L48.8184 31.0654H53.7884L54.8087 28.5962H57.8595L57.9355 31.0654H62.5105L61.8192 16.7249ZM56.1909 25.2718L57.8593 21.2893L57.9354 25.2718H56.1909Z" fill="#005FAF" stroke="#005FAF" stroke-width="0.121297"/>
<path d="M19.2709 30.381L19.5356 30.3042L19.2453 29.9031L19.2709 30.381ZM14.9258 30.3127L14.8746 30.6713C15.0063 30.6584 15.1685 30.7719 15.2332 30.5176C15.2283 30.3194 15.0774 30.3085 14.9258 30.3127ZM17.0344 30.3042C17.0125 30.2066 16.931 30.1346 16.7271 30.2018L16.7954 30.5688C16.9629 30.5316 17.049 30.4325 17.0344 30.3042ZM12.271 30.0039L12.1895 30.3299C12.3205 30.3354 12.4739 30.4416 12.5609 30.2484C12.5667 30.1274 12.5717 30.0068 12.271 30.0039ZM16.8552 30.842L16.915 31.2177C17.0548 31.2212 17.1824 31.1372 17.1454 30.9616C17.1098 30.7928 16.968 30.8195 16.8552 30.842Z" fill="#005FAF"/>
<path d="M22.4066 16.9183C17.8862 14.6155 12.4876 14.6795 8.18062 16.8179C5.95967 20.7277 5.88895 26.1981 8.18062 31.0432C12.9256 33.4444 18.1737 33.2862 22.44 31.1436C24.445 27.03 24.7762 22.0801 22.4066 16.9183ZM14.7722 28.5929L14.5042 28.596C14.4379 27.8556 14.2609 27.2333 13.8812 26.7571C12.1402 24.5739 8.58139 26.2176 9.49585 22.5072C9.97133 20.6104 15.3949 19.4916 14.7722 28.5929ZM9.50227 24.9283C9.88242 25.7021 12.2641 25.8288 13.0909 26.4211C14.4023 27.3606 14.2141 28.5963 14.2141 28.5963H13.9048C13.2958 26.7299 11.5869 28.2077 10.2181 27.7051C9.35866 27.3994 8.73471 26.0745 9.50227 24.9283ZM13.8416 31.0127L13.9697 29.9968L14.2001 30.0139L14.0976 31.1322C13.9943 31.6248 13.2598 31.5589 13.1672 31.0895L13.2866 29.9286L13.5598 29.9714L13.4403 30.9444C13.4555 31.2665 13.7785 31.2472 13.8416 31.0127ZM12.6151 31.2901L12.3524 31.2267C12.3832 31.0096 12.6407 30.5678 12.1318 30.5678L11.9901 31.1452L11.7002 31.0908L12.0082 29.7048C12.7609 29.7868 12.8268 29.9962 12.8417 30.2211C12.812 30.3955 12.7655 30.5173 12.6152 30.5472C12.7911 30.7068 12.6173 31.0413 12.6151 31.2901ZM10.9464 29.7376C10.874 29.8337 10.7291 30.1693 10.7081 30.4368C10.6858 30.7203 10.9581 30.6606 11.0259 30.6275C11.0806 30.6009 11.1212 30.3732 11.1212 30.3732L10.9306 30.3097L10.9941 30.1191L11.4233 30.2621L11.2167 30.9773L11.0419 30.9295L11.0578 30.8183C10.8438 30.9158 10.4522 30.8426 10.4062 30.5958C10.3602 30.3975 10.4995 29.7962 10.724 29.5153C10.9422 29.2421 11.4738 29.5091 11.4868 29.6742C11.4997 29.8387 11.4348 30.0238 11.4348 30.0238L11.2346 29.986C11.2346 29.986 11.2469 29.9266 11.2644 29.833C11.2828 29.7337 11.0241 29.6344 10.9464 29.7376ZM14.8489 30.9016L14.7978 31.5163L14.5844 31.5078L14.6612 30.048C15.194 30.0591 15.4995 30.1328 15.4893 30.5091C15.4575 31.0231 15.0412 30.9075 14.8489 30.9016ZM15.3801 28.5962H15.0231C14.9915 27.3321 15.2345 25.0198 14.5703 23.3181C14.0671 22.0281 12.7934 21.4478 12.5112 20.4057C12.0643 18.7563 12.8249 16.9717 15.3801 16.8343C17.5954 17.0617 18.276 18.7719 17.8981 20.3641C17.2484 21.9562 16.5987 21.7274 15.7897 23.3132C15.129 25.0132 15.3806 27.2404 15.3801 28.5962ZM19.3391 30.9358L19.0916 31.0212L19.0147 29.5529L19.3049 29.4761L20.022 30.6882L19.8256 30.8163L19.5866 30.475L19.3134 30.5774L19.3391 30.9358ZM16.4509 28.5962H16.1654C16.4007 25.3496 20.4805 26.0549 20.8534 24.9283C21.4982 26.0452 21.2664 26.987 20.5931 27.4697C18.9199 28.6699 17.3155 26.5816 16.4509 28.5962ZM17.9648 30.2359L18.0929 30.9103C18.1726 31.0657 18.2267 31.037 18.349 31.0213C18.4908 30.9187 18.4612 30.8188 18.4344 30.6884L18.6819 30.6543C18.7465 31.1429 18.5142 31.1927 18.3405 31.2262C17.968 31.2529 17.895 31.1803 17.7942 30.697C17.7355 30.2832 17.634 29.8463 17.9819 29.7665C18.553 29.6793 18.5193 29.9363 18.5709 30.1164L18.3234 30.1593C18.2838 30.0045 18.2269 29.9431 18.1014 29.9545C17.987 30.007 17.9401 30.0921 17.9648 30.2359ZM17.4441 30.9358C17.456 31.1484 17.3838 31.2896 17.2477 31.3371L16.6672 31.4565L16.4367 30.048C16.5558 30.0286 17.1399 29.8147 17.2818 30.2018C17.3518 30.4382 17.2793 30.523 17.1964 30.6286C17.3535 30.679 17.4065 30.8013 17.4441 30.9358ZM15.9534 23.8674C17.2466 20.2261 20.2059 20.8696 20.8623 22.5073C21.7614 25.7936 18.8661 24.8924 17.0114 26.24C16.3105 26.8497 15.9416 27.5491 15.9361 28.6093H15.6183C15.5993 26.4738 15.5647 24.9615 15.9534 23.8674Z" fill="#005FAF"/>
</svg>
