<svg width="46" height="46" viewBox="0 0 46 46" fill="none" xmlns="http://www.w3.org/2000/svg">
<rect x="1.25" y="1.25" width="43.5" height="43.5" rx="21.75" stroke="white" stroke-width="1.5"/>
<g clip-path="url(#clip0_756_1281)">
<path d="M23 44C34.598 44 44 34.598 44 23C44 11.402 34.598 2 23 2C11.402 2 2 11.402 2 23C2 34.598 11.402 44 23 44Z" fill="#F0F0F0"/>
<path d="M22.9994 1.99829C18.785 1.99829 14.8612 3.24065 11.5724 5.37781L16.9733 8.99777L10.2168 12.4977L16.9733 15.9977L10.2168 19.4976L16.9733 22.9971L10.2168 26.497L16.9733 29.9969L10.2168 33.4971L16.9733 36.9971L11.5718 40.6182C14.8608 42.7558 18.7847 43.9983 22.9994 43.9983C34.5973 43.9983 43.9994 34.5962 43.9994 22.9983C43.9994 11.4004 34.5973 1.99829 22.9994 1.99829Z" fill="#D80027"/>
</g>
<defs>
<clipPath id="clip0_756_1281">
<rect width="42" height="42" fill="white" transform="translate(2 2)"/>
</clipPath>
</defs>
</svg>
