<svg width="70" height="46" viewBox="0 0 70 46" fill="none" xmlns="http://www.w3.org/2000/svg">
<path d="M4.375 0.5H65.625C67.7544 0.5 69.4999 2.24688 69.5 4.38086V41.6191C69.4999 43.7531 67.7544 45.5 65.625 45.5H4.375C2.24556 45.5 0.500051 43.7531 0.5 41.6191V4.38086C0.500051 2.24688 2.24556 0.5 4.375 0.5Z" fill="white" stroke="#F3F3F3"/>
<path d="M40.0211 21.9132C40.1311 21.8032 40.2609 21.6617 40.4106 21.4885C40.56 21.3152 40.7015 21.1106 40.8354 20.8745C40.969 20.6383 41.0833 20.3751 41.1775 20.0838C41.2721 19.7929 41.3195 19.4819 41.3195 19.1515C41.3195 18.5065 41.2092 17.9048 40.9891 17.3459C40.7685 16.7874 40.4302 16.2995 39.9738 15.8822C39.5174 15.4657 38.9473 15.1387 38.2626 14.9025C37.5782 14.6667 36.7792 14.5486 35.8669 14.5486H29.8477V31.0715H36.457C37.4166 31.0715 38.2543 30.9416 38.9707 30.6819C39.6864 30.4223 40.2808 30.0644 40.7529 29.6081C41.2248 29.1517 41.5748 28.6207 41.8031 28.0149C42.0312 27.4091 42.1454 26.7601 42.1454 26.0674C42.1454 25.139 41.9331 24.3131 41.5083 23.5888C41.0833 22.8653 40.5875 22.3066 40.0211 21.9132ZM37.0988 17.5763C37.3213 17.6611 37.507 17.7714 37.6521 17.9103C38.0279 18.2708 38.2159 18.7018 38.2159 19.2031C38.2159 19.6579 38.1374 20.0337 37.981 20.3313C37.8241 20.6293 37.6673 20.8565 37.5108 21.013H32.9163V17.3811H35.7723C36.3076 17.3811 36.7483 17.4472 37.0988 17.5763ZM36.622 23.8724C37.4539 23.8724 38.0701 24.0878 38.4713 24.5181C38.8488 24.9415 39.0387 25.4413 39.0387 26.0198C39.0387 26.6157 38.8232 27.1244 38.3924 27.5477C37.961 27.9708 37.2524 28.1827 36.2649 28.1827H32.9163V23.8724H36.622Z" fill="#00529C"/>
<path d="M53.3531 23.9549C53.8485 23.6167 54.262 23.2232 54.5924 22.7747C54.9228 22.3262 55.1665 21.8307 55.3242 21.2879C55.4813 20.7446 55.5603 20.1902 55.5603 19.6235C55.5603 18.884 55.4378 18.2036 55.1943 17.5818C54.9499 16.9604 54.5841 16.4254 54.0966 15.9768C53.6085 15.5283 52.9989 15.1783 52.2671 14.9265C51.5355 14.675 50.6896 14.5486 49.7299 14.5486H43.2266V31.0715H46.3546V24.9346H48.0988L52.4127 31.0715H56.0792L51.6184 24.7223C52.2789 24.5494 52.8573 24.2936 53.3531 23.9549ZM49.7534 17.3812C49.9501 17.3812 50.1358 17.394 50.3127 17.4164C50.8703 17.5004 51.3258 17.6995 51.6771 18.0158C52.155 18.4472 52.3939 18.9759 52.3939 19.6023C52.3939 19.9165 52.3426 20.2218 52.2409 20.5195C52.1388 20.8175 51.9785 21.0799 51.7592 21.3067C51.5394 21.5343 51.2574 21.7181 50.9129 21.8592C50.568 22.0003 50.1526 22.0708 49.667 22.0708H46.3546V17.3812H49.7534Z" fill="#00529C"/>
<path d="M57.1814 14.5486V14.5533C57.1497 14.5525 57.1188 14.5486 57.0872 14.5486H57.0605V31.0715H60.25V14.5486H57.1814Z" fill="#00529C"/>
<path d="M11.2988 32.6714C10.9139 32.6264 10.6143 32.5354 10.2572 32.3543C9.32796 31.8836 8.63104 31.0717 8.36822 30.1536C8.23993 29.7056 8.24687 30.1368 8.25241 23.0662L8.27738 16.3522C8.30928 15.9073 8.37724 15.6174 8.55615 15.1577C8.8786 14.33 9.40632 13.7491 10.1858 13.3647C10.6233 13.1486 11.0422 13.0399 11.554 13.0091C11.7315 12.9987 14.6183 12.9969 18.388 13.0053C25.602 13.0213 25.0056 13.0091 25.457 13.1494C25.6644 13.2139 26.0485 13.3956 26.2829 13.5405C27.1068 14.0493 27.7031 14.877 27.8814 15.7582C27.916 15.9313 27.9181 16.2743 27.9181 22.7263L27.8814 29.7444C27.7649 30.4859 27.4195 31.1319 26.8162 31.7371C26.344 32.211 25.9085 32.472 25.3294 32.6274L25.1193 32.6838L18.2853 32.6866C14.5275 32.6882 11.3834 32.6813 11.2988 32.6715V32.6714ZM14.1503 30.6502C14.445 30.5499 14.8097 30.3037 15.1072 30.0037C15.3409 29.7681 15.524 29.5125 15.6516 29.2447C15.8007 28.9329 15.8367 28.7825 15.8492 28.4286C15.8666 27.9131 15.7924 27.4834 15.6231 27.128C15.42 26.7009 15.1537 26.3862 13.9346 25.1359C12.6198 23.788 12.2419 23.385 11.9575 23.0302C11.8716 22.9237 11.8487 22.8804 11.8584 22.8448C11.9021 22.6769 12.3514 22.2154 13.4963 21.1613C14.7022 20.0519 15.0816 19.6551 15.4969 19.0706C15.7556 18.7062 15.9408 18.2807 16.0066 17.8992C16.0475 17.6649 16.0475 17.2247 16.0073 16.9882C15.9206 16.4806 15.6523 15.9739 15.2986 15.6508C14.7959 15.1918 14.3021 14.9802 13.5969 14.921C13.2945 14.8957 12.0553 14.9112 11.7488 14.9441C11.063 15.0179 10.4264 15.4991 10.2648 16.0654C10.2322 16.1783 10.2295 16.5253 10.2225 20.7491L10.2336 27.4528C10.2537 29.8392 10.2433 29.6864 10.3987 29.9281C10.5041 30.093 10.7274 30.3292 10.8827 30.4413C11.0387 30.5534 11.1878 30.6232 11.3834 30.6755C11.5269 30.7138 11.599 30.7157 12.7606 30.7111L13.9859 30.7064L14.1503 30.6502ZM24.6214 30.6812C24.5438 30.5364 23.9807 29.9471 22.6194 28.5855C21.0668 27.0327 17.0302 22.8754 17.0232 22.8219C17.0045 22.6816 17.7215 21.9249 18.6327 21.1217C19.1521 20.6641 19.9011 19.9391 20.3567 19.4529C21.263 18.4862 21.4932 18.147 21.5751 17.6599C21.6153 17.4228 21.6111 16.8774 21.5688 16.7053C21.521 16.5146 21.4419 16.3198 21.3414 16.1462C21.2318 15.9562 20.8248 15.5425 20.6042 15.3968C20.2943 15.1914 19.9149 15.0289 19.5627 14.9502C19.3914 14.912 18.1799 14.8876 17.7839 14.9144L17.5371 14.9311L17.5544 14.9974C17.5648 15.0339 17.6668 15.2066 17.7839 15.3814C17.9004 15.5561 18.0322 15.7765 18.0766 15.8712C18.3138 16.3734 18.4233 16.9991 18.4018 17.7184C18.3845 18.302 18.3006 18.6451 18.0509 19.1552C17.7028 19.8645 17.2354 20.4136 16.2022 21.3268C15.5996 21.8593 15.1148 22.3441 14.8902 22.6403L14.7321 22.848L15.9213 24.1083L17.6716 25.989C18.1619 26.5796 18.406 27.1068 18.5003 27.7779C18.5454 28.095 18.5405 28.7003 18.4906 28.9903C18.415 29.4355 18.2506 29.8243 17.9455 30.2803C17.8491 30.4243 17.7472 30.5815 17.7195 30.6296L17.6688 30.7172H21.1541L24.6207 30.6812H24.6214ZM26 23.5295L25.9168 16.6405C25.7483 15.523 25.2948 15.0543 24.2754 14.9437C24.0355 14.9176 22.7803 14.9123 22.7803 14.9374C22.7803 14.975 22.9197 15.1714 23.1062 15.396C23.3357 15.6717 23.4419 15.8238 23.5362 16.0123C23.7463 16.4321 23.8087 16.8906 23.7629 17.6702C23.7213 18.3817 23.6381 18.6927 23.3739 19.1217C23.0001 19.7296 22.5092 20.2522 21.186 21.4514C20.4045 22.1594 19.8844 22.7082 19.9038 22.8042C19.9059 22.8208 21.2797 24.2275 22.9537 25.9301L25.9972 29.0257L26.0042 28.9292C26.0083 28.8761 26.0049 26.4462 25.9993 23.5295L26 23.5295Z" fill="#00529C"/>
</svg>
