<svg width="70" height="46" viewBox="0 0 70 46" fill="none" xmlns="http://www.w3.org/2000/svg">
<rect x="0.5" y="0.5" width="69" height="45" rx="4.5" fill="white" stroke="#F3F3F3"/>
<g clip-path="url(#clip0_4729_17504)">
<path d="M33.7097 25.6651C33.8336 25.6651 33.9403 25.6511 34.0298 25.6231C34.1193 25.595 34.1924 25.5559 34.2491 25.5056C34.3073 25.4539 34.3498 25.3934 34.3767 25.324C34.4035 25.2531 34.417 25.1755 34.417 25.0913C34.417 24.9274 34.358 24.7982 34.2402 24.7036C34.1223 24.6076 33.9455 24.5596 33.7097 24.5596H33.0159V25.6652L33.7097 25.6651ZM33.0159 23.1705V24.2539H33.5889C33.7112 24.2539 33.8172 24.2406 33.9067 24.214C33.9977 24.1874 34.0723 24.1505 34.1305 24.1032C34.1902 24.056 34.2342 23.9991 34.2625 23.9326C34.2909 23.8647 34.3051 23.7909 34.3051 23.7111C34.3051 23.5235 34.2484 23.3869 34.135 23.3012C34.0216 23.2141 33.8455 23.1705 33.6068 23.1705L33.0159 23.1705ZM33.6068 22.8315C33.8037 22.8315 33.9731 22.8507 34.1148 22.8891C34.2581 22.9275 34.3752 22.9822 34.4662 23.0531C34.5587 23.124 34.6266 23.2111 34.6699 23.3145C34.7131 23.4164 34.7348 23.5316 34.7348 23.6601C34.7348 23.7384 34.7221 23.8137 34.6967 23.8861C34.6729 23.957 34.6363 24.0235 34.5871 24.0855C34.5378 24.1475 34.4752 24.2037 34.3991 24.2539C34.3245 24.3026 34.2364 24.3425 34.135 24.3735C34.3707 24.4178 34.5475 24.5013 34.6654 24.6239C34.7848 24.745 34.8444 24.9045 34.8444 25.1024C34.8444 25.2368 34.8191 25.3594 34.7684 25.4702C34.7191 25.581 34.646 25.6762 34.549 25.756C34.4535 25.8357 34.3357 25.8978 34.1954 25.9421C34.0551 25.9849 33.8955 26.0063 33.7165 26.0063H32.584V22.8315H33.6068Z" fill="#00A39D"/>
<path d="M37.1989 24.8277L36.6954 23.5361C36.6804 23.4977 36.6648 23.4534 36.6484 23.4031C36.6319 23.3514 36.6163 23.2968 36.6014 23.2392C36.57 23.3588 36.538 23.4585 36.5051 23.5383L36.0016 24.8277H37.1989ZM38.1031 26.0063H37.7674C37.7286 26.0063 37.6973 25.9967 37.6734 25.9775C37.6495 25.9583 37.6316 25.934 37.6197 25.9044L37.3198 25.1379H35.8807L35.5808 25.9044C35.5718 25.931 35.5547 25.9546 35.5293 25.9753C35.504 25.996 35.4726 26.0063 35.4353 26.0063H35.0996L36.382 22.8315H36.8207L38.1031 26.0063Z" fill="#00A39D"/>
<path d="M41.1883 22.8316V26.0063H40.9712C40.9368 26.0063 40.9078 26.0004 40.8839 25.9886C40.8615 25.9768 40.8391 25.9569 40.8167 25.9288L38.9614 23.5361C38.9644 23.573 38.9666 23.6092 38.9681 23.6446C38.9696 23.6801 38.9703 23.7133 38.9703 23.7443V26.0063H38.5898V22.8316H38.8137C38.833 22.8316 38.8495 22.833 38.8629 22.836C38.8763 22.8374 38.8883 22.8411 38.8987 22.8471C38.9091 22.8515 38.9196 22.8589 38.93 22.8692C38.9405 22.8781 38.9517 22.8899 38.9636 22.9047L40.819 25.2952C40.816 25.2568 40.813 25.2198 40.81 25.1844C40.8085 25.1475 40.8078 25.1128 40.8078 25.0803V22.8315L41.1883 22.8316Z" fill="#00A39D"/>
<path d="M42.5023 24.2229H42.6656C42.7223 24.2229 42.7678 24.2162 42.8022 24.2029C42.8365 24.1882 42.8678 24.1638 42.8962 24.1298L43.9637 22.9335C43.9936 22.895 44.0249 22.8685 44.0577 22.8537C44.0906 22.8389 44.1308 22.8315 44.1786 22.8315H44.5456L43.3236 24.1985C43.2938 24.2339 43.2647 24.2635 43.2364 24.2871C43.2095 24.3093 43.1804 24.3277 43.1491 24.3425C43.1894 24.3558 43.2259 24.3757 43.2587 24.4023C43.2916 24.4274 43.3236 24.4607 43.355 24.502L44.6307 26.0063H44.2547C44.2263 26.0063 44.2017 26.0049 44.1808 26.0019C44.1614 25.9975 44.1443 25.9916 44.1293 25.9842C44.1144 25.9753 44.101 25.9657 44.0891 25.9554C44.0786 25.9436 44.0682 25.9303 44.0577 25.9155L42.9521 24.6549C42.9223 24.618 42.8902 24.5921 42.8559 24.5774C42.8216 24.5611 42.7693 24.553 42.6992 24.553H42.5023V26.0064H42.0703V22.8316H42.5023V24.2229Z" fill="#00A39D"/>
<path d="M47.9453 23.3278C47.9319 23.35 47.917 23.367 47.9006 23.3788C47.8857 23.3891 47.867 23.3943 47.8446 23.3943C47.8193 23.3943 47.7894 23.3817 47.7551 23.3566C47.7208 23.3315 47.6775 23.3042 47.6253 23.2747C47.5746 23.2437 47.5126 23.2156 47.4395 23.1905C47.3679 23.1654 47.2806 23.1528 47.1777 23.1528C47.0807 23.1528 46.9949 23.1661 46.9203 23.1927C46.8472 23.2178 46.7853 23.2525 46.7345 23.2968C46.6853 23.3411 46.648 23.3936 46.6226 23.4541C46.5973 23.5132 46.5846 23.5775 46.5846 23.6469C46.5846 23.7355 46.6062 23.8093 46.6495 23.8684C46.6943 23.926 46.7524 23.9755 46.8241 24.0169C46.8972 24.0582 46.9792 24.0944 47.0702 24.1254C47.1628 24.155 47.2568 24.186 47.3522 24.2185C47.4492 24.251 47.5432 24.2879 47.6342 24.3292C47.7268 24.3691 47.8088 24.4201 47.8804 24.4821C47.9535 24.5441 48.0117 24.6202 48.055 24.7103C48.0998 24.8004 48.1221 24.9112 48.1221 25.0426C48.1221 25.1815 48.0983 25.3122 48.0505 25.4348C48.0028 25.5559 47.9327 25.6615 47.8401 25.7516C47.7491 25.8417 47.6365 25.9126 47.5022 25.9643C47.3694 26.016 47.218 26.0418 47.0479 26.0418C46.839 26.0418 46.6495 26.0049 46.4794 25.931C46.3093 25.8557 46.1638 25.7545 46.043 25.6275L46.1683 25.4237C46.1802 25.4074 46.1944 25.3942 46.2108 25.3838C46.2287 25.372 46.2481 25.3661 46.269 25.3661C46.2884 25.3661 46.31 25.3742 46.3339 25.3905C46.3593 25.4052 46.3876 25.4244 46.419 25.4481C46.4503 25.4717 46.4861 25.4975 46.5264 25.5256C46.5667 25.5537 46.6122 25.5795 46.6629 25.6031C46.7151 25.6268 46.7741 25.6467 46.8397 25.663C46.9054 25.6777 46.9792 25.6851 47.0613 25.6851C47.1642 25.6851 47.256 25.6711 47.3366 25.643C47.4171 25.615 47.485 25.5758 47.5402 25.5256C47.5969 25.4739 47.6402 25.4126 47.6701 25.3417C47.6999 25.2708 47.7148 25.1918 47.7148 25.1047C47.7148 25.0087 47.6924 24.9304 47.6477 24.8698C47.6044 24.8078 47.547 24.7561 47.4753 24.7147C47.4037 24.6734 47.3217 24.6387 47.2292 24.6106C47.1366 24.5811 47.0426 24.5515 46.9472 24.522C46.8517 24.491 46.7577 24.4555 46.6652 24.4157C46.5726 24.3758 46.4906 24.3241 46.419 24.2606C46.3473 24.1971 46.2892 24.118 46.2444 24.0235C46.2011 23.9275 46.1795 23.8094 46.1795 23.669C46.1795 23.5568 46.2011 23.4482 46.2444 23.3434C46.2892 23.2385 46.3533 23.1455 46.4369 23.0642C46.5219 22.983 46.6256 22.918 46.748 22.8692C46.8718 22.8205 47.0136 22.7961 47.1732 22.7961C47.3522 22.7961 47.5149 22.8242 47.6611 22.8803C47.8088 22.9364 47.9386 23.0177 48.0505 23.124L47.9453 23.3278Z" fill="#00A39D"/>
<path d="M49.9354 24.7413V26.0063H49.5012V24.7413L48.3262 22.8315H48.7066C48.7454 22.8315 48.776 22.8411 48.7984 22.8603C48.8208 22.8781 48.8402 22.9017 48.8566 22.9312L49.5907 24.1653C49.6175 24.2169 49.6422 24.2657 49.6645 24.3115C49.6869 24.3558 49.7063 24.4008 49.7227 24.4466C49.7391 24.4008 49.7578 24.3558 49.7787 24.3115C49.7996 24.2657 49.8227 24.2169 49.8481 24.1653L50.5799 22.9312C50.5933 22.9061 50.612 22.8832 50.6359 22.8625C50.6597 22.8419 50.6903 22.8315 50.7276 22.8315H51.1103L49.9354 24.7413Z" fill="#00A39D"/>
<path d="M52.9782 24.8277L52.4747 23.5361C52.4597 23.4977 52.4441 23.4534 52.4277 23.4031C52.4113 23.3514 52.3956 23.2968 52.3807 23.2392C52.3493 23.3588 52.3172 23.4585 52.2844 23.5383L51.7809 24.8277H52.9782ZM53.8824 26.0063H53.5467C53.5079 26.0063 53.4766 25.9967 53.4527 25.9775C53.4288 25.9583 53.4109 25.934 53.399 25.9044L53.0991 25.1379H51.66L51.3601 25.9044C51.3511 25.931 51.334 25.9546 51.3086 25.9753C51.2833 25.996 51.2519 26.0063 51.2146 26.0063H50.8789L52.1613 22.8315H52.6L53.8824 26.0063Z" fill="#00A39D"/>
<path d="M55.2557 24.3691C55.381 24.3691 55.4914 24.3543 55.5869 24.3248C55.6839 24.2938 55.7645 24.2509 55.8287 24.1963C55.8943 24.1401 55.9435 24.0737 55.9764 23.9969C56.0092 23.9201 56.0256 23.8351 56.0256 23.7421C56.0256 23.553 55.9629 23.4105 55.8376 23.3145C55.7123 23.2185 55.5243 23.1705 55.2736 23.1705H54.7991V24.3691H55.2557ZM56.7373 26.0063H56.3524C56.2733 26.0063 56.2151 25.976 56.1778 25.9155L55.3452 24.7812C55.3199 24.7457 55.2923 24.7206 55.2624 24.7058C55.2341 24.6896 55.1893 24.6815 55.1281 24.6815H54.7991V26.0063H54.3672V22.8315H55.2736C55.4765 22.8315 55.6518 22.8522 55.7996 22.8936C55.9473 22.9335 56.0689 22.9918 56.1644 23.0686C56.2614 23.1454 56.333 23.2385 56.3792 23.3477C56.4255 23.4556 56.4486 23.5767 56.4486 23.7111C56.4486 23.8233 56.4307 23.9282 56.3949 24.0257C56.3591 24.1232 56.3069 24.2111 56.2382 24.2893C56.1711 24.3661 56.0883 24.4319 55.9898 24.4865C55.8928 24.5412 55.7824 24.5825 55.6586 24.6106C55.7138 24.6416 55.7615 24.6866 55.8018 24.7457L56.7373 26.0063Z" fill="#00A39D"/>
<path d="M57.6686 26.0063H57.2344V22.8315H57.6686V26.0063Z" fill="#00A39D"/>
<path d="M60.2536 24.8277L59.75 23.5361C59.7351 23.4977 59.7195 23.4534 59.703 23.4031C59.6866 23.3514 59.671 23.2968 59.6561 23.2392C59.6247 23.3588 59.5926 23.4585 59.5598 23.5383L59.0562 24.8277H60.2536ZM61.1578 26.0063H60.8221C60.7833 26.0063 60.752 25.9967 60.7281 25.9775C60.7042 25.9583 60.6863 25.934 60.6744 25.9044L60.3745 25.1379H58.9354L58.6355 25.9044C58.6265 25.931 58.6094 25.9546 58.584 25.9753C58.5587 25.996 58.5273 26.0063 58.49 26.0063H58.1543L59.4367 22.8315H59.8754L61.1578 26.0063Z" fill="#00A39D"/>
<path d="M64.2429 22.8315V26.0063H63.8088V24.5618H62.0787V26.0063H61.6445V22.8315H62.0787V24.2472H63.8088V22.8315H64.2429Z" fill="#00A39D"/>
<path d="M33.0182 30.4372H32.584V27.2625H33.0182V30.4372Z" fill="#00A39D"/>
<path d="M36.4988 27.2625V30.4373H36.2817C36.2474 30.4373 36.2183 30.4314 36.1944 30.4195C36.172 30.4077 36.1497 30.3878 36.1273 30.3597L34.2719 27.967C34.2749 28.0039 34.2771 28.0401 34.2786 28.0756C34.2801 28.111 34.2809 28.1442 34.2809 28.1753V30.4373H33.9004V27.2625H34.1242C34.1436 27.2625 34.16 27.2639 34.1734 27.2669C34.1869 27.2683 34.1988 27.272 34.2092 27.278C34.2197 27.2824 34.2301 27.2898 34.2406 27.3001C34.251 27.309 34.2622 27.3208 34.2742 27.3356L36.1295 29.7261C36.1265 29.6877 36.1236 29.6507 36.1206 29.6153C36.1191 29.5784 36.1183 29.5437 36.1183 29.5112V27.2625L36.4988 27.2625Z" fill="#00A39D"/>
<path d="M40.1606 28.851C40.1606 29.0888 40.1225 29.3051 40.0464 29.5001C39.9703 29.6951 39.8629 29.862 39.7241 30.0008C39.5854 30.1396 39.4183 30.2475 39.2228 30.3243C39.0288 30.3996 38.814 30.4372 38.5782 30.4372H37.3809V27.2625H38.5782C38.814 27.2625 39.0288 27.3009 39.2228 27.3777C39.4183 27.453 39.5854 27.5608 39.7241 27.7011C39.8629 27.84 39.9703 28.0069 40.0464 28.2018C40.1225 28.3968 40.1606 28.6132 40.1606 28.851ZM39.7152 28.851C39.7152 28.656 39.6883 28.4817 39.6346 28.3281C39.5809 28.1745 39.5048 28.0445 39.4063 27.9382C39.3078 27.8318 39.1885 27.7506 39.0482 27.6945C38.908 27.6383 38.7513 27.6103 38.5782 27.6103H37.815V30.0894H38.5782C38.7513 30.0894 38.908 30.0613 39.0482 30.0052C39.1885 29.9491 39.3078 29.8686 39.4063 29.7637C39.5048 29.6574 39.5809 29.5274 39.6346 29.3738C39.6883 29.2202 39.7152 29.0459 39.7152 28.851Z" fill="#00A39D"/>
<path d="M43.8108 28.851C43.8108 29.0888 43.7728 29.3074 43.6967 29.5068C43.6206 29.7047 43.5132 29.8753 43.3744 30.0186C43.2357 30.1618 43.0686 30.2733 42.8731 30.3531C42.6791 30.4314 42.4643 30.4705 42.2285 30.4705C41.9928 30.4705 41.7779 30.4314 41.584 30.3531C41.39 30.2733 41.2236 30.1618 41.0849 30.0186C40.9461 29.8753 40.8387 29.7047 40.7626 29.5068C40.6865 29.3074 40.6484 29.0888 40.6484 28.851C40.6484 28.6132 40.6865 28.3954 40.7626 28.1974C40.8387 27.998 40.9461 27.8267 41.0849 27.6834C41.2236 27.5387 41.39 27.4264 41.584 27.3467C41.7779 27.2669 41.9928 27.2271 42.2285 27.2271C42.4643 27.2271 42.6791 27.2669 42.8731 27.3467C43.0686 27.4264 43.2357 27.5387 43.3744 27.6834C43.5132 27.8267 43.6206 27.998 43.6967 28.1974C43.7728 28.3954 43.8108 28.6132 43.8108 28.851ZM43.3655 28.851C43.3655 28.656 43.3386 28.481 43.2849 28.3259C43.2312 28.1708 43.1551 28.0401 43.0566 27.9338C42.9581 27.826 42.8388 27.7433 42.6985 27.6857C42.5583 27.6281 42.4016 27.5992 42.2285 27.5992C42.0569 27.5992 41.901 27.6281 41.7608 27.6857C41.6205 27.7433 41.5004 27.826 41.4004 27.9338C41.302 28.0401 41.2259 28.1708 41.1721 28.3259C41.1184 28.481 41.0916 28.656 41.0916 28.851C41.0916 29.046 41.1184 29.221 41.1721 29.3761C41.2259 29.5297 41.302 29.6604 41.4004 29.7682C41.5004 29.8746 41.6205 29.9565 41.7608 30.0141C41.901 30.0703 42.0569 30.0983 42.2285 30.0983C42.4016 30.0983 42.5583 30.0703 42.6985 30.0141C42.8388 29.9565 42.9581 29.8746 43.0566 29.7682C43.1551 29.6604 43.2312 29.5297 43.2849 29.3761C43.3386 29.221 43.3655 29.046 43.3655 28.851Z" fill="#00A39D"/>
<path d="M47.0906 27.2625V30.4373H46.8735C46.8392 30.4373 46.8101 30.4314 46.7862 30.4195C46.7638 30.4077 46.7415 30.3878 46.7191 30.3597L44.8637 27.967C44.8667 28.0039 44.8689 28.0401 44.8704 28.0756C44.8719 28.111 44.8727 28.1442 44.8727 28.1753V30.4373H44.4922V27.2625H44.716C44.7354 27.2625 44.7518 27.2639 44.7652 27.2669C44.7787 27.2683 44.7906 27.272 44.801 27.278C44.8115 27.2824 44.8219 27.2898 44.8324 27.3001C44.8428 27.309 44.854 27.3208 44.8659 27.3356L46.7213 29.7261C46.7183 29.6877 46.7153 29.6507 46.7124 29.6153C46.7109 29.5784 46.7101 29.5437 46.7101 29.5112V27.2625L47.0906 27.2625Z" fill="#00A39D"/>
<path d="M49.9511 30.0872L49.9489 30.4372H47.9727V27.2625H49.9489V27.6125H48.4068V28.6671H49.6557V29.0038H48.4068V30.0872H49.9511Z" fill="#00A39D"/>
<path d="M52.2617 27.7588C52.2483 27.7809 52.2334 27.7979 52.217 27.8097C52.2021 27.82 52.1834 27.8252 52.161 27.8252C52.1357 27.8252 52.1058 27.8127 52.0715 27.7876C52.0372 27.7625 51.9939 27.7351 51.9417 27.7056C51.891 27.6746 51.829 27.6465 51.7559 27.6214C51.6843 27.5963 51.597 27.5837 51.4941 27.5837C51.3971 27.5837 51.3113 27.597 51.2367 27.6236C51.1636 27.6487 51.1017 27.6834 51.0509 27.7277C51.0017 27.772 50.9644 27.8245 50.939 27.885C50.9137 27.9441 50.901 28.0084 50.901 28.0778C50.901 28.1664 50.9226 28.2403 50.9659 28.2993C51.0107 28.3569 51.0688 28.4064 51.1405 28.4478C51.2136 28.4891 51.2956 28.5253 51.3867 28.5563C51.4792 28.5859 51.5732 28.6169 51.6687 28.6494C51.7656 28.6819 51.8596 28.7188 51.9507 28.7602C52.0432 28.8 52.1252 28.851 52.1968 28.913C52.27 28.9751 52.3281 29.0511 52.3714 29.1412C52.4162 29.2313 52.4386 29.3421 52.4386 29.4735C52.4386 29.6124 52.4147 29.7431 52.3669 29.8657C52.3192 29.9868 52.2491 30.0924 52.1566 30.1825C52.0655 30.2726 51.9529 30.3435 51.8186 30.3952C51.6858 30.4469 51.5344 30.4727 51.3643 30.4727C51.1554 30.4727 50.9659 30.4358 50.7958 30.3619C50.6257 30.2866 50.4802 30.1854 50.3594 30.0584L50.4847 29.8546C50.4966 29.8384 50.5108 29.8251 50.5272 29.8147C50.5451 29.8029 50.5645 29.797 50.5854 29.797C50.6048 29.797 50.6265 29.8051 50.6503 29.8214C50.6757 29.8361 50.704 29.8553 50.7354 29.879C50.7667 29.9026 50.8025 29.9284 50.8428 29.9565C50.8831 29.9846 50.9286 30.0104 50.9793 30.0341C51.0315 30.0577 51.0905 30.0776 51.1561 30.0939C51.2218 30.1087 51.2956 30.116 51.3777 30.116C51.4807 30.116 51.5724 30.102 51.653 30.0739C51.7336 30.0459 51.8014 30.0068 51.8567 29.9565C51.9133 29.9048 51.9566 29.8435 51.9865 29.7726C52.0163 29.7017 52.0312 29.6227 52.0312 29.5356C52.0312 29.4396 52.0088 29.3613 51.9641 29.3007C51.9208 29.2387 51.8634 29.187 51.7917 29.1457C51.7201 29.1043 51.6381 29.0696 51.5456 29.0415C51.453 29.012 51.359 28.9825 51.2636 28.9529C51.1681 28.9219 51.0741 28.8865 50.9816 28.8466C50.8891 28.8067 50.807 28.755 50.7354 28.6915C50.6638 28.628 50.6056 28.549 50.5608 28.4544C50.5175 28.3584 50.4959 28.2403 50.4959 28.1C50.4959 27.9877 50.5175 27.8791 50.5608 27.7743C50.6056 27.6694 50.6697 27.5764 50.7533 27.4951C50.8383 27.4139 50.942 27.3489 51.0644 27.3002C51.1882 27.2514 51.33 27.2271 51.4896 27.2271C51.6687 27.2271 51.8313 27.2551 51.9775 27.3112C52.1252 27.3674 52.255 27.4486 52.3669 27.5549L52.2617 27.7588Z" fill="#00A39D"/>
<path d="M53.5455 30.4372H53.1113V27.2625H53.5455V30.4372Z" fill="#00A39D"/>
<path d="M56.1306 29.2586L55.627 27.967C55.6121 27.9286 55.5964 27.8843 55.58 27.834C55.5636 27.7824 55.5479 27.7277 55.533 27.6701C55.5017 27.7897 55.4696 27.8894 55.4368 27.9692L54.9332 29.2586H56.1306ZM57.0348 30.4372H56.699C56.6603 30.4372 56.6289 30.4276 56.605 30.4084C56.5812 30.3893 56.5633 30.3649 56.5513 30.3353L56.2514 29.5688H54.8123L54.5124 30.3353C54.5035 30.3619 54.4863 30.3855 54.461 30.4062C54.4356 30.4269 54.4043 30.4372 54.367 30.4372H54.0312L55.3137 27.2625H55.7523L57.0348 30.4372Z" fill="#00A39D"/>
<path d="M10.7576 28.4212C11.1078 28.4212 11.3926 28.3763 11.6121 28.2865C11.8369 28.1967 12.0119 28.0804 12.1374 27.9378C12.2628 27.7951 12.349 27.634 12.3961 27.4543C12.4431 27.2747 12.4666 27.0924 12.4666 26.9075C12.4666 26.6961 12.4379 26.5059 12.3804 26.3369C12.3281 26.1678 12.2341 26.0251 12.0982 25.9089C11.9675 25.7926 11.7924 25.7028 11.5729 25.6394C11.3534 25.576 11.0764 25.5443 10.742 25.5443H8.89188V28.4212H10.7576ZM8.89188 20.9001V23.7532H10.2716C10.5643 23.7532 10.8282 23.7321 11.0634 23.6898C11.2986 23.6475 11.4972 23.5736 11.6592 23.4679C11.8264 23.3622 11.9518 23.2169 12.0355 23.032C12.1243 22.8471 12.1687 22.6146 12.1687 22.3346C12.1687 22.0598 12.1348 21.8327 12.0668 21.653C11.9989 21.4681 11.8943 21.3202 11.7532 21.2092C11.6121 21.0982 11.4318 21.019 11.2123 20.9714C10.9981 20.9239 10.742 20.9001 10.4441 20.9001H8.89188ZM10.4441 18.895C11.2332 18.895 11.9048 18.969 12.4588 19.1169C13.0128 19.2649 13.4648 19.4736 13.815 19.743C14.1651 20.0125 14.4186 20.3401 14.5754 20.7258C14.7374 21.1115 14.8184 21.5421 14.8184 22.0176C14.8184 22.2765 14.7818 22.5274 14.7087 22.7705C14.6355 23.0082 14.5205 23.2328 14.3637 23.4441C14.207 23.6502 14.0057 23.8404 13.7601 24.0147C13.5145 24.1891 13.2192 24.3397 12.8743 24.4665C13.6268 24.6514 14.1834 24.9499 14.544 25.362C14.9047 25.7742 15.085 26.3078 15.085 26.963C15.085 27.4543 14.9909 27.9114 14.8027 28.334C14.6146 28.7567 14.3376 29.1266 13.9718 29.4436C13.6112 29.7553 13.1643 30.001 12.6312 30.1806C12.0982 30.355 11.4893 30.4422 10.8047 30.4422H6.24219V18.895H10.4441Z" fill="#00A39D"/>
<path d="M23.2239 21.2504C23.1455 21.377 23.0618 21.472 22.973 21.5354C22.8894 21.5987 22.7796 21.6304 22.6437 21.6304C22.5235 21.6304 22.3929 21.5934 22.2518 21.5195C22.1159 21.4404 21.9591 21.3533 21.7814 21.2583C21.609 21.1633 21.4104 21.0789 21.1856 21.005C20.9609 20.9258 20.7048 20.8862 20.4174 20.8862C19.9209 20.8862 19.5498 20.9944 19.3042 21.2108C19.0638 21.4219 18.9436 21.7095 18.9436 22.0737C18.9436 22.3059 19.0167 22.4985 19.1631 22.6516C19.3094 22.8046 19.5002 22.9365 19.7354 23.0474C19.9758 23.1582 20.2475 23.2611 20.5506 23.3561C20.859 23.4458 21.1726 23.5487 21.4914 23.6648C21.8102 23.7757 22.1211 23.9076 22.4242 24.0607C22.7326 24.2137 23.0044 24.409 23.2395 24.6465C23.4799 24.8839 23.6733 25.1742 23.8196 25.5172C23.966 25.855 24.0391 26.264 24.0391 26.7443C24.0391 27.2773 23.9477 27.776 23.7648 28.2404C23.5819 28.7048 23.3153 29.1112 22.9652 29.4595C22.6202 29.8026 22.1917 30.0743 21.6795 30.2749C21.1726 30.4702 20.5951 30.5678 19.947 30.5678C19.5916 30.5678 19.2284 30.5309 18.8573 30.457C18.4915 30.3831 18.1361 30.2802 17.7912 30.1482C17.4463 30.011 17.1222 29.8501 16.8191 29.6653C16.516 29.4806 16.2521 29.2748 16.0273 29.0479L16.8113 27.7971C16.874 27.7074 16.955 27.6335 17.0543 27.5755C17.1588 27.5121 17.2712 27.4805 17.3914 27.4805C17.5482 27.4805 17.705 27.5306 17.8617 27.6309C18.0238 27.7311 18.2041 27.842 18.4027 27.9634C18.6065 28.0847 18.8391 28.1956 19.1004 28.2958C19.3617 28.3961 19.67 28.4462 20.0254 28.4462C20.5062 28.4462 20.8799 28.3407 21.1464 28.1296C21.413 27.9132 21.5462 27.5728 21.5462 27.1084C21.5462 26.8392 21.4731 26.6202 21.3267 26.4514C21.1804 26.2825 20.987 26.1426 20.7466 26.0318C20.5114 25.921 20.2423 25.8233 19.9392 25.7389C19.6361 25.6544 19.3251 25.5621 19.0063 25.4618C18.6875 25.3563 18.3765 25.2296 18.0734 25.0818C17.7703 24.9288 17.4985 24.7309 17.2581 24.4881C17.0229 24.2401 16.8322 23.934 16.6858 23.5698C16.5395 23.2004 16.4663 22.7466 16.4663 22.2082C16.4663 21.7755 16.5526 21.3533 16.725 20.9416C16.8975 20.53 17.151 20.1632 17.4855 19.8413C17.8199 19.5194 18.2302 19.2634 18.7162 19.0734C19.2023 18.8782 19.7589 18.7805 20.386 18.7805C20.7362 18.7805 21.0759 18.8095 21.4051 18.8676C21.7396 18.9204 22.0558 19.0022 22.3537 19.113C22.6516 19.2186 22.9286 19.3478 23.1847 19.5009C23.446 19.6487 23.6785 19.8175 23.8824 20.0075L23.2239 21.2504Z" fill="#00A39D"/>
<path fill-rule="evenodd" clip-rule="evenodd" d="M32.6954 18.4176C30.6609 18.2194 29.9456 19.3397 29.5465 19.8938C29.0375 17.6786 28.1768 17.8533 27.2559 17.2952C28.5868 16.5227 28.9591 15.3217 28.9225 14.4321C30.2261 15.388 31.1351 15.2854 32.2609 14.9755C31.7007 16.6471 32.0544 17.1189 32.6954 18.4176Z" fill="#F8AD3C"/>
<path d="M28.439 30.4472H25.6836V18.6387C27.4078 18.8723 28.4417 20.2984 28.439 21.8078V30.4472Z" fill="#00A39D"/>
</g>
<defs>
<clipPath id="clip0_4729_17504">
<rect width="58" height="16.1357" fill="white" transform="translate(6.24219 14.4321)"/>
</clipPath>
</defs>
</svg>
