<svg width="29" height="29" viewBox="0 0 29 29" fill="none" xmlns="http://www.w3.org/2000/svg">
<path d="M26.4722 26.4726H15.1389V24.0726L15.2722 24.006C16.5389 23.4949 17.3611 22.2949 17.3611 20.9393C17.3611 19.9393 16.9167 19.006 16.1167 18.3615L13.4722 16.2504C13.1167 15.9615 12.8944 15.5393 12.8944 15.0726C12.8944 14.2282 13.5833 13.5615 14.4056 13.5615H17.3611V11.7837H15.1389V9.58374H13.3611V11.9837L13.2278 12.0282C11.9611 12.5393 11.1389 13.7393 11.1389 15.0949C11.1389 16.0949 11.5833 17.0282 12.3833 17.6726L15.0278 19.7837C15.3833 20.0726 15.6056 20.4949 15.6056 20.9615C15.6056 21.806 14.9167 22.4726 14.0944 22.4726H11.1389V24.2504H13.3611V26.4726H2.02778V15.806H0.25V28.2504H15.1389H28.25V15.806H26.4722V26.4726Z" fill="white"/>
<path d="M19.5833 0.25H8.91667V4.25H0.25V13.5833H9.36111V11.8056H2.02778V6.02778H8.91667H10.6944H26.4722V11.8056H19.5833V13.5833H28.25V4.25H19.5833V0.25ZM17.8056 4.25H10.6944V2.02778H17.8056V4.25Z" fill="white"/>
</svg>
