<svg width="43" height="43" viewBox="0 0 43 43" fill="none" xmlns="http://www.w3.org/2000/svg">
<path d="M37.4375 18.1875H5.9375M28.6875 4.1875V11.1875M14.6875 4.1875V11.1875M14.3375 39.1875H29.0375C31.9778 39.1875 33.4479 39.1875 34.5709 38.6153C35.5588 38.1119 36.3619 37.3088 36.8653 36.3209C37.4375 35.1979 37.4375 33.7278 37.4375 30.7875V16.0875C37.4375 13.1472 37.4375 11.6771 36.8653 10.554C36.3619 9.5662 35.5588 8.76305 34.5709 8.25972C33.4479 7.6875 31.9778 7.6875 29.0375 7.6875H14.3375C11.3972 7.6875 9.92709 7.6875 8.80405 8.25972C7.8162 8.76305 7.01305 9.5662 6.50972 10.554C5.9375 11.6771 5.9375 13.1472 5.9375 16.0875V30.7875C5.9375 33.7278 5.9375 35.1979 6.50972 36.3209C7.01305 37.3088 7.8162 38.1119 8.80405 38.6153C9.92709 39.1875 11.3972 39.1875 14.3375 39.1875Z" stroke="black" stroke-width="2" stroke-linecap="round" stroke-linejoin="round"/>
</svg>
