<svg width="54" height="54" viewBox="0 0 54 54" fill="none" xmlns="http://www.w3.org/2000/svg">
<path d="M47.25 22.5H6.75M36 4.5V13.5M18 4.5V13.5M20.25 36L24.75 40.5L34.875 30.375M17.55 49.5H36.45C40.2304 49.5 42.1205 49.5 43.5644 48.7643C44.8345 48.1171 45.8671 47.0845 46.5143 45.8144C47.25 44.3705 47.25 42.4804 47.25 38.7V19.8C47.25 16.0196 47.25 14.1295 46.5143 12.6856C45.8671 11.4155 44.8345 10.3829 43.5644 9.73571C42.1205 9 40.2304 9 36.45 9H17.55C13.7696 9 11.8795 9 10.4356 9.73571C9.16547 10.3829 8.13285 11.4155 7.48571 12.6856C6.75 14.1295 6.75 16.0196 6.75 19.8V38.7C6.75 42.4804 6.75 44.3705 7.48571 45.8144C8.13285 47.0845 9.16547 48.1171 10.4356 48.7643C11.8795 49.5 13.7696 49.5 17.55 49.5Z" stroke="black" stroke-width="2" stroke-linecap="round" stroke-linejoin="round"/>
</svg>
