<svg width="70" height="46" viewBox="0 0 70 46" fill="none" xmlns="http://www.w3.org/2000/svg">
<rect x="0.5" y="0.5" width="69" height="45" rx="4.5" fill="white"/>
<rect x="0.5" y="0.5" width="69" height="45" rx="4.5" stroke="#F3F3F3"/>
<path d="M24.4777 21.18C23.6137 21.18 22.8677 20.992 22.2397 20.616C21.6157 20.24 21.1337 19.714 20.7937 19.038C20.4577 18.362 20.2897 17.576 20.2897 16.68C20.2897 15.784 20.4577 14.998 20.7937 14.322C21.1337 13.646 21.6157 13.12 22.2397 12.744C22.8677 12.368 23.6137 12.18 24.4777 12.18C25.4697 12.18 26.3017 12.426 26.9737 12.918C27.6497 13.41 28.1257 14.076 28.4017 14.916L26.7577 15.372C26.5977 14.848 26.3277 14.442 25.9477 14.154C25.5677 13.862 25.0777 13.716 24.4777 13.716C23.9297 13.716 23.4717 13.838 23.1037 14.082C22.7397 14.326 22.4657 14.67 22.2817 15.114C22.0977 15.558 22.0057 16.08 22.0057 16.68C22.0057 17.28 22.0977 17.802 22.2817 18.246C22.4657 18.69 22.7397 19.034 23.1037 19.278C23.4717 19.522 23.9297 19.644 24.4777 19.644C25.0777 19.644 25.5677 19.498 25.9477 19.206C26.3277 18.914 26.5977 18.508 26.7577 17.988L28.4017 18.444C28.1257 19.284 27.6497 19.95 26.9737 20.442C26.3017 20.934 25.4697 21.18 24.4777 21.18ZM31.5228 21.18C31.0588 21.18 30.6648 21.092 30.3408 20.916C30.0208 20.736 29.7768 20.498 29.6088 20.202C29.4448 19.902 29.3628 19.572 29.3628 19.212C29.3628 18.912 29.4088 18.638 29.5008 18.39C29.5928 18.142 29.7408 17.924 29.9448 17.736C30.1528 17.544 30.4308 17.384 30.7788 17.256C31.0188 17.168 31.3048 17.09 31.6368 17.022C31.9688 16.954 32.3448 16.89 32.7648 16.83C33.1848 16.766 33.6468 16.696 34.1508 16.62L33.5628 16.944C33.5628 16.56 33.4708 16.278 33.2868 16.098C33.1028 15.918 32.7948 15.828 32.3628 15.828C32.1228 15.828 31.8728 15.886 31.6128 16.002C31.3528 16.118 31.1708 16.324 31.0668 16.62L29.5908 16.152C29.7548 15.616 30.0628 15.18 30.5148 14.844C30.9668 14.508 31.5828 14.34 32.3628 14.34C32.9348 14.34 33.4428 14.428 33.8868 14.604C34.3308 14.78 34.6668 15.084 34.8948 15.516C35.0228 15.756 35.0988 15.996 35.1228 16.236C35.1468 16.476 35.1588 16.744 35.1588 17.04V21H33.7308V19.668L33.9348 19.944C33.6188 20.38 33.2768 20.696 32.9088 20.892C32.5448 21.084 32.0828 21.18 31.5228 21.18ZM31.8708 19.896C32.1708 19.896 32.4228 19.844 32.6268 19.74C32.8348 19.632 32.9988 19.51 33.1188 19.374C33.2428 19.238 33.3268 19.124 33.3708 19.032C33.4548 18.856 33.5028 18.652 33.5148 18.42C33.5308 18.184 33.5388 17.988 33.5388 17.832L34.0188 17.952C33.5348 18.032 33.1428 18.1 32.8428 18.156C32.5428 18.208 32.3008 18.256 32.1168 18.3C31.9328 18.344 31.7708 18.392 31.6308 18.444C31.4708 18.508 31.3408 18.578 31.2408 18.654C31.1448 18.726 31.0728 18.806 31.0248 18.894C30.9808 18.982 30.9588 19.08 30.9588 19.188C30.9588 19.336 30.9948 19.464 31.0668 19.572C31.1428 19.676 31.2488 19.756 31.3848 19.812C31.5208 19.868 31.6828 19.896 31.8708 19.896ZM39.2509 21.18C38.4349 21.18 37.7749 20.996 37.2709 20.628C36.7709 20.256 36.4669 19.732 36.3589 19.056L38.0269 18.804C38.0949 19.108 38.2449 19.346 38.4769 19.518C38.7129 19.69 39.0109 19.776 39.3709 19.776C39.6669 19.776 39.8949 19.72 40.0549 19.608C40.2149 19.492 40.2949 19.332 40.2949 19.128C40.2949 19 40.2629 18.898 40.1989 18.822C40.1349 18.742 39.9909 18.664 39.7669 18.588C39.5469 18.512 39.2029 18.412 38.7349 18.288C38.2069 18.152 37.7849 18 37.4689 17.832C37.1529 17.664 36.9249 17.464 36.7849 17.232C36.6449 16.996 36.5749 16.712 36.5749 16.38C36.5749 15.964 36.6809 15.604 36.8929 15.3C37.1049 14.992 37.4029 14.756 37.7869 14.592C38.1749 14.424 38.6309 14.34 39.1549 14.34C39.6629 14.34 40.1129 14.418 40.5049 14.574C40.8969 14.73 41.2129 14.952 41.4529 15.24C41.6969 15.528 41.8469 15.868 41.9029 16.26L40.2349 16.56C40.2069 16.32 40.1029 16.13 39.9229 15.99C39.7429 15.85 39.4989 15.768 39.1909 15.744C38.8909 15.724 38.6489 15.764 38.4649 15.864C38.2849 15.964 38.1949 16.108 38.1949 16.296C38.1949 16.408 38.2329 16.502 38.3089 16.578C38.3889 16.654 38.5509 16.732 38.7949 16.812C39.0429 16.892 39.4189 16.996 39.9229 17.124C40.4149 17.252 40.8089 17.402 41.1049 17.574C41.4049 17.742 41.6229 17.946 41.7589 18.186C41.8949 18.422 41.9629 18.708 41.9629 19.044C41.9629 19.708 41.7229 20.23 41.2429 20.61C40.7629 20.99 40.0989 21.18 39.2509 21.18ZM47.6974 21V17.94C47.6974 17.792 47.6894 17.604 47.6734 17.376C47.6574 17.144 47.6074 16.912 47.5234 16.68C47.4394 16.448 47.3014 16.254 47.1094 16.098C46.9214 15.942 46.6534 15.864 46.3054 15.864C46.1654 15.864 46.0154 15.886 45.8554 15.93C45.6954 15.974 45.5454 16.06 45.4054 16.188C45.2654 16.312 45.1494 16.496 45.0574 16.74C44.9694 16.984 44.9254 17.308 44.9254 17.712L43.9894 17.268C43.9894 16.756 44.0934 16.276 44.3014 15.828C44.5094 15.38 44.8214 15.018 45.2374 14.742C45.6574 14.466 46.1854 14.328 46.8214 14.328C47.3294 14.328 47.7434 14.414 48.0634 14.586C48.3834 14.758 48.6314 14.976 48.8074 15.24C48.9874 15.504 49.1154 15.78 49.1914 16.068C49.2674 16.352 49.3134 16.612 49.3294 16.848C49.3454 17.084 49.3534 17.256 49.3534 17.364V21H47.6974ZM43.2694 21V12.36H44.7214V16.8H44.9254V21H43.2694ZM6.50211 34V25.36H10.1501C10.2341 25.36 10.3461 25.364 10.4861 25.372C10.6301 25.376 10.7581 25.388 10.8701 25.408C11.3861 25.488 11.8081 25.658 12.1361 25.918C12.4681 26.178 12.7121 26.506 12.8681 26.902C13.0241 27.294 13.1021 27.732 13.1021 28.216C13.1021 28.7 13.0221 29.14 12.8621 29.536C12.7061 29.928 12.4621 30.254 12.1301 30.514C11.8021 30.774 11.3821 30.944 10.8701 31.024C10.7581 31.04 10.6301 31.052 10.4861 31.06C10.3421 31.068 10.2301 31.072 10.1501 31.072H8.13411V34H6.50211ZM8.13411 29.548H10.0781C10.1621 29.548 10.2541 29.544 10.3541 29.536C10.4541 29.528 10.5461 29.512 10.6301 29.488C10.8501 29.428 11.0201 29.328 11.1401 29.188C11.2601 29.044 11.3421 28.886 11.3861 28.714C11.4341 28.538 11.4581 28.372 11.4581 28.216C11.4581 28.06 11.4341 27.896 11.3861 27.724C11.3421 27.548 11.2601 27.39 11.1401 27.25C11.0201 27.106 10.8501 27.004 10.6301 26.944C10.5461 26.92 10.4541 26.904 10.3541 26.896C10.2541 26.888 10.1621 26.884 10.0781 26.884H8.13411V29.548ZM15.9779 34.18C15.5139 34.18 15.1199 34.092 14.7959 33.916C14.4759 33.736 14.2319 33.498 14.0639 33.202C13.8999 32.902 13.8179 32.572 13.8179 32.212C13.8179 31.912 13.8639 31.638 13.9559 31.39C14.0479 31.142 14.1959 30.924 14.3999 30.736C14.6079 30.544 14.8859 30.384 15.2339 30.256C15.4739 30.168 15.7599 30.09 16.0919 30.022C16.4239 29.954 16.7999 29.89 17.2199 29.83C17.6399 29.766 18.1019 29.696 18.6059 29.62L18.0179 29.944C18.0179 29.56 17.9259 29.278 17.7419 29.098C17.5579 28.918 17.2499 28.828 16.8179 28.828C16.5779 28.828 16.3279 28.886 16.0679 29.002C15.8079 29.118 15.6259 29.324 15.5219 29.62L14.0459 29.152C14.2099 28.616 14.5179 28.18 14.9699 27.844C15.4219 27.508 16.0379 27.34 16.8179 27.34C17.3899 27.34 17.8979 27.428 18.3419 27.604C18.7859 27.78 19.1219 28.084 19.3499 28.516C19.4779 28.756 19.5539 28.996 19.5779 29.236C19.6019 29.476 19.6139 29.744 19.6139 30.04V34H18.1859V32.668L18.3899 32.944C18.0739 33.38 17.7319 33.696 17.3639 33.892C16.9999 34.084 16.5379 34.18 15.9779 34.18ZM16.3259 32.896C16.6259 32.896 16.8779 32.844 17.0819 32.74C17.2899 32.632 17.4539 32.51 17.5739 32.374C17.6979 32.238 17.7819 32.124 17.8259 32.032C17.9099 31.856 17.9579 31.652 17.9699 31.42C17.9859 31.184 17.9939 30.988 17.9939 30.832L18.4739 30.952C17.9899 31.032 17.5979 31.1 17.2979 31.156C16.9979 31.208 16.7559 31.256 16.5719 31.3C16.3879 31.344 16.2259 31.392 16.0859 31.444C15.9259 31.508 15.7959 31.578 15.6959 31.654C15.5999 31.726 15.5279 31.806 15.4799 31.894C15.4359 31.982 15.4139 32.08 15.4139 32.188C15.4139 32.336 15.4499 32.464 15.5219 32.572C15.5979 32.676 15.7039 32.756 15.8399 32.812C15.9759 32.868 16.1379 32.896 16.3259 32.896ZM21.6387 36.88L22.8867 33.448L22.9107 34.456L20.0907 27.52H21.7827L23.6787 32.428H23.2947L25.1787 27.52H26.8107L23.1507 36.88H21.6387ZM35.4545 34V30.172C35.4545 29.744 35.3525 29.412 35.1485 29.176C34.9485 28.936 34.6705 28.816 34.3145 28.816C34.0865 28.816 33.8885 28.87 33.7205 28.978C33.5525 29.082 33.4205 29.23 33.3245 29.422C33.2325 29.61 33.1865 29.828 33.1865 30.076L32.5025 29.62C32.5025 29.176 32.6065 28.784 32.8145 28.444C33.0265 28.104 33.3085 27.84 33.6605 27.652C34.0165 27.46 34.4105 27.364 34.8425 27.364C35.5825 27.364 36.1405 27.584 36.5165 28.024C36.8965 28.46 37.0865 29.032 37.0865 29.74V34H35.4545ZM27.6425 34V27.52H29.0825V29.668H29.2865V34H27.6425ZM31.5545 34V30.172C31.5545 29.744 31.4525 29.412 31.2485 29.176C31.0485 28.936 30.7705 28.816 30.4145 28.816C30.0745 28.816 29.8005 28.934 29.5925 29.17C29.3885 29.402 29.2865 29.704 29.2865 30.076L28.6025 29.596C28.6025 29.172 28.7085 28.792 28.9205 28.456C29.1325 28.12 29.4165 27.854 29.7725 27.658C30.1325 27.462 30.5345 27.364 30.9785 27.364C31.4865 27.364 31.9025 27.472 32.2265 27.688C32.5545 27.904 32.7965 28.192 32.9525 28.552C33.1085 28.912 33.1865 29.308 33.1865 29.74V34H31.5545ZM41.5415 34.18C40.8775 34.18 40.2915 34.038 39.7835 33.754C39.2795 33.466 38.8835 33.072 38.5955 32.572C38.3115 32.068 38.1695 31.492 38.1695 30.844C38.1695 30.136 38.3095 29.52 38.5895 28.996C38.8695 28.472 39.2555 28.066 39.7475 27.778C40.2395 27.486 40.8055 27.34 41.4455 27.34C42.1255 27.34 42.7035 27.5 43.1795 27.82C43.6555 28.14 44.0075 28.59 44.2355 29.17C44.4635 29.75 44.5435 30.432 44.4755 31.216H42.8615V30.616C42.8615 29.956 42.7555 29.482 42.5435 29.194C42.3355 28.902 41.9935 28.756 41.5175 28.756C40.9615 28.756 40.5515 28.926 40.2875 29.266C40.0275 29.602 39.8975 30.1 39.8975 30.76C39.8975 31.364 40.0275 31.832 40.2875 32.164C40.5515 32.492 40.9375 32.656 41.4455 32.656C41.7655 32.656 42.0395 32.586 42.2675 32.446C42.4955 32.306 42.6695 32.104 42.7895 31.84L44.4215 32.308C44.1775 32.9 43.7915 33.36 43.2635 33.688C42.7395 34.016 42.1655 34.18 41.5415 34.18ZM39.3935 31.216V30.004H43.6895V31.216H39.3935ZM50.0705 34V30.94C50.0705 30.792 50.0625 30.604 50.0465 30.376C50.0305 30.144 49.9805 29.912 49.8965 29.68C49.8125 29.448 49.6745 29.254 49.4825 29.098C49.2945 28.942 49.0265 28.864 48.6785 28.864C48.5385 28.864 48.3885 28.886 48.2285 28.93C48.0685 28.974 47.9185 29.06 47.7785 29.188C47.6385 29.312 47.5225 29.496 47.4305 29.74C47.3425 29.984 47.2985 30.308 47.2985 30.712L46.3625 30.268C46.3625 29.756 46.4665 29.276 46.6745 28.828C46.8825 28.38 47.1945 28.018 47.6105 27.742C48.0305 27.466 48.5585 27.328 49.1945 27.328C49.7025 27.328 50.1165 27.414 50.4365 27.586C50.7565 27.758 51.0045 27.976 51.1805 28.24C51.3605 28.504 51.4885 28.78 51.5645 29.068C51.6405 29.352 51.6865 29.612 51.7025 29.848C51.7185 30.084 51.7265 30.256 51.7265 30.364V34H50.0705ZM45.6425 34V27.52H47.0945V29.668H47.2985V34H45.6425ZM57.1714 34C56.7234 34.084 56.2834 34.12 55.8514 34.108C55.4234 34.1 55.0394 34.026 54.6994 33.886C54.3634 33.742 54.1074 33.512 53.9314 33.196C53.7714 32.9 53.6874 32.6 53.6794 32.296C53.6714 31.988 53.6674 31.64 53.6674 31.252V25.72H55.2994V31.156C55.2994 31.408 55.3014 31.636 55.3054 31.84C55.3134 32.04 55.3554 32.2 55.4314 32.32C55.5754 32.548 55.8054 32.672 56.1214 32.692C56.4374 32.712 56.7874 32.696 57.1714 32.644V34ZM52.5634 28.78V27.52H57.1714V28.78H52.5634ZM61.1474 34.18C60.3314 34.18 59.6714 33.996 59.1674 33.628C58.6674 33.256 58.3634 32.732 58.2554 32.056L59.9234 31.804C59.9914 32.108 60.1414 32.346 60.3734 32.518C60.6094 32.69 60.9074 32.776 61.2674 32.776C61.5634 32.776 61.7914 32.72 61.9514 32.608C62.1114 32.492 62.1914 32.332 62.1914 32.128C62.1914 32 62.1594 31.898 62.0954 31.822C62.0314 31.742 61.8874 31.664 61.6634 31.588C61.4434 31.512 61.0994 31.412 60.6314 31.288C60.1034 31.152 59.6814 31 59.3654 30.832C59.0494 30.664 58.8214 30.464 58.6814 30.232C58.5414 29.996 58.4714 29.712 58.4714 29.38C58.4714 28.964 58.5774 28.604 58.7894 28.3C59.0014 27.992 59.2994 27.756 59.6834 27.592C60.0714 27.424 60.5274 27.34 61.0514 27.34C61.5594 27.34 62.0094 27.418 62.4014 27.574C62.7934 27.73 63.1094 27.952 63.3494 28.24C63.5934 28.528 63.7434 28.868 63.7994 29.26L62.1314 29.56C62.1034 29.32 61.9994 29.13 61.8194 28.99C61.6394 28.85 61.3954 28.768 61.0874 28.744C60.7874 28.724 60.5454 28.764 60.3614 28.864C60.1814 28.964 60.0914 29.108 60.0914 29.296C60.0914 29.408 60.1294 29.502 60.2054 29.578C60.2854 29.654 60.4474 29.732 60.6914 29.812C60.9394 29.892 61.3154 29.996 61.8194 30.124C62.3114 30.252 62.7054 30.402 63.0014 30.574C63.3014 30.742 63.5194 30.946 63.6554 31.186C63.7914 31.422 63.8594 31.708 63.8594 32.044C63.8594 32.708 63.6194 33.23 63.1394 33.61C62.6594 33.99 61.9954 34.18 61.1474 34.18Z" fill="black"/>
</svg>
