<svg width="43" height="43" viewBox="0 0 43 43" fill="none" xmlns="http://www.w3.org/2000/svg">
<path d="M11.1875 26.9375L14.6875 30.4375L22.5625 22.5625M14.6875 14.6875V9.7875C14.6875 7.82732 14.6875 6.84722 15.069 6.09853C15.4045 5.43997 15.94 4.90453 16.5985 4.56898C17.3472 4.1875 18.3273 4.1875 20.2875 4.1875H33.5875C35.5477 4.1875 36.5278 4.1875 37.2765 4.56898C37.935 4.90453 38.4705 5.43997 38.806 6.09853C39.1875 6.84722 39.1875 7.82732 39.1875 9.7875V23.0875C39.1875 25.0477 39.1875 26.0278 38.806 26.7765C38.4705 27.435 37.935 27.9705 37.2765 28.306C36.5278 28.6875 35.5477 28.6875 33.5875 28.6875H28.6875M9.7875 39.1875H23.0875C25.0477 39.1875 26.0278 39.1875 26.7765 38.806C27.435 38.4705 27.9705 37.935 28.306 37.2765C28.6875 36.5278 28.6875 35.5477 28.6875 33.5875V20.2875C28.6875 18.3273 28.6875 17.3472 28.306 16.5985C27.9705 15.94 27.435 15.4045 26.7765 15.069C26.0278 14.6875 25.0477 14.6875 23.0875 14.6875H9.7875C7.82732 14.6875 6.84722 14.6875 6.09853 15.069C5.43997 15.4045 4.90453 15.94 4.56898 16.5985C4.1875 17.3472 4.1875 18.3273 4.1875 20.2875V33.5875C4.1875 35.5477 4.1875 36.5278 4.56898 37.2765C4.90453 37.935 5.43997 38.4705 6.09853 38.806C6.84722 39.1875 7.82732 39.1875 9.7875 39.1875Z" stroke="black" stroke-width="2" stroke-linecap="round" stroke-linejoin="round"/>
</svg>
