<svg width="70" height="46" viewBox="0 0 70 46" fill="none" xmlns="http://www.w3.org/2000/svg">
<path d="M4.375 0.5H65.625C67.7544 0.5 69.4999 2.24688 69.5 4.38086V41.6191C69.4999 43.7531 67.7544 45.5 65.625 45.5H4.375C2.24556 45.5 0.500051 43.7531 0.5 41.6191V4.38086C0.500051 2.24688 2.24556 0.5 4.375 0.5Z" fill="white" stroke="#F3F3F3"/>
<g clip-path="url(#clip0_4731_17656)">
<path d="M5 17.9998H14.1467C14.1467 21.0485 14.1467 24.0972 14.1461 27.1459C11.0974 27.1464 8.04871 27.1459 5 27.1464V17.9998ZM6.21827 19.7167C6.93007 20.6699 7.6524 21.6147 8.36753 22.5651C7.65849 23.5193 6.93173 24.4603 6.22159 25.414C7.84502 25.4206 9.4679 25.414 11.0913 25.4173C11.822 24.4719 12.526 23.506 13.2616 22.564L13.2478 22.5645C12.531 21.6141 11.8109 20.666 11.0952 19.7156C9.46956 19.7167 7.84391 19.714 6.21827 19.7167Z" fill="#790008"/>
<path d="M17.2455 20.6728C17.7901 19.9936 18.6276 19.5575 19.4977 19.5082C20.3218 19.4445 21.1604 19.734 21.7798 20.2792C21.5003 20.561 21.2202 20.841 20.9384 21.1206C20.4619 20.7342 19.7999 20.582 19.2065 20.7514C18.5445 20.9252 18.0132 21.4908 17.8654 22.1573C17.6849 22.8807 17.9456 23.7027 18.5407 24.161C19.2204 24.7172 20.2748 24.689 20.9429 24.1272C21.2229 24.4078 21.5091 24.6835 21.782 24.9718C21.229 25.4523 20.51 25.7412 19.7761 25.7501C18.8512 25.7755 17.9246 25.3687 17.3207 24.6674C16.8984 24.1864 16.6294 23.572 16.5691 22.9344C16.4844 22.1307 16.7318 21.2977 17.2455 20.6728Z" fill="#790008"/>
<path d="M22.8906 19.6741C23.2919 19.6741 23.6927 19.6747 24.0939 19.6736C24.0951 21.6435 24.0939 23.6129 24.0945 25.5828C23.6932 25.5828 23.2919 25.5834 22.8906 25.5823C22.8912 23.6129 22.8906 21.6435 22.8906 19.6741Z" fill="#790008"/>
<path d="M25.5354 19.6604C25.9256 19.6592 26.3158 19.6626 26.7066 19.6587C27.4023 20.9102 28.0804 22.1727 28.785 23.4198C29.468 22.1644 30.161 20.9151 30.844 19.6598C31.2376 19.6609 31.6311 19.6598 32.0252 19.6604C32.023 21.6308 32.0291 23.6008 32.0219 25.5712C31.6212 25.5651 31.221 25.5723 30.8202 25.5674C30.823 24.4011 30.8202 23.2354 30.8219 22.0698C30.1317 23.2482 29.4741 24.4465 28.7717 25.6172C28.1009 24.431 27.4117 23.2554 26.7381 22.0709C26.7403 23.2371 26.7387 24.4028 26.7392 25.569C26.3379 25.569 25.9372 25.5685 25.5359 25.5696C25.5343 23.5997 25.5359 21.6303 25.5354 19.6604Z" fill="#790008"/>
<path d="M33.3953 19.6736C34.2078 19.6747 35.0198 19.6736 35.8324 19.6741C36.2082 19.6813 36.594 19.7605 36.915 19.9647C37.6905 20.4385 37.8687 21.669 37.2211 22.321C37.1381 22.4096 37.0396 22.4826 36.9416 22.5535C37.3108 22.7478 37.5942 23.1081 37.6628 23.5232C37.763 24.0834 37.6351 24.7265 37.2006 25.1217C36.8541 25.4533 36.3615 25.5728 35.8944 25.5789C35.0613 25.5878 34.2278 25.5806 33.3947 25.5828C33.3953 23.6129 33.3936 21.6435 33.3953 19.6736ZM34.5986 20.7535C34.5981 21.1824 34.5986 21.6114 34.5986 22.0404C34.9529 22.0393 35.3077 22.042 35.6624 22.0398C35.8689 22.0359 36.092 21.9928 36.2431 21.8406C36.4578 21.6125 36.4634 21.2278 36.2724 20.9832C36.1257 20.8066 35.8833 20.7518 35.6636 20.7529C35.3082 20.7535 34.9534 20.7535 34.5986 20.7535ZM34.5986 23.1203C34.5986 23.5764 34.5981 24.033 34.5986 24.4896C34.9899 24.4902 35.3813 24.4891 35.7726 24.4907C35.9558 24.4963 36.1484 24.4448 36.2857 24.318C36.5591 24.0546 36.5641 23.5636 36.2851 23.3024C36.1346 23.1596 35.9187 23.1225 35.7189 23.1197C35.3453 23.1192 34.9717 23.1197 34.5986 23.1203Z" fill="#790008"/>
<path d="M40.1596 19.6608C40.3605 19.6631 40.5614 19.6536 40.7623 19.6636C40.8542 19.735 40.9057 19.8468 40.9793 19.9365C42.0819 21.4426 43.1756 22.9553 44.2843 24.457C44.2832 22.8579 44.2843 21.2594 44.2837 19.6603C44.4913 19.6603 44.6989 19.6603 44.9064 19.6603C44.9064 21.6252 44.9064 23.5902 44.9064 25.5551C44.6967 25.5551 44.4869 25.5546 44.2777 25.5562C43.1131 23.9544 41.9491 22.352 40.7828 20.7512C40.7828 22.3525 40.7828 23.9538 40.7828 25.5546C40.5736 25.554 40.3644 25.559 40.1562 25.5501C40.1657 23.5874 40.1579 21.6241 40.1596 19.6608Z" fill="#790008"/>
<path d="M46.4553 19.6602C46.6628 19.6602 46.8699 19.6602 47.078 19.6602C47.078 21.6251 47.0774 23.5895 47.078 25.5539C46.8704 25.5555 46.6628 25.5544 46.4558 25.555C46.4542 23.59 46.4558 21.6251 46.4553 19.6602Z" fill="#790008"/>
<path d="M48.0391 25.595C48.757 23.6295 49.4754 21.664 50.1983 19.7007C50.4861 19.7035 50.7734 19.7012 51.0612 19.7018C51.7459 21.6529 52.4295 23.6051 53.1164 25.5551C52.8717 25.5546 52.6271 25.5557 52.383 25.5546C52.2009 25.0326 52.016 24.5112 51.8284 23.9909C51.0153 23.9915 50.2027 23.9915 49.3902 23.9915C49.2086 24.5256 49.0343 25.063 48.8522 25.5972C48.5809 25.595 48.3097 25.5983 48.0391 25.595ZM49.6392 23.2846C50.2863 23.2874 50.9339 23.2852 51.5809 23.2857C51.2566 22.3404 50.9367 21.3933 50.6178 20.4463C50.2929 21.3928 49.9614 22.337 49.6392 23.2846Z" fill="#790008"/>
<path d="M54.4979 20.6665C54.9894 20.1606 55.6469 19.797 56.356 19.7317C57.23 19.6437 58.1001 19.968 58.8069 20.4656C58.6691 20.6444 58.5241 20.8171 58.3874 20.9964C58.1521 20.6616 57.7353 20.5365 57.3595 20.4352C56.7058 20.2553 55.9641 20.3527 55.4123 20.7584C54.9136 21.1348 54.5803 21.7066 54.4481 22.3127C54.3733 22.9392 54.4353 23.6234 54.8073 24.1536C54.9351 24.354 55.1388 24.483 55.3132 24.6385C55.6829 24.9402 56.1678 25.0769 56.6405 25.0725C57.2222 25.078 57.7979 24.9291 58.3298 24.7005C58.3292 24.095 58.3309 23.4894 58.3292 22.8839C57.8682 22.8844 57.4071 22.8844 56.946 22.8839C56.946 22.7001 56.946 22.5164 56.9455 22.3326C57.6003 22.3287 58.2551 22.3326 58.9104 22.3304C58.9115 23.2669 58.9104 24.2029 58.911 25.1394C58.2861 25.4881 57.5698 25.6343 56.8647 25.7046C56.118 25.7201 55.3381 25.5285 54.7569 25.0409C54.189 24.5743 53.8575 23.8641 53.76 23.1446C53.6853 22.2689 53.9078 21.3363 54.4979 20.6665Z" fill="#790008"/>
<path d="M59.9102 25.5888C60.6314 23.6277 61.3493 21.6655 62.065 19.7022C62.3528 19.7006 62.6406 19.7039 62.929 19.6995C63.5904 21.562 64.2369 23.4301 64.8961 25.2937C64.9271 25.3773 64.9443 25.4648 64.9515 25.5544C64.7196 25.5556 64.4888 25.5544 64.2579 25.5556C64.0703 25.0353 63.8877 24.5127 63.7028 23.9919C62.8869 23.9908 62.071 23.9902 61.2557 23.9925C61.0808 24.5277 60.8993 25.0607 60.7233 25.5954C60.452 25.5937 60.1808 25.6043 59.9102 25.5888ZM62.4862 20.45C62.1651 21.3971 61.8303 22.3391 61.512 23.2873C62.1568 23.284 62.8022 23.2862 63.4471 23.2862C63.1332 22.3386 62.8078 21.3949 62.4862 20.45Z" fill="#790008"/>
<path d="M6.2168 19.7166C7.84244 19.7138 9.46809 19.7166 11.0937 19.7155C11.8094 20.6659 12.5295 21.614 13.2463 22.5644C11.6196 22.5677 9.99281 22.5661 8.36606 22.5649C7.65093 21.6146 6.9286 20.6697 6.2168 19.7166Z" fill="white"/>
<path d="M8.36664 22.5651C9.9934 22.5662 11.6201 22.5678 13.2469 22.5645L13.2607 22.564C12.5251 23.506 11.8211 24.4719 11.0904 25.4173C9.46701 25.414 7.84413 25.4206 6.2207 25.414C6.93085 24.4603 7.6576 23.5193 8.36664 22.5651Z" fill="#ED3024"/>
</g>
<defs>
<clipPath id="clip0_4731_17656">
<rect width="60" height="9.18819" fill="white" transform="translate(5 18)"/>
</clipPath>
</defs>
</svg>
