<svg width="30" height="30" viewBox="0 0 46 46" fill="none" xmlns="http://www.w3.org/2000/svg">
<path d="M23.0002 32.5833C23.0002 37.8761 27.2908 42.1667 32.5835 42.1667C37.8762 42.1667 42.1668 37.8761 42.1668 32.5833C42.1668 27.2906 37.8762 23 32.5835 23C27.2908 23 23.0002 27.2906 23.0002 32.5833ZM23.0002 32.5833C23.0002 30.4255 23.7133 28.4342 24.9168 26.8324V9.58333M23.0002 32.5833C23.0002 34.1653 23.3835 35.6577 24.0622 36.9727C22.4475 38.3367 18.718 39.2917 14.3752 39.2917C8.55316 39.2917 3.8335 37.5754 3.8335 35.4583V9.58333M24.9168 9.58333C24.9168 11.7004 20.1972 13.4167 14.3752 13.4167C8.55316 13.4167 3.8335 11.7004 3.8335 9.58333M24.9168 9.58333C24.9168 7.46624 20.1972 5.75 14.3752 5.75C8.55316 5.75 3.8335 7.46624 3.8335 9.58333M3.8335 26.8333C3.8335 28.9504 8.55316 30.6667 14.3752 30.6667C18.5708 30.6667 22.1939 29.7754 23.8907 28.4851M24.9168 18.2083C24.9168 20.3254 20.1972 22.0417 14.3752 22.0417C8.55316 22.0417 3.8335 20.3254 3.8335 18.2083" stroke="white" stroke-width="2" stroke-linecap="round" stroke-linejoin="round"/>
</svg>
