<svg width="36" height="36" viewBox="0 0 36 36" fill="none" xmlns="http://www.w3.org/2000/svg">
<path d="M9 9L12 6M12 6L9 3M12 6H9C5.68629 6 3 8.68629 3 12M27 27L24 30M24 30L27 33M24 30H27C30.3137 30 33 27.3137 33 24M20.1257 20.1258C21.2991 20.6862 22.6129 21 24 21C28.9706 21 33 16.9706 33 12C33 7.02944 28.9706 3 24 3C19.0294 3 15 7.02944 15 12C15 13.3871 15.3138 14.7009 15.8742 15.8742M21 24C21 28.9706 16.9706 33 12 33C7.02944 33 3 28.9706 3 24C3 19.0294 7.02944 15 12 15C16.9706 15 21 19.0294 21 24Z" stroke="black" stroke-width="2" stroke-linecap="round" stroke-linejoin="round"/>
</svg>
