<svg width="36" height="36" viewBox="0 0 36 36" fill="none" xmlns="http://www.w3.org/2000/svg">
<path d="M18 33C26.2843 33 33 26.2843 33 18C33 9.71573 26.2843 3 18 3C9.71573 3 3 9.71573 3 18C3 26.2843 9.71573 33 18 33Z" stroke="black" stroke-width="2" stroke-linecap="round" stroke-linejoin="round"/>
<path d="M22.0832 12.3989C22.816 12.1547 23.1824 12.0325 23.426 12.1194C23.6381 12.195 23.805 12.3619 23.8806 12.5739C23.9675 12.8176 23.8453 13.184 23.601 13.9168L21.3697 20.6108C21.3002 20.8195 21.2654 20.9239 21.2061 21.0105C21.1536 21.0873 21.0873 21.1536 21.0105 21.2061C20.9238 21.2654 20.8195 21.3002 20.6108 21.3697L13.9168 23.6011C13.184 23.8453 12.8176 23.9675 12.5739 23.8806C12.3619 23.805 12.195 23.6381 12.1194 23.4261C12.0325 23.1824 12.1547 22.816 12.3989 22.0832L14.6303 15.3892C14.6998 15.1805 14.7346 15.0761 14.7939 14.9895C14.8464 14.9127 14.9127 14.8464 14.9895 14.7939C15.0761 14.7346 15.1805 14.6998 15.3892 14.6303L22.0832 12.3989Z" stroke="black" stroke-width="2" stroke-linecap="round" stroke-linejoin="round"/>
</svg>
