<svg width="105" height="40" viewBox="0 0 105 40" fill="none" xmlns="http://www.w3.org/2000/svg">
<path id="Logo" fill-rule="evenodd" clip-rule="evenodd" d="M103.295 19.1191C103.282 19.1319 103.257 19.2252 103.216 19.3787C102.928 20.4619 101.844 24.5444 98.487 24.5444C96.989 24.5444 95.9439 23.4386 95.3168 22.0909C99.9851 21.0542 101.553 17.3913 101.553 14.9032C101.553 12.0005 99.4625 10.9293 97.6858 10.9293C94.7942 10.9293 90.9969 13.6246 90.9969 18.8426C90.9969 19.3264 91.0317 19.7756 91.0666 20.1903C90.0563 19.8793 89.1853 19.361 88.593 18.4625C89.464 14.5922 89.3247 10.8947 87.5131 10.8947C86.5028 10.8947 85.6318 12.2078 85.6318 15.1105C85.6318 16.2509 85.9454 17.5295 86.5376 18.6698C86.1544 20.4322 84.9002 24.7172 83.2628 24.7172C81.3295 24.7172 81.5965 16.793 81.7016 13.6728V13.6728V13.6724V13.6722V13.6719C81.7177 13.1941 81.73 12.829 81.73 12.6225C81.73 11.3439 78.6294 10.0308 77.9675 10.6874C77.6888 10.9638 77.6191 12.6916 77.6191 14.9032C77.6191 16.7347 77.7584 18.8772 78.1765 20.8814C77.9675 21.9527 77.0268 24.7517 75.3198 24.7517C73.138 24.7517 73.653 17.9703 73.9018 14.6943C73.9549 13.9948 73.9959 13.4551 73.9959 13.1754C73.9959 12.0351 71.0347 10.9638 70.3031 11.6549C70.0244 11.9314 69.8154 13.9702 69.8154 17.1148C69.8154 18.4279 69.885 19.8102 70.0941 21.1233C69.8154 22.5056 68.7006 24.7517 66.9238 24.7517C64.0791 24.7517 65.3108 13.9237 66.078 7.17883L66.0877 7.09352C66.5406 7.02441 67.0283 6.9553 67.5161 6.88618C67.6161 6.87516 67.7179 6.86347 67.8206 6.85168L67.8208 6.85166C69.0052 6.71572 70.3031 6.56676 70.3031 7.2663C70.3031 9.02866 71.4876 9.58156 72.3585 9.58156C73.334 9.58156 74.1701 8.82133 74.1701 7.36997C74.1701 5.95317 72.9159 4.60548 70.7212 4.60548C69.258 4.60548 67.7599 4.77826 66.2967 5.02015C66.3247 4.71464 66.3527 4.42898 66.3787 4.16382C66.4497 3.43923 66.5058 2.86777 66.5058 2.46299C66.5058 0.977079 63.4052 -0.47428 62.7781 0.147731C62.6736 0.251399 62.2555 2.60122 61.8723 5.88405C59.7123 6.29873 57.5872 6.67885 55.4621 6.67885C54.7305 6.67885 54.835 8.89044 57.3085 8.89044C58.7369 8.89044 60.1652 8.57943 61.6284 8.19932C61.4194 10.48 61.2801 13.0026 61.2801 15.4216C61.2801 17.5986 61.4194 19.4992 61.6981 21.1233C61.4194 22.3328 60.5485 24.7863 58.9111 24.7863C56.3025 24.7863 56.9011 17.3476 57.1759 13.9323C57.2314 13.2425 57.2737 12.7168 57.2737 12.4497C57.2737 11.6895 54.417 10.0308 53.8247 10.6182C53.755 10.6874 53.6854 11.1711 53.6854 11.1711C53.6854 11.1711 53.3022 10.8947 52.257 10.8947C48.2506 10.8947 45.0455 15.8017 45.0455 20.2594V20.2595C45.0455 20.4668 45.0455 20.6741 45.0804 20.8814C44.4533 22.3328 42.8856 24.8208 40.0637 24.8208C38.6353 24.8208 37.625 23.8878 36.9283 22.6784C41.3179 21.4343 43.0249 17.6332 43.0249 15.1797C43.0249 12.3115 40.5863 10.8947 38.8095 10.8947C35.709 10.8947 32.3297 13.9702 32.3297 19.1536C32.3297 20.6741 32.6084 21.9527 33.0961 23.0585C32.5387 23.9224 31.7026 24.7863 30.5529 24.7863C27.9261 24.7863 28.903 17.6139 29.3411 14.398L29.3411 14.3979L29.3411 14.3976C29.4375 13.6898 29.5078 13.1738 29.5078 12.9681C29.5078 12.6916 29.5078 12.1387 28.9852 11.7932C28.5166 11.4506 26.4413 11.1081 24.8118 10.8392L24.8117 10.8392C24.1398 10.7282 23.5436 10.6299 23.1673 10.5491V9.7889C23.1673 7.71553 21.8783 7.2663 21.0073 7.2663C19.579 7.2663 19.3003 8.85588 19.3003 9.236C19.3003 9.61612 19.4048 10.9638 20.8331 11.7586C20.8331 15.5943 18.3596 24.6826 11.7404 24.6826C6.72373 24.6826 4.91216 19.5683 4.91216 15.7671C4.91216 9.33967 8.7095 4.39814 11.1482 4.39814C12.6767 4.39814 12.7676 5.86708 12.8588 7.34017C12.9505 8.82161 13.0425 10.3072 14.5971 10.3072C16.7571 10.3072 17.0706 8.23387 17.0706 7.2663C17.0706 5.46938 15.1894 2.11743 11.1482 2.11743C4.73797 2.11743 0 9.85801 0 16.4928C0 22.8857 4.42443 28 10.6256 28C20.206 28 22.575 17.9096 23.0628 12.2769C23.2853 12.3383 23.6176 12.4126 23.9599 12.4893L23.96 12.4893C24.5821 12.6286 25.2373 12.7752 25.3272 12.8644C25.4383 12.9746 25.347 13.7444 25.2146 14.8604V14.8604V14.8604V14.8604C25.0564 16.1943 24.8395 18.0228 24.8395 19.8102C24.8395 23.9224 26.1982 27.2398 29.473 27.2398C31.5284 27.2398 33.1658 25.7538 34.0367 24.6135C35.3606 26.3067 37.2767 27.1707 39.1579 27.1707C42.3979 27.1707 44.523 25.1664 45.5681 23.5768C46.4739 25.9957 48.3203 27.1707 49.9925 27.1707C52.3267 27.1707 53.7202 24.0606 53.7899 23.5768C54.4866 25.7538 56.124 27.2398 57.9704 27.2398C60.3046 27.2398 61.7329 25.1318 62.2904 23.8187C63.1265 26.0303 64.4503 27.2398 66.3664 27.2398C68.5612 27.2398 69.9896 25.2701 70.6515 23.9569C71.3482 25.8921 72.4979 27.2398 74.3095 27.2398C76.7481 27.2398 78.281 24.7517 78.7687 23.5077C79.57 25.6502 80.8242 27.1707 82.7751 27.1707C84.9351 27.1707 86.8163 24.0952 87.9311 20.6395C88.8369 21.5034 90.0214 22.1255 91.4498 22.2982C92.5297 25.4083 95.0729 27.1361 97.7554 27.1361C102.424 27.1361 104.235 22.3673 104.444 21.2615C104.723 20.1212 103.643 18.7735 103.295 19.1191ZM38.671 12.3804C40.622 12.3804 39.4723 19.7754 36.2672 20.9849C36.0234 20.1901 35.9188 19.4298 35.9188 18.8424C35.884 16.3543 36.8943 12.3804 38.671 12.3804ZM50.5499 24.1297C47.1358 24.1297 49.5396 12.4152 52.257 12.4152C54.0686 12.4152 53.7899 24.1297 50.5499 24.1297ZM97.2329 12.4497C99.1141 12.4497 98.0341 20.0866 94.7594 20.5704C94.5852 19.9484 94.5155 19.3264 94.5155 18.8426C94.5155 16.3546 95.4561 12.4497 97.2329 12.4497ZM32.5022 32.6665H31.3687C31.2978 32.6665 31.227 32.7024 31.1916 32.7743L29.1725 36.1894C29.0662 36.2972 28.9954 36.2972 28.9245 36.1894L26.9763 32.7743C26.9409 32.7024 26.87 32.6665 26.7992 32.6665H25.7011C25.5594 32.6665 25.4531 32.7743 25.4531 32.9181V39.7482C25.4531 39.892 25.5594 39.9998 25.7011 39.9998H26.7992C26.9409 39.9998 27.0471 39.892 27.0471 39.7482V36.2253C27.0471 36.0096 27.2597 35.9018 27.4014 36.0815L28.9245 38.5979C29.0308 38.7417 29.2079 38.7417 29.2787 38.5979L30.8373 36.0815C30.979 35.9018 31.1916 36.0096 31.1916 36.2253V39.7482C31.1916 39.892 31.2978 39.9998 31.4395 39.9998H32.573C32.7147 39.9998 32.821 39.892 32.821 39.7482V32.9181C32.7501 32.7743 32.6439 32.6665 32.5022 32.6665ZM40.4537 32.6665C40.5569 32.6665 40.6256 32.7388 40.66 32.811L43.5143 39.6747C43.5831 39.8192 43.4799 39.9998 43.308 39.9998H42.1731C42.07 39.9998 42.0012 39.9276 41.9668 39.8553L41.5198 38.6993C41.4854 38.6271 41.4166 38.5548 41.3134 38.5548H38.3904C38.2872 38.5548 38.2184 38.6271 38.1841 38.6993L37.7714 39.8553C37.737 39.9276 37.6682 39.9998 37.5651 39.9998H36.3958C36.2239 39.9998 36.1207 39.8192 36.1895 39.6747L39.0782 32.811C39.1125 32.7388 39.1813 32.6665 39.2845 32.6665H40.4537ZM39.1458 37.1462H40.6246C40.7621 37.1462 40.8997 36.9656 40.8653 36.8211L40.1087 34.8342C40.0399 34.6536 39.7648 34.6536 39.6961 34.8342L38.9395 36.8211C38.8707 36.9656 38.9739 37.1462 39.1458 37.1462ZM61.1536 35.7221C61.086 35.794 61.086 35.9377 61.1536 36.0096L63.5893 39.6404C63.6908 39.7841 63.5893 39.9998 63.4202 39.9998H62.1347C62.067 39.9998 61.9994 39.9639 61.9655 39.892L60.2741 37.3038C60.2064 37.1959 60.0373 37.1959 59.9358 37.3038L59.0562 38.4181C59.0562 38.4361 59.0478 38.4631 59.0393 38.49C59.0308 38.517 59.0224 38.544 59.0224 38.5619V39.7482C59.0224 39.856 58.9547 39.9639 58.8194 39.9639H57.8045C57.703 39.9639 57.6016 39.892 57.6016 39.7482V32.8822C57.6016 32.7743 57.6692 32.6665 57.8045 32.6665H58.8194C58.9209 32.6665 59.0224 32.7384 59.0224 32.8822V35.6861C59.0224 35.9018 59.2592 36.0096 59.3945 35.8299L61.7287 32.7384C61.7626 32.7024 61.8302 32.6665 61.8979 32.6665H63.0481C63.2172 32.6665 63.3187 32.8822 63.2172 33.026L61.1536 35.7221ZM72.7621 38.5187H69.4251C69.2861 38.5187 69.1818 38.4103 69.1818 38.2658V37.1821C69.1818 37.0376 69.2861 36.9292 69.4251 36.9292H71.6497C71.7888 36.9292 71.8931 36.8209 71.8931 36.6764V35.8816C71.8931 35.7371 71.7888 35.6287 71.6497 35.6287H69.4251C69.2861 35.6287 69.1818 35.5204 69.1818 35.3759V34.3282C69.1818 34.1837 69.2861 34.0754 69.4251 34.0754H72.5188C72.6578 34.0754 72.7621 33.967 72.7621 33.8225V32.9194C72.7621 32.7749 72.6578 32.6665 72.5188 32.6665H67.8957C67.7566 32.6665 67.6523 32.7749 67.6523 32.9194V39.747C67.6523 39.8915 67.7566 39.9998 67.8957 39.9998H72.7621C72.9011 39.9998 73.0054 39.8915 73.0054 39.747V38.8438C73.0402 38.6271 72.9011 38.5187 72.7621 38.5187ZM76.5677 32.6665H82.2263C82.3304 32.6665 82.4346 32.766 82.3652 32.8655V33.7279C82.3652 33.8274 82.2957 33.9269 82.1569 33.9269H80.3169C80.2128 33.9269 80.1086 33.9932 80.1086 34.1259V39.1342C80.1086 39.2337 80.0392 39.3332 79.9004 39.3332H78.8242C78.72 39.3332 78.6159 39.2668 78.6159 39.1342V34.1259C78.6159 34.0264 78.5464 33.9269 78.4076 33.9269H76.5677C76.4635 33.9269 76.3594 33.8605 76.3594 33.7279V32.8655C76.3594 32.766 76.4288 32.6665 76.5677 32.6665ZM49.8701 32.6665C51.7885 32.6665 52.9131 33.8168 52.9131 35.3985C52.9131 36.3691 52.5162 37.0162 51.987 37.4835C51.9208 37.5554 51.8878 37.6632 51.9208 37.7711L52.8139 39.6763C52.8801 39.8201 52.7808 39.9998 52.6154 39.9998H51.4578C51.3585 39.9998 51.2924 39.9279 51.2593 39.856L50.4985 38.2025C50.4448 38.0856 50.391 38.0874 50.2486 38.0922C50.2157 38.0933 50.1781 38.0946 50.1347 38.0946H50.0024H49.2085C49.0101 38.0946 48.977 38.1306 48.977 38.3103V39.7482C48.977 39.856 48.9108 39.9639 48.7785 39.9639H47.7531C47.6539 39.9639 47.5547 39.892 47.5547 39.7482V32.9181C47.5547 32.8103 47.6208 32.7024 47.7531 32.7024C48.4808 32.6665 49.1755 32.6665 49.8701 32.6665ZM49.7043 36.7005C49.7925 36.6965 49.8807 36.6925 49.9689 36.6925C50.9943 36.6206 51.4573 36.0814 51.4573 35.3984C51.4573 34.5716 50.7958 34.1403 49.9358 34.1043C49.6381 34.0684 49.4066 34.0684 49.175 34.0684C49.0758 34.0684 48.9766 34.1403 48.9766 34.284V36.4769C48.9766 36.5847 49.0427 36.6925 49.175 36.6925C49.3514 36.7165 49.5278 36.7085 49.7043 36.7005Z" fill="#787878"/>
</svg>
