<svg width="30" height="30" viewBox="0 0 35 35" fill="none" xmlns="http://www.w3.org/2000/svg">
<path d="M31.8543 14.4317H3.521M3.521 11.8817L3.521 22.6484C3.521 24.2352 3.521 25.0286 3.82981 25.6347C4.10145 26.1678 4.5349 26.6013 5.06802 26.8729C5.67411 27.1817 6.46751 27.1817 8.05433 27.1817L27.321 27.1817C28.9078 27.1817 29.7012 27.1817 30.3073 26.8729C30.8404 26.6013 31.2739 26.1678 31.5455 25.6347C31.8543 25.0286 31.8543 24.2352 31.8543 22.6484V11.8817C31.8543 10.2949 31.8543 9.5015 31.5455 8.89542C31.2739 8.36229 30.8404 7.92885 30.3073 7.65721C29.7012 7.34839 28.9078 7.34839 27.321 7.34839L8.05433 7.34839C6.46751 7.34839 5.67411 7.34839 5.06802 7.6572C4.5349 7.92884 4.10145 8.36229 3.82981 8.89542C3.521 9.5015 3.521 10.2949 3.521 11.8817Z" stroke="white" stroke-width="2" stroke-linecap="round" stroke-linejoin="round"/>
</svg>
