<svg width="35" height="35" viewBox="0 0 35 35" fill="none" xmlns="http://www.w3.org/2000/svg">
<path d="M26.0145 29.1485C23.5942 30.907 20.6792 31.8541 17.6875 31.8541C14.6958 31.8541 11.7809 30.907 9.36058 29.1485M23.8978 4.95448C26.5867 6.26596 28.7914 8.39503 30.196 11.0366C31.6005 13.6781 32.1327 16.6964 31.7163 19.659M3.65888 19.6589C3.24252 16.6963 3.77473 13.6779 5.17925 11.0364C6.58377 8.39489 8.78849 6.26582 11.4774 4.95435M16.8862 9.98879L9.98893 16.886C9.70842 17.1665 9.56816 17.3068 9.51561 17.4685C9.46939 17.6108 9.46939 17.764 9.51561 17.9063C9.56816 18.068 9.70842 18.2083 9.98893 18.4888L16.8862 25.386C17.1667 25.6665 17.3069 25.8068 17.4687 25.8593C17.6109 25.9056 17.7642 25.9056 17.9064 25.8593C18.0682 25.8068 18.2084 25.6665 18.4889 25.386L25.3862 18.4888C25.6667 18.2083 25.8069 18.068 25.8595 17.9063C25.9057 17.764 25.9057 17.6108 25.8595 17.4685C25.8069 17.3068 25.6667 17.1665 25.3862 16.886L18.4889 9.98879C18.2084 9.70828 18.0682 9.56802 17.9064 9.51547C17.7642 9.46925 17.6109 9.46925 17.4687 9.51547C17.3069 9.56802 17.1667 9.70828 16.8862 9.98879Z" stroke="black" stroke-width="2" stroke-linecap="round" stroke-linejoin="round"/>
</svg>
