<svg width="54" height="54" viewBox="0 0 54 54" fill="none" xmlns="http://www.w3.org/2000/svg">
<path d="M40.225 45.2028C36.3809 47.9957 31.7513 49.4999 26.9998 49.4999C22.2483 49.4999 17.6187 47.9957 13.7746 45.2028M36.8632 6.77707C41.1338 8.86001 44.6354 12.2415 46.8661 16.4368C49.0968 20.6322 49.9421 25.426 49.2808 30.1313M4.71899 30.1311C4.05771 25.4258 4.90299 20.632 7.1337 16.4366C9.36441 12.2413 12.866 8.85979 17.1367 6.77686M39.3748 26.9999C39.3748 33.8345 33.8343 39.3749 26.9998 39.3749C20.1653 39.3749 14.6248 33.8345 14.6248 26.9999C14.6248 20.1654 20.1653 14.6249 26.9998 14.6249C33.8343 14.6249 39.3748 20.1654 39.3748 26.9999Z" stroke="black" stroke-width="2" stroke-linecap="round" stroke-linejoin="round"/>
</svg>
