<svg width="70" height="46" viewBox="0 0 70 46" fill="none" xmlns="http://www.w3.org/2000/svg">
<rect x="0.5" y="0.5" width="69" height="45" rx="4.5" fill="#F7931A"/>
<rect x="0.5" y="0.5" width="69" height="45" rx="4.5" stroke="#F3F3F3"/>
<path fill-rule="evenodd" clip-rule="evenodd" d="M50 23C50 31.2843 43.2843 38 35 38C26.7157 38 20 31.2843 20 23C20 14.7157 26.7157 8 35 8C43.2843 8 50 14.7157 50 23ZM38.6032 17.4269C40.6898 18.1434 42.2161 19.2164 41.9166 21.213C41.6991 22.6751 40.8856 23.3823 39.8047 23.6299C41.2877 24.3989 41.7931 25.8584 41.3234 27.6233C40.4318 30.163 38.3123 30.3768 35.4931 29.846L34.8086 32.5761L33.1561 32.1653L33.8312 29.4718C33.4028 29.3658 32.965 29.2523 32.514 29.1313L31.836 31.838L30.1854 31.4272L30.869 28.6915L27.5405 27.8549L28.3616 25.9698C28.3616 25.9698 29.58 26.2915 29.563 26.2681C30.031 26.3834 30.2391 26.0796 30.321 25.8779L32.1759 18.4679C32.1967 18.1181 32.0752 17.6773 31.4057 17.5104C31.4311 17.4926 30.2052 17.2131 30.2052 17.2131L30.6449 15.4546L33.9781 16.2771L34.6561 13.5724L36.3076 13.9831L35.6438 16.6344C36.0882 16.7348 36.5345 16.837 36.9686 16.9449L37.6277 14.3104L39.2802 14.7212L38.6032 17.4269ZM34.6478 21.9388C35.7734 22.2372 38.2229 22.8866 38.6498 21.1839C39.0854 19.4419 36.7056 18.9157 35.5405 18.6581L35.5404 18.6581C35.4084 18.6289 35.292 18.6032 35.197 18.5795L34.3741 21.8676C34.4524 21.887 34.5444 21.9114 34.6476 21.9387L34.6478 21.9388ZM33.3728 27.2328C34.7211 27.588 37.6698 28.3647 38.139 26.4885C38.6192 24.5701 35.7602 23.9311 34.3653 23.6194C34.2094 23.5845 34.0719 23.5538 33.9592 23.5258L33.0516 27.1496C33.1438 27.1725 33.2518 27.2009 33.3727 27.2328L33.3728 27.2328Z" fill="white"/>
</svg>
