<svg width="35" height="35" viewBox="0 0 35 35" fill="none" xmlns="http://www.w3.org/2000/svg">
<path d="M12.7293 21.0431C12.7293 22.8687 14.2093 24.3486 16.0349 24.3486H19.1043C21.0603 24.3486 22.646 22.763 22.646 20.807C22.646 18.851 21.0603 17.2653 19.1043 17.2653H16.271C14.315 17.2653 12.7293 15.6796 12.7293 13.7236C12.7293 11.7676 14.315 10.182 16.271 10.182H19.3404C21.166 10.182 22.646 11.6619 22.646 13.4875M17.6877 8.05697V10.182M17.6877 24.3486V26.4736M31.8543 17.2653C31.8543 25.0893 25.5117 31.432 17.6877 31.432C9.86363 31.432 3.521 25.0893 3.521 17.2653C3.521 9.44127 9.86363 3.09863 17.6877 3.09863C25.5117 3.09863 31.8543 9.44127 31.8543 17.2653Z" stroke="white" stroke-width="2" stroke-linecap="round" stroke-linejoin="round"/>
</svg>
