<svg width="70" height="46" viewBox="0 0 70 46" fill="none" xmlns="http://www.w3.org/2000/svg">
<rect x="0.5" y="0.5" width="69" height="45" rx="4.5" fill="white" stroke="#F3F3F3"/>
<path d="M7.00066 25.588H7.64774C8.01709 25.588 8.31542 25.6174 8.64442 25.9973C8.87721 26.2599 9.1331 26.8402 9.1331 27.7789C9.1331 28.1158 9.13556 28.4495 9.07175 28.7923C8.96924 29.3331 8.71964 30.1999 7.29227 30.1999C6.91032 30.1999 7.00066 30.1901 7.00066 30.1901V25.5886V25.588ZM7.73472 31C9.65581 31 10.5159 30.1428 10.5159 27.8015C10.5159 27.1826 10.334 26.1452 9.7575 25.5124C9.16125 24.8628 8.39021 24.7817 7.73892 24.7817H5.59766V31H7.73472Z" fill="#046148"/>
<path d="M13.7985 29.3893C13.7985 29.5952 13.7926 29.8717 13.5741 30.0696C13.3909 30.2309 13.1329 30.2431 13.0346 30.2431C12.7909 30.2431 12.5715 30.1545 12.4791 29.8532C12.456 29.7582 12.4467 29.6625 12.4467 29.5708C12.4467 29.1166 12.748 28.9254 13.0829 28.8439C13.2584 28.8032 13.3766 28.7955 13.7984 28.7604L13.7985 29.3893ZM13.7985 28.1998L13.0984 28.2687C12.3442 28.3551 12.0555 28.4241 11.7328 28.6384C11.2118 28.9927 11.2051 29.5107 11.2051 29.6809C11.2051 30.1057 11.334 30.4255 11.5097 30.6095C11.7412 30.8793 12.1081 30.978 12.4623 30.978C13.3308 30.978 13.7451 30.5835 13.7451 30.5835L13.751 30.8642H14.9221V27.9224C14.9221 27.5913 14.93 27.1257 14.5502 26.7963C14.3515 26.6261 14.1775 26.5476 13.9086 26.5093C13.6414 26.4614 13.5485 26.442 13.288 26.442C12.498 26.442 11.9022 26.581 11.5627 27.1853C11.417 27.4471 11.4245 27.7097 11.4245 27.9106H12.4981C12.5079 27.7354 12.5158 27.4929 12.6527 27.3244C12.722 27.2286 12.8842 27.092 13.1846 27.092C13.2826 27.092 13.567 27.092 13.712 27.329C13.7927 27.469 13.7994 27.6509 13.7994 27.8572V28.1997L13.7985 28.1998Z" fill="#046148"/>
<path d="M23.1206 29.3893C23.1206 29.5952 23.1147 29.8717 22.8945 30.0696C22.716 30.2309 22.4571 30.2431 22.3525 30.2431C22.1105 30.2431 21.8945 30.1545 21.8008 29.8532C21.7773 29.7582 21.7706 29.6625 21.7706 29.5708C21.7706 29.1166 22.0702 28.9254 22.4067 28.8439C22.5823 28.8032 22.6992 28.7955 23.1206 28.7604L23.1206 29.3893ZM23.1206 28.1998L22.4235 28.2687C21.6646 28.3551 21.3802 28.4241 21.0554 28.6384C20.5373 28.9927 20.5293 29.5107 20.5293 29.6809C20.5293 30.1057 20.6545 30.4255 20.8285 30.6095C21.0634 30.8793 21.4323 30.978 21.7848 30.978C22.6554 30.978 23.0689 30.5835 23.0689 30.5835L23.0748 30.8642H24.2417V27.9224C24.2417 27.5913 24.2516 27.1257 23.874 26.7963C23.6753 26.6261 23.498 26.5476 23.2324 26.5093C22.9639 26.4614 22.8723 26.442 22.6101 26.442C21.8206 26.442 21.226 26.581 20.8844 27.1853C20.7407 27.4471 20.75 27.7097 20.75 27.9106H21.8206C21.8305 27.7354 21.8383 27.4929 21.9756 27.3244C22.0441 27.2286 22.2063 27.092 22.5071 27.092C22.6051 27.092 22.8891 27.092 23.0378 27.329C23.1146 27.469 23.1213 27.6509 23.1213 27.8572V28.1997L23.1206 28.1998Z" fill="#046148"/>
<path d="M40.7637 30.8639H39.5418V28.231C39.5418 28.0626 39.5418 27.9222 39.5279 27.7789C39.5161 27.6411 39.4766 27.194 38.9439 27.194C38.8027 27.194 38.683 27.229 38.6065 27.2613C38.2464 27.4264 38.2371 27.7189 38.2283 27.9513V30.864H37.0039V26.5554H38.2283V27.0454C38.5359 26.7701 38.8141 26.4689 39.5011 26.4689C40.078 26.4689 40.3637 26.6924 40.4818 26.8307C40.7536 27.1361 40.7536 27.5324 40.7641 27.8412V30.864L40.7637 30.8639Z" fill="#046148"/>
<path d="M19.6316 30.8639H18.4106V28.231C18.4106 28.0626 18.4106 27.9222 18.3904 27.7789C18.3825 27.6411 18.3408 27.194 17.8051 27.194C17.6685 27.194 17.5488 27.229 17.4723 27.2613C17.1114 27.4264 17.1008 27.7189 17.0908 27.9513V30.864H15.8672V26.5554H17.0908V27.0454C17.4042 26.7701 17.679 26.4689 18.3652 26.4689C18.9455 26.4689 19.2261 26.6924 19.3476 26.8307C19.622 27.1361 19.622 27.5324 19.6316 27.8412L19.6316 30.8639Z" fill="#046148"/>
<path d="M25.1406 26.5536H26.3638V27.0548C26.5987 26.8452 27.013 26.4653 27.7475 26.4653C28.5878 26.4653 28.8215 26.967 28.8786 27.1326C29.379 26.6485 29.7081 26.4653 30.1875 26.4653C30.4224 26.4653 30.5833 26.5036 30.7388 26.5603C31.3976 26.8132 31.4119 27.399 31.4241 27.7788V30.8613H30.1795V28.0536C30.1736 27.7486 30.1637 27.5759 30.0845 27.4406C30.0688 27.4056 29.9471 27.191 29.6379 27.191C29.5332 27.191 29.3337 27.2163 29.24 27.2678C28.8975 27.4313 28.8845 27.7157 28.8786 27.9464V30.8612H27.666V28.0716C27.666 27.7401 27.6699 27.1909 27.1176 27.1909C26.9928 27.1909 26.7756 27.2263 26.6684 27.2855C26.3638 27.4733 26.3554 27.7485 26.3638 28.1317V30.8613H25.1406V26.5536Z" fill="#046148"/>
<path d="M35.0368 28.6166C35.0368 28.8612 35.027 29.0961 35.0015 29.333C34.9758 29.5709 34.9342 30.0491 34.5679 30.2499C34.4624 30.3003 34.3515 30.3267 34.2376 30.3267C33.5439 30.3267 33.4813 29.5989 33.467 29.333C33.4512 29.1347 33.4387 28.9405 33.4387 28.7477C33.4387 28.5753 33.4506 28.3359 33.4757 28.0535C33.5006 27.8253 33.5513 27.3888 33.9043 27.1825C34.0249 27.1215 34.1408 27.0964 34.2757 27.0964C34.9341 27.0964 34.9938 27.7872 35.0094 28.0536C35.0271 28.2423 35.0368 28.4322 35.0368 28.6166ZM36.2841 28.6385C36.2841 28.2561 36.2841 27.5406 35.8589 27.0548C35.3459 26.4422 34.6114 26.4422 34.3513 26.4422C34.0496 26.4422 33.3559 26.454 32.8113 26.9481C32.1953 27.4973 32.1953 28.3742 32.1953 28.8179C32.1953 29.66 32.3853 30.5504 33.4504 30.8613C33.7605 30.9559 33.9252 30.9727 34.2374 30.9727C34.5294 30.9727 35.2597 30.9727 35.8022 30.3697C36.2841 29.8361 36.2841 29.036 36.2841 28.6385Z" fill="#046148"/>
<path d="M15.0608 20.3926H26.3789L16.3407 17.3137L15.0608 18.0013L10.7168 19.1222L15.0608 20.3926Z" fill="#EF9826"/>
<path d="M5.59766 15.9999V20.3926H15.0619V18.0013L5.59766 15.9999Z" fill="#EB712D"/>
<path d="M26.3833 20.3926L15.0605 16L15.0623 18.0013L26.3833 20.3926Z" fill="#FEC02B"/>
<path d="M65.4012 28.6499V20.3899H50.1568L46.9883 22.6741L50.1568 25.4266L65.4012 28.6499Z" fill="#EF9826"/>
<path d="M50.1568 25.4267L46.0129 21.8541L26.3848 20.3958L50.1568 28.655V25.4267Z" fill="#FEC02B"/>
<path d="M26.3809 20.3899V20.3938L50.1579 25.4255V20.3909H26.3809V20.3899Z" fill="#EB712D"/>
</svg>
