<svg width="54" height="54" viewBox="0 0 54 54" fill="none" xmlns="http://www.w3.org/2000/svg">
<path d="M24.75 10.125H41.175C43.6952 10.125 44.9554 10.125 45.918 10.6155C46.7647 11.0469 47.4531 11.7353 47.8845 12.582C48.375 13.5446 48.375 14.8048 48.375 17.325V20.25C48.375 22.3467 48.375 23.3951 48.0325 24.2221C47.5757 25.3247 46.6997 26.2007 45.5971 26.6575C44.7701 27 43.7217 27 41.625 27M29.25 43.875H12.825C10.3048 43.875 9.04465 43.875 8.08204 43.3845C7.23531 42.9531 6.5469 42.2647 6.11547 41.418C5.625 40.4554 5.625 39.1952 5.625 36.675V33.75C5.625 31.6533 5.625 30.6049 5.96754 29.7779C6.42426 28.6753 7.3003 27.7993 8.40292 27.3425C9.22989 27 10.2783 27 12.375 27M23.175 32.625H30.825C31.4551 32.625 31.7701 32.625 32.0107 32.5024C32.2224 32.3945 32.3945 32.2224 32.5024 32.0107C32.625 31.7701 32.625 31.4551 32.625 30.825V23.175C32.625 22.5449 32.625 22.2299 32.5024 21.9893C32.3945 21.7776 32.2224 21.6055 32.0107 21.4976C31.7701 21.375 31.4551 21.375 30.825 21.375H23.175C22.5449 21.375 22.2299 21.375 21.9893 21.4976C21.7776 21.6055 21.6055 21.7776 21.4976 21.9893C21.375 22.2299 21.375 22.5449 21.375 23.175V30.825C21.375 31.4551 21.375 31.7701 21.4976 32.0107C21.6055 32.2224 21.7776 32.3945 21.9893 32.5024C22.2299 32.625 22.5449 32.625 23.175 32.625ZM40.05 49.5H47.7C48.3301 49.5 48.6451 49.5 48.8857 49.3774C49.0974 49.2695 49.2695 49.0974 49.3774 48.8857C49.5 48.6451 49.5 48.3301 49.5 47.7V40.05C49.5 39.4199 49.5 39.1049 49.3774 38.8643C49.2695 38.6526 49.0974 38.4805 48.8857 38.3726C48.6451 38.25 48.3301 38.25 47.7 38.25H40.05C39.4199 38.25 39.1049 38.25 38.8643 38.3726C38.6526 38.4805 38.4805 38.6526 38.3726 38.8643C38.25 39.1049 38.25 39.4199 38.25 40.05V47.7C38.25 48.3301 38.25 48.6451 38.3726 48.8857C38.4805 49.0974 38.6526 49.2695 38.8643 49.3774C39.1049 49.5 39.4199 49.5 40.05 49.5ZM6.3 15.75H13.95C14.5801 15.75 14.8951 15.75 15.1357 15.6274C15.3474 15.5195 15.5195 15.3474 15.6274 15.1357C15.75 14.8951 15.75 14.5801 15.75 13.95V6.3C15.75 5.66994 15.75 5.35491 15.6274 5.11426C15.5195 4.90258 15.3474 4.73048 15.1357 4.62262C14.8951 4.5 14.5801 4.5 13.95 4.5H6.3C5.66994 4.5 5.35491 4.5 5.11426 4.62262C4.90258 4.73048 4.73048 4.90258 4.62262 5.11426C4.5 5.35491 4.5 5.66994 4.5 6.3V13.95C4.5 14.5801 4.5 14.8951 4.62262 15.1357C4.73048 15.3474 4.90258 15.5195 5.11426 15.6274C5.35491 15.75 5.66994 15.75 6.3 15.75Z" stroke="black" stroke-width="2" stroke-linecap="round" stroke-linejoin="round"/>
</svg>
