<svg width="145" height="28" viewBox="0 0 145 28" fill="none" xmlns="http://www.w3.org/2000/svg">
<path fill-rule="evenodd" clip-rule="evenodd" d="M8.09714 10.3726L0 5.20447L8.15436 0L16.3026 5.2008L24.4514 0L32.6054 5.20447L24.5084 10.3724L32.6055 15.5405L24.4512 20.7451L16.3028 15.5443L8.15424 20.7453L0 15.5407L8.09714 10.3726ZM16.3026 5.20814L24.394 10.3725L16.3025 15.5369L8.21123 10.3725L16.3026 5.20814ZM102.464 20.2783C103.252 22.1641 104.829 23.3364 107.246 23.3364C110.985 23.3364 113.427 20.5841 113.427 15.6913V15.258C113.427 10.3652 110.832 7.94421 107.347 7.91872C105.033 7.91872 103.405 8.96356 102.591 10.8748V3.13428H98.8516V22.9541H102.158L102.464 20.2783ZM109.587 15.6914C109.587 18.5965 108.239 20.0236 106.026 20.0236C103.915 20.0236 102.516 18.4436 102.516 15.6914V15.3856C102.516 12.8627 103.965 11.1553 106.077 11.1553C108.112 11.1553 109.587 12.6333 109.587 15.3346V15.6914ZM122.611 23.3366C117.88 23.3366 115.184 20.7627 115.184 15.9208V15.5131C115.184 10.5693 118.338 7.91895 122.611 7.91895C126.986 7.91895 130.013 10.6202 130.013 15.5131V15.9208C130.013 20.7627 127.037 23.3366 122.611 23.3366ZM122.586 19.9981C124.718 19.9981 126.057 18.5456 126.057 15.8698V15.513C126.057 12.7607 124.718 11.1553 122.611 11.1553C120.529 11.1553 119.141 12.6588 119.141 15.513V15.8698C119.141 18.5201 120.454 19.9981 122.586 19.9981ZM134.946 15.3345L129.375 22.9541H133.852L137.133 18.0867L140.516 22.9541H144.84L139.346 15.309L144.561 8.25H140.185L137.184 12.6587L134.208 8.25H129.807L134.946 15.3345ZM82.5312 28V8.25008H85.6483L86.0299 11.0533C86.8184 9.1675 88.1142 7.90479 90.5307 7.90479C94.2698 7.90479 96.7937 10.6061 96.7937 15.5499V15.9576C96.7937 20.7995 93.99 23.3224 90.5307 23.3224C88.1905 23.3224 86.971 22.2916 86.1825 20.5842V28H82.5312ZM89.3148 20.0376C91.5024 20.0376 92.9834 18.5851 92.9834 15.8838V15.5525C92.9834 12.6219 91.4006 11.1693 89.3912 11.1693C87.2545 11.1693 86.0468 12.8117 86.0468 15.5384V15.8187C86.0468 18.4181 87.2036 20.0376 89.3148 20.0376ZM65.875 15.8852C65.875 20.7271 68.4236 23.301 73.154 23.301C77.741 23.301 80.4081 20.7271 80.4081 15.8852V15.4774C80.4081 10.5846 77.6182 7.8833 73.154 7.8833C68.6899 7.8833 65.875 10.5336 65.875 15.4774V15.8852ZM76.5319 15.8341C76.5319 18.5099 75.3716 19.9625 73.1308 19.9625C70.8899 19.9625 69.7539 18.4844 69.7539 15.8341V15.4773C69.7539 12.6232 70.9754 11.1196 73.1551 11.1196C75.3348 11.1196 76.5319 12.7251 76.5319 15.4773V15.8341ZM59.7117 22.9541H55.9141V8.24998H59.0648L59.5481 11.6648C60.1332 9.32029 61.6339 8.12256 64.3556 8.12256H65.0576V12.0216H63.7197C60.5656 12.0216 59.7117 13.1174 59.7117 16.2264V22.9541ZM38.9961 4.92735V22.9541H45.8511C50.3787 22.9541 53.7872 20.3038 53.7872 14.4426V13.1939C53.7872 7.35808 50.1753 4.92735 45.7493 4.92735H38.9961ZM42.8633 8.07139H45.5467C48.1158 8.07139 49.8709 9.72783 49.8709 13.372V14.3149C49.8709 17.9591 48.1666 19.6155 45.6739 19.6155H42.8633V8.07139ZM16.3613 27.6747L8.20703 22.4701L16.3613 17.2661L24.5156 22.4701L16.3613 27.6747Z" fill="#787878"/>
</svg>
