<svg width="70" height="46" viewBox="0 0 70 46" fill="none" xmlns="http://www.w3.org/2000/svg">
<rect x="0.5" y="0.5" width="69" height="45" rx="4.5" fill="white"/>
<rect x="0.5" y="0.5" width="69" height="45" rx="4.5" stroke="#F3F3F3"/>
<path d="M10.6391 28.18C9.97511 28.18 9.38911 28.038 8.88111 27.754C8.37711 27.466 7.98111 27.072 7.69311 26.572C7.40911 26.068 7.26711 25.492 7.26711 24.844C7.26711 24.136 7.40711 23.52 7.68711 22.996C7.96711 22.472 8.35311 22.066 8.84511 21.778C9.33711 21.486 9.90311 21.34 10.5431 21.34C11.2231 21.34 11.8011 21.5 12.2771 21.82C12.7531 22.14 13.1051 22.59 13.3331 23.17C13.5611 23.75 13.6411 24.432 13.5731 25.216H11.9591V24.616C11.9591 23.956 11.8531 23.482 11.6411 23.194C11.4331 22.902 11.0911 22.756 10.6151 22.756C10.0591 22.756 9.64911 22.926 9.38511 23.266C9.12511 23.602 8.99511 24.1 8.99511 24.76C8.99511 25.364 9.12511 25.832 9.38511 26.164C9.64911 26.492 10.0351 26.656 10.5431 26.656C10.8631 26.656 11.1371 26.586 11.3651 26.446C11.5931 26.306 11.7671 26.104 11.8871 25.84L13.5191 26.308C13.2751 26.9 12.8891 27.36 12.3611 27.688C11.8371 28.016 11.2631 28.18 10.6391 28.18ZM8.49111 25.216V24.004H12.7871V25.216H8.49111ZM14.8079 24.844V23.584H18.4079V24.844H14.8079ZM21.2399 28L18.7079 19.36H20.4239L22.0439 25.3L23.6639 19.372L25.3799 19.36L26.9999 25.3L28.6199 19.36H30.3359L27.8039 28H26.1959L24.5219 22.168L22.8479 28H21.2399ZM32.5599 28.18C32.0959 28.18 31.7019 28.092 31.3779 27.916C31.0579 27.736 30.8139 27.498 30.6459 27.202C30.4819 26.902 30.3999 26.572 30.3999 26.212C30.3999 25.912 30.4459 25.638 30.5379 25.39C30.6299 25.142 30.7779 24.924 30.9819 24.736C31.1899 24.544 31.4679 24.384 31.8159 24.256C32.0559 24.168 32.3419 24.09 32.6739 24.022C33.0059 23.954 33.3819 23.89 33.8019 23.83C34.2219 23.766 34.6839 23.696 35.1879 23.62L34.5999 23.944C34.5999 23.56 34.5079 23.278 34.3239 23.098C34.1399 22.918 33.8319 22.828 33.3999 22.828C33.1599 22.828 32.9099 22.886 32.6499 23.002C32.3899 23.118 32.2079 23.324 32.1039 23.62L30.6279 23.152C30.7919 22.616 31.0999 22.18 31.5519 21.844C32.0039 21.508 32.6199 21.34 33.3999 21.34C33.9719 21.34 34.4799 21.428 34.9239 21.604C35.3679 21.78 35.7039 22.084 35.9319 22.516C36.0599 22.756 36.1359 22.996 36.1599 23.236C36.1839 23.476 36.1959 23.744 36.1959 24.04V28H34.7679V26.668L34.9719 26.944C34.6559 27.38 34.3139 27.696 33.9459 27.892C33.5819 28.084 33.1199 28.18 32.5599 28.18ZM32.9079 26.896C33.2079 26.896 33.4599 26.844 33.6639 26.74C33.8719 26.632 34.0359 26.51 34.1559 26.374C34.2799 26.238 34.3639 26.124 34.4079 26.032C34.4919 25.856 34.5399 25.652 34.5519 25.42C34.5679 25.184 34.5759 24.988 34.5759 24.832L35.0559 24.952C34.5719 25.032 34.1799 25.1 33.8799 25.156C33.5799 25.208 33.3379 25.256 33.1539 25.3C32.9699 25.344 32.8079 25.392 32.6679 25.444C32.5079 25.508 32.3779 25.578 32.2779 25.654C32.1819 25.726 32.1099 25.806 32.0619 25.894C32.0179 25.982 31.9959 26.08 31.9959 26.188C31.9959 26.336 32.0319 26.464 32.1039 26.572C32.1799 26.676 32.2859 26.756 32.4219 26.812C32.5579 26.868 32.7199 26.896 32.9079 26.896ZM37.876 28V19.18H39.508V28H37.876ZM41.4268 28V19.18H43.0588V28H41.4268ZM47.8696 28.18C47.2056 28.18 46.6196 28.038 46.1116 27.754C45.6076 27.466 45.2116 27.072 44.9236 26.572C44.6396 26.068 44.4976 25.492 44.4976 24.844C44.4976 24.136 44.6376 23.52 44.9176 22.996C45.1976 22.472 45.5836 22.066 46.0756 21.778C46.5676 21.486 47.1336 21.34 47.7736 21.34C48.4536 21.34 49.0316 21.5 49.5076 21.82C49.9836 22.14 50.3356 22.59 50.5636 23.17C50.7916 23.75 50.8716 24.432 50.8036 25.216H49.1896V24.616C49.1896 23.956 49.0836 23.482 48.8716 23.194C48.6636 22.902 48.3216 22.756 47.8456 22.756C47.2896 22.756 46.8796 22.926 46.6156 23.266C46.3556 23.602 46.2256 24.1 46.2256 24.76C46.2256 25.364 46.3556 25.832 46.6156 26.164C46.8796 26.492 47.2656 26.656 47.7736 26.656C48.0936 26.656 48.3676 26.586 48.5956 26.446C48.8236 26.306 48.9976 26.104 49.1176 25.84L50.7496 26.308C50.5056 26.9 50.1196 27.36 49.5916 27.688C49.0676 28.016 48.4936 28.18 47.8696 28.18ZM45.7216 25.216V24.004H50.0176V25.216H45.7216ZM56.0464 28C55.5984 28.084 55.1584 28.12 54.7264 28.108C54.2984 28.1 53.9144 28.026 53.5744 27.886C53.2384 27.742 52.9824 27.512 52.8064 27.196C52.6464 26.9 52.5624 26.6 52.5544 26.296C52.5464 25.988 52.5424 25.64 52.5424 25.252V19.72H54.1744V25.156C54.1744 25.408 54.1764 25.636 54.1804 25.84C54.1884 26.04 54.2304 26.2 54.3064 26.32C54.4504 26.548 54.6804 26.672 54.9964 26.692C55.3124 26.712 55.6624 26.696 56.0464 26.644V28ZM51.4384 22.78V21.52H56.0464V22.78H51.4384ZM60.0224 28.18C59.2064 28.18 58.5464 27.996 58.0424 27.628C57.5424 27.256 57.2384 26.732 57.1304 26.056L58.7984 25.804C58.8664 26.108 59.0164 26.346 59.2484 26.518C59.4844 26.69 59.7824 26.776 60.1424 26.776C60.4384 26.776 60.6664 26.72 60.8264 26.608C60.9864 26.492 61.0664 26.332 61.0664 26.128C61.0664 26 61.0344 25.898 60.9704 25.822C60.9064 25.742 60.7624 25.664 60.5384 25.588C60.3184 25.512 59.9744 25.412 59.5064 25.288C58.9784 25.152 58.5564 25 58.2404 24.832C57.9244 24.664 57.6964 24.464 57.5564 24.232C57.4164 23.996 57.3464 23.712 57.3464 23.38C57.3464 22.964 57.4524 22.604 57.6644 22.3C57.8764 21.992 58.1744 21.756 58.5584 21.592C58.9464 21.424 59.4024 21.34 59.9264 21.34C60.4344 21.34 60.8844 21.418 61.2764 21.574C61.6684 21.73 61.9844 21.952 62.2244 22.24C62.4684 22.528 62.6184 22.868 62.6744 23.26L61.0064 23.56C60.9784 23.32 60.8744 23.13 60.6944 22.99C60.5144 22.85 60.2704 22.768 59.9624 22.744C59.6624 22.724 59.4204 22.764 59.2364 22.864C59.0564 22.964 58.9664 23.108 58.9664 23.296C58.9664 23.408 59.0044 23.502 59.0804 23.578C59.1604 23.654 59.3224 23.732 59.5664 23.812C59.8144 23.892 60.1904 23.996 60.6944 24.124C61.1864 24.252 61.5804 24.402 61.8764 24.574C62.1764 24.742 62.3944 24.946 62.5304 25.186C62.6664 25.422 62.7344 25.708 62.7344 26.044C62.7344 26.708 62.4944 27.23 62.0144 27.61C61.5344 27.99 60.8704 28.18 60.0224 28.18Z" fill="black"/>
</svg>
