<svg width="70" height="46" viewBox="0 0 70 46" fill="none" xmlns="http://www.w3.org/2000/svg">
<rect x="0.5" y="0.5" width="69" height="45" rx="4.5" fill="white"/>
<rect x="0.5" y="0.5" width="69" height="45" rx="4.5" stroke="#F3F3F3"/>
<path d="M7.56 15V9.24H11.32V10.256H8.648V11.488H10.84V12.504H8.648V13.984H11.32V15H7.56ZM12.3588 15V9.12H13.4468V15H12.3588ZM16.6539 15.12C16.2113 15.12 15.8206 15.0253 15.4819 14.836C15.1459 14.644 14.8819 14.3813 14.6899 14.048C14.5006 13.712 14.4059 13.328 14.4059 12.896C14.4059 12.424 14.4993 12.0133 14.6859 11.664C14.8726 11.3147 15.1299 11.044 15.4579 10.852C15.7859 10.6573 16.1633 10.56 16.5899 10.56C17.0433 10.56 17.4286 10.6667 17.7459 10.88C18.0633 11.0933 18.2979 11.3933 18.4499 11.78C18.6019 12.1667 18.6553 12.6213 18.6099 13.144H17.5339V12.744C17.5339 12.304 17.4633 11.988 17.3219 11.796C17.1833 11.6013 16.9553 11.504 16.6379 11.504C16.2673 11.504 15.9939 11.6173 15.8179 11.844C15.6446 12.068 15.5579 12.4 15.5579 12.84C15.5579 13.2427 15.6446 13.5547 15.8179 13.776C15.9939 13.9947 16.2513 14.104 16.5899 14.104C16.8033 14.104 16.9859 14.0573 17.1379 13.964C17.2899 13.8707 17.4059 13.736 17.4859 13.56L18.5739 13.872C18.4113 14.2667 18.1539 14.5733 17.8019 14.792C17.4526 15.0107 17.0699 15.12 16.6539 15.12ZM15.2219 13.144V12.336H18.0859V13.144H15.2219ZM21.4171 15.12C20.9691 15.12 20.5851 15.02 20.2651 14.82C19.9451 14.62 19.6998 14.348 19.5291 14.004C19.3585 13.66 19.2731 13.272 19.2731 12.84C19.2731 12.4027 19.3611 12.012 19.5371 11.668C19.7158 11.324 19.9665 11.0533 20.2891 10.856C20.6118 10.6587 20.9931 10.56 21.4331 10.56C21.9425 10.56 22.3691 10.6893 22.7131 10.948C23.0598 11.204 23.2811 11.5547 23.3771 12L22.2891 12.288C22.2251 12.064 22.1131 11.8893 21.9531 11.764C21.7958 11.6387 21.6171 11.576 21.4171 11.576C21.1878 11.576 20.9998 11.632 20.8531 11.744C20.7065 11.8533 20.5985 12.004 20.5291 12.196C20.4598 12.3853 20.4251 12.6 20.4251 12.84C20.4251 13.216 20.5078 13.5213 20.6731 13.756C20.8411 13.988 21.0891 14.104 21.4171 14.104C21.6625 14.104 21.8491 14.048 21.9771 13.936C22.1051 13.824 22.2011 13.664 22.2651 13.456L23.3771 13.688C23.2545 14.1467 23.0225 14.5 22.6811 14.748C22.3398 14.996 21.9185 15.12 21.4171 15.12ZM26.7692 15C26.4705 15.056 26.1772 15.08 25.8892 15.072C25.6039 15.0667 25.3479 15.0173 25.1212 14.924C24.8972 14.828 24.7265 14.6747 24.6092 14.464C24.5025 14.2667 24.4465 14.0667 24.4412 13.864C24.4359 13.6587 24.4332 13.4267 24.4332 13.168V9.48H25.5212V13.104C25.5212 13.272 25.5225 13.424 25.5252 13.56C25.5305 13.6933 25.5585 13.8 25.6092 13.88C25.7052 14.032 25.8585 14.1147 26.0692 14.128C26.2799 14.1413 26.5132 14.1307 26.7692 14.096V15ZM23.6972 11.52V10.68H26.7692V11.52H23.6972ZM27.7319 15V10.68H28.6919V11.736L28.5879 11.6C28.6439 11.4507 28.7185 11.3147 28.8119 11.192C28.9052 11.0693 29.0199 10.968 29.1559 10.888C29.2599 10.824 29.3732 10.7747 29.4959 10.74C29.6185 10.7027 29.7452 10.68 29.8759 10.672C30.0065 10.6613 30.1372 10.664 30.2679 10.68V11.696C30.1479 11.6587 30.0079 11.6467 29.8479 11.66C29.6905 11.6707 29.5479 11.7067 29.4199 11.768C29.2919 11.8267 29.1839 11.9053 29.0959 12.004C29.0079 12.1 28.9412 12.2147 28.8959 12.348C28.8505 12.4787 28.8279 12.6267 28.8279 12.792V15H27.7319ZM32.8946 15.12C32.46 15.12 32.0786 15.0227 31.7506 14.828C31.4226 14.6333 31.1666 14.3653 30.9826 14.024C30.8013 13.68 30.7106 13.2853 30.7106 12.84C30.7106 12.3893 30.804 11.9933 30.9906 11.652C31.1773 11.308 31.4346 11.04 31.7626 10.848C32.0906 10.656 32.468 10.56 32.8946 10.56C33.3293 10.56 33.7106 10.6573 34.0386 10.852C34.3693 11.0467 34.6266 11.316 34.8106 11.66C34.9946 12.0013 35.0866 12.3947 35.0866 12.84C35.0866 13.288 34.9933 13.684 34.8066 14.028C34.6226 14.3693 34.3653 14.6373 34.0346 14.832C33.7066 15.024 33.3266 15.12 32.8946 15.12ZM32.8946 14.104C33.244 14.104 33.504 13.9867 33.6746 13.752C33.848 13.5147 33.9346 13.2107 33.9346 12.84C33.9346 12.456 33.8466 12.1493 33.6706 11.92C33.4973 11.6907 33.2386 11.576 32.8946 11.576C32.6573 11.576 32.4626 11.6293 32.3106 11.736C32.1586 11.8427 32.0453 11.9907 31.9706 12.18C31.8986 12.3693 31.8626 12.5893 31.8626 12.84C31.8626 13.2267 31.9493 13.5347 32.1226 13.764C32.2986 13.9907 32.556 14.104 32.8946 14.104ZM38.9103 15V12.96C38.9103 12.8613 38.9049 12.736 38.8943 12.584C38.8836 12.4293 38.8503 12.2747 38.7943 12.12C38.7383 11.9653 38.6463 11.836 38.5183 11.732C38.3929 11.628 38.2143 11.576 37.9823 11.576C37.8889 11.576 37.7889 11.5907 37.6823 11.62C37.5756 11.6493 37.4756 11.7067 37.3823 11.792C37.2889 11.8747 37.2116 11.9973 37.1503 12.16C37.0916 12.3227 37.0623 12.5387 37.0623 12.808L36.4383 12.512C36.4383 12.1707 36.5076 11.8507 36.6463 11.552C36.7849 11.2533 36.9929 11.012 37.2703 10.828C37.5503 10.644 37.9023 10.552 38.3263 10.552C38.6649 10.552 38.9409 10.6093 39.1543 10.724C39.3676 10.8387 39.5329 10.984 39.6503 11.16C39.7703 11.336 39.8556 11.52 39.9062 11.712C39.9569 11.9013 39.9876 12.0747 39.9983 12.232C40.0089 12.3893 40.0143 12.504 40.0143 12.576V15H38.9103ZM35.9583 15V10.68H36.9263V12.112H37.0623V15H35.9583ZM41.1322 10.08V9.12H42.2202V10.08H41.1322ZM41.1322 15V10.68H42.2202V15H41.1322ZM45.3234 15.12C44.8754 15.12 44.4914 15.02 44.1714 14.82C43.8514 14.62 43.606 14.348 43.4354 14.004C43.2647 13.66 43.1794 13.272 43.1794 12.84C43.1794 12.4027 43.2674 12.012 43.4434 11.668C43.622 11.324 43.8727 11.0533 44.1954 10.856C44.518 10.6587 44.8994 10.56 45.3394 10.56C45.8487 10.56 46.2754 10.6893 46.6194 10.948C46.966 11.204 47.1874 11.5547 47.2834 12L46.1954 12.288C46.1314 12.064 46.0194 11.8893 45.8594 11.764C45.702 11.6387 45.5234 11.576 45.3234 11.576C45.094 11.576 44.906 11.632 44.7594 11.744C44.6127 11.8533 44.5047 12.004 44.4354 12.196C44.366 12.3853 44.3314 12.6 44.3314 12.84C44.3314 13.216 44.414 13.5213 44.5794 13.756C44.7474 13.988 44.9954 14.104 45.3234 14.104C45.5687 14.104 45.7554 14.048 45.8834 13.936C46.0114 13.824 46.1074 13.664 46.1714 13.456L47.2834 13.688C47.1607 14.1467 46.9287 14.5 46.5874 14.748C46.246 14.996 45.8247 15.12 45.3234 15.12ZM7.56 25V19.24H11.08V20.328H8.648V21.576H10.6V22.664H8.648V25H7.56ZM13.4102 25.128C13.0715 25.128 12.7955 25.0707 12.5822 24.956C12.3689 24.8413 12.2022 24.696 12.0822 24.52C11.9649 24.344 11.8809 24.1613 11.8302 23.972C11.7795 23.78 11.7489 23.6053 11.7382 23.448C11.7275 23.2907 11.7222 23.176 11.7222 23.104V20.68H12.8262V22.72C12.8262 22.8187 12.8315 22.9453 12.8422 23.1C12.8529 23.252 12.8862 23.4053 12.9422 23.56C12.9982 23.7147 13.0889 23.844 13.2142 23.948C13.3422 24.052 13.5222 24.104 13.7542 24.104C13.8475 24.104 13.9475 24.0893 14.0542 24.06C14.1609 24.0307 14.2609 23.9747 14.3542 23.892C14.4475 23.8067 14.5235 23.6827 14.5822 23.52C14.6435 23.3547 14.6742 23.1387 14.6742 22.872L15.2982 23.168C15.2982 23.5093 15.2289 23.8293 15.0902 24.128C14.9515 24.4267 14.7422 24.668 14.4622 24.852C14.1849 25.036 13.8342 25.128 13.4102 25.128ZM14.8102 25V23.568H14.6742V20.68H15.7702V25H14.8102ZM19.8321 25V22.96C19.8321 22.8613 19.8268 22.736 19.8161 22.584C19.8055 22.4293 19.7721 22.2747 19.7161 22.12C19.6601 21.9653 19.5681 21.836 19.4401 21.732C19.3148 21.628 19.1361 21.576 18.9041 21.576C18.8108 21.576 18.7108 21.5907 18.6041 21.62C18.4975 21.6493 18.3975 21.7067 18.3041 21.792C18.2108 21.8747 18.1335 21.9973 18.0721 22.16C18.0135 22.3227 17.9841 22.5387 17.9841 22.808L17.3601 22.512C17.3601 22.1707 17.4295 21.8507 17.5681 21.552C17.7068 21.2533 17.9148 21.012 18.1921 20.828C18.4721 20.644 18.8241 20.552 19.2481 20.552C19.5868 20.552 19.8628 20.6093 20.0761 20.724C20.2895 20.8387 20.4548 20.984 20.5721 21.16C20.6921 21.336 20.7775 21.52 20.8281 21.712C20.8788 21.9013 20.9095 22.0747 20.9201 22.232C20.9308 22.3893 20.9361 22.504 20.9361 22.576V25H19.8321ZM16.8801 25V20.68H17.8481V22.112H17.9841V25H16.8801ZM23.6479 25.12C23.2506 25.12 22.9026 25.02 22.6039 24.82C22.3053 24.62 22.0719 24.348 21.9039 24.004C21.7386 23.66 21.6559 23.272 21.6559 22.84C21.6559 22.4 21.7399 22.0093 21.9079 21.668C22.0786 21.324 22.3173 21.0533 22.6239 20.856C22.9306 20.6587 23.2906 20.56 23.7039 20.56C24.1146 20.56 24.4599 20.66 24.7399 20.86C25.0199 21.06 25.2319 21.332 25.3759 21.676C25.5199 22.02 25.5919 22.408 25.5919 22.84C25.5919 23.272 25.5186 23.66 25.3719 24.004C25.2279 24.348 25.0119 24.62 24.7239 24.82C24.4359 25.02 24.0773 25.12 23.6479 25.12ZM23.8239 24.152C24.0666 24.152 24.2599 24.0973 24.4039 23.988C24.5506 23.8787 24.6559 23.7253 24.7199 23.528C24.7839 23.3307 24.8159 23.1013 24.8159 22.84C24.8159 22.5787 24.7839 22.3493 24.7199 22.152C24.6559 21.9547 24.5533 21.8013 24.4119 21.692C24.2733 21.5827 24.0906 21.528 23.8639 21.528C23.6213 21.528 23.4213 21.588 23.2639 21.708C23.1093 21.8253 22.9946 21.984 22.9199 22.184C22.8453 22.3813 22.8079 22.6 22.8079 22.84C22.8079 23.0827 22.8439 23.304 22.9159 23.504C22.9879 23.7013 23.0986 23.8587 23.2479 23.976C23.3973 24.0933 23.5893 24.152 23.8239 24.152ZM24.8159 25V22.04H24.6799V19.24H25.7759V25H24.8159ZM28.5839 25.12C28.0399 25.12 27.5999 24.9973 27.2639 24.752C26.9306 24.504 26.7279 24.1547 26.6559 23.704L27.7679 23.536C27.8133 23.7387 27.9133 23.8973 28.0679 24.012C28.2253 24.1267 28.4239 24.184 28.6639 24.184C28.8613 24.184 29.0133 24.1467 29.1199 24.072C29.2266 23.9947 29.2799 23.888 29.2799 23.752C29.2799 23.6667 29.2586 23.5987 29.2159 23.548C29.1733 23.4947 29.0773 23.4427 28.9279 23.392C28.7813 23.3413 28.5519 23.2747 28.2399 23.192C27.8879 23.1013 27.6066 23 27.3959 22.888C27.1853 22.776 27.0333 22.6427 26.9399 22.488C26.8466 22.3307 26.7999 22.1413 26.7999 21.92C26.7999 21.6427 26.8706 21.4027 27.0119 21.2C27.1533 20.9947 27.3519 20.8373 27.6079 20.728C27.8666 20.616 28.1706 20.56 28.5199 20.56C28.8586 20.56 29.1586 20.612 29.4199 20.716C29.6813 20.82 29.8919 20.968 30.0519 21.16C30.2146 21.352 30.3146 21.5787 30.3519 21.84L29.2399 22.04C29.2213 21.88 29.1519 21.7533 29.0319 21.66C28.9119 21.5667 28.7493 21.512 28.5439 21.496C28.3439 21.4827 28.1826 21.5093 28.0599 21.576C27.9399 21.6427 27.8799 21.7387 27.8799 21.864C27.8799 21.9387 27.9053 22.0013 27.9559 22.052C28.0093 22.1027 28.1173 22.1547 28.2799 22.208C28.4453 22.2613 28.6959 22.3307 29.0319 22.416C29.3599 22.5013 29.6226 22.6013 29.8199 22.716C30.0199 22.828 30.1653 22.964 30.2559 23.124C30.3466 23.2813 30.3919 23.472 30.3919 23.696C30.3919 24.1387 30.2319 24.4867 29.9119 24.74C29.5919 24.9933 29.1493 25.12 28.5839 25.12ZM8.896 35V30.256H7.08V29.24H11.8V30.256H9.984V35H8.896ZM12.0444 35V30.68H13.0044V31.736L12.9004 31.6C12.9564 31.4507 13.031 31.3147 13.1244 31.192C13.2177 31.0693 13.3324 30.968 13.4684 30.888C13.5724 30.824 13.6857 30.7747 13.8084 30.74C13.931 30.7027 14.0577 30.68 14.1884 30.672C14.319 30.6613 14.4497 30.664 14.5804 30.68V31.696C14.4604 31.6587 14.3204 31.6467 14.1604 31.66C14.003 31.6707 13.8604 31.7067 13.7324 31.768C13.6044 31.8267 13.4964 31.9053 13.4084 32.004C13.3204 32.1 13.2537 32.2147 13.2084 32.348C13.163 32.4787 13.1404 32.6267 13.1404 32.792V35H12.0444ZM16.4553 35.12C16.146 35.12 15.8833 35.0613 15.6673 34.944C15.454 34.824 15.2913 34.6653 15.1793 34.468C15.07 34.268 15.0153 34.048 15.0153 33.808C15.0153 33.608 15.046 33.4253 15.1073 33.26C15.1686 33.0947 15.2673 32.9493 15.4033 32.824C15.542 32.696 15.7273 32.5893 15.9593 32.504C16.1193 32.4453 16.31 32.3933 16.5313 32.348C16.7526 32.3027 17.0033 32.26 17.2833 32.22C17.5633 32.1773 17.8713 32.1307 18.2073 32.08L17.8153 32.296C17.8153 32.04 17.754 31.852 17.6313 31.732C17.5086 31.612 17.3033 31.552 17.0153 31.552C16.8553 31.552 16.6886 31.5907 16.5153 31.668C16.342 31.7453 16.2206 31.8827 16.1513 32.08L15.1673 31.768C15.2766 31.4107 15.482 31.12 15.7833 30.896C16.0846 30.672 16.4953 30.56 17.0153 30.56C17.3966 30.56 17.7353 30.6187 18.0313 30.736C18.3273 30.8533 18.5513 31.056 18.7033 31.344C18.7886 31.504 18.8393 31.664 18.8553 31.824C18.8713 31.984 18.8793 32.1627 18.8793 32.36V35H17.9273V34.112L18.0633 34.296C17.8526 34.5867 17.6246 34.7973 17.3793 34.928C17.1366 35.056 16.8286 35.12 16.4553 35.12ZM16.6873 34.264C16.8873 34.264 17.0553 34.2293 17.1913 34.16C17.33 34.088 17.4393 34.0067 17.5193 33.916C17.602 33.8253 17.658 33.7493 17.6873 33.688C17.7433 33.5707 17.7753 33.4347 17.7833 33.28C17.794 33.1227 17.7993 32.992 17.7993 32.888L18.1193 32.968C17.7966 33.0213 17.5353 33.0667 17.3353 33.104C17.1353 33.1387 16.974 33.1707 16.8513 33.2C16.7286 33.2293 16.6206 33.2613 16.5273 33.296C16.4206 33.3387 16.334 33.3853 16.2673 33.436C16.2033 33.484 16.1553 33.5373 16.1233 33.596C16.094 33.6547 16.0793 33.72 16.0793 33.792C16.0793 33.8907 16.1033 33.976 16.1513 34.048C16.202 34.1173 16.2726 34.1707 16.3633 34.208C16.454 34.2453 16.562 34.264 16.6873 34.264ZM22.8634 35V32.96C22.8634 32.8613 22.858 32.736 22.8474 32.584C22.8367 32.4293 22.8034 32.2747 22.7474 32.12C22.6914 31.9653 22.5994 31.836 22.4714 31.732C22.346 31.628 22.1674 31.576 21.9354 31.576C21.842 31.576 21.742 31.5907 21.6354 31.62C21.5287 31.6493 21.4287 31.7067 21.3354 31.792C21.242 31.8747 21.1647 31.9973 21.1034 32.16C21.0447 32.3227 21.0154 32.5387 21.0154 32.808L20.3914 32.512C20.3914 32.1707 20.4607 31.8507 20.5994 31.552C20.738 31.2533 20.946 31.012 21.2234 30.828C21.5034 30.644 21.8554 30.552 22.2794 30.552C22.618 30.552 22.894 30.6093 23.1074 30.724C23.3207 30.8387 23.486 30.984 23.6034 31.16C23.7234 31.336 23.8087 31.52 23.8594 31.712C23.91 31.9013 23.9407 32.0747 23.9514 32.232C23.962 32.3893 23.9674 32.504 23.9674 32.576V35H22.8634ZM19.9114 35V30.68H20.8794V32.112H21.0154V35H19.9114ZM26.6933 35.12C26.1493 35.12 25.7093 34.9973 25.3733 34.752C25.04 34.504 24.8373 34.1547 24.7653 33.704L25.8773 33.536C25.9226 33.7387 26.0226 33.8973 26.1773 34.012C26.3346 34.1267 26.5333 34.184 26.7733 34.184C26.9706 34.184 27.1226 34.1467 27.2293 34.072C27.336 33.9947 27.3893 33.888 27.3893 33.752C27.3893 33.6667 27.368 33.5987 27.3253 33.548C27.2826 33.4947 27.1866 33.4427 27.0373 33.392C26.8906 33.3413 26.6613 33.2747 26.3493 33.192C25.9973 33.1013 25.716 33 25.5053 32.888C25.2946 32.776 25.1426 32.6427 25.0493 32.488C24.956 32.3307 24.9093 32.1413 24.9093 31.92C24.9093 31.6427 24.98 31.4027 25.1213 31.2C25.2626 30.9947 25.4613 30.8373 25.7173 30.728C25.976 30.616 26.28 30.56 26.6293 30.56C26.968 30.56 27.268 30.612 27.5293 30.716C27.7906 30.82 28.0013 30.968 28.1613 31.16C28.324 31.352 28.424 31.5787 28.4613 31.84L27.3493 32.04C27.3306 31.88 27.2613 31.7533 27.1413 31.66C27.0213 31.5667 26.8586 31.512 26.6533 31.496C26.4533 31.4827 26.292 31.5093 26.1693 31.576C26.0493 31.6427 25.9893 31.7387 25.9893 31.864C25.9893 31.9387 26.0146 32.0013 26.0653 32.052C26.1186 32.1027 26.2266 32.1547 26.3893 32.208C26.5546 32.2613 26.8053 32.3307 27.1413 32.416C27.4693 32.5013 27.732 32.6013 27.9293 32.716C28.1293 32.828 28.2746 32.964 28.3653 33.124C28.456 33.2813 28.5013 33.472 28.5013 33.696C28.5013 34.1387 28.3413 34.4867 28.0213 34.74C27.7013 34.9933 27.2586 35.12 26.6933 35.12ZM29.7403 35V30.696C29.7403 30.5867 29.743 30.4627 29.7483 30.324C29.7536 30.1853 29.775 30.0453 29.8123 29.904C29.8523 29.7627 29.9243 29.6347 30.0283 29.52C30.1616 29.3707 30.3056 29.2693 30.4603 29.216C30.6176 29.16 30.7696 29.1307 30.9163 29.128C31.063 29.1227 31.1883 29.12 31.2923 29.12H31.8283V30H31.3323C31.1616 30 31.035 30.044 30.9523 30.132C30.8696 30.2173 30.8283 30.32 30.8283 30.44V35H29.7403ZM29.0603 31.52V30.68H31.8283V31.52H29.0603ZM34.318 35.12C33.8753 35.12 33.4847 35.0253 33.146 34.836C32.81 34.644 32.546 34.3813 32.354 34.048C32.1647 33.712 32.07 33.328 32.07 32.896C32.07 32.424 32.1633 32.0133 32.35 31.664C32.5367 31.3147 32.794 31.044 33.122 30.852C33.45 30.6573 33.8273 30.56 34.254 30.56C34.7073 30.56 35.0927 30.6667 35.41 30.88C35.7273 31.0933 35.962 31.3933 36.114 31.78C36.266 32.1667 36.3193 32.6213 36.274 33.144H35.198V32.744C35.198 32.304 35.1273 31.988 34.986 31.796C34.8473 31.6013 34.6193 31.504 34.302 31.504C33.9313 31.504 33.658 31.6173 33.482 31.844C33.3087 32.068 33.222 32.4 33.222 32.84C33.222 33.2427 33.3087 33.5547 33.482 33.776C33.658 33.9947 33.9153 34.104 34.254 34.104C34.4673 34.104 34.65 34.0573 34.802 33.964C34.954 33.8707 35.07 33.736 35.15 33.56L36.238 33.872C36.0753 34.2667 35.818 34.5733 35.466 34.792C35.1167 35.0107 34.734 35.12 34.318 35.12ZM32.886 33.144V32.336H35.75V33.144H32.886ZM37.1772 35V30.68H38.1372V31.736L38.0332 31.6C38.0892 31.4507 38.1639 31.3147 38.2572 31.192C38.3505 31.0693 38.4652 30.968 38.6012 30.888C38.7052 30.824 38.8185 30.7747 38.9412 30.74C39.0639 30.7027 39.1905 30.68 39.3212 30.672C39.4519 30.6613 39.5825 30.664 39.7132 30.68V31.696C39.5932 31.6587 39.4532 31.6467 39.2932 31.66C39.1359 31.6707 38.9932 31.7067 38.8652 31.768C38.7372 31.8267 38.6292 31.9053 38.5412 32.004C38.4532 32.1 38.3865 32.2147 38.3412 32.348C38.2959 32.4787 38.2732 32.6267 38.2732 32.792V35H37.1772ZM44.0836 36.312C43.7743 35.9493 43.509 35.5373 43.2876 35.076C43.069 34.6147 42.9023 34.132 42.7876 33.628C42.6756 33.1213 42.625 32.6187 42.6356 32.12C42.625 31.6213 42.6756 31.1187 42.7876 30.612C42.9023 30.1053 43.069 29.6227 43.2876 29.164C43.509 28.7027 43.7743 28.2907 44.0836 27.928L44.8916 28.52C44.5663 28.912 44.3116 29.304 44.1276 29.696C43.9436 30.0853 43.813 30.4813 43.7356 30.884C43.661 31.284 43.6223 31.696 43.6196 32.12C43.6223 32.544 43.661 32.9573 43.7356 33.36C43.813 33.76 43.9436 34.156 44.1276 34.548C44.3116 34.9373 44.5663 35.328 44.8916 35.72L44.0836 36.312ZM45.7709 35V29.24H49.5309V30.256H46.8589V31.488H49.0509V32.504H46.8589V33.984H49.5309V35H45.7709ZM50.4897 35V29.24H54.0097V30.328H51.5777V31.576H53.5297V32.664H51.5777V35H50.4897ZM56.0679 35V30.256H54.2519V29.24H58.9719V30.256H57.1559V35H56.0679ZM60.1827 36.312L59.3747 35.72C59.7 35.328 59.9547 34.9373 60.1387 34.548C60.3227 34.156 60.452 33.76 60.5267 33.36C60.604 32.9573 60.644 32.544 60.6467 32.12C60.644 31.696 60.604 31.284 60.5267 30.884C60.452 30.4813 60.3227 30.0853 60.1387 29.696C59.9547 29.304 59.7 28.912 59.3747 28.52L60.1827 27.928C60.492 28.2907 60.756 28.7027 60.9747 29.164C61.196 29.6227 61.3627 30.1053 61.4747 30.612C61.5894 31.1187 61.6414 31.6213 61.6307 32.12C61.6414 32.6187 61.5894 33.1213 61.4747 33.628C61.3627 34.132 61.196 34.6147 60.9747 35.076C60.756 35.5373 60.492 35.9493 60.1827 36.312Z" fill="black"/>
</svg>
