<svg width="32" height="32" viewBox="0 0 272 272" fill="none" xmlns="http://www.w3.org/2000/svg">
<path d="M265.125 250.5C264.941 253.042 263.056 255 261 255C258.943 255 257.055 253.043 256.875 250.5C256.687 247.856 258.523 246 261 246C263.476 246 265.312 247.904 265.125 250.5Z" stroke="white" stroke-width="2" stroke-linecap="round" stroke-linejoin="round"/>
<path d="M261 259C256.927 259 253.01 261.023 252.029 264.963C251.899 265.484 252.225 266 252.761 266H269.239C269.775 266 270.1 265.484 269.972 264.963C268.99 260.96 265.074 259 261 259Z" stroke="white" stroke-width="2" stroke-miterlimit="10"/>
<path d="M252.501 251.621C252.354 253.651 250.831 255.25 249.188 255.25C247.546 255.25 246.019 253.652 245.876 251.621C245.726 249.509 247.209 248 249.188 248C251.167 248 252.65 249.548 252.501 251.621Z" stroke="white" stroke-width="2" stroke-linecap="round" stroke-linejoin="round"/>
<path d="M252.876 259.125C251.747 258.608 250.505 258.409 249.188 258.409C245.938 258.409 242.807 260.025 242.022 263.172C241.919 263.588 242.181 264 242.608 264H249.626" stroke="white" stroke-width="2" stroke-miterlimit="10" stroke-linecap="round"/>
</svg>
