<svg width="30" height="22" viewBox="0 0 30 22" fill="none" xmlns="http://www.w3.org/2000/svg">
<path d="M24.1245 5.5C23.9414 8.04187 22.0558 10 19.9995 10C17.9433 10 16.0545 8.0425 15.8745 5.5C15.687 2.85562 17.5226 1 19.9995 1C22.4764 1 24.312 2.90375 24.1245 5.5Z" stroke="white" stroke-width="2" stroke-linecap="round" stroke-linejoin="round"/>
<path d="M19.9998 14C15.9266 14 12.0098 16.0231 11.0285 19.9631C10.8985 20.4844 11.2254 21 11.761 21H28.2391C28.7748 21 29.0998 20.4844 28.9716 19.9631C27.9904 15.96 24.0735 14 19.9998 14Z" stroke="white" stroke-width="2" stroke-miterlimit="10"/>
<path d="M11.5006 6.62125C11.3543 8.65125 9.8306 10.25 8.1881 10.25C6.5456 10.25 5.01935 8.65188 4.8756 6.62125C4.72622 4.50938 6.20935 3 8.1881 3C10.1668 3 11.65 4.54813 11.5006 6.62125Z" stroke="white" stroke-width="2" stroke-linecap="round" stroke-linejoin="round"/>
<path d="M11.8756 14.125C10.7475 13.6082 9.50499 13.4094 8.18811 13.4094C4.93811 13.4094 1.80686 15.025 1.02249 18.1719C0.919361 18.5882 1.18061 19 1.60811 19H8.62561" stroke="white" stroke-width="2" stroke-miterlimit="10" stroke-linecap="round"/>
</svg>
