<svg width="74" height="46" viewBox="0 0 74 46" fill="none" xmlns="http://www.w3.org/2000/svg">
<rect x="1.25" y="1.25" width="43.5" height="43.5" rx="21.75" fill="#0C1C8C"/>
<rect x="1.25" y="1.25" width="43.5" height="43.5" rx="21.75" stroke="white" stroke-width="1.5"/>
<path d="M23 9.74365L23.4594 11.1874H24.9688L23.7875 12.1062L24.2469 13.5499L23 12.6312L21.7531 13.5499L22.2125 12.1062L21.0312 11.1874H22.5406L23 9.74365Z" fill="#FFCE31"/>
<path d="M23 32.0562L23.4594 33.4999H24.9688L23.7875 34.353L24.2469 35.8624L23 34.9437L21.7531 35.8624L22.2125 34.353L21.0312 33.4999H22.5406L23 32.0562Z" fill="#FFCE31"/>
<path d="M28.5117 30.2188L28.9711 31.6625H30.5461L29.2992 32.5812L29.7586 34.025L28.5117 33.1063L27.2648 34.025L27.7898 32.5812L26.543 31.6625H28.0523L28.5117 30.2188Z" fill="#FFCE31"/>
<path d="M32.3184 26.4126L32.7777 27.8563H34.3527L33.1059 28.7751L33.5652 30.2188L32.3184 29.3001L31.0715 30.2188L31.5965 28.7751L30.3496 27.8563H31.859L32.3184 26.4126Z" fill="#FFCE31"/>
<path d="M34.1555 20.8999L34.6148 22.3437H36.1242L34.8773 23.2624L35.3367 24.7062L34.1555 23.7874L32.9086 24.7062L33.368 23.2624L32.1211 22.3437H33.6305L34.1555 20.8999Z" fill="#FFCE31"/>
<path d="M32.3184 15.3218L32.7777 16.8312H34.3527L33.1059 17.6843L33.5652 19.128L32.3184 18.2749L31.0715 19.128L31.5965 17.6843L30.3496 16.8312H31.859L32.3184 15.3218Z" fill="#FFCE31"/>
<path d="M28.5117 11.5156L28.9711 13.025H30.5461L29.2992 13.8781L29.7586 15.3219L28.5117 14.4688L27.2648 15.3219L27.7898 13.8781L26.543 13.025H28.0523L28.5117 11.5156Z" fill="#FFCE31"/>
<path d="M17.4875 30.2188L17.0281 31.6625H15.4531L16.7 32.5812L16.2406 34.025L17.4875 33.1063L18.7344 34.025L18.2094 32.5812L19.4563 31.6625H17.9469L17.4875 30.2188Z" fill="#FFCE31"/>
<path d="M13.6809 26.4126L13.2215 27.8563H11.6465L12.8934 28.7751L12.434 30.2188L13.6809 29.3001L14.9277 30.2188L14.4027 28.7751L15.6496 27.8563H14.1402L13.6809 26.4126Z" fill="#FFCE31"/>
<path d="M11.8438 20.8999L11.3844 22.3437H9.875L11.1219 23.2624L10.6625 24.7062L11.8438 23.7874L13.0906 24.7062L12.6313 23.2624L13.8781 22.3437H12.3688L11.8438 20.8999Z" fill="#FFCE31"/>
<path d="M13.6809 15.3218L13.2215 16.8312H11.6465L12.8934 17.6843L12.434 19.128L13.6809 18.2749L14.9277 19.128L14.4027 17.6843L15.6496 16.8312H14.1402L13.6809 15.3218Z" fill="#FFCE31"/>
<path d="M17.4875 11.5156L17.0281 13.025H15.4531L16.7 13.8781L16.2406 15.3219L17.4875 14.4688L18.7344 15.3219L18.2094 13.8781L19.4563 13.025H17.9469L17.4875 11.5156Z" fill="#FFCE31"/>
<rect x="29.25" y="1.25" width="43.5" height="43.5" rx="21.75" stroke="white" stroke-width="1.5"/>
<g clip-path="url(#clip0_756_1561)">
<path d="M51 44C62.598 44 72 34.598 72 23C72 11.402 62.598 2 51 2C39.402 2 30 11.402 30 23C30 34.598 39.402 44 51 44Z" fill="#F0F0F0"/>
<path d="M34.3403 10.2129C32.6907 12.3591 31.4469 14.8327 30.7227 17.52H41.6474L34.3403 10.2129Z" fill="#0052B4"/>
<path d="M71.2762 17.5202C70.5519 14.833 69.308 12.3593 67.6585 10.2131L60.3516 17.5202H71.2762Z" fill="#0052B4"/>
<path d="M30.7227 28.478C31.447 31.1652 32.6908 33.6389 34.3403 35.785L41.6472 28.478H30.7227Z" fill="#0052B4"/>
<path d="M63.7836 6.33967C61.6374 4.6901 59.1638 3.44626 56.4766 2.72192V13.6466L63.7836 6.33967Z" fill="#0052B4"/>
<path d="M38.2129 39.656C40.3591 41.3055 42.8327 42.5494 45.5199 43.2737V32.3491L38.2129 39.656Z" fill="#0052B4"/>
<path d="M45.5198 2.72192C42.8326 3.44626 40.359 4.6901 38.2129 6.33958L45.5198 13.6465V2.72192Z" fill="#0052B4"/>
<path d="M56.4766 43.2737C59.1637 42.5494 61.6374 41.3055 63.7835 39.6561L56.4766 32.3491V43.2737Z" fill="#0052B4"/>
<path d="M60.3516 28.478L67.6585 35.785C69.308 33.6389 70.5519 31.1652 71.2762 28.478H60.3516Z" fill="#0052B4"/>
<path d="M71.8222 20.2609H53.7393H53.7392V2.17776C52.8425 2.06103 51.9283 2 51 2C50.0715 2 49.1575 2.06103 48.2609 2.17776V20.2607V20.2608H30.1778C30.061 21.1575 30 22.0717 30 23C30 23.9285 30.061 24.8425 30.1778 25.7391H48.2607H48.2608V43.8222C49.1575 43.939 50.0715 44 51 44C51.9283 44 52.8425 43.9391 53.7391 43.8222V25.7393V25.7392H71.8222C71.939 24.8425 72 23.9285 72 23C72 22.0717 71.939 21.1575 71.8222 20.2609Z" fill="#D80027"/>
<path d="M56.4785 28.4796L65.8494 37.8505C66.2804 37.4197 66.6916 36.9692 67.0838 36.5023L59.061 28.4795H56.4785V28.4796Z" fill="#D80027"/>
<path d="M45.5214 28.4795H45.5212L36.1504 37.8503C36.5812 38.2813 37.0317 38.6925 37.4986 39.0847L45.5214 31.0618V28.4795Z" fill="#D80027"/>
<path d="M45.5213 17.5211V17.5209L36.1504 8.1499C35.7194 8.58073 35.3083 9.03116 34.916 9.49809L42.9389 17.521H45.5213V17.5211Z" fill="#D80027"/>
<path d="M56.4785 17.5229L65.8495 8.15181C65.4187 7.72081 64.9683 7.30967 64.5013 6.91748L56.4785 14.9404V17.5229V17.5229Z" fill="#D80027"/>
</g>
<defs>
<clipPath id="clip0_756_1561">
<rect width="42" height="42" fill="white" transform="translate(30 2)"/>
</clipPath>
</defs>
</svg>
