<svg width="145" height="32" viewBox="0 0 145 32" fill="none" xmlns="http://www.w3.org/2000/svg">
<path fill-rule="evenodd" clip-rule="evenodd" d="M8.21159 8.38392C8.52946 8.03901 8.5559 7.50838 8.5559 7.19V3.66133V3.66128C8.5559 2.67965 8.5559 2.09598 8.60886 1.698C8.63538 1.48576 8.74131 1.22044 8.79436 1.08779C8.8208 1.03472 8.79436 1.03472 8.76784 1.06125L1.03307 8.94106C1.00658 8.96763 1.00658 8.99411 1.05956 8.96763L1.06012 8.9674C1.19275 8.91428 1.45719 8.80836 1.6688 8.78191C2.06613 8.72886 2.64889 8.72886 3.62898 8.72886H7.01956C7.33743 8.72886 7.86721 8.7023 8.21159 8.38392ZM14.1981 29.1845C14.3835 29.6621 14.8602 30.4315 15.7609 31.0152C16.4761 31.5193 17.5622 31.9969 19.0191 31.9969C19.0191 31.9969 25.8002 32.3948 26.9392 24.2232C27.0187 24.2232 27.9988 15.8392 26.383 7.19C25.7544 3.87275 22.699 3.38407 21.0625 3.12232C20.9058 3.09727 20.7621 3.07429 20.6349 3.05111C19.0985 2.7858 16.0523 2.25516 16.0523 2.25516C16.0523 2.25516 15.7079 0.610222 14.0921 0.212251C14.0358 0.198153 13.9837 0.184886 13.9348 0.172452C13.7077 0.114691 13.5513 0.0748951 13.3769 0.0530627C13.0856 0.0265313 12.7677 0 12.5028 0H11.867C10.569 0 9.69492 0.822474 9.56247 1.80414V1.96333V7.40226C9.56247 8.11859 9.45654 8.72886 9.00622 9.15334C8.66191 9.47172 8.1321 9.71049 7.20499 9.71049H1.96018H1.80124C0.794671 9.84315 0 10.7187 0 12.0188C0.00126108 12.0339 0.00252216 12.0491 0.00378896 12.0644C0.029131 12.3701 0.0567608 12.7035 0.132444 13.133C0.280108 14.1261 0.511766 15.1696 0.680262 15.9286C0.723349 16.1227 0.762305 16.2981 0.794671 16.4494C1.48338 19.5005 2.80783 20.5883 2.80783 20.5883C4.76801 22.6047 7.60232 23.4538 10.2777 23.2945C10.3572 23.2945 10.6221 23.268 10.8605 23.215C11.0989 23.1619 11.3108 23.0823 11.4697 23.0027C13.112 21.9945 13.9332 18.2802 13.9332 18.2802C14.1186 20.7476 16.8999 21.6231 18.0125 21.7558C18.0389 21.7558 18.4098 21.8088 18.8071 21.8884C18.8385 21.8963 18.8701 21.9041 18.9018 21.912C19.1917 21.9839 19.4903 22.058 19.6813 22.1537C21.1117 22.7904 22.1977 24.2232 22.1977 25.8416C22.1977 27.6457 20.7408 29.1049 18.9396 29.1049C18.2509 29.1049 17.6151 28.8396 17.1383 28.362C16.8735 28.0967 16.7145 27.7253 16.7145 27.3274C16.7145 26.9558 16.9264 26.611 17.1913 26.3987C17.3955 26.217 17.7941 26.1519 17.9874 26.1203C18.0198 26.115 18.0465 26.1107 18.0655 26.1069C18.1979 26.0803 18.3833 26.0273 18.5158 25.9477C18.8866 25.7355 19.125 25.364 19.125 24.913C19.125 24.2497 18.5952 23.7191 17.933 23.7191C15.7079 23.7191 13.9067 25.5232 13.9067 27.7253C13.9067 28.2294 14.0126 28.7335 14.1981 29.1845ZM19.9733 14.5658C20.2381 13.9026 20.9798 13.5576 21.854 13.6373C22.7281 13.7434 23.3638 14.2475 23.4698 14.9904C23.4698 15.0236 23.4714 15.0584 23.4731 15.0932C23.4781 15.1977 23.483 15.3021 23.4433 15.3618C23.3903 15.4414 23.3373 15.4679 23.2843 15.4679C22.94 15.521 22.4102 15.4679 21.642 15.3883C20.8738 15.3088 20.3441 15.2292 20.0262 15.0699C19.9733 15.0434 19.9202 15.0169 19.8938 14.9373C19.8673 14.8577 19.9202 14.6985 19.9733 14.5658ZM35.9983 22.3928L35.0977 22.5785L35.1241 23.3215H49.9844L50.3553 17.0866H49.5077C48.8189 18.7581 48.3156 19.8724 47.8388 20.5887C46.9647 21.8887 46.5408 22.1541 44.4218 22.1541C41.8523 22.1541 41.7729 21.8887 41.7729 19.5275V14.4334H42.4881C44.4218 14.4334 44.7661 14.5661 45.084 15.2294C45.4548 15.9988 45.6667 16.5294 45.9052 17.3519H46.6998V10.5068H45.9052C45.6667 11.3558 45.4548 11.8599 45.084 12.5232C44.7661 13.1069 44.3423 13.3191 42.4881 13.3191H41.7729V6.55363C42.1702 6.4475 42.8324 6.28831 44.1834 6.28831C46.0111 6.28831 46.5674 6.39444 47.415 7.61488C47.8123 8.19857 48.2362 8.96798 48.8984 10.4272H49.7195L49.4546 5.14746H35.0977V5.89034L35.9983 6.07606C36.7665 6.26178 37.0049 6.39444 37.0049 7.98632V20.4826C37.0049 22.0744 36.7929 22.1806 35.9983 22.3928ZM51.0189 10.5599C51.6811 10.7722 51.9725 11.1436 52.5817 12.6294L56.8995 23.3216H59.1245L63.1773 12.9212C63.813 11.1967 64.1044 10.7987 64.7932 10.5599L65.2964 10.4008V9.71094H60.4489V10.4008L61.1641 10.5865C61.7204 10.7191 61.9853 11.011 61.9853 11.5947C61.9853 11.9661 61.8794 12.4171 61.6409 13.0539L59.5218 19.103H59.3894L57.1908 13.0539C56.9789 12.4702 56.8464 12.0192 56.8464 11.6477C56.8464 11.011 57.1113 10.7457 57.6676 10.5865L58.3828 10.4008V9.71094H50.5156V10.4008L51.0189 10.5599ZM71.5217 9.36572C68.0516 9.36572 64.6875 11.8862 64.6875 16.4496C64.6875 20.9069 66.9391 23.6131 71.4951 23.6661C74.1176 23.6661 76.1043 22.2865 77.0314 21.2783V20.4028C76.0512 20.9069 74.8063 21.3844 73.1905 21.3844C70.4886 21.3844 68.8728 20.2171 68.7933 15.919H77.4552C77.3757 11.1699 75.1242 9.36572 71.5217 9.36572ZM73.2696 14.6722L68.793 14.9111C68.899 11.6212 69.9585 10.3477 71.283 10.3477C72.8458 10.3477 73.2696 11.515 73.2696 14.6722ZM88.3392 9.28613C86.5908 9.28613 85.081 10.5862 84.3393 11.3821L84.2598 11.3556L84.3129 9.55145L84.0214 9.33919L78.5117 9.97595V10.5066L79.3859 11.0903L79.4064 11.1042C80.13 11.5959 80.26 11.6843 80.26 12.7883V20.9334C80.26 22.0477 80.154 22.1804 79.2799 22.4192L78.5912 22.6049V23.3213H86.1406V22.6049L85.2664 22.4192C84.4718 22.2865 84.3658 22.1538 84.3658 20.9334V12.4434C84.7101 12.125 85.2664 11.7801 85.7432 11.7801C85.9816 11.7801 86.326 11.8597 86.4849 12.1515C86.7763 12.8679 87.518 13.372 88.3392 13.372C89.4782 13.372 90.3787 12.4699 90.3787 11.329C90.3787 10.1882 89.4517 9.28613 88.3392 9.28613ZM91.8619 22.4193L91.1732 22.605H91.2262V23.3214H98.5107V22.605L97.8749 22.4459C97.0802 22.2336 97.0008 22.1806 97.0008 20.9335V12.1252L97.0104 12.123C97.5936 11.9902 98.5157 11.7802 99.4378 11.7802C100.656 11.7802 101.239 12.2843 101.239 13.8762V20.907C101.239 22.1275 101.16 22.2071 100.365 22.4193L99.7291 22.5785V23.2949H107.014V22.5785L106.325 22.3928C105.477 22.1806 105.371 22.0479 105.371 20.907V12.8415C105.371 10.4802 104.179 9.33936 101.954 9.33936C100.047 9.33936 98.3253 10.2149 96.9478 11.1966H96.8418L96.8948 9.52508L96.6035 9.33936L91.0938 9.97611V10.5067L91.9679 11.0904L91.9882 11.1042C92.7121 11.5961 92.842 11.6844 92.842 12.7884V20.9335C92.842 22.0479 92.7361 22.1806 91.8619 22.4193ZM114.592 9.36572C111.069 9.36572 107.52 11.5148 107.52 16.5292C107.52 21.3314 110.804 23.6131 114.592 23.6131C118.195 23.6131 121.691 21.411 121.691 16.3965C121.691 11.6474 118.38 9.36572 114.592 9.36572ZM114.486 10.374C116.287 10.374 117.294 11.3822 117.294 16.662C117.294 21.6764 116.208 22.605 114.645 22.605C112.737 22.605 111.863 21.4376 111.863 16.0783C111.863 11.5679 112.843 10.374 114.486 10.374ZM123.943 11.2495V20.0048C123.943 22.5783 125.214 23.6131 127.572 23.6131C129.77 23.6131 131.068 22.6579 131.704 22.0742V21.3314C131.228 21.4376 130.459 21.5701 129.823 21.5701C128.525 21.5701 128.128 21.0396 128.128 19.7395V11.2495H131.254L131.598 9.71064H128.128V6.2085H126.645C125.903 8.30448 124.34 9.81677 122.301 10.6127V11.2495H123.943ZM139.065 9.36572C135.595 9.36572 132.23 11.8862 132.23 16.4496C132.23 20.9069 134.482 23.6131 139.065 23.6661C141.688 23.6661 143.674 22.2865 144.601 21.2783V20.4028C143.621 20.9069 142.376 21.3844 140.76 21.3844C138.058 21.3844 136.442 20.2171 136.363 15.919H144.999C144.919 11.1699 142.667 9.36572 139.065 9.36572ZM140.817 14.6722L136.34 14.9111C136.446 11.6212 137.506 10.3477 138.83 10.3477C140.393 10.3477 140.817 11.515 140.817 14.6722Z" fill="#787878"/>
</svg>
