<svg width="50" height="38" viewBox="0 0 50 38" fill="none" xmlns="http://www.w3.org/2000/svg">
<path d="M2.83123 20.6494C2.51613 20.1505 2.35858 19.901 2.27039 19.5162C2.20414 19.2272 2.20414 18.7714 2.27039 18.4824C2.35858 18.0976 2.51613 17.8481 2.83123 17.3492C5.43511 13.2262 13.1858 2.80322 24.9974 2.80322C36.8089 2.80322 44.5596 13.2262 47.1635 17.3492C47.4786 17.8481 47.6362 18.0976 47.7244 18.4824C47.7906 18.7714 47.7906 19.2272 47.7244 19.5162C47.6362 19.901 47.4786 20.1505 47.1635 20.6494C44.5596 24.7724 36.809 35.1954 24.9974 35.1954C13.1858 35.1954 5.43511 24.7724 2.83123 20.6494Z" stroke="black" stroke-width="4" stroke-linecap="round" stroke-linejoin="round"/>
<path d="M24.9974 25.9405C28.8309 25.9405 31.9385 22.8328 31.9385 18.9993C31.9385 15.1658 28.8309 12.0581 24.9974 12.0581C21.1639 12.0581 18.0562 15.1658 18.0562 18.9993C18.0562 22.8328 21.1639 25.9405 24.9974 25.9405Z" stroke="black" stroke-width="4" stroke-linecap="round" stroke-linejoin="round"/>
</svg>
