<svg width="54" height="54" viewBox="0 0 54 54" fill="none" xmlns="http://www.w3.org/2000/svg">
<path d="M31.5 5.10645V14.4002C31.5 15.6603 31.5 16.2903 31.7452 16.7716C31.961 17.195 32.3052 17.5392 32.7285 17.7549C33.2098 18.0002 33.8399 18.0002 35.1 18.0002H44.3937M22.1624 27.005C22.5589 25.8781 23.3414 24.9278 24.3713 24.3224C25.4013 23.7171 26.6123 23.4959 27.7897 23.6978C28.9672 23.8998 30.0352 24.512 30.8046 25.4259C31.5739 26.3399 31.995 27.4966 31.9932 28.6913C31.9932 32.0638 26.9345 33.75 26.9345 33.75M27 40.5H27.0225M31.5 4.5H19.8C16.0196 4.5 14.1295 4.5 12.6856 5.23571C11.4155 5.88285 10.3829 6.91547 9.73571 8.18556C9 9.62947 9 11.5196 9 15.3V38.7C9 42.4804 9 44.3705 9.73571 45.8144C10.3829 47.0845 11.4155 48.1171 12.6856 48.7643C14.1295 49.5 16.0196 49.5 19.8 49.5H34.2C37.9804 49.5 39.8705 49.5 41.3144 48.7643C42.5845 48.1171 43.6171 47.0845 44.2643 45.8144C45 44.3705 45 42.4804 45 38.7V18L31.5 4.5Z" stroke="black" stroke-width="2" stroke-linecap="round" stroke-linejoin="round"/>
</svg>
