<svg width="35" height="35" viewBox="0 0 35 35" fill="none" xmlns="http://www.w3.org/2000/svg">
<path d="M29.0207 17.9736V9.89863C29.0207 7.51841 29.0207 6.3283 28.5574 5.41917C28.15 4.61948 27.4998 3.96932 26.7001 3.56186C25.791 3.09863 24.6009 3.09863 22.2207 3.09863H13.154C10.7738 3.09863 9.58367 3.09863 8.67454 3.56186C7.87486 3.96932 7.22469 4.61948 6.81723 5.41917C6.354 6.3283 6.354 7.51841 6.354 9.89863V24.632C6.354 27.0122 6.354 28.2023 6.81723 29.1114C7.22469 29.9111 7.87486 30.5613 8.67454 30.9687C9.58367 31.432 10.7737 31.432 13.1539 31.432H17.6873M21.229 27.182L24.0623 30.0153L30.4373 23.6403" stroke="black" stroke-width="2" stroke-linecap="round" stroke-linejoin="round"/>
</svg>
