<svg width="32" height="32" viewBox="0 0 32 32" fill="none" xmlns="http://www.w3.org/2000/svg">
<path d="M6.62578 31.7001H31.7008V28.0001L28.8258 22.5751L27.1258 23.4751L29.7758 28.4751V29.7751H25.5258L26.5258 17.7751H5.17578L6.62578 31.7001ZM24.4508 19.7001L23.6008 29.7751H8.35078L7.30078 19.7001H24.4508Z" fill="white"/>
<path d="M22.7008 9.50005C22.7008 5.80005 19.7008 2.80005 16.0008 2.80005C12.3008 2.80005 9.30078 5.80005 9.30078 9.50005C9.30078 13.2 12.3008 16.2 16.0008 16.2C19.7008 16.2 22.7008 13.2 22.7008 9.50005ZM11.2008 9.50005C11.2008 6.85005 13.3508 4.70005 16.0008 4.70005C18.6508 4.70005 20.8008 6.85005 20.8008 9.50005C20.8008 12.15 18.6508 14.3 16.0008 14.3C13.3508 14.3 11.2008 12.15 11.2008 9.50005Z" fill="white"/>
<path d="M4.85039 23.5001L3.15039 22.6001L0.275391 28.0001V31.7001H4.50039V29.8001H2.20039V28.5001L4.85039 23.5001Z" fill="white"/>
<path d="M15.75 25.5C16.3023 25.5 16.75 25.0523 16.75 24.5C16.75 23.9477 16.3023 23.5 15.75 23.5C15.1977 23.5 14.75 23.9477 14.75 24.5C14.75 25.0523 15.1977 25.5 15.75 25.5Z" fill="white"/>
</svg>
