<svg width="24" height="24" viewBox="0 0 24 24" fill="none" xmlns="http://www.w3.org/2000/svg">
<rect x="1.25" y="1.25" width="21.5" height="21.5" rx="10.75" stroke="white" stroke-width="1.5"/>
<g clip-path="url(#clip0_1636_19778)">
<path d="M12 22C17.5228 22 22 17.5228 22 12C22 6.47715 17.5228 2 12 2C6.47715 2 2 6.47715 2 12C2 17.5228 6.47715 22 12 22Z" fill="#F0F0F0"/>
<path d="M4.06644 5.91083C3.28094 6.93282 2.68863 8.11075 2.34375 9.3904H7.54601L4.06644 5.91083Z" fill="#0052B4"/>
<path d="M21.6553 9.39054C21.3104 8.11093 20.7181 6.933 19.9326 5.91101L16.4531 9.39054H21.6553Z" fill="#0052B4"/>
<path d="M2.34375 14.6085C2.68867 15.8881 3.28098 17.0661 4.06645 18.088L7.5459 14.6085H2.34375Z" fill="#0052B4"/>
<path d="M18.087 4.06649C17.065 3.28098 15.8871 2.68867 14.6074 2.34375V7.54598L18.087 4.06649Z" fill="#0052B4"/>
<path d="M5.91016 19.9314C6.93215 20.7169 8.11008 21.3092 9.38969 21.6542V16.452L5.91016 19.9314Z" fill="#0052B4"/>
<path d="M9.38965 2.34375C8.11004 2.68867 6.93211 3.28098 5.91016 4.06644L9.38965 7.54593V2.34375Z" fill="#0052B4"/>
<path d="M14.6074 21.6542C15.887 21.3092 17.065 20.7169 18.0869 19.9315L14.6074 16.452V21.6542Z" fill="#0052B4"/>
<path d="M16.4531 14.6085L19.9326 18.088C20.7181 17.0661 21.3104 15.8881 21.6553 14.6085H16.4531Z" fill="#0052B4"/>
<path d="M21.9154 10.6957H13.3044H13.3044V2.08465C12.8774 2.02906 12.4421 2 12 2C11.5579 2 11.1226 2.02906 10.6957 2.08465V10.6956V10.6956H2.08465C2.02906 11.1226 2 11.5579 2 12C2 12.4421 2.02906 12.8774 2.08465 13.3043H10.6956H10.6956V21.9154C11.1226 21.9709 11.5579 22 12 22C12.4421 22 12.8774 21.971 13.3043 21.9154V13.3044V13.3044H21.9154C21.9709 12.8774 22 12.4421 22 12C22 11.5579 21.9709 11.1226 21.9154 10.6957Z" fill="#D80027"/>
<path d="M14.6094 14.6094L19.0717 19.0717C19.277 18.8665 19.4727 18.6521 19.6595 18.4297L15.8391 14.6093H14.6094V14.6094Z" fill="#D80027"/>
<path d="M9.39207 14.6093H9.39199L4.92969 19.0716C5.13484 19.2769 5.34934 19.4726 5.57168 19.6594L9.39207 15.839V14.6093Z" fill="#D80027"/>
<path d="M9.39195 9.39093V9.39085L4.92961 4.92847C4.72438 5.13362 4.52859 5.34812 4.3418 5.57046L8.16223 9.39089H9.39195V9.39093Z" fill="#D80027"/>
<path d="M14.6094 9.39181L19.0718 4.92939C18.8666 4.72415 18.6521 4.52837 18.4298 4.34161L14.6094 8.16204V9.39181V9.39181Z" fill="#D80027"/>
</g>
<defs>
<clipPath id="clip0_1636_19778">
<rect width="20" height="20" fill="white" transform="translate(2 2)"/>
</clipPath>
</defs>
</svg>
