<svg width="100" height="101" viewBox="0 0 100 101" fill="none" xmlns="http://www.w3.org/2000/svg">
<path d="M80 43.1451V24.9369C80 22.8044 77.8504 21.082 75.189 21H58.9134C56.252 21 54.1024 22.7224 54 24.8549V43.0631C54 45.1956 56.1496 46.918 58.811 47H74.9843C77.748 47 80 45.2776 80 43.1451Z" fill="#00F7F7"/>
<path d="M68.9002 37.2001C68.7002 37.3001 68.4002 37.4001 68.1002 37.4001C67.9002 37.4001 67.7002 37.4001 67.4002 37.3001C67.2002 37.2001 67.0002 37.1001 66.8002 37.0001C66.6002 36.8001 66.5002 36.6001 66.4002 36.4001C66.3002 35.9001 65.8002 35.5001 65.3002 35.4001H65.0002C64.9002 35.4001 64.7002 35.4001 64.6002 35.4001C64.0002 35.5001 63.7002 36.1001 63.8002 36.7001C63.8002 36.9001 63.9002 37.1001 64.0002 37.3001C64.2002 37.8001 64.6002 38.2001 65.1002 38.5001C65.5002 38.8001 66.0002 39.0001 66.5002 39.2001C66.8002 39.3001 67.1002 39.3001 67.4002 39.4001V39.5001V40.4001C67.4002 40.8001 67.7002 41.1001 68.1002 41.1001C68.5002 41.1001 68.8002 40.8001 68.8002 40.4001V39.5001V39.4001C69.3002 39.4001 69.8002 39.3001 70.3002 39.1001C71.5002 38.6001 72.3002 37.4001 72.2002 36.1001C72.2002 35.5001 72.0002 34.8001 71.7002 34.3001C71.4002 33.8001 70.9002 33.4001 70.4002 33.1001C69.8002 32.7001 69.1002 32.4001 68.5002 32.2001C68.2002 32.1001 67.8002 31.9001 67.5002 31.7001C67.3002 31.6001 67.1002 31.4001 67.0002 31.2001C66.9002 31.0001 66.9002 30.7001 66.9002 30.5001C66.9002 30.3001 66.9002 30.0001 67.0002 29.8001C67.1002 29.6001 67.2002 29.4001 67.4002 29.3001C67.8002 29.1001 68.3002 29.0001 68.7002 29.2001C68.9002 29.3001 69.0002 29.4001 69.2002 29.6001C69.3002 29.8001 69.5002 29.9001 69.5002 30.1001C69.6002 30.6001 70.0002 30.9001 70.5002 30.9001H71.0002C71.1002 30.9001 71.2002 30.9001 71.4002 30.9001C72.0002 30.8001 72.3002 30.2001 72.2002 29.6001C72.2002 29.5001 72.1002 29.4001 72.1002 29.2001C71.9002 28.7001 71.6002 28.3001 71.3002 28.0001C70.9002 27.7001 70.5002 27.4001 70.0002 27.2001C69.7002 27.1001 69.4002 27.0001 69.1002 27.0001V25.9001C69.1002 25.5001 68.8002 25.2001 68.4002 25.2001C68.0002 25.2001 67.7002 25.5001 67.7002 25.9001V27.0001C67.2002 27.0001 66.7002 27.2001 66.2002 27.4001C65.5002 27.5001 65.0002 28.0001 64.7002 28.5001C64.4002 29.0001 64.2002 29.7001 64.2002 30.3001C64.2002 30.9001 64.3002 31.6001 64.7002 32.1001C65.0002 32.6001 65.5002 33.0001 66.0002 33.3001C66.6002 33.6001 67.3002 33.9001 68.0002 34.2001C68.3002 34.3001 68.6002 34.5001 68.9002 34.7001C69.1002 34.8001 69.3002 35.0001 69.4002 35.3001C69.5002 35.5001 69.6002 35.8001 69.6002 36.1001C69.6002 36.3001 69.5002 36.6001 69.4002 36.8001C69.2002 36.9001 69.1002 37.1001 68.9002 37.2001Z" fill="#0F0C22"/>
<path d="M76.4 78H71.8C72.2 71.7001 73.1 42.4001 60 36.9001C59.9 36.8001 59.7 36.8 59.6 36.8H24.4C20.9 37.3 20.5 40.4001 20.5 42.7001C20.5 43.3001 21 43.8 21.6 43.8H30.3C38.2 53.5 36.2 73.6 35.7 78.1H30.4C29.8 78.1 29.3 78.6 29.3 79.2C29.3 79.8 29.8 80.3001 30.4 80.3001H36.7H70.9H76.6C77.2 80.3001 77.7 79.8 77.7 79.2C77.7 78.6 77 78 76.4 78ZM22.6 41.6C22.8 39.4 23.8 38.9001 25.4 38.9001C26 38.9001 27.4 40.4 28.4 41.6H22.6ZM37.7 78C38.3 72.9001 40.1 53.3 32.1 42.8L31.7 42.3L31.1 41.6L30.9 41.3C30.2 40.4 29.5 39.6001 28.8 38.9001H59.4C71 44.1001 70 72.3 69.7 78H37.7Z" fill="#0F0C22"/>
<path d="M43.7004 50.5001C43.7004 49.9001 43.2004 49.4001 42.6004 49.4001H40.5004C39.9004 49.4001 39.4004 49.9001 39.4004 50.5001C39.4004 51.1001 39.9004 51.6001 40.5004 51.6001H42.6004C43.2004 51.6001 43.7004 51.1001 43.7004 50.5001Z" fill="#0F0C22"/>
<path d="M44.7 66.3H42.6C42 66.3 41.5 66.8 41.5 67.4C41.5 68 42 68.5 42.6 68.5H44.7C45.3 68.5 45.8 68 45.8 67.4C45.8 66.8 45.3 66.3 44.7 66.3Z" fill="#0F0C22"/>
<path d="M44.7 57.9H42.6C42 57.9 41.5 58.4 41.5 59C41.5 59.6 42 60.1 42.6 60.1H44.7C45.3 60.1 45.8 59.6 45.8 59C45.8 58.4 45.3 57.9 44.7 57.9Z" fill="#0F0C22"/>
<path d="M62.7008 50.5001C62.7008 49.9001 62.2008 49.4001 61.6008 49.4001H47.9008C47.3008 49.4001 46.8008 49.9001 46.8008 50.5001C46.8008 51.1001 47.3008 51.6001 47.9008 51.6001H61.6008C62.2008 51.6001 62.7008 51.1001 62.7008 50.5001Z" fill="#0F0C22"/>
<path d="M63.7004 66.3H50.0004C49.4004 66.3 48.9004 66.8 48.9004 67.4C48.9004 68 49.4004 68.5 50.0004 68.5H63.7004C64.3004 68.5 64.8004 68 64.8004 67.4C64.8004 66.8 64.3004 66.3 63.7004 66.3Z" fill="#0F0C22"/>
<path d="M63.7004 57.9001H50.0004C49.4004 57.9001 48.9004 58.4001 48.9004 59.0001C48.9004 59.6001 49.4004 60.1001 50.0004 60.1001H63.7004C64.3004 60.1001 64.8004 59.6001 64.8004 59.0001C64.8004 58.4001 64.3004 57.9001 63.7004 57.9001Z" fill="#0F0C22"/>
</svg>
