<svg width="35" height="35" viewBox="0 0 35 35" fill="none" xmlns="http://www.w3.org/2000/svg">
<path d="M4.9375 4.51514V18.9651C4.9375 21.3454 4.9375 22.5355 5.40072 23.4446C5.80818 24.2443 6.45835 24.8945 7.25804 25.3019C8.16717 25.7651 9.35728 25.7651 11.7375 25.7651H21.9375M21.9375 25.7651C21.9375 28.1123 23.8403 30.0151 26.1875 30.0151C28.5347 30.0151 30.4375 28.1123 30.4375 25.7651C30.4375 23.4179 28.5347 21.5151 26.1875 21.5151C23.8403 21.5151 21.9375 23.4179 21.9375 25.7651ZM4.9375 11.5985L21.9375 11.5985M21.9375 11.5985C21.9375 13.9457 23.8403 15.8485 26.1875 15.8485C28.5347 15.8485 30.4375 13.9457 30.4375 11.5985C30.4375 9.25126 28.5347 7.34847 26.1875 7.34847C23.8403 7.34847 21.9375 9.25126 21.9375 11.5985Z" stroke="black" stroke-width="2" stroke-linecap="round" stroke-linejoin="round"/>
</svg>
