<svg width="34" height="34" viewBox="0 0 34 34" fill="none" xmlns="http://www.w3.org/2000/svg">
<path d="M2.8335 17.0002H31.1668M2.8335 17.0002C2.8335 24.8242 9.17613 31.1668 17.0002 31.1668M2.8335 17.0002C2.8335 9.17613 9.17613 2.8335 17.0002 2.8335M31.1668 17.0002C31.1668 24.8242 24.8242 31.1668 17.0002 31.1668M31.1668 17.0002C31.1668 9.17613 24.8242 2.8335 17.0002 2.8335M17.0002 2.8335C20.5436 6.71283 22.5574 11.7472 22.6668 17.0002C22.5574 22.2531 20.5436 27.2875 17.0002 31.1668M17.0002 2.8335C13.4567 6.71283 11.4429 11.7472 11.3335 17.0002C11.4429 22.2531 13.4567 27.2875 17.0002 31.1668" stroke="black" stroke-width="2" stroke-linecap="round" stroke-linejoin="round"/>
</svg>
