<svg width="109" height="36" viewBox="0 0 109 36" fill="none" xmlns="http://www.w3.org/2000/svg">
<path fill-rule="evenodd" clip-rule="evenodd" d="M14.0388 12.6859H26.7756C26.7756 12.6859 27.002 13.6002 27.002 15.2002C27.002 22.8001 21.5676 27.8858 14.152 27.8858C5.71741 27.8858 0 20.9716 0 13.8859C0 6.62887 6.05705 -0.0567786 13.9256 0.000363663C20.0958 0.000363663 23.4923 3.77175 23.4923 3.77175L20.8883 6.51458C20.8883 6.51458 18.3976 3.77175 14.0954 3.77175C8.5478 3.77175 4.13238 8.22885 4.13238 14.0002C4.13238 19.8859 8.77424 24.1144 14.0954 24.1144C18.2278 24.1144 22.6432 21.7716 23.0961 16.4573H14.0388V12.6859ZM37.1355 9.88574C31.9275 9.88574 28.1914 14 28.1914 18.7999C28.1914 23.7142 31.8143 27.8856 37.2487 27.8856C42.1736 27.8856 46.1361 24.1713 46.1361 18.9142C46.0795 12.9714 41.4377 9.88574 37.1355 9.88574ZM37.1915 13.4858C39.7389 13.4858 42.173 15.6001 42.173 18.9144C42.173 22.2286 39.7955 24.3429 37.1915 24.3429C34.3611 24.3429 32.1534 22.0572 32.1534 18.8572C32.0968 15.7715 34.3045 13.4858 37.1915 13.4858ZM47.6639 18.8002C47.6639 14.0002 51.4 9.88598 56.608 9.88598C60.9102 9.88598 65.552 12.9717 65.6086 18.9145C65.6086 24.1715 61.6461 27.8858 56.7212 27.8858C51.2868 27.8858 47.6639 23.7144 47.6639 18.8002ZM61.6455 18.9146C61.6455 15.6003 59.2114 13.4861 56.664 13.4861C53.777 13.4861 51.5693 15.7718 51.6259 18.8574C51.6259 22.0574 53.8336 24.3431 56.664 24.3431C59.268 24.3431 61.6455 22.2288 61.6455 18.9146ZM75.6845 9.94336C70.8728 9.94336 67.1367 14.1719 67.1367 18.9147C67.1367 24.2861 71.4955 27.9432 75.5713 27.9432C78.1187 27.9432 79.4206 26.9718 80.4962 25.7718V27.5432C80.4962 30.6289 78.6281 32.5146 75.7977 32.5146C73.0806 32.5146 71.722 30.4574 71.2125 29.3146L67.7594 30.7431C68.9482 33.3146 71.3823 36.0002 75.7411 36.0002C80.4962 36.0002 84.1191 32.9717 84.1191 26.6289V10.4576H80.383V12.0005C79.364 10.7434 77.779 9.94336 75.6845 9.94336ZM76.0245 13.4863C78.3454 13.4863 80.7795 15.5434 80.7795 18.972C80.7795 22.5148 78.402 24.4005 75.9679 24.4005C73.4205 24.4005 71.043 22.2862 71.043 19.0291C71.0996 15.4863 73.5337 13.4863 76.0245 13.4863ZM92.5547 18.8571C92.5547 13.4857 96.3474 9.88574 100.876 9.88574C104.386 9.88574 107.046 12.2857 108.235 15.0285L108.858 16.5142L96.9135 21.5428C97.6494 22.9142 98.7816 24.2856 101.272 24.2856C103.48 24.2856 104.839 23.0856 105.631 21.8285L108.745 23.9427C107.386 25.7713 105.008 27.8856 101.272 27.8856C96.8003 27.8856 92.5547 24.5142 92.5547 18.8571ZM104.33 15.3144C103.764 14.2287 102.632 13.3716 100.99 13.3716C98.4431 13.3716 95.9523 16.0573 96.4052 18.6858L104.33 15.3144ZM90.8005 27.3714H86.8945V0.857422H90.8005V27.3714Z" fill="#787878"/>
</svg>
