<svg width="71" height="50" viewBox="0 0 71 50" fill="none" xmlns="http://www.w3.org/2000/svg">
<g clip-path="url(#clip0_768_1049)">
<path d="M65.569 1.46484H5.22414C2.89121 1.46484 1 3.35605 1 5.68898V44.3097C1 46.6426 2.89121 48.5338 5.22414 48.5338H65.569C67.9019 48.5338 69.7931 46.6426 69.7931 44.3097V5.68898C69.7931 3.35605 67.9019 1.46484 65.569 1.46484Z" fill="white" stroke="#F3F3F3" stroke-width="2"/>
<path fill-rule="evenodd" clip-rule="evenodd" d="M34.0892 29.9697V24.5252L37.0345 24.5241C38.2488 24.5249 39.2694 24.1434 40.0961 23.3795C40.9316 22.6545 41.3987 21.6123 41.3749 20.5259C41.3914 19.4455 40.9252 18.411 40.0961 17.6883C39.2766 16.9203 38.1745 16.5013 37.0345 16.5243H32.3066V29.9697H34.0892ZM34.0892 22.8731V18.1797L37.0788 18.1786C37.7452 18.1604 38.3875 18.4203 38.8427 18.892C39.3007 19.3235 39.5591 19.9161 39.5591 20.535C39.5591 21.1539 39.3007 21.7466 38.8427 22.1779C38.3818 22.6398 37.7415 22.8922 37.0788 22.8731H34.0892Z" fill="#5F6368"/>
<path fill-rule="evenodd" clip-rule="evenodd" d="M48.6033 21.4937C47.8407 20.8113 46.8008 20.4702 45.4831 20.4702C43.7905 20.4702 42.5123 21.0709 41.6486 22.2725L43.2188 23.2305C43.799 22.4166 44.587 22.0096 45.5828 22.0096C46.2176 22.0025 46.832 22.2273 47.3034 22.6394C47.7734 23.0159 48.0437 23.5772 48.0398 24.1681V24.5629C47.3547 24.1875 46.483 23.9997 45.4244 23.9997C44.1843 24.0011 43.193 24.2829 42.4504 24.8451C41.7078 25.4071 41.3364 26.1642 41.3364 27.1161C41.3203 27.9829 41.7084 28.8106 42.3928 29.369C43.0969 29.9698 43.972 30.2702 45.0181 30.2702C46.2434 30.2702 47.2251 29.7445 47.9634 28.6932H48.0409V29.9698H49.746V24.3001C49.7467 23.1114 49.3658 22.1759 48.6033 21.4937ZM43.768 28.2802C43.3945 28.0194 43.1743 27.5997 43.1767 27.1536C43.1767 26.6527 43.4192 26.2354 43.9075 25.8921C44.391 25.5538 44.9948 25.3847 45.7189 25.3847C46.7133 25.3847 47.4883 25.5992 48.0441 26.0283C48.0441 26.7536 47.7489 27.3854 47.1584 27.924C46.6265 28.4394 45.9054 28.7295 45.1531 28.7307C44.6516 28.7397 44.1622 28.5807 43.768 28.2802Z" fill="#5F6368"/>
<path fill-rule="evenodd" clip-rule="evenodd" d="M59.535 20.7705L53.5825 34.0249H51.7422L53.9512 29.3871L50.0371 20.7705H51.9748L54.8037 27.3789H54.8425L57.594 20.7705H59.535Z" fill="#5F6368"/>
<path fill-rule="evenodd" clip-rule="evenodd" d="M26.8859 23.3518C26.8867 22.8255 26.8407 22.3 26.7487 21.7812H19.2305V24.7561H23.5366C23.3585 25.7162 22.7833 26.5642 21.9443 27.1034V29.0345H24.5143C26.019 27.6902 26.8859 25.7023 26.8859 23.3518Z" fill="#4285F4"/>
<path fill-rule="evenodd" clip-rule="evenodd" d="M19.2303 30.8997C21.3817 30.8997 23.1932 30.2152 24.5141 29.0352L21.9441 27.1042C21.2289 27.574 20.3077 27.8422 19.2303 27.8422C17.151 27.8422 15.386 26.4841 14.7549 24.6538H12.1074V26.6439C13.4606 29.2529 16.2167 30.8995 19.2303 30.8997Z" fill="#34A853"/>
<path fill-rule="evenodd" clip-rule="evenodd" d="M14.7561 24.6542C14.4224 23.6952 14.4224 22.6566 14.7561 21.6976V19.7075H12.1087C10.9768 21.8897 10.9768 24.4621 12.1087 26.6443L14.7561 24.6542Z" fill="#FBBC04"/>
<path fill-rule="evenodd" clip-rule="evenodd" d="M19.2303 18.5092C20.3672 18.4911 21.4657 18.9074 22.2886 19.6678L24.564 17.4632C23.1211 16.1502 21.2096 15.4293 19.2303 15.4517C16.2167 15.4518 13.4606 17.0985 12.1074 19.7074L14.7549 21.6975C15.386 19.8673 17.151 18.5092 19.2303 18.5092Z" fill="#EA4335"/>
</g>
<defs>
<clipPath id="clip0_768_1049">
<rect width="71" height="49" fill="white" transform="translate(0 0.464844)"/>
</clipPath>
</defs>
</svg>
