<svg width="70" height="46" viewBox="0 0 70 46" fill="none" xmlns="http://www.w3.org/2000/svg">
<g clip-path="url(#clip0_2397_15768)">
<path d="M4.29825 1H65.7018C67.5618 1 69 2.43821 69 4.12821V41.8718C69 43.5618 67.5618 45 65.7018 45H4.29825C2.43825 45 1 43.5618 1 41.8718V4.12821C1 2.4382 2.43825 1 4.29825 1Z" fill="white" stroke="#F3F3F3" stroke-width="2"/>
<path fill-rule="evenodd" clip-rule="evenodd" d="M33.8295 28.5185V23.074L36.7748 23.073C37.989 23.0737 39.0096 22.6922 39.8363 21.9283C40.6718 21.2034 41.1389 20.1611 41.1151 19.0748C41.1317 17.9943 40.6654 16.9598 39.8363 16.2371C39.0168 15.4692 37.9147 15.0501 36.7748 15.0732H32.0469V28.5185H33.8295ZM33.8295 21.4219V16.7285L36.8191 16.7275C37.4854 16.7092 38.1277 16.9691 38.5829 17.4409C39.041 17.8723 39.2994 18.4649 39.2994 19.0838C39.2994 19.7027 39.041 20.2954 38.5829 20.7268C38.122 21.1886 37.4818 21.441 36.8191 21.4219H33.8295Z" fill="#5F6368"/>
<path fill-rule="evenodd" clip-rule="evenodd" d="M48.3455 20.0425C47.5829 19.3601 46.543 19.019 45.2253 19.019C43.5327 19.019 42.2545 19.6197 41.3908 20.8213L42.961 21.7793C43.5412 20.9654 44.3291 20.5584 45.325 20.5584C45.9598 20.5513 46.5742 20.7762 47.0456 21.1882C47.5156 21.5647 47.7859 22.1261 47.782 22.717V23.1118C47.0969 22.7363 46.2252 22.5485 45.1666 22.5485C43.9265 22.5499 42.9352 22.8317 42.1926 23.3939C41.45 23.956 41.0786 24.7131 41.0786 25.6649C41.0624 26.5317 41.4506 27.3594 42.135 27.9179C42.8391 28.5186 43.7142 28.819 44.7602 28.819C45.9856 28.819 46.9673 28.2933 47.7056 27.242H47.783V28.5186H49.4881V22.8489C49.4889 21.6602 49.108 20.7247 48.3455 20.0425ZM43.5101 26.829C43.1367 26.5682 42.9165 26.1485 42.9189 25.7025C42.9189 25.2015 43.1614 24.7843 43.6497 24.4409C44.1331 24.1026 44.737 23.9335 45.4611 23.9335C46.4555 23.9335 47.2305 24.148 47.7863 24.5772C47.7863 25.3024 47.4911 25.9342 46.9006 26.4728C46.3687 26.9882 45.6476 27.2783 44.8953 27.2795C44.3938 27.2886 43.9044 27.1295 43.5101 26.829Z" fill="#5F6368"/>
<path fill-rule="evenodd" clip-rule="evenodd" d="M59.2792 19.3193L53.3266 32.5737H51.4864L53.6953 27.936L49.7812 19.3193H51.7189L54.5479 25.9277H54.5866L57.3381 19.3193H59.2792Z" fill="#5F6368"/>
<path fill-rule="evenodd" clip-rule="evenodd" d="M26.6281 21.9006C26.6288 21.3743 26.5829 20.8488 26.4909 20.3301H18.9727V23.305H23.2787C23.1007 24.265 22.5255 25.113 21.6865 25.6522V27.5833H24.2564C25.7612 26.239 26.6281 24.2512 26.6281 21.9006Z" fill="#4285F4"/>
<path fill-rule="evenodd" clip-rule="evenodd" d="M18.9745 29.4486C21.1259 29.4486 22.9373 28.764 24.2583 27.584L21.6883 25.653C20.9731 26.1228 20.0519 26.391 18.9745 26.391C16.8951 26.391 15.1301 25.0329 14.499 23.2026H11.8516V25.1927C13.2048 27.8018 15.9608 29.4483 18.9745 29.4486Z" fill="#34A853"/>
<path fill-rule="evenodd" clip-rule="evenodd" d="M14.4964 23.2031C14.1627 22.2441 14.1627 21.2054 14.4964 20.2464V18.2563H11.8489C10.717 20.4385 10.717 23.0109 11.8489 25.1931L14.4964 23.2031Z" fill="#FBBC04"/>
<path fill-rule="evenodd" clip-rule="evenodd" d="M18.9745 17.0581C20.1114 17.04 21.2099 17.4562 22.0327 18.2167L24.3081 16.012C22.8653 14.6991 20.9538 13.9782 18.9745 14.0005C15.9608 14.0006 13.2048 15.6473 11.8516 18.2563L14.499 20.2463C15.1301 18.4162 16.8951 17.0581 18.9745 17.0581Z" fill="#EA4335"/>
</g>
<defs>
<clipPath id="clip0_2397_15768">
<rect width="70" height="46" fill="white"/>
</clipPath>
</defs>
</svg>
