<svg width="56" height="56" viewBox="0 0 56 56" fill="none" xmlns="http://www.w3.org/2000/svg">
<path d="M14.0003 46.8701H20.091C20.8851 46.8701 21.6744 46.9646 22.4442 47.1536L28.8797 48.7175C30.2761 49.0576 31.7308 49.0907 33.1418 48.8167L40.2573 47.4323C42.1369 47.0662 43.866 46.1661 45.2211 44.8479L50.2554 39.9507C51.6931 38.5546 51.6931 36.2891 50.2554 34.8906C48.961 33.6314 46.9114 33.4897 45.447 34.5575L39.5797 38.8381C38.7395 39.4523 37.7171 39.783 36.6655 39.783H30.9998L34.6061 39.7829C36.6388 39.7829 38.2853 38.1812 38.2853 36.2039V35.4881C38.2853 33.8462 37.1366 32.4147 35.4998 32.0178L29.9337 30.6641C29.0279 30.4444 28.1002 30.3334 27.1677 30.3334C24.9164 30.3334 20.8414 32.1973 20.8414 32.1973L14.0003 35.0581M4.66699 34.0667L4.66699 47.6001C4.66699 48.9069 4.66699 49.5603 4.92131 50.0594C5.14501 50.4984 5.50197 50.8554 5.94101 51.0791C6.44014 51.3334 7.09354 51.3334 8.40032 51.3334H10.267C11.5738 51.3334 12.2272 51.3334 12.7263 51.0791C13.1653 50.8554 13.5223 50.4984 13.746 50.0594C14.0003 49.5603 14.0003 48.9069 14.0003 47.6001V34.0667C14.0003 32.76 14.0003 32.1066 13.746 31.6074C13.5223 31.1684 13.1653 30.8114 12.7263 30.5877C12.2272 30.3334 11.5738 30.3334 10.267 30.3334H8.40033C7.09354 30.3334 6.44014 30.3334 5.94101 30.5877C5.50197 30.8114 5.14502 31.1684 4.92131 31.6074C4.66699 32.1066 4.66699 32.76 4.66699 34.0667ZM40.1135 8.38201C38.7209 5.46801 35.5103 3.92425 32.388 5.41428C29.2657 6.90432 27.9354 10.438 29.2427 13.54C30.0506 15.4572 32.3654 19.1801 34.0159 21.7445C34.6257 22.692 34.9306 23.1658 35.376 23.4429C35.758 23.6806 36.2362 23.8088 36.6859 23.7939C37.2102 23.7766 37.7111 23.5187 38.713 23.0031C41.4246 21.6075 45.2907 19.5407 46.9489 18.2844C49.6321 16.2516 50.2967 12.5151 48.2879 9.67464C46.2791 6.83419 42.7765 6.5547 40.1135 8.38201Z" stroke="white" stroke-width="2" stroke-linecap="round" stroke-linejoin="round"/>
</svg>
