<svg width="54" height="54" viewBox="0 0 54 54" fill="none" xmlns="http://www.w3.org/2000/svg">
<g id="heart-circle">
<g id="Icon">
<path d="M27 49.5C39.4264 49.5 49.5 39.4264 49.5 27C49.5 14.5736 39.4264 4.5 27 4.5C14.5736 4.5 4.5 14.5736 4.5 27C4.5 39.4264 14.5736 49.5 27 49.5Z" stroke="white" stroke-width="2" stroke-linecap="round" stroke-linejoin="round"/>
<path fill-rule="evenodd" clip-rule="evenodd" d="M26.9923 20.4028C24.743 17.7732 20.9922 17.0658 18.174 19.4738C15.3558 21.8817 14.9591 25.9076 17.1722 28.7555C18.5897 30.5795 22.2201 33.962 24.647 36.1583C25.4535 36.8882 25.8568 37.2531 26.3398 37.3994C26.755 37.5253 27.2295 37.5253 27.6448 37.3994C28.1278 37.2531 28.531 36.8882 29.3376 36.1583C31.7645 33.962 35.3948 30.5795 36.8124 28.7555C39.0255 25.9076 38.6772 21.8564 35.8106 19.4738C32.9439 17.0912 29.2416 17.7732 26.9923 20.4028Z" stroke="white" stroke-width="2" stroke-linecap="round" stroke-linejoin="round"/>
</g>
</g>
</svg>
