<svg width="36" height="36" viewBox="0 0 36 36" fill="none" xmlns="http://www.w3.org/2000/svg">
<path d="M9 30.1308H12.9154C13.4259 30.1308 13.9333 30.1916 14.4282 30.3131L18.5653 31.3184C19.463 31.5371 20.3982 31.5584 21.3052 31.3822L25.8795 30.4923C27.0878 30.2569 28.1994 29.6783 29.0705 28.8308L32.3068 25.6827C33.2311 24.7851 33.2311 23.3287 32.3068 22.4297C31.4747 21.6202 30.1571 21.5291 29.2157 22.2156L25.4439 24.9674C24.9037 25.3622 24.2465 25.5748 23.5705 25.5748H19.9282L22.2466 25.5747C23.5533 25.5747 24.6118 24.5451 24.6118 23.274V22.8138C24.6118 21.7583 23.8733 20.838 22.8211 20.5829L19.2429 19.7127C18.6606 19.5715 18.0642 19.5001 17.4647 19.5001C16.0175 19.5001 13.3978 20.6983 13.3978 20.6983L9 22.5374M3 21.9001L3 30.6001C3 31.4402 3 31.8602 3.16349 32.1811C3.3073 32.4633 3.53677 32.6928 3.81901 32.8366C4.13988 33.0001 4.55992 33.0001 5.4 33.0001H6.6C7.44008 33.0001 7.86012 33.0001 8.18099 32.8366C8.46323 32.6928 8.6927 32.4633 8.83651 32.1811C9 31.8602 9 31.4402 9 30.6001V21.9001C9 21.06 9 20.64 8.83651 20.3191C8.6927 20.0369 8.46323 19.8074 8.18099 19.6636C7.86012 19.5001 7.44008 19.5001 6.6 19.5001H5.4C4.55992 19.5001 4.13988 19.5001 3.81901 19.6636C3.53677 19.8074 3.3073 20.0369 3.16349 20.3191C3 20.64 3 21.06 3 21.9001ZM25.7871 5.38847C24.8918 3.51518 22.8279 2.52276 20.8207 3.48065C18.8134 4.43853 17.9583 6.71016 18.7987 8.70433C19.3181 9.93678 20.8061 12.3301 21.8671 13.9786C22.2592 14.5878 22.4552 14.8923 22.7415 15.0705C22.9871 15.2233 23.2945 15.3057 23.5836 15.2961C23.9206 15.285 24.2427 15.1192 24.8867 14.7877C26.6299 13.8906 29.1152 12.5619 30.1812 11.7543C31.9061 10.4475 32.3334 8.04545 31.042 6.21945C29.7506 4.39344 27.499 4.21377 25.7871 5.38847Z" stroke="black" stroke-width="2" stroke-linecap="round" stroke-linejoin="round"/>
</svg>
