<svg width="54" height="54" viewBox="0 0 54 54" fill="none" xmlns="http://www.w3.org/2000/svg">
<path d="M4.5 11.7C4.5 9.17976 4.5 7.91965 4.99047 6.95704C5.4219 6.11031 6.11031 5.4219 6.95704 4.99047C7.91965 4.5 9.17976 4.5 11.7 4.5H28.8C31.3202 4.5 32.5804 4.5 33.543 4.99047C34.3897 5.4219 35.0781 6.11031 35.5095 6.95704C36 7.91965 36 9.17976 36 11.7V28.8C36 31.3202 36 32.5804 35.5095 33.543C35.0781 34.3897 34.3897 35.0781 33.543 35.5095C32.5804 36 31.3202 36 28.8 36H11.7C9.17976 36 7.91965 36 6.95704 35.5095C6.11031 35.0781 5.4219 34.3897 4.99047 33.543C4.5 32.5804 4.5 31.3202 4.5 28.8V11.7Z" stroke="black" stroke-width="2" stroke-linecap="round" stroke-linejoin="round"/>
<path d="M18 25.2C18 22.6798 18 21.4196 18.4905 20.457C18.9219 19.6103 19.6103 18.9219 20.457 18.4905C21.4196 18 22.6798 18 25.2 18H42.3C44.8202 18 46.0804 18 47.043 18.4905C47.8897 18.9219 48.5781 19.6103 49.0095 20.457C49.5 21.4196 49.5 22.6798 49.5 25.2V42.3C49.5 44.8202 49.5 46.0804 49.0095 47.043C48.5781 47.8897 47.8897 48.5781 47.043 49.0095C46.0804 49.5 44.8202 49.5 42.3 49.5H25.2C22.6798 49.5 21.4196 49.5 20.457 49.0095C19.6103 48.5781 18.9219 47.8897 18.4905 47.043C18 46.0804 18 44.8202 18 42.3V25.2Z" stroke="black" stroke-width="2" stroke-linecap="round" stroke-linejoin="round"/>
</svg>
