<svg width="30" height="30" viewBox="0 0 43 43" fill="none" xmlns="http://www.w3.org/2000/svg">
<path d="M25.1875 4.65918V11.8876C25.1875 12.8677 25.1875 13.3578 25.3782 13.7321C25.546 14.0614 25.8137 14.3291 26.143 14.4969C26.5174 14.6876 27.0074 14.6876 27.9875 14.6876H35.2159M16.4375 26.9375H26.9375M25.1875 4.1875H16.0875C13.1472 4.1875 11.6771 4.1875 10.554 4.75972C9.5662 5.26305 8.76305 6.0662 8.25972 7.05405C7.6875 8.17709 7.6875 9.64722 7.6875 12.5875V30.7875C7.6875 33.7278 7.6875 35.1979 8.25972 36.3209C8.76305 37.3088 9.5662 38.1119 10.554 38.6153C11.6771 39.1875 13.1472 39.1875 16.0875 39.1875H27.2875C30.2278 39.1875 31.6979 39.1875 32.821 38.6153C33.8088 38.1119 34.6119 37.3088 35.1153 36.3209C35.6875 35.1979 35.6875 33.7278 35.6875 30.7875V14.6875L25.1875 4.1875Z" stroke="black" stroke-width="2" stroke-linecap="round" stroke-linejoin="round"/>
</svg>
