<svg width="46" height="46" viewBox="0 0 46 46" fill="none" xmlns="http://www.w3.org/2000/svg">
<rect x="1.25" y="1.25" width="43.5" height="43.5" rx="21.75" stroke="white" stroke-width="1.5"/>
<g clip-path="url(#clip0_756_1280)">
<path d="M23 44C34.598 44 44 34.598 44 23C44 11.402 34.598 2 23 2C11.402 2 2 11.402 2 23C2 34.598 11.402 44 23 44Z" fill="#F0F0F0"/>
<path d="M14.7835 15.6959H42.6946C39.7276 7.69912 32.0301 2.00024 23.0009 2.00024C17.2018 2.00024 11.9524 4.35118 8.15234 8.15169L14.7835 15.6959Z" fill="black"/>
<path d="M14.7835 30.3054H42.6946C39.7276 38.3022 32.0301 44.0011 23.0009 44.0011C17.2018 44.0011 11.9524 41.6502 8.15234 37.8497L14.7835 30.3054Z" fill="#6DA544"/>
<path d="M8.15075 8.14917C-0.050249 16.3502 -0.050249 29.6467 8.15075 37.8478C11.5397 34.4588 14.7991 31.1995 23 22.9985L8.15075 8.14917Z" fill="#D80027"/>
<path d="M10.3349 18.4355L11.4874 20.8455L14.0902 20.244L12.9245 22.6476L15.0175 24.3074L12.4116 24.8947L12.4189 27.5659L10.3349 25.8947L8.25093 27.5659L8.25823 24.8947L5.65234 24.3074L7.74529 22.6476L6.57979 20.244L9.18239 20.8455L10.3349 18.4355Z" fill="#F0F0F0"/>
</g>
<defs>
<clipPath id="clip0_756_1280">
<rect width="42" height="42" fill="white" transform="translate(2 2)"/>
</clipPath>
</defs>
</svg>
