<svg width="48" height="48" viewBox="0 0 48 48" fill="none" xmlns="http://www.w3.org/2000/svg">
<g clip-path="url(#clip0_785_2006)">
<path d="M3.8642 0.713623H22.0581C24.2317 0.713623 25.9223 2.48471 25.9223 4.57782V14.9629C25.9223 17.1365 24.1512 18.8271 22.0581 18.8271H3.8642C1.69059 18.8271 0 17.056 0 14.9629V4.57782C0 2.40421 1.69059 0.713623 3.8642 0.713623Z" fill="#48EDE5"/>
<path d="M5.63572 10.4543C6.3471 10.4543 6.92379 9.87762 6.92379 9.16624C6.92379 8.45486 6.3471 7.87817 5.63572 7.87817C4.92434 7.87817 4.34766 8.45486 4.34766 9.16624C4.34766 9.87762 4.92434 10.4543 5.63572 10.4543Z" fill="#0F0C22"/>
<path d="M13.4392 11.3397C14.6397 11.3397 15.6128 10.3665 15.6128 9.16604C15.6128 7.96559 14.6397 6.99243 13.4392 6.99243C12.2388 6.99243 11.2656 7.96559 11.2656 9.16604C11.2656 10.3665 12.2388 11.3397 13.4392 11.3397Z" fill="#0F0C22"/>
<path d="M20.3662 10.5344C21.0907 10.5344 21.6543 9.89035 21.6543 9.24632C21.6543 8.52178 21.0102 7.95825 20.3662 7.95825C19.6417 7.95825 19.0781 8.60229 19.0781 9.24632C19.0781 9.89035 19.6417 10.5344 20.3662 10.5344Z" fill="#0F0C22"/>
<path d="M38.9636 22.1272H2.57578C1.60973 22.1272 0.804688 22.9322 0.804688 23.8983V45.5539C0.804688 46.5199 1.52922 47.325 2.57578 47.325H38.9636C39.9297 47.325 40.7347 46.6005 40.7347 45.5539V23.8178C40.7347 22.8517 40.0102 22.1272 38.9636 22.1272ZM38.9636 45.5539H2.57578V23.8983H38.9636V45.5539Z" fill="#0F0C22"/>
<path d="M47.8944 32.6731L44.5938 20.517C44.5938 20.517 44.5938 20.517 44.5938 20.4365C44.5938 20.3559 44.5133 20.2754 44.4328 20.1949L43.2252 15.7672C43.2252 15.6867 43.2252 15.5257 43.2252 15.4452C43.2252 15.3647 43.1447 15.2037 43.0642 15.1232L41.9371 10.776C41.7761 10.1319 41.3736 9.5684 40.8101 9.16588C40.166 8.76336 39.4415 8.68285 38.7975 8.84386L5.87129 17.6188C5.22726 17.8603 4.66373 18.3433 4.34171 18.9874C4.0197 19.6314 4.1002 20.3559 4.42222 21C4.66373 21.4025 5.14676 21.5635 5.54928 21.4025C5.9518 21.161 6.1128 20.678 5.9518 20.2754C5.87129 20.0339 5.87129 19.8729 5.9518 19.7119C6.0323 19.5509 6.19331 19.3899 6.35432 19.3094L39.2 10.615C39.522 10.5344 39.7635 10.6149 39.844 10.6955C40.005 10.776 40.166 10.937 40.166 11.1785L41.2126 15.0427L26.5609 18.9069C26.0778 19.0679 25.8363 19.4704 25.9168 19.9534C26.0778 20.4365 26.4803 20.678 26.9634 20.5975L41.6956 16.7333L42.6617 20.1949L41.2931 20.678C40.8101 20.839 40.6491 21.322 40.8101 21.805C40.9711 22.288 41.4541 22.5296 41.9371 22.288L43.2252 21.805L46.2844 32.9951C46.4454 33.4781 46.0429 33.9611 45.6403 34.1222L42.4202 35.0077C41.9371 35.1687 41.6956 35.5712 41.7761 36.0543C41.8566 36.4568 42.2592 36.6983 42.5812 36.6983C42.6617 36.6983 42.7422 36.6983 42.8227 36.6983L46.0429 35.8127C47.4919 35.4102 48.297 34.0417 47.8944 32.6731Z" fill="#0F0C22"/>
<path d="M21.6512 38.8719H34.6123C35.0954 38.8719 35.4979 38.4694 35.4979 37.9864C35.4979 37.5033 35.0954 37.1008 34.6123 37.1008H21.6512C21.1681 37.1008 20.7656 37.5033 20.7656 37.9864C20.7656 38.4694 21.1681 38.8719 21.6512 38.8719Z" fill="#0F0C22"/>
<path d="M21.6512 43.139H28.5745C29.0576 43.139 29.4601 42.7365 29.4601 42.2535C29.4601 41.7704 29.0576 41.3679 28.5745 41.3679H21.6512C21.1681 41.3679 20.7656 41.7704 20.7656 42.2535C20.7656 42.7365 21.1681 43.139 21.6512 43.139Z" fill="#0F0C22"/>
<path d="M5.7174 34.2832L9.50109 36.5373C9.6621 36.6178 9.82311 36.6178 9.90361 36.6178C9.98412 36.6178 10.2256 36.6178 10.3061 36.5373L14.0898 34.2832C14.3313 34.1222 14.4923 33.8807 14.4923 33.5587V29.131C14.4923 28.809 14.3313 28.5674 14.0898 28.4064L10.3061 26.2328C10.0646 26.0718 9.74261 26.0718 9.42059 26.2328L5.6369 28.4064C5.39538 28.5674 5.23438 28.809 5.23438 29.131V33.5587C5.31488 33.8807 5.47589 34.1222 5.7174 34.2832ZM7.00546 29.614L9.98412 27.9234L12.9628 29.614V32.9952L9.98412 34.7663L7.00546 32.9952V29.614Z" fill="#0F0C22"/>
</g>
<defs>
<clipPath id="clip0_785_2006">
<rect width="48" height="48" fill="white"/>
</clipPath>
</defs>
</svg>
