<svg width="46" height="46" viewBox="0 0 46 46" fill="none" xmlns="http://www.w3.org/2000/svg">
<rect x="1.25" y="1.25" width="43.5" height="43.5" rx="21.75" stroke="white" stroke-width="1.5"/>
<g clip-path="url(#clip0_756_1279)">
<path d="M23 44C34.598 44 44 34.598 44 23C44 11.402 34.598 2 23 2C11.402 2 2 11.402 2 23C2 34.598 11.402 44 23 44Z" fill="#F0F0F0"/>
<path d="M23.0002 1.99878C14.6745 1.99878 7.48073 6.84395 4.08398 13.8684H41.9164C38.5197 6.84395 31.3258 1.99878 23.0002 1.99878Z" fill="#D80027"/>
<path d="M23.0002 43.999C31.3258 43.999 38.5197 39.1538 41.9165 32.1294H4.08398C7.48073 39.1538 14.6745 43.999 23.0002 43.999Z" fill="#D80027"/>
<path d="M28.4781 26.6509L22.9998 16.6074L17.5215 26.6509H21.6302V29.39H24.3694V26.6509H28.4781Z" fill="#6DA544"/>
</g>
<defs>
<clipPath id="clip0_756_1279">
<rect width="42" height="42" fill="white" transform="translate(2 2)"/>
</clipPath>
</defs>
</svg>
