<svg width="54" height="54" viewBox="0 0 54 54" fill="none" xmlns="http://www.w3.org/2000/svg">
<g id="line-chart-up-02">
<path id="Icon" d="M47.25 47.25H10.35C9.08988 47.25 8.45982 47.25 7.97852 47.0048C7.55516 46.7891 7.21095 46.4448 6.99524 46.0215C6.75 45.5402 6.75 44.9101 6.75 43.65V6.75M47.25 15.75L35.0228 27.9772C34.5773 28.4227 34.3545 28.6455 34.0976 28.7289C33.8717 28.8024 33.6283 28.8024 33.4024 28.7289C33.1455 28.6455 32.9227 28.4227 32.4772 27.9772L28.2728 23.7728C27.8273 23.3273 27.6045 23.1045 27.3476 23.0211C27.1217 22.9476 26.8783 22.9476 26.6524 23.0211C26.3955 23.1045 26.1727 23.3273 25.7272 23.7728L15.75 33.75M47.25 15.75H38.25M47.25 15.75V24.75" stroke="white" stroke-width="2" stroke-linecap="round" stroke-linejoin="round"/>
</g>
</svg>
