<svg width="1651" height="910" viewBox="0 0 1651 910" fill="none" xmlns="http://www.w3.org/2000/svg">
<line x1="1650.5" y1="910" x2="1650.5" y2="-2.18557e-08" stroke="white"/>
<line x1="1595.5" y1="910" x2="1595.5" y2="-2.18557e-08" stroke="white"/>
<line x1="1540.5" y1="910" x2="1540.5" y2="-2.18557e-08" stroke="white"/>
<line x1="1485.5" y1="910" x2="1485.5" y2="-2.18557e-08" stroke="white"/>
<line x1="1430.5" y1="910" x2="1430.5" y2="-2.18557e-08" stroke="white"/>
<line x1="1375.5" y1="910" x2="1375.5" y2="-2.18557e-08" stroke="white"/>
<line x1="1320.5" y1="910" x2="1320.5" y2="-2.18557e-08" stroke="white"/>
<line x1="1265.5" y1="910" x2="1265.5" y2="-2.18557e-08" stroke="white"/>
<line x1="1210.5" y1="910" x2="1210.5" y2="-2.18557e-08" stroke="white"/>
<line x1="1155.5" y1="910" x2="1155.5" y2="-2.18557e-08" stroke="white"/>
<line x1="1100.5" y1="910" x2="1100.5" y2="-2.18557e-08" stroke="white"/>
<line x1="1045.5" y1="910" x2="1045.5" y2="-2.18557e-08" stroke="white"/>
<line x1="990.5" y1="910" x2="990.5" y2="-2.18557e-08" stroke="white"/>
<line x1="935.5" y1="910" x2="935.5" y2="-2.18557e-08" stroke="white"/>
<line x1="880.5" y1="910" x2="880.5" y2="-2.18557e-08" stroke="white"/>
<line x1="825.5" y1="910" x2="825.5" y2="-2.18557e-08" stroke="white"/>
<line x1="770.5" y1="910" x2="770.5" y2="-2.18557e-08" stroke="white"/>
<line x1="715.5" y1="910" x2="715.5" y2="-2.18557e-08" stroke="white"/>
<line x1="660.5" y1="910" x2="660.5" y2="-2.18557e-08" stroke="white"/>
<line x1="605.5" y1="910" x2="605.5" y2="-2.18557e-08" stroke="white"/>
<line x1="550.5" y1="910" x2="550.5" y2="-2.18557e-08" stroke="white"/>
<line x1="495.5" y1="910" x2="495.5" y2="-2.18557e-08" stroke="white"/>
<line x1="440.5" y1="910" x2="440.5" y2="-2.18557e-08" stroke="white"/>
<line x1="385.5" y1="910" x2="385.5" y2="-2.18557e-08" stroke="white"/>
<line x1="330.5" y1="910" x2="330.5" y2="-2.18557e-08" stroke="white"/>
<line x1="275.5" y1="910" x2="275.5" y2="-2.18557e-08" stroke="white"/>
<line x1="220.5" y1="910" x2="220.5" y2="-2.18557e-08" stroke="white"/>
<line x1="165.5" y1="910" x2="165.5" y2="-2.18557e-08" stroke="white"/>
<line x1="110.5" y1="910" x2="110.5" y2="-2.18557e-08" stroke="white"/>
<line x1="55.5" y1="910" x2="55.5" y2="-2.18557e-08" stroke="white"/>
<line x1="0.5" y1="910" x2="0.50004" y2="-2.18557e-08" stroke="white"/>
</svg>
