<svg width="43" height="43" viewBox="0 0 43 43" fill="none" xmlns="http://www.w3.org/2000/svg">
<path d="M18.1874 23.4374C18.9389 24.4422 19.8977 25.2735 20.9988 25.8751C22.0999 26.4767 23.3175 26.8344 24.569 26.924C25.8205 27.0137 27.0766 26.8331 28.2522 26.3946C29.4278 25.956 30.4953 25.2698 31.3824 24.3824L36.6324 19.1324C38.2262 17.4822 39.1082 15.2719 39.0883 12.9777C39.0683 10.6835 38.1481 8.48885 36.5258 6.86653C34.9035 5.24421 32.7088 4.32398 30.4146 4.30404C28.1204 4.28411 25.9101 5.16606 24.2599 6.75994L21.2499 9.75244M25.1874 19.9374C24.4358 18.9327 23.477 18.1014 22.3759 17.4998C21.2748 16.8982 20.0572 16.5405 18.8057 16.4509C17.5542 16.3612 16.2981 16.5418 15.1225 16.9803C13.9469 17.4188 12.8794 18.1051 11.9924 18.9924L6.74236 24.2424C5.14848 25.8927 4.26653 28.103 4.28646 30.3972C4.3064 32.6914 5.22663 34.886 6.84895 36.5084C8.47127 38.1307 10.6659 39.0509 12.9601 39.0708C15.2543 39.0908 17.4646 38.2088 19.1149 36.6149L22.1074 33.6224" stroke="black" stroke-width="2" stroke-linecap="round" stroke-linejoin="round"/>
</svg>
