<svg width="30" height="30" viewBox="0 0 35 35" fill="none" xmlns="http://www.w3.org/2000/svg">
<path d="M24.7707 15.8485V11.5985C24.7707 7.68645 21.5994 4.51514 17.6873 4.51514C13.7753 4.51514 10.604 7.68645 10.604 11.5985V15.8485M13.154 30.0151H22.2207C24.6009 30.0151 25.791 30.0151 26.7001 29.5519C27.4998 29.1445 28.15 28.4943 28.5574 27.6946C29.0207 26.7855 29.0207 25.5954 29.0207 23.2151V22.6485C29.0207 20.2682 29.0207 19.0781 28.5574 18.169C28.15 17.3693 27.4998 16.7192 26.7001 16.3117C25.791 15.8485 24.6009 15.8485 22.2207 15.8485H13.154C10.7738 15.8485 9.58367 15.8485 8.67454 16.3117C7.87486 16.7192 7.22469 17.3693 6.81723 18.169C6.354 19.0781 6.354 20.2682 6.354 22.6485V23.2151C6.354 25.5954 6.354 26.7855 6.81723 27.6946C7.22469 28.4943 7.87486 29.1445 8.67454 29.5519C9.58367 30.0151 10.7738 30.0151 13.154 30.0151Z" stroke="white" stroke-width="2" stroke-linecap="round" stroke-linejoin="round"/>
</svg>
