<svg width="109" height="71" viewBox="0 0 109 71" fill="none" xmlns="http://www.w3.org/2000/svg">
<path d="M107.229 12.9296C106.162 10.2631 104.61 7.96395 102.583 6.02037C100.545 4.07678 98.0915 2.59539 95.2117 1.5525C92.3319 0.52145 89.1676 0 85.7189 0H73.4412L55.9727 40.5071V71H71.4739V43.6832H85.0553C92.2608 43.6832 98.0204 41.6804 102.346 37.6747C106.672 33.669 108.829 28.336 108.829 21.6994C108.829 18.4996 108.295 15.5724 107.229 12.9177V12.9296ZM90.969 28.2886C89.215 29.9122 86.8685 30.7299 83.9176 30.7299H71.4621V13.2495H83.9176C86.8566 13.2495 89.215 14.0673 90.969 15.6909C92.7229 17.3145 93.5999 19.3884 93.5999 21.889C93.5999 24.5199 92.7229 26.6531 90.969 28.2767V28.2886Z" fill="#898F91"/>
<path d="M39.9738 56.5416L64.6833 0.0118536L64.6952 0H51.8605L34.7711 35.8615L15.7738 0H0V56.5416H15.6079V26.2502L31.5595 56.5416H39.9738Z" fill="#233F94"/>
</svg>
