<svg xmlns="http://www.w3.org/2000/svg" width="173" height="32" viewBox="0 0 173 32" fill="none">
  <g clip-path="url(#clip0_31_717)">
    <path d="M149.267 26.2785H142.838V5.35062H149.267V26.2785Z" fill="white"/>
    <path d="M141.258 5.52675C142.491 5.86049 143.737 6.50942 144.994 7.47354C146.254 8.43766 147.209 9.65671 147.867 11.1307C148.526 12.6047 148.85 14.1019 148.85 15.6315C148.85 17.1611 148.563 18.5841 147.988 19.9098C147.413 21.2354 146.607 22.3757 145.578 23.3259C144.549 24.2761 143.362 25.0085 142.022 25.5137C140.683 26.0236 139.278 26.2785 137.804 26.2785C136.706 26.2785 135.533 26.1116 134.291 25.7779C133.044 25.4442 131.788 24.7953 130.513 23.8311C129.243 22.867 128.274 21.6433 127.621 20.1554C126.963 18.6675 126.638 17.1611 126.638 15.6361C126.638 14.1111 126.926 12.6881 127.5 11.3764C128.075 10.0646 128.882 8.93362 129.911 7.97877C130.94 7.02856 132.14 6.2962 133.508 5.79096C134.875 5.28109 136.307 5.02615 137.804 5.02615C138.875 5.02615 140.029 5.19302 141.258 5.52675ZM139.811 20.3733C140.562 20.0535 141.225 19.4648 141.8 18.6073C142.375 17.7498 142.662 16.7578 142.662 15.6361C142.662 14.1343 142.175 12.8921 141.197 11.9001C140.219 10.9082 139.088 10.4122 137.804 10.4122C137.002 10.4122 136.196 10.6255 135.394 11.0565C134.592 11.483 133.962 12.1226 133.508 12.9662C133.053 13.8098 132.826 14.6998 132.826 15.6361C132.826 16.7625 133.114 17.7544 133.688 18.6073C134.263 19.4648 134.94 20.0535 135.719 20.3733C136.497 20.6931 137.193 20.8553 137.809 20.8553C138.425 20.8553 139.07 20.6931 139.816 20.3733H139.811Z" fill="white"/>
    <path d="M161.43 31.7481H154.644L157.819 24.4152L149.661 5.35526H156.405L161.073 16.8459L166.056 5.35526H172.8L161.425 31.7481H161.43Z" fill="white"/>
    <path d="M126.388 6.1386C125.915 4.96126 125.234 3.94616 124.335 3.08865C123.435 2.23113 122.351 1.57294 121.076 1.11869C119.801 0.659803 118.406 0.432678 116.881 0.432678H111.458L103.736 18.3338V31.8083H110.587V19.7383H116.589C119.774 19.7383 122.318 18.8529 124.228 17.0823C126.138 15.3117 127.093 12.957 127.093 10.0229C127.093 8.60917 126.856 7.31594 126.388 6.1386ZM119.203 12.9245C118.429 13.643 117.391 14.0045 116.089 14.0045H110.582V6.2823H116.089C117.391 6.2823 118.429 6.64384 119.203 7.3623C119.978 8.08075 120.367 8.99389 120.367 10.1017C120.367 11.2651 119.978 12.2061 119.203 12.9245Z" fill="white"/>
    <path d="M47.3765 6.92197C46.176 5.96248 44.9894 5.31356 43.8167 4.98446C42.644 4.65072 41.5455 4.48386 40.5257 4.48386C39.0981 4.48386 37.7307 4.73879 36.4328 5.24403C35.1303 5.74927 33.9901 6.47699 33.0074 7.42257C32.0248 8.36815 31.26 9.49451 30.713 10.8016C30.1661 12.1088 29.8926 13.5225 29.8926 15.0428C29.8926 16.5632 30.2031 18.0604 30.8289 19.5436C31.4546 21.0222 32.3724 22.2413 33.5822 23.2054C34.792 24.1649 35.9925 24.8138 37.1791 25.1429C38.3657 25.4767 39.4828 25.6435 40.5257 25.6435C41.9302 25.6435 43.2697 25.3886 44.5444 24.8834C45.8191 24.3781 46.9501 23.6504 47.9328 22.7048C48.9154 21.7592 49.6802 20.6236 50.2272 19.3072C50.7741 17.9862 51.0476 16.5678 51.0476 15.0475C51.0476 13.5271 50.737 12.0346 50.1113 10.5699C49.4855 9.10515 48.5724 7.89073 47.3765 6.93124V6.92197ZM44.3358 17.7081C43.7889 18.4775 43.1539 19.0059 42.44 19.2933C41.7262 19.5807 41.0866 19.7244 40.5257 19.7244C39.9649 19.7244 39.2742 19.5807 38.5372 19.2933C37.7956 19.0059 37.1513 18.4775 36.6043 17.7081C36.0574 16.9386 35.7839 16.0487 35.7839 15.0382C35.7839 14.1992 36.0018 13.3973 36.4328 12.6418C36.8685 11.8863 37.4665 11.3161 38.2313 10.9314C38.9961 10.5467 39.7609 10.3567 40.5257 10.3567C41.7494 10.3567 42.8294 10.8016 43.7564 11.6916C44.6881 12.5815 45.1516 13.6986 45.1516 15.0428C45.1516 16.0533 44.8782 16.9433 44.3312 17.7127L44.3358 17.7081Z" fill="white"/>
    <path d="M69.338 8.05758C68.6752 7.35767 67.8826 6.81535 66.9648 6.43063C66.047 6.04591 65.0412 5.85587 63.9426 5.85587C62.7699 5.85587 61.6714 6.06445 60.6517 6.48625C59.6319 6.90805 58.7651 7.50136 58.0513 8.26617V6.43063H51.9282V25.6389H58.0513V16.7254C58.0513 14.9409 58.4036 13.6013 59.1035 12.7067C59.8034 11.8121 60.7814 11.3671 62.0283 11.3671C62.7421 11.3671 63.3679 11.5711 63.9009 11.979C64.4386 12.3869 64.8048 12.8828 65.0087 13.4715C65.2127 14.0602 65.3147 14.621 65.3147 15.1541V25.6389H71.396V13.8562C71.396 12.6835 71.2153 11.5989 70.8583 10.6023C70.5014 9.60574 69.9916 8.7575 69.3287 8.05758H69.338Z" fill="white"/>
    <path d="M101.107 0.42804L93.8115 17.2631L89.2551 6.05053H82.6777L90.6364 24.6469L87.5354 31.8037H94.1545L107.689 0.42804H101.107Z" fill="white"/>
    <path d="M80.7406 17.3743V10.9963H84.801L82.7013 6.05517H80.736V0.196289H74.6129V6.05517H71.1318V10.9963H74.6129V17.9862C74.6129 20.4614 75.2803 22.3525 76.6199 23.6689C77.9595 24.9807 79.8414 25.6389 82.2656 25.6389C83.3734 25.6389 87.1557 25.4442 88.2681 25.0641L86.3584 20.3362C86.0896 20.4475 80.736 21.6758 80.736 17.379L80.7406 17.3743Z" fill="white"/>
    <path d="M28.8309 25.6435H22.8654V12.3266L15.8524 25.6435H13.0156L5.96549 12.2524V25.6435H0V0.655182H6.04429L14.434 16.5075L22.8283 0.655182H28.8309V25.6435Z" fill="white"/>
  </g>
  <defs>
    <clipPath id="clip0_31_717">
      <rect width="172.8" height="31.6074" fill="white" transform="translate(0 0.196289)"/>
    </clipPath>
  </defs>
</svg>