<svg width="172" height="32" viewBox="0 0 172 32" fill="none" xmlns="http://www.w3.org/2000/svg">
<g clip-path="url(#clip0_1573_8465)">
<path d="M148.577 26.2309H142.178V5.3999H148.577V26.2309Z" fill="#8B9092"/>
<path d="M140.604 5.57525C141.832 5.90744 143.073 6.55336 144.323 7.51302C145.578 8.47267 146.528 9.68609 147.184 11.1533C147.839 12.6204 148.162 14.1107 148.162 15.6332C148.162 17.1557 147.876 18.5721 147.304 19.8917C146.731 21.2112 145.929 22.3462 144.904 23.292C143.88 24.2378 142.699 24.9668 141.366 25.4697C140.032 25.9772 138.634 26.2309 137.167 26.2309C136.074 26.2309 134.906 26.0648 133.67 25.7327C132.429 25.4005 131.179 24.7545 129.91 23.7949C128.646 22.8352 127.681 21.6172 127.031 20.1362C126.376 18.6552 126.053 17.1557 126.053 15.6378C126.053 14.1199 126.339 12.7035 126.911 11.3978C127.483 10.0921 128.286 8.96634 129.31 8.01591C130.334 7.0701 131.529 6.34113 132.89 5.83823C134.251 5.33072 135.677 5.07697 137.167 5.07697C138.233 5.07697 139.382 5.24306 140.604 5.57525ZM139.165 20.353C139.912 20.0347 140.572 19.4487 141.144 18.5952C141.716 17.7417 142.002 16.7543 142.002 15.6378C142.002 14.143 141.518 12.9065 140.544 11.9191C139.571 10.9318 138.445 10.4381 137.167 10.4381C136.369 10.4381 135.566 10.6504 134.768 11.0794C133.97 11.5039 133.342 12.1406 132.89 12.9803C132.438 13.82 132.212 14.7058 132.212 15.6378C132.212 16.7589 132.498 17.7463 133.07 18.5952C133.642 19.4487 134.316 20.0347 135.091 20.353C135.866 20.6714 136.558 20.8329 137.172 20.8329C137.785 20.8329 138.427 20.6714 139.17 20.353H139.165Z" fill="#8B9092"/>
<path d="M160.683 31.6751H153.929L157.089 24.3762L148.969 5.40454H155.682L160.328 16.842L165.288 5.40454H172.001L160.678 31.6751H160.683Z" fill="#8B9092"/>
<path d="M125.803 6.18427C125.333 5.01238 124.654 4.00197 123.759 3.14843C122.864 2.29489 121.785 1.63974 120.516 1.18759C119.247 0.730834 117.858 0.504761 116.34 0.504761H110.942L103.256 18.323V31.7351H110.075V19.721H116.05C119.219 19.721 121.752 18.8397 123.653 17.0773C125.554 15.3148 126.504 12.9711 126.504 10.0506C126.504 8.64339 126.269 7.35616 125.803 6.18427ZM118.652 12.9388C117.881 13.6539 116.848 14.0138 115.551 14.0138H110.07V6.32729H115.551C116.848 6.32729 117.881 6.68716 118.652 7.40229C119.422 8.11742 119.81 9.02633 119.81 10.129C119.81 11.2871 119.422 12.2236 118.652 12.9388Z" fill="#8B9092"/>
<path d="M47.1569 6.96399C45.962 6.00895 44.7808 5.36303 43.6136 5.03545C42.4463 4.70326 41.3528 4.53717 40.3378 4.53717C38.9168 4.53717 37.5557 4.79093 36.2639 5.29382C34.9674 5.79672 33.8324 6.52108 32.8543 7.46228C31.8762 8.40348 31.115 9.52462 30.5705 10.8257C30.0261 12.1268 29.7539 13.534 29.7539 15.0473C29.7539 16.5606 30.063 18.0508 30.6859 19.5272C31.3087 20.999 32.2223 22.2124 33.4264 23.172C34.6306 24.1271 35.8256 24.773 37.0067 25.1006C38.1878 25.4328 39.2997 25.5989 40.3378 25.5989C41.7358 25.5989 43.0691 25.3451 44.3379 24.8422C45.6067 24.3393 46.7325 23.615 47.7106 22.6738C48.6887 21.7326 49.4499 20.6022 49.9944 19.2919C50.5388 17.977 50.811 16.5652 50.811 15.0519C50.811 13.5386 50.5019 12.0529 49.879 10.595C49.2562 9.13706 48.3473 7.92826 47.1569 6.97322V6.96399ZM44.1303 17.7002C43.5859 18.466 42.9538 18.992 42.2433 19.2781C41.5328 19.5641 40.8961 19.7071 40.3378 19.7071C39.7796 19.7071 39.0921 19.5641 38.3585 19.2781C37.6203 18.992 36.979 18.466 36.4346 17.7002C35.8902 16.9343 35.618 16.0484 35.618 15.0426C35.618 14.2076 35.8348 13.4094 36.2639 12.6573C36.6976 11.9053 37.2927 11.3378 38.054 10.9549C38.8153 10.5719 39.5765 10.3828 40.3378 10.3828C41.5558 10.3828 42.6308 10.8257 43.5536 11.7115C44.4809 12.5974 44.9423 13.7093 44.9423 15.0473C44.9423 16.0531 44.6701 16.9389 44.1257 17.7048L44.1303 17.7002Z" fill="url(#paint0_linear_1573_8465)"/>
<path d="M69.0167 8.09436C68.3569 7.39768 67.568 6.85787 66.6545 6.47493C65.7409 6.092 64.7398 5.90283 63.6463 5.90283C62.479 5.90283 61.3856 6.11045 60.3706 6.5303C59.3555 6.95015 58.4928 7.54071 57.7822 8.30197V6.47493H51.6875V25.5942H57.7822V16.722C57.7822 14.9458 58.1329 13.6124 58.8296 12.7219C59.5262 11.8315 60.4997 11.3886 61.7408 11.3886C62.4513 11.3886 63.0742 11.5916 63.6048 11.9976C64.14 12.4036 64.5045 12.8973 64.7075 13.4832C64.9105 14.0691 65.012 14.6274 65.012 15.158V25.5942H71.0652V13.8661C71.0652 12.6989 70.8852 11.6192 70.53 10.6273C70.1747 9.63534 69.6672 8.79103 69.0075 8.09436H69.0167Z" fill="url(#paint1_linear_1573_8465)"/>
<path d="M100.639 0.500122L93.3771 17.2572L88.8418 6.09658H82.2949L90.2167 24.6069L87.1301 31.7305H93.7185L107.191 0.500122H100.639Z" fill="url(#paint2_linear_1573_8465)"/>
<path d="M80.367 17.368V11.0195H84.4086L82.3186 6.10123H80.3624V0.26947H74.2676V6.10123H70.8027V11.0195H74.2676V17.977C74.2676 20.4407 74.932 22.3231 76.2654 23.6334C77.5988 24.9391 79.4719 25.5943 81.8849 25.5943C82.9876 25.5943 86.7524 25.4005 87.8597 25.0222L85.9588 20.3161C85.6913 20.4269 80.3624 21.6495 80.3624 17.3726L80.367 17.368Z" fill="url(#paint3_linear_1573_8465)"/>
<path d="M28.6974 25.5989H22.7596V12.3436L15.779 25.5989H12.9554L5.93788 12.2698V25.5989H0V0.726257H6.01631L14.3672 16.5052L22.7226 0.726257H28.6974V25.5989Z" fill="url(#paint4_linear_1573_8465)"/>
</g>
<defs>
<linearGradient id="paint0_linear_1573_8465" x1="29.7539" y1="15.0657" x2="50.8156" y2="15.0657" gradientUnits="userSpaceOnUse">
<stop stop-color="#003383"/>
<stop offset="1" stop-color="#003399"/>
</linearGradient>
<linearGradient id="paint1_linear_1573_8465" x1="51.6921" y1="15.7485" x2="71.0744" y2="15.7485" gradientUnits="userSpaceOnUse">
<stop stop-color="#003383"/>
<stop offset="1" stop-color="#003399"/>
</linearGradient>
<linearGradient id="paint2_linear_1573_8465" x1="82.2949" y1="16.1176" x2="107.191" y2="16.1176" gradientUnits="userSpaceOnUse">
<stop stop-color="#003383"/>
<stop offset="1" stop-color="#003399"/>
</linearGradient>
<linearGradient id="paint3_linear_1573_8465" x1="70.8073" y1="12.9342" x2="87.8689" y2="12.9342" gradientUnits="userSpaceOnUse">
<stop stop-color="#003383"/>
<stop offset="1" stop-color="#003399"/>
</linearGradient>
<linearGradient id="paint4_linear_1573_8465" x1="0" y1="13.1649" x2="28.6974" y2="13.1649" gradientUnits="userSpaceOnUse">
<stop stop-color="#003383"/>
<stop offset="1" stop-color="#003399"/>
</linearGradient>
<clipPath id="clip0_1573_8465">
<rect width="172" height="31.4611" fill="white" transform="translate(0 0.26947)"/>
</clipPath>
</defs>
</svg>
