<svg width="42" height="42" viewBox="0 0 42 42" fill="none" xmlns="http://www.w3.org/2000/svg">
<path d="M36.7496 20.125C36.7496 28.3402 30.0898 35 21.8746 35C19.9902 35 18.1877 34.6496 16.5286 34.0104C16.2253 33.8936 16.0736 33.8351 15.953 33.8073C15.8344 33.78 15.7485 33.7686 15.6268 33.7639C15.5032 33.7592 15.3675 33.7732 15.0961 33.8013L6.13429 34.7277C5.27986 34.816 4.85265 34.8601 4.60064 34.7064C4.38115 34.5725 4.23164 34.3489 4.19185 34.0949C4.14616 33.8032 4.35031 33.4254 4.7586 32.6696L7.621 27.3714C7.85673 26.9351 7.9746 26.7169 8.02798 26.5072C8.0807 26.3 8.09345 26.1506 8.07659 25.9375C8.05951 25.7217 7.96484 25.4408 7.77549 24.8791C7.27232 23.3863 6.99959 21.7875 6.99959 20.125C6.99959 11.9098 13.6594 5.25 21.8746 5.25C30.0898 5.25 36.7496 11.9098 36.7496 20.125Z" stroke="white" stroke-width="2" stroke-linecap="round" stroke-linejoin="round"/>
<path fill-rule="evenodd" clip-rule="evenodd" d="M21.8692 15.6612C20.2947 13.8432 17.6691 13.3542 15.6964 15.0189C13.7237 16.6836 13.446 19.467 14.9951 21.4359C15.9549 22.6557 18.3639 24.8835 20.058 26.4022C20.6803 26.96 20.9914 27.2389 21.3649 27.3513C21.6852 27.4477 22.0532 27.4477 22.3735 27.3513C22.7469 27.2389 23.0581 26.96 23.6804 26.4022C25.3745 24.8835 27.7835 22.6557 28.7432 21.4359C30.2924 19.467 30.0486 16.6661 28.042 15.0189C26.0353 13.3717 23.4437 13.8432 21.8692 15.6612Z" stroke="white" stroke-width="2" stroke-linecap="round" stroke-linejoin="round"/>
</svg>
