<svg width="34" height="34" viewBox="0 0 34 34" fill="none" xmlns="http://www.w3.org/2000/svg">
<path d="M7.82 3.74016L5.61 6.68683C5.17227 7.27046 4.95341 7.56228 4.95849 7.80655C4.96291 8.01912 5.06258 8.21846 5.22998 8.34954C5.42235 8.50016 5.78712 8.50016 6.51667 8.50016H27.4833C28.2129 8.50016 28.5777 8.50016 28.77 8.34954C28.9374 8.21846 29.0371 8.01912 29.0415 7.80655C29.0466 7.56228 28.8277 7.27046 28.39 6.68683L26.18 3.74016M7.82 3.74016C8.06933 3.40772 8.194 3.2415 8.35199 3.12161C8.49193 3.01543 8.65039 2.9362 8.8193 2.88796C9.01 2.8335 9.21778 2.8335 9.63333 2.8335H24.3667C24.7822 2.8335 24.99 2.8335 25.1807 2.88796C25.3496 2.9362 25.5081 3.01543 25.648 3.12161C25.806 3.2415 25.9307 3.40772 26.18 3.74016M7.82 3.74016L5.15667 7.29127C4.82026 7.73981 4.65206 7.96408 4.53262 8.21105C4.42664 8.43021 4.34934 8.66211 4.30263 8.90102C4.25 9.17026 4.25 9.4506 4.25 10.0113L4.25 26.6335C4.25 28.2203 4.25 29.0137 4.55881 29.6198C4.83046 30.1529 5.2639 30.5864 5.79703 30.858C6.40311 31.1668 7.19652 31.1668 8.78333 31.1668L25.2167 31.1668C26.8035 31.1668 27.5969 31.1668 28.203 30.858C28.7361 30.5864 29.1695 30.1529 29.4412 29.6198C29.75 29.0137 29.75 28.2203 29.75 26.6335V10.0113C29.75 9.4506 29.75 9.17027 29.6974 8.90102C29.6507 8.66211 29.5734 8.43021 29.4674 8.21105C29.3479 7.96408 29.1797 7.73981 28.8433 7.29127L26.18 3.74016M22.6667 14.1668C22.6667 15.6697 22.0696 17.1111 21.0069 18.1738C19.9442 19.2365 18.5029 19.8335 17 19.8335C15.4971 19.8335 14.0558 19.2365 12.9931 18.1738C11.9304 17.1111 11.3333 15.6697 11.3333 14.1668" stroke="black" stroke-width="2" stroke-linecap="round" stroke-linejoin="round"/>
</svg>
