<svg width="70" height="46" viewBox="0 0 70 46" fill="none" xmlns="http://www.w3.org/2000/svg">
<rect x="0.5" y="0.5" width="69" height="45" rx="4.5" fill="white"/>
<rect x="0.5" y="0.5" width="69" height="45" rx="4.5" stroke="#F3F3F3"/>
<path d="M6.06129 26.6213C6.06129 25.7816 6.04531 25.0771 6 24.4486H7.58885L7.66336 25.5274H7.70771C8.06704 24.9572 8.72693 24.2826 9.95537 24.2826C10.9143 24.2826 11.6631 24.8243 11.9775 25.6323H12.0081C12.264 25.2273 12.5631 24.9288 12.9068 24.7184C13.3112 24.4339 13.7761 24.2826 14.3764 24.2826C15.5885 24.2826 16.8159 25.107 16.8159 27.4457V31.7444H15.0185V27.7141C15.0185 26.501 14.5996 25.7816 13.7169 25.7816C13.0863 25.7816 12.621 26.2315 12.4275 26.7562C12.3826 26.9356 12.3373 27.1601 12.3373 27.369V31.7444H10.5389V27.5196C10.5389 26.501 10.1349 25.7816 9.28118 25.7816C8.59173 25.7816 8.12809 26.3208 7.9632 26.8294C7.88857 27.0106 7.85685 27.2197 7.85685 27.4297V31.7444H6.06129V26.6213Z" fill="#003A70"/>
<path d="M22.0206 28.1784C20.7169 28.1477 19.4741 28.4315 19.4741 29.5411C19.4741 30.2591 19.9387 30.5899 20.523 30.5899C21.2557 30.5899 21.7964 30.1106 21.9596 29.5864C22.0049 29.4518 22.0206 29.3012 22.0206 29.182V28.1784ZM23.8179 29.9907C23.8179 30.6496 23.8482 31.2913 23.9238 31.7431H22.2604L22.1408 30.9337H22.0941C21.6455 31.5032 20.8818 31.9072 19.9387 31.9072C18.4698 31.9072 17.6465 30.8457 17.6465 29.7348C17.6465 27.8922 19.2782 26.9642 21.9752 26.9789V26.859C21.9752 26.3793 21.7801 25.5853 20.493 25.5853C19.7732 25.5853 19.0231 25.8111 18.5298 26.1255L18.1697 24.9275C18.709 24.5968 19.6537 24.2813 20.8071 24.2813C23.1443 24.2813 23.8179 25.7658 23.8179 27.3533V29.9907Z" fill="#003A70"/>
<path d="M25.0916 26.6213C25.0916 25.7816 25.0749 25.0771 25.0312 24.4486H26.6477L26.738 25.5421H26.7822C27.0967 24.9739 27.8918 24.2826 29.1042 24.2826C30.379 24.2826 31.697 25.107 31.697 27.4143V31.7444H29.8537V27.6249C29.8537 26.576 29.464 25.7816 28.4607 25.7816C27.7266 25.7816 27.2183 26.3051 27.0225 26.86C26.9638 27.0257 26.9478 27.2507 26.9478 27.4583V31.7444H25.0916V26.6213Z" fill="#003A70"/>
<path d="M37.8445 27.4887C37.8445 27.3398 37.8292 27.16 37.8 27.0101C37.6347 26.2909 37.0511 25.7071 36.2118 25.7071C35.0283 25.7071 34.3695 26.7564 34.3695 28.1193C34.3695 29.4526 35.0283 30.4275 36.1974 30.4275C36.9455 30.4275 37.6054 29.9176 37.7846 29.1235C37.8292 28.9584 37.8445 28.7771 37.8445 28.5826V27.4887ZM39.6868 21.517V29.6914C39.6868 30.4401 39.7175 31.2499 39.7468 31.7436H38.099L38.0254 30.5911H37.9948C37.5604 31.3988 36.6744 31.9084 35.6123 31.9084C33.8749 31.9084 32.4962 30.4275 32.4962 28.1796C32.4815 25.7367 34.0101 24.2824 35.7627 24.2824C36.7657 24.2824 37.4854 24.7024 37.8146 25.2438H37.8445V21.517H39.6868Z" fill="#003A70"/>
<path d="M40.9902 31.7429H42.8506V24.4477H40.9902V31.7429Z" fill="#003A70"/>
<path d="M44.1502 26.8002C44.1502 25.8116 44.1352 25.1064 44.0898 24.4483H45.6934L45.7526 25.8402H45.8137C46.1726 24.8067 47.0271 24.4483 47.8061 24.4483C47.9856 24.4483 48.0905 24.4173 48.2405 24.4483V26.0667C48.0905 26.0361 47.926 26.0061 47.7002 26.0061C46.8171 26.0061 46.2179 26.575 46.0538 27.3987C46.0238 27.5633 45.9942 27.7594 45.9942 27.97V31.7432H44.1502V26.8002Z" fill="#003A70"/>
<path d="M49.0938 31.7429H50.9504V24.4477H49.0938V31.7429Z" fill="#003A70"/>
<path fill-rule="evenodd" clip-rule="evenodd" d="M62.4165 16.7415C61.4998 15.6974 60.5268 16.1689 59.7501 16.5538C59.4248 16.7146 58.2437 17.5008 57.0733 18.0489C56.2393 18.4397 55.0422 18.3215 54.3858 17.5108C54.3459 17.4616 53.2847 16.176 53.1724 16.0176C52.4833 15.1534 50.7401 14.4366 48.6573 15.6286C47.5412 16.2745 44.9114 17.7836 43.9283 18.345C43.3307 18.6499 41.9435 18.7831 41.1601 17.7247C41.1471 17.7072 40.1177 16.4227 40.0765 16.3733C40.0461 16.3386 39.3811 15.3523 37.899 15.322C37.681 15.3166 36.5922 15.3101 35.5283 15.9141C34.1176 16.7211 30.8344 18.5981 30.8344 18.5981C30.832 18.5981 30.832 18.5998 30.832 18.5998C29.4823 19.3724 28.4297 19.9723 28.4297 19.9723L29.6724 21.4998C30.2542 22.221 31.5644 22.78 32.7016 22.1273C32.7016 22.1273 36.9019 19.695 36.9166 19.6882C38.7336 18.6911 40.1357 18.6911 41.0647 19.0624C41.9003 19.4144 42.6266 20.2932 42.6266 20.2932C42.6266 20.2932 43.5767 21.4706 43.7437 21.6763C44.2839 22.3413 45.1775 22.0804 45.1775 22.0804C45.1775 22.0804 45.5076 22.0421 46.009 21.7458C46.009 21.7458 50.0765 19.3874 50.0789 19.3867C51.3713 18.6288 52.5568 18.4874 53.1614 18.5426C55.0579 18.7153 55.6476 20.0401 56.4706 20.9639C56.9547 21.5087 57.391 21.8167 58.0591 21.8009C58.4989 21.7911 58.9946 21.5257 59.0677 21.478L63.9392 18.6659C63.9392 18.6659 63.4401 17.9137 62.4165 16.7415Z" fill="#FFB700"/>
</svg>
