<svg width="63" height="39" viewBox="0 0 63 39" fill="none" xmlns="http://www.w3.org/2000/svg">
<g clip-path="url(#clip0_1144_11745)">
<path d="M62.5005 19.0656C62.5005 29.5987 53.9179 38.1312 43.3332 38.1312C32.7486 38.1312 24.166 29.5987 24.166 19.0656C24.166 8.53248 32.7352 0 43.3199 0C53.9046 0 62.5005 8.53248 62.5005 19.0656Z" fill="#F79F1A"/>
<path d="M38.8345 19.0656C38.8345 29.5987 30.2519 38.1312 19.6672 38.1312C9.08254 38.1312 0.5 29.5987 0.5 19.0656C0.5 8.53248 9.08254 0 19.6672 0C30.2519 0 38.8345 8.53248 38.8345 19.0656Z" fill="#EA001B"/>
<path d="M31.4936 4.0542C27.0221 7.53874 24.1523 12.9709 24.1523 19.0655C24.1523 25.1602 27.0221 30.5923 31.4936 34.0769C35.965 30.5923 38.8348 25.1602 38.8348 19.0655C38.8348 12.9709 35.965 7.55199 31.4936 4.0542Z" fill="#FF5F01"/>
<path d="M62.4518 29.1901V28.5168H62.2823L62.0788 28.9881L61.8753 28.5H61.6888V29.1733H61.8075V28.6683L61.994 29.106H62.1296L62.3331 28.6683V29.1901H62.4518ZM61.3157 29.1901V28.6178H61.5531V28.5H60.9766V28.6178H61.214V29.1901H61.3157Z" fill="#F79F1A"/>
</g>
<defs>
<clipPath id="clip0_1144_11745">
<rect width="62" height="39" fill="white" transform="translate(0.5)"/>
</clipPath>
</defs>
</svg>
