<svg width="183" height="48" viewBox="0 0 183 48" fill="none" xmlns="http://www.w3.org/2000/svg">
<rect width="182.763" height="47.1633" rx="6" fill="#0E91EE"/>
<path d="M57.7589 17.2419C56.7051 16.3994 55.6653 15.8302 54.6341 15.54C53.6028 15.247 52.642 15.1004 51.746 15.1004C50.4921 15.1004 49.2946 15.323 48.1506 15.7682C47.0095 16.2134 46.0064 16.8502 45.1442 17.6814C44.282 18.5126 43.6113 19.5016 43.1295 20.6484C42.6477 21.7952 42.4082 23.0378 42.4082 24.3706C42.4082 25.7033 42.6843 27.022 43.231 28.3209C43.7804 29.6199 44.5863 30.6906 45.6485 31.5331C46.7136 32.3756 47.7646 32.9447 48.8071 33.235C49.8468 33.528 50.8274 33.6745 51.746 33.6745C52.9773 33.6745 54.1551 33.4519 55.2737 33.0067C56.3923 32.5615 57.3841 31.9247 58.2463 31.0935C59.1085 30.2623 59.7791 29.2677 60.261 28.1096C60.7428 26.9516 60.9823 25.7033 60.9823 24.3706C60.9823 23.0378 60.7062 21.7248 60.1595 20.4371C59.6101 19.1494 58.8099 18.0843 57.7589 17.2419ZM55.0877 26.7121C54.6059 27.3883 54.0508 27.8504 53.4253 28.104C52.7969 28.3576 52.2391 28.4844 51.746 28.4844C51.2529 28.4844 50.6499 28.3576 49.999 28.104C49.3509 27.8504 48.7846 27.3855 48.3028 26.7121C47.8209 26.0358 47.5814 25.2553 47.5814 24.3706C47.5814 23.6323 47.7702 22.9307 48.1534 22.2658C48.5338 21.6008 49.0607 21.0993 49.7341 20.7611C50.4076 20.423 51.0782 20.254 51.7488 20.254C52.8251 20.254 53.769 20.6456 54.589 21.4261C55.4061 22.2066 55.8147 23.1871 55.8147 24.3706C55.8147 25.2581 55.5724 26.0386 55.0934 26.7121H55.0877Z" fill="white"/>
<path d="M77.0437 18.2393C76.4604 17.6222 75.7673 17.1489 74.9614 16.8108C74.1556 16.4755 73.2708 16.3064 72.3072 16.3064C71.2759 16.3064 70.3151 16.4924 69.4191 16.8615C68.523 17.2306 67.7623 17.7519 67.1339 18.4225V16.8108H61.7578V33.6745H67.1339V25.847C67.1339 24.2776 67.4411 23.1026 68.0581 22.3193C68.6724 21.536 69.5289 21.1443 70.6278 21.1443C71.2562 21.1443 71.8028 21.3218 72.2734 21.6825C72.7439 22.0404 73.0679 22.4771 73.2483 22.9927C73.4286 23.5084 73.5159 24.0015 73.5159 24.472V33.6773H78.8583V23.3308C78.8583 22.2996 78.7005 21.3472 78.3877 20.4765C78.0749 19.6031 77.6269 18.8592 77.0437 18.2421V18.2393Z" fill="white"/>
<path d="M104.935 11.5389L98.5279 26.3204L94.5297 16.4783H88.7506L87.0544 16.4811V11.336H81.6783V16.4811H78.6211V20.8175H81.6783V26.9572C81.6783 29.1296 82.2672 30.792 83.4421 31.9445C84.6171 33.0969 86.2682 33.6745 88.3984 33.6745C89.3705 33.6745 92.6897 33.5055 93.6703 33.1673L91.9909 29.0141C91.7542 29.1127 87.0516 30.1891 87.0516 26.4162V20.8147H90.6046L95.7328 32.801L93.0109 39.0816H98.8238L110.706 11.5333H104.927L104.935 11.5389Z" fill="white"/>
<path d="M28.8379 25.6582L21.4697 11.739H16.1641V33.6801H21.4049V21.9248L27.5925 33.6801H30.0833L36.2371 21.9896V33.6801H41.478V11.739H36.2061L28.8379 25.6582Z" fill="white"/>
<path d="M113.483 29.2423V11.5333L107.879 24.4072V34.2859H124.937V29.2423H113.48H113.483Z" fill="white"/>
<path d="M144.78 16.2078V33.7252H140.049V31.5894C138.579 33.3758 136.722 34.2859 134.445 34.2859C132.168 34.2859 130.03 33.3758 128.243 31.519C126.457 29.696 125.547 27.5235 125.547 24.9679C125.547 22.4123 126.457 20.237 128.243 18.383C130.03 16.56 132.098 15.6499 134.445 15.6499C136.792 15.6499 138.579 16.56 140.049 18.3464V16.2106H144.78V16.2078ZM138.195 28.1885C139.035 27.3122 139.458 26.2274 139.458 24.9651C139.458 23.7028 139.038 22.618 138.195 21.7079C137.356 20.8316 136.339 20.3779 135.183 20.3779C134.028 20.3779 133.011 20.8344 132.171 21.7079C131.332 22.618 130.909 23.7056 130.909 24.9651C130.909 26.2246 131.329 27.3122 132.171 28.1885C133.011 29.0986 134.028 29.5551 135.183 29.5551C136.339 29.5551 137.356 29.0986 138.195 28.1885Z" fill="white"/>
<path d="M163.904 18.3802C165.691 20.237 166.601 22.4095 166.601 24.9651C166.601 27.5207 165.691 29.696 163.904 31.5162C162.118 33.373 160.05 34.2831 157.702 34.2831C155.355 34.2831 153.569 33.373 152.098 31.55V33.7224H147.367V8.0816H152.726V17.6814C154.127 16.3148 155.775 15.6499 157.702 15.6499C160.05 15.6499 162.118 16.56 163.904 18.383V18.3802ZM160.013 28.1885C160.853 27.3122 161.275 26.2274 161.275 24.9651C161.275 23.7028 160.855 22.618 160.013 21.7079C159.173 20.8316 158.156 20.3779 157.001 20.3779C155.846 20.3779 154.828 20.8344 153.989 21.7079C153.149 22.618 152.726 23.7056 152.726 24.9651C152.726 26.2246 153.146 27.3122 153.989 28.1885C154.828 29.0986 155.846 29.5551 157.001 29.5551C158.156 29.5551 159.173 29.0986 160.013 28.1885Z" fill="white"/>
</svg>
