<svg width="70" height="46" viewBox="0 0 70 46" fill="none" xmlns="http://www.w3.org/2000/svg">
<g clip-path="url(#clip0_4634_17258)">
<path fill-rule="evenodd" clip-rule="evenodd" d="M65.625 0H4.375C1.96875 0 0 1.97143 0 4.38095V41.619C0 44.0286 1.96875 46 4.375 46H65.625C68.0312 46 70 44.0286 70 41.619V4.38095C70 1.97143 68.0312 0 65.625 0Z" fill="#FFCB05"/>
<path d="M65.6313 22.4982C65.6313 29.403 52.0582 35 35.3175 35C18.5732 35 5 29.403 5 22.4982C5 15.5934 18.5732 10 35.3175 10C52.0582 10 65.6313 15.5934 65.6313 22.4982Z" fill="#00678F"/>
<path d="M65.6313 22.4982C65.6313 29.403 52.0582 35 35.3175 35C18.5732 35 5 29.403 5 22.4982C5 15.5934 18.5732 10 35.3175 10C52.0582 10 65.6313 15.5934 65.6313 22.4982Z" fill="#00678F"/>
<path d="M15.8926 28.6687L19.0279 16.1669H24.0372V23.4479L27.3302 16.1669H32.5007L29.369 28.6687H26.076L27.9536 20.5993L24.0372 28.6687H21.3785V20.5993L19.336 28.6687H15.8926Z" fill="white"/>
<path d="M33.5156 28.8263L33.985 27.0848H37.5897L37.1167 28.8263H33.5156Z" fill="#ED1D24"/>
<path d="M41.5801 28.6687L44.7118 16.1669H48.3165L49.8859 22.8173L51.6059 16.1669H54.8953L51.7635 28.6687H48.3165L46.593 21.8642L44.8695 28.6687H41.5801Z" fill="white"/>
<path d="M33.5152 16.1669L32.7305 19.3344H36.0234L34.2497 26.2034H37.8509L39.6281 19.3344H42.9175L43.6986 16.1669H33.5152Z" fill="#FFCB05"/>
</g>
<defs>
<clipPath id="clip0_4634_17258">
<rect width="70" height="46" fill="white"/>
</clipPath>
</defs>
</svg>
