<svg width="70" height="46" viewBox="0 0 70 46" fill="none" xmlns="http://www.w3.org/2000/svg">
<g clip-path="url(#clip0_3285_14734)">
<path d="M4.29825 1H65.7018C67.5618 1 69 2.43821 69 4.12821V41.8718C69 43.5618 67.5618 45 65.7018 45H4.29825C2.43825 45 1 43.5618 1 41.8718V4.12821C1 2.4382 2.43825 1 4.29825 1Z" fill="white" stroke="#F3F3F3" stroke-width="2"/>
<g clip-path="url(#clip1_3285_14734)">
<path d="M40.0987 19.4739C42.021 19.4739 43.713 20.8585 43.713 22.8958C43.713 24.9332 42.021 26.3315 40.0987 26.3315C38.1764 26.3315 36.4844 24.9606 36.4844 22.8958C36.4844 20.831 38.1885 19.4739 40.0987 19.4739ZM40.0987 24.6909C41.047 24.6909 41.8543 23.9214 41.8543 22.8958C41.8543 21.8703 41.047 21.1144 40.0987 21.1144C39.1505 21.1144 38.3431 21.8703 38.3431 22.8958C38.3431 23.9214 39.1642 24.6909 40.0987 24.6909Z" fill="black"/>
<path d="M44.2129 19.4739H46.1231V20.5115C46.6746 19.7419 47.3668 19.4739 48.1622 19.4739C50.0089 19.4739 50.5088 20.9478 50.5088 22.6141V26.1906H48.5985V22.6519C48.5985 21.7414 48.2653 21.0491 47.3806 21.0491C46.4959 21.0491 46.1248 21.7534 46.1248 22.6639V26.1889H44.2146V19.4739H44.2129Z" fill="black"/>
<path d="M53.2841 19.4894H55.105V20.989H53.2841V24.1928C53.2841 24.4745 53.3992 24.77 53.7719 24.77C54.1447 24.77 54.2718 24.4625 54.2718 24.155C54.2718 23.9626 54.2203 23.6929 54.1825 23.5916H55.6959C55.811 23.8355 55.8505 24.143 55.8505 24.3732C55.8505 25.3472 55.2098 26.3349 53.6585 26.3349C52.5042 26.3349 51.3773 25.9244 51.3773 24.0141L51.3652 18.0017H53.2875V19.4911L53.2841 19.4894Z" fill="black"/>
<path d="M9.91024 19.4739H8V26.1906H9.91024V19.4739Z" fill="black"/>
<path d="M15.7571 19.4739C15.1283 19.4739 14.1801 19.6147 13.6802 20.5767C13.347 19.9102 12.6667 19.4739 11.6669 19.4739C11.2185 19.4739 10.8681 19.6113 10.5469 19.8363V21.1436C10.6465 21.0955 10.7977 21.0509 11.0004 21.0509C11.8473 21.0509 12.1032 21.7552 12.1032 22.6536V26.1923H13.9997V22.6673C13.9997 21.7827 14.2557 21.0526 15.0888 21.0526C15.922 21.0526 16.1917 21.7569 16.1917 22.6553V26.1941H18.1019V22.6175C18.1019 20.9512 17.602 19.4773 15.7554 19.4773L15.7571 19.4739Z" fill="black"/>
<path d="M27.9317 19.4739H26.0215V26.1907H27.9317V19.4739Z" fill="black"/>
<path d="M33.7766 19.4739C33.1479 19.4739 32.1996 19.6148 31.6997 20.5768C31.3665 19.9103 30.6862 19.4739 29.6864 19.4739C29.2381 19.4739 28.8876 19.6114 28.5664 19.8364V21.1437C28.666 21.0956 28.8172 21.0509 29.0199 21.0509C29.8668 21.0509 30.1228 21.7552 30.1228 22.6537V26.1924H32.0193V22.6674C32.0193 21.7827 32.2752 21.0526 33.1084 21.0526C33.9415 21.0526 34.2112 21.7569 34.2112 22.6554V26.1941H36.1215V22.6176C36.1215 20.9513 35.6216 19.4774 33.7749 19.4774L33.7766 19.4739Z" fill="black"/>
<path d="M21.1124 22.5317L19.7794 19.4739H17.8691L20.1367 24.7271L21.1124 22.5317Z" fill="black"/>
<path d="M23.4052 19.4739L19.1484 29.0492H21.0638L25.3206 19.4739H23.4052Z" fill="black"/>
<path d="M58.7902 22.5317L57.4571 19.4739H55.5469L57.8161 24.7271L58.7902 22.5317Z" fill="black"/>
<path d="M61.0832 19.4739L56.8281 29.0492H58.7435L62.9986 19.4739H61.0832Z" fill="black"/>
</g>
</g>
<defs>
<clipPath id="clip0_3285_14734">
<rect width="70" height="46" fill="white"/>
</clipPath>
<clipPath id="clip1_3285_14734">
<rect width="55" height="11.0491" fill="white" transform="translate(8 18)"/>
</clipPath>
</defs>
</svg>
