<svg width="42" height="42" viewBox="0 0 42 42" fill="none" xmlns="http://www.w3.org/2000/svg">
<path d="M4.63917 37.36L11.1834 30.8158M30.816 11.1832L37.3602 4.639M30.816 30.8158L37.3602 37.36M4.63917 4.639L11.1834 11.1832M7.91128 34.0879C0.682748 26.8594 0.682748 15.1396 7.91128 7.9111C15.1398 0.682577 26.8596 0.682575 34.0881 7.9111C41.3166 15.1396 41.3166 26.8594 34.0881 34.0879C26.8596 41.3164 15.1398 41.3164 7.91128 34.0879ZM16.0915 25.9077C13.3808 23.197 13.3808 18.8021 16.0915 16.0914C18.8022 13.3807 23.1971 13.3807 25.9078 16.0914C28.6185 18.8021 28.6185 23.197 25.9078 25.9077C23.1971 28.6184 18.8022 28.6184 16.0915 25.9077Z" stroke="black" stroke-width="4" stroke-linecap="round" stroke-linejoin="round"/>
</svg>
