<svg width="119" height="32" viewBox="0 0 119 32" fill="none" xmlns="http://www.w3.org/2000/svg">
<path fill-rule="evenodd" clip-rule="evenodd" d="M13.0477 30.3435L13.0476 30.3435L13.0475 30.3435C12.3111 30.4179 11.5666 30.4932 10.812 30.5937L5.0934 13.8438V31.3126C3.48655 31.4817 2.00684 31.7017 0.493644 31.9267H0.493633L0.493603 31.9267L0 32V0H4.74988L11.2494 18.1565V0H16.2803V29.9374C15.2162 30.1242 14.1409 30.2329 13.0478 30.3434L13.0478 30.3434L13.0477 30.3434L13.0477 30.3435ZM29.6032 11.6704L29.6033 11.6704C30.7839 11.6474 31.9402 11.625 32.812 11.625V16.6249C30.5933 16.6249 27.9998 16.6249 26.1249 16.7186V24.1563C26.9579 24.1031 27.791 24.0449 28.6248 23.9867C30.7309 23.8395 32.8415 23.692 34.9681 23.6248V28.4371L21.125 29.531V0H34.9681V5.00001H26.1249V11.7188C27.114 11.7188 28.3718 11.6943 29.6032 11.6704ZM48.3742 5.00012H53.5613L53.5616 0H38.1875V5.00012H43.3747V28.0624C44.9993 28.0001 46.6867 28.0001 48.3742 28.0001V5.00012ZM61.6837 11.3751H68.5272V16.375H61.6837V27.7189H56.7773V0H70.7458V5.00001H61.6837V11.3751ZM85.0969 23.6452C83.0373 23.5182 80.9457 23.3892 78.8707 23.3437V0H73.8711V28.0624C78.4333 28.1564 82.9019 28.4373 87.3703 28.7187V23.7812C86.6185 23.739 85.8599 23.6922 85.0969 23.6452ZM91.5898 29.0625L91.8524 29.0779C93.368 29.1669 94.9599 29.2604 96.4958 29.4374V0H91.5898V29.0625ZM112.058 15.2188L118.401 0H112.933L109.433 8.40627L106.152 0H100.777L106.589 15.0311L100.152 29.6874C100.902 29.7907 101.64 29.8674 102.377 29.9439C103.422 30.0523 104.464 30.1605 105.527 30.3439L109.183 21.8439L112.776 31.0937C113.245 31.1718 113.713 31.2518 114.181 31.3318C115.588 31.5721 116.994 31.8125 118.401 32L112.058 15.2188Z" fill="#787878"/>
</svg>
