<svg width="70" height="46" viewBox="0 0 70 46" fill="none" xmlns="http://www.w3.org/2000/svg">
<rect width="70" height="46" rx="5" fill="white"/>
<path d="M19.3834 23.4896C19.3834 23.5912 19.3834 23.676 19.3834 23.7607C19.3834 23.8624 19.3834 23.9471 19.3749 24.0318H12.8488C12.8572 24.3792 12.9329 24.7012 13.0843 25.0147C13.2356 25.3281 13.4207 25.5823 13.6645 25.8111C13.9084 26.0314 14.186 26.2093 14.5055 26.3449C14.8251 26.472 15.1615 26.5313 15.5147 26.5313C16.0698 26.5313 16.5492 26.4042 16.9613 26.1669C17.365 25.9212 17.6761 25.6162 17.9116 25.2688L19.0554 26.1924C18.6096 26.777 18.105 27.2091 17.4995 27.4887C16.9108 27.7598 16.238 27.8954 15.5147 27.8954C14.884 27.8954 14.3205 27.7937 13.7907 27.5819C13.2609 27.3701 12.8067 27.082 12.4199 26.7007C12.0414 26.3279 11.7387 25.8704 11.52 25.3366C11.3013 24.8028 11.1836 24.2097 11.1836 23.5573C11.1836 22.9219 11.2929 22.3288 11.5032 21.7781C11.7134 21.2273 12.0246 20.7698 12.3946 20.3885C12.7731 20.0073 13.2356 19.7022 13.7486 19.4904C14.2701 19.2786 14.8335 19.1685 15.4222 19.1685C16.0278 19.1685 16.566 19.2701 17.0622 19.465C17.5584 19.6599 17.9789 19.9479 18.3069 20.3208C18.6517 20.6936 18.9124 21.1426 19.0974 21.6764C19.2993 22.2356 19.3834 22.8287 19.3834 23.4896ZM17.7266 22.8287C17.7182 22.5067 17.6677 22.1932 17.5668 21.9052C17.4659 21.6171 17.3229 21.3714 17.1379 21.1596C16.9529 20.9477 16.709 20.7868 16.423 20.6597C16.1371 20.5326 15.8091 20.4733 15.4222 20.4733C15.0774 20.4733 14.741 20.5326 14.4467 20.6597C14.1355 20.7868 13.8832 20.9477 13.6477 21.1596C13.4291 21.3714 13.244 21.6171 13.0927 21.9052C12.9413 22.1932 12.8572 22.4982 12.8488 22.8287H17.7266Z" fill="#0069B1"/>
<path d="M35.8252 19.4224L33.9666 25.8023L31.9566 19.4224H30.2409L28.2646 25.8023L26.3891 19.4224H24.623L27.3647 27.7002H29.0551L31.0651 21.4897H31.0988L33.1256 27.7002H34.8244L37.5408 19.4224H35.8252Z" fill="#0069B1"/>
<path d="M46.2374 23.5404C46.2374 24.1844 46.128 24.769 45.901 25.3028C45.6823 25.8366 45.3543 26.2941 44.9674 26.6923C44.5722 27.0736 44.1012 27.3871 43.563 27.5989C43.0163 27.8107 42.4444 27.9208 41.8137 27.9208C41.1829 27.9208 40.6027 27.8107 40.0644 27.5989C39.5178 27.3871 39.0552 27.0736 38.6599 26.6923C38.2647 26.311 37.9535 25.8366 37.7348 25.3028C37.5162 24.769 37.3984 24.1844 37.3984 23.5404C37.3984 22.905 37.5078 22.3119 37.7348 21.7866C37.9535 21.2528 38.2647 20.8037 38.6599 20.4225C39.0552 20.0412 39.5262 19.7362 40.0644 19.5244C40.6111 19.3125 41.1829 19.2024 41.8137 19.2024C42.4444 19.2024 43.0247 19.3125 43.563 19.5244C44.1096 19.7362 44.5722 20.0327 44.9674 20.4225C45.3627 20.8122 45.6823 21.2697 45.901 21.7866C46.128 22.3204 46.2374 22.905 46.2374 23.5404ZM44.5385 23.5489C44.5385 23.1507 44.4797 22.7779 44.3535 22.422C44.2274 22.0577 44.0592 21.7527 43.8237 21.4816C43.5882 21.2104 43.3023 20.9986 42.9575 20.8207C42.6126 20.6597 42.2258 20.575 41.7885 20.575C41.3427 20.575 40.9643 20.6597 40.6195 20.8207C40.2747 20.9817 39.9887 21.202 39.7532 21.4816C39.5178 21.7612 39.3496 22.0662 39.2234 22.422C39.0973 22.7864 39.0384 23.1592 39.0384 23.5489C39.0384 23.9471 39.0973 24.3199 39.2234 24.6758C39.3496 25.0316 39.5178 25.3621 39.7532 25.6332C39.9887 25.9043 40.2747 26.1331 40.6195 26.2941C40.9643 26.4551 41.3511 26.5398 41.7885 26.5398C42.2342 26.5398 42.6126 26.4551 42.9575 26.2941C43.3023 26.1331 43.5882 25.9128 43.8237 25.6332C44.0592 25.3621 44.2274 25.0401 44.3535 24.6758C44.4881 24.3199 44.5385 23.9471 44.5385 23.5489Z" fill="#0069B1"/>
<path d="M54.1315 16.8638H52.5V27.7004H54.1315V16.8638Z" fill="#0069B1"/>
<path d="M23.9754 20.6765V19.4225H21.9233V16.8638H20.3086V25.2518C20.3086 26.1075 20.5188 26.7515 20.9225 27.192C21.3262 27.6242 21.9233 27.836 22.697 27.836C22.9577 27.836 23.1932 27.8106 23.4371 27.7767C23.6305 27.7428 23.8072 27.7004 23.9669 27.6411V26.2855C23.8408 26.3363 23.7062 26.3702 23.5633 26.4126C23.3867 26.4464 23.2269 26.4634 23.0839 26.4634C22.6802 26.4634 22.3775 26.3532 22.1924 26.1414C22.0074 25.9296 21.9233 25.5738 21.9233 25.0739V20.685H23.9754V20.6765Z" fill="#0069B1"/>
<path d="M51.1224 19.2024C50.5674 19.2024 50.0712 19.3549 49.6339 19.6514C49.1881 19.948 48.7929 20.3377 48.5742 20.8292V19.4227H47.0352V27.7006H48.6667V23.354C48.6667 23.0067 48.7172 22.6677 48.8013 22.3458C48.8854 22.0238 49.0367 21.7527 49.2218 21.4985C49.4068 21.2528 49.6507 21.0664 49.9366 20.9139C50.2226 20.7614 50.5674 20.6936 50.9626 20.6936C51.2233 20.6936 51.4672 20.719 51.7027 20.7783V19.2532C51.5345 19.2109 51.3495 19.2024 51.1224 19.2024Z" fill="#0069B1"/>
<path d="M10.1401 21.2527C10.0139 20.846 9.82893 20.4987 9.57663 20.1852C9.31592 19.8886 9.01316 19.6344 8.6263 19.465C8.24785 19.287 7.7853 19.1938 7.25547 19.1938C6.96112 19.1938 6.66677 19.2277 6.38924 19.3209C6.12011 19.4057 5.8594 19.5158 5.62392 19.6598C5.38844 19.8124 5.19501 19.9733 5.00999 20.1682C4.82497 20.3546 4.63995 20.5664 4.53062 20.7867V19.4311H3V27.709H4.63154V23.3116C4.63154 22.4897 4.84179 21.8204 5.24547 21.3375C5.64915 20.8376 6.17898 20.5919 6.82656 20.5919C7.20501 20.5919 7.51618 20.6681 7.76007 20.8037C8.00396 20.9392 8.18898 21.1256 8.32354 21.3629C8.4581 21.6001 8.55902 21.8628 8.60948 22.1678C8.65994 22.4643 8.68517 22.7863 8.68517 23.1252V27.709H10.3251V22.5745C10.3251 22.1 10.2662 21.6594 10.1401 21.2527Z" fill="#0069B1"/>
<path d="M57.5977 19.4224H59.6077L56.1428 23.591L59.5573 27.7002H57.5473L54.1328 23.591L57.5977 19.4224Z" fill="#0069B1"/>
<path d="M63.5354 19.4224H61.5254L64.9903 23.591L61.5758 27.7002H63.5858L67.0003 23.591L63.5354 19.4224Z" fill="#E12E56"/>
</svg>
