<svg width="54" height="54" viewBox="0 0 54 54" fill="none" xmlns="http://www.w3.org/2000/svg">
<path d="M24.75 9H17.55C13.7696 9 11.8795 9 10.4356 9.73571C9.16547 10.3829 8.13285 11.4155 7.48571 12.6856C6.75 14.1295 6.75 16.0196 6.75 19.8V36.45C6.75 40.2304 6.75 42.1205 7.48571 43.5644C8.13285 44.8345 9.16547 45.8671 10.4356 46.5143C11.8795 47.25 13.7696 47.25 17.55 47.25H34.2C37.9804 47.25 39.8705 47.25 41.3144 46.5143C42.5845 45.8671 43.6171 44.8345 44.2643 43.5644C45 42.1205 45 40.2304 45 36.45V29.25M45.273 8.72703C47.909 11.3631 47.909 15.6369 45.273 18.273C42.6369 20.909 38.3631 20.909 35.727 18.273C33.091 15.6369 33.091 11.3631 35.727 8.72703C38.3631 6.09099 42.6369 6.09099 45.273 8.72703Z" stroke="black" stroke-width="2" stroke-linecap="round" stroke-linejoin="round"/>
</svg>
