<svg width="42" height="42" viewBox="0 0 42 42" fill="none" xmlns="http://www.w3.org/2000/svg">
<path d="M13.125 7.875C13.125 5.45875 15.0838 3.5 17.5 3.5C19.9162 3.5 21.875 5.45875 21.875 7.875V10.5H23.625C26.0712 10.5 27.2943 10.5 28.2591 10.8996C29.5455 11.4325 30.5675 12.4545 31.1004 13.7409C31.5 14.7057 31.5 15.9288 31.5 18.375H34.125C36.5412 18.375 38.5 20.3338 38.5 22.75C38.5 25.1662 36.5412 27.125 34.125 27.125H31.5V30.1C31.5 33.0403 31.5 34.5104 30.9278 35.6334C30.4244 36.6213 29.6213 37.4244 28.6335 37.9278C27.5104 38.5 26.0403 38.5 23.1 38.5H21.875V35.4375C21.875 33.2629 20.1121 31.5 17.9375 31.5C15.7629 31.5 14 33.2629 14 35.4375V38.5H11.9C8.95972 38.5 7.48959 38.5 6.36655 37.9278C5.3787 37.4244 4.57555 36.6213 4.07222 35.6334C3.5 34.5104 3.5 33.0403 3.5 30.1V27.125H6.125C8.54125 27.125 10.5 25.1662 10.5 22.75C10.5 20.3338 8.54125 18.375 6.125 18.375H3.5C3.5 15.9288 3.5 14.7057 3.89963 13.7409C4.43248 12.4545 5.45451 11.4325 6.74091 10.8996C7.70571 10.5 8.92881 10.5 11.375 10.5H13.125V7.875Z" stroke="white" stroke-width="2" stroke-linecap="round" stroke-linejoin="round"/>
</svg>
