
<svg width="54" height="54" viewBox="0 0 54 54" fill="none" xmlns="http://www.w3.org/2000/svg">
<path d="M46.1249 16.3748L26.9999 26.9998M26.9999 26.9998L7.87493 16.3748M26.9999 26.9998L27 48.3748M31.5 46.9998L28.7483 48.5285C28.1102 48.883 27.7912 49.0603 27.4533 49.1298C27.1542 49.1913 26.8458 49.1913 26.5467 49.1298C26.2089 49.0603 25.8898 48.883 25.2517 48.5285L8.60169 39.2785C7.92778 38.9042 7.59079 38.7169 7.34542 38.4507C7.12835 38.2151 6.96408 37.9359 6.86359 37.6318C6.75 37.288 6.75 36.9025 6.75 36.1316V17.8681C6.75 17.0971 6.75 16.7117 6.86359 16.3679C6.96408 16.0637 7.12835 15.7845 7.34542 15.549C7.59079 15.2827 7.92776 15.0955 8.60169 14.7211L25.2517 5.47111C25.8898 5.11661 26.2089 4.93935 26.5467 4.86986C26.8458 4.80835 27.1542 4.80835 27.4533 4.86986C27.7912 4.93935 28.1102 5.1166 28.7483 5.47111L45.3983 14.7211C46.0722 15.0955 46.4092 15.2827 46.6546 15.549C46.8716 15.7845 47.0359 16.0637 47.1364 16.3679C47.25 16.7117 47.25 17.0971 47.25 17.8681L47.25 28.1248M16.875 10.1248L37.125 21.3748M36 40.4998L40.5 44.9998L49.5 35.9998" stroke="black" stroke-width="2" stroke-linecap="round" stroke-linejoin="round"/>
</svg>
