<svg width="70" height="46" viewBox="0 0 70 46" fill="none" xmlns="http://www.w3.org/2000/svg">
<rect x="0.5" y="0.5" width="69" height="45" rx="4.5" fill="white"/>
<rect x="0.5" y="0.5" width="69" height="45" rx="4.5" stroke="#139AD6"/>
<path d="M52.2004 19.1741H48.8004C48.6004 19.1741 48.4004 19.3728 48.3004 19.5716L46.9004 28.3169C46.9004 28.5157 47.0004 28.6151 47.2004 28.6151H49.0004C49.2004 28.6151 49.3004 28.5157 49.3004 28.3169L49.7004 25.8325C49.7004 25.6337 49.9004 25.4349 50.2004 25.4349H51.3004C53.6004 25.4349 54.9004 24.3418 55.2004 22.1554C55.4004 21.261 55.2004 20.466 54.8004 19.9691C54.2004 19.4722 53.3004 19.1741 52.2004 19.1741ZM52.6004 22.4536C52.4004 23.6461 51.5004 23.6461 50.6004 23.6461H50.0004L50.4004 21.3604C50.4004 21.261 50.5004 21.1617 50.7004 21.1617H50.9004C51.5004 21.1617 52.1004 21.1616 52.4004 21.5592C52.6004 21.6585 52.6004 21.9567 52.6004 22.4536Z" fill="#139AD6"/>
<path d="M27.7004 19.1741H24.3004C24.1004 19.1741 23.9004 19.3728 23.8004 19.5716L22.4004 28.3169C22.4004 28.5157 22.5004 28.6151 22.7004 28.6151H24.3004C24.5004 28.6151 24.7004 28.4163 24.8004 28.2175L25.2004 25.8325C25.2004 25.6337 25.4004 25.4349 25.7004 25.4349H26.8004C29.1004 25.4349 30.4004 24.3418 30.7004 22.1554C30.9004 21.261 30.7004 20.466 30.3004 19.9691C29.7004 19.4722 28.9004 19.1741 27.7004 19.1741ZM28.1004 22.4536C27.9004 23.6461 27.0004 23.6461 26.1004 23.6461H25.6004L26.0004 21.3604C26.0004 21.261 26.1004 21.1617 26.3004 21.1617H26.5004C27.1004 21.1617 27.7004 21.1616 28.0004 21.5592C28.1004 21.6585 28.2004 21.9567 28.1004 22.4536Z" fill="#263B80"/>
<path d="M38.0009 22.3543H36.4009C36.3009 22.3543 36.1009 22.4537 36.1009 22.553L36.0009 23.0499L35.9009 22.8512C35.5009 22.3543 34.8009 22.1555 34.0009 22.1555C32.2009 22.1555 30.6009 23.5468 30.3009 25.435C30.1009 26.4288 30.4009 27.3232 30.9009 27.9195C31.4009 28.5158 32.1009 28.7145 33.0009 28.7145C34.5009 28.7145 35.3009 27.8201 35.3009 27.8201L35.2009 28.317C35.2009 28.5158 35.3009 28.6151 35.5009 28.6151H37.0009C37.2009 28.6151 37.4009 28.4164 37.5009 28.2176L38.4009 22.6524C38.3009 22.553 38.1009 22.3543 38.0009 22.3543ZM35.7009 25.5344C35.5009 26.4288 34.8009 27.1245 33.8009 27.1245C33.3009 27.1245 32.9009 26.9257 32.7009 26.7269C32.5009 26.4288 32.4009 26.0313 32.4009 25.5344C32.5009 24.64 33.3009 23.9443 34.2009 23.9443C34.7009 23.9443 35.0009 24.1431 35.3009 24.3419C35.6009 24.64 35.7009 25.1369 35.7009 25.5344Z" fill="#263B80"/>
<path d="M62.3994 22.3543H60.7994C60.6994 22.3543 60.4994 22.4537 60.4994 22.553L60.3994 23.0499L60.2994 22.8512C59.8994 22.3543 59.1994 22.1555 58.3994 22.1555C56.5994 22.1555 54.9994 23.5468 54.6994 25.435C54.4994 26.4288 54.7994 27.3232 55.2994 27.9195C55.7994 28.5158 56.4994 28.7145 57.3994 28.7145C58.8994 28.7145 59.6994 27.8201 59.6994 27.8201L59.5994 28.317C59.5994 28.5158 59.6994 28.6151 59.8994 28.6151H61.3994C61.5994 28.6151 61.7994 28.4164 61.8994 28.2176L62.7994 22.6524C62.6994 22.553 62.5994 22.3543 62.3994 22.3543ZM60.0994 25.5344C59.8994 26.4288 59.1994 27.1245 58.1994 27.1245C57.6994 27.1245 57.2994 26.9257 57.0994 26.7269C56.8994 26.4288 56.7994 26.0313 56.7994 25.5344C56.8994 24.64 57.6994 23.9443 58.5994 23.9443C59.0994 23.9443 59.3994 24.1431 59.6994 24.3419C60.0994 24.64 60.1994 25.1369 60.0994 25.5344Z" fill="#139AD6"/>
<path d="M46.7 22.354H45C44.8 22.354 44.7 22.4534 44.6 22.5528L42.4 25.9316L41.4 22.7515C41.3 22.5528 41.2 22.4534 40.9 22.4534H39.3C39.1 22.4534 39 22.6521 39 22.8509L40.8 28.118L39.1 30.5031C39 30.7018 39.1 31 39.3 31H40.9C41.1 31 41.2 30.9006 41.3 30.8012L46.8 22.9503C47.1 22.6521 46.9 22.354 46.7 22.354Z" fill="#263B80"/>
<path d="M64.3004 19.4721L62.9004 28.4162C62.9004 28.615 63.0004 28.7144 63.2004 28.7144H64.6004C64.8004 28.7144 65.0004 28.5156 65.1004 28.3168L66.5004 19.5715C66.5004 19.3727 66.4004 19.2734 66.2004 19.2734H64.6004C64.5004 19.174 64.4004 19.2734 64.3004 19.4721Z" fill="#139AD6"/>
<path d="M17.668 14.4692C16.8056 13.4897 15.204 13 12.9864 13H6.82641C6.45681 13 6.08721 13.3673 5.96401 13.7346L3.5 29.7736C3.5 30.1409 3.7464 30.3858 3.9928 30.3858H7.81201L8.79761 24.3865V24.6313C8.92081 24.264 9.29041 23.8967 9.66001 23.8967H11.508C15.0808 23.8967 17.7912 22.4275 18.6536 18.3871C18.6536 18.2647 18.6536 18.1423 18.6536 18.0198C18.5304 18.0198 18.5304 18.0198 18.6536 18.0198C18.7768 16.4282 18.5304 15.4487 17.668 14.4692Z" fill="#263B80"/>
<path d="M18.5294 18.02C18.5294 18.1425 18.5294 18.2649 18.5294 18.3873C17.667 22.5501 14.9566 23.8969 11.3838 23.8969H9.53581C9.16621 23.8969 8.79661 24.2642 8.67341 24.6315L7.44141 32.1001C7.44141 32.3449 7.56461 32.5898 7.93421 32.5898H11.1374C11.507 32.5898 11.8766 32.3449 11.8766 31.9776V31.8552L12.4926 28.0597V27.8148C12.4926 27.4475 12.8622 27.2026 13.2318 27.2026H13.7246C16.8046 27.2026 19.2686 25.9783 19.8846 22.3052C20.131 20.836 20.0078 19.4892 19.2686 18.6322C19.1454 18.3873 18.899 18.1425 18.5294 18.02Z" fill="#139AD6"/>
<path d="M17.6692 17.652C17.546 17.652 17.4228 17.5295 17.2996 17.5295C17.1764 17.5295 17.0532 17.5295 16.93 17.4071C16.4372 17.2847 15.9444 17.2847 15.3284 17.2847H10.5236C10.4004 17.2847 10.2772 17.2847 10.154 17.4071C9.90763 17.5295 9.78443 17.7744 9.78443 18.0193L8.79883 24.3859V24.6308C8.92203 24.2635 9.29163 23.8962 9.66123 23.8962H11.5092C15.082 23.8962 17.7924 22.4269 18.6549 18.3866C18.6549 18.2641 18.6548 18.1417 18.778 18.0193C18.5316 17.8968 18.4084 17.7744 18.162 17.7744C17.7924 17.652 17.7924 17.652 17.6692 17.652Z" fill="#232C65"/>
</svg>
