<svg width="54" height="54" viewBox="0 0 54 54" fill="none" xmlns="http://www.w3.org/2000/svg">
<path d="M27 39.375H27.0225M18.45 49.5H35.55C38.0702 49.5 39.3304 49.5 40.293 49.0095C41.1397 48.5781 41.8281 47.8897 42.2595 47.043C42.75 46.0804 42.75 44.8202 42.75 42.3V11.7C42.75 9.17976 42.75 7.91965 42.2595 6.95704C41.8281 6.11031 41.1397 5.4219 40.293 4.99047C39.3304 4.5 38.0702 4.5 35.55 4.5H18.45C15.9298 4.5 14.6696 4.5 13.707 4.99047C12.8603 5.4219 12.1719 6.11031 11.7405 6.95704C11.25 7.91965 11.25 9.17976 11.25 11.7V42.3C11.25 44.8202 11.25 46.0804 11.7405 47.043C12.1719 47.8897 12.8603 48.5781 13.707 49.0095C14.6696 49.5 15.9298 49.5 18.45 49.5ZM28.125 39.375C28.125 39.9963 27.6213 40.5 27 40.5C26.3787 40.5 25.875 39.9963 25.875 39.375C25.875 38.7537 26.3787 38.25 27 38.25C27.6213 38.25 28.125 38.7537 28.125 39.375Z" stroke="black" stroke-width="2" stroke-linecap="round" stroke-linejoin="round"/>
</svg>
