<svg width="100" height="101" viewBox="0 0 100 101" fill="none" xmlns="http://www.w3.org/2000/svg">
<path d="M79.6 49.5H57.9C56.3 49.5 55 48.2 55 46.6V21.4C55 19.8 56.3 18.5 57.9 18.5H79.5C81.1 18.4 82.4 19.6 82.4 21.2V46.5C82.5 48.1 81.2 49.5 79.6 49.5Z" fill="#00F7F7"/>
<path d="M34.9808 58.8553C35.2166 59.0911 35.5703 59.209 35.924 59.209H36.0419C36.3956 59.209 36.7492 58.9732 36.985 58.6195L43.8231 49.1877C44.2947 48.5983 44.1768 47.773 43.4694 47.3014C42.8799 46.8298 42.0546 46.9477 41.583 47.6551L35.5703 55.79L32.6229 52.8425C32.1513 52.371 31.2081 52.371 30.7365 52.8425C30.2649 53.3141 30.2649 54.2573 30.7365 54.7289L34.9808 58.8553Z" fill="#0F0C22"/>
<path d="M52.4309 77.1293C53.0204 76.5399 53.2561 75.7146 52.9025 74.7714L49.1298 65.4575C50.0729 65.1039 50.8982 64.5144 51.6056 63.6891C52.9025 62.0385 52.9025 59.9164 51.8414 58.1479C51.2519 57.0869 51.6056 55.79 52.6667 55.0826C54.4351 53.9036 55.2604 51.8994 54.7888 49.8951C54.3172 47.773 52.6667 46.3582 50.4266 46.0045C49.1298 45.8866 48.3045 44.8256 48.3045 43.5287C48.4224 41.4066 47.3613 39.6381 45.475 38.6949C43.4707 37.7518 41.2307 37.9875 39.5801 39.5202C38.6369 40.3455 37.1043 40.4634 36.1611 39.6381C34.5105 38.2233 32.1526 37.8697 30.2662 38.8128C28.3799 39.756 27.3188 41.6424 27.4367 43.6466C27.5546 44.9435 26.6114 46.0045 25.4325 46.1224C23.1924 46.3582 21.5419 47.773 21.0703 49.8951C20.5987 51.8994 21.424 54.0215 23.1924 55.2005C24.2535 55.9079 24.6072 57.0869 24.0177 58.1479C22.9566 59.9164 23.0745 62.0385 24.3714 63.6891C25.3146 64.8681 26.6114 65.5754 28.0262 65.6933L24.7251 74.8893C24.3714 75.8325 24.6072 76.6578 25.1967 77.2472C25.5504 77.6009 26.1398 78.1904 27.083 78.1904C27.3188 78.1904 27.6725 78.1904 28.1441 77.8367L31.0915 76.6578L32.5063 79.4873C32.86 80.4305 33.8032 81.0199 34.8642 81.0199C35.9253 81.0199 36.8685 80.4305 37.2222 79.4873L38.7548 75.4788L40.2875 79.2515C40.6412 80.1947 41.5843 80.902 42.6454 80.902C43.7065 80.902 44.6497 80.3126 45.0034 79.3694L46.3002 76.5399L49.2477 77.7188C49.7192 78.0725 50.1908 78.0725 50.3087 78.0725C51.4877 78.0725 52.0772 77.483 52.4309 77.1293ZM26.3756 62.0385C26.1398 61.6848 25.5504 60.7417 26.2577 59.4448C27.5546 57.2048 26.8472 54.3752 24.6072 52.9605C23.5461 52.2531 23.4282 51.3099 23.664 50.4846C23.8998 49.5415 24.6072 48.952 25.6683 48.8341C28.3799 48.4804 30.2662 46.1224 30.0304 43.5287C29.9126 42.5855 30.502 41.7603 31.3273 41.2887C32.1526 40.935 33.3316 40.8171 34.2747 41.7603C36.279 43.4108 39.3443 43.4108 41.3486 41.6424C42.2917 40.8171 43.4707 40.935 44.296 41.2887C45.2392 41.7603 45.7107 42.5855 45.5928 43.5287C45.3571 46.1224 47.3613 48.4804 49.955 48.8341C51.0161 48.952 51.8414 49.6594 52.0772 50.6025C52.313 51.5457 51.9593 52.371 51.0161 52.9605C48.7761 54.4931 48.0687 57.3226 49.3655 59.6806C49.8371 60.5059 49.8371 61.3312 49.2477 62.1564C48.7761 62.8638 47.715 63.4533 46.4181 63.0996C43.8244 62.3922 40.9949 63.6891 40.0517 66.047C39.5801 67.226 38.4011 67.5797 37.5759 67.5797C36.5148 67.5797 35.6895 66.9902 35.3358 66.047C34.3926 64.1607 32.5063 62.9817 30.502 62.9817C30.0304 62.9817 29.5589 63.0996 29.0873 63.2175C27.9083 63.3354 26.8472 62.7459 26.3756 62.0385ZM34.9821 78.0725L33.3316 74.6535C33.0958 74.1819 32.7421 73.7103 31.681 73.7103H31.3273L27.5546 75.243L30.9736 65.4575C31.9168 65.5754 32.7421 66.047 33.0958 66.8723C33.6853 68.5229 35.1 69.5839 36.7506 69.9376L37.458 71.9419L34.9821 78.0725ZM46.3002 73.5924H45.9465C45.0034 73.5924 44.5318 74.1819 44.4139 74.6535L42.8812 77.9546L40.0517 71.2345L39.5801 69.8197C40.9949 69.3481 42.1738 68.2871 42.7633 66.8723C43.117 65.8112 44.6497 65.2217 45.8286 65.5754C45.9465 65.5754 46.1823 65.6933 46.3002 65.6933L50.0729 75.1251L46.3002 73.5924Z" fill="#0F0C22"/>
<path d="M17.4148 42.7034C18.1221 42.7034 18.7116 42.114 18.7116 41.4066V35.6296H24.4886C25.196 35.6296 25.7854 35.0401 25.7854 34.3328C25.7854 33.6254 25.196 33.0359 24.4886 33.0359H17.2969C16.5895 33.0359 16 33.6254 16 34.3328V41.5245C16 41.9961 16.7074 42.7034 17.4148 42.7034Z" fill="#0F0C22"/>
<path d="M24.6051 82.7884H18.8281V76.8935C18.8281 76.1862 18.2386 75.5967 17.5312 75.5967C16.8239 75.5967 16.2344 76.1862 16.2344 76.8935V84.2032C16.2344 84.9105 16.8239 85.5 17.5312 85.5H24.723C25.4303 85.5 26.0198 84.9105 26.0198 84.2032C25.9019 83.3779 25.3124 82.7884 24.6051 82.7884Z" fill="#0F0C22"/>
<path d="M59.1514 32.8H51.8418C51.1344 32.8 50.5449 33.3895 50.5449 34.0969C50.5449 34.8043 51.1344 35.3938 51.8418 35.3938H57.7366V41.1707C57.7366 41.8781 58.3261 42.4676 59.0335 42.4676C59.7409 42.4676 60.3304 41.8781 60.3304 41.1707V33.979C60.4483 33.3895 59.8588 32.8 59.1514 32.8Z" fill="#0F0C22"/>
<path d="M59.1507 75.4788C58.4433 75.4788 57.8538 76.0682 57.8538 76.7756V82.6705H51.959C51.2516 82.6705 50.6621 83.26 50.6621 83.9673C50.6621 84.6747 51.2516 85.2642 51.959 85.2642H59.2686C59.976 85.2642 60.5655 84.6747 60.5655 83.9673V76.6577C60.4476 76.0682 59.8581 75.4788 59.1507 75.4788Z" fill="#0F0C22"/>
<path d="M78.4392 27.2C78.3392 26.8 78.0392 26.6 77.6392 26.5L73.6392 25.8L71.6392 22.1C71.4392 21.8 71.1392 21.5 70.7392 21.5C70.3392 21.5 70.0392 21.7 69.8392 22.1L67.8392 25.8L63.8392 26.5C63.4392 26.6 63.1392 26.8 63.0392 27.2C62.9392 27.6 63.0392 28 63.2392 28.2L66.0392 31.2L65.4392 35.2C65.3392 35.6 65.5392 36 65.8392 36.2C66.1392 36.4 66.5392 36.5 66.9392 36.3L70.7392 34.5L74.5392 36.3C74.6392 36.4 74.8392 36.4 75.0392 36.4C75.2392 36.4 75.4392 36.3 75.6392 36.2C75.9392 36 76.1392 35.6 76.0392 35.2L75.4392 31.2L78.2392 28.2C78.4392 28 78.5392 27.6 78.4392 27.2ZM73.5392 30.2C73.3392 30.4 73.2392 30.7 73.2392 31.1L73.6392 33.7L71.2392 32.5C71.1392 32.4 70.9392 32.4 70.7392 32.4C70.5392 32.4 70.4392 32.4 70.2392 32.5L67.8392 33.7L68.2392 31.1C68.2392 30.8 68.1392 30.5 67.9392 30.2L66.1392 28.2L68.7392 27.7C69.0392 27.6 69.3392 27.4 69.4392 27.2L70.7392 24.8L72.0392 27.2C72.2392 27.5 72.4392 27.7 72.7392 27.7L75.3392 28.2L73.5392 30.2Z" fill="#0F0C22"/>
</svg>
