<svg width="101" height="100" viewBox="0 0 101 100" fill="none" xmlns="http://www.w3.org/2000/svg">
<g clip-path="url(#clip0_738_5773)">
<circle cx="50.5" cy="50" r="50" fill="#F6F6F6"/>
<path d="M50.5 60C56.0228 60 60.5 55.5228 60.5 50C60.5 44.4772 56.0228 40 50.5 40C44.9772 40 40.5 44.4772 40.5 50C40.5 55.5228 44.9772 60 50.5 60Z" fill="#00DFDF"/>
<path d="M63.6988 58.4999L62.0988 56.1999C62.4988 55.4999 62.7988 54.7999 62.9988 53.9999L65.7988 53.4999C66.2988 53.3999 66.6988 52.9999 66.6988 52.3999V47.7999C66.6988 47.2999 66.2988 46.7999 65.7988 46.6999L62.9988 46.1999C62.7988 45.3999 62.4988 44.6999 62.0988 43.9999L63.6988 41.6999C63.9988 41.2999 63.8988 40.6999 63.5988 40.2999L60.2988 36.9999C59.8988 36.5999 59.3988 36.5999 58.8988 36.8999L56.5988 38.4999C55.8988 38.0999 55.1988 37.7999 54.3988 37.5999L53.8988 34.7999C53.7988 34.2999 53.3988 33.8999 52.7988 33.8999H48.1988C47.6988 33.8999 47.1988 34.2999 47.0988 34.7999L46.5988 37.5999C45.7988 37.7999 45.0988 38.0999 44.3988 38.4999L42.0988 36.8999C41.6988 36.5999 41.0988 36.6999 40.6988 36.9999L37.3988 40.2999C36.9988 40.6999 36.9988 41.1999 37.2988 41.6999L38.8988 43.9999C38.4988 44.6999 38.1988 45.3999 37.9988 46.1999L35.1988 46.6999C34.6988 46.7999 34.2988 47.1999 34.2988 47.7999V52.3999C34.2988 52.8999 34.6988 53.3999 35.1988 53.4999L37.9988 53.9999C38.1988 54.7999 38.4988 55.4999 38.8988 56.1999L37.2988 58.4999C36.9988 58.8999 37.0988 59.4999 37.3988 59.8999L40.6988 63.1999C41.0988 63.5999 41.5988 63.5999 42.0988 63.2999L44.3988 61.6999C45.0988 62.0999 45.7988 62.3999 46.5988 62.5999L47.0988 65.3999C47.1988 65.8999 47.5988 66.2999 48.1988 66.2999H52.7988C53.2988 66.2999 53.7988 65.8999 53.8988 65.3999L54.3988 62.5999C55.1988 62.3999 55.8988 62.0999 56.5988 61.6999L58.8988 63.2999C59.2988 63.5999 59.8988 63.4999 60.2988 63.1999L63.5988 59.8999C63.9988 59.4999 63.9988 58.8999 63.6988 58.4999ZM61.0988 52.6999C60.7988 53.6999 60.3988 54.6999 59.8988 55.5999C59.6988 55.9999 59.6988 56.3999 59.8988 56.7999L61.3988 58.9999L59.3988 60.9999L57.1988 59.4999C56.8988 59.2999 56.3988 59.2999 55.9988 59.4999C55.0988 59.9999 54.0988 60.3999 53.0988 60.6999C52.6988 60.7999 52.3988 61.0999 52.2988 61.4999L51.8988 63.9999H49.0988L48.5988 61.3999C48.4988 60.9999 48.1988 60.6999 47.7988 60.5999C46.7988 60.2999 45.7988 59.8999 44.8988 59.3999C44.4988 59.1999 44.0988 59.1999 43.6988 59.3999L41.4988 60.8999L39.4988 58.8999L40.9988 56.6999C41.1988 56.3999 41.1988 55.8999 40.9988 55.4999C40.4988 54.5999 40.0988 53.5999 39.7988 52.5999C39.6988 52.1999 39.3988 51.8999 38.9988 51.7999L36.4988 51.3999V48.5999L39.0988 48.0999C39.4988 47.9999 39.7988 47.6999 39.8988 47.2999C40.1988 46.2999 40.5988 45.2999 41.0988 44.3999C41.2988 43.9999 41.2988 43.5999 41.0988 43.1999L39.5988 40.9999L41.5988 38.9999L43.7988 40.4999C44.0988 40.6999 44.5988 40.6999 44.9988 40.4999C45.8988 39.9999 46.8988 39.5999 47.8988 39.2999C48.2988 39.1999 48.5988 38.8999 48.6988 38.4999L49.1988 35.8999H51.9988L52.4988 38.4999C52.5988 38.8999 52.8988 39.1999 53.2988 39.2999C54.2988 39.5999 55.2988 39.9999 56.1988 40.4999C56.5988 40.6999 56.9988 40.6999 57.3988 40.4999L59.5988 38.9999L61.5988 40.9999L60.0988 43.1999C59.8988 43.4999 59.8988 43.9999 60.0988 44.3999C60.5988 45.2999 60.9988 46.2999 61.2988 47.2999C61.3988 47.6999 61.6988 47.9999 62.0988 48.0999L64.6988 48.5999V51.3999L62.0988 51.8999C61.5988 51.9999 61.2988 52.2999 61.0988 52.6999Z" fill="#0F0C22"/>
<path d="M49.4 28.6V30.7C49.4 31.3 49.9 31.7999 50.5 31.7999C51.1 31.7999 51.6 31.3 51.6 30.7V28.6C53.6 28.1 55 26.4 55 24.2C55 21.7 53 19.7 50.5 19.7C48 19.7 46 21.7 46 24.2C46 26.4 47.5 28.1 49.4 28.6ZM50.5 21.9C51.8 21.9 52.8 22.9 52.8 24.2C52.8 25.5 51.8 26.5 50.5 26.5C49.2 26.5 48.2 25.5 48.2 24.2C48.2 22.9 49.2 21.9 50.5 21.9Z" fill="#0F0C22"/>
<path d="M51.6 71.4V69.3C51.6 68.7 51.1 68.2 50.5 68.2C49.9 68.2 49.4 68.7 49.4 69.3V71.4C47.4 71.9 46 73.6 46 75.8C46 78.3 48 80.3 50.5 80.3C53 80.3 55 78.3 55 75.8C55 73.6 53.5 71.9 51.6 71.4ZM50.5 78.1C49.2 78.1 48.2 77.1 48.2 75.8C48.2 74.5 49.2 73.5 50.5 73.5C51.8 73.5 52.8 74.5 52.8 75.8C52.8 77.1 51.8 78.1 50.5 78.1Z" fill="#0F0C22"/>
<path d="M76.2992 45.5C74.1992 45.5 72.3992 47 71.8992 48.9H69.7992C69.1992 48.9 68.6992 49.4 68.6992 50C68.6992 50.6 69.1992 51.1 69.7992 51.1H71.8992C72.3992 53.1 74.0992 54.5 76.2992 54.5C78.7992 54.5 80.7992 52.5 80.7992 50C80.7992 47.5 78.6992 45.5 76.2992 45.5ZM76.2992 52.3C74.9992 52.3 73.9992 51.3 73.9992 50C73.9992 48.7 74.9992 47.7 76.2992 47.7C77.5992 47.7 78.5992 48.7 78.5992 50C78.5992 51.3 77.4992 52.3 76.2992 52.3Z" fill="#0F0C22"/>
<path d="M29.0992 51.1H31.1992C31.7992 51.1 32.2992 50.6 32.2992 50C32.2992 49.4 31.7992 48.9 31.1992 48.9H29.0992C28.5992 46.9 26.8992 45.5 24.6992 45.5C22.1992 45.5 20.1992 47.5 20.1992 50C20.1992 52.5 22.1992 54.5 24.6992 54.5C26.8992 54.5 28.5992 53 29.0992 51.1ZM24.6992 52.3C23.3992 52.3 22.3992 51.3 22.3992 50C22.3992 48.7 23.3992 47.7 24.6992 47.7C25.9992 47.7 26.9992 48.7 26.9992 50C26.9992 51.3 25.9992 52.3 24.6992 52.3Z" fill="#0F0C22"/>
<path d="M64.1992 37.4C64.4992 37.4 64.7992 37.3 64.9992 37.1L66.4992 35.6C67.1992 36 67.9992 36.3 68.7992 36.3C69.9992 36.3 71.0992 35.9 71.9992 35C73.7992 33.2 73.7992 30.4 71.9992 28.6C70.1992 26.8 67.3992 26.8 65.5992 28.6C64.7992 29.4 64.2992 30.6 64.2992 31.8C64.2992 32.6 64.4992 33.4 64.9992 34.1L63.4992 35.6C63.0992 36 63.0992 36.7 63.4992 37.1C63.5992 37.3 63.8992 37.4 64.1992 37.4ZM67.0992 30.1C67.5992 29.6 68.1992 29.4 68.7992 29.4C69.3992 29.4 69.9992 29.6 70.4992 30.1C71.3992 31 71.3992 32.5 70.4992 33.4C69.5992 34.3 68.0992 34.3 67.1992 33.4C66.7992 33 66.4992 32.4 66.4992 31.7C66.4992 31 66.5992 30.6 67.0992 30.1Z" fill="#0F0C22"/>
<path d="M36.1 62.8999L34.6 64.3999C32.9 63.3999 30.6 63.5999 29.1 65.0999C27.3 66.8999 27.3 69.6999 29.1 71.4999C30 72.3999 31.1 72.7999 32.3 72.7999C33.5 72.7999 34.6 72.3999 35.5 71.4999C37 69.9999 37.2 67.6999 36.2 65.9999L37.7 64.4999C38.1 64.0999 38.1 63.3999 37.7 62.9999C37.3 62.5999 36.5 62.4999 36.1 62.8999ZM33.9 69.8999C33 70.7999 31.5 70.7999 30.6 69.8999C29.7 68.9999 29.7 67.4999 30.6 66.5999C31.1 66.0999 31.7 65.8999 32.3 65.8999C32.9 65.8999 33.5 66.0999 34 66.5999C34.9 67.4999 34.9 68.8999 33.9 69.8999Z" fill="#0F0C22"/>
<path d="M66.3996 64.4001L64.8996 62.9001C64.4996 62.5001 63.7996 62.5001 63.3996 62.9001C62.9996 63.3001 62.9996 64.0001 63.3996 64.4001L64.8996 65.9001C64.4996 66.6001 64.1996 67.4001 64.1996 68.2001C64.1996 69.4001 64.6996 70.5001 65.4996 71.4001C66.3996 72.3001 67.4996 72.7001 68.6996 72.7001C69.8996 72.7001 70.9996 72.3001 71.8996 71.4001C73.6996 69.6001 73.6996 66.8001 71.8996 65.0001C70.3996 63.5001 68.0996 63.3001 66.3996 64.4001ZM70.3996 69.9001C69.4996 70.8001 67.9996 70.8001 67.0996 69.9001C66.6996 69.5001 66.3996 68.9001 66.3996 68.2001C66.3996 67.6001 66.5996 67.0001 67.0996 66.5001C67.5996 66.0001 68.1996 65.8001 68.7996 65.8001C69.3996 65.8001 69.9996 66.0001 70.4996 66.5001C71.2996 67.5001 71.2996 68.9001 70.3996 69.9001Z" fill="#0F0C22"/>
<path d="M32.3 36.3C33.1 36.3 33.9 36.1 34.6 35.6L36.1 37.1C36.3 37.3 36.6 37.4 36.9 37.4C37.2 37.4 37.5 37.3 37.7 37.1C38.1 36.7 38.1 36 37.7 35.6L36.2 34.1C37.2 32.4 37 30.1 35.5 28.6C33.7 26.8 30.9 26.8 29.1 28.6C27.3 30.4 27.3 33.2 29.1 35C30 35.8 31.1 36.3 32.3 36.3ZM30.6 30.1C31.1 29.6 31.7 29.4 32.3 29.4C32.9 29.4 33.5 29.6 34 30.1C34.9 31 34.9 32.5 34 33.4C33.1 34.3 31.6 34.3 30.7 33.4C29.7 32.5 29.7 31.1 30.6 30.1Z" fill="#0F0C22"/>
<path d="M43.8 59.1179C44.5 58.9179 44.6 58.3179 44.6 57.8179C44.6 57.3179 44.6 56.7179 44.6 56.1179C44.6 55.4179 44.6 54.6179 44.6 53.9179C44.6 53.3179 44.9 52.7179 45.4 52.5179C45.8 52.3179 46.2 52.1179 46.6 51.9179C48.4 51.4179 50.2 51.2179 52.1 51.5179C53.2 51.7179 54.3 51.9179 55.3 52.3179C56 52.5179 56.4 53.2179 56.3 53.9179C56.3 54.8179 56.3 55.8179 56.3 56.7179C56.3 57.0179 56.3 57.4179 56.3 57.7179C56.3 58.1179 56.4 58.5179 56.7 58.8179C56.9 59.0179 57.1 59.1179 57.4 59.1179C58.1 59.1179 58.5 58.6179 58.5 57.7179C58.5 57.3179 58.5 56.8179 58.5 56.3179C58.5 55.4179 58.5 54.5179 58.5 53.6179C58.6 52.3179 57.9 51.1179 56.8 50.4179C56.1 50.0179 55.4 49.7179 54.7 49.5179C54.3 49.4179 53.9 49.3179 53.5 49.2179L53.2 49.3179C54.4 48.0179 55 46.2179 54.7 44.4179C54.4 42.3179 52.6 40.8179 50.5 41.0179H50.4C48.3 40.9179 46.5 42.5179 46.4 44.6179C46.1 46.3179 46.6 48.0179 47.8 49.3179L47 49.5179C46.2 49.7179 45.5 50.0179 44.8 50.2179C43.7 50.7179 42.8 51.6179 42.5 52.8179V58.3179V58.4179C42.7 58.9179 43.3 59.2179 43.8 59.1179ZM52.4 44.4179C52.7 45.5179 52.5 46.7179 51.8 47.6179C51.5 48.0179 51.1 48.3179 50.6 48.3179C50.1 48.3179 49.6 48.0179 49.3 47.6179C48.8 47.0179 48.5 46.2179 48.5 45.3179C48.4 44.6179 48.7 43.9179 49.2 43.4179C49.8 43.0179 50.6 42.9179 51.2 43.1179C51.9 43.3179 52.3 43.8179 52.4 44.4179Z" fill="#0F0C22"/>
</g>
<defs>
<clipPath id="clip0_738_5773">
<rect width="100" height="100" fill="white" transform="translate(0.5)"/>
</clipPath>
</defs>
</svg>
