<svg width="30" height="30" viewBox="0 0 43 43" fill="none" xmlns="http://www.w3.org/2000/svg">
<path d="M12.0625 12.0625H12.08M31.3125 12.0625H31.33M12.0625 31.3125H12.08M23.4375 23.4375H23.455M31.3125 31.3125H31.33M30.4375 37.4375H37.4375V30.4375M25.1875 29.5625V37.4375M37.4375 25.1875H29.5625M27.9875 18.1875H34.6375C35.6176 18.1875 36.1076 18.1875 36.482 17.9968C36.8113 17.829 37.079 17.5613 37.2468 17.232C37.4375 16.8576 37.4375 16.3676 37.4375 15.3875V8.7375C37.4375 7.75741 37.4375 7.26736 37.2468 6.89302C37.079 6.56373 36.8113 6.29602 36.482 6.12824C36.1076 5.9375 35.6176 5.9375 34.6375 5.9375H27.9875C27.0074 5.9375 26.5174 5.9375 26.143 6.12824C25.8137 6.29602 25.546 6.56373 25.3782 6.89302C25.1875 7.26736 25.1875 7.75741 25.1875 8.7375V15.3875C25.1875 16.3676 25.1875 16.8576 25.3782 17.232C25.546 17.5613 25.8137 17.829 26.143 17.9968C26.5174 18.1875 27.0074 18.1875 27.9875 18.1875ZM8.7375 18.1875H15.3875C16.3676 18.1875 16.8576 18.1875 17.232 17.9968C17.5613 17.829 17.829 17.5613 17.9968 17.232C18.1875 16.8576 18.1875 16.3676 18.1875 15.3875V8.7375C18.1875 7.75741 18.1875 7.26736 17.9968 6.89302C17.829 6.56373 17.5613 6.29602 17.232 6.12824C16.8576 5.9375 16.3676 5.9375 15.3875 5.9375H8.7375C7.75741 5.9375 7.26736 5.9375 6.89302 6.12824C6.56373 6.29602 6.29602 6.56373 6.12824 6.89302C5.9375 7.26736 5.9375 7.75741 5.9375 8.7375V15.3875C5.9375 16.3676 5.9375 16.8576 6.12824 17.232C6.29602 17.5613 6.56373 17.829 6.89302 17.9968C7.26736 18.1875 7.75741 18.1875 8.7375 18.1875ZM8.7375 37.4375H15.3875C16.3676 37.4375 16.8576 37.4375 17.232 37.2468C17.5613 37.079 17.829 36.8113 17.9968 36.482C18.1875 36.1076 18.1875 35.6176 18.1875 34.6375V27.9875C18.1875 27.0074 18.1875 26.5174 17.9968 26.143C17.829 25.8137 17.5613 25.546 17.232 25.3782C16.8576 25.1875 16.3676 25.1875 15.3875 25.1875H8.7375C7.75741 25.1875 7.26736 25.1875 6.89302 25.3782C6.56373 25.546 6.29602 25.8137 6.12824 26.143C5.9375 26.5174 5.9375 27.0074 5.9375 27.9875V34.6375C5.9375 35.6176 5.9375 36.1076 6.12824 36.482C6.29602 36.8113 6.56373 37.079 6.89302 37.2468C7.26736 37.4375 7.75741 37.4375 8.7375 37.4375Z" stroke="black" stroke-width="2" stroke-linecap="round" stroke-linejoin="round"/>
</svg>
