<svg width="30" height="30" viewBox="0 0 35 35" fill="none" xmlns="http://www.w3.org/2000/svg">
<path d="M9.89583 9.47347H9.91M25.4792 9.47347H25.4933M9.89583 25.0568H9.91M19.1042 18.6818H19.1183M25.4792 25.0568H25.4933M24.7708 30.0151H30.4375V24.3485M20.5208 23.6401V30.0151M30.4375 20.0985H24.0625M22.7875 14.4318H28.1708C28.9642 14.4318 29.3609 14.4318 29.664 14.2774C29.9305 14.1416 30.1473 13.9249 30.2831 13.6583C30.4375 13.3552 30.4375 12.9585 30.4375 12.1651V6.7818C30.4375 5.9884 30.4375 5.59169 30.2831 5.28865C30.1473 5.02209 29.9305 4.80536 29.664 4.66954C29.3609 4.51514 28.9642 4.51514 28.1708 4.51514H22.7875C21.9941 4.51514 21.5974 4.51514 21.2943 4.66954C21.0278 4.80536 20.8111 5.02209 20.6752 5.28865C20.5208 5.59169 20.5208 5.9884 20.5208 6.7818V12.1651C20.5208 12.9585 20.5208 13.3552 20.6752 13.6583C20.8111 13.9249 21.0278 14.1416 21.2943 14.2774C21.5974 14.4318 21.9941 14.4318 22.7875 14.4318ZM7.20417 14.4318H12.5875C13.3809 14.4318 13.7776 14.4318 14.0807 14.2774C14.3472 14.1416 14.5639 13.9249 14.6998 13.6583C14.8542 13.3552 14.8542 12.9585 14.8542 12.1651V6.7818C14.8542 5.9884 14.8542 5.59169 14.6998 5.28865C14.5639 5.02209 14.3472 4.80536 14.0807 4.66954C13.7776 4.51514 13.3809 4.51514 12.5875 4.51514H7.20417C6.41076 4.51514 6.01406 4.51514 5.71101 4.66954C5.44445 4.80536 5.22773 5.02209 5.09191 5.28865C4.9375 5.59169 4.9375 5.9884 4.9375 6.7818V12.1651C4.9375 12.9585 4.9375 13.3552 5.09191 13.6583C5.22773 13.9249 5.44445 14.1416 5.71101 14.2774C6.01406 14.4318 6.41076 14.4318 7.20417 14.4318ZM7.20417 30.0151H12.5875C13.3809 30.0151 13.7776 30.0151 14.0807 29.8607C14.3472 29.7249 14.5639 29.5082 14.6998 29.2416C14.8542 28.9386 14.8542 28.5419 14.8542 27.7485V22.3651C14.8542 21.5717 14.8542 21.175 14.6998 20.872C14.5639 20.6054 14.3472 20.3887 14.0807 20.2529C13.7776 20.0985 13.3809 20.0985 12.5875 20.0985H7.20417C6.41076 20.0985 6.01406 20.0985 5.71101 20.2529C5.44445 20.3887 5.22773 20.6054 5.09191 20.872C4.9375 21.175 4.9375 21.5717 4.9375 22.3651V27.7485C4.9375 28.5419 4.9375 28.9386 5.09191 29.2416C5.22773 29.5082 5.44445 29.7249 5.71101 29.8607C6.01406 30.0151 6.41076 30.0151 7.20417 30.0151Z" stroke="white" stroke-width="2" stroke-linecap="round" stroke-linejoin="round"/>
</svg>
