<svg width="45" height="45" viewBox="0 0 45 45" fill="none" xmlns="http://www.w3.org/2000/svg">
<g id="receipt">
<path id="Icon" d="M7.49609 14.774C7.49609 11.65 7.49609 10.0879 8.10407 8.89471C8.63887 7.84512 9.49221 6.99177 10.5418 6.45698C11.735 5.849 13.2971 5.849 16.4211 5.849H28.3211C31.4451 5.849 33.0072 5.849 34.2004 6.45698C35.25 6.99177 36.1033 7.84512 36.6381 8.89471C37.2461 10.0879 37.2461 11.65 37.2461 14.774V39.3177L32.1328 35.599L27.4844 39.3177L22.3711 35.599L17.2578 39.3177L12.6094 35.599L7.49609 39.3177V14.774Z" stroke="black" stroke-width="2.47917" stroke-linecap="round" stroke-linejoin="round"/>
<path id="Subtract" fill-rule="evenodd" clip-rule="evenodd" d="M40.1079 11.948H40.2201V31.7813H40.1079C40.1338 31.6425 40.1555 31.4759 40.1722 31.2718C40.2178 30.7139 40.2187 29.9921 40.2187 28.9303V14.799C40.2187 13.7372 40.2178 13.0154 40.1722 12.4575C40.1555 12.2534 40.1338 12.0868 40.1079 11.948ZM3.03255 13.9275C3.03124 14.1868 3.03125 14.4601 3.03125 14.7478L3.03125 14.799L3.03125 28.9303L3.03125 28.9815C3.03125 29.2693 3.03124 29.5426 3.03255 29.8019V13.9275ZM24.1042 14.4272C24.1042 13.7426 23.5492 13.1876 22.8646 13.1876C22.18 13.1876 21.625 13.7426 21.625 14.4272V15.0587C19.5448 15.2169 17.9062 16.9549 17.9062 19.0756C17.9062 21.3006 19.7099 23.1042 21.9349 23.1042H23.7943C24.65 23.1042 25.3437 23.798 25.3437 24.6537C25.3437 25.5095 24.65 26.2032 23.7943 26.2032H22.8646H19.1458C18.4612 26.2032 17.9062 26.7582 17.9062 27.4428C17.9062 28.1274 18.4612 28.6824 19.1458 28.6824H21.625V29.3022C21.625 29.9868 22.18 30.5417 22.8646 30.5417C23.5492 30.5417 24.1042 29.9868 24.1042 29.3022V28.6706C26.1843 28.5124 27.8229 26.7744 27.8229 24.6537C27.8229 22.4288 26.0192 20.6251 23.7943 20.6251H21.9349C21.0791 20.6251 20.3854 19.9314 20.3854 19.0756C20.3854 18.2198 21.0791 17.5261 21.9349 17.5261H22.8646H26.5833C27.2679 17.5261 27.8229 16.9711 27.8229 16.2865C27.8229 15.6019 27.2679 15.047 26.5833 15.047H24.1042V14.4272Z" fill="black"/>
</g>
</svg>
