<svg width="36" height="36" viewBox="0 0 36 36" fill="none" xmlns="http://www.w3.org/2000/svg">
<path d="M13.5 15.75L16.5 18.75L23.25 12M30 31.5V11.7C30 9.17976 30 7.91965 29.5095 6.95704C29.0781 6.11031 28.3897 5.4219 27.543 4.99047C26.5804 4.5 25.3202 4.5 22.8 4.5H13.2C10.6798 4.5 9.41965 4.5 8.45704 4.99047C7.61031 5.4219 6.9219 6.11031 6.49047 6.95704C6 7.91965 6 9.17976 6 11.7V31.5L10.125 28.5L13.875 31.5L18 28.5L22.125 31.5L25.875 28.5L30 31.5Z" stroke="black" stroke-width="2" stroke-linecap="round" stroke-linejoin="round"/>
</svg>
