<svg width="101" height="100" viewBox="0 0 101 100" fill="none" xmlns="http://www.w3.org/2000/svg">
<g clip-path="url(#clip0_738_5756)">
<circle cx="50.5" cy="50" r="50" fill="#F6F6F6"/>
<path d="M35.2004 81.3C43.9265 81.3 51.0004 74.226 51.0004 65.5C51.0004 56.7739 43.9265 49.7 35.2004 49.7C26.4743 49.7 19.4004 56.7739 19.4004 65.5C19.4004 74.226 26.4743 81.3 35.2004 81.3Z" fill="#00DFDF"/>
<path d="M37.7 42.5L50.3 49.8C50.5 49.9 50.7 50 50.9 50C51.1 50 51.3 49.9 51.5 49.8L64.1 42.5C64.5 42.3 64.7 41.8 64.7 41.4V26.8C64.7 26.3 64.5 25.9 64.1 25.7L51.5 18.4C51.1 18.2 50.6 18.2 50.2 18.4L37.6 25.7C37.2 25.9 37 26.4 37 26.8V41.4C37.1 41.9 37.3 42.3 37.7 42.5ZM39.7 27.6L51 21L62.3 27.6V40.7L51 47.3L39.7 40.7V27.6Z" fill="#0F0C22"/>
<path d="M35.7996 64L30.0996 60.7C29.6996 60.5 29.1996 60.5 28.7996 60.7L23.1996 64C22.7996 64.2 22.5996 64.7 22.5996 65.1V71.7C22.5996 72.2 22.7996 72.6001 23.1996 72.8001L28.8996 76.1C29.0996 76.2 29.2996 76.3001 29.4996 76.3001C29.6996 76.3001 29.8996 76.2 30.0996 76.1L35.7996 72.8001C36.1996 72.6001 36.3996 72.1 36.3996 71.7V65.1C36.4996 64.7 36.1996 64.3 35.7996 64ZM33.8996 71L29.4996 73.5L25.0996 71V65.9L29.4996 63.4L33.8996 65.9V71Z" fill="#0F0C22"/>
<path d="M57.2996 64L51.5996 60.7C51.1996 60.5 50.6996 60.5 50.2996 60.7L44.6996 64C44.2996 64.2 44.0996 64.7 44.0996 65.1V71.7C44.0996 72.2 44.2996 72.6001 44.6996 72.8001L50.3996 76.1C50.5996 76.2 50.7996 76.3001 50.9996 76.3001C51.1996 76.3001 51.3996 76.2 51.5996 76.1L57.2996 72.8001C57.6996 72.6001 57.8996 72.1 57.8996 71.7V65.1C57.9996 64.7 57.6996 64.3 57.2996 64ZM55.3996 71L50.9996 73.5L46.5996 71V65.9L50.9996 63.4L55.3996 65.9V71Z" fill="#0F0C22"/>
<path d="M78.7996 64L73.0996 60.7C72.6996 60.5 72.1996 60.5 71.7996 60.7L66.1996 64C65.7996 64.2 65.5996 64.7 65.5996 65.1V71.7C65.5996 72.2 65.7996 72.6001 66.1996 72.8001L71.8996 76.1C72.0996 76.2 72.2996 76.3001 72.4996 76.3001C72.6996 76.3001 72.8996 76.2 73.0996 76.1L78.7996 72.8001C79.1996 72.6001 79.3996 72.1 79.3996 71.7V65.1C79.4996 64.7 79.1996 64.3 78.7996 64ZM76.8996 71L72.4996 73.5L68.0996 71V65.9L72.4996 63.4L76.8996 65.9V71Z" fill="#0F0C22"/>
<path d="M41.2992 58.6L45.5992 54.3C46.0992 53.8 46.0992 53 45.5992 52.5C45.0992 52 44.2992 52 43.7992 52.5L41.6992 54.6V48.7C41.6992 48 41.0992 47.4 40.3992 47.4C39.6992 47.4 39.0992 48 39.0992 48.7V54.6L36.9992 52.5C36.4992 52 35.6992 52 35.1992 52.5C34.6992 53 34.6992 53.8 35.1992 54.3L39.4992 58.6C39.5992 58.7 39.6992 58.8 39.8992 58.9C40.0992 59 40.1992 59 40.3992 59C40.5992 59 40.6992 59 40.8992 58.9C41.0992 58.8 41.1992 58.7 41.2992 58.6Z" fill="#0F0C22"/>
<path d="M62.5004 58.6L66.8004 54.3C67.3004 53.8 67.3004 53 66.8004 52.5C66.3004 52 65.5004 52 65.0004 52.5L62.9004 54.6V48.7C62.9004 48 62.3004 47.4 61.6004 47.4C60.9004 47.4 60.3004 48 60.3004 48.7V54.6L58.2004 52.5C57.7004 52 56.9004 52 56.4004 52.5C55.9004 53 55.9004 53.8 56.4004 54.3L60.7004 58.6C60.7004 58.6 60.7004 58.6 60.8004 58.6C60.9004 58.7 61.0004 58.8 61.2004 58.8C61.4004 58.9 61.5004 58.9 61.7004 58.9C61.9004 58.9 62.0004 58.9 62.2004 58.8C62.2004 58.8 62.3004 58.7 62.5004 58.6Z" fill="#0F0C22"/>
<path d="M59.4737 39.543C59.579 38.0737 58.7366 36.6045 57.3677 35.9749C56.7358 35.6601 56.104 35.4502 55.3669 35.2403H55.2616C54.8404 35.1353 54.5245 35.0304 54.1033 34.9255L53.7874 34.8205C55.051 33.4562 55.5775 31.6722 55.3669 29.8882C55.2616 27.6844 53.3662 26.0053 51.2602 26.0053H50.9443C48.9435 25.9003 47.1534 27.3695 46.7322 29.3635C46.6269 30.203 46.6269 31.1475 46.7322 31.987C46.9428 33.0365 47.4693 34.0859 48.2064 34.8205L47.8905 34.9255L46.9428 35.1353C46.2057 35.3452 45.4686 35.5551 44.8368 35.8699C43.3626 36.4996 42.4149 37.9688 42.5202 39.543C42.5202 40.6973 42.5202 41.9566 42.5202 43.5308C42.4149 44.1605 42.7308 44.6852 43.2573 45H43.3626H43.9944C44.5209 44.6852 44.9421 44.1605 44.8368 43.5308C44.8368 43.0061 44.8368 42.3764 44.8368 41.9566C44.8368 41.222 44.8368 40.3825 44.8368 39.6479C44.7315 38.8083 45.258 37.9688 46.1004 37.7589C47.364 37.3391 48.6277 37.1293 49.9966 36.9194C51.6814 36.7095 53.3662 36.9194 55.051 37.3391C55.4722 37.4441 55.9987 37.654 56.4199 37.8639C56.9464 38.1787 57.3676 38.7034 57.2623 39.3331C57.2623 39.9627 57.2623 40.5924 57.2623 41.222C57.2623 41.8517 57.2623 42.6912 57.2623 43.3209C57.157 43.9506 57.473 44.5802 57.8942 44.8951H57.9995H58.7366H58.8419C59.3684 44.5802 59.579 43.9506 59.4737 43.3209C59.4737 42.1665 59.4737 40.8023 59.4737 39.543ZM49.0489 29.4684C49.3648 28.6289 50.1019 28.1042 50.9443 28.2091H51.2602C52.2079 28.2091 53.0503 28.8388 53.1556 29.7832C53.1556 29.9931 53.1556 30.203 53.1556 30.308C53.1556 30.4129 53.1556 30.4129 53.1556 30.4129C53.1556 31.3574 52.8397 32.3019 52.2079 33.0365C51.892 33.4563 51.4708 33.6661 50.9443 33.6661C50.5231 33.6661 50.1019 33.4563 49.786 33.0365C48.8382 32.1969 48.6276 30.7277 49.0489 29.4684Z" fill="#0F0C22"/>
</g>
<defs>
<clipPath id="clip0_738_5756">
<rect width="100" height="100" fill="white" transform="translate(0.5)"/>
</clipPath>
</defs>
</svg>
