<svg width="36" height="36" viewBox="0 0 36 36" fill="none" xmlns="http://www.w3.org/2000/svg">
<path d="M17.25 7.5H17.9016C22.4725 7.5 24.7579 7.5 25.6255 8.32093C26.3754 9.03055 26.7077 10.0759 26.5052 11.0883C26.271 12.2595 24.4052 13.5793 20.6734 16.2188L14.5766 20.5312C10.8449 23.1707 8.97898 24.4905 8.74475 25.6617C8.54229 26.6741 8.87462 27.7194 9.62454 28.4291C10.4921 29.25 12.7775 29.25 17.3484 29.25H18.75M12 7.5C12 9.98528 9.98528 12 7.5 12C5.01472 12 3 9.98528 3 7.5C3 5.01472 5.01472 3 7.5 3C9.98528 3 12 5.01472 12 7.5ZM33 28.5C33 30.9853 30.9853 33 28.5 33C26.0147 33 24 30.9853 24 28.5C24 26.0147 26.0147 24 28.5 24C30.9853 24 33 26.0147 33 28.5Z" stroke="black" stroke-width="2" stroke-linecap="round" stroke-linejoin="round"/>
</svg>
