<svg width="36" height="36" viewBox="0 0 36 36" fill="none" xmlns="http://www.w3.org/2000/svg">
<path d="M13.5 13.5H13.515M22.5 22.5H22.515M24 12L12 24M26.8518 7.49776C27.1606 8.2448 27.7535 8.8386 28.5001 9.14861L31.1179 10.233C31.8649 10.5424 32.4585 11.136 32.7679 11.8831C33.0774 12.6302 33.0774 13.4696 32.7679 14.2167L31.6844 16.8327C31.3748 17.5801 31.3744 18.4204 31.6854 19.1675L32.767 21.7827C32.9204 22.1527 32.9994 22.5494 32.9995 22.9499C32.9995 23.3505 32.9207 23.7471 32.7674 24.1172C32.6141 24.4873 32.3894 24.8235 32.1061 25.1067C31.8228 25.3899 31.4865 25.6145 31.1164 25.7677L28.5005 26.8513C27.7535 27.1602 27.1597 27.7531 26.8497 28.4997L25.7654 31.1175C25.456 31.8646 24.8624 32.4582 24.1154 32.7677C23.3683 33.0771 22.5289 33.0771 21.7818 32.7677L19.1659 31.6841C18.4188 31.3754 17.5797 31.376 16.8331 31.6858L14.2153 32.7686C13.4687 33.0774 12.63 33.0771 11.8836 32.7679C11.1371 32.4587 10.5439 31.8658 10.2342 31.1195L9.14958 28.5009C8.8407 27.7538 8.24782 27.1601 7.50127 26.85L4.8835 25.7657C4.13675 25.4564 3.54338 24.8632 3.23382 24.1165C2.92426 23.3698 2.92384 22.5308 3.23266 21.7838L4.3162 19.1678C4.62488 18.4207 4.62425 17.5816 4.31444 16.8349L3.23246 14.2152C3.07905 13.8451 3.00006 13.4485 3 13.0479C2.99994 12.6474 3.0788 12.2507 3.23208 11.8806C3.38537 11.5106 3.61007 11.1743 3.89335 10.8911C4.17663 10.6079 4.51294 10.3833 4.88305 10.2302L7.49895 9.14658C8.24531 8.83796 8.83873 8.2458 9.14895 7.50008L10.2333 4.88221C10.5427 4.13512 11.1363 3.54155 11.8833 3.23209C12.6304 2.92264 13.4698 2.92264 14.2169 3.23209L16.8328 4.31567C17.5799 4.62437 18.419 4.62374 19.1656 4.31392L21.7845 3.23377C22.5314 2.92449 23.3706 2.92455 24.1176 3.23395C24.8645 3.54335 25.458 4.13674 25.7675 4.88365L26.8521 7.50229L26.8518 7.49776ZM14.25 13.5C14.25 13.9142 13.9142 14.25 13.5 14.25C13.0858 14.25 12.75 13.9142 12.75 13.5C12.75 13.0858 13.0858 12.75 13.5 12.75C13.9142 12.75 14.25 13.0858 14.25 13.5ZM23.25 22.5C23.25 22.9142 22.9142 23.25 22.5 23.25C22.0858 23.25 21.75 22.9142 21.75 22.5C21.75 22.0858 22.0858 21.75 22.5 21.75C22.9142 21.75 23.25 22.0858 23.25 22.5Z" stroke="black" stroke-width="2" stroke-linecap="round" stroke-linejoin="round"/>
</svg>
