<svg width="54" height="54" viewBox="0 0 54 54" fill="none" xmlns="http://www.w3.org/2000/svg">
<path d="M20.25 20.25H20.2725M33.75 33.75H33.7725M36 18L18 36M49.5 27C49.5 39.4264 39.4264 49.5 27 49.5C14.5736 49.5 4.5 39.4264 4.5 27C4.5 14.5736 14.5736 4.5 27 4.5C39.4264 4.5 49.5 14.5736 49.5 27ZM21.375 20.25C21.375 20.8713 20.8713 21.375 20.25 21.375C19.6287 21.375 19.125 20.8713 19.125 20.25C19.125 19.6287 19.6287 19.125 20.25 19.125C20.8713 19.125 21.375 19.6287 21.375 20.25ZM34.875 33.75C34.875 34.3713 34.3713 34.875 33.75 34.875C33.1287 34.875 32.625 34.3713 32.625 33.75C32.625 33.1287 33.1287 32.625 33.75 32.625C34.3713 32.625 34.875 33.1287 34.875 33.75Z" stroke="black" stroke-width="2" stroke-linecap="round" stroke-linejoin="round"/>
</svg>
