<svg width="48" height="48" viewBox="0 0 48 48" fill="none" xmlns="http://www.w3.org/2000/svg">
<path d="M1.5 8.7C1.5 6.17976 1.5 4.91965 1.99047 3.95704C2.4219 3.11031 3.11031 2.4219 3.95704 1.99047C4.91965 1.5 6.17976 1.5 8.7 1.5H25.8C28.3202 1.5 29.5804 1.5 30.543 1.99047C31.3897 2.4219 32.0781 3.11031 32.5095 3.95704C33 4.91965 33 6.17976 33 8.7V25.8C33 28.3202 33 29.5804 32.5095 30.543C32.0781 31.3897 31.3897 32.0781 30.543 32.5095C29.5804 33 28.3202 33 25.8 33H8.7C6.17976 33 4.91965 33 3.95704 32.5095C3.11031 32.0781 2.4219 31.3897 1.99047 30.543C1.5 29.5804 1.5 28.3202 1.5 25.8V8.7Z" stroke="white" stroke-width="2" stroke-linecap="round" stroke-linejoin="round"/>
<path d="M15 22.2C15 19.6798 15 18.4196 15.4905 17.457C15.9219 16.6103 16.6103 15.9219 17.457 15.4905C18.4196 15 19.6798 15 22.2 15H39.3C41.8202 15 43.0804 15 44.043 15.4905C44.8897 15.9219 45.5781 16.6103 46.0095 17.457C46.5 18.4196 46.5 19.6798 46.5 22.2V39.3C46.5 41.8202 46.5 43.0804 46.0095 44.043C45.5781 44.8897 44.8897 45.5781 44.043 46.0095C43.0804 46.5 41.8202 46.5 39.3 46.5H22.2C19.6798 46.5 18.4196 46.5 17.457 46.0095C16.6103 45.5781 15.9219 44.8897 15.4905 44.043C15 43.0804 15 41.8202 15 39.3V22.2Z" stroke="white" stroke-width="2" stroke-linecap="round" stroke-linejoin="round"/>
</svg>
