<svg width="30" height="30" viewBox="0 0 35 35" fill="none" xmlns="http://www.w3.org/2000/svg">
<path d="M15.5617 19.3901L30.4367 4.51514M15.7424 19.8549L19.4656 29.4287C19.7935 30.2721 19.9575 30.6938 20.1938 30.817C20.3987 30.9237 20.6427 30.9238 20.8477 30.8173C21.0841 30.6945 21.2486 30.273 21.5776 29.43L30.9139 5.50567C31.2109 4.74466 31.3594 4.36416 31.2782 4.12102C31.2076 3.90987 31.0419 3.74416 30.8308 3.67362C30.5876 3.5924 30.2071 3.74089 29.4461 4.03786L5.52182 13.3742C4.6788 13.7032 4.25729 13.8677 4.13445 14.1041C4.02796 14.3091 4.02811 14.5531 4.13484 14.7579C4.25795 14.9943 4.67966 15.1582 5.52306 15.4862L15.0969 19.2094C15.2681 19.276 15.3537 19.3093 15.4258 19.3607C15.4897 19.4063 15.5455 19.4621 15.5911 19.526C15.6425 19.5981 15.6758 19.6837 15.7424 19.8549Z" stroke="white" stroke-width="2" stroke-linecap="round" stroke-linejoin="round"/>
</svg>
