<svg width="54" height="54" viewBox="0 0 54 54" fill="none" xmlns="http://www.w3.org/2000/svg">
<g id="shield-dollar">
<path id="Icon" d="M20.7292 32.6251C21.4316 33.9627 22.8343 34.8751 24.45 34.8751H29.25C31.7353 34.8751 33.75 32.8604 33.75 30.3751C33.75 27.8898 31.7353 25.8751 29.25 25.8751H24.75C22.2647 25.8751 20.25 23.8604 20.25 21.3751C20.25 18.8898 22.2647 16.8751 24.75 16.8751H29.55C31.1657 16.8751 32.5684 17.7874 33.2708 19.1251M27 13.5001V16.8751M27 34.8751V38.2501M45 27.0001C45 38.0441 32.9536 46.0765 28.5705 48.6336C28.0723 48.9242 27.8233 49.0695 27.4718 49.1448C27.199 49.2033 26.801 49.2033 26.5282 49.1448C26.1767 49.0695 25.9277 48.9242 25.4295 48.6336C21.0464 46.0765 9 38.0441 9 27.0001V16.2397C9 14.4408 9 13.5413 9.29421 12.7682C9.55412 12.0851 9.97646 11.4757 10.5247 10.9925C11.1454 10.4456 11.9875 10.1297 13.6719 9.49811L25.736 4.97409C26.2037 4.79868 26.4376 4.71097 26.6782 4.67621C26.8916 4.64537 27.1084 4.64537 27.3218 4.67621C27.5624 4.71097 27.7963 4.79868 28.264 4.97409L40.3281 9.49811C42.0125 10.1297 42.8546 10.4456 43.4753 10.9925C44.0235 11.4757 44.4459 12.0851 44.7058 12.7682C45 13.5413 45 14.4408 45 16.2397V27.0001Z" stroke="white" stroke-width="2" stroke-linecap="round" stroke-linejoin="round"/>
</g>
</svg>
