<svg width="184" height="53" viewBox="0 0 184 53" fill="none" xmlns="http://www.w3.org/2000/svg">
<path d="M63.533 29.3499C61.9663 28.4769 61.1418 27.7703 61.1418 26.7726C61.1418 25.484 62.2549 24.6942 64.0277 24.6942C66.0891 24.6942 67.9031 25.5671 67.9031 25.5671L69.3461 21.1193C69.3461 21.1193 68.0268 20.0801 64.1102 20.0801C58.6681 20.0801 54.8751 23.2393 54.8751 27.6456C54.8751 30.1397 56.6479 32.0518 58.9979 33.4236C60.8944 34.5044 61.554 35.2942 61.554 36.4166C61.554 37.622 60.6058 38.5781 58.833 38.5781C56.1944 38.5781 53.7207 37.2064 53.7207 37.2064L52.1953 41.6542C52.1953 41.6542 54.5041 43.1922 58.3383 43.1922C63.9453 43.1922 67.9444 40.4071 67.9444 35.4189C68.0268 32.6754 65.9654 30.7632 63.533 29.3499Z" fill="white"/>
<path d="M85.8766 19.997C83.1143 19.997 80.9704 21.3272 79.2801 23.3225L79.1976 23.2809L81.5889 10.644H75.3222L69.2617 42.7766H75.4871L77.5485 31.8025C78.3731 27.6456 80.4757 25.1099 82.4546 25.1099C83.8564 25.1099 84.3923 26.066 84.3923 27.4378C84.3923 28.3107 84.3099 29.3499 84.1038 30.2229L81.7538 42.8182H87.9792L90.4116 29.8487C90.7002 28.477 90.8651 26.8558 90.8651 25.7335C90.9476 22.117 89.1336 19.997 85.8766 19.997Z" fill="white"/>
<path d="M105.051 19.9971C97.5472 19.9971 92.5586 26.8143 92.5586 34.4214C92.5586 39.2849 95.527 43.2339 101.134 43.2339C108.514 43.2339 113.461 36.583 113.461 28.8096C113.502 24.2786 110.905 19.9971 105.051 19.9971ZM102 38.3704C99.8559 38.3704 98.9901 36.5414 98.9901 34.2551C98.9901 30.6386 100.845 24.7775 104.226 24.7775C106.452 24.7775 107.153 26.6896 107.153 28.5602C107.153 32.4677 105.298 38.3704 102 38.3704Z" fill="white"/>
<path d="M129.455 19.9971C125.25 19.9971 122.859 23.7382 122.859 23.7382H122.776L123.147 20.3712H117.623C117.334 22.6575 116.839 26.1077 116.345 28.7265L112.016 51.6724H118.241L119.973 42.361H120.096C120.096 42.361 121.374 43.1924 123.766 43.1924C131.104 43.1924 135.887 35.6269 135.887 27.9782C135.887 23.7798 134.031 19.9971 129.455 19.9971ZM123.518 38.4951C121.91 38.4951 120.962 37.5806 120.962 37.5806L121.993 31.7194C122.735 27.812 124.755 25.1931 126.899 25.1931C128.795 25.1931 129.373 26.9806 129.373 28.6433C129.373 32.6755 126.981 38.4951 123.518 38.4951Z" fill="white"/>
<path d="M144.794 10.9766C142.815 10.9766 141.207 12.5562 141.207 14.6346C141.207 16.5052 142.361 17.7938 144.134 17.7938H144.217C146.154 17.7938 147.845 16.4636 147.886 14.1358C147.927 12.2652 146.69 10.9766 144.794 10.9766Z" fill="white"/>
<path d="M136.055 42.7769H142.321L146.568 20.4961H140.26L136.055 42.7769Z" fill="white"/>
<path d="M162.396 20.4544H158.067L158.273 19.4152C158.644 17.2536 159.881 15.3415 161.984 15.3415C163.097 15.3415 163.963 15.674 163.963 15.674L165.199 10.7689C165.199 10.7689 164.127 10.2285 161.819 10.2285C159.592 10.2285 157.407 10.852 155.717 12.3069C153.573 14.136 152.584 16.7548 152.089 19.4152L151.924 20.4544H149.038L148.131 25.1932H151.017L147.719 42.7767H153.944L157.242 25.1932H161.53L162.396 20.4544Z" fill="white"/>
<path d="M177.404 20.4961C177.404 20.4961 173.488 30.3894 171.756 35.7934H171.674C171.55 34.0475 170.148 20.4961 170.148 20.4961H163.593L167.345 40.9479C167.427 41.4051 167.386 41.6961 167.221 41.9871C166.479 43.4004 165.283 44.7722 163.84 45.7698C162.686 46.6428 161.367 47.1832 160.336 47.5573L162.068 52.8781C163.346 52.5871 165.943 51.5479 168.169 49.4694C171.014 46.7675 173.653 42.6522 176.332 36.9988L183.96 20.4961H177.404Z" fill="white"/>
<path d="M30.7148 6.03028C30.7148 6.03028 30.1376 6.19656 29.1893 6.48754C29.0244 5.94714 28.7771 5.32361 28.4472 4.65852C27.3753 2.58009 25.7674 1.45773 23.8709 1.45773C23.7473 1.45773 23.6236 1.45773 23.4587 1.4993C23.4174 1.41616 23.335 1.3746 23.2937 1.29146C22.4692 0.376948 21.3973 -0.0387383 20.1192 0.00283033C17.6455 0.0859676 15.1719 1.87342 13.1929 5.0742C11.7912 7.31891 10.7192 10.1456 10.4307 12.3487C7.58593 13.2217 5.60699 13.8452 5.56576 13.8868C4.12279 14.344 4.08156 14.3856 3.91665 15.7573C3.79296 16.7966 0 46.0609 0 46.0609L31.1683 51.5064V5.98871C30.9209 5.98871 30.7972 6.03028 30.7148 6.03028ZM23.4999 8.27499C21.8508 8.77381 20.0367 9.35577 18.2639 9.89616C18.7587 7.94244 19.7482 5.98871 20.9025 4.70009C21.356 4.24283 21.9745 3.70244 22.6753 3.36989C23.3762 4.86636 23.5411 6.90322 23.4999 8.27499ZM20.1192 1.70714C20.6964 1.70714 21.1911 1.83185 21.6034 2.08126C20.9438 2.41381 20.2841 2.9542 19.6657 3.57773C18.099 5.28205 16.9034 7.94244 16.4087 10.4781C14.9245 10.9354 13.4403 11.3926 12.0798 11.8083C12.9868 7.81773 16.3262 1.79028 20.1192 1.70714ZM15.3368 24.5699C15.5017 27.2303 22.4692 27.8122 22.8815 34.0891C23.1701 39.0358 20.2841 42.4028 16.1201 42.6522C11.0903 42.9848 8.32803 39.9919 8.32803 39.9919L9.39996 35.4193C9.39996 35.4193 12.1622 37.5393 14.3885 37.373C15.8315 37.2899 16.3675 36.0844 16.3262 35.253C16.1201 31.7613 10.4307 31.9691 10.0596 26.2326C9.72978 21.4107 12.8631 16.5471 19.7894 16.0899C22.4692 15.9236 23.8297 16.5887 23.8297 16.5887L22.2631 22.5746C22.2631 22.5746 20.4903 21.7432 18.3876 21.9095C15.3368 22.1173 15.2955 24.0711 15.3368 24.5699ZM25.149 7.77616C25.149 6.5291 24.9841 4.74165 24.4069 3.24518C26.3034 3.6193 27.2104 5.7393 27.6227 7.02793C26.8806 7.23577 26.056 7.48518 25.149 7.77616Z" fill="white"/>
<path d="M32.1172 51.423L45.0627 48.1806C45.0627 48.1806 39.497 10.2285 39.4558 9.97907C39.4145 9.72966 39.2084 9.56338 39.0022 9.56338C38.7961 9.56338 35.1681 9.48025 35.1681 9.48025C35.1681 9.48025 32.9417 7.31868 32.1172 6.4873V51.423Z" fill="white"/>
</svg>
