<svg width="126" height="36" viewBox="0 0 126 36" fill="none" xmlns="http://www.w3.org/2000/svg">
<path fill-rule="evenodd" clip-rule="evenodd" d="M21.4661 4.22413C21.5917 4.22474 21.7171 4.28748 21.7799 4.35022L23.863 6.43078C23.863 6.43078 26.5775 6.61992 26.7037 6.61992C26.83 6.61992 27.0194 6.68297 27.0194 6.87211C27.0825 7.06125 30.8701 32.7845 30.8701 32.7845L19.9492 35.1173L19.9528 35.0435L0 31.3345C0 31.3345 2.52505 11.4116 2.6513 10.7811C2.77469 9.85684 2.83778 9.83586 3.72447 9.54113L3.78758 9.52014C3.91383 9.52014 5.17635 9.14186 6.94389 8.57443C7.63828 5.67426 9.78457 0 14.3297 0C14.8978 0 15.5922 0.378284 16.1603 1.0718H16.2866C18.2435 1.0718 19.3166 2.71103 19.9479 4.5394C20.5792 4.35026 21.021 4.22417 21.021 4.22417C21.0412 4.22417 21.0693 4.22257 21.1032 4.22064C21.1967 4.21532 21.3338 4.20751 21.4661 4.22413ZM17.8313 5.23465L17.8313 5.23466C17.6187 5.29276 17.3977 5.35314 17.1684 5.42184V5.04355C17.1684 3.9087 16.9791 3.02604 16.7266 2.33252C17.7997 2.39557 18.4941 3.59347 18.8729 4.91746C18.5513 5.0379 18.2041 5.13278 17.8313 5.23465ZM16.0344 5.61123C16.0344 4.28724 15.8451 3.27848 15.5926 2.58496C14.4563 3.02629 13.1938 4.28724 12.5625 6.87218C13.7619 6.49389 14.9613 6.11561 16.0344 5.80037V5.61123ZM14.2028 1.32422C14.3922 1.32422 14.5815 1.38727 14.7709 1.51336C13.319 2.20688 11.7408 3.90916 11.1096 7.37676C10.3706 7.62278 9.63161 7.8304 8.92262 8.02959L8.92261 8.02959L8.92258 8.0296C8.72313 8.08564 8.52606 8.14101 8.33203 8.19637C9.15267 5.54839 10.9833 1.32422 14.2028 1.32422ZM16.349 12.6094L15.0233 16.5814C15.0233 16.5814 13.8239 15.9509 12.4352 15.9509C10.352 15.9509 10.2257 17.2749 10.2257 17.5902C10.2257 18.3157 10.9713 18.8625 11.8707 19.5222C13.2377 20.5249 14.9602 21.7883 14.9602 24.3362C14.9602 27.6777 12.8139 29.8213 9.97323 29.8213C6.56441 29.8213 4.79688 27.6777 4.79688 27.6777L5.68064 24.6514C5.68064 24.6514 7.5113 26.2276 9.02633 26.2276C10.0364 26.2276 10.4151 25.4711 10.4151 24.8406C10.4151 23.7886 9.66046 23.1863 8.8139 22.5108C7.73256 21.6479 6.50128 20.6653 6.50128 18.4728C6.50128 15.1944 8.83696 12.042 13.6346 12.042C15.4652 12.042 16.349 12.6094 16.349 12.6094ZM108.262 14.0598H111.229L110.661 17.1491H107.694L105.421 29.065H101.129L103.401 17.2121H101.381L102.013 13.9967H104.033L104.159 13.3032C104.475 11.5379 105.169 9.77256 106.621 8.51161C107.757 7.50285 109.272 7.06152 110.787 7.06152C112.365 7.06152 113.123 7.43981 113.123 7.43981L112.302 10.7813C112.302 10.7813 111.671 10.5922 110.913 10.5922C109.525 10.5922 108.641 11.9162 108.388 13.3663L108.262 14.0598ZM58.8321 13.7447C56.9383 13.7447 55.4864 14.6274 54.287 16.0144H54.2239L55.8652 7.37695H51.5726L47.4062 29.1913H51.6988L53.1507 21.7517C53.7189 18.9146 55.1708 17.2123 56.4964 17.2123C57.4433 17.2123 57.8221 17.8428 57.8221 18.7885C57.8221 19.3559 57.759 20.1125 57.6327 20.6799L55.9914 29.1913H60.3471L62.0515 20.3647C62.2409 19.419 62.3672 18.3472 62.3672 17.5906C62.304 15.1948 61.0415 13.7447 58.8321 13.7447ZM43.5569 20.0493C42.4837 19.4818 41.9156 18.9775 41.9156 18.2839C41.9156 17.4013 42.6731 16.8339 43.9356 16.8339C45.3244 16.8339 46.5869 17.4013 46.5869 17.4013L47.597 14.375C47.597 14.375 46.7132 13.6815 43.9988 13.6815C40.2743 13.6815 37.6861 15.8251 37.6861 18.7883C37.6861 20.4906 38.8855 21.8146 40.5268 22.6973C41.8525 23.4538 42.2943 23.9582 42.2943 24.7148C42.2943 25.5344 41.6631 26.1649 40.4006 26.1649C38.5699 26.1649 36.9286 25.2191 36.9286 25.2191L35.8555 28.2454C35.8555 28.2454 37.4336 29.3172 40.0849 29.3172C43.9356 29.3172 46.6501 27.4258 46.6501 24.0212C46.5869 22.319 45.1982 21.058 43.5569 20.0493ZM63.4416 23.5169C63.4416 18.41 66.8505 13.7445 71.9637 13.7445C75.9406 13.7445 77.7713 16.5817 77.7713 19.734C77.7713 24.967 74.3625 29.5064 69.3124 29.5064C65.4617 29.5064 63.4416 26.8584 63.4416 23.5169ZM69.88 26.1649C68.4281 26.1649 67.7969 24.9039 67.7969 23.3908C67.7969 20.9319 69.0594 16.96 71.3951 16.96C72.9101 16.96 73.4151 18.284 73.4151 19.5449C73.352 22.1298 72.0895 26.1649 69.88 26.1649ZM84.1475 16.2665C84.1475 16.2665 85.7888 13.7446 88.6926 13.7446C91.7858 13.7446 93.0483 16.2665 93.0483 19.1667C93.0483 24.3996 89.7657 29.5065 84.7788 29.5065C83.1375 29.5065 82.2537 28.939 82.2537 28.939H82.1906L80.9912 35.2438H76.7617L79.6655 19.6711C80.0443 17.9058 80.3599 15.573 80.5493 13.9968H84.3369L84.0844 16.2665H84.1475ZM84.5878 26.1647C83.4516 26.1647 82.8203 25.5342 82.8203 25.5342L83.5147 21.5622C84.0197 18.9142 85.4085 17.1489 86.8604 17.1489C88.186 17.1489 88.5648 18.3468 88.5648 19.4817C88.6279 22.3188 86.9866 26.1647 84.5878 26.1647ZM96.7109 10.0248C96.7109 8.63772 97.7841 7.56592 99.1729 7.56592C100.435 7.56592 101.319 8.51163 101.319 9.70953C101.256 11.2857 100.12 12.1684 98.7941 12.1684H98.731C97.5316 12.1684 96.7109 11.2857 96.7109 10.0248ZM93.1758 29.0649H97.4684L100.372 13.9336H96.0796L93.1758 29.0649ZM121.456 14.0596C121.456 14.0596 118.804 20.8056 117.605 24.4624H117.542C117.479 23.2645 116.469 14.0596 116.469 14.0596H111.987L114.575 27.93C114.638 28.2452 114.575 28.4344 114.512 28.6235C114.007 29.5692 113.186 30.5149 112.176 31.2084C111.355 31.7759 110.472 32.1541 109.777 32.4063L110.977 36C111.861 35.8109 113.628 35.1174 115.143 33.6673C117.1 31.8389 118.868 29.0018 120.761 25.2189L126.001 14.0596H121.456Z" fill="#787878"/>
</svg>
