<svg width="70" height="46" viewBox="0 0 70 46" fill="none" xmlns="http://www.w3.org/2000/svg">
<g clip-path="url(#clip0_2380_15525)">
<path fill-rule="evenodd" clip-rule="evenodd" d="M0 46V0H70V46H0Z" fill="#ED4C2F"/>
<path fill-rule="evenodd" clip-rule="evenodd" d="M10.5586 14.7378H28.0043C29.1645 14.7378 30.1136 15.7081 30.1136 16.8939V29.3731C30.1136 30.5591 29.1645 31.5292 28.0043 31.5292H10.0507C8.89044 31.5292 7.94141 30.5591 7.94141 29.3731V13.9581C7.94141 13.3972 8.39448 13.0096 8.9388 12.9385L25.0258 10.8396C25.5745 10.8398 26.023 11.2983 26.023 11.8592V13.6037H9.55319C9.55319 14.3361 9.7669 14.7378 10.5586 14.7378ZM20.3426 28.4123C18.8753 28.7 16.9889 28.2003 15.9623 27.0727C15.4986 26.5641 16.2459 25.7957 16.7117 26.3087C17.402 27.0684 18.6319 27.4233 19.6354 27.3993C20.9143 27.3713 22.0534 26.181 21.3272 24.8522C20.3214 23.0127 17.8423 23.5278 16.5678 22.0821C15.5367 20.9155 16.0257 19.0804 17.2366 18.2666C18.4984 17.4182 20.6772 17.4507 21.7144 18.6671C22.1614 19.1885 21.4139 19.9567 20.9651 19.4309C20.1266 18.4485 18.147 18.5824 17.3913 19.5932C16.3158 21.0366 17.9248 21.8138 19.049 22.1621C20.5945 22.6404 22.3095 23.5148 22.5908 25.3261C22.8154 26.7847 21.7102 28.1417 20.3426 28.4123Z" fill="white"/>
<path fill-rule="evenodd" clip-rule="evenodd" d="M50.3904 13.9715C49.7669 13.9715 49.2057 14.2421 48.8211 14.671V14.1733C48.8211 13.7233 48.1142 13.7219 48.1142 14.1733V20.0613C48.1142 20.5127 48.8211 20.5141 48.8211 20.0613V17.4398C49.2071 17.8688 49.7669 18.1379 50.3904 18.1379C51.5483 18.1379 52.4899 17.2043 52.4899 16.0547C52.4899 14.9065 51.5483 13.9715 50.3904 13.9715ZM50.3904 17.3851C49.6496 17.3851 49.0488 16.7879 49.0488 16.0547C49.0488 15.3944 49.5365 14.8434 50.1755 14.7411C50.1782 14.7411 50.1826 14.7398 50.1868 14.7398C50.2533 14.7299 50.3212 14.7243 50.3904 14.7243C50.9375 14.7243 51.4097 15.0509 51.6176 15.5191C51.6176 15.5206 51.6189 15.5234 51.6189 15.5248C51.691 15.6874 51.7306 15.8669 51.7306 16.0547C51.7306 16.7879 51.1298 17.3851 50.3904 17.3851ZM45.1765 18.1382C44.0181 18.1382 43.0756 17.2037 43.0756 16.055C43.0756 14.9062 44.0181 13.9717 45.1765 13.9717C46.3349 13.9717 47.2773 14.9062 47.2773 16.055C47.2773 17.2037 46.3349 18.1382 45.1765 18.1382ZM45.1765 14.7247C44.4367 14.7247 43.8349 15.3215 43.8349 16.055C43.8349 16.7884 44.4367 17.3853 45.1765 17.3853C45.9161 17.3853 46.5179 16.7884 46.5179 16.055C46.5179 15.3215 45.9161 14.7247 45.1765 14.7247ZM62.0582 16.0137C62.0412 15.0562 61.5464 14.1913 60.5228 13.9992C59.6406 13.8338 58.61 14.295 58.2339 15.1137C57.8437 15.9647 58.0077 17.1324 58.7768 17.7255C59.6095 18.3661 60.9088 18.1685 61.7627 17.6946C62.1599 17.4746 61.8037 16.8689 61.405 17.089C60.8635 17.3904 60.1567 17.5376 59.5501 17.3371C59.0963 17.1871 58.8419 16.7988 58.7655 16.3642H61.7047C61.8928 16.3642 62.061 16.203 62.0582 16.0137ZM58.791 15.6633C58.7966 15.6366 58.8037 15.6114 58.8108 15.5862C58.9804 15.0156 59.5587 14.6848 60.1439 14.6693C60.8169 14.6511 61.1943 15.1109 61.3117 15.6633H58.791ZM57.3532 16.0196C57.3363 15.0621 56.8414 14.1972 55.8179 14.0051C54.9357 13.8397 53.905 14.3009 53.529 15.1196C53.1388 15.9706 53.3027 17.1383 54.0719 17.7314C54.9046 18.372 56.2039 18.1744 57.0578 17.7005C57.455 17.4804 57.0987 16.8748 56.7001 17.0949C56.1586 17.3963 55.4517 17.5435 54.8452 17.343C54.3914 17.193 54.1369 16.8047 54.0606 16.3702H56.9998C57.1878 16.3702 57.3561 16.2089 57.3532 16.0196ZM54.086 15.6692C54.0916 15.6425 54.0987 15.6173 54.1058 15.5921C54.2755 15.0215 54.8537 14.6906 55.439 14.6752C56.1119 14.657 56.4894 15.1168 56.6067 15.6692H54.086ZM42.2471 15.3445V17.7784C42.2471 18.2372 41.5402 18.2372 41.5402 17.7784V15.392C41.5162 14.9201 41.122 14.7035 41.1092 14.6978C40.6061 14.4748 39.6924 14.577 39.1481 15.2823V17.7784C39.1481 18.2372 38.4413 18.2372 38.4413 17.7784V11.5267C38.4413 11.0679 39.1481 11.0694 39.1481 11.5267V14.3348C40.0148 13.7436 41.1171 13.8095 41.635 14.1718C41.635 14.1718 42.2577 14.5193 42.2471 15.3445ZM37.282 11.8141C36.5888 11.0332 35.1351 11.0124 34.2914 11.5576C33.4837 12.0795 33.1569 13.2586 33.8445 14.0076C34.6964 14.9357 36.3514 14.6048 37.023 15.7855C37.5085 16.6389 36.7479 17.4029 35.8939 17.4215C35.2241 17.4361 34.4024 17.208 33.9411 16.7202C33.6308 16.3919 33.1317 16.884 33.4412 17.2114C34.1258 17.9354 35.3867 18.2564 36.3653 18.0709C37.2792 17.8976 38.0169 17.0257 37.8666 16.0895C37.6799 14.9269 36.5346 14.3653 35.5022 14.0587C34.7507 13.8355 33.6766 13.3359 34.3956 12.4099C34.9002 11.76 36.2217 11.6741 36.7822 12.3053C37.0818 12.6428 37.5801 12.1498 37.282 11.8141Z" fill="white"/>
<path fill-rule="evenodd" clip-rule="evenodd" d="M55.7123 35.1607H53.4674L55.8701 30.5198L51.9266 22.9029H54.3619L57.0879 28.1679L59.8138 22.9029H62.0587L55.7123 35.1607ZM33.3438 31.529H35.2262V28.014L37.7625 28.0145C40.3937 28.0145 42.527 26.1278 42.527 23.8004C42.527 21.4731 40.3937 19.5864 37.7625 19.5864H33.3438C33.3438 23.5673 33.3438 27.5481 33.3438 31.529ZM35.2262 26.0897V21.5107H37.7625C39.1922 21.5107 40.3511 22.5355 40.3511 23.8C40.3511 25.0645 39.1922 26.0897 37.7625 26.0897H35.2262ZM49.574 22.9771H51.2261V31.4546H49.574V30.5016C48.8376 31.1421 47.8837 31.529 46.8409 31.529C44.5106 31.529 42.6217 29.5981 42.6217 27.2159C42.6217 24.8338 44.5106 22.9029 46.8409 22.9029C47.8837 22.9029 48.8376 23.2897 49.574 23.9302V22.9771ZM46.8409 24.7203C48.1893 24.7203 49.2824 25.8376 49.2824 27.2159C49.2824 28.5943 48.1893 29.7116 46.8409 29.7116C45.4925 29.7116 44.3995 28.5943 44.3995 27.2159C44.3995 25.8376 45.4925 24.7203 46.8409 24.7203Z" fill="white"/>
</g>
<defs>
<clipPath id="clip0_2380_15525">
<rect width="70" height="46" rx="5" fill="white"/>
</clipPath>
</defs>
</svg>
