<svg width="30" height="30" viewBox="0 0 43 43" fill="none" xmlns="http://www.w3.org/2000/svg">
<path d="M39.1875 14.6875V21.6875M18.625 10.3125H12.5875C9.64722 10.3125 8.17708 10.3125 7.05405 10.8847C6.0662 11.388 5.26305 12.1912 4.75971 13.179C4.1875 14.3021 4.1875 15.7722 4.1875 18.7125L4.1875 20.8125C4.1875 22.4433 4.1875 23.2587 4.45393 23.9019C4.80915 24.7595 5.49051 25.4408 6.34811 25.796C6.99131 26.0625 7.80671 26.0625 9.4375 26.0625V33.5C9.4375 33.9063 9.4375 34.1094 9.45436 34.2805C9.61802 35.9422 10.9327 37.2569 12.5944 37.4206C12.7656 37.4375 12.9687 37.4375 13.375 37.4375C13.7813 37.4375 13.9844 37.4375 14.1556 37.4206C15.8173 37.2569 17.132 35.9422 17.2957 34.2805C17.3125 34.1094 17.3125 33.9063 17.3125 33.5V26.0625H18.625C21.7163 26.0625 25.4977 27.7195 28.415 29.3098C30.1169 30.2376 30.9679 30.7015 31.5253 30.6332C32.0421 30.5699 32.4329 30.3379 32.7358 29.9144C33.0625 29.4577 33.0625 28.544 33.0625 26.7165V9.65847C33.0625 7.83096 33.0625 6.91721 32.7358 6.46052C32.4329 6.03704 32.0421 5.80499 31.5253 5.74169C30.9679 5.67343 30.1169 6.13732 28.415 7.06509C25.4977 8.65541 21.7162 10.3125 18.625 10.3125Z" stroke="black" stroke-width="2" stroke-linecap="round" stroke-linejoin="round"/>
</svg>
