<svg width="42" height="42" viewBox="0 0 42 42" fill="none" xmlns="http://www.w3.org/2000/svg">
<path d="M36.75 36.75H8.05C7.06991 36.75 6.57986 36.75 6.20552 36.5593C5.87623 36.3915 5.60852 36.1238 5.44074 35.7945C5.25 35.4201 5.25 34.9301 5.25 33.95V5.25M36.75 12.25L27.2399 21.7601C26.8934 22.1066 26.7202 22.2798 26.5204 22.3447C26.3447 22.4018 26.1553 22.4018 25.9796 22.3447C25.7798 22.2798 25.6066 22.1066 25.2601 21.7601L21.9899 18.49C21.6434 18.1434 21.4702 17.9702 21.2704 17.9053C21.0947 17.8482 20.9053 17.8482 20.7296 17.9053C20.5298 17.9702 20.3566 18.1434 20.0101 18.4899L12.25 26.25M36.75 12.25H29.75M36.75 12.25V19.25" stroke="white" stroke-width="2" stroke-linecap="round" stroke-linejoin="round"/>
</svg>
