<svg width="116" height="36" viewBox="0 0 116 36" fill="none" xmlns="http://www.w3.org/2000/svg">
<path fill-rule="evenodd" clip-rule="evenodd" d="M18.0024 0C8.06017 0 0 8.05901 0 18.0001C0 27.9416 8.06017 36 18.0024 36C27.9457 36 36.005 27.9416 36.005 18.0001C36.005 8.05966 27.9457 0.000859789 18.0022 0.000859789L18.0024 0ZM26.257 25.9613C25.9345 26.49 25.2423 26.6577 24.7135 26.3331C20.4867 23.7516 15.1657 23.167 8.89926 24.5985C8.2954 24.7361 7.69348 24.3578 7.5559 23.7538C7.41767 23.1498 7.79452 22.5479 8.39988 22.4103C15.2575 20.8438 21.1398 21.5183 25.8851 24.4179C26.4139 24.7425 26.5816 25.4325 26.257 25.9613ZM28.4625 21.0599C28.0562 21.7203 27.192 21.9288 26.532 21.5225C21.693 18.5485 14.3167 17.6872 8.59303 19.4244C7.85073 19.6486 7.06673 19.2303 6.84144 18.4894C6.61787 17.7472 7.03642 16.9648 7.77743 16.7391C14.3154 14.7555 22.4433 15.7164 28.0003 19.1308C28.6603 19.537 28.8688 20.4011 28.4625 21.0602V21.0599ZM28.6496 15.9566C22.8475 12.5108 13.2748 12.194 7.7352 13.8751C6.84564 14.1448 5.90493 13.6427 5.63535 12.7533C5.36578 11.8634 5.86752 10.9234 6.75772 10.653C13.1168 8.72278 23.6881 9.09571 30.3681 13.0608C31.17 13.5357 31.4322 14.5689 30.9571 15.3679C30.4842 16.1679 29.448 16.4316 28.6505 15.9566H28.6496ZM48.9795 16.6168C45.871 15.8757 45.3185 15.3555 45.3185 14.2625C45.3185 13.2299 46.2902 12.535 47.7369 12.535C49.1386 12.535 50.5273 13.0627 51.9848 14.149C52.0278 14.1819 52.0837 14.195 52.1374 14.1864C52.1933 14.1782 52.2406 14.1484 52.2728 14.1034L53.7906 11.9643C53.8529 11.8761 53.8357 11.7547 53.7519 11.6874C52.017 10.2961 50.0651 9.61963 47.7821 9.61963C44.4264 9.61963 42.081 11.6335 42.081 14.5148C42.081 17.6047 44.1039 18.6988 47.5993 19.5433C50.5724 20.2283 51.0755 20.8023 51.0755 21.828C51.0755 22.9651 50.0608 23.6722 48.427 23.6722C46.6126 23.6722 45.1315 23.0596 43.4762 21.6281C43.4353 21.5915 43.3794 21.5765 43.3279 21.5786C43.272 21.5829 43.2225 21.6087 43.1881 21.6496L41.4855 23.6744C41.4146 23.7604 41.4232 23.885 41.5049 23.9581C43.431 25.6777 45.8 26.5848 48.3582 26.5848C51.974 26.5848 54.3108 24.6094 54.3108 21.5507C54.3172 18.9698 52.7716 17.5404 48.9859 16.6196L48.9795 16.6168ZM62.4933 13.5515C60.9262 13.5515 59.6406 14.1688 58.5787 15.4338V14.01C58.5787 13.8975 58.4884 13.806 58.3766 13.806H55.5927C55.4809 13.806 55.3906 13.8975 55.3906 14.01V29.8303C55.3906 29.9421 55.4809 30.0345 55.5927 30.0345H58.3766C58.4884 30.0345 58.5787 29.9421 58.5787 29.8303V24.8371C59.6406 26.0257 60.9262 26.6082 62.4933 26.6082C65.4062 26.6082 68.3556 24.3663 68.3556 20.0805C68.3599 15.7938 65.4105 13.5513 62.4955 13.5513L62.4933 13.5515ZM65.1161 20.0807C65.1161 22.2622 63.7725 23.7862 61.8463 23.7862C59.9438 23.7862 58.5078 22.1935 58.5078 20.0807C58.5078 17.9678 59.9438 16.3755 61.8463 16.3755C63.7402 16.3753 65.1161 17.9332 65.1161 20.0805V20.0807ZM75.9087 13.5518C72.1574 13.5518 69.2188 16.4398 69.2188 20.1274C69.2188 23.7755 72.1381 26.6322 75.8635 26.6322C79.6277 26.6322 82.575 23.754 82.575 20.0808C82.575 16.42 79.647 13.5522 75.9087 13.5522V13.5518ZM75.9099 23.8074C73.915 23.8074 72.4102 22.2039 72.4102 20.0794C72.4102 17.9452 73.8634 16.3965 75.8648 16.3965C77.8726 16.3965 79.386 17.9993 79.386 20.126C79.386 22.2598 77.9242 23.8074 75.9099 23.8074ZM90.5857 13.8059H87.5224V10.675C87.5224 10.5628 87.4321 10.4712 87.3203 10.4712H84.5364C84.4246 10.4712 84.3322 10.5628 84.3322 10.675V13.8059H82.995C82.8833 13.8059 82.793 13.8974 82.793 14.0099V16.4016C82.793 16.5138 82.8833 16.6056 82.995 16.6056H84.3322V22.795C84.3322 25.2948 85.5769 26.563 88.034 26.563C89.0315 26.563 89.8591 26.3566 90.6395 25.9139C90.7039 25.8795 90.7426 25.8107 90.7426 25.7376V23.4592C90.7426 23.3904 90.7061 23.3237 90.6459 23.2872C90.5857 23.2485 90.5105 23.2464 90.4481 23.2786C89.9128 23.5473 89.3948 23.672 88.8143 23.672C87.9222 23.672 87.5224 23.2657 87.5224 22.3586V16.6066H90.5857C90.6975 16.6066 90.7878 16.5151 90.7878 16.4027V14.0112C90.7921 13.8987 90.7018 13.8072 90.5879 13.8072L90.5857 13.8059ZM101.257 13.8181V13.4336C101.257 12.3023 101.691 11.7978 102.663 11.7978C103.243 11.7978 103.71 11.9131 104.232 12.0872C104.296 12.1074 104.363 12.0973 104.415 12.0588C104.468 12.0203 104.498 11.9586 104.498 11.8933V9.5482C104.498 9.45857 104.443 9.37925 104.354 9.35282C103.804 9.18881 103.099 9.02051 102.041 9.02051C99.4724 9.02051 98.1117 10.468 98.1117 13.2049V13.7938H96.7745C96.6628 13.7938 96.5703 13.8854 96.5703 13.9976V16.4016C96.5703 16.5138 96.6628 16.6056 96.7745 16.6056H98.1117V26.1503C98.1117 26.2642 98.2041 26.3545 98.3159 26.3545H101.098C101.212 26.3545 101.302 26.2642 101.302 26.1503V16.6062H103.901L107.882 26.1503C107.431 27.1519 106.986 27.3518 106.379 27.3518C105.889 27.3518 105.371 27.2057 104.845 26.9155C104.795 26.8897 104.735 26.8854 104.683 26.9005C104.63 26.9198 104.584 26.9585 104.563 27.0101L103.619 29.08C103.574 29.1789 103.613 29.2928 103.707 29.3444C104.692 29.8775 105.58 30.1053 106.678 30.1053C108.733 30.1053 109.871 29.1467 110.87 26.5716L115.699 14.0967C115.724 14.0339 115.716 13.963 115.677 13.9073C115.64 13.8521 115.578 13.8188 115.512 13.8188H112.614C112.526 13.8188 112.448 13.874 112.42 13.9555L109.451 22.4317L106.201 13.9499C106.171 13.871 106.096 13.8188 106.012 13.8188H101.257V13.8181ZM95.0701 13.8062H92.2863C92.1745 13.8062 92.082 13.8977 92.082 14.0101V26.1506C92.082 26.2645 92.1745 26.3548 92.2863 26.3548H95.0701C95.1819 26.3548 95.2744 26.2645 95.2744 26.1506V14.011C95.2744 13.8986 95.1841 13.807 95.0701 13.807V13.8062ZM93.6963 8.27783C92.5935 8.27783 91.6992 9.17029 91.6992 10.2728C91.6992 11.3759 92.5935 12.2694 93.6963 12.2694C94.7991 12.2694 95.6913 11.3759 95.6913 10.2728C95.6913 9.17051 94.797 8.27783 93.6963 8.27783Z" fill="#787878"/>
</svg>
