<svg width="36" height="36" viewBox="0 0 36 36" fill="none" xmlns="http://www.w3.org/2000/svg">
<path d="M32.999 18.1757C32.999 9.79439 26.2046 3 17.8233 3C11.0207 3 5.26358 7.47577 3.33602 13.6431C3.21254 14.0382 3.1508 14.2357 3.15663 14.4827C3.16136 14.6836 3.22241 14.9317 3.31141 15.1118C3.42086 15.3333 3.58985 15.5023 3.92783 15.8403L20.1593 32.071C20.4973 32.409 20.6663 32.578 20.8878 32.6874C21.0679 32.7764 21.3161 32.8375 21.5169 32.8422C21.7639 32.848 21.9615 32.7862 22.3565 32.6628C28.5235 30.735 32.999 24.978 32.999 18.1757Z" stroke="black" stroke-width="2" stroke-linecap="round" stroke-linejoin="round"/>
<path d="M5.16824 14.6011C5.529 14.5755 5.89324 14.5624 6.26053 14.5624C14.6418 14.5624 21.4362 21.3568 21.4362 29.7381C21.4362 30.1054 21.4232 30.4697 21.3975 30.8304C21.3527 31.4607 21.3303 31.7759 21.1466 31.9705C20.9973 32.1286 20.7427 32.2236 20.5264 32.2019C20.2601 32.1753 20.0179 31.9331 19.5335 31.4487L4.55 16.4652C4.06561 15.9808 3.82341 15.7386 3.79673 15.4723C3.77506 15.256 3.87009 15.0013 4.02818 14.8521C4.22281 14.6684 4.53796 14.646 5.16824 14.6011Z" stroke="black" stroke-width="2" stroke-linecap="round" stroke-linejoin="round"/>
</svg>
