<svg width="70" height="42" viewBox="0 0 70 42" fill="none" xmlns="http://www.w3.org/2000/svg">
<g clip-path="url(#clip0_4634_17216)">
<path fill-rule="evenodd" clip-rule="evenodd" d="M65.625 0H4.375C1.96875 0 0 1.8 0 4V38C0 40.2 1.96875 42 4.375 42H65.625C68.0312 42 70 40.2 70 38V4C70 1.8 68.0312 0 65.625 0Z" fill="#2A4F9F"/>
<path d="M27.1656 10.0708C27.1656 10.5633 26.9704 11.0357 26.6231 11.384C26.2757 11.7322 25.8045 11.9279 25.3133 11.9279C24.822 11.9279 24.3509 11.7322 24.0035 11.384C23.6561 11.0357 23.4609 10.5633 23.4609 10.0708C23.4609 9.57829 23.6561 9.10594 24.0035 8.75767C24.3509 8.4094 24.822 8.21375 25.3133 8.21375C25.8045 8.21375 26.2757 8.4094 26.6231 8.75767C26.9704 9.10594 27.1656 9.57829 27.1656 10.0708Z" fill="white"/>
<path d="M23.7559 13.077V21.7016C23.7559 24.5691 25.4558 25.6243 27.4239 25.6243H27.5517C29.3043 25.6243 29.3977 24.6215 29.3977 23.4533V23.0187H28.8207C27.6108 23.0187 26.9013 22.7754 26.9013 21.3261V15.2801C26.9013 13.9799 26.1608 13.077 24.7256 13.077H23.7559Z" fill="white"/>
<path d="M16.3833 9.92273C15.9587 9.92273 15.4272 10.2052 14.8463 10.884C14.2178 11.6186 14 12.3301 14 13.0312V20.7955C14 24.5607 16.2063 25.6545 18.7668 25.6545C19.6992 25.6545 21.5011 25.3917 21.5011 23.5307V22.3907H21.3633C20.7681 22.7402 19.9814 22.8349 19.1477 22.8349C17.9389 22.8349 17.1455 22.2746 17.1455 20.61V15.6159H19.5804C20.894 15.6159 21.5163 14.8335 21.5163 14.0241V12.7806H17.1455V9.92273H16.3833Z" fill="white"/>
<path d="M49.5583 12.5083C45.4396 12.5083 43.4129 15.4801 43.2916 19.1014C43.1722 22.6691 45.4268 25.7948 49.2133 25.7948C53.1595 25.7948 55.3882 22.9868 55.4792 19.2017C55.5685 15.4872 53.2452 12.5083 49.5583 12.5083ZM49.2685 15.3468C51.3277 15.3468 52.1579 16.9333 52.2235 19.1014C52.2854 21.1431 51.5488 22.9481 49.5157 22.9481C47.1656 22.9481 46.5714 20.9373 46.5448 19.1874C46.5114 16.9865 47.3411 15.3468 49.2685 15.3468Z" fill="white"/>
<path d="M55.1227 11.1962H55.1999L55.2138 9.98554C55.219 9.53531 55.0227 8.75777 54.7432 8.41699C53.8788 7.20063 51.9107 6 49.5229 6C47.135 6 45.0857 7.28604 44.3466 8.41039C43.9773 9.0294 43.8887 9.5978 43.8887 9.94775V11.1679H43.9827C44.1943 10.8506 44.6182 10.3098 45.6196 9.62516C46.1956 9.23135 47.7543 8.50499 49.5229 8.50499C51.2914 8.50499 52.324 8.91231 53.3667 9.56965C54.0677 10.0115 54.7973 10.7788 55.1227 11.1962Z" fill="white"/>
<path d="M38.6358 19.3433H40.2847C41.1897 19.3433 41.9232 20.04 41.9232 20.7779V22.8715C41.9232 26.1586 38.3691 26.1959 37.1182 26.1959C33.8915 26.1959 30.2812 23.9452 30.2812 19.6561C30.2812 15.2389 33.6161 12.6134 37.8151 12.5966C40.0658 12.5876 41.7083 13.6553 41.7083 15.4228V16.4596H41.2697C40.4493 15.7614 39.0216 15.3919 37.5363 15.3919C35.2713 15.3919 33.5261 16.9495 33.5261 19.2339C33.5261 20.9276 34.0884 23.4082 37.5743 23.4082C38.4213 23.4082 38.8832 23.1666 38.8832 22.6089V20.9824C38.8832 20.5991 38.7221 19.6015 38.6358 19.3974V19.3433Z" fill="white"/>
<path d="M50.5588 28.0485H50.6683L50.664 29.7954C50.6625 30.4382 50.2641 31.6929 49.7802 32.3142C49.1926 33.3027 46.3002 36.0092 42.3047 36.0092C38.3091 36.0092 35.4574 33.7863 34.3158 32.0033C33.787 31.1103 33.627 30.1141 33.627 29.5739V28.0253H33.7368C34.1147 28.5603 35.1343 29.8065 36.233 30.6048C37.1758 31.2898 38.9235 32.4957 41.956 32.4957C44.9885 32.4957 47.0814 31.3113 47.8972 30.7494C48.8458 30.0959 49.7203 29.341 50.5588 28.0485Z" fill="white"/>
</g>
<defs>
<clipPath id="clip0_4634_17216">
<rect width="70" height="42" fill="white"/>
</clipPath>
</defs>
</svg>
