<svg width="100" height="101" viewBox="0 0 100 101" fill="none" xmlns="http://www.w3.org/2000/svg">
<path d="M48.2992 25.4V47.9001C48.2992 49.1001 47.8992 50.2 47.1992 51.1C46.5992 51.8 45.7992 52.4001 44.8992 52.7001C44.3992 52.9001 43.7992 53 43.1992 53H26.2992C23.4992 53 21.1992 50.7001 21.1992 47.9001V25.4C21.1992 22.6 23.4992 20.3 26.2992 20.3H43.1992C46.0992 20.3 48.2992 22.6 48.2992 25.4Z" fill="#00F7F7"/>
<path d="M71.9988 44.6C71.9988 45.3 71.4988 45.7 70.8988 45.7H57.8988C57.1988 45.7 56.7988 45.2 56.7988 44.6C56.7988 43.9 57.2988 43.5 57.8988 43.5H70.8988C71.4988 43.4 71.9988 43.9 71.9988 44.6Z" fill="#0F0C22"/>
<path d="M71.9996 50.8C71.9996 51.5 71.4996 51.9 70.8996 51.9H64.6996C63.9996 51.9 63.5996 51.4 63.5996 50.8C63.5996 50.1 64.0996 49.7 64.6996 49.7H70.8996C71.4996 49.6 71.9996 50.1 71.9996 50.8Z" fill="#0F0C22"/>
<path d="M44.8984 34.9V52.8C45.7984 52.5 46.5984 51.9 47.1984 51.2V34.9C47.1984 34.2 47.6984 33.8 48.2984 33.8V31.5C46.3984 31.5 44.8984 32.9 44.8984 34.9Z" fill="#0F0C22"/>
<path d="M75.3988 31.5H48.2988V33.8H75.3988C75.9988 33.8 76.4988 34.3 76.4988 34.9V68.3H49.3988C48.5988 68.3 47.7988 68.5 47.0988 68.9V51.1C46.4988 51.8 45.6988 52.4 44.7988 52.7V72.6V72.7C44.7988 75.2 46.7988 77.2 49.2988 77.2H62.9988V79.5C62.9988 79.8 63.1988 80.2 63.4988 80.4C63.7988 80.6 64.1988 80.6 64.4988 80.5L67.3988 79.6C67.4988 79.6 67.5988 79.6 67.6988 79.6L70.5988 80.6C70.8988 80.7 71.2988 80.6 71.5988 80.5C71.8988 80.3 72.0988 79.8 72.0988 79.5V77.2H76.5988C77.7988 77.2 78.8988 76.2 78.8988 74.9V34.9C78.6988 33 77.1988 31.5 75.3988 31.5ZM76.4988 75H71.9988V72.7C71.9988 72 71.4988 71.6 70.8988 71.6C70.1988 71.6 69.7988 72.1 69.7988 72.7V78L67.7988 77.3C67.5988 77.2 67.4988 77.2 67.2988 77.3L65.2988 78V72.7C65.2988 72 64.7988 71.6 64.1988 71.6C63.4988 71.6 63.0988 72.1 63.0988 72.7V75H49.6988C48.5988 75 47.4988 74.2 47.2988 73.1C46.9988 71.7 48.0988 70.5 49.3988 70.5H76.4988V75Z" fill="#0F0C22"/>
<path d="M32.075 38.2688C32.275 38.4688 32.575 38.5687 32.875 38.5687H32.975C33.275 38.5687 33.575 38.3687 33.775 38.0687L39.875 29.1687C40.175 28.6687 40.075 27.9687 39.575 27.6687C39.075 27.3687 38.375 27.4688 38.075 27.9688L32.775 35.7688L29.975 32.9688C29.575 32.5688 28.875 32.4688 28.375 32.9688C27.875 33.4688 27.875 34.0687 28.375 34.5687L32.075 38.2688Z" fill="#0F0C22"/>
</svg>
