<svg width="70" height="46" viewBox="0 0 70 46" fill="none" xmlns="http://www.w3.org/2000/svg">
<path d="M13.7318 1.02051H31.1769C33.6113 1.02051 35.1326 3.02152 34.5621 5.46869L26.4352 40.5321C25.8647 42.9791 23.4177 44.9803 20.9834 44.9803H3.53824C1.10383 44.9803 -0.417464 42.9793 0.153097 40.5321L8.27976 5.46869C8.85032 3.00883 11.2846 1.02051 13.7189 1.02051H13.7318Z" fill="#D10429"/>
<path d="M29.6511 1.02051H49.7218C52.156 1.02051 51.053 3.02152 50.4825 5.46869L42.3555 40.5321C41.785 42.9791 41.9625 44.9803 39.5282 44.9803H19.4587C17.0118 44.9803 15.503 42.9793 16.0862 40.5321L24.2132 5.46869C24.7837 3.00883 27.2178 1.02051 29.665 1.02051H29.6522H29.6511Z" fill="#022E64"/>
<path d="M49.0165 1.02051H66.4629C68.8972 1.02051 70.4186 3.02152 69.8479 5.46869L61.7211 40.5321C61.1504 42.9791 58.7034 44.9803 56.2692 44.9803H38.824C36.377 44.9803 34.8684 42.9793 35.4389 40.5321L43.5658 5.46869C44.1363 3.00883 46.5705 1.02051 49.0048 1.02051H49.0176H49.0165Z" fill="#076F74"/>
<path d="M46.087 34.0757H47.7352L48.2043 32.4825H46.5686L46.087 34.0757ZM47.4055 29.691L46.8349 31.5775C46.8349 31.5775 47.4562 31.2588 47.7985 31.1568C48.1408 31.0803 48.6479 31.0165 48.6479 31.0165L49.041 29.7038H47.393L47.4055 29.691ZM48.2295 26.989L47.6845 28.7989C47.6845 28.7989 48.293 28.5184 48.6353 28.4295C48.9776 28.3402 49.4847 28.3147 49.4847 28.3147L49.8778 27.0018H48.2423L48.2295 26.989ZM51.8684 26.989L49.7383 34.0628H50.3089L49.8651 35.5286H49.2946L49.1552 35.9747H47.1264L47.2661 35.5286H43.1582L43.5639 34.1777H43.9823L46.1378 26.9891L46.5688 25.5361H48.6354L48.4198 26.2626C48.4198 26.2626 48.9649 25.8675 49.4976 25.7271C50.0174 25.5871 53.0095 25.5361 53.0095 25.5361L52.5658 26.9765H51.8558L51.8684 26.989Z" fill="#FEFEFE"/>
<path d="M52.7149 25.5358H54.9209L54.9463 26.3642C54.9337 26.5043 55.0477 26.5681 55.314 26.5681H55.7577L55.3521 27.9321H54.1601C53.1332 28.0085 52.7401 27.5625 52.7655 27.0654L52.7274 25.5485L52.7149 25.5358ZM52.9864 32.0245H50.8818L51.2366 30.8137H53.6455L53.9878 29.7048H51.617L52.0227 28.3409H58.6155L58.2098 29.7048H55.9911L55.6488 30.8137H57.8674L57.4997 32.0245H55.1035L54.6725 32.5343H55.6487L55.8895 34.0638C55.9149 34.2167 55.9149 34.3187 55.9655 34.3825C56.0163 34.4335 56.3079 34.459 56.4727 34.459H56.7643L56.3079 35.9503H55.5598C55.4459 35.9503 55.2683 35.9376 55.0274 35.9376C54.7991 35.912 54.6471 35.7845 54.4949 35.708C54.3554 35.6444 54.1526 35.4786 54.1019 35.1855L53.8736 33.656L52.7834 35.16C52.4409 35.6316 51.9721 36.0012 51.1731 36.0012H49.6517L50.0574 34.6756H50.6407C50.8056 34.6756 50.9577 34.612 51.0719 34.5481C51.186 34.4971 51.2873 34.4461 51.3888 34.2806L52.9864 32.0245ZM29.9655 28.7069H35.5313L35.1255 30.0453H32.9068L32.5647 31.1795H34.8468L34.4284 32.5561H32.1589L31.6011 34.4042C31.5377 34.6081 32.1463 34.6336 32.3618 34.6336L33.5028 34.4807L33.0463 36.0101H30.4852C30.2825 36.0101 30.1304 35.9847 29.902 35.9337C29.6864 35.8827 29.585 35.7807 29.4963 35.6406C29.4074 35.4876 29.2552 35.3729 29.3567 35.0415L30.092 32.5944H28.8242L29.2426 31.1924H30.5104L30.8527 30.0581H29.585L29.9908 28.7196L29.9655 28.7069ZM33.8109 26.2877H36.093L35.6746 27.6769H32.5557L32.2134 27.9701C32.0612 28.1104 32.0233 28.0594 31.833 28.1614C31.6557 28.2504 31.2879 28.4289 30.8061 28.4289H29.8045L30.2101 27.0906H30.5145C30.7681 27.0906 30.9457 27.065 31.0343 27.0141C31.1357 26.9505 31.2499 26.8102 31.3639 26.5807L31.9343 25.5356H34.2039L33.8109 26.3004V26.2877ZM38.1121 28.5819C38.1121 28.5819 38.7333 28.0085 39.7984 27.8301C40.0393 27.7791 41.5607 27.8044 41.5607 27.8044L41.789 27.0396H38.5812L38.112 28.5947L38.1121 28.5819ZM41.1296 29.1682H37.9472L37.757 29.8182H40.521C40.8506 29.78 40.9141 29.8309 40.9394 29.8055L41.1422 29.1682H41.1296ZM36.9965 25.5485H38.9363L38.6574 26.5299C38.6574 26.5299 39.266 26.0329 39.697 25.8543C40.1281 25.7014 41.0916 25.5485 41.0916 25.5485L44.2359 25.5358L43.1582 29.13C42.9807 29.7418 42.7652 30.137 42.6384 30.3281C42.5244 30.5066 42.3847 30.6722 42.1059 30.8252C41.8397 30.9654 41.5986 31.0546 41.3706 31.0674C41.1677 31.0801 40.838 31.0929 40.407 31.0929H37.3769L36.5273 33.9351C36.4514 34.2155 36.4133 34.3555 36.464 34.432C36.502 34.4958 36.616 34.5723 36.7556 34.5723L38.0867 34.4448L37.6302 35.9998H36.1343C35.6524 35.9998 35.3101 35.9871 35.0693 35.9742C34.8411 35.9488 34.6 35.9742 34.4352 35.8468C34.2958 35.7194 34.0804 35.5537 34.0929 35.3879C34.1057 35.2349 34.169 34.98 34.2706 34.6231L36.9965 25.5485Z" fill="#FEFEFE"/>
<path d="M42.6482 31.2682L42.4707 32.1348C42.3949 32.4024 42.3313 32.6065 42.1284 32.7849C41.9129 32.9634 41.672 33.1545 41.089 33.1545L40.0113 33.2055L39.9986 34.1741C39.9859 34.4416 40.0621 34.4161 40.1 34.4671C40.1507 34.5181 40.1887 34.5309 40.2394 34.5564L40.5817 34.5308L41.6089 34.4799L41.1777 35.9074H39.9986C39.1745 35.9074 38.5532 35.8818 38.363 35.729C38.1602 35.6014 38.1348 35.4485 38.1348 35.168L38.2108 31.3698H40.1L40.0746 32.1473H40.531C40.6832 32.1473 40.7975 32.1346 40.8607 32.0963C40.9239 32.058 40.9622 31.9943 40.9875 31.9052L41.1777 31.2934H42.6611L42.6482 31.2682ZM15.7717 12.2412C15.7084 12.5471 14.4913 18.1679 14.4913 18.1679C14.2249 19.3022 14.0348 20.118 13.4009 20.6405C13.0332 20.9464 12.6021 21.0866 12.1077 21.0866C11.3089 21.0866 10.8525 20.6915 10.7765 19.9396L10.7637 19.6847C10.7637 19.6847 11.0046 18.1679 11.0046 18.1552C11.0046 18.1552 12.2725 13.0314 12.5008 12.3559C12.5134 12.3177 12.5134 12.2922 12.5134 12.2794C10.041 12.305 9.59735 12.2794 9.57199 12.2412C9.55925 12.2922 9.49591 12.6108 9.49591 12.6108L8.20262 18.3847L8.08843 18.869L7.87305 20.475C7.87305 20.9466 7.96175 21.3416 8.15202 21.6603C8.74782 22.7055 10.4341 22.8584 11.385 22.8584C12.6148 22.8584 13.7686 22.5907 14.5419 22.1192C15.8985 21.3161 16.2534 20.0544 16.5578 18.9456L16.7099 18.3719C16.7099 18.3719 18.0159 13.0571 18.2441 12.3688C18.2567 12.3305 18.2567 12.305 18.2695 12.2923C16.4691 12.305 15.9492 12.2923 15.7717 12.254V12.2412ZM23.0039 22.8065C22.129 22.7936 21.812 22.7936 20.7851 22.8446L20.747 22.7682C20.8357 22.373 20.9371 21.9907 21.0132 21.5956L21.14 21.0602C21.3302 20.2318 21.5077 19.2504 21.5331 18.9573C21.5584 18.7788 21.609 18.3328 21.1019 18.3328C20.8864 18.3328 20.6709 18.4346 20.4428 18.5366C20.3159 18.9828 20.075 20.2318 19.9482 20.7926C19.6946 21.9907 19.682 22.1309 19.5679 22.7173L19.4918 22.7936C18.5917 22.781 18.2747 22.781 17.2351 22.8319L17.1843 22.7427C17.3619 22.0289 17.5266 21.3152 17.6915 20.6014C18.1226 18.6767 18.2367 17.9376 18.3507 16.9561L18.4395 16.9052C19.4538 16.765 19.6947 16.7267 20.7977 16.5101L20.8864 16.6121L20.7216 17.2239C20.9118 17.1092 21.0893 16.9944 21.2795 16.9052C21.7993 16.6502 22.3699 16.5738 22.6868 16.5738C23.1685 16.5738 23.7011 16.714 23.9166 17.2748C24.1195 17.7719 23.9926 18.3836 23.7137 19.5945L23.5743 20.2063C23.2953 21.5574 23.2447 21.7995 23.0925 22.7172L22.9911 22.7936L23.0039 22.8065ZM26.5639 22.8097C26.0314 22.8097 25.6891 22.7971 25.3595 22.8097C25.0298 22.8097 24.7129 22.8354 24.2184 22.848L24.193 22.8097L24.1677 22.7588C24.3071 22.2489 24.3706 22.0705 24.4466 21.8921C24.51 21.7136 24.5733 21.5352 24.7002 21.0127C24.8523 20.3371 24.9537 19.8656 25.0171 19.4449C25.0932 19.0497 25.1313 18.7058 25.182 18.3106L25.22 18.2851L25.2579 18.2469C25.7905 18.1704 26.1202 18.1195 26.4625 18.0685C26.8048 18.0175 27.1598 17.9538 27.705 17.8519L27.7303 17.9028L27.743 17.9538L27.4389 19.2156C27.3374 19.6363 27.236 20.0568 27.1473 20.4775C26.9569 21.3697 26.8683 21.7011 26.8303 21.9432C26.7796 22.1726 26.7667 22.2874 26.6907 22.7462L26.6399 22.7844L26.5892 22.8227L26.5639 22.8097ZM32.1925 19.6782C32.1545 19.9076 31.9517 20.7617 31.6854 21.1185C31.4952 21.3861 31.2796 21.5519 31.026 21.5519C30.9501 21.5519 30.5188 21.5519 30.5063 20.9018C30.5063 20.5832 30.5697 20.2517 30.6457 19.895C30.874 18.8625 31.153 18.0086 31.8502 18.0086C32.3954 18.0086 32.4334 18.6459 32.1925 19.6782ZM34.4873 19.7802C34.7915 18.4291 34.5507 17.7919 34.2591 17.4095C33.8026 16.8232 32.9913 16.6321 32.1545 16.6321C31.6472 16.6321 30.4556 16.683 29.5174 17.5498C28.8455 18.1742 28.5285 19.0282 28.351 19.844C28.1606 20.6724 27.9452 22.1637 29.3145 22.7245C29.7327 22.9029 30.3414 22.9538 30.7344 22.9538C31.7361 22.9538 32.7631 22.6735 33.5364 21.8578C34.1322 21.195 34.3984 20.2009 34.4999 19.7802H34.4873ZM55.8579 22.9611C54.7928 22.9484 54.4886 22.9484 53.5122 22.9994L53.4488 22.9229C53.7151 21.916 53.9813 20.8963 54.2222 19.8767C54.5264 18.5511 54.6024 17.9903 54.704 17.2129L54.78 17.1492C55.8324 16.9963 56.124 16.9581 57.227 16.7542L57.2524 16.8433C57.0495 17.6845 56.8593 18.5131 56.6564 19.3415C56.2508 21.0877 56.1112 21.9799 55.9593 22.8976L55.8579 22.974V22.9611Z" fill="#FEFEFE"/>
<path d="M54.3272 19.8484C54.2765 20.065 54.0736 20.9317 53.8074 21.2886C53.6298 21.5435 53.1988 21.7092 52.958 21.7092C52.8819 21.7092 52.4635 21.7092 52.4381 21.0719C52.4381 20.7532 52.5015 20.4219 52.5775 20.065C52.8058 19.0581 53.0849 18.2041 53.782 18.2041C54.3272 18.2041 54.5681 18.8286 54.3272 19.861V19.8484ZM56.4192 19.9503C56.7233 18.5993 55.4809 19.8357 55.2908 19.3895C54.9865 18.6884 55.1765 17.2864 53.9595 16.8149C53.4904 16.6236 52.3874 16.8659 51.4492 17.7326C50.7899 18.3444 50.4602 19.1983 50.2828 20.014C50.0924 20.8297 49.877 22.3338 51.2335 22.8563C51.6648 23.0475 52.0577 23.0984 52.4507 23.073C53.8202 22.9965 54.8597 20.9189 55.6332 20.1032C56.2288 19.4532 56.3304 20.3454 56.4192 19.9503ZM40.4993 22.806C39.6246 22.7932 39.3202 22.7932 38.2933 22.8441L38.2552 22.7677C38.344 22.3725 38.4455 21.9902 38.534 21.5951L38.6481 21.0598C38.8385 20.2313 39.0285 19.2499 39.0411 18.9568C39.0665 18.7783 39.1172 18.3323 38.6227 18.3323C38.4072 18.3323 38.1792 18.4341 37.9636 18.5361C37.8494 18.9823 37.5958 20.2313 37.469 20.7922C37.2281 21.9902 37.2028 22.1304 37.0887 22.7168L37.0126 22.7932C36.1125 22.7805 35.7955 22.7805 34.7559 22.8315L34.7051 22.7422C34.8827 22.0284 35.0475 21.3147 35.2124 20.6009C35.6435 18.6762 35.7449 17.9371 35.8715 16.9556L35.9476 16.9047C36.962 16.7645 37.2156 16.7262 38.3058 16.5096L38.3947 16.6116L38.2426 17.2234C38.4201 17.1087 38.6103 16.9939 38.7878 16.9047C39.3076 16.6497 39.8781 16.5733 40.1949 16.5733C40.6769 16.5733 41.1967 16.7135 41.4247 17.2743C41.6276 17.7714 41.4883 18.3832 41.2092 19.5941L41.0698 20.2059C40.7782 21.5569 40.7402 21.799 40.5878 22.7167L40.4866 22.7932L40.4993 22.806ZM48.0955 12.2534L47.3602 12.2662C45.4583 12.2917 44.6976 12.2789 44.3934 12.2407C44.3681 12.381 44.3173 12.6231 44.3173 12.6231C44.3173 12.6231 43.6327 15.784 43.6327 15.7967C43.6327 15.7967 42.0098 22.5264 41.9338 22.845C43.5946 22.8195 44.2666 22.8195 44.5582 22.8578C44.6218 22.5391 45.002 20.6656 45.0147 20.6656C45.0147 20.6656 45.3443 19.289 45.3571 19.238C45.3571 19.238 45.4583 19.0978 45.5598 19.0341H45.7119C47.1447 19.0341 48.7548 19.0341 50.0228 18.1037C50.8848 17.4664 51.4681 16.5105 51.7344 15.3634C51.7977 15.0829 51.8484 14.7516 51.8484 14.4075C51.8484 13.9613 51.7597 13.5281 51.5061 13.1839C50.8594 12.2789 49.5788 12.2662 48.0955 12.2534ZM49.0464 15.5546C48.8943 16.2555 48.4378 16.8547 47.8546 17.1351C47.3728 17.3772 46.7896 17.4027 46.1811 17.4027H45.788L45.8134 17.2497C45.8134 17.2497 46.5361 14.0888 46.5361 14.1016L46.5614 13.9358L46.5741 13.8084L46.8657 13.834C46.8657 13.834 48.3617 13.9613 48.3871 13.9613C48.9702 14.1908 49.2239 14.777 49.0464 15.5546ZM64.6317 16.6116L64.5431 16.5096C63.4654 16.7262 63.2625 16.7645 62.2735 16.9048L62.1977 16.9811C62.1977 16.9939 62.1849 17.0068 62.1849 17.0321V17.0194C61.4496 18.74 61.4621 18.3705 60.8664 19.7215C60.8664 19.6577 60.8664 19.6196 60.8535 19.5558L60.7014 16.6243L60.6128 16.5223C59.4717 16.739 59.4463 16.7772 58.4066 16.9175L58.3306 16.9939C58.3178 17.0321 58.3178 17.0704 58.3178 17.1086L58.3306 17.1214C58.4574 17.7969 58.432 17.6439 58.5588 18.7019C58.6222 19.2244 58.6982 19.747 58.7616 20.2568C58.863 21.1235 58.9265 21.5441 59.0533 22.857C58.3431 24.0294 58.1783 24.4756 57.4938 25.5078L57.5318 25.6098C58.5589 25.5717 58.7871 25.5717 59.5478 25.5717L59.7127 25.3805C60.2831 24.1443 64.6447 16.6244 64.6447 16.6244L64.6317 16.6116ZM27.5434 17.4558C28.1266 17.048 28.2026 16.4872 27.7082 16.1941C27.2137 15.9009 26.339 15.9901 25.7557 16.398C25.1725 16.7932 25.1091 17.3539 25.6036 17.6598C26.0854 17.9403 26.9601 17.8637 27.5434 17.4558Z" fill="#FEFEFE"/>
<path d="M59.543 25.5492L58.6934 27.0151C58.4271 27.5121 57.92 27.8945 57.134 27.8945L55.7773 27.869L56.1704 26.5435H56.4366C56.576 26.5435 56.6775 26.5308 56.7536 26.4925C56.8296 26.467 56.8679 26.416 56.9311 26.3395L57.4383 25.5366H59.5556L59.543 25.5492Z" fill="#FEFEFE"/>
</svg>
