<svg width="34" height="34" viewBox="0 0 34 34" fill="none" xmlns="http://www.w3.org/2000/svg">
<path d="M22.6668 4.91266C24.7659 5.95582 26.2085 8.12195 26.2085 10.625C26.2085 13.1281 24.7659 15.2942 22.6668 16.3373M25.5002 23.7524C27.6414 24.7213 29.5696 26.3004 31.1668 28.3333M2.8335 28.3333C5.59102 24.8237 9.33483 22.6667 13.4585 22.6667C17.5822 22.6667 21.326 24.8237 24.0835 28.3333M19.8335 10.625C19.8335 14.1458 16.9793 17 13.4585 17C9.93768 17 7.0835 14.1458 7.0835 10.625C7.0835 7.10418 9.93768 4.25 13.4585 4.25C16.9793 4.25 19.8335 7.10418 19.8335 10.625Z" stroke="white" stroke-width="2" stroke-linecap="round" stroke-linejoin="round"/>
</svg>
