<svg width="70" height="45" viewBox="0 0 70 45" fill="none" xmlns="http://www.w3.org/2000/svg">
<g clip-path="url(#clip0_768_1059)">
<path d="M66.2667 0.484863H3.73333C1.67147 0.484863 0 2.15633 0 4.2182V40.7115C0 42.7734 1.67147 44.4449 3.73333 44.4449H66.2667C68.3285 44.4449 70 42.7734 70 40.7115V4.2182C70 2.15633 68.3285 0.484863 66.2667 0.484863Z" fill="#00425F"/>
<path d="M14.5841 31.3562C20.5255 31.3562 25.342 26.5397 25.342 20.5983C25.342 14.6568 20.5255 9.84033 14.5841 9.84033C8.64266 9.84033 3.82617 14.6568 3.82617 20.5983C3.82617 26.5397 8.64266 31.3562 14.5841 31.3562Z" fill="#EE312A"/>
<path d="M14.5842 25.2064C12.1781 19.7519 10.4136 14.6567 10.4136 14.6567H6.72461C6.72461 14.6567 8.96992 21.1968 13.1405 29.3754H16.0278C20.1984 21.1968 22.4437 14.6567 22.4437 14.6567H18.7548C18.7548 14.6567 16.9903 19.7519 14.5842 25.2064Z" fill="white"/>
<path d="M66.085 24.5282H58.8676C58.8676 24.5282 59.0279 26.9344 62.2357 26.9344C63.8395 26.9344 65.4435 26.4528 65.4435 26.4528L65.7643 29.0189C65.7643 29.0189 64.1603 29.6605 61.9149 29.6605C58.7073 29.6605 55.8203 28.0566 55.8203 23.5659C55.8203 20.0374 58.0656 17.792 61.2734 17.792C66.085 17.792 66.4058 22.6036 66.085 24.5282ZM61.113 20.0374C59.0279 20.0374 58.8676 22.2827 58.8676 22.2827H63.3584C63.3584 22.2827 63.198 20.0374 61.113 20.0374Z" fill="white"/>
<path d="M41.2843 20.7147L41.7655 18.1485C41.7655 18.1485 38.0497 17.0209 35.0293 19.1108V29.3753H38.2372L38.2369 21.0354C39.5199 20.0731 41.2843 20.7147 41.2843 20.7147Z" fill="white"/>
<path d="M32.5187 24.5282H25.3013C25.3013 24.5282 25.4617 26.9344 28.6694 26.9344C30.2732 26.9344 31.877 26.4528 31.877 26.4528L32.1979 29.0189C32.1979 29.0189 30.5941 29.6605 28.3486 29.6605C25.1408 29.6605 22.2539 28.0566 22.2539 23.5659C22.2539 20.0374 24.4993 17.792 27.7071 17.792C32.5187 17.792 32.8394 22.6036 32.5187 24.5282ZM27.5466 20.0374C25.4617 20.0374 25.3013 22.2827 25.3013 22.2827H29.7921C29.7921 22.2827 29.6317 20.0374 27.5466 20.0374Z" fill="white"/>
<path d="M49.0742 25.5284C48.0771 23.1034 47.2727 20.6036 46.6684 18.0522L43.4609 18.0527C43.4609 18.0527 45.0648 24.2449 47.7915 29.3758H50.357C53.0837 24.2449 54.6875 18.0538 54.6875 18.0538H51.48C50.8756 20.6046 50.0712 23.1039 49.0742 25.5284Z" fill="white"/>
</g>
<defs>
<clipPath id="clip0_768_1059">
<rect width="70" height="44" fill="white" transform="translate(0 0.464844)"/>
</clipPath>
</defs>
</svg>
