<svg width="70" height="46" viewBox="0 0 70 46" fill="none" xmlns="http://www.w3.org/2000/svg">
<g clip-path="url(#clip0_2397_15754)">
<path d="M66.2667 0.0209961H3.73333C1.67147 0.0209961 0 1.76844 0 3.92403V42.0762C0 44.2317 1.67147 45.9792 3.73333 45.9792H66.2667C68.3285 45.9792 70 44.2317 70 42.0762V3.92403C70 1.76844 68.3285 0.0209961 66.2667 0.0209961Z" fill="#00425F"/>
<path d="M14.7579 33.5158C20.6994 33.5158 25.5158 28.6994 25.5158 22.7579C25.5158 16.8165 20.6994 12 14.7579 12C8.81649 12 4 16.8165 4 22.7579C4 28.6994 8.81649 33.5158 14.7579 33.5158Z" fill="#EE312A"/>
<path d="M14.758 27.3661C12.3519 21.9116 10.5874 16.8164 10.5874 16.8164H6.89844C6.89844 16.8164 9.14375 23.3564 13.3143 31.5351H16.2017C20.3723 23.3564 22.6176 16.8164 22.6176 16.8164H18.9286C18.9286 16.8164 17.1641 21.9116 14.758 27.3661Z" fill="white"/>
<path d="M66.2568 26.6878H59.0395C59.0395 26.6878 59.1998 29.0941 62.4076 29.0941C64.0114 29.0941 65.6153 28.6125 65.6153 28.6125L65.9361 31.1786C65.9361 31.1786 64.3322 31.8202 62.0868 31.8202C58.8791 31.8202 55.9922 30.2163 55.9922 25.7255C55.9922 22.197 58.2375 19.9517 61.4453 19.9517C66.2568 19.9517 66.5776 24.7632 66.2568 26.6878ZM61.2849 22.197C59.1998 22.197 59.0395 24.4424 59.0395 24.4424H63.5302C63.5302 24.4424 63.3699 22.197 61.2849 22.197Z" fill="white"/>
<path d="M41.4582 22.8743L41.9393 20.3081C41.9393 20.3081 38.2235 19.1806 35.2031 21.2705V31.535H38.411L38.4108 23.1951C39.6938 22.2328 41.4582 22.8743 41.4582 22.8743Z" fill="white"/>
<path d="M32.6905 26.6878H25.4732C25.4732 26.6878 25.6335 29.0941 28.8413 29.0941C30.4451 29.0941 32.0489 28.6125 32.0489 28.6125L32.3697 31.1786C32.3697 31.1786 30.7659 31.8202 28.5205 31.8202C25.3127 31.8202 22.4258 30.2163 22.4258 25.7255C22.4258 22.197 24.6712 19.9517 27.879 19.9517C32.6905 19.9517 33.0112 24.7632 32.6905 26.6878ZM27.7185 22.197C25.6335 22.197 25.4732 24.4424 25.4732 24.4424H29.9639C29.9639 24.4424 29.8036 22.197 27.7185 22.197Z" fill="white"/>
<path d="M49.2461 27.6881C48.249 25.2631 47.4446 22.7633 46.8403 20.2119L43.6328 20.2123C43.6328 20.2123 45.2366 26.4045 47.9634 31.5355H50.5288C53.2556 26.4045 54.8594 20.2135 54.8594 20.2135H51.6519C51.0475 22.7643 50.243 25.2636 49.2461 27.6881Z" fill="white"/>
</g>
<defs>
<clipPath id="clip0_2397_15754">
<rect width="70" height="46" fill="white"/>
</clipPath>
</defs>
</svg>
