<svg width="81" height="26" viewBox="0 0 81 26" fill="none" xmlns="http://www.w3.org/2000/svg">
<g clip-path="url(#clip0_1144_11736)">
<path fill-rule="evenodd" clip-rule="evenodd" d="M33.7794 0.98253L29.7787 25.5693H36.1794L40.1806 0.98253H33.7794ZM24.3933 0.98253L18.2906 17.8931L17.5687 14.2517L17.5692 14.2529L17.4101 13.4367C16.6715 11.845 14.961 8.81968 11.7309 6.23787C10.776 5.47474 9.81338 4.82345 8.88281 4.26712L14.4292 25.5693H21.0983L31.2825 0.98253H24.3933ZM49.3744 7.80831C49.3744 5.02855 55.6082 5.38574 58.3474 6.89513L59.2607 1.61455C59.2607 1.61455 56.4418 0.54248 53.5035 0.54248C50.3268 0.54248 42.7836 1.93168 42.7836 8.68175C42.7836 15.0344 51.637 15.1133 51.637 18.4486C51.637 21.7838 43.6964 21.1878 41.0759 19.0838L40.1235 24.6033C40.1235 24.6033 42.9815 25.9925 47.3494 25.9925C51.7168 25.9925 58.3075 23.7298 58.3075 17.5751C58.3075 11.1828 49.3744 10.5874 49.3744 7.80831ZM75.4943 0.98253H70.3479C67.9715 0.98253 67.3929 2.81484 67.3929 2.81484L57.8472 25.5693H64.5188L65.8534 21.9175H73.9908L74.7415 25.5693H80.6188L75.4943 0.98253ZM67.698 16.872L71.0616 7.67106L72.9537 16.872H67.698Z" fill="#005BAC"/>
<path fill-rule="evenodd" clip-rule="evenodd" d="M16.5418 3.73001C16.5418 3.73001 16.2353 1.1626 12.9627 1.1626H1.07286L0.933594 1.64511C0.933594 1.64511 6.64877 2.81016 12.1318 7.17505C17.3715 11.3468 19.0808 16.5471 19.0808 16.5471L16.5418 3.73001Z" fill="#F6AC1D"/>
</g>
<defs>
<clipPath id="clip0_1144_11736">
<rect width="81" height="26" fill="white"/>
</clipPath>
</defs>
</svg>
