<svg width="70" height="46" viewBox="0 0 70 46" fill="none" xmlns="http://www.w3.org/2000/svg">
<rect x="0.5" y="0.5" width="69" height="45" rx="4.5" stroke="#F3F3F3"/>
<path d="M28.7443 15.294L21.9359 31.4631H17.4941L14.1432 18.5584C13.9402 17.7643 13.7638 17.4723 13.1445 17.1375C12.1355 16.5904 10.4663 16.08 9 15.7615L9.09843 15.2919H16.2493C17.1598 15.2919 17.9801 15.8942 18.1872 16.9395L19.957 26.2959L24.3291 15.2899H28.7422L28.7443 15.294ZM46.1467 26.1857C46.1651 21.9188 40.2201 21.682 40.2591 19.7752C40.2714 19.1954 40.8271 18.5788 42.0411 18.4216C42.642 18.3441 44.3031 18.2828 46.1836 19.1443L46.9218 15.7166C45.9108 15.3511 44.6107 15 42.9906 15C38.8379 15 35.9136 17.1987 35.891 20.3448C35.8623 22.6742 37.9766 23.9706 39.57 24.7464C41.2065 25.5385 41.7561 26.0468 41.7499 26.7552C41.7376 27.8414 40.4436 28.3191 39.2358 28.3374C37.1235 28.3701 35.8972 27.7699 34.921 27.3167L34.1602 30.8608C35.1405 31.3099 36.9533 31.6999 38.8338 31.7203C43.249 31.7203 46.1344 29.5501 46.1487 26.1877M57.1139 31.4651H61L57.6081 15.296H54.0214C53.2155 15.296 52.5346 15.7635 52.2332 16.4822L45.9293 31.4671H50.3404L51.216 29.052H56.6074L57.1159 31.4671L57.1139 31.4651ZM52.426 25.7345L54.6387 19.6629L55.9122 25.7345H52.426ZM34.7467 15.294L31.2728 31.4631H27.0709L30.5469 15.294H34.7488H34.7467Z" fill="#374E9F"/>
</svg>
