<svg width="70" height="46" viewBox="0 0 70 46" fill="none" xmlns="http://www.w3.org/2000/svg">
<g clip-path="url(#clip0_4634_17327)">
<path fill-rule="evenodd" clip-rule="evenodd" d="M65.625 0H4.375C1.96875 0 0 1.97143 0 4.38095V41.619C0 44.0286 1.96875 46 4.375 46H65.625C68.0312 46 70 44.0286 70 41.619V4.38095C70 1.97143 68.0312 0 65.625 0Z" fill="white"/>
<g clip-path="url(#clip1_4634_17327)">
<path d="M36.2663 7H36.8202C38.0446 7.05596 39.2128 7.32952 40.3251 7.82068C38.1406 7.80384 36.2055 8.42865 34.52 9.69513C32.1968 11.4416 30.7739 14.5051 31.4927 17.3755C31.9753 19.3045 33.4458 20.9108 35.4005 21.3949C38.7437 22.2238 41.7734 19.5971 41.6298 16.2899C41.5182 13.7211 39.8565 12.4237 37.5112 11.7847C37.4833 11.7766 37.469 11.7581 37.4685 11.7293C37.4463 9.92006 38.6756 8.39931 40.4153 7.93233C40.4388 7.92581 40.4492 7.90816 40.4465 7.87936C42.7656 8.84022 44.5668 11.0203 45.3735 13.2908C47.146 18.2801 44.2484 23.8553 39.1294 25.297C36.8558 25.9376 34.6538 25.7675 32.5234 24.7869C26.496 22.0127 25.2511 13.9159 30.1756 9.4596C31.8656 7.92962 33.8958 7.10975 36.2663 7Z" fill="#E60000"/>
<path d="M40.3243 7.82064L40.4458 7.87932C40.4485 7.90812 40.4381 7.92578 40.4146 7.9323C38.6749 8.39928 37.4456 9.92002 37.4677 11.7293C37.4683 11.7581 37.4825 11.7765 37.5104 11.7847C39.8557 12.4236 41.5175 13.7211 41.6291 16.2899C41.7727 19.5971 38.743 22.2237 35.3998 21.3949C33.4451 20.9108 31.9745 19.3045 31.492 17.3754C30.7731 14.5051 32.1961 11.4416 34.5192 9.69509C36.2048 8.42862 38.1398 7.8038 40.3243 7.82064Z" fill="white"/>
<path d="M40.9502 30.5702H42.5177C42.563 30.5702 42.5857 30.5927 42.5857 30.6378L42.592 32.1569C42.592 32.2045 42.5681 32.2282 42.5202 32.2282H40.9452C40.9032 32.2282 40.8822 32.2491 40.8822 32.2908V38.4649C40.8822 38.4785 40.8769 38.4915 40.8674 38.5012C40.858 38.5108 40.8451 38.5162 40.8318 38.5162H38.9166C38.8942 38.5162 38.8727 38.5075 38.8569 38.492C38.841 38.4765 38.8322 38.4555 38.8322 38.4336L38.8359 32.3221C38.8359 32.2972 38.8258 32.2733 38.8079 32.2557C38.7899 32.2381 38.7656 32.2282 38.7402 32.2282H37.8418C37.7897 32.2282 37.7637 32.2019 37.7637 32.1494V30.6515C37.7645 30.5973 37.7922 30.5702 37.8468 30.5702H38.7692C38.8179 30.5702 38.841 30.546 38.8385 30.4976C38.7767 28.9497 39.2454 27.5945 40.9994 27.3655C41.7696 27.2654 42.5114 27.3593 43.2245 27.6471C43.259 27.6613 43.2737 27.6867 43.2686 27.7234L43.0431 29.2651C43.0347 29.3251 43.0019 29.3443 42.9448 29.3226C41.71 28.8621 40.8582 29.0824 40.8759 30.4976C40.8767 30.546 40.9015 30.5702 40.9502 30.5702Z" fill="#E60000"/>
<path d="M25.4089 38.6727H24.7474C21.9741 38.3073 21.2358 34.9574 22.0649 32.7176C22.7868 30.7692 24.8469 29.9784 26.7785 30.6028C26.7885 30.6059 26.799 30.6067 26.8093 30.605C26.8196 30.6034 26.8294 30.5994 26.8379 30.5933C26.8463 30.5872 26.8532 30.5792 26.858 30.57C26.8628 30.5608 26.8654 30.5506 26.8655 30.5402V27.5983C26.8655 27.5566 26.8865 27.5358 26.9285 27.5358H28.8185C28.8815 27.5358 28.913 27.5671 28.913 27.6296V38.4224C28.913 38.4473 28.903 38.4712 28.8853 38.4888C28.8676 38.5064 28.8435 38.5162 28.8185 38.5162H27.1301C27.0983 38.5161 27.0677 38.5044 27.0442 38.4834C27.0207 38.4623 27.0059 38.4335 27.0028 38.4024L26.9625 38.0032C26.9549 37.9281 26.9238 37.9169 26.8692 37.9694C26.4602 38.364 25.9734 38.5984 25.4089 38.6727ZM23.8213 35.3929C24.1476 36.7494 25.4013 37.4288 26.6185 36.5191C26.7815 36.3982 26.8629 36.2793 26.8629 36.1625C26.8671 34.9162 26.8676 33.6694 26.8642 32.4222C26.8642 32.3814 26.8453 32.3522 26.8075 32.3346C24.5471 31.3048 23.3702 33.5134 23.8213 35.3929Z" fill="#E60000"/>
<path d="M17.3446 38.6727H16.4311C12.9649 38.1822 12.0148 33.6961 14.2652 31.3999C15.6348 30.0047 18.2682 30.061 19.5899 31.5025C21.703 33.8087 20.7416 38.2485 17.3446 38.6727ZM16.8736 36.9571C17.113 36.9579 17.3503 36.8955 17.572 36.7734C17.7936 36.6513 17.9952 36.4719 18.1653 36.2454C18.3354 36.0189 18.4707 35.7499 18.5633 35.4535C18.656 35.1572 18.7043 34.8394 18.7054 34.5183C18.7065 34.1972 18.6605 33.8791 18.5699 33.5821C18.4793 33.2852 18.346 33.0152 18.1775 32.7875C18.009 32.5599 17.8086 32.3791 17.5878 32.2554C17.3671 32.1318 17.1302 32.0677 16.8908 32.0669C16.6514 32.0661 16.4141 32.1285 16.1924 32.2506C15.9708 32.3727 15.7692 32.5521 15.5991 32.7786C15.429 33.005 15.2937 33.2741 15.2011 33.5705C15.1084 33.8668 15.0601 34.1846 15.059 34.5057C15.0579 34.8268 15.1039 35.1449 15.1945 35.4419C15.2851 35.7388 15.4184 36.0088 15.5869 36.2365C15.7554 36.4641 15.9558 36.6449 16.1765 36.7686C16.3973 36.8922 16.6342 36.9563 16.8736 36.9571Z" fill="#E60000"/>
<path d="M33.126 38.6727H32.4645C30.3502 38.3949 29.2112 35.8234 30.984 34.3806C31.8648 33.6636 33.3957 33.4145 34.5901 33.3883C34.6049 33.388 34.6191 33.3823 34.6301 33.3721C34.641 33.362 34.6478 33.3481 34.6494 33.3332C34.7313 32.5123 34.2499 32.0731 33.4461 32.0543C32.7505 32.0377 32.1 32.2612 31.4943 32.7251C31.4313 32.7734 31.3826 32.7618 31.3482 32.69L30.7446 31.4137C30.7362 31.3963 30.7343 31.3765 30.7394 31.3578C30.7445 31.3392 30.7562 31.323 30.7723 31.3123C32.4872 30.1398 35.835 29.7219 36.5671 32.2783C36.646 32.5545 36.6859 33.0316 36.6868 33.7099C36.6901 35.2749 36.6969 36.8403 36.7069 38.4061C36.7069 38.4545 36.6826 38.4791 36.6339 38.48L34.9354 38.4962C34.9021 38.4966 34.8699 38.4839 34.8459 38.461C34.8219 38.4381 34.8079 38.4067 34.8069 38.3736L34.7955 38.0145C34.793 37.9235 34.7586 37.9093 34.6922 37.9719C34.2546 38.3799 33.7325 38.6134 33.126 38.6727ZM34.609 34.7923C33.9727 34.8361 32.9181 34.9049 32.4595 35.3579C31.9063 35.9035 32.0916 36.8294 32.9484 36.9346C33.5968 37.0146 34.158 36.8445 34.6317 36.424C34.662 36.3973 34.6771 36.3644 34.6771 36.3252V34.8561C34.6771 34.811 34.6544 34.7898 34.609 34.7923Z" fill="#E60000"/>
<path d="M47.2703 38.6726H46.3883C41.7843 38.0645 41.9065 30.6879 46.5458 30.4038C51.6186 30.0935 52.1049 37.9932 47.2703 38.6726ZM46.8137 36.9558C47.0528 36.9562 47.2896 36.8934 47.5107 36.7709C47.7319 36.6484 47.9329 36.4686 48.1024 36.2419C48.2718 36.0151 48.4064 35.7458 48.4984 35.4493C48.5904 35.1528 48.6381 34.8349 48.6387 34.5138C48.6392 34.1927 48.5927 33.8747 48.5017 33.5779C48.4107 33.2811 48.2771 33.0113 48.1084 32.784C47.9398 32.5566 47.7394 32.3762 47.5187 32.2529C47.298 32.1296 47.0614 32.066 46.8223 32.0656C46.5832 32.0652 46.3463 32.128 46.1252 32.2505C45.9041 32.373 45.703 32.5527 45.5336 32.7795C45.3641 33.0063 45.2295 33.2756 45.1375 33.5721C45.0455 33.8686 44.9978 34.1864 44.9973 34.5075C44.9967 34.8286 45.0432 35.1467 45.1342 35.4435C45.2252 35.7403 45.3588 36.0101 45.5275 36.2374C45.6962 36.4648 45.8966 36.6452 46.1172 36.7685C46.3379 36.8917 46.5746 36.9554 46.8137 36.9558Z" fill="#E60000"/>
<path d="M53.9384 31.1659C56.1157 29.5529 59.0124 30.4263 59.0237 33.4371C59.0296 35.0146 59.0326 36.6751 59.0326 38.4186C59.0326 38.4315 59.03 38.4441 59.0251 38.456C59.0201 38.4678 59.0129 38.4786 59.0038 38.4877C58.9946 38.4967 58.9838 38.5039 58.9719 38.5088C58.96 38.5137 58.9472 38.5162 58.9343 38.5162H57.1337C57.1154 38.5162 57.0972 38.5126 57.0803 38.5055C57.0634 38.4984 57.0481 38.488 57.0353 38.475C57.0225 38.4619 57.0124 38.4464 57.0057 38.4294C56.9991 38.4125 56.9959 38.3943 56.9964 38.3761C57.025 36.8987 57.0224 35.463 56.9888 34.069C56.9754 33.5401 56.9204 33.163 56.8238 32.9378C56.2669 31.6439 54.7927 32.0468 54.0228 32.8452C53.9968 32.8727 53.9837 32.9057 53.9837 32.944L53.9888 38.4449C53.9888 38.4638 53.9813 38.482 53.9681 38.4953C53.9549 38.5087 53.9369 38.5162 53.9182 38.5162H52.0496C52.0202 38.5162 51.992 38.5046 51.9712 38.484C51.9504 38.4633 51.9388 38.4353 51.9388 38.4061L51.9375 30.6378C51.9375 30.5928 51.9602 30.5702 52.0055 30.5702H53.7217C53.7746 30.5702 53.8044 30.5965 53.8111 30.6491L53.8779 31.1409C53.8787 31.1474 53.8813 31.1536 53.8853 31.1589C53.8894 31.1641 53.8947 31.1682 53.9009 31.1707C53.907 31.1733 53.9137 31.1742 53.9203 31.1733C53.9269 31.1725 53.9331 31.1699 53.9384 31.1659Z" fill="#E60000"/>
<path d="M67.4998 34.3944V35.0476L62.417 35.0738C62.3682 35.0738 62.3451 35.0976 62.3477 35.1452C62.4409 37.4326 65.2356 37.1798 66.575 36.2789C66.6102 36.2555 66.6346 36.2639 66.648 36.3039L67.1596 37.8305C67.1672 37.8538 67.1664 37.879 67.1574 37.9018C67.1485 37.9246 67.1319 37.9436 67.1105 37.9557C66.3696 38.3653 65.5728 38.6043 64.7202 38.6727H63.7122C61.9718 38.4675 60.8823 37.549 60.4438 35.9173C59.7584 33.3695 61.0196 30.3751 64.0335 30.3888C66.3923 30.4001 67.4658 32.2759 67.4998 34.3944ZM62.4724 33.5998L65.3553 33.6048C65.3673 33.6048 65.3788 33.6 65.3874 33.5916C65.3959 33.5831 65.4006 33.5717 65.4006 33.5597V33.5284C65.401 33.3324 65.363 33.1382 65.2887 32.957C65.2145 32.7757 65.1055 32.611 64.9681 32.4721C64.8306 32.3332 64.6673 32.223 64.4875 32.1477C64.3077 32.0724 64.1149 32.0334 63.9201 32.0331H63.9126C63.5193 32.0324 63.1418 32.1891 62.8632 32.4686C62.5846 32.7481 62.4277 33.1275 62.427 33.5234V33.5547C62.427 33.5667 62.4318 33.5781 62.4403 33.5866C62.4488 33.595 62.4604 33.5998 62.4724 33.5998Z" fill="#E60000"/>
<path d="M10.8239 30.5702H12.8172C12.8247 30.5702 12.8321 30.5721 12.8386 30.5756C12.8452 30.5792 12.8508 30.5842 12.8549 30.5904C12.859 30.5966 12.8615 30.6037 12.8622 30.6111C12.8629 30.6185 12.8617 30.6259 12.8588 30.6328L9.64456 38.4887C9.64111 38.4968 9.63532 38.5037 9.62793 38.5086C9.62054 38.5135 9.61187 38.5161 9.60298 38.5162H7.88308C7.8742 38.5161 7.86552 38.5135 7.85813 38.5086C7.85074 38.5037 7.84496 38.4968 7.8415 38.4887L4.52896 30.6328C4.52606 30.6259 4.5249 30.6185 4.52558 30.6111C4.52627 30.6037 4.52878 30.5966 4.53289 30.5904C4.53701 30.5842 4.54259 30.5792 4.54916 30.5756C4.55573 30.5721 4.56307 30.5702 4.57054 30.5702H6.66466C6.6739 30.5701 6.68296 30.5728 6.69062 30.5779C6.69827 30.5831 6.70416 30.5904 6.7075 30.599L8.73358 35.7395C8.73692 35.7479 8.74273 35.7551 8.75026 35.7602C8.75778 35.7653 8.76668 35.768 8.77579 35.768C8.7849 35.768 8.7938 35.7653 8.80133 35.7602C8.80886 35.7551 8.81467 35.7479 8.818 35.7395L10.7811 30.599C10.7844 30.5904 10.7903 30.5831 10.798 30.5779C10.8056 30.5728 10.8147 30.5701 10.8239 30.5702Z" fill="#E60000"/>
</g>
</g>
<defs>
<clipPath id="clip0_4634_17327">
<rect width="70" height="46" fill="white"/>
</clipPath>
<clipPath id="clip1_4634_17327">
<rect width="63" height="42" fill="white" transform="translate(4.5 2)"/>
</clipPath>
</defs>
</svg>
