<svg width="30" height="30" viewBox="0 0 35 35" fill="none" xmlns="http://www.w3.org/2000/svg">
<path d="M29.021 13.7236V10.4652C29.021 8.8784 29.021 8.085 28.7122 7.47891C28.4405 6.94579 28.0071 6.51234 27.474 6.2407C26.8679 5.93189 26.0745 5.93189 24.4877 5.93188H8.05433C6.46751 5.93188 5.67411 5.93188 5.06802 6.2407C4.5349 6.51234 4.10145 6.94579 3.82981 7.47891C3.521 8.085 3.521 8.8784 3.521 10.4652V24.0652C3.521 25.652 3.521 26.4454 3.82981 27.0515C4.10145 27.5846 4.5349 28.0181 5.06802 28.2897C5.67411 28.5986 6.46751 28.5986 8.05433 28.5986L24.4877 28.5986C26.0745 28.5986 26.8679 28.5986 27.474 28.2897C28.0071 28.0181 28.4405 27.5847 28.7122 27.0515C29.021 26.4454 29.021 25.652 29.021 24.0652V20.8069M21.9377 17.2652C21.9377 16.607 21.9377 16.2778 21.9921 16.0041C22.2157 14.8802 23.0943 14.0016 24.2182 13.778C24.4919 13.7236 24.8211 13.7236 25.4793 13.7236H28.3127C28.9709 13.7236 29.3001 13.7236 29.5738 13.778C30.6977 14.0016 31.5763 14.8802 31.7999 16.0041C31.8543 16.2778 31.8543 16.607 31.8543 17.2652C31.8543 17.9235 31.8543 18.2526 31.7999 18.5263C31.5763 19.6503 30.6977 20.5289 29.5738 20.7524C29.3001 20.8069 28.9709 20.8069 28.3127 20.8069H25.4793C24.8211 20.8069 24.4919 20.8069 24.2182 20.7524C23.0943 20.5289 22.2157 19.6503 21.9921 18.5263C21.9377 18.2526 21.9377 17.9235 21.9377 17.2652Z" stroke="white" stroke-width="2" stroke-linecap="round" stroke-linejoin="round"/>
</svg>
