<svg width="70" height="46" viewBox="0 0 70 46" fill="none" xmlns="http://www.w3.org/2000/svg">
<rect x="0.5" y="0.5" width="69" height="45" rx="4.5" fill="white"/>
<rect x="0.5" y="0.5" width="69" height="45" rx="4.5" stroke="#F3F3F3"/>
<path d="M12.902 28L10.37 19.36H12.086L13.706 25.3L15.326 19.372L17.042 19.36L18.662 25.3L20.282 19.36H21.998L19.466 28H17.858L16.184 22.168L14.51 28H12.902ZM25.2583 28.18C24.5943 28.18 24.0083 28.038 23.5003 27.754C22.9963 27.466 22.6003 27.072 22.3123 26.572C22.0283 26.068 21.8863 25.492 21.8863 24.844C21.8863 24.136 22.0263 23.52 22.3063 22.996C22.5863 22.472 22.9723 22.066 23.4643 21.778C23.9563 21.486 24.5223 21.34 25.1623 21.34C25.8423 21.34 26.4203 21.5 26.8963 21.82C27.3723 22.14 27.7243 22.59 27.9523 23.17C28.1803 23.75 28.2603 24.432 28.1923 25.216H26.5783V24.616C26.5783 23.956 26.4723 23.482 26.2603 23.194C26.0523 22.902 25.7103 22.756 25.2343 22.756C24.6783 22.756 24.2683 22.926 24.0043 23.266C23.7443 23.602 23.6143 24.1 23.6143 24.76C23.6143 25.364 23.7443 25.832 24.0043 26.164C24.2683 26.492 24.6543 26.656 25.1623 26.656C25.4823 26.656 25.7563 26.586 25.9843 26.446C26.2123 26.306 26.3863 26.104 26.5063 25.84L28.1383 26.308C27.8943 26.9 27.5083 27.36 26.9803 27.688C26.4563 28.016 25.8823 28.18 25.2583 28.18ZM23.1103 25.216V24.004H27.4062V25.216H23.1103ZM32.727 28.18C32.083 28.18 31.545 28.03 31.113 27.73C30.681 27.43 30.355 27.022 30.135 26.506C29.919 25.99 29.811 25.408 29.811 24.76C29.811 24.112 29.919 23.53 30.135 23.014C30.351 22.498 30.669 22.09 31.089 21.79C31.509 21.49 32.027 21.34 32.643 21.34C33.263 21.34 33.803 21.488 34.263 21.784C34.723 22.08 35.079 22.486 35.331 23.002C35.587 23.514 35.715 24.1 35.715 24.76C35.715 25.408 35.589 25.99 35.337 26.506C35.089 27.022 34.741 27.43 34.293 27.73C33.845 28.03 33.323 28.18 32.727 28.18ZM29.535 28V19.36H31.179V23.56H30.975V28H29.535ZM32.463 26.728C32.815 26.728 33.103 26.64 33.327 26.464C33.551 26.288 33.717 26.052 33.825 25.756C33.933 25.456 33.987 25.124 33.987 24.76C33.987 24.4 33.931 24.072 33.819 23.776C33.707 23.476 33.533 23.238 33.297 23.062C33.065 22.882 32.767 22.792 32.403 22.792C32.063 22.792 31.787 22.874 31.575 23.038C31.367 23.202 31.215 23.432 31.119 23.728C31.023 24.024 30.975 24.368 30.975 24.76C30.975 25.152 31.023 25.496 31.119 25.792C31.215 26.088 31.371 26.318 31.587 26.482C31.807 26.646 32.099 26.728 32.463 26.728ZM39.4377 28V19.36H43.0857C43.1697 19.36 43.2817 19.364 43.4217 19.372C43.5657 19.376 43.6937 19.388 43.8057 19.408C44.3217 19.488 44.7437 19.658 45.0717 19.918C45.4037 20.178 45.6477 20.506 45.8037 20.902C45.9597 21.294 46.0377 21.732 46.0377 22.216C46.0377 22.7 45.9577 23.14 45.7977 23.536C45.6417 23.928 45.3977 24.254 45.0657 24.514C44.7377 24.774 44.3177 24.944 43.8057 25.024C43.6937 25.04 43.5657 25.052 43.4217 25.06C43.2777 25.068 43.1657 25.072 43.0857 25.072H41.0697V28H39.4377ZM41.0697 23.548H43.0137C43.0977 23.548 43.1897 23.544 43.2897 23.536C43.3897 23.528 43.4817 23.512 43.5657 23.488C43.7857 23.428 43.9557 23.328 44.0757 23.188C44.1957 23.044 44.2777 22.886 44.3217 22.714C44.3697 22.538 44.3937 22.372 44.3937 22.216C44.3937 22.06 44.3697 21.896 44.3217 21.724C44.2777 21.548 44.1957 21.39 44.0757 21.25C43.9557 21.106 43.7857 21.004 43.5657 20.944C43.4817 20.92 43.3897 20.904 43.2897 20.896C43.1897 20.888 43.0977 20.884 43.0137 20.884H41.0697V23.548ZM48.9134 28.18C48.4494 28.18 48.0554 28.092 47.7314 27.916C47.4114 27.736 47.1674 27.498 46.9994 27.202C46.8354 26.902 46.7534 26.572 46.7534 26.212C46.7534 25.912 46.7994 25.638 46.8914 25.39C46.9834 25.142 47.1314 24.924 47.3354 24.736C47.5434 24.544 47.8214 24.384 48.1694 24.256C48.4094 24.168 48.6954 24.09 49.0274 24.022C49.3594 23.954 49.7354 23.89 50.1554 23.83C50.5754 23.766 51.0374 23.696 51.5414 23.62L50.9534 23.944C50.9534 23.56 50.8614 23.278 50.6774 23.098C50.4934 22.918 50.1854 22.828 49.7534 22.828C49.5134 22.828 49.2634 22.886 49.0034 23.002C48.7434 23.118 48.5614 23.324 48.4574 23.62L46.9814 23.152C47.1454 22.616 47.4534 22.18 47.9054 21.844C48.3574 21.508 48.9734 21.34 49.7534 21.34C50.3254 21.34 50.8334 21.428 51.2774 21.604C51.7214 21.78 52.0574 22.084 52.2854 22.516C52.4134 22.756 52.4894 22.996 52.5134 23.236C52.5374 23.476 52.5494 23.744 52.5494 24.04V28H51.1214V26.668L51.3254 26.944C51.0094 27.38 50.6674 27.696 50.2994 27.892C49.9354 28.084 49.4734 28.18 48.9134 28.18ZM49.2614 26.896C49.5614 26.896 49.8134 26.844 50.0174 26.74C50.2254 26.632 50.3894 26.51 50.5094 26.374C50.6334 26.238 50.7174 26.124 50.7614 26.032C50.8454 25.856 50.8934 25.652 50.9054 25.42C50.9214 25.184 50.9294 24.988 50.9294 24.832L51.4094 24.952C50.9254 25.032 50.5334 25.1 50.2334 25.156C49.9334 25.208 49.6914 25.256 49.5074 25.3C49.3234 25.344 49.1614 25.392 49.0214 25.444C48.8614 25.508 48.7314 25.578 48.6314 25.654C48.5354 25.726 48.4634 25.806 48.4154 25.894C48.3714 25.982 48.3494 26.08 48.3494 26.188C48.3494 26.336 48.3854 26.464 48.4574 26.572C48.5334 26.676 48.6394 26.756 48.7754 26.812C48.9114 26.868 49.0734 26.896 49.2614 26.896ZM54.5743 30.88L55.8223 27.448L55.8463 28.456L53.0263 21.52H54.7183L56.6143 26.428H56.2303L58.1143 21.52H59.7463L56.0863 30.88H54.5743Z" fill="black"/>
</svg>
