<svg width="695" height="695" viewBox="0 0 695 695" fill="none" xmlns="http://www.w3.org/2000/svg">
<g filter="url(#filter0_d_2184_16345)">
<circle cx="347.5" cy="343.5" r="323.5" fill="white"/>
</g>
<path d="M510.833 457H539.167M510.833 457C510.833 464.824 517.176 471.167 525 471.167M510.833 457C510.833 449.176 517.176 442.833 525 442.833M539.167 457C539.167 464.824 532.824 471.167 525 471.167M539.167 457C539.167 449.176 532.824 442.833 525 442.833M525 442.833C528.544 446.713 530.557 451.747 530.667 457C530.557 462.253 528.544 467.287 525 471.167M525 442.833C521.457 446.713 519.443 451.747 519.333 457C519.443 462.253 521.457 467.287 525 471.167" stroke="black" stroke-width="2" stroke-linecap="round" stroke-linejoin="round"/>
<path d="M472.829 501.24C471.991 501.24 471.247 501.096 470.597 500.808C469.951 500.52 469.407 500.112 468.965 499.584C468.522 499.056 468.186 498.424 467.957 497.688C467.727 496.952 467.613 496.136 467.613 495.24C467.613 494.051 467.813 493.008 468.213 492.112C468.618 491.211 469.207 490.509 469.981 490.008C470.754 489.507 471.703 489.256 472.829 489.256C473.991 489.256 474.946 489.528 475.693 490.072C476.445 490.616 476.973 491.331 477.277 492.216L476.365 492.496C476.098 491.787 475.663 491.221 475.061 490.8C474.463 490.373 473.727 490.157 472.853 490.152C471.909 490.152 471.122 490.368 470.493 490.8C469.869 491.227 469.399 491.824 469.085 492.592C468.77 493.36 468.607 494.243 468.597 495.24C468.586 496.237 468.738 497.12 469.053 497.888C469.373 498.651 469.85 499.251 470.485 499.688C471.119 500.12 471.909 500.336 472.853 500.336C473.754 500.341 474.49 500.165 475.061 499.808C475.637 499.451 476.063 498.949 476.341 498.304C476.623 497.653 476.775 496.893 476.797 496.024H473.933V495.184H477.757C477.773 495.317 477.781 495.448 477.781 495.576C477.786 495.704 477.789 495.803 477.789 495.872C477.789 496.891 477.61 497.805 477.253 498.616C476.901 499.427 476.357 500.067 475.621 500.536C474.89 501.005 473.959 501.24 472.829 501.24ZM479.553 501V489.24H480.473V501H479.553ZM486.422 501.24C485.563 501.24 484.835 501.045 484.238 500.656C483.64 500.267 483.184 499.728 482.87 499.04C482.555 498.352 482.398 497.56 482.398 496.664C482.398 495.763 482.558 494.971 482.878 494.288C483.198 493.6 483.656 493.067 484.254 492.688C484.856 492.309 485.579 492.12 486.422 492.12C487.28 492.12 488.008 492.315 488.606 492.704C489.208 493.088 489.664 493.621 489.974 494.304C490.288 494.987 490.446 495.773 490.446 496.664C490.446 497.576 490.288 498.376 489.974 499.064C489.659 499.747 489.2 500.28 488.598 500.664C487.995 501.048 487.27 501.24 486.422 501.24ZM486.422 500.344C487.44 500.344 488.2 500.003 488.702 499.32C489.208 498.637 489.462 497.752 489.462 496.664C489.462 495.555 489.208 494.669 488.702 494.008C488.195 493.347 487.435 493.016 486.422 493.016C485.734 493.016 485.166 493.173 484.718 493.488C484.27 493.797 483.934 494.227 483.71 494.776C483.491 495.32 483.382 495.949 483.382 496.664C483.382 497.773 483.638 498.664 484.15 499.336C484.667 500.008 485.424 500.344 486.422 500.344ZM495.99 501.24C495.211 501.24 494.553 501.037 494.014 500.632C493.475 500.227 493.065 499.68 492.782 498.992C492.499 498.304 492.358 497.528 492.358 496.664C492.358 495.795 492.499 495.019 492.782 494.336C493.065 493.648 493.483 493.107 494.038 492.712C494.593 492.317 495.273 492.12 496.078 492.12C496.862 492.12 497.531 492.32 498.086 492.72C498.641 493.12 499.062 493.664 499.35 494.352C499.643 495.04 499.79 495.811 499.79 496.664C499.79 497.528 499.641 498.307 499.342 499C499.049 499.688 498.619 500.235 498.054 500.64C497.494 501.04 496.806 501.24 495.99 501.24ZM492.206 501V489.48H493.126V494.344H493.046V501H492.206ZM495.934 500.36C496.569 500.36 497.097 500.197 497.518 499.872C497.945 499.547 498.265 499.107 498.478 498.552C498.697 497.992 498.806 497.363 498.806 496.664C498.806 495.971 498.699 495.349 498.486 494.8C498.278 494.245 497.961 493.808 497.534 493.488C497.113 493.163 496.574 493 495.918 493C495.283 493 494.753 493.157 494.326 493.472C493.899 493.781 493.579 494.213 493.366 494.768C493.153 495.323 493.046 495.955 493.046 496.664C493.046 497.368 493.15 498 493.358 498.56C493.571 499.115 493.891 499.555 494.318 499.88C494.75 500.2 495.289 500.36 495.934 500.36ZM504.046 501.24C503.379 501.24 502.824 501.123 502.382 500.888C501.944 500.653 501.616 500.344 501.398 499.96C501.179 499.571 501.07 499.149 501.07 498.696C501.07 498.205 501.171 497.795 501.374 497.464C501.582 497.133 501.856 496.867 502.198 496.664C502.544 496.461 502.926 496.309 503.342 496.208C503.816 496.101 504.328 496.011 504.878 495.936C505.427 495.856 505.95 495.787 506.446 495.728C506.947 495.669 507.355 495.619 507.67 495.576L507.334 495.776C507.355 494.843 507.179 494.149 506.806 493.696C506.438 493.237 505.787 493.008 504.854 493.008C504.198 493.008 503.656 493.157 503.23 493.456C502.808 493.749 502.512 494.205 502.342 494.824L501.398 494.56C501.595 493.776 501.992 493.173 502.59 492.752C503.187 492.331 503.952 492.12 504.886 492.12C505.68 492.12 506.347 492.275 506.886 492.584C507.43 492.893 507.808 493.328 508.022 493.888C508.112 494.117 508.174 494.387 508.206 494.696C508.238 495 508.254 495.307 508.254 495.616V501H507.414V498.728L507.726 498.808C507.464 499.587 507.008 500.187 506.358 500.608C505.707 501.029 504.936 501.24 504.046 501.24ZM504.094 500.392C504.68 500.392 505.195 500.288 505.638 500.08C506.08 499.867 506.438 499.571 506.71 499.192C506.987 498.808 507.163 498.357 507.238 497.84C507.291 497.552 507.32 497.24 507.326 496.904C507.331 496.568 507.334 496.32 507.334 496.16L507.734 496.416C507.387 496.459 506.971 496.504 506.486 496.552C506.006 496.6 505.515 496.659 505.014 496.728C504.512 496.797 504.059 496.885 503.654 496.992C503.403 497.061 503.15 497.163 502.894 497.296C502.643 497.424 502.432 497.603 502.262 497.832C502.096 498.061 502.014 498.352 502.014 498.704C502.014 498.965 502.078 499.227 502.206 499.488C502.339 499.749 502.558 499.965 502.862 500.136C503.166 500.307 503.576 500.392 504.094 500.392ZM510.491 501V489.24H511.411V501H510.491ZM520.546 501.24C519.682 501.24 518.954 501.048 518.362 500.664C517.77 500.275 517.32 499.739 517.01 499.056C516.706 498.368 516.549 497.576 516.538 496.68C516.549 495.768 516.709 494.971 517.018 494.288C517.333 493.6 517.786 493.067 518.378 492.688C518.97 492.309 519.696 492.12 520.554 492.12C521.392 492.12 522.128 492.323 522.762 492.728C523.402 493.128 523.845 493.68 524.09 494.384L523.194 494.712C522.976 494.173 522.632 493.757 522.162 493.464C521.693 493.165 521.154 493.016 520.546 493.016C519.864 493.016 519.301 493.173 518.858 493.488C518.416 493.797 518.085 494.227 517.866 494.776C517.648 495.325 517.533 495.96 517.522 496.68C517.538 497.784 517.797 498.672 518.298 499.344C518.805 500.011 519.554 500.344 520.546 500.344C521.16 500.344 521.69 500.203 522.138 499.92C522.592 499.637 522.938 499.227 523.178 498.688L524.09 499C523.754 499.731 523.285 500.288 522.682 500.672C522.08 501.051 521.368 501.24 520.546 501.24ZM529.078 501.24C528.219 501.24 527.491 501.045 526.894 500.656C526.297 500.267 525.841 499.728 525.526 499.04C525.211 498.352 525.054 497.56 525.054 496.664C525.054 495.763 525.214 494.971 525.534 494.288C525.854 493.6 526.313 493.067 526.91 492.688C527.513 492.309 528.235 492.12 529.078 492.12C529.937 492.12 530.665 492.315 531.262 492.704C531.865 493.088 532.321 493.621 532.63 494.304C532.945 494.987 533.102 495.773 533.102 496.664C533.102 497.576 532.945 498.376 532.63 499.064C532.315 499.747 531.857 500.28 531.254 500.664C530.651 501.048 529.926 501.24 529.078 501.24ZM529.078 500.344C530.097 500.344 530.857 500.003 531.358 499.32C531.865 498.637 532.118 497.752 532.118 496.664C532.118 495.555 531.865 494.669 531.358 494.008C530.851 493.347 530.091 493.016 529.078 493.016C528.39 493.016 527.822 493.173 527.374 493.488C526.926 493.797 526.59 494.227 526.366 494.776C526.147 495.32 526.038 495.949 526.038 496.664C526.038 497.773 526.294 498.664 526.806 499.336C527.323 500.008 528.081 500.344 529.078 500.344ZM536.886 501L533.75 492.36H534.702L537.374 499.744L540.038 492.36H540.998L537.862 501H536.886ZM545.688 501.24C544.861 501.24 544.146 501.056 543.544 500.688C542.941 500.315 542.474 499.789 542.144 499.112C541.813 498.429 541.648 497.624 541.648 496.696C541.648 495.752 541.81 494.939 542.136 494.256C542.466 493.568 542.93 493.04 543.528 492.672C544.13 492.304 544.845 492.12 545.672 492.12C546.509 492.12 547.224 492.312 547.816 492.696C548.413 493.075 548.866 493.624 549.176 494.344C549.49 495.064 549.64 495.931 549.624 496.944H548.664V496.624C548.637 495.44 548.37 494.539 547.864 493.92C547.357 493.301 546.632 492.992 545.688 492.992C544.712 492.992 543.957 493.315 543.424 493.96C542.896 494.6 542.632 495.507 542.632 496.68C542.632 497.843 542.896 498.744 543.424 499.384C543.957 500.024 544.706 500.344 545.672 500.344C546.338 500.344 546.92 500.189 547.416 499.88C547.917 499.565 548.314 499.117 548.608 498.536L549.44 498.904C549.093 499.651 548.592 500.227 547.936 500.632C547.28 501.037 546.53 501.24 545.688 501.24ZM542.28 496.944V496.112H549.104V496.944H542.28ZM551.393 501V492.36H552.233V494.432L552.025 494.16C552.121 493.915 552.241 493.688 552.385 493.48C552.535 493.267 552.687 493.093 552.841 492.96C553.071 492.747 553.34 492.587 553.649 492.48C553.959 492.368 554.271 492.304 554.585 492.288C554.9 492.267 555.185 492.291 555.441 492.36V493.232C555.1 493.152 554.737 493.136 554.353 493.184C553.969 493.232 553.609 493.397 553.273 493.68C552.98 493.936 552.767 494.235 552.633 494.576C552.5 494.912 552.415 495.267 552.377 495.64C552.34 496.008 552.321 496.368 552.321 496.72V501H551.393ZM559.093 501.24C558.426 501.24 557.871 501.123 557.429 500.888C556.991 500.653 556.663 500.344 556.445 499.96C556.226 499.571 556.117 499.149 556.117 498.696C556.117 498.205 556.218 497.795 556.421 497.464C556.629 497.133 556.903 496.867 557.245 496.664C557.591 496.461 557.973 496.309 558.389 496.208C558.863 496.101 559.375 496.011 559.925 495.936C560.474 495.856 560.997 495.787 561.493 495.728C561.994 495.669 562.402 495.619 562.717 495.576L562.381 495.776C562.402 494.843 562.226 494.149 561.853 493.696C561.485 493.237 560.834 493.008 559.901 493.008C559.245 493.008 558.703 493.157 558.277 493.456C557.855 493.749 557.559 494.205 557.389 494.824L556.445 494.56C556.642 493.776 557.039 493.173 557.637 492.752C558.234 492.331 558.999 492.12 559.933 492.12C560.727 492.12 561.394 492.275 561.933 492.584C562.477 492.893 562.855 493.328 563.069 493.888C563.159 494.117 563.221 494.387 563.253 494.696C563.285 495 563.301 495.307 563.301 495.616V501H562.461V498.728L562.773 498.808C562.511 499.587 562.055 500.187 561.405 500.608C560.754 501.029 559.983 501.24 559.093 501.24ZM559.141 500.392C559.727 500.392 560.242 500.288 560.685 500.08C561.127 499.867 561.485 499.571 561.757 499.192C562.034 498.808 562.21 498.357 562.285 497.84C562.338 497.552 562.367 497.24 562.373 496.904C562.378 496.568 562.381 496.32 562.381 496.16L562.781 496.416C562.434 496.459 562.018 496.504 561.533 496.552C561.053 496.6 560.562 496.659 560.061 496.728C559.559 496.797 559.106 496.885 558.701 496.992C558.45 497.061 558.197 497.163 557.941 497.296C557.69 497.424 557.479 497.603 557.309 497.832C557.143 498.061 557.061 498.352 557.061 498.704C557.061 498.965 557.125 499.227 557.253 499.488C557.386 499.749 557.605 499.965 557.909 500.136C558.213 500.307 558.623 500.392 559.141 500.392ZM568.738 505.08C568.311 505.08 567.884 505.016 567.458 504.888C567.036 504.765 566.642 504.563 566.274 504.28C565.906 504.003 565.594 503.632 565.338 503.168L566.17 502.672C566.431 503.205 566.802 503.587 567.282 503.816C567.762 504.045 568.25 504.16 568.746 504.16C569.444 504.16 569.996 504.029 570.402 503.768C570.812 503.512 571.106 503.125 571.282 502.608C571.458 502.096 571.546 501.459 571.546 500.696V498.432H571.642V492.36H572.482V500.696C572.482 500.952 572.476 501.197 572.466 501.432C572.455 501.667 572.431 501.901 572.394 502.136C572.298 502.803 572.1 503.352 571.802 503.784C571.503 504.221 571.098 504.547 570.586 504.76C570.079 504.973 569.463 505.08 568.738 505.08ZM568.698 501.24C567.882 501.24 567.191 501.04 566.626 500.64C566.066 500.235 565.636 499.688 565.338 499C565.044 498.307 564.898 497.528 564.898 496.664C564.898 495.811 565.044 495.04 565.338 494.352C565.631 493.664 566.052 493.12 566.602 492.72C567.156 492.32 567.826 492.12 568.61 492.12C569.415 492.12 570.095 492.317 570.65 492.712C571.204 493.107 571.623 493.648 571.906 494.336C572.188 495.019 572.33 495.795 572.33 496.664C572.33 497.528 572.188 498.304 571.906 498.992C571.623 499.68 571.212 500.227 570.674 500.632C570.135 501.037 569.476 501.24 568.698 501.24ZM568.754 500.36C569.399 500.36 569.935 500.2 570.362 499.88C570.794 499.555 571.114 499.115 571.322 498.56C571.535 498 571.642 497.368 571.642 496.664C571.642 495.955 571.535 495.323 571.322 494.768C571.108 494.213 570.788 493.781 570.362 493.472C569.935 493.157 569.404 493 568.77 493C568.114 493 567.572 493.163 567.146 493.488C566.719 493.808 566.402 494.245 566.194 494.8C565.986 495.349 565.882 495.971 565.882 496.664C565.882 497.363 565.988 497.992 566.202 498.552C566.42 499.107 566.74 499.547 567.162 499.872C567.588 500.197 568.119 500.36 568.754 500.36ZM578.282 501.24C577.455 501.24 576.74 501.056 576.138 500.688C575.535 500.315 575.068 499.789 574.738 499.112C574.407 498.429 574.242 497.624 574.242 496.696C574.242 495.752 574.404 494.939 574.73 494.256C575.06 493.568 575.524 493.04 576.122 492.672C576.724 492.304 577.439 492.12 578.266 492.12C579.103 492.12 579.818 492.312 580.41 492.696C581.007 493.075 581.46 493.624 581.77 494.344C582.084 495.064 582.234 495.931 582.218 496.944H581.258V496.624C581.231 495.44 580.964 494.539 580.458 493.92C579.951 493.301 579.226 492.992 578.282 492.992C577.306 492.992 576.551 493.315 576.018 493.96C575.49 494.6 575.226 495.507 575.226 496.68C575.226 497.843 575.49 498.744 576.018 499.384C576.551 500.024 577.3 500.344 578.266 500.344C578.932 500.344 579.514 500.189 580.01 499.88C580.511 499.565 580.908 499.117 581.202 498.536L582.034 498.904C581.687 499.651 581.186 500.227 580.53 500.632C579.874 501.037 579.124 501.24 578.282 501.24ZM574.874 496.944V496.112H581.698V496.944H574.874Z" fill="black"/>
<path d="M351 543.333V549M351 554.667H351.014M365.167 549C365.167 556.824 358.824 563.167 351 563.167C343.176 563.167 336.833 556.824 336.833 549C336.833 541.176 343.176 534.833 351 534.833C358.824 534.833 365.167 541.176 365.167 549Z" stroke="black" stroke-width="2" stroke-linecap="round" stroke-linejoin="round"/>
<path d="M287.581 593V581.48H291.925C292.037 581.48 292.157 581.485 292.285 581.496C292.418 581.501 292.557 581.517 292.701 581.544C293.277 581.635 293.77 581.843 294.181 582.168C294.597 582.488 294.914 582.893 295.133 583.384C295.352 583.869 295.461 584.405 295.461 584.992C295.461 585.84 295.234 586.579 294.781 587.208C294.328 587.837 293.696 588.237 292.885 588.408L292.621 588.512H288.501V593H287.581ZM294.677 593L292.405 588.312L293.261 587.88L295.757 593H294.677ZM288.501 587.608H291.909C292.005 587.608 292.114 587.603 292.237 587.592C292.365 587.581 292.493 587.565 292.621 587.544C293.037 587.459 293.384 587.291 293.661 587.04C293.938 586.784 294.146 586.477 294.285 586.12C294.424 585.763 294.493 585.387 294.493 584.992C294.493 584.597 294.424 584.224 294.285 583.872C294.146 583.515 293.938 583.211 293.661 582.96C293.384 582.704 293.037 582.533 292.621 582.448C292.493 582.421 292.365 582.403 292.237 582.392C292.114 582.381 292.005 582.376 291.909 582.376H288.501V587.608ZM297.678 582.616V581.44H298.598V582.616H297.678ZM297.678 593V584.36H298.598V593H297.678ZM304.195 593.224C303.197 593.224 302.373 593.013 301.723 592.592C301.077 592.171 300.677 591.584 300.523 590.832L301.467 590.672C301.6 591.184 301.915 591.592 302.411 591.896C302.907 592.2 303.515 592.352 304.235 592.352C304.949 592.352 305.517 592.2 305.939 591.896C306.36 591.592 306.571 591.176 306.571 590.648C306.571 590.36 306.504 590.125 306.371 589.944C306.243 589.757 305.987 589.587 305.603 589.432C305.219 589.277 304.648 589.096 303.891 588.888C303.091 588.675 302.464 588.461 302.011 588.248C301.563 588.035 301.245 587.792 301.059 587.52C300.877 587.248 300.787 586.915 300.787 586.52C300.787 586.045 300.923 585.629 301.195 585.272C301.467 584.909 301.845 584.627 302.331 584.424C302.821 584.221 303.387 584.12 304.027 584.12C304.667 584.12 305.243 584.227 305.755 584.44C306.267 584.648 306.68 584.941 306.995 585.32C307.309 585.693 307.491 586.128 307.539 586.624L306.595 586.8C306.504 586.245 306.224 585.808 305.755 585.488C305.285 585.163 304.699 584.997 303.995 584.992C303.328 584.981 302.784 585.115 302.363 585.392C301.941 585.664 301.731 586.024 301.731 586.472C301.731 586.728 301.803 586.947 301.947 587.128C302.096 587.304 302.357 587.467 302.731 587.616C303.104 587.765 303.632 587.925 304.315 588.096C305.147 588.309 305.795 588.528 306.259 588.752C306.728 588.976 307.059 589.24 307.251 589.544C307.443 589.843 307.539 590.213 307.539 590.656C307.539 591.456 307.24 592.085 306.643 592.544C306.051 592.997 305.235 593.224 304.195 593.224ZM309.315 593V581.48H310.243V588.52L314.331 584.36H315.619L311.339 588.68L316.227 593H314.795L310.243 588.84V593H309.315ZM330.517 593L330.533 587.192C330.533 586.493 330.333 585.947 329.933 585.552C329.539 585.152 329.045 584.952 328.453 584.952C328.117 584.952 327.784 585.029 327.453 585.184C327.128 585.339 326.856 585.589 326.637 585.936C326.419 586.283 326.309 586.752 326.309 587.344L325.661 587.24C325.64 586.611 325.755 586.064 326.005 585.6C326.261 585.131 326.613 584.768 327.061 584.512C327.515 584.256 328.029 584.128 328.605 584.128C329.453 584.128 330.139 584.389 330.661 584.912C331.189 585.435 331.453 586.149 331.453 587.056L331.437 593H330.517ZM320.237 593V584.36H321.077V586.304H321.157V593H320.237ZM325.381 593L325.397 587.28C325.397 586.565 325.203 586 324.813 585.584C324.424 585.163 323.917 584.952 323.293 584.952C322.659 584.952 322.144 585.171 321.749 585.608C321.355 586.04 321.157 586.619 321.157 587.344L320.517 587.024C320.517 586.464 320.645 585.968 320.901 585.536C321.157 585.099 321.507 584.755 321.949 584.504C322.397 584.253 322.909 584.128 323.485 584.128C324.003 584.128 324.475 584.237 324.901 584.456C325.328 584.675 325.669 585.005 325.925 585.448C326.181 585.885 326.309 586.435 326.309 587.096L326.293 593H325.381ZM336.03 593.24C335.363 593.24 334.809 593.123 334.366 592.888C333.929 592.653 333.601 592.344 333.382 591.96C333.163 591.571 333.054 591.149 333.054 590.696C333.054 590.205 333.155 589.795 333.358 589.464C333.566 589.133 333.841 588.867 334.182 588.664C334.529 588.461 334.91 588.309 335.326 588.208C335.801 588.101 336.313 588.011 336.862 587.936C337.411 587.856 337.934 587.787 338.43 587.728C338.931 587.669 339.339 587.619 339.654 587.576L339.318 587.776C339.339 586.843 339.163 586.149 338.79 585.696C338.422 585.237 337.771 585.008 336.838 585.008C336.182 585.008 335.641 585.157 335.214 585.456C334.793 585.749 334.497 586.205 334.326 586.824L333.382 586.56C333.579 585.776 333.977 585.173 334.574 584.752C335.171 584.331 335.937 584.12 336.87 584.12C337.665 584.12 338.331 584.275 338.87 584.584C339.414 584.893 339.793 585.328 340.006 585.888C340.097 586.117 340.158 586.387 340.19 586.696C340.222 587 340.238 587.307 340.238 587.616V593H339.398V590.728L339.71 590.808C339.449 591.587 338.993 592.187 338.342 592.608C337.691 593.029 336.921 593.24 336.03 593.24ZM336.078 592.392C336.665 592.392 337.179 592.288 337.622 592.08C338.065 591.867 338.422 591.571 338.694 591.192C338.971 590.808 339.147 590.357 339.222 589.84C339.275 589.552 339.305 589.24 339.31 588.904C339.315 588.568 339.318 588.32 339.318 588.16L339.718 588.416C339.371 588.459 338.955 588.504 338.47 588.552C337.99 588.6 337.499 588.659 336.998 588.728C336.497 588.797 336.043 588.885 335.638 588.992C335.387 589.061 335.134 589.163 334.878 589.296C334.627 589.424 334.417 589.603 334.246 589.832C334.081 590.061 333.998 590.352 333.998 590.704C333.998 590.965 334.062 591.227 334.19 591.488C334.323 591.749 334.542 591.965 334.846 592.136C335.15 592.307 335.561 592.392 336.078 592.392ZM348.643 593V588.504C348.643 587.96 348.587 587.475 348.475 587.048C348.369 586.621 348.203 586.259 347.979 585.96C347.761 585.661 347.483 585.435 347.147 585.28C346.817 585.125 346.425 585.048 345.971 585.048C345.502 585.048 345.094 585.131 344.747 585.296C344.406 585.456 344.123 585.683 343.899 585.976C343.681 586.269 343.515 586.619 343.403 587.024C343.297 587.424 343.243 587.861 343.243 588.336L342.515 588.248C342.515 587.315 342.673 586.547 342.987 585.944C343.307 585.336 343.737 584.888 344.275 584.6C344.814 584.307 345.419 584.16 346.091 584.16C346.566 584.16 346.99 584.229 347.363 584.368C347.742 584.507 348.07 584.704 348.347 584.96C348.625 585.211 348.854 585.509 349.035 585.856C349.217 586.197 349.35 586.573 349.435 586.984C349.526 587.395 349.571 587.824 349.571 588.272V593H348.643ZM342.315 593V584.36H343.155V586.304H343.243V593H342.315ZM354.139 593.24C353.473 593.24 352.918 593.123 352.475 592.888C352.038 592.653 351.71 592.344 351.491 591.96C351.273 591.571 351.163 591.149 351.163 590.696C351.163 590.205 351.265 589.795 351.467 589.464C351.675 589.133 351.95 588.867 352.291 588.664C352.638 588.461 353.019 588.309 353.435 588.208C353.91 588.101 354.422 588.011 354.971 587.936C355.521 587.856 356.043 587.787 356.539 587.728C357.041 587.669 357.449 587.619 357.763 587.576L357.427 587.776C357.449 586.843 357.273 586.149 356.899 585.696C356.531 585.237 355.881 585.008 354.947 585.008C354.291 585.008 353.75 585.157 353.323 585.456C352.902 585.749 352.606 586.205 352.435 586.824L351.491 586.56C351.689 585.776 352.086 585.173 352.683 584.752C353.281 584.331 354.046 584.12 354.979 584.12C355.774 584.12 356.441 584.275 356.979 584.584C357.523 584.893 357.902 585.328 358.115 585.888C358.206 586.117 358.267 586.387 358.299 586.696C358.331 587 358.347 587.307 358.347 587.616V593H357.507V590.728L357.819 590.808C357.558 591.587 357.102 592.187 356.451 592.608C355.801 593.029 355.03 593.24 354.139 593.24ZM354.187 592.392C354.774 592.392 355.289 592.288 355.731 592.08C356.174 591.867 356.531 591.571 356.803 591.192C357.081 590.808 357.257 590.357 357.331 589.84C357.385 589.552 357.414 589.24 357.419 588.904C357.425 588.568 357.427 588.32 357.427 588.16L357.827 588.416C357.481 588.459 357.065 588.504 356.579 588.552C356.099 588.6 355.609 588.659 355.107 588.728C354.606 588.797 354.153 588.885 353.747 588.992C353.497 589.061 353.243 589.163 352.987 589.296C352.737 589.424 352.526 589.603 352.355 589.832C352.19 590.061 352.107 590.352 352.107 590.704C352.107 590.965 352.171 591.227 352.299 591.488C352.433 591.749 352.651 591.965 352.955 592.136C353.259 592.307 353.67 592.392 354.187 592.392ZM363.785 597.08C363.358 597.08 362.931 597.016 362.505 596.888C362.083 596.765 361.689 596.563 361.321 596.28C360.953 596.003 360.641 595.632 360.385 595.168L361.217 594.672C361.478 595.205 361.849 595.587 362.329 595.816C362.809 596.045 363.297 596.16 363.793 596.16C364.491 596.16 365.043 596.029 365.449 595.768C365.859 595.512 366.153 595.125 366.329 594.608C366.505 594.096 366.593 593.459 366.593 592.696V590.432H366.689V584.36H367.529V592.696C367.529 592.952 367.523 593.197 367.513 593.432C367.502 593.667 367.478 593.901 367.441 594.136C367.345 594.803 367.147 595.352 366.849 595.784C366.55 596.221 366.145 596.547 365.633 596.76C365.126 596.973 364.51 597.08 363.785 597.08ZM363.745 593.24C362.929 593.24 362.238 593.04 361.673 592.64C361.113 592.235 360.683 591.688 360.385 591C360.091 590.307 359.945 589.528 359.945 588.664C359.945 587.811 360.091 587.04 360.385 586.352C360.678 585.664 361.099 585.12 361.649 584.72C362.203 584.32 362.873 584.12 363.657 584.12C364.462 584.12 365.142 584.317 365.697 584.712C366.251 585.107 366.67 585.648 366.953 586.336C367.235 587.019 367.377 587.795 367.377 588.664C367.377 589.528 367.235 590.304 366.953 590.992C366.67 591.68 366.259 592.227 365.721 592.632C365.182 593.037 364.523 593.24 363.745 593.24ZM363.801 592.36C364.446 592.36 364.982 592.2 365.409 591.88C365.841 591.555 366.161 591.115 366.369 590.56C366.582 590 366.689 589.368 366.689 588.664C366.689 587.955 366.582 587.323 366.369 586.768C366.155 586.213 365.835 585.781 365.409 585.472C364.982 585.157 364.451 585 363.817 585C363.161 585 362.619 585.163 362.193 585.488C361.766 585.808 361.449 586.245 361.241 586.8C361.033 587.349 360.929 587.971 360.929 588.664C360.929 589.363 361.035 589.992 361.249 590.552C361.467 591.107 361.787 591.547 362.209 591.872C362.635 592.197 363.166 592.36 363.801 592.36ZM373.328 593.24C372.502 593.24 371.787 593.056 371.184 592.688C370.582 592.315 370.115 591.789 369.784 591.112C369.454 590.429 369.288 589.624 369.288 588.696C369.288 587.752 369.451 586.939 369.776 586.256C370.107 585.568 370.571 585.04 371.168 584.672C371.771 584.304 372.486 584.12 373.312 584.12C374.15 584.12 374.864 584.312 375.456 584.696C376.054 585.075 376.507 585.624 376.816 586.344C377.131 587.064 377.28 587.931 377.264 588.944H376.304V588.624C376.278 587.44 376.011 586.539 375.504 585.92C374.998 585.301 374.272 584.992 373.328 584.992C372.352 584.992 371.598 585.315 371.064 585.96C370.536 586.6 370.272 587.507 370.272 588.68C370.272 589.843 370.536 590.744 371.064 591.384C371.598 592.024 372.347 592.344 373.312 592.344C373.979 592.344 374.56 592.189 375.056 591.88C375.558 591.565 375.955 591.117 376.248 590.536L377.08 590.904C376.734 591.651 376.232 592.227 375.576 592.632C374.92 593.037 374.171 593.24 373.328 593.24ZM369.92 588.944V588.112H376.744V588.944H369.92ZM389.08 593L389.096 587.192C389.096 586.493 388.896 585.947 388.496 585.552C388.101 585.152 387.608 584.952 387.016 584.952C386.68 584.952 386.346 585.029 386.016 585.184C385.69 585.339 385.418 585.589 385.2 585.936C384.981 586.283 384.872 586.752 384.872 587.344L384.224 587.24C384.202 586.611 384.317 586.064 384.568 585.6C384.824 585.131 385.176 584.768 385.624 584.512C386.077 584.256 386.592 584.128 387.168 584.128C388.016 584.128 388.701 584.389 389.224 584.912C389.752 585.435 390.016 586.149 390.016 587.056L390 593H389.08ZM378.8 593V584.36H379.64V586.304H379.72V593H378.8ZM383.944 593L383.96 587.28C383.96 586.565 383.765 586 383.376 585.584C382.986 585.163 382.48 584.952 381.856 584.952C381.221 584.952 380.706 585.171 380.312 585.608C379.917 586.04 379.72 586.619 379.72 587.344L379.08 587.024C379.08 586.464 379.208 585.968 379.464 585.536C379.72 585.099 380.069 584.755 380.512 584.504C380.96 584.253 381.472 584.128 382.048 584.128C382.565 584.128 383.037 584.237 383.464 584.456C383.89 584.675 384.232 585.005 384.488 585.448C384.744 585.885 384.872 586.435 384.872 587.096L384.856 593H383.944ZM395.625 593.24C394.799 593.24 394.084 593.056 393.481 592.688C392.879 592.315 392.412 591.789 392.081 591.112C391.751 590.429 391.585 589.624 391.585 588.696C391.585 587.752 391.748 586.939 392.073 586.256C392.404 585.568 392.868 585.04 393.465 584.672C394.068 584.304 394.783 584.12 395.609 584.12C396.447 584.12 397.161 584.312 397.753 584.696C398.351 585.075 398.804 585.624 399.113 586.344C399.428 587.064 399.577 587.931 399.561 588.944H398.601V588.624C398.575 587.44 398.308 586.539 397.801 585.92C397.295 585.301 396.569 584.992 395.625 584.992C394.649 584.992 393.895 585.315 393.361 585.96C392.833 586.6 392.569 587.507 392.569 588.68C392.569 589.843 392.833 590.744 393.361 591.384C393.895 592.024 394.644 592.344 395.609 592.344C396.276 592.344 396.857 592.189 397.353 591.88C397.855 591.565 398.252 591.117 398.545 590.536L399.377 590.904C399.031 591.651 398.529 592.227 397.873 592.632C397.217 593.037 396.468 593.24 395.625 593.24ZM392.217 588.944V588.112H399.041V588.944H392.217ZM407.425 593V588.504C407.425 587.96 407.369 587.475 407.257 587.048C407.15 586.621 406.985 586.259 406.761 585.96C406.542 585.661 406.265 585.435 405.929 585.28C405.598 585.125 405.206 585.048 404.753 585.048C404.283 585.048 403.875 585.131 403.529 585.296C403.187 585.456 402.905 585.683 402.681 585.976C402.462 586.269 402.297 586.619 402.185 587.024C402.078 587.424 402.025 587.861 402.025 588.336L401.297 588.248C401.297 587.315 401.454 586.547 401.769 585.944C402.089 585.336 402.518 584.888 403.057 584.6C403.595 584.307 404.201 584.16 404.873 584.16C405.347 584.16 405.771 584.229 406.145 584.368C406.523 584.507 406.851 584.704 407.129 584.96C407.406 585.211 407.635 585.509 407.817 585.856C407.998 586.197 408.131 586.573 408.217 586.984C408.307 587.395 408.353 587.824 408.353 588.272V593H407.425ZM401.097 593V584.36H401.937V586.304H402.025V593H401.097ZM415.009 593C414.55 593.101 414.097 593.139 413.649 593.112C413.201 593.091 412.801 592.992 412.449 592.816C412.102 592.635 411.841 592.357 411.665 591.984C411.521 591.68 411.441 591.373 411.425 591.064C411.409 590.755 411.401 590.4 411.401 590V581.96H412.329V589.984C412.329 590.347 412.331 590.648 412.337 590.888C412.347 591.123 412.403 591.339 412.505 591.536C412.697 591.904 413.001 592.128 413.417 592.208C413.833 592.283 414.363 592.269 415.009 592.168V593ZM409.465 585.2V584.36H415.009V585.2H409.465Z" fill="black"/>
<path d="M174.208 453.583V448.625M174.208 458.542H174.222M174.208 466.333C180.858 466.333 186.25 460.942 186.25 454.292C186.25 447.641 180.858 442.25 174.208 442.25C167.557 442.25 162.166 447.641 162.166 454.292C162.166 455.637 162.387 456.932 162.794 458.14C162.948 458.595 163.024 458.822 163.038 458.997C163.052 459.17 163.041 459.29 162.999 459.458C162.956 459.628 162.86 459.805 162.669 460.158L160.352 464.447C160.022 465.059 159.856 465.365 159.893 465.601C159.926 465.806 160.047 465.987 160.224 466.096C160.428 466.22 160.774 466.184 161.466 466.113L168.721 465.363C168.94 465.34 169.05 465.329 169.15 465.333C169.249 465.336 169.318 465.346 169.414 465.368C169.512 465.39 169.635 465.438 169.88 465.532C171.223 466.05 172.682 466.333 174.208 466.333Z" stroke="black" stroke-width="2" stroke-linecap="round" stroke-linejoin="round"/>
<path d="M128.066 499L128.082 498.12L133.378 493.312C133.847 492.891 134.154 492.488 134.298 492.104C134.442 491.715 134.514 491.299 134.514 490.856C134.514 490.355 134.394 489.899 134.154 489.488C133.914 489.077 133.588 488.752 133.178 488.512C132.772 488.267 132.316 488.144 131.81 488.144C131.292 488.144 130.828 488.269 130.418 488.52C130.007 488.771 129.682 489.101 129.442 489.512C129.207 489.923 129.09 490.371 129.09 490.856H128.162C128.162 490.179 128.324 489.568 128.65 489.024C128.975 488.475 129.412 488.04 129.962 487.72C130.516 487.4 131.135 487.24 131.818 487.24C132.506 487.24 133.122 487.405 133.666 487.736C134.215 488.061 134.65 488.499 134.97 489.048C135.29 489.597 135.45 490.203 135.45 490.864C135.45 491.323 135.396 491.733 135.29 492.096C135.188 492.453 135.026 492.789 134.802 493.104C134.578 493.413 134.29 493.725 133.938 494.04L128.938 498.576L128.746 498.096H135.45V499H128.066ZM142.226 499V496.664H136.738V495.76L140.65 487.48H141.682L137.77 495.76H142.226V492.28H143.154V495.76H144.474V496.664H143.154V499H142.226ZM149.298 487.48H150.258L147.186 499H146.226L149.298 487.48ZM152.971 499L157.291 488.392H151.859V487.48H158.283V488.392L153.963 499H152.971ZM166.593 499.224C165.596 499.224 164.772 499.013 164.121 498.592C163.476 498.171 163.076 497.584 162.921 496.832L163.865 496.672C163.999 497.184 164.313 497.592 164.809 497.896C165.305 498.2 165.913 498.352 166.633 498.352C167.348 498.352 167.916 498.2 168.337 497.896C168.759 497.592 168.969 497.176 168.969 496.648C168.969 496.36 168.903 496.125 168.769 495.944C168.641 495.757 168.385 495.587 168.001 495.432C167.617 495.277 167.047 495.096 166.289 494.888C165.489 494.675 164.863 494.461 164.409 494.248C163.961 494.035 163.644 493.792 163.457 493.52C163.276 493.248 163.185 492.915 163.185 492.52C163.185 492.045 163.321 491.629 163.593 491.272C163.865 490.909 164.244 490.627 164.729 490.424C165.22 490.221 165.785 490.12 166.425 490.12C167.065 490.12 167.641 490.227 168.153 490.44C168.665 490.648 169.079 490.941 169.393 491.32C169.708 491.693 169.889 492.128 169.937 492.624L168.993 492.8C168.903 492.245 168.623 491.808 168.153 491.488C167.684 491.163 167.097 490.997 166.393 490.992C165.727 490.981 165.183 491.115 164.761 491.392C164.34 491.664 164.129 492.024 164.129 492.472C164.129 492.728 164.201 492.947 164.345 493.128C164.495 493.304 164.756 493.467 165.129 493.616C165.503 493.765 166.031 493.925 166.713 494.096C167.545 494.309 168.193 494.528 168.657 494.752C169.127 494.976 169.457 495.24 169.649 495.544C169.841 495.843 169.937 496.213 169.937 496.656C169.937 497.456 169.639 498.085 169.041 498.544C168.449 498.997 167.633 499.224 166.593 499.224ZM175.034 499.2C174.559 499.2 174.132 499.131 173.754 498.992C173.38 498.853 173.055 498.659 172.778 498.408C172.5 498.152 172.271 497.853 172.09 497.512C171.908 497.165 171.772 496.787 171.682 496.376C171.596 495.965 171.554 495.536 171.554 495.088V490.36H172.482V494.856C172.482 495.4 172.535 495.885 172.642 496.312C172.754 496.739 172.919 497.101 173.138 497.4C173.362 497.699 173.639 497.925 173.97 498.08C174.306 498.235 174.7 498.312 175.154 498.312C175.623 498.312 176.028 498.232 176.37 498.072C176.716 497.907 176.999 497.677 177.218 497.384C177.442 497.091 177.607 496.744 177.714 496.344C177.826 495.939 177.882 495.499 177.882 495.024L178.61 495.112C178.61 496.045 178.45 496.816 178.13 497.424C177.815 498.027 177.388 498.475 176.85 498.768C176.311 499.056 175.706 499.2 175.034 499.2ZM177.97 499V497.056H177.882V490.36H178.81V499H177.97ZM184.826 499.24C184.047 499.24 183.389 499.037 182.85 498.632C182.311 498.227 181.901 497.68 181.618 496.992C181.335 496.304 181.194 495.528 181.194 494.664C181.194 493.795 181.335 493.019 181.618 492.336C181.901 491.648 182.319 491.107 182.874 490.712C183.429 490.317 184.109 490.12 184.914 490.12C185.698 490.12 186.367 490.32 186.922 490.72C187.477 491.12 187.898 491.664 188.186 492.352C188.479 493.04 188.626 493.811 188.626 494.664C188.626 495.528 188.477 496.307 188.178 497C187.885 497.688 187.455 498.235 186.89 498.64C186.33 499.04 185.642 499.24 184.826 499.24ZM181.042 502.84V490.36H181.882V497.016H181.962V502.84H181.042ZM184.77 498.36C185.405 498.36 185.933 498.197 186.354 497.872C186.781 497.547 187.101 497.107 187.314 496.552C187.533 495.992 187.642 495.363 187.642 494.664C187.642 493.971 187.535 493.349 187.322 492.8C187.114 492.245 186.797 491.808 186.37 491.488C185.949 491.163 185.41 491 184.754 491C184.119 491 183.589 491.157 183.162 491.472C182.735 491.781 182.415 492.213 182.202 492.768C181.989 493.323 181.882 493.955 181.882 494.664C181.882 495.368 181.986 496 182.194 496.56C182.407 497.115 182.727 497.555 183.154 497.88C183.586 498.2 184.125 498.36 184.77 498.36ZM194.17 499.24C193.391 499.24 192.732 499.037 192.194 498.632C191.655 498.227 191.244 497.68 190.962 496.992C190.679 496.304 190.538 495.528 190.538 494.664C190.538 493.795 190.679 493.019 190.962 492.336C191.244 491.648 191.663 491.107 192.218 490.712C192.772 490.317 193.452 490.12 194.258 490.12C195.042 490.12 195.711 490.32 196.266 490.72C196.82 491.12 197.242 491.664 197.53 492.352C197.823 493.04 197.97 493.811 197.97 494.664C197.97 495.528 197.82 496.307 197.522 497C197.228 497.688 196.799 498.235 196.234 498.64C195.674 499.04 194.986 499.24 194.17 499.24ZM190.386 502.84V490.36H191.226V497.016H191.306V502.84H190.386ZM194.114 498.36C194.748 498.36 195.276 498.197 195.698 497.872C196.124 497.547 196.444 497.107 196.658 496.552C196.876 495.992 196.986 495.363 196.986 494.664C196.986 493.971 196.879 493.349 196.666 492.8C196.458 492.245 196.14 491.808 195.714 491.488C195.292 491.163 194.754 491 194.098 491C193.463 491 192.932 491.157 192.506 491.472C192.079 491.781 191.759 492.213 191.546 492.768C191.332 493.323 191.226 493.955 191.226 494.664C191.226 495.368 191.33 496 191.538 496.56C191.751 497.115 192.071 497.555 192.498 497.88C192.93 498.2 193.468 498.36 194.114 498.36ZM203.273 499.24C202.415 499.24 201.687 499.045 201.089 498.656C200.492 498.267 200.036 497.728 199.721 497.04C199.407 496.352 199.249 495.56 199.249 494.664C199.249 493.763 199.409 492.971 199.729 492.288C200.049 491.6 200.508 491.067 201.105 490.688C201.708 490.309 202.431 490.12 203.273 490.12C204.132 490.12 204.86 490.315 205.457 490.704C206.06 491.088 206.516 491.621 206.825 492.304C207.14 492.987 207.297 493.773 207.297 494.664C207.297 495.576 207.14 496.376 206.825 497.064C206.511 497.747 206.052 498.28 205.449 498.664C204.847 499.048 204.121 499.24 203.273 499.24ZM203.273 498.344C204.292 498.344 205.052 498.003 205.553 497.32C206.06 496.637 206.313 495.752 206.313 494.664C206.313 493.555 206.06 492.669 205.553 492.008C205.047 491.347 204.287 491.016 203.273 491.016C202.585 491.016 202.017 491.173 201.569 491.488C201.121 491.797 200.785 492.227 200.561 492.776C200.343 493.32 200.233 493.949 200.233 494.664C200.233 495.773 200.489 496.664 201.001 497.336C201.519 498.008 202.276 498.344 203.273 498.344ZM209.058 499V490.36H209.898V492.432L209.69 492.16C209.786 491.915 209.906 491.688 210.049 491.48C210.199 491.267 210.351 491.093 210.506 490.96C210.735 490.747 211.004 490.587 211.314 490.48C211.623 490.368 211.935 490.304 212.25 490.288C212.564 490.267 212.85 490.291 213.106 490.36V491.232C212.764 491.152 212.402 491.136 212.018 491.184C211.634 491.232 211.274 491.397 210.938 491.68C210.644 491.936 210.431 492.235 210.298 492.576C210.164 492.912 210.079 493.267 210.042 493.64C210.004 494.008 209.986 494.368 209.986 494.72V499H209.058ZM219.204 499C218.745 499.101 218.292 499.139 217.844 499.112C217.396 499.091 216.996 498.992 216.644 498.816C216.297 498.635 216.036 498.357 215.86 497.984C215.716 497.68 215.636 497.373 215.62 497.064C215.604 496.755 215.596 496.4 215.596 496V487.96H216.524V495.984C216.524 496.347 216.527 496.648 216.532 496.888C216.543 497.123 216.599 497.339 216.7 497.536C216.892 497.904 217.196 498.128 217.612 498.208C218.028 498.283 218.559 498.269 219.204 498.168V499ZM213.66 491.2V490.36H219.204V491.2H213.66Z" fill="black"/>
<path d="M130.82 269.74L128.61 272.687C128.172 273.27 127.953 273.562 127.958 273.807C127.963 274.019 128.063 274.218 128.23 274.35C128.422 274.5 128.787 274.5 129.517 274.5H150.483C151.213 274.5 151.578 274.5 151.77 274.35C151.937 274.218 152.037 274.019 152.042 273.807C152.047 273.562 151.828 273.27 151.39 272.687L149.18 269.74M130.82 269.74C131.069 269.408 131.194 269.241 131.352 269.122C131.492 269.015 131.65 268.936 131.819 268.888C132.01 268.833 132.218 268.833 132.633 268.833H147.367C147.782 268.833 147.99 268.833 148.181 268.888C148.35 268.936 148.508 269.015 148.648 269.122C148.806 269.241 148.931 269.408 149.18 269.74M130.82 269.74L128.157 273.291C127.82 273.74 127.652 273.964 127.533 274.211C127.427 274.43 127.349 274.662 127.303 274.901C127.25 275.17 127.25 275.451 127.25 276.011L127.25 292.633C127.25 294.22 127.25 295.014 127.559 295.62C127.83 296.153 128.264 296.586 128.797 296.858C129.403 297.167 130.197 297.167 131.783 297.167L148.217 297.167C149.803 297.167 150.597 297.167 151.203 296.858C151.736 296.586 152.17 296.153 152.441 295.62C152.75 295.014 152.75 294.22 152.75 292.633V276.011C152.75 275.451 152.75 275.17 152.697 274.901C152.651 274.662 152.573 274.43 152.467 274.211C152.348 273.964 152.18 273.74 151.843 273.291L149.18 269.74M145.667 280.167C145.667 281.67 145.07 283.111 144.007 284.174C142.944 285.236 141.503 285.833 140 285.833C138.497 285.833 137.056 285.236 135.993 284.174C134.93 283.111 134.333 281.67 134.333 280.167" stroke="black" stroke-width="2" stroke-linecap="round" stroke-linejoin="round"/>
<path d="M83.5534 327V315.48H84.4734V326.104H90.0734V327H83.5534ZM94.9843 327.24C94.1256 327.24 93.3976 327.045 92.8003 326.656C92.203 326.267 91.747 325.728 91.4323 325.04C91.1176 324.352 90.9603 323.56 90.9603 322.664C90.9603 321.763 91.1203 320.971 91.4403 320.288C91.7603 319.6 92.219 319.067 92.8163 318.688C93.419 318.309 94.1416 318.12 94.9843 318.12C95.843 318.12 96.571 318.315 97.1683 318.704C97.771 319.088 98.227 319.621 98.5363 320.304C98.851 320.987 99.0083 321.773 99.0083 322.664C99.0083 323.576 98.851 324.376 98.5363 325.064C98.2216 325.747 97.763 326.28 97.1603 326.664C96.5576 327.048 95.8323 327.24 94.9843 327.24ZM94.9843 326.344C96.003 326.344 96.763 326.003 97.2643 325.32C97.771 324.637 98.0243 323.752 98.0243 322.664C98.0243 321.555 97.771 320.669 97.2643 320.008C96.7576 319.347 95.9976 319.016 94.9843 319.016C94.2963 319.016 93.7283 319.173 93.2803 319.488C92.8323 319.797 92.4963 320.227 92.2723 320.776C92.0536 321.32 91.9443 321.949 91.9443 322.664C91.9443 323.773 92.2003 324.664 92.7123 325.336C93.2296 326.008 93.987 326.344 94.9843 326.344ZM101.72 330.84L103.4 326.32L103.416 327.664L99.6319 318.36H100.616L103.864 326.44H103.352L106.304 318.36H107.272L102.68 330.84H101.72ZM110.905 327.24C110.238 327.24 109.684 327.123 109.241 326.888C108.804 326.653 108.476 326.344 108.257 325.96C108.038 325.571 107.929 325.149 107.929 324.696C107.929 324.205 108.03 323.795 108.233 323.464C108.441 323.133 108.716 322.867 109.057 322.664C109.404 322.461 109.785 322.309 110.201 322.208C110.676 322.101 111.188 322.011 111.737 321.936C112.286 321.856 112.809 321.787 113.305 321.728C113.806 321.669 114.214 321.619 114.529 321.576L114.193 321.776C114.214 320.843 114.038 320.149 113.665 319.696C113.297 319.237 112.646 319.008 111.713 319.008C111.057 319.008 110.516 319.157 110.089 319.456C109.668 319.749 109.372 320.205 109.201 320.824L108.257 320.56C108.454 319.776 108.852 319.173 109.449 318.752C110.046 318.331 110.812 318.12 111.745 318.12C112.54 318.12 113.206 318.275 113.745 318.584C114.289 318.893 114.668 319.328 114.881 319.888C114.972 320.117 115.033 320.387 115.065 320.696C115.097 321 115.113 321.307 115.113 321.616V327H114.273V324.728L114.585 324.808C114.324 325.587 113.868 326.187 113.217 326.608C112.566 327.029 111.796 327.24 110.905 327.24ZM110.953 326.392C111.54 326.392 112.054 326.288 112.497 326.08C112.94 325.867 113.297 325.571 113.569 325.192C113.846 324.808 114.022 324.357 114.097 323.84C114.15 323.552 114.18 323.24 114.185 322.904C114.19 322.568 114.193 322.32 114.193 322.16L114.593 322.416C114.246 322.459 113.83 322.504 113.345 322.552C112.865 322.6 112.374 322.659 111.873 322.728C111.372 322.797 110.918 322.885 110.513 322.992C110.262 323.061 110.009 323.163 109.753 323.296C109.502 323.424 109.292 323.603 109.121 323.832C108.956 324.061 108.873 324.352 108.873 324.704C108.873 324.965 108.937 325.227 109.065 325.488C109.198 325.749 109.417 325.965 109.721 326.136C110.025 326.307 110.436 326.392 110.953 326.392ZM117.35 327V315.24H118.27V327H117.35ZM125.259 327C124.8 327.101 124.347 327.139 123.899 327.112C123.451 327.091 123.051 326.992 122.699 326.816C122.352 326.635 122.091 326.357 121.915 325.984C121.771 325.68 121.691 325.373 121.675 325.064C121.659 324.755 121.651 324.4 121.651 324V315.96H122.579V323.984C122.579 324.347 122.581 324.648 122.587 324.888C122.597 325.123 122.653 325.339 122.755 325.536C122.947 325.904 123.251 326.128 123.667 326.208C124.083 326.283 124.613 326.269 125.259 326.168V327ZM119.715 319.2V318.36H125.259V319.2H119.715ZM127.939 330.84L129.619 326.32L129.635 327.664L125.851 318.36H126.835L130.083 326.44H129.571L132.523 318.36H133.491L128.899 330.84H127.939ZM141.927 327.24C141.149 327.24 140.49 327.037 139.951 326.632C139.413 326.227 139.002 325.68 138.719 324.992C138.437 324.304 138.295 323.528 138.295 322.664C138.295 321.795 138.437 321.019 138.719 320.336C139.002 319.648 139.421 319.107 139.975 318.712C140.53 318.317 141.21 318.12 142.015 318.12C142.799 318.12 143.469 318.32 144.023 318.72C144.578 319.12 144.999 319.664 145.287 320.352C145.581 321.04 145.727 321.811 145.727 322.664C145.727 323.528 145.578 324.307 145.279 325C144.986 325.688 144.557 326.235 143.991 326.64C143.431 327.04 142.743 327.24 141.927 327.24ZM138.143 330.84V318.36H138.983V325.016H139.063V330.84H138.143ZM141.871 326.36C142.506 326.36 143.034 326.197 143.455 325.872C143.882 325.547 144.202 325.107 144.415 324.552C144.634 323.992 144.743 323.363 144.743 322.664C144.743 321.971 144.637 321.349 144.423 320.8C144.215 320.245 143.898 319.808 143.471 319.488C143.05 319.163 142.511 319 141.855 319C141.221 319 140.69 319.157 140.263 319.472C139.837 319.781 139.517 320.213 139.303 320.768C139.09 321.323 138.983 321.955 138.983 322.664C138.983 323.368 139.087 324 139.295 324.56C139.509 325.115 139.829 325.555 140.255 325.88C140.687 326.2 141.226 326.36 141.871 326.36ZM147.487 327V318.36H148.327V320.432L148.119 320.16C148.215 319.915 148.335 319.688 148.479 319.48C148.629 319.267 148.781 319.093 148.935 318.96C149.165 318.747 149.434 318.587 149.743 318.48C150.053 318.368 150.365 318.304 150.679 318.288C150.994 318.267 151.279 318.291 151.535 318.36V319.232C151.194 319.152 150.831 319.136 150.447 319.184C150.063 319.232 149.703 319.397 149.367 319.68C149.074 319.936 148.861 320.235 148.727 320.576C148.594 320.912 148.509 321.267 148.471 321.64C148.434 322.008 148.415 322.368 148.415 322.72V327H147.487ZM156.437 327.24C155.579 327.24 154.851 327.045 154.253 326.656C153.656 326.267 153.2 325.728 152.885 325.04C152.571 324.352 152.413 323.56 152.413 322.664C152.413 321.763 152.573 320.971 152.893 320.288C153.213 319.6 153.672 319.067 154.269 318.688C154.872 318.309 155.595 318.12 156.437 318.12C157.296 318.12 158.024 318.315 158.621 318.704C159.224 319.088 159.68 319.621 159.989 320.304C160.304 320.987 160.461 321.773 160.461 322.664C160.461 323.576 160.304 324.376 159.989 325.064C159.675 325.747 159.216 326.28 158.613 326.664C158.011 327.048 157.285 327.24 156.437 327.24ZM156.437 326.344C157.456 326.344 158.216 326.003 158.717 325.32C159.224 324.637 159.477 323.752 159.477 322.664C159.477 321.555 159.224 320.669 158.717 320.008C158.211 319.347 157.451 319.016 156.437 319.016C155.749 319.016 155.181 319.173 154.733 319.488C154.285 319.797 153.949 320.227 153.725 320.776C153.507 321.32 153.397 321.949 153.397 322.664C153.397 323.773 153.653 324.664 154.165 325.336C154.683 326.008 155.44 326.344 156.437 326.344ZM165.582 331.08C165.155 331.08 164.728 331.016 164.302 330.888C163.88 330.765 163.486 330.563 163.118 330.28C162.75 330.003 162.438 329.632 162.182 329.168L163.014 328.672C163.275 329.205 163.646 329.587 164.126 329.816C164.606 330.045 165.094 330.16 165.59 330.16C166.288 330.16 166.84 330.029 167.246 329.768C167.656 329.512 167.95 329.125 168.126 328.608C168.302 328.096 168.39 327.459 168.39 326.696V324.432H168.486V318.36H169.326V326.696C169.326 326.952 169.32 327.197 169.31 327.432C169.299 327.667 169.275 327.901 169.238 328.136C169.142 328.803 168.944 329.352 168.646 329.784C168.347 330.221 167.942 330.547 167.43 330.76C166.923 330.973 166.307 331.08 165.582 331.08ZM165.542 327.24C164.726 327.24 164.035 327.04 163.47 326.64C162.91 326.235 162.48 325.688 162.182 325C161.888 324.307 161.742 323.528 161.742 322.664C161.742 321.811 161.888 321.04 162.182 320.352C162.475 319.664 162.896 319.12 163.446 318.72C164 318.32 164.67 318.12 165.454 318.12C166.259 318.12 166.939 318.317 167.494 318.712C168.048 319.107 168.467 319.648 168.75 320.336C169.032 321.019 169.174 321.795 169.174 322.664C169.174 323.528 169.032 324.304 168.75 324.992C168.467 325.68 168.056 326.227 167.518 326.632C166.979 327.037 166.32 327.24 165.542 327.24ZM165.598 326.36C166.243 326.36 166.779 326.2 167.206 325.88C167.638 325.555 167.958 325.115 168.166 324.56C168.379 324 168.486 323.368 168.486 322.664C168.486 321.955 168.379 321.323 168.166 320.768C167.952 320.213 167.632 319.781 167.206 319.472C166.779 319.157 166.248 319 165.614 319C164.958 319 164.416 319.163 163.99 319.488C163.563 319.808 163.246 320.245 163.038 320.8C162.83 321.349 162.726 321.971 162.726 322.664C162.726 323.363 162.832 323.992 163.046 324.552C163.264 325.107 163.584 325.547 164.006 325.872C164.432 326.197 164.963 326.36 165.598 326.36ZM171.565 327V318.36H172.405V320.432L172.197 320.16C172.293 319.915 172.413 319.688 172.557 319.48C172.707 319.267 172.859 319.093 173.013 318.96C173.243 318.747 173.512 318.587 173.821 318.48C174.131 318.368 174.443 318.304 174.757 318.288C175.072 318.267 175.357 318.291 175.613 318.36V319.232C175.272 319.152 174.909 319.136 174.525 319.184C174.141 319.232 173.781 319.397 173.445 319.68C173.152 319.936 172.939 320.235 172.805 320.576C172.672 320.912 172.587 321.267 172.549 321.64C172.512 322.008 172.493 322.368 172.493 322.72V327H171.565ZM179.264 327.24C178.598 327.24 178.043 327.123 177.6 326.888C177.163 326.653 176.835 326.344 176.616 325.96C176.398 325.571 176.288 325.149 176.288 324.696C176.288 324.205 176.39 323.795 176.592 323.464C176.8 323.133 177.075 322.867 177.416 322.664C177.763 322.461 178.144 322.309 178.56 322.208C179.035 322.101 179.547 322.011 180.096 321.936C180.646 321.856 181.168 321.787 181.664 321.728C182.166 321.669 182.574 321.619 182.888 321.576L182.552 321.776C182.574 320.843 182.398 320.149 182.024 319.696C181.656 319.237 181.006 319.008 180.072 319.008C179.416 319.008 178.875 319.157 178.448 319.456C178.027 319.749 177.731 320.205 177.56 320.824L176.616 320.56C176.814 319.776 177.211 319.173 177.808 318.752C178.406 318.331 179.171 318.12 180.104 318.12C180.899 318.12 181.566 318.275 182.104 318.584C182.648 318.893 183.027 319.328 183.24 319.888C183.331 320.117 183.392 320.387 183.424 320.696C183.456 321 183.472 321.307 183.472 321.616V327H182.632V324.728L182.944 324.808C182.683 325.587 182.227 326.187 181.576 326.608C180.926 327.029 180.155 327.24 179.264 327.24ZM179.312 326.392C179.899 326.392 180.414 326.288 180.856 326.08C181.299 325.867 181.656 325.571 181.928 325.192C182.206 324.808 182.382 324.357 182.456 323.84C182.51 323.552 182.539 323.24 182.544 322.904C182.55 322.568 182.552 322.32 182.552 322.16L182.952 322.416C182.606 322.459 182.19 322.504 181.704 322.552C181.224 322.6 180.734 322.659 180.232 322.728C179.731 322.797 179.278 322.885 178.872 322.992C178.622 323.061 178.368 323.163 178.112 323.296C177.862 323.424 177.651 323.603 177.48 323.832C177.315 324.061 177.232 324.352 177.232 324.704C177.232 324.965 177.296 325.227 177.424 325.488C177.558 325.749 177.776 325.965 178.08 326.136C178.384 326.307 178.795 326.392 179.312 326.392ZM195.83 327L195.846 321.192C195.846 320.493 195.646 319.947 195.246 319.552C194.851 319.152 194.358 318.952 193.766 318.952C193.43 318.952 193.096 319.029 192.766 319.184C192.44 319.339 192.168 319.589 191.95 319.936C191.731 320.283 191.622 320.752 191.622 321.344L190.974 321.24C190.952 320.611 191.067 320.064 191.318 319.6C191.574 319.131 191.926 318.768 192.374 318.512C192.827 318.256 193.342 318.128 193.918 318.128C194.766 318.128 195.451 318.389 195.974 318.912C196.502 319.435 196.766 320.149 196.766 321.056L196.75 327H195.83ZM185.55 327V318.36H186.39V320.304H186.47V327H185.55ZM190.694 327L190.71 321.28C190.71 320.565 190.515 320 190.126 319.584C189.736 319.163 189.23 318.952 188.606 318.952C187.971 318.952 187.456 319.171 187.062 319.608C186.667 320.04 186.47 320.619 186.47 321.344L185.83 321.024C185.83 320.464 185.958 319.968 186.214 319.536C186.47 319.099 186.819 318.755 187.262 318.504C187.71 318.253 188.222 318.128 188.798 318.128C189.315 318.128 189.787 318.237 190.214 318.456C190.64 318.675 190.982 319.005 191.238 319.448C191.494 319.885 191.622 320.435 191.622 321.096L191.606 327H190.694Z" fill="black"/>
<path d="M216.917 146.083L231.083 131.917M231.083 131.917H216.917M231.083 131.917V146.083" stroke="black" stroke-width="2" stroke-linecap="round" stroke-linejoin="round"/>
<path d="M164.436 183V171.48H165.356V182.104H170.956V183H164.436ZM175.883 183.24C175.056 183.24 174.342 183.056 173.739 182.688C173.136 182.315 172.67 181.789 172.339 181.112C172.008 180.429 171.843 179.624 171.843 178.696C171.843 177.752 172.006 176.939 172.331 176.256C172.662 175.568 173.126 175.04 173.723 174.672C174.326 174.304 175.04 174.12 175.867 174.12C176.704 174.12 177.419 174.312 178.011 174.696C178.608 175.075 179.062 175.624 179.371 176.344C179.686 177.064 179.835 177.931 179.819 178.944H178.859V178.624C178.832 177.44 178.566 176.539 178.059 175.92C177.552 175.301 176.827 174.992 175.883 174.992C174.907 174.992 174.152 175.315 173.619 175.96C173.091 176.6 172.827 177.507 172.827 178.68C172.827 179.843 173.091 180.744 173.619 181.384C174.152 182.024 174.902 182.344 175.867 182.344C176.534 182.344 177.115 182.189 177.611 181.88C178.112 181.565 178.51 181.117 178.803 180.536L179.635 180.904C179.288 181.651 178.787 182.227 178.131 182.632C177.475 183.037 176.726 183.24 175.883 183.24ZM172.475 178.944V178.112H179.299V178.944H172.475ZM187.682 183V178.504C187.682 177.96 187.626 177.475 187.514 177.048C187.408 176.621 187.242 176.259 187.018 175.96C186.8 175.661 186.522 175.435 186.186 175.28C185.856 175.125 185.464 175.048 185.01 175.048C184.541 175.048 184.133 175.131 183.786 175.296C183.445 175.456 183.162 175.683 182.938 175.976C182.72 176.269 182.554 176.619 182.442 177.024C182.336 177.424 182.282 177.861 182.282 178.336L181.554 178.248C181.554 177.315 181.712 176.547 182.026 175.944C182.346 175.336 182.776 174.888 183.314 174.6C183.853 174.307 184.458 174.16 185.13 174.16C185.605 174.16 186.029 174.229 186.402 174.368C186.781 174.507 187.109 174.704 187.386 174.96C187.664 175.211 187.893 175.509 188.074 175.856C188.256 176.197 188.389 176.573 188.474 176.984C188.565 177.395 188.61 177.824 188.61 178.272V183H187.682ZM181.354 183V174.36H182.194V176.304H182.282V183H181.354ZM193.971 183.24C193.155 183.24 192.465 183.04 191.899 182.64C191.339 182.235 190.91 181.688 190.611 181C190.318 180.307 190.171 179.528 190.171 178.664C190.171 177.811 190.318 177.04 190.611 176.352C190.905 175.664 191.326 175.12 191.875 174.72C192.43 174.32 193.099 174.12 193.883 174.12C194.689 174.12 195.369 174.317 195.923 174.712C196.478 175.107 196.897 175.648 197.179 176.336C197.462 177.019 197.603 177.795 197.603 178.664C197.603 179.528 197.462 180.304 197.179 180.992C196.897 181.68 196.486 182.227 195.947 182.632C195.409 183.037 194.75 183.24 193.971 183.24ZM194.027 182.36C194.673 182.36 195.209 182.2 195.635 181.88C196.067 181.555 196.387 181.115 196.595 180.56C196.809 180 196.915 179.368 196.915 178.664C196.915 177.955 196.809 177.323 196.595 176.768C196.382 176.213 196.062 175.781 195.635 175.472C195.209 175.157 194.678 175 194.043 175C193.387 175 192.846 175.163 192.419 175.488C191.993 175.808 191.675 176.245 191.467 176.8C191.259 177.349 191.155 177.971 191.155 178.664C191.155 179.363 191.262 179.992 191.475 180.552C191.694 181.107 192.014 181.547 192.435 181.872C192.862 182.197 193.393 182.36 194.027 182.36ZM196.915 183V176.344H196.835V171.48H197.755V183H196.915ZM200.155 172.616V171.44H201.075V172.616H200.155ZM200.155 183V174.36H201.075V183H200.155ZM209.807 183V178.504C209.807 177.96 209.751 177.475 209.639 177.048C209.533 176.621 209.367 176.259 209.143 175.96C208.925 175.661 208.647 175.435 208.311 175.28C207.981 175.125 207.589 175.048 207.135 175.048C206.666 175.048 206.258 175.131 205.911 175.296C205.57 175.456 205.287 175.683 205.063 175.976C204.845 176.269 204.679 176.619 204.567 177.024C204.461 177.424 204.407 177.861 204.407 178.336L203.679 178.248C203.679 177.315 203.837 176.547 204.151 175.944C204.471 175.336 204.901 174.888 205.439 174.6C205.978 174.307 206.583 174.16 207.255 174.16C207.73 174.16 208.154 174.229 208.527 174.368C208.906 174.507 209.234 174.704 209.511 174.96C209.789 175.211 210.018 175.509 210.199 175.856C210.381 176.197 210.514 176.573 210.599 176.984C210.69 177.395 210.735 177.824 210.735 178.272V183H209.807ZM203.479 183V174.36H204.319V176.304H204.407V183H203.479ZM216.168 187.08C215.741 187.08 215.314 187.016 214.888 186.888C214.466 186.765 214.072 186.563 213.704 186.28C213.336 186.003 213.024 185.632 212.768 185.168L213.6 184.672C213.861 185.205 214.232 185.587 214.712 185.816C215.192 186.045 215.68 186.16 216.176 186.16C216.874 186.16 217.426 186.029 217.832 185.768C218.242 185.512 218.536 185.125 218.712 184.608C218.888 184.096 218.976 183.459 218.976 182.696V180.432H219.072V174.36H219.911V182.696C219.911 182.952 219.906 183.197 219.896 183.432C219.885 183.667 219.861 183.901 219.824 184.136C219.728 184.803 219.53 185.352 219.232 185.784C218.933 186.221 218.528 186.547 218.016 186.76C217.509 186.973 216.893 187.08 216.168 187.08ZM216.128 183.24C215.312 183.24 214.621 183.04 214.056 182.64C213.496 182.235 213.066 181.688 212.768 181C212.474 180.307 212.328 179.528 212.328 178.664C212.328 177.811 212.474 177.04 212.768 176.352C213.061 175.664 213.482 175.12 214.032 174.72C214.586 174.32 215.256 174.12 216.04 174.12C216.845 174.12 217.525 174.317 218.08 174.712C218.634 175.107 219.053 175.648 219.336 176.336C219.618 177.019 219.76 177.795 219.76 178.664C219.76 179.528 219.618 180.304 219.336 180.992C219.053 181.68 218.642 182.227 218.104 182.632C217.565 183.037 216.906 183.24 216.128 183.24ZM216.184 182.36C216.829 182.36 217.365 182.2 217.792 181.88C218.224 181.555 218.544 181.115 218.752 180.56C218.965 180 219.072 179.368 219.072 178.664C219.072 177.955 218.965 177.323 218.752 176.768C218.538 176.213 218.218 175.781 217.792 175.472C217.365 175.157 216.834 175 216.2 175C215.544 175 215.002 175.163 214.576 175.488C214.149 175.808 213.832 176.245 213.624 176.8C213.416 177.349 213.312 177.971 213.312 178.664C213.312 179.363 213.418 179.992 213.632 180.552C213.85 181.107 214.17 181.547 214.592 181.872C215.018 182.197 215.549 182.36 216.184 182.36ZM228.546 183.224C227.549 183.224 226.725 183.013 226.074 182.592C225.429 182.171 225.029 181.584 224.874 180.832L225.818 180.672C225.952 181.184 226.266 181.592 226.762 181.896C227.258 182.2 227.866 182.352 228.586 182.352C229.301 182.352 229.869 182.2 230.29 181.896C230.712 181.592 230.922 181.176 230.922 180.648C230.922 180.36 230.856 180.125 230.722 179.944C230.594 179.757 230.338 179.587 229.954 179.432C229.57 179.277 229 179.096 228.242 178.888C227.442 178.675 226.816 178.461 226.362 178.248C225.914 178.035 225.597 177.792 225.41 177.52C225.229 177.248 225.138 176.915 225.138 176.52C225.138 176.045 225.274 175.629 225.546 175.272C225.818 174.909 226.197 174.627 226.682 174.424C227.173 174.221 227.738 174.12 228.378 174.12C229.018 174.12 229.594 174.227 230.106 174.44C230.618 174.648 231.032 174.941 231.346 175.32C231.661 175.693 231.842 176.128 231.89 176.624L230.946 176.8C230.856 176.245 230.576 175.808 230.106 175.488C229.637 175.163 229.05 174.997 228.346 174.992C227.68 174.981 227.136 175.115 226.714 175.392C226.293 175.664 226.082 176.024 226.082 176.472C226.082 176.728 226.154 176.947 226.298 177.128C226.448 177.304 226.709 177.467 227.082 177.616C227.456 177.765 227.984 177.925 228.666 178.096C229.498 178.309 230.146 178.528 230.61 178.752C231.08 178.976 231.41 179.24 231.602 179.544C231.794 179.843 231.89 180.213 231.89 180.656C231.89 181.456 231.592 182.085 230.994 182.544C230.402 182.997 229.586 183.224 228.546 183.224ZM237.227 183.24C236.4 183.24 235.686 183.056 235.083 182.688C234.48 182.315 234.014 181.789 233.683 181.112C233.352 180.429 233.187 179.624 233.187 178.696C233.187 177.752 233.35 176.939 233.675 176.256C234.006 175.568 234.47 175.04 235.067 174.672C235.67 174.304 236.384 174.12 237.211 174.12C238.048 174.12 238.763 174.312 239.355 174.696C239.952 175.075 240.406 175.624 240.715 176.344C241.03 177.064 241.179 177.931 241.163 178.944H240.203V178.624C240.176 177.44 239.91 176.539 239.403 175.92C238.896 175.301 238.171 174.992 237.227 174.992C236.251 174.992 235.496 175.315 234.963 175.96C234.435 176.6 234.171 177.507 234.171 178.68C234.171 179.843 234.435 180.744 234.963 181.384C235.496 182.024 236.246 182.344 237.211 182.344C237.878 182.344 238.459 182.189 238.955 181.88C239.456 181.565 239.854 181.117 240.147 180.536L240.979 180.904C240.632 181.651 240.131 182.227 239.475 182.632C238.819 183.037 238.07 183.24 237.227 183.24ZM233.819 178.944V178.112H240.643V178.944H233.819ZM242.933 183V174.36H243.773V176.432L243.565 176.16C243.661 175.915 243.781 175.688 243.924 175.48C244.074 175.267 244.226 175.093 244.381 174.96C244.61 174.747 244.879 174.587 245.189 174.48C245.498 174.368 245.81 174.304 246.125 174.288C246.439 174.267 246.725 174.291 246.981 174.36V175.232C246.639 175.152 246.277 175.136 245.893 175.184C245.509 175.232 245.149 175.397 244.813 175.68C244.519 175.936 244.306 176.235 244.173 176.576C244.039 176.912 243.954 177.267 243.917 177.64C243.879 178.008 243.861 178.368 243.861 178.72V183H242.933ZM250.831 183L247.695 174.36H248.647L251.319 181.744L253.983 174.36H254.943L251.807 183H250.831ZM256.546 172.616V171.44H257.466V172.616H256.546ZM256.546 183V174.36H257.466V183H256.546ZM263.398 183.24C262.534 183.24 261.806 183.048 261.214 182.664C260.622 182.275 260.171 181.739 259.862 181.056C259.558 180.368 259.401 179.576 259.39 178.68C259.401 177.768 259.561 176.971 259.87 176.288C260.185 175.6 260.638 175.067 261.23 174.688C261.822 174.309 262.547 174.12 263.406 174.12C264.243 174.12 264.979 174.323 265.614 174.728C266.254 175.128 266.697 175.68 266.942 176.384L266.046 176.712C265.827 176.173 265.483 175.757 265.014 175.464C264.545 175.165 264.006 175.016 263.398 175.016C262.715 175.016 262.153 175.173 261.71 175.488C261.267 175.797 260.937 176.227 260.718 176.776C260.499 177.325 260.385 177.96 260.374 178.68C260.39 179.784 260.649 180.672 261.15 181.344C261.657 182.011 262.406 182.344 263.398 182.344C264.011 182.344 264.542 182.203 264.99 181.92C265.443 181.637 265.79 181.227 266.03 180.688L266.942 181C266.606 181.731 266.137 182.288 265.534 182.672C264.931 183.051 264.219 183.24 263.398 183.24ZM271.946 183.24C271.119 183.24 270.404 183.056 269.802 182.688C269.199 182.315 268.732 181.789 268.402 181.112C268.071 180.429 267.906 179.624 267.906 178.696C267.906 177.752 268.068 176.939 268.394 176.256C268.724 175.568 269.188 175.04 269.786 174.672C270.388 174.304 271.103 174.12 271.93 174.12C272.767 174.12 273.482 174.312 274.074 174.696C274.671 175.075 275.124 175.624 275.434 176.344C275.748 177.064 275.898 177.931 275.882 178.944H274.922V178.624C274.895 177.44 274.628 176.539 274.122 175.92C273.615 175.301 272.89 174.992 271.946 174.992C270.97 174.992 270.215 175.315 269.682 175.96C269.154 176.6 268.89 177.507 268.89 178.68C268.89 179.843 269.154 180.744 269.682 181.384C270.215 182.024 270.964 182.344 271.93 182.344C272.596 182.344 273.178 182.189 273.674 181.88C274.175 181.565 274.572 181.117 274.866 180.536L275.698 180.904C275.351 181.651 274.85 182.227 274.194 182.632C273.538 183.037 272.788 183.24 271.946 183.24ZM268.538 178.944V178.112H275.362V178.944H268.538ZM280.843 183.224C279.846 183.224 279.022 183.013 278.371 182.592C277.726 182.171 277.326 181.584 277.171 180.832L278.115 180.672C278.249 181.184 278.563 181.592 279.059 181.896C279.555 182.2 280.163 182.352 280.883 182.352C281.598 182.352 282.166 182.2 282.587 181.896C283.009 181.592 283.219 181.176 283.219 180.648C283.219 180.36 283.153 180.125 283.019 179.944C282.891 179.757 282.635 179.587 282.251 179.432C281.867 179.277 281.297 179.096 280.539 178.888C279.739 178.675 279.113 178.461 278.659 178.248C278.211 178.035 277.894 177.792 277.707 177.52C277.526 177.248 277.435 176.915 277.435 176.52C277.435 176.045 277.571 175.629 277.843 175.272C278.115 174.909 278.494 174.627 278.979 174.424C279.47 174.221 280.035 174.12 280.675 174.12C281.315 174.12 281.891 174.227 282.403 174.44C282.915 174.648 283.329 174.941 283.643 175.32C283.958 175.693 284.139 176.128 284.187 176.624L283.243 176.8C283.153 176.245 282.873 175.808 282.403 175.488C281.934 175.163 281.347 174.997 280.643 174.992C279.977 174.981 279.433 175.115 279.011 175.392C278.59 175.664 278.379 176.024 278.379 176.472C278.379 176.728 278.451 176.947 278.595 177.128C278.745 177.304 279.006 177.467 279.379 177.616C279.753 177.765 280.281 177.925 280.963 178.096C281.795 178.309 282.443 178.528 282.907 178.752C283.377 178.976 283.707 179.24 283.899 179.544C284.091 179.843 284.187 180.213 284.187 180.656C284.187 181.456 283.889 182.085 283.291 182.544C282.699 182.997 281.883 183.224 280.843 183.224Z" fill="black"/>
<path d="M552.625 284L556.875 288.25L565.375 279.75M573.167 284C573.167 291.824 566.824 298.167 559 298.167C551.176 298.167 544.833 291.824 544.833 284C544.833 276.176 551.176 269.833 559 269.833C566.824 269.833 573.167 276.176 573.167 284Z" stroke="black" stroke-width="2" stroke-linecap="round" stroke-linejoin="round"/>
<path d="M491.503 328V316.48H492.423V321.792H499.095V316.48H500.023V328H499.095V322.688H492.423V328H491.503ZM502.428 317.616V316.44H503.348V317.616H502.428ZM502.428 328V319.36H503.348V328H502.428ZM509.113 332.08C508.686 332.08 508.259 332.016 507.833 331.888C507.411 331.765 507.017 331.563 506.649 331.28C506.281 331.003 505.969 330.632 505.713 330.168L506.545 329.672C506.806 330.205 507.177 330.587 507.657 330.816C508.137 331.045 508.625 331.16 509.121 331.16C509.819 331.16 510.371 331.029 510.777 330.768C511.187 330.512 511.481 330.125 511.657 329.608C511.833 329.096 511.921 328.459 511.921 327.696V325.432H512.017V319.36H512.857V327.696C512.857 327.952 512.851 328.197 512.841 328.432C512.83 328.667 512.806 328.901 512.769 329.136C512.673 329.803 512.475 330.352 512.177 330.784C511.878 331.221 511.473 331.547 510.961 331.76C510.454 331.973 509.838 332.08 509.113 332.08ZM509.073 328.24C508.257 328.24 507.566 328.04 507.001 327.64C506.441 327.235 506.011 326.688 505.713 326C505.419 325.307 505.273 324.528 505.273 323.664C505.273 322.811 505.419 322.04 505.713 321.352C506.006 320.664 506.427 320.12 506.977 319.72C507.531 319.32 508.201 319.12 508.985 319.12C509.79 319.12 510.47 319.317 511.025 319.712C511.579 320.107 511.998 320.648 512.281 321.336C512.563 322.019 512.705 322.795 512.705 323.664C512.705 324.528 512.563 325.304 512.281 325.992C511.998 326.68 511.587 327.227 511.049 327.632C510.51 328.037 509.851 328.24 509.073 328.24ZM509.129 327.36C509.774 327.36 510.31 327.2 510.737 326.88C511.169 326.555 511.489 326.115 511.697 325.56C511.91 325 512.017 324.368 512.017 323.664C512.017 322.955 511.91 322.323 511.697 321.768C511.483 321.213 511.163 320.781 510.737 320.472C510.31 320.157 509.779 320 509.145 320C508.489 320 507.947 320.163 507.521 320.488C507.094 320.808 506.777 321.245 506.569 321.8C506.361 322.349 506.257 322.971 506.257 323.664C506.257 324.363 506.363 324.992 506.577 325.552C506.795 326.107 507.115 326.547 507.537 326.872C507.963 327.197 508.494 327.36 509.129 327.36ZM521.425 328V323.504C521.425 322.96 521.369 322.475 521.257 322.048C521.15 321.621 520.985 321.259 520.761 320.96C520.542 320.661 520.265 320.435 519.929 320.28C519.598 320.125 519.206 320.048 518.753 320.048C518.283 320.048 517.875 320.131 517.529 320.296C517.187 320.456 516.905 320.683 516.681 320.976C516.462 321.269 516.297 321.619 516.185 322.024C516.078 322.424 516.025 322.861 516.025 323.336L515.297 323.248C515.297 322.315 515.454 321.547 515.769 320.944C516.089 320.336 516.518 319.888 517.057 319.6C517.595 319.307 518.201 319.16 518.873 319.16C519.347 319.16 519.771 319.229 520.145 319.368C520.523 319.507 520.851 319.704 521.129 319.96C521.406 320.211 521.635 320.509 521.817 320.856C521.998 321.197 522.131 321.573 522.217 321.984C522.307 322.395 522.353 322.824 522.353 323.272V328H521.425ZM515.097 328V316.48H515.937V323.136H516.025V328H515.097ZM527.985 328.24C527.158 328.24 526.443 328.056 525.841 327.688C525.238 327.315 524.771 326.789 524.441 326.112C524.11 325.429 523.945 324.624 523.945 323.696C523.945 322.752 524.107 321.939 524.433 321.256C524.763 320.568 525.227 320.04 525.825 319.672C526.427 319.304 527.142 319.12 527.969 319.12C528.806 319.12 529.521 319.312 530.113 319.696C530.71 320.075 531.163 320.624 531.473 321.344C531.787 322.064 531.937 322.931 531.921 323.944H530.961V323.624C530.934 322.44 530.667 321.539 530.161 320.92C529.654 320.301 528.929 319.992 527.985 319.992C527.009 319.992 526.254 320.315 525.721 320.96C525.193 321.6 524.929 322.507 524.929 323.68C524.929 324.843 525.193 325.744 525.721 326.384C526.254 327.024 527.003 327.344 527.969 327.344C528.635 327.344 529.217 327.189 529.713 326.88C530.214 326.565 530.611 326.117 530.905 325.536L531.737 325.904C531.39 326.651 530.889 327.227 530.233 327.632C529.577 328.037 528.827 328.24 527.985 328.24ZM524.577 323.944V323.112H531.401V323.944H524.577ZM533.69 328V319.36H534.53V321.432L534.322 321.16C534.418 320.915 534.538 320.688 534.682 320.48C534.832 320.267 534.984 320.093 535.138 319.96C535.368 319.747 535.637 319.587 535.946 319.48C536.256 319.368 536.568 319.304 536.882 319.288C537.197 319.267 537.482 319.291 537.738 319.36V320.232C537.397 320.152 537.034 320.136 536.65 320.184C536.266 320.232 535.906 320.397 535.57 320.68C535.277 320.936 535.064 321.235 534.93 321.576C534.797 321.912 534.712 322.267 534.674 322.64C534.637 323.008 534.618 323.368 534.618 323.72V328H533.69ZM544.952 328.24C544.285 328.24 543.731 328.123 543.288 327.888C542.851 327.653 542.523 327.344 542.304 326.96C542.085 326.571 541.976 326.149 541.976 325.696C541.976 325.205 542.077 324.795 542.28 324.464C542.488 324.133 542.763 323.867 543.104 323.664C543.451 323.461 543.832 323.309 544.248 323.208C544.723 323.101 545.235 323.011 545.784 322.936C546.333 322.856 546.856 322.787 547.352 322.728C547.853 322.669 548.261 322.619 548.576 322.576L548.24 322.776C548.261 321.843 548.085 321.149 547.712 320.696C547.344 320.237 546.693 320.008 545.76 320.008C545.104 320.008 544.563 320.157 544.136 320.456C543.715 320.749 543.419 321.205 543.248 321.824L542.304 321.56C542.501 320.776 542.899 320.173 543.496 319.752C544.093 319.331 544.859 319.12 545.792 319.12C546.587 319.12 547.253 319.275 547.792 319.584C548.336 319.893 548.715 320.328 548.928 320.888C549.019 321.117 549.08 321.387 549.112 321.696C549.144 322 549.16 322.307 549.16 322.616V328H548.32V325.728L548.632 325.808C548.371 326.587 547.915 327.187 547.264 327.608C546.613 328.029 545.843 328.24 544.952 328.24ZM545 327.392C545.587 327.392 546.101 327.288 546.544 327.08C546.987 326.867 547.344 326.571 547.616 326.192C547.893 325.808 548.069 325.357 548.144 324.84C548.197 324.552 548.227 324.24 548.232 323.904C548.237 323.568 548.24 323.32 548.24 323.16L548.64 323.416C548.293 323.459 547.877 323.504 547.392 323.552C546.912 323.6 546.421 323.659 545.92 323.728C545.419 323.797 544.965 323.885 544.56 323.992C544.309 324.061 544.056 324.163 543.8 324.296C543.549 324.424 543.339 324.603 543.168 324.832C543.003 325.061 542.92 325.352 542.92 325.704C542.92 325.965 542.984 326.227 543.112 326.488C543.245 326.749 543.464 326.965 543.768 327.136C544.072 327.307 544.483 327.392 545 327.392ZM554.765 328.24C553.901 328.24 553.173 328.048 552.581 327.664C551.989 327.275 551.539 326.739 551.229 326.056C550.925 325.368 550.768 324.576 550.757 323.68C550.768 322.768 550.928 321.971 551.237 321.288C551.552 320.6 552.005 320.067 552.597 319.688C553.189 319.309 553.915 319.12 554.773 319.12C555.611 319.12 556.347 319.323 556.981 319.728C557.621 320.128 558.064 320.68 558.309 321.384L557.413 321.712C557.195 321.173 556.851 320.757 556.381 320.464C555.912 320.165 555.373 320.016 554.765 320.016C554.083 320.016 553.52 320.173 553.077 320.488C552.635 320.797 552.304 321.227 552.085 321.776C551.867 322.325 551.752 322.96 551.741 323.68C551.757 324.784 552.016 325.672 552.517 326.344C553.024 327.011 553.773 327.344 554.765 327.344C555.379 327.344 555.909 327.203 556.357 326.92C556.811 326.637 557.157 326.227 557.397 325.688L558.309 326C557.973 326.731 557.504 327.288 556.901 327.672C556.299 328.051 555.587 328.24 554.765 328.24ZM563.281 328.24C562.417 328.24 561.689 328.048 561.097 327.664C560.505 327.275 560.054 326.739 559.745 326.056C559.441 325.368 559.283 324.576 559.273 323.68C559.283 322.768 559.443 321.971 559.753 321.288C560.067 320.6 560.521 320.067 561.113 319.688C561.705 319.309 562.43 319.12 563.289 319.12C564.126 319.12 564.862 319.323 565.497 319.728C566.137 320.128 566.579 320.68 566.825 321.384L565.929 321.712C565.71 321.173 565.366 320.757 564.897 320.464C564.427 320.165 563.889 320.016 563.281 320.016C562.598 320.016 562.035 320.173 561.593 320.488C561.15 320.797 560.819 321.227 560.601 321.776C560.382 322.325 560.267 322.96 560.257 323.68C560.273 324.784 560.531 325.672 561.033 326.344C561.539 327.011 562.289 327.344 563.281 327.344C563.894 327.344 564.425 327.203 564.873 326.92C565.326 326.637 565.673 326.227 565.913 325.688L566.825 326C566.489 326.731 566.019 327.288 565.417 327.672C564.814 328.051 564.102 328.24 563.281 328.24ZM571.828 328.24C571.002 328.24 570.287 328.056 569.684 327.688C569.082 327.315 568.615 326.789 568.284 326.112C567.954 325.429 567.788 324.624 567.788 323.696C567.788 322.752 567.951 321.939 568.276 321.256C568.607 320.568 569.071 320.04 569.668 319.672C570.271 319.304 570.986 319.12 571.812 319.12C572.65 319.12 573.364 319.312 573.956 319.696C574.554 320.075 575.007 320.624 575.316 321.344C575.631 322.064 575.78 322.931 575.764 323.944H574.804V323.624C574.778 322.44 574.511 321.539 574.004 320.92C573.498 320.301 572.772 319.992 571.828 319.992C570.852 319.992 570.098 320.315 569.564 320.96C569.036 321.6 568.772 322.507 568.772 323.68C568.772 324.843 569.036 325.744 569.564 326.384C570.098 327.024 570.847 327.344 571.812 327.344C572.479 327.344 573.06 327.189 573.556 326.88C574.058 326.565 574.455 326.117 574.748 325.536L575.58 325.904C575.234 326.651 574.732 327.227 574.076 327.632C573.42 328.037 572.671 328.24 571.828 328.24ZM568.42 323.944V323.112H575.244V323.944H568.42ZM581.084 328.24C580.305 328.24 579.646 328.037 579.108 327.632C578.569 327.227 578.158 326.68 577.876 325.992C577.593 325.304 577.452 324.528 577.452 323.664C577.452 322.795 577.593 322.019 577.876 321.336C578.158 320.648 578.577 320.107 579.132 319.712C579.686 319.317 580.366 319.12 581.172 319.12C581.956 319.12 582.625 319.32 583.18 319.72C583.734 320.12 584.156 320.664 584.444 321.352C584.737 322.04 584.884 322.811 584.884 323.664C584.884 324.528 584.734 325.307 584.436 326C584.142 326.688 583.713 327.235 583.148 327.64C582.588 328.04 581.9 328.24 581.084 328.24ZM577.3 331.84V319.36H578.14V326.016H578.22V331.84H577.3ZM581.028 327.36C581.662 327.36 582.19 327.197 582.612 326.872C583.038 326.547 583.358 326.107 583.572 325.552C583.79 324.992 583.9 324.363 583.9 323.664C583.9 322.971 583.793 322.349 583.58 321.8C583.372 321.245 583.054 320.808 582.628 320.488C582.206 320.163 581.668 320 581.012 320C580.377 320 579.846 320.157 579.42 320.472C578.993 320.781 578.673 321.213 578.46 321.768C578.246 322.323 578.14 322.955 578.14 323.664C578.14 324.368 578.244 325 578.452 325.56C578.665 326.115 578.985 326.555 579.412 326.88C579.844 327.2 580.382 327.36 581.028 327.36ZM591.227 328C590.769 328.101 590.315 328.139 589.867 328.112C589.419 328.091 589.019 327.992 588.667 327.816C588.321 327.635 588.059 327.357 587.883 326.984C587.739 326.68 587.659 326.373 587.643 326.064C587.627 325.755 587.619 325.4 587.619 325V316.96H588.547V324.984C588.547 325.347 588.55 325.648 588.555 325.888C588.566 326.123 588.622 326.339 588.723 326.536C588.915 326.904 589.219 327.128 589.635 327.208C590.051 327.283 590.582 327.269 591.227 327.168V328ZM585.683 320.2V319.36H591.227V320.2H585.683ZM595.374 328.24C594.707 328.24 594.152 328.123 593.71 327.888C593.272 327.653 592.944 327.344 592.726 326.96C592.507 326.571 592.398 326.149 592.398 325.696C592.398 325.205 592.499 324.795 592.702 324.464C592.91 324.133 593.184 323.867 593.526 323.664C593.872 323.461 594.254 323.309 594.67 323.208C595.144 323.101 595.656 323.011 596.206 322.936C596.755 322.856 597.278 322.787 597.774 322.728C598.275 322.669 598.683 322.619 598.998 322.576L598.662 322.776C598.683 321.843 598.507 321.149 598.134 320.696C597.766 320.237 597.115 320.008 596.182 320.008C595.526 320.008 594.984 320.157 594.558 320.456C594.136 320.749 593.84 321.205 593.67 321.824L592.726 321.56C592.923 320.776 593.32 320.173 593.918 319.752C594.515 319.331 595.28 319.12 596.214 319.12C597.008 319.12 597.675 319.275 598.214 319.584C598.758 319.893 599.136 320.328 599.35 320.888C599.44 321.117 599.502 321.387 599.534 321.696C599.566 322 599.582 322.307 599.582 322.616V328H598.742V325.728L599.054 325.808C598.792 326.587 598.336 327.187 597.686 327.608C597.035 328.029 596.264 328.24 595.374 328.24ZM595.422 327.392C596.008 327.392 596.523 327.288 596.966 327.08C597.408 326.867 597.766 326.571 598.038 326.192C598.315 325.808 598.491 325.357 598.566 324.84C598.619 324.552 598.648 324.24 598.654 323.904C598.659 323.568 598.662 323.32 598.662 323.16L599.062 323.416C598.715 323.459 598.299 323.504 597.814 323.552C597.334 323.6 596.843 323.659 596.342 323.728C595.84 323.797 595.387 323.885 594.982 323.992C594.731 324.061 594.478 324.163 594.222 324.296C593.971 324.424 593.76 324.603 593.59 324.832C593.424 325.061 593.342 325.352 593.342 325.704C593.342 325.965 593.406 326.227 593.534 326.488C593.667 326.749 593.886 326.965 594.19 327.136C594.494 327.307 594.904 327.392 595.422 327.392ZM607.987 328V323.504C607.987 322.96 607.931 322.475 607.819 322.048C607.712 321.621 607.547 321.259 607.323 320.96C607.104 320.661 606.827 320.435 606.491 320.28C606.16 320.125 605.768 320.048 605.315 320.048C604.846 320.048 604.438 320.131 604.091 320.296C603.75 320.456 603.467 320.683 603.243 320.976C603.024 321.269 602.859 321.619 602.747 322.024C602.64 322.424 602.587 322.861 602.587 323.336L601.859 323.248C601.859 322.315 602.016 321.547 602.331 320.944C602.651 320.336 603.08 319.888 603.619 319.6C604.158 319.307 604.763 319.16 605.435 319.16C605.91 319.16 606.334 319.229 606.707 319.368C607.086 319.507 607.414 319.704 607.691 319.96C607.968 320.211 608.198 320.509 608.379 320.856C608.56 321.197 608.694 321.573 608.779 321.984C608.87 322.395 608.915 322.824 608.915 323.272V328H607.987ZM601.659 328V319.36H602.499V321.304H602.587V328H601.659ZM614.484 328.24C613.62 328.24 612.892 328.048 612.3 327.664C611.708 327.275 611.257 326.739 610.948 326.056C610.644 325.368 610.487 324.576 610.476 323.68C610.487 322.768 610.647 321.971 610.956 321.288C611.271 320.6 611.724 320.067 612.316 319.688C612.908 319.309 613.633 319.12 614.492 319.12C615.329 319.12 616.065 319.323 616.7 319.728C617.34 320.128 617.783 320.68 618.028 321.384L617.132 321.712C616.913 321.173 616.569 320.757 616.1 320.464C615.631 320.165 615.092 320.016 614.484 320.016C613.801 320.016 613.239 320.173 612.796 320.488C612.353 320.797 612.023 321.227 611.804 321.776C611.585 322.325 611.471 322.96 611.46 323.68C611.476 324.784 611.735 325.672 612.236 326.344C612.743 327.011 613.492 327.344 614.484 327.344C615.097 327.344 615.628 327.203 616.076 326.92C616.529 326.637 616.876 326.227 617.116 325.688L618.028 326C617.692 326.731 617.223 327.288 616.62 327.672C616.017 328.051 615.305 328.24 614.484 328.24ZM623.032 328.24C622.205 328.24 621.49 328.056 620.888 327.688C620.285 327.315 619.818 326.789 619.488 326.112C619.157 325.429 618.992 324.624 618.992 323.696C618.992 322.752 619.154 321.939 619.48 321.256C619.81 320.568 620.274 320.04 620.872 319.672C621.474 319.304 622.189 319.12 623.016 319.12C623.853 319.12 624.568 319.312 625.16 319.696C625.757 320.075 626.21 320.624 626.52 321.344C626.834 322.064 626.984 322.931 626.968 323.944H626.008V323.624C625.981 322.44 625.714 321.539 625.208 320.92C624.701 320.301 623.976 319.992 623.032 319.992C622.056 319.992 621.301 320.315 620.768 320.96C620.24 321.6 619.976 322.507 619.976 323.68C619.976 324.843 620.24 325.744 620.768 326.384C621.301 327.024 622.05 327.344 623.016 327.344C623.682 327.344 624.264 327.189 624.76 326.88C625.261 326.565 625.658 326.117 625.952 325.536L626.784 325.904C626.437 326.651 625.936 327.227 625.28 327.632C624.624 328.037 623.874 328.24 623.032 328.24ZM619.624 323.944V323.112H626.448V323.944H619.624Z" fill="black"/>
<path d="M481.079 145.579C485.927 144.929 489.667 140.777 489.667 135.75C489.667 130.273 485.227 125.833 479.75 125.833C474.724 125.833 470.571 129.573 469.922 134.422M469.125 141.417L471.25 140V147.792M469.125 147.792H473.375M481.167 144.25C481.167 149.727 476.727 154.167 471.25 154.167C465.773 154.167 461.333 149.727 461.333 144.25C461.333 138.773 465.773 134.333 471.25 134.333C476.727 134.333 481.167 138.773 481.167 144.25Z" stroke="black" stroke-width="2" stroke-linecap="round" stroke-linejoin="round"/>
<path d="M412.797 184L416.877 172.48H418.021L422.101 184H421.125L417.205 172.96H417.669L413.773 184H412.797ZM414.485 181.104V180.232H420.405V181.104H414.485ZM423.694 184V172.24H424.614V184H423.694ZM427.178 184V172.24H428.098V184H427.178ZM433.866 173.616V172.44H434.786V173.616H433.866ZM433.866 184V175.36H434.786V184H433.866ZM443.518 184V179.504C443.518 178.96 443.462 178.475 443.35 178.048C443.244 177.621 443.078 177.259 442.854 176.96C442.636 176.661 442.358 176.435 442.022 176.28C441.692 176.125 441.3 176.048 440.846 176.048C440.377 176.048 439.969 176.131 439.622 176.296C439.281 176.456 438.998 176.683 438.774 176.976C438.556 177.269 438.39 177.619 438.278 178.024C438.172 178.424 438.118 178.861 438.118 179.336L437.39 179.248C437.39 178.315 437.548 177.547 437.862 176.944C438.182 176.336 438.612 175.888 439.15 175.6C439.689 175.307 440.294 175.16 440.966 175.16C441.441 175.16 441.865 175.229 442.238 175.368C442.617 175.507 442.945 175.704 443.222 175.96C443.5 176.211 443.729 176.509 443.91 176.856C444.092 177.197 444.225 177.573 444.31 177.984C444.401 178.395 444.446 178.824 444.446 179.272V184H443.518ZM437.19 184V175.36H438.03V177.304H438.118V184H437.19ZM453.266 184.24C452.407 184.24 451.679 184.045 451.082 183.656C450.484 183.267 450.028 182.728 449.714 182.04C449.399 181.352 449.242 180.56 449.242 179.664C449.242 178.763 449.402 177.971 449.722 177.288C450.042 176.6 450.5 176.067 451.098 175.688C451.7 175.309 452.423 175.12 453.266 175.12C454.124 175.12 454.852 175.315 455.45 175.704C456.052 176.088 456.508 176.621 456.818 177.304C457.132 177.987 457.29 178.773 457.29 179.664C457.29 180.576 457.132 181.376 456.818 182.064C456.503 182.747 456.044 183.28 455.442 183.664C454.839 184.048 454.114 184.24 453.266 184.24ZM453.266 183.344C454.284 183.344 455.044 183.003 455.546 182.32C456.052 181.637 456.306 180.752 456.306 179.664C456.306 178.555 456.052 177.669 455.546 177.008C455.039 176.347 454.279 176.016 453.266 176.016C452.578 176.016 452.01 176.173 451.562 176.488C451.114 176.797 450.778 177.227 450.554 177.776C450.335 178.32 450.226 178.949 450.226 179.664C450.226 180.773 450.482 181.664 450.994 182.336C451.511 183.008 452.268 183.344 453.266 183.344ZM465.378 184V179.504C465.378 178.96 465.322 178.475 465.21 178.048C465.103 177.621 464.938 177.259 464.714 176.96C464.495 176.661 464.218 176.435 463.882 176.28C463.551 176.125 463.159 176.048 462.706 176.048C462.236 176.048 461.828 176.131 461.482 176.296C461.14 176.456 460.858 176.683 460.634 176.976C460.415 177.269 460.25 177.619 460.138 178.024C460.031 178.424 459.978 178.861 459.978 179.336L459.25 179.248C459.25 178.315 459.407 177.547 459.722 176.944C460.042 176.336 460.471 175.888 461.01 175.6C461.548 175.307 462.154 175.16 462.826 175.16C463.3 175.16 463.724 175.229 464.098 175.368C464.476 175.507 464.804 175.704 465.082 175.96C465.359 176.211 465.588 176.509 465.77 176.856C465.951 177.197 466.084 177.573 466.17 177.984C466.26 178.395 466.306 178.824 466.306 179.272V184H465.378ZM459.05 184V175.36H459.89V177.304H459.978V184H459.05ZM471.907 184.24C471.08 184.24 470.365 184.056 469.763 183.688C469.16 183.315 468.693 182.789 468.363 182.112C468.032 181.429 467.867 180.624 467.867 179.696C467.867 178.752 468.029 177.939 468.355 177.256C468.685 176.568 469.149 176.04 469.747 175.672C470.349 175.304 471.064 175.12 471.891 175.12C472.728 175.12 473.443 175.312 474.035 175.696C474.632 176.075 475.085 176.624 475.395 177.344C475.709 178.064 475.859 178.931 475.843 179.944H474.883V179.624C474.856 178.44 474.589 177.539 474.083 176.92C473.576 176.301 472.851 175.992 471.907 175.992C470.931 175.992 470.176 176.315 469.643 176.96C469.115 177.6 468.851 178.507 468.851 179.68C468.851 180.843 469.115 181.744 469.643 182.384C470.176 183.024 470.925 183.344 471.891 183.344C472.557 183.344 473.139 183.189 473.635 182.88C474.136 182.565 474.533 182.117 474.827 181.536L475.659 181.904C475.312 182.651 474.811 183.227 474.155 183.632C473.499 184.037 472.749 184.24 471.907 184.24ZM468.499 179.944V179.112H475.323V179.944H468.499ZM484.007 184.224C483.01 184.224 482.186 184.013 481.535 183.592C480.89 183.171 480.49 182.584 480.335 181.832L481.279 181.672C481.413 182.184 481.727 182.592 482.223 182.896C482.719 183.2 483.327 183.352 484.047 183.352C484.762 183.352 485.33 183.2 485.751 182.896C486.173 182.592 486.383 182.176 486.383 181.648C486.383 181.36 486.317 181.125 486.183 180.944C486.055 180.757 485.799 180.587 485.415 180.432C485.031 180.277 484.461 180.096 483.703 179.888C482.903 179.675 482.277 179.461 481.823 179.248C481.375 179.035 481.058 178.792 480.871 178.52C480.69 178.248 480.599 177.915 480.599 177.52C480.599 177.045 480.735 176.629 481.007 176.272C481.279 175.909 481.658 175.627 482.143 175.424C482.634 175.221 483.199 175.12 483.839 175.12C484.479 175.12 485.055 175.227 485.567 175.44C486.079 175.648 486.493 175.941 486.807 176.32C487.122 176.693 487.303 177.128 487.351 177.624L486.407 177.8C486.317 177.245 486.037 176.808 485.567 176.488C485.098 176.163 484.511 175.997 483.807 175.992C483.141 175.981 482.597 176.115 482.175 176.392C481.754 176.664 481.543 177.024 481.543 177.472C481.543 177.728 481.615 177.947 481.759 178.128C481.909 178.304 482.17 178.467 482.543 178.616C482.917 178.765 483.445 178.925 484.127 179.096C484.959 179.309 485.607 179.528 486.071 179.752C486.541 179.976 486.871 180.24 487.063 180.544C487.255 180.843 487.351 181.213 487.351 181.656C487.351 182.456 487.053 183.085 486.455 183.544C485.863 183.997 485.047 184.224 484.007 184.224ZM492.672 184.24C491.813 184.24 491.085 184.045 490.488 183.656C489.89 183.267 489.434 182.728 489.12 182.04C488.805 181.352 488.648 180.56 488.648 179.664C488.648 178.763 488.808 177.971 489.128 177.288C489.448 176.6 489.906 176.067 490.504 175.688C491.106 175.309 491.829 175.12 492.672 175.12C493.53 175.12 494.258 175.315 494.856 175.704C495.458 176.088 495.914 176.621 496.224 177.304C496.538 177.987 496.696 178.773 496.696 179.664C496.696 180.576 496.538 181.376 496.224 182.064C495.909 182.747 495.45 183.28 494.848 183.664C494.245 184.048 493.52 184.24 492.672 184.24ZM492.672 183.344C493.69 183.344 494.45 183.003 494.952 182.32C495.458 181.637 495.712 180.752 495.712 179.664C495.712 178.555 495.458 177.669 494.952 177.008C494.445 176.347 493.685 176.016 492.672 176.016C491.984 176.016 491.416 176.173 490.968 176.488C490.52 176.797 490.184 177.227 489.96 177.776C489.741 178.32 489.632 178.949 489.632 179.664C489.632 180.773 489.888 181.664 490.4 182.336C490.917 183.008 491.674 183.344 492.672 183.344ZM498.616 184V172.24H499.536V184H498.616ZM505.26 184.2C504.786 184.2 504.359 184.131 503.98 183.992C503.607 183.853 503.282 183.659 503.004 183.408C502.727 183.152 502.498 182.853 502.316 182.512C502.135 182.165 501.999 181.787 501.908 181.376C501.823 180.965 501.78 180.536 501.78 180.088V175.36H502.708V179.856C502.708 180.4 502.762 180.885 502.868 181.312C502.98 181.739 503.146 182.101 503.364 182.4C503.588 182.699 503.866 182.925 504.196 183.08C504.532 183.235 504.927 183.312 505.38 183.312C505.85 183.312 506.255 183.232 506.596 183.072C506.943 182.907 507.226 182.677 507.444 182.384C507.668 182.091 507.834 181.744 507.94 181.344C508.052 180.939 508.108 180.499 508.108 180.024L508.836 180.112C508.836 181.045 508.676 181.816 508.356 182.424C508.042 183.027 507.615 183.475 507.076 183.768C506.538 184.056 505.932 184.2 505.26 184.2ZM508.196 184V182.056H508.108V175.36H509.036V184H508.196ZM515.852 184C515.394 184.101 514.94 184.139 514.492 184.112C514.044 184.091 513.644 183.992 513.292 183.816C512.946 183.635 512.684 183.357 512.508 182.984C512.364 182.68 512.284 182.373 512.268 182.064C512.252 181.755 512.244 181.4 512.244 181V172.96H513.172V180.984C513.172 181.347 513.175 181.648 513.18 181.888C513.191 182.123 513.247 182.339 513.348 182.536C513.54 182.904 513.844 183.128 514.26 183.208C514.676 183.283 515.207 183.269 515.852 183.168V184ZM510.308 176.2V175.36H515.852V176.2H510.308ZM517.663 173.616V172.44H518.583V173.616H517.663ZM517.663 184V175.36H518.583V184H517.663ZM524.531 184.24C523.673 184.24 522.945 184.045 522.347 183.656C521.75 183.267 521.294 182.728 520.979 182.04C520.665 181.352 520.507 180.56 520.507 179.664C520.507 178.763 520.667 177.971 520.987 177.288C521.307 176.6 521.766 176.067 522.363 175.688C522.966 175.309 523.689 175.12 524.531 175.12C525.39 175.12 526.118 175.315 526.715 175.704C527.318 176.088 527.774 176.621 528.083 177.304C528.398 177.987 528.555 178.773 528.555 179.664C528.555 180.576 528.398 181.376 528.083 182.064C527.769 182.747 527.31 183.28 526.707 183.664C526.105 184.048 525.379 184.24 524.531 184.24ZM524.531 183.344C525.55 183.344 526.31 183.003 526.811 182.32C527.318 181.637 527.571 180.752 527.571 179.664C527.571 178.555 527.318 177.669 526.811 177.008C526.305 176.347 525.545 176.016 524.531 176.016C523.843 176.016 523.275 176.173 522.827 176.488C522.379 176.797 522.043 177.227 521.819 177.776C521.601 178.32 521.491 178.949 521.491 179.664C521.491 180.773 521.747 181.664 522.259 182.336C522.777 183.008 523.534 183.344 524.531 183.344ZM536.643 184V179.504C536.643 178.96 536.587 178.475 536.475 178.048C536.369 177.621 536.203 177.259 535.979 176.96C535.761 176.661 535.483 176.435 535.147 176.28C534.817 176.125 534.425 176.048 533.971 176.048C533.502 176.048 533.094 176.131 532.747 176.296C532.406 176.456 532.123 176.683 531.899 176.976C531.681 177.269 531.515 177.619 531.403 178.024C531.297 178.424 531.243 178.861 531.243 179.336L530.515 179.248C530.515 178.315 530.673 177.547 530.987 176.944C531.307 176.336 531.737 175.888 532.275 175.6C532.814 175.307 533.419 175.16 534.091 175.16C534.566 175.16 534.99 175.229 535.363 175.368C535.742 175.507 536.07 175.704 536.347 175.96C536.625 176.211 536.854 176.509 537.035 176.856C537.217 177.197 537.35 177.573 537.435 177.984C537.526 178.395 537.571 178.824 537.571 179.272V184H536.643ZM530.315 184V175.36H531.155V177.304H531.243V184H530.315Z" fill="black"/>
<circle cx="347.5" cy="343.5" r="305" stroke="#ECECEC"/>
<path d="M616.943 199.517C596.12 160.551 567.094 126.565 531.866 99.9031C496.638 73.2407 456.046 54.5364 412.889 45.0801" stroke="#00DFDF" stroke-width="2"/>
<circle opacity="0.3" cx="348" cy="344" r="110" fill="#D9D9D9"/>
<path d="M389.986 336.363C389.594 336.172 389.212 336.021 388.82 335.921C387.915 335.68 387.07 335.549 386.276 335.549C385.171 335.549 384.125 335.74 383.12 336.112C382.115 336.484 381.23 337.027 380.476 337.72C379.722 338.424 379.129 339.248 378.707 340.213C378.285 341.178 378.074 342.224 378.074 343.339C378.074 344.455 378.315 345.571 378.797 346.657C379.28 347.752 379.984 348.647 380.929 349.361C381.863 350.074 382.788 350.547 383.703 350.788C384.618 351.039 385.482 351.16 386.286 351.16C387.372 351.16 388.407 350.969 389.382 350.597C389.584 350.517 389.785 350.426 389.986 350.336V351.16H394.71V335.78H389.986V336.353V336.363ZM389.222 345.531C388.799 346.164 388.307 346.596 387.764 346.827C387.211 347.069 386.719 347.179 386.286 347.179C385.854 347.179 385.321 347.059 384.748 346.827C384.175 346.596 383.683 346.154 383.261 345.531C382.838 344.897 382.627 344.174 382.627 343.349C382.627 342.656 382.798 342.002 383.13 341.389C383.462 340.766 383.924 340.304 384.517 339.982C385.11 339.67 385.703 339.509 386.286 339.509C387.231 339.509 388.066 339.871 388.779 340.605C389.493 341.339 389.855 342.254 389.855 343.349C389.855 344.174 389.644 344.907 389.222 345.531Z" fill="#DBD6D6"/>
<path d="M407.044 335.789L403.385 344.243L399.957 335.789H395.001L400.993 349.802L398.66 355.19H403.646L412 335.789H407.044Z" fill="#DBD6D6"/>
<path d="M377.892 336.373C377.551 335.509 377.048 334.765 376.385 334.132C375.721 333.498 374.927 333.016 373.992 332.684C373.057 332.353 372.032 332.182 370.906 332.182H366.915L361.236 345.34V355.241H366.272V346.365H370.685C373.027 346.365 374.897 345.712 376.304 344.415C377.711 343.108 378.405 341.379 378.405 339.228C378.405 338.193 378.234 337.238 377.882 336.373M372.615 341.359C372.042 341.892 371.278 342.153 370.323 342.153H366.272V336.474H370.323C371.278 336.474 372.042 336.735 372.615 337.268C373.188 337.801 373.469 338.464 373.469 339.279C373.469 340.133 373.188 340.827 372.615 341.349" fill="#DBD6D6"/>
<path d="M319.821 336.948C318.936 336.244 318.072 335.772 317.207 335.52C316.343 335.279 315.539 335.148 314.785 335.148C313.739 335.148 312.734 335.339 311.779 335.711C310.824 336.083 309.98 336.616 309.266 337.31C308.542 338.003 307.979 338.838 307.577 339.793C307.175 340.758 306.974 341.793 306.974 342.909C306.974 344.025 307.205 345.13 307.668 346.216C308.13 347.302 308.804 348.196 309.688 348.91C310.583 349.614 311.457 350.086 312.332 350.337C313.207 350.579 314.021 350.709 314.795 350.709C315.83 350.709 316.805 350.518 317.75 350.146C318.685 349.774 319.519 349.242 320.243 348.548C320.967 347.854 321.53 347.02 321.932 346.045C322.334 345.08 322.535 344.035 322.535 342.919C322.535 341.803 322.304 340.707 321.841 339.622C321.379 338.546 320.716 337.651 319.831 336.948M317.579 344.879C317.177 345.442 316.715 345.834 316.192 346.045C315.669 346.256 315.197 346.367 314.785 346.367C314.373 346.367 313.87 346.256 313.327 346.045C312.784 345.834 312.312 345.442 311.91 344.879C311.508 344.316 311.307 343.663 311.307 342.919C311.307 342.296 311.467 341.713 311.789 341.16C312.111 340.607 312.553 340.185 313.106 339.903C313.669 339.622 314.232 339.481 314.795 339.481C315.689 339.481 316.484 339.803 317.167 340.466C317.851 341.119 318.192 341.944 318.192 342.929C318.192 343.673 317.991 344.326 317.589 344.889" fill="#253D81"/>
<path d="M335.964 337.781C335.472 337.268 334.899 336.866 334.225 336.584C333.552 336.303 332.808 336.162 332.004 336.162C331.139 336.162 330.335 336.313 329.581 336.625C328.827 336.936 328.194 337.368 327.671 337.931V336.584H323.168V350.698H327.671V344.144C327.671 342.827 327.933 341.852 328.445 341.188C328.958 340.535 329.682 340.203 330.597 340.203C331.119 340.203 331.582 340.354 331.974 340.655C332.366 340.957 332.637 341.319 332.788 341.751C332.939 342.183 333.009 342.596 333.009 342.988V350.688H337.482V342.023C337.482 341.158 337.352 340.364 337.09 339.63C336.829 338.896 336.457 338.273 335.964 337.76" fill="#253D81"/>
<path d="M359.316 332.171L353.948 344.545L350.601 336.302H345.766H344.338V332H339.835V336.302H337.271V339.931H339.835V345.068C339.835 346.887 340.327 348.275 341.312 349.24C342.298 350.205 343.685 350.687 345.464 350.687C346.278 350.687 349.053 350.546 349.877 350.265L348.47 346.787C348.269 346.867 344.338 347.772 344.338 344.616V339.931H347.314L351.606 349.963L349.324 355.221H354.189L364.141 332.161H359.306L359.316 332.171Z" fill="#253D81"/>
<path d="M295.605 343.992L289.433 332.342H285V350.707H289.383V340.866L294.56 350.707H296.651L301.797 340.916V350.707H306.19V332.342H301.777L295.605 343.992Z" fill="#253D81"/>
<defs>
<filter id="filter0_d_2184_16345" x="0" y="0" width="695" height="695" filterUnits="userSpaceOnUse" color-interpolation-filters="sRGB">
<feFlood flood-opacity="0" result="BackgroundImageFix"/>
<feColorMatrix in="SourceAlpha" type="matrix" values="0 0 0 0 0 0 0 0 0 0 0 0 0 0 0 0 0 0 127 0" result="hardAlpha"/>
<feOffset dy="4"/>
<feGaussianBlur stdDeviation="12"/>
<feComposite in2="hardAlpha" operator="out"/>
<feColorMatrix type="matrix" values="0 0 0 0 0 0 0 0 0 0 0 0 0 0 0 0 0 0 0.1 0"/>
<feBlend mode="normal" in2="BackgroundImageFix" result="effect1_dropShadow_2184_16345"/>
<feBlend mode="normal" in="SourceGraphic" in2="effect1_dropShadow_2184_16345" result="shape"/>
</filter>
</defs>
</svg>
