<svg width="300" height="78" viewBox="0 0 300 78" fill="none" xmlns="http://www.w3.org/2000/svg">
<g clip-path="url(#clip0_1566_4300)">
<path fill-rule="evenodd" clip-rule="evenodd" d="M0.751948 14.557C2.14538 11.1834 5.6423 8.79987 9.30591 8.80654C36.8646 8.79654 64.4233 8.80987 91.9819 8.79987C94.3721 8.74654 96.7656 9.6366 98.5291 11.2534C100.549 13.0602 101.699 15.7604 101.643 18.4672C101.633 29.0314 101.663 39.5918 101.629 50.1562C101.609 54.9296 97.439 59.1899 92.6687 59.3199C82.6179 59.3636 72.5639 59.3236 62.5131 59.3402C63.8632 62.6668 65.23 65.9904 66.5801 69.321C60.593 66.0241 54.6659 62.6101 48.6454 59.3832C35.4245 59.2669 22.1935 59.3932 8.96921 59.3166C4.20553 59.1836 0.0518969 54.9262 0.0252282 50.1626C-0.0147747 39.8221 0.0252282 29.4781 0.00522679 19.134C-0.0314426 17.5805 0.115235 15.9937 0.751948 14.557" fill="#9C5C8F"/>
<path fill-rule="evenodd" clip-rule="evenodd" d="M41.1854 15.3266C42.7122 13.7032 45.6091 14.2299 46.7358 16.0667C47.3459 17.0301 47.3992 18.3168 46.9092 19.3436C44.7857 23.5206 43.899 28.1742 43.0822 32.7479C42.1155 38.7117 41.3121 44.7518 41.6255 50.8059C41.7121 52.349 40.9654 54.2228 39.3086 54.5828C37.7418 54.9325 36.3151 53.9058 35.3317 52.799C30.8313 47.9587 28.2845 41.6882 26.4477 35.4314C24.5909 39.095 22.7274 42.7583 20.9273 46.4519C19.6672 48.9487 18.3371 51.4956 16.3236 53.4794C15.4736 54.3228 14.0368 55.0859 12.94 54.2191C11.2902 52.7757 10.8836 50.4755 10.1832 48.499C7.52631 39.3347 6.01953 29.891 4.47609 20.4903C4.12273 18.9236 4.77944 17.0467 6.34289 16.42C7.60631 15.9467 9.2231 15.88 10.2998 16.8101C11.0502 17.4801 11.2566 18.5169 11.3966 19.4636C12.48 26.7408 13.7701 33.9946 15.5272 41.1415C18.5374 35.4348 21.5307 29.7177 24.5309 24.0039C24.9776 23.1672 25.511 22.3271 26.331 21.8071C27.4278 21.1037 29.0545 21.1537 29.9713 22.1371C30.7413 22.9438 30.998 24.0673 31.2114 25.1273C32.1081 29.851 33.3215 34.528 35.085 39.005C35.845 32.2579 36.7751 25.4274 39.2386 19.0569C39.7953 17.7735 40.2854 16.4167 41.1854 15.3266ZM58.1091 18.9393C61.3494 18.5426 64.8463 19.6193 67.0531 22.0829C68.8532 24.1197 69.8633 26.7632 70.2033 29.4367C70.7534 34.0104 69.93 38.7641 67.7298 42.821C66.4864 45.1342 64.8596 47.351 62.5661 48.7111C59.2059 50.7513 54.6989 50.5013 51.452 48.3478C48.8585 46.571 47.4017 43.5444 46.8083 40.5272C45.6149 33.7004 47.655 26.0898 52.8254 21.3228C54.3089 20.0427 56.159 19.176 58.1091 18.9393ZM58.7822 25.9642C57.2254 26.4809 56.242 27.9077 55.4053 29.2345C53.3085 32.6114 52.7018 37.0651 54.3886 40.7383C54.8319 41.7051 55.5453 42.7218 56.6687 42.9251C57.8621 43.1218 58.9722 42.4388 59.8423 41.6954C61.7591 40.0516 62.7125 37.5818 63.1759 35.1582C63.6959 32.398 63.4292 29.3412 61.8091 26.9776C61.1591 26.0142 59.8823 25.5775 58.7822 25.9642ZM84.1084 18.9466C87.2753 18.5532 90.7122 19.5299 92.929 21.8934C94.9125 24.0333 95.9859 26.8971 96.2893 29.774C96.756 34.1943 95.9426 38.7647 93.8458 42.6946C92.5857 45.0715 90.9222 47.3586 88.5621 48.7421C85.3352 50.6752 81.0748 50.4985 77.8779 48.5917C75.7178 47.2916 74.281 45.0715 73.4543 42.7383C71.1875 35.6011 73.1009 27.2038 78.3246 21.8168C79.8914 20.2897 81.9249 19.2199 84.1084 18.9466ZM84.7951 25.9742C83.0949 26.5809 82.0749 28.2044 81.1915 29.6778C79.278 33.0514 78.808 37.3951 80.5381 40.9387C81.0048 41.9184 81.8315 42.9051 83.0016 42.9585C84.275 43.0055 85.3718 42.1987 86.2552 41.365C88.1786 39.4682 89.0587 36.7584 89.3654 34.1282C89.6821 31.6646 89.2721 29.0178 87.8386 26.951C87.1819 25.9876 85.8918 25.5775 84.7951 25.9742V25.9742Z" fill="white"/>
<path fill-rule="evenodd" clip-rule="evenodd" d="M118.774 19.883C121.537 19.2729 124.444 19.3563 127.194 19.9963C127.204 22.2465 127.194 24.4967 127.201 26.7468C124.944 26.2034 122.42 25.6934 120.23 26.7502C117.613 28.0302 116.183 30.9805 116.157 33.814C116.01 36.6375 116.95 39.7808 119.45 41.3676C121.747 42.8877 124.681 42.5643 127.201 41.8413C127.194 44.0911 127.201 46.3416 127.194 48.5914C123.861 49.5581 120.217 49.4381 116.963 48.2281C113.056 46.7616 109.946 43.388 108.756 39.3911C107.856 36.3575 107.739 33.0706 108.469 29.9871C109.646 25.04 113.823 20.9864 118.774 19.883ZM139.082 19.55C142.482 19.1699 146.182 19.6933 148.929 21.8735C151.579 23.9303 152.903 27.2472 153.363 30.4874C153.829 34.0343 153.726 37.7246 152.629 41.1512C151.696 44.0617 149.743 46.7516 146.929 48.075C144.069 49.4221 140.735 49.5118 137.692 48.8254C134.871 48.1917 132.388 46.3216 130.988 43.7981C129.051 40.3945 128.698 36.3545 128.848 32.5142C129.008 29.2007 129.844 25.7471 132.071 23.1936C133.818 21.1167 136.405 19.8533 139.082 19.55ZM140.127 26.0029C138.667 26.373 137.84 27.8131 137.474 29.1698C136.75 31.8534 136.874 34.6769 137.057 37.4238C137.234 38.9072 137.394 40.547 138.451 41.7038C139.854 43.3009 142.674 43.0839 143.964 41.4504C144.818 40.4037 145.038 39.0239 145.234 37.7305C145.508 35.417 145.578 33.0635 145.224 30.7566C144.978 29.3732 144.594 27.9131 143.578 26.8797C142.704 25.9729 141.324 25.6963 140.127 26.0029ZM273.476 19.9995C276.363 19.2428 279.423 19.3528 282.326 19.9729C282.393 22.2297 282.34 24.4899 282.356 26.7467C280.146 26.2167 277.706 25.72 275.542 26.6734C273.056 27.8068 271.549 30.4736 271.355 33.1372C271.049 36.124 271.872 39.5576 274.506 41.3041C276.813 42.8909 279.803 42.5812 282.356 41.8411C282.326 44.1076 282.423 46.3781 282.303 48.6413C278.749 49.5647 274.879 49.4413 271.492 47.9716C267.772 46.3511 264.888 42.9912 263.818 39.0843C262.998 36.084 262.905 32.8571 263.662 29.8336C264.845 25.1066 268.775 21.2263 273.476 19.9995H273.476ZM157.851 20.2234C161.065 20.2164 164.282 20.2167 167.498 20.2234C168.662 25.4371 169.769 30.6675 170.735 35.9212C171.656 30.6441 172.892 25.4304 174.136 20.2234C177.433 20.2164 180.729 20.22 184.03 20.22C185.31 29.6574 186.583 39.0947 187.853 48.5318C185.33 48.5351 182.809 48.5354 180.286 48.5318C179.586 42.068 178.966 35.5978 178.226 29.1373C176.696 35.6112 175.082 42.0646 173.522 48.5318C171.802 48.5384 170.078 48.5354 168.358 48.5318C166.709 42.058 165.085 35.5745 163.422 29.104C162.772 35.5811 162.128 42.058 161.471 48.5354C159.061 48.5318 156.647 48.5384 154.238 48.5318C155.438 39.0947 156.647 29.6607 157.851 20.2234ZM192.448 20.2195C195.664 20.2228 198.881 20.2128 202.102 20.2228C203.262 25.4299 204.358 30.6502 205.332 35.8973C206.265 30.6302 207.488 25.4199 208.735 20.2195C212.019 20.2195 215.306 20.2195 218.589 20.2195C219.866 29.6568 221.139 39.0942 222.409 48.5312C219.889 48.5379 217.369 48.5279 214.849 48.5379C214.149 42.0707 213.495 35.6039 212.805 29.1368C211.232 35.6006 209.689 42.0707 208.115 48.5349C206.395 48.5312 204.678 48.5349 202.962 48.5349C201.311 42.0541 199.671 35.5706 198.025 29.0868C197.365 35.5673 196.728 42.0507 196.071 48.5312C193.658 48.5345 191.247 48.5349 188.834 48.5312C190.037 39.0942 191.244 29.6568 192.448 20.2195ZM224.57 20.3134C229.733 20.1971 234.903 20.2971 240.07 20.2638C240.081 22.2739 240.064 24.2807 240.08 26.2909C237.474 26.3209 234.867 26.2942 232.26 26.3076C232.257 28.0343 232.257 29.7611 232.26 31.4879C234.517 31.4946 236.774 31.4879 239.03 31.4913C239.031 33.4481 239.034 35.4015 239.03 37.355C236.774 37.3584 234.517 37.3517 232.26 37.3584C232.257 39.0852 232.257 40.8149 232.26 42.5417C234.877 42.5484 237.497 42.5417 240.114 42.5451C240.114 44.5552 240.117 46.5654 240.114 48.5755C234.947 48.5788 229.78 48.5788 224.616 48.5755C224.583 39.1552 224.673 29.7311 224.569 20.3138L224.57 20.3134ZM242.299 20.2204C245.533 20.2337 248.766 20.1937 252 20.2404C255.047 20.3371 258.277 21.0971 260.55 23.2539C262.604 25.1641 263.314 28.281 262.517 30.9378C261.887 33.098 260.267 34.8514 258.244 35.7982C260.267 40.0482 262.31 44.2851 264.334 48.5321C261.644 48.5354 258.954 48.5321 256.267 48.5358C254.157 44.2021 252.113 39.8315 249.976 35.5115C249.923 39.8515 249.97 44.1921 249.953 48.5321C247.399 48.5354 244.849 48.5358 242.299 48.5321C242.296 39.0951 242.296 29.6577 242.299 20.2204ZM249.909 25.6629C249.903 27.9131 249.902 30.1666 249.909 32.4201C251.292 32.3234 252.796 32.2701 253.973 31.4333C255.326 30.4566 255.179 28.3665 254.326 27.1064C253.27 25.8129 251.432 25.7863 249.909 25.6629H249.909ZM284.5 20.2264C289.657 20.213 294.814 20.2264 299.972 20.2197C299.975 22.2328 299.972 24.2467 299.972 26.2601C297.355 26.2635 294.738 26.2601 292.121 26.2635C292.118 27.9869 292.118 29.7104 292.118 31.4372C294.374 31.4439 296.631 31.4339 298.888 31.4405C298.888 33.3973 298.891 35.3575 298.888 37.3143C296.631 37.3143 294.378 37.3143 292.124 37.3143C292.114 39.0411 292.118 40.7675 292.121 42.498C294.748 42.5043 297.375 42.498 300.005 42.5013C300.005 44.5111 300.005 46.5216 300.002 48.5351C294.838 48.5348 289.671 48.5351 284.507 48.5314C284.497 39.0977 284.507 29.6604 284.5 20.2264V20.2264Z" fill="black"/>
</g>
<defs>
<clipPath id="clip0_1566_4300">
<rect width="300" height="76.4423" fill="white" transform="translate(0 0.86499)"/>
</clipPath>
</defs>
</svg>
