<svg width="126" height="28" viewBox="0 0 126 28" fill="none" xmlns="http://www.w3.org/2000/svg">
<path fill-rule="evenodd" clip-rule="evenodd" d="M15.9648 8.00049V20.0004L26.3335 14.0006L15.9648 8.00049ZM35.5485 0.835994C37.2657 1.29597 38.6183 2.65154 39.0772 4.37259C39.9114 7.49201 39.9114 14.0002 39.9114 14.0002C39.9114 14.0002 39.9114 20.5087 39.0772 23.6281C38.6183 25.3492 37.2657 26.7044 35.5485 27.1644C32.4363 28.0004 19.9558 28.0004 19.9558 28.0004C19.9558 28.0004 7.47502 28.0004 4.36254 27.1644C2.64532 26.7044 1.29309 25.3492 0.833807 23.6281C0 20.5087 0 14.0002 0 14.0002C0 14.0002 0 7.49201 0.833807 4.37259C1.29309 2.65154 2.64532 1.29597 4.36254 0.835994C7.47502 0 19.9558 0 19.9558 0C19.9558 0 32.4363 0 35.5485 0.835994ZM108.996 18.4095C108.996 19.6874 108.943 20.6887 108.838 21.413C108.734 22.1381 108.558 22.653 108.311 22.9579C108.063 23.2632 107.73 23.4156 107.312 23.4156C106.988 23.4156 106.688 23.3395 106.413 23.1864C106.137 23.034 105.913 22.8055 105.742 22.4999V12.5454C105.875 12.0693 106.103 11.6781 106.427 11.3725C106.75 11.068 107.102 10.9149 107.483 10.9149C107.882 10.9149 108.192 11.0723 108.41 11.387C108.629 11.7015 108.782 12.2309 108.867 12.9747C108.953 13.7182 108.996 14.7768 108.996 16.1498V18.4095ZM112.605 11.2571C112.367 10.1515 111.982 9.35069 111.45 8.85449C110.916 8.35896 110.184 8.11069 109.252 8.11069C108.528 8.11069 107.853 8.31582 107.225 8.72575C106.597 9.13601 106.112 9.67468 105.77 10.3418H105.741L105.741 1.10237H101.945V25.9889H105.199L105.598 24.3298H105.684C105.988 24.9211 106.445 25.3883 107.054 25.7318C107.663 26.0749 108.338 26.2461 109.081 26.2461C110.412 26.2461 111.392 25.6313 112.02 24.4016C112.648 23.1711 112.962 21.2502 112.962 18.6375V15.8628C112.962 13.8988 112.843 12.3638 112.605 11.2571ZM48.3401 18.2081L43.8593 1.98874H47.7694L49.3391 9.34048C49.739 11.1524 50.0337 12.697 50.2239 13.9745H50.3382C50.4709 13.0592 50.7663 11.5241 51.2229 9.36913L52.8498 1.98874H56.76L52.222 18.2081V25.9893H48.3401V18.2081ZM62.6816 19.9247C62.6816 21.222 62.5718 22.1558 62.3537 22.7281C62.1346 23.3003 61.7492 23.5861 61.1976 23.5861C60.6454 23.5861 60.2649 23.3003 60.0556 22.7281C59.8464 22.1558 59.7419 21.222 59.7419 19.9247V14.4613C59.7419 13.2025 59.8513 12.2829 60.0701 11.7008C60.2886 11.1193 60.6647 10.8282 61.1976 10.8282C61.7492 10.8282 62.1346 11.1193 62.3537 11.7008C62.5718 12.2829 62.6816 13.2025 62.6816 14.4613V19.9247ZM56.2457 22.9855C56.5785 24.1109 57.1399 24.9404 57.9294 25.4741C58.7189 26.0082 59.8086 26.2752 61.1976 26.2752C62.5482 26.2752 63.6185 26.0128 64.4087 25.4882C65.1978 24.9644 65.7688 24.1347 66.1209 23C66.4728 21.8657 66.6489 20.3636 66.6489 18.4944V15.9486C66.6489 14.0609 66.4679 12.5496 66.1065 11.4146C65.7448 10.2807 65.1741 9.44598 64.3942 8.91192C63.6139 8.37819 62.5768 8.11116 61.283 8.11116C59.9702 8.11116 58.9094 8.37325 58.1006 8.89743C57.2917 9.42227 56.6974 10.2563 56.317 11.4005C55.9359 12.5447 55.746 14.0609 55.746 15.9486V18.4944C55.746 20.3636 55.9126 21.8604 56.2457 22.9855ZM118.654 12.3722C118.721 11.8098 118.854 11.4045 119.054 11.1566C119.254 10.909 119.563 10.7845 119.981 10.7845C120.4 10.7845 120.709 10.904 120.909 11.1421C121.109 11.3808 121.247 11.7907 121.323 12.3722C121.399 12.954 121.437 13.8074 121.437 14.9325V16.191H118.555V14.9325C118.555 13.788 118.587 12.9349 118.654 12.3722ZM118.553 19.4234V18.5364H125.146V15.5329C125.146 13.6834 124.998 12.2337 124.703 11.1847C124.408 10.136 123.899 9.36385 123.176 8.86798C122.453 8.37211 121.416 8.12385 120.065 8.12385C118.105 8.12385 116.721 8.72969 115.912 9.94038C115.104 11.1517 114.699 13.073 114.699 15.7044V18.7652C114.699 21.321 115.089 23.209 115.869 24.4292C116.65 25.6501 118.01 26.2599 119.951 26.2599C121.568 26.2599 122.82 25.8595 123.704 25.0584C124.589 24.2573 125.032 23.047 125.032 21.4257C125.032 21.1586 125.022 20.9489 125.003 20.7961L121.606 20.5959C121.587 21.6641 121.468 22.427 121.25 22.8843C121.031 23.342 120.626 23.5711 120.036 23.5711C119.598 23.5711 119.276 23.4424 119.066 23.1846C118.857 22.9274 118.719 22.5175 118.653 21.9548C118.585 21.3924 118.553 20.5489 118.553 19.4234ZM79.3698 25.9891V8.45393H75.4311V22.3846C75.2786 22.7093 75.0457 22.976 74.7316 23.1854C74.4179 23.3958 74.0897 23.5002 73.747 23.5002C73.3472 23.5002 73.062 23.3336 72.8909 22.9997C72.7197 22.6662 72.634 22.1084 72.634 21.3264V8.45393H68.6952V21.5549C68.6952 23.1762 68.9709 24.3681 69.5231 25.131C70.0744 25.8939 70.9309 26.2749 72.0916 26.2749C73.7657 26.2749 75.0217 25.4646 75.8591 23.8433H75.9449L76.2872 25.9891H79.3698ZM99.5729 8.45393V25.9891H96.4906L96.148 23.8433H96.0622C95.2245 25.4646 93.9689 26.2749 92.2947 26.2749C91.134 26.2749 90.2775 25.8939 89.7262 25.131C89.174 24.3681 88.8983 23.1762 88.8983 21.5549V8.45393H92.8368V21.3264C92.8368 22.1084 92.9225 22.6662 93.094 22.9997C93.2652 23.3336 93.5503 23.5002 93.9501 23.5002C94.2928 23.5002 94.621 23.3958 94.9347 23.1854C95.2488 22.976 95.4814 22.7093 95.6342 22.3846V8.45393H99.5729ZM86.1615 5.16464H90.0716V1.98957H78.3983V5.16464H82.3085V25.9894H86.1615V5.16464Z" fill="#787878"/>
</svg>
