<svg width="46" height="46" viewBox="0 0 46 46" fill="none" xmlns="http://www.w3.org/2000/svg">
<g id="bank-note-03">
<path id="Subtract" fill-rule="evenodd" clip-rule="evenodd" d="M40.1079 12.948H40.2201V32.7813H40.1079C40.1338 32.6425 40.1555 32.4759 40.1722 32.2718C40.2178 31.7139 40.2187 30.9921 40.2187 29.9303V15.799C40.2187 14.7372 40.2178 14.0154 40.1722 13.4575C40.1555 13.2534 40.1338 13.0868 40.1079 12.948ZM3.03255 14.9275C3.03124 15.1868 3.03125 15.4601 3.03125 15.7478L3.03125 15.799L3.03125 29.9303L3.03125 29.9815C3.03125 30.2693 3.03124 30.5426 3.03255 30.8019V14.9275ZM24.1042 15.4272C24.1042 14.7426 23.5492 14.1876 22.8646 14.1876C22.18 14.1876 21.625 14.7426 21.625 15.4272V16.0587C19.5448 16.2169 17.9062 17.9549 17.9062 20.0756C17.9062 22.3006 19.7099 24.1042 21.9349 24.1042H23.7943C24.65 24.1042 25.3437 24.798 25.3437 25.6537C25.3437 26.5095 24.65 27.2032 23.7943 27.2032H22.8646H19.1458C18.4612 27.2032 17.9062 27.7582 17.9062 28.4428C17.9062 29.1274 18.4612 29.6824 19.1458 29.6824H21.625V30.3022C21.625 30.9868 22.18 31.5417 22.8646 31.5417C23.5492 31.5417 24.1042 30.9868 24.1042 30.3022V29.6706C26.1843 29.5124 27.8229 27.7744 27.8229 25.6537C27.8229 23.4288 26.0192 21.6251 23.7943 21.6251H21.9349C21.0791 21.6251 20.3854 20.9314 20.3854 20.0756C20.3854 19.2198 21.0791 18.5261 21.9349 18.5261H22.8646H26.5833C27.2679 18.5261 27.8229 17.9711 27.8229 17.2865C27.8229 16.6019 27.2679 16.047 26.5833 16.047H24.1042V15.4272Z" fill="black"/>
</g>
</svg>
