<svg width="36" height="36" viewBox="0 0 36 36" fill="none" xmlns="http://www.w3.org/2000/svg">
<g id="bar-line-chart">
<path id="Icon" d="M30 30V19.5M18 30V15M6 30L6 24M20.11 7.54126L27.8627 10.4485M16.1982 8.10138L7.80034 14.3997M31.591 9.65901C32.4697 10.5377 32.4697 11.9623 31.591 12.841C30.7123 13.7197 29.2877 13.7197 28.409 12.841C27.5303 11.9623 27.5303 10.5377 28.409 9.65901C29.2877 8.78033 30.7123 8.78033 31.591 9.65901ZM7.59099 14.159C8.46967 15.0377 8.46967 16.4623 7.59099 17.341C6.71231 18.2197 5.28769 18.2197 4.40901 17.341C3.53033 16.4623 3.53033 15.0377 4.40901 14.159C5.28769 13.2803 6.71231 13.2803 7.59099 14.159ZM19.591 5.15901C20.4697 6.03769 20.4697 7.46231 19.591 8.34099C18.7123 9.21967 17.2877 9.21967 16.409 8.34099C15.5303 7.46231 15.5303 6.03769 16.409 5.15901C17.2877 4.28033 18.7123 4.28033 19.591 5.15901Z" stroke="black" stroke-width="2" stroke-linecap="round" stroke-linejoin="round"/>
</g>
</svg>
