<svg width="36" height="36" viewBox="0 0 36 36" fill="none" xmlns="http://www.w3.org/2000/svg">
<g id="check-done-02">
<path id="Icon" d="M24 12V7.8C24 6.11984 24 5.27976 23.673 4.63803C23.3854 4.07354 22.9265 3.6146 22.362 3.32698C21.7202 3 20.8802 3 19.2 3H7.8C6.11984 3 5.27976 3 4.63803 3.32698C4.07354 3.6146 3.6146 4.07354 3.32698 4.63803C3 5.27976 3 6.11984 3 7.8V19.2C3 20.8802 3 21.7202 3.32698 22.362C3.6146 22.9265 4.07354 23.3854 4.63803 23.673C5.27976 24 6.11984 24 7.8 24H12M18 22.5L21 25.5L27.75 18.75M16.8 33H28.2C29.8802 33 30.7202 33 31.362 32.673C31.9265 32.3854 32.3854 31.9265 32.673 31.362C33 30.7202 33 29.8802 33 28.2V16.8C33 15.1198 33 14.2798 32.673 13.638C32.3854 13.0735 31.9265 12.6146 31.362 12.327C30.7202 12 29.8802 12 28.2 12H16.8C15.1198 12 14.2798 12 13.638 12.327C13.0735 12.6146 12.6146 13.0735 12.327 13.638C12 14.2798 12 15.1198 12 16.8V28.2C12 29.8802 12 30.7202 12.327 31.362C12.6146 31.9265 13.0735 32.3854 13.638 32.673C14.2798 33 15.1198 33 16.8 33Z" stroke="black" stroke-width="2" stroke-linecap="round" stroke-linejoin="round"/>
</g>
</svg>
