<svg width="36" height="36" viewBox="0 0 36 36" fill="none" xmlns="http://www.w3.org/2000/svg">
<g id="clapperboard">
<path id="Icon" d="M13.5 4.5L12 12M24 4.5L22.5 12M33 12H3M10.2 31.5H25.8C28.3202 31.5 29.5804 31.5 30.543 31.0095C31.3897 30.5781 32.0781 29.8897 32.5095 29.043C33 28.0804 33 26.8202 33 24.3V11.7C33 9.17976 33 7.91965 32.5095 6.95704C32.0781 6.11031 31.3897 5.4219 30.543 4.99047C29.5804 4.5 28.3202 4.5 25.8 4.5H10.2C7.67976 4.5 6.41965 4.5 5.45704 4.99047C4.61031 5.4219 3.9219 6.11031 3.49047 6.95704C3 7.91965 3 9.17976 3 11.7V24.3C3 26.8202 3 28.0804 3.49047 29.043C3.9219 29.8897 4.61031 30.5781 5.45704 31.0095C6.41965 31.5 7.67976 31.5 10.2 31.5Z" stroke="black" stroke-width="2" stroke-linecap="round" stroke-linejoin="round"/>
</g>
</svg>
