<svg width="36" height="37" viewBox="0 0 36 37" fill="none" xmlns="http://www.w3.org/2000/svg">
<g id="coins-stacked-02">
<path id="Icon" d="M19.5 8C19.5 9.65685 15.8063 11 11.25 11C6.69365 11 3 9.65685 3 8M19.5 8C19.5 6.34315 15.8063 5 11.25 5C6.69365 5 3 6.34315 3 8M19.5 8V14.6857C17.6677 15.236 16.5 16.0684 16.5 17M3 8V26C3 27.6569 6.69365 29 11.25 29C13.2444 29 15.0736 28.7426 16.5 28.3143V17M3 14C3 15.6569 6.69365 17 11.25 17C13.2444 17 15.0736 16.7426 16.5 16.3143M3 20C3 21.6569 6.69365 23 11.25 23C13.2444 23 15.0736 22.7426 16.5 22.3143M33 17C33 18.6569 29.3063 20 24.75 20C20.1937 20 16.5 18.6569 16.5 17M33 17C33 15.3431 29.3063 14 24.75 14C20.1937 14 16.5 15.3431 16.5 17M33 17V29C33 30.6569 29.3063 32 24.75 32C20.1937 32 16.5 30.6569 16.5 29V17M33 23C33 24.6569 29.3063 26 24.75 26C20.1937 26 16.5 24.6569 16.5 23" stroke="black" stroke-width="2" stroke-linecap="round" stroke-linejoin="round"/>
</g>
</svg>
