<svg width="46" height="46" viewBox="0 0 46 46" fill="none" xmlns="http://www.w3.org/2000/svg">
<path d="M42.1668 19.1667H3.8335M21.0835 26.8334H11.5002M3.8335 15.7167L3.8335 30.2834C3.8335 32.4302 3.8335 33.5037 4.2513 34.3237C4.61882 35.045 5.20524 35.6314 5.92653 35.9989C6.74653 36.4167 7.81996 36.4167 9.96683 36.4167L36.0335 36.4167C38.1804 36.4167 39.2538 36.4167 40.0738 35.9989C40.7951 35.6314 41.3815 35.045 41.749 34.3237C42.1668 33.5037 42.1668 32.4302 42.1668 30.2834V15.7167C42.1668 13.5698 42.1668 12.4964 41.749 11.6764C41.3815 10.9551 40.7951 10.3687 40.0738 10.0012C39.2538 9.58338 38.1804 9.58338 36.0335 9.58338L9.96683 9.58337C7.81996 9.58337 6.74653 9.58337 5.92653 10.0012C5.20525 10.3687 4.61882 10.9551 4.25131 11.6764C3.8335 12.4964 3.8335 13.5698 3.8335 15.7167Z" stroke="white" stroke-width="2" stroke-linecap="round" stroke-linejoin="round"/>
</svg>
