<svg width="27" height="27" viewBox="0 0 27 27" fill="none" xmlns="http://www.w3.org/2000/svg">
<path d="M14 2.75H19.25C21.3502 2.75 22.4003 2.75 23.2025 3.15873C23.9081 3.51825 24.4817 4.09193 24.8413 4.79754C25.25 5.5997 25.25 6.6498 25.25 8.75V19.25C25.25 21.3502 25.25 22.4003 24.8413 23.2025C24.4817 23.9081 23.9081 24.4817 23.2025 24.8413C22.4003 25.25 21.3502 25.25 19.25 25.25H8.75C6.6498 25.25 5.5997 25.25 4.79754 24.8413C4.09193 24.4817 3.51825 23.9081 3.15873 23.2025C2.75 22.4003 2.75 21.3502 2.75 19.25V14M9 15.25V20.25M19 12.75V20.25M14 7.75V20.25M1.5 5.25L5.25 1.5M5.25 1.5L9 5.25M5.25 1.5L5.25 9" stroke="black" stroke-width="2" stroke-linecap="round" stroke-linejoin="round"/>
</svg>
