<svg width="32" height="32" viewBox="0 0 32 32" fill="none" xmlns="http://www.w3.org/2000/svg">
<path d="M25.1246 10.5C24.9406 13.042 23.0556 15 20.9996 15C18.9426 15 17.0546 13.043 16.8746 10.5C16.6866 7.856 18.5226 6 20.9996 6C23.4756 6 25.3116 7.904 25.1246 10.5Z" stroke="white" stroke-width="2" stroke-linecap="round" stroke-linejoin="round"/>
<path d="M20.9995 19C16.9265 19 13.0096 21.023 12.0286 24.963C11.8986 25.484 12.2245 26 12.7605 26H29.2386C29.7746 26 30.0995 25.484 29.9715 24.963C28.9895 20.96 25.0735 19 20.9995 19Z" stroke="white" stroke-width="2" stroke-miterlimit="10"/>
<path d="M12.5007 11.621C12.3537 13.651 10.8307 15.25 9.18768 15.25C7.54568 15.25 6.01868 13.652 5.87568 11.621C5.72568 9.509 7.20868 8 9.18768 8C11.1667 8 12.6497 9.548 12.5007 11.621Z" stroke="white" stroke-width="2" stroke-linecap="round" stroke-linejoin="round"/>
<path d="M12.8764 19.1249C11.7474 18.6079 10.5054 18.4089 9.1884 18.4089C5.9384 18.4089 2.8074 20.0249 2.0224 23.1719C1.9194 23.5879 2.1814 23.9999 2.6084 23.9999H9.6264" stroke="white" stroke-width="2" stroke-miterlimit="10" stroke-linecap="round"/>
</svg>
