<svg width="36" height="36" viewBox="0 0 36 36" fill="none" xmlns="http://www.w3.org/2000/svg">
<g id="Group">
<path id="Vector" d="M18.0002 4.75955C21.655 4.75955 24.9664 6.242 27.3622 8.63781C29.758 11.0336 31.2404 14.3451 31.2404 17.9998C31.2404 21.6546 29.758 24.9661 27.3622 27.3619C24.9664 29.7577 21.655 31.2401 18.0002 31.2401C14.3454 31.2401 11.034 29.7577 8.63814 27.3619C6.24233 24.9661 4.75988 21.6546 4.75988 17.9998C4.75988 14.3451 6.24233 11.0336 8.63814 8.63781C11.034 6.242 14.3454 4.75955 18.0002 4.75955ZM21.7337 21.1801L21.64 21.2325C21.3487 21.4185 21.151 21.7044 21.0664 22.0201C20.9814 22.3368 21.0108 22.6851 21.1718 22.9946L21.2243 23.0837C21.4111 23.3836 21.7002 23.5867 22.0205 23.6722C22.3435 23.7586 22.6986 23.727 23.0121 23.5582L23.0438 23.5388C23.3659 23.3529 23.583 23.0525 23.6726 22.7191C23.7576 22.402 23.7282 22.0536 23.5672 21.7442L23.5151 21.6555C23.3274 21.3551 23.0388 21.152 22.719 21.0665C22.3982 20.981 22.0454 21.0122 21.7337 21.1801ZM20.9307 19.8781C21.2288 19.7053 21.5455 19.5922 21.8658 19.5348C21.8735 19.3805 21.8798 19.2299 21.8843 19.0837C21.8943 18.7815 21.8997 18.4206 21.8997 17.9998C21.8997 16.7115 21.825 15.4733 21.6871 14.3129C20.5267 14.175 19.2885 14.1003 18.0002 14.1003C17.5795 14.1003 17.218 14.1057 16.9158 14.1157C16.7697 14.1202 16.6195 14.1265 16.4652 14.1342C16.4512 14.2157 16.4327 14.2957 16.4114 14.3754C16.2219 15.0838 15.7591 15.7221 15.0696 16.1206C14.7715 16.2939 14.4549 16.407 14.1346 16.4645C14.1269 16.6192 14.1205 16.7698 14.116 16.9159C14.1061 17.2181 14.1006 17.5791 14.1006 17.9998C14.1006 19.2882 14.1753 20.5264 14.3133 21.6867C15.4736 21.8247 16.7118 21.8994 18.0002 21.8994C18.4209 21.8994 18.7819 21.8939 19.0841 21.884C19.2302 21.8795 19.3804 21.8731 19.5346 21.8654C19.5491 21.7845 19.5668 21.7039 19.588 21.6248C19.778 20.9159 20.2408 20.2771 20.9307 19.8781ZM23.3889 19.6768C23.9879 19.9035 24.5163 20.3314 24.8619 20.929L24.8908 20.9842L24.9429 21.0833C26.3927 20.7024 27.5925 20.2093 28.4398 19.642C29.2274 19.1145 29.677 18.5513 29.677 17.9998C29.677 17.0634 28.4746 16.1437 26.5321 15.4158C25.5866 15.0612 24.4792 14.7658 23.2532 14.545C23.3699 15.6456 23.4324 16.8046 23.4324 17.9998C23.4324 18.3251 23.4247 18.7046 23.4106 19.1317C23.4048 19.3199 23.3971 19.5017 23.3889 19.6768ZM25.2405 22.5847C25.2274 22.7643 25.1971 22.9416 25.151 23.1145C24.9605 23.8251 24.4973 24.4648 23.8101 24.8615L23.7576 24.8891C23.3844 25.095 22.985 25.2099 22.585 25.2402C22.158 26.8923 21.5839 28.2829 20.9108 29.289L20.8669 29.3537C22.9488 28.8298 24.809 27.7491 26.2792 26.2789C27.7494 24.8086 28.8302 22.9484 29.354 20.8666L29.2893 20.9105C28.2832 21.5836 26.8926 22.1581 25.2405 22.5847ZM21.0827 24.9452C20.595 24.7019 20.1702 24.3173 19.8771 23.8098L19.8481 23.7546C19.7825 23.6351 19.726 23.5126 19.6785 23.3886C19.503 23.3967 19.3207 23.4044 19.132 23.4103C18.705 23.4243 18.3254 23.432 18.0002 23.432C16.805 23.432 15.646 23.3696 14.5453 23.2529C14.7661 24.4788 15.0615 25.5863 15.4162 26.5317C16.144 28.4743 17.0637 29.6767 18.0002 29.6767C18.5516 29.6767 19.1148 29.227 19.6423 28.4394C20.2091 27.593 20.7022 26.3942 21.0827 24.9452ZM12.1934 11.1381C12.5806 10.9146 12.9977 10.7911 13.4153 10.7595C13.8419 9.10738 14.4164 7.71722 15.0905 6.71067L15.1343 6.64553C13.0525 7.16893 11.1914 8.25057 9.72114 9.72081C8.25091 11.191 7.17017 13.0517 6.64631 15.1335L6.711 15.0897C7.71664 14.4156 9.10726 13.842 10.7589 13.415C10.7725 13.2358 10.8028 13.0576 10.8489 12.8848C11.0394 12.1759 11.5026 11.5367 12.1934 11.1381ZM14.9176 11.0549C15.4049 11.2983 15.8292 11.6828 16.1223 12.1899L16.1499 12.2424C16.2164 12.3627 16.2734 12.4858 16.3209 12.6111C16.4969 12.6029 16.6792 12.5952 16.8679 12.5894C17.2949 12.5753 17.6749 12.5676 18.0002 12.5676C19.1954 12.5676 20.3544 12.6301 21.455 12.7468C21.2342 11.5208 20.9388 10.4134 20.5842 9.46793C19.8563 7.52541 18.9366 6.32298 18.0002 6.32298C17.4492 6.32298 16.886 6.77265 16.3589 7.56024C15.7916 8.40755 15.2981 9.60591 14.9176 11.0549ZM12.6114 16.3229C12.012 16.0962 11.4836 15.6687 11.138 15.0702L11.1104 15.0182L11.057 14.9164C9.60714 15.2973 8.40788 15.7904 7.56057 16.3581C6.77298 16.8852 6.32331 17.4484 6.32331 17.9998C6.32331 18.9363 7.52574 19.856 9.46826 20.5838C10.4137 20.9385 11.5212 21.2339 12.7471 21.4547C12.6304 20.354 12.568 19.195 12.568 17.9998C12.568 17.6746 12.5757 17.295 12.5897 16.868C12.5956 16.6798 12.6028 16.4979 12.6114 16.3229ZM13.9794 12.3274C13.6446 12.2379 13.2755 12.2754 12.9534 12.4609C12.6331 12.6455 12.4169 12.9463 12.3273 13.2801C12.2405 13.6036 12.2726 13.9587 12.4413 14.2722L12.4608 14.3039C12.6471 14.6264 12.9475 14.844 13.2809 14.9331C13.6148 15.0223 13.983 14.9847 14.3042 14.7992C14.6272 14.6147 14.8439 14.3143 14.933 13.98C15.0199 13.6565 14.9878 13.3014 14.819 12.9879L14.7996 12.9562C14.6132 12.6337 14.3133 12.4165 13.9794 12.3274ZM1.88591 27.2533L1.93793 27.3465C2.12431 27.6374 2.41022 27.8355 2.72598 27.9201C3.0431 28.0051 3.39143 27.9757 3.70086 27.8147L3.78998 27.7622C4.09081 27.5749 4.29393 27.285 4.37943 26.9656C4.469 26.6308 4.43145 26.2608 4.24553 25.9387C4.06095 25.6188 3.76012 25.4021 3.42536 25.3126C3.10417 25.2266 2.75086 25.2583 2.43826 25.4261L2.36136 25.4705C2.06098 25.6582 1.85786 25.9468 1.77236 26.2666C1.68641 26.5874 1.71807 26.9407 1.88591 27.2533ZM0.583954 28.0558C0.184954 27.3668 0.103526 26.5815 0.293978 25.8713C0.439645 25.3257 0.746811 24.8217 1.19241 24.4377C-0.202284 20.8109 -0.345236 16.9272 0.615621 13.3421C1.57648 9.75474 3.64295 6.46096 6.66395 4.01719C6.46988 3.46212 6.45586 2.87403 6.60152 2.33027C6.79152 1.62138 7.25431 0.982623 7.94374 0.583623C8.63317 0.184623 9.4185 0.103195 10.1287 0.293647C10.6743 0.439314 11.1783 0.74648 11.5623 1.19208C15.1895 -0.202163 19.0728 -0.345115 22.6579 0.61529C26.2453 1.5766 29.539 3.64262 31.9828 6.66362C32.5379 6.46955 33.126 6.45553 33.6697 6.60119C34.3786 6.79119 35.0174 7.25398 35.4159 7.94386C35.8154 8.63284 35.8968 9.41817 35.7064 10.1284C35.5607 10.674 35.2535 11.1779 34.8079 11.562C36.2022 15.1892 36.3451 19.0724 35.3847 22.6575C34.4234 26.2449 32.3574 29.5387 29.3364 31.9825C29.5305 32.5375 29.5445 33.1256 29.3988 33.6694C29.2088 34.3783 28.746 35.0171 28.0561 35.4156C27.3672 35.815 26.5818 35.8965 25.8716 35.706C25.326 35.5604 24.8221 35.2532 24.438 34.8076C20.8113 36.2023 16.9276 36.3452 13.3425 35.3844C9.75507 34.4235 6.46129 32.357 4.01753 29.3361C3.46245 29.5301 2.87436 29.5441 2.3306 29.3985C1.62172 29.2085 0.982954 28.7457 0.583954 28.0558ZM2.57579 23.7804C2.99424 23.7062 3.41948 23.727 3.82074 23.8342C4.53007 24.0242 5.16974 24.4879 5.56829 25.1787C5.96593 25.8681 6.04736 26.6521 5.85781 27.361C5.75014 27.7627 5.55562 28.1413 5.28283 28.4661C7.50945 31.1781 10.4915 33.0365 13.7378 33.906C16.9855 34.7764 20.4969 34.6592 23.7807 33.4242C23.7065 33.0058 23.7273 32.5805 23.8345 32.1793C24.0245 31.4699 24.4882 30.8303 25.179 30.4317C25.8684 30.0341 26.6524 29.9526 27.3613 30.1422C27.763 30.2499 28.1416 30.4444 28.4664 30.7172C31.1785 28.4905 33.0369 25.5085 33.9063 22.2622C34.7763 19.0145 34.6595 15.5031 33.4245 12.2193C33.0065 12.2935 32.5809 12.2727 32.1796 12.1655C31.4703 11.9755 30.8306 11.5118 30.432 10.821C30.0344 10.1316 29.953 9.3476 30.1425 8.63872C30.2502 8.237 30.4447 7.85836 30.7175 7.53355C28.4909 4.82153 25.5088 2.96315 22.2625 2.09367C19.0149 1.22374 15.5035 1.34046 12.2196 2.57546C12.2938 2.99346 12.273 3.41915 12.1658 3.82041C11.9758 4.52974 11.5121 5.16941 10.8213 5.56796C10.1319 5.9656 9.34793 6.04703 8.63905 5.85748C8.23733 5.74981 7.85869 5.55529 7.53388 5.2825C4.82186 7.50912 2.96348 10.4912 2.094 13.7375C1.22362 16.9851 1.34079 20.4965 2.57579 23.7804ZM26.9659 31.6206C26.6311 31.531 26.2611 31.5685 25.939 31.7545C25.6192 31.939 25.4025 32.2399 25.3129 32.5746C25.227 32.8958 25.2586 33.2491 25.4265 33.5617L25.4708 33.6386C25.6585 33.939 25.9471 34.1421 26.267 34.2276C26.5877 34.3136 26.941 34.2819 27.2536 34.1141L27.3468 34.0621C27.6377 33.8757 27.8358 33.5898 27.9204 33.274C28.0055 32.9569 27.9761 32.6086 27.815 32.2991L27.7625 32.21C27.5753 31.9092 27.2853 31.7061 26.9659 31.6206ZM31.6209 9.0341C31.5313 9.36886 31.5689 9.73891 31.7548 10.061C31.9394 10.3808 32.2402 10.5975 32.575 10.6871C32.8962 10.7731 33.2495 10.7414 33.5621 10.5736L33.639 10.5292C33.9394 10.3415 34.1425 10.0529 34.228 9.73303C34.3139 9.41229 34.2823 9.05898 34.1144 8.74638L34.0624 8.65319C33.876 8.36231 33.5901 8.16417 33.2744 8.07957C32.9572 7.99453 32.6089 8.02393 32.2995 8.18498L32.2104 8.23746C31.9095 8.42474 31.7064 8.71472 31.6209 9.0341ZM8.74671 1.88558L8.65353 1.9376C8.36264 2.12398 8.1645 2.40988 8.07991 2.72565C7.99486 3.04277 8.02426 3.3911 8.18531 3.70053L8.23779 3.78965C8.42507 4.09048 8.71505 4.2936 9.03443 4.3791C9.36919 4.46867 9.73924 4.43112 10.0613 4.24519C10.3812 4.06062 10.5979 3.75979 10.6874 3.42503C10.7734 3.10384 10.7417 2.75053 10.5739 2.43793L10.5295 2.36103C10.3418 2.06065 10.0532 1.85753 9.73336 1.77203C9.41262 1.68608 9.05931 1.71774 8.74671 1.88558ZM23.0415 12.9585C24.5502 13.2028 25.9137 13.5534 27.065 13.9854C27.9553 14.3193 28.7279 14.7079 29.3563 15.1417C28.8329 13.0562 27.7512 11.1929 26.2792 9.72081C24.8071 8.24876 22.9438 7.16712 20.8583 6.64372C21.2921 7.27207 21.6807 8.04474 22.0146 8.93503C22.4466 10.0863 22.7972 11.4498 23.0415 12.9585ZM12.9588 23.0412C11.4501 22.7969 10.0867 22.4463 8.93536 22.0143C8.04507 21.6804 7.27241 21.2918 6.64405 20.858C7.16745 22.9435 8.2491 24.8068 9.72114 26.2789C11.1932 27.7509 13.0565 28.8325 15.142 29.356C14.7082 28.7276 14.3196 27.9549 13.9857 27.0646C13.5537 25.9133 13.2031 24.5499 12.9588 23.0412Z" fill="white"/>
</g>
</svg>
