<svg width="30" height="30" viewBox="0 0 30 30" fill="none" xmlns="http://www.w3.org/2000/svg">
<rect width="30" height="30" rx="15" fill="url(#paint0_linear_869_11762)"/>
<path d="M9.375 9.375C8.34689 9.375 7.5 10.2219 7.5 11.25V18.75C7.5 19.7781 8.34689 20.625 9.375 20.625H20.625C21.6531 20.625 22.5 19.7781 22.5 18.75V11.25C22.5 10.2219 21.6531 9.375 20.625 9.375H9.375ZM9.375 10.625H20.625C20.9781 10.625 21.25 10.8969 21.25 11.25V18.75C21.25 19.1031 20.9781 19.375 20.625 19.375H9.375C9.02186 19.375 8.75 19.1031 8.75 18.75V11.25C8.75 10.8969 9.02186 10.625 9.375 10.625ZM10 11.875V15.625H17.5V11.875H10ZM18.75 11.875V13.125H20V11.875H18.75ZM18.75 14.375V15.625H20V14.375H18.75ZM10 16.875V18.125H17.5V16.875H10ZM18.75 16.875V18.125H20V16.875H18.75Z" fill="white"/>
<defs>
<linearGradient id="paint0_linear_869_11762" x1="0" y1="15" x2="46.0825" y2="14.9999" gradientUnits="userSpaceOnUse">
<stop stop-color="#003383"/>
<stop offset="1" stop-color="#00DFDF"/>
</linearGradient>
</defs>
</svg>
