<svg width="30" height="30" viewBox="0 0 30 30" fill="none" xmlns="http://www.w3.org/2000/svg">
<rect width="30" height="30" rx="15" fill="url(#paint0_linear_869_11767)"/>
<path d="M21.6673 11.6667L16.6673 6.66675H10.0007C9.55862 6.66675 9.1347 6.84234 8.82214 7.1549C8.50958 7.46746 8.33398 7.89139 8.33398 8.33341V21.6667C8.33398 22.1088 8.50958 22.5327 8.82214 22.8453C9.1347 23.1578 9.55862 23.3334 10.0007 23.3334H20.0007C20.4427 23.3334 20.8666 23.1578 21.1792 22.8453C21.4917 22.5327 21.6673 22.1088 21.6673 21.6667V11.6667ZM12.5007 20.8334H10.834V13.3334H12.5007V20.8334ZM15.834 20.8334H14.1673V15.8334H15.834V20.8334ZM19.1673 20.8334H17.5007V18.3334H19.1673V20.8334ZM16.6673 12.5001H15.834V8.33341L20.0007 12.5001H16.6673Z" fill="white"/>
<defs>
<linearGradient id="paint0_linear_869_11767" x1="0" y1="15" x2="46.0825" y2="14.9999" gradientUnits="userSpaceOnUse">
<stop stop-color="#003383"/>
<stop offset="1" stop-color="#00DFDF"/>
</linearGradient>
</defs>
</svg>
