<svg width="30" height="30" viewBox="0 0 30 30" fill="none" xmlns="http://www.w3.org/2000/svg">
<rect width="30" height="30" rx="15" fill="url(#paint0_linear_869_11757)"/>
<path d="M15 7.65625C10.9449 7.65625 7.65625 10.9435 7.65625 15C7.65625 19.0565 10.9449 22.3438 15 22.3438C19.0551 22.3438 22.3438 19.0565 22.3438 15C22.3438 10.9435 19.0551 7.65625 15 7.65625ZM15.4636 8.31719L15.7344 9.73545L16.2943 8.62471L16.377 9.86855L17.171 8.6706L17.0654 10.1026L17.9008 9.16631L17.6575 10.401L18.7315 9.44629L18.268 10.8095L19.319 10.1164L18.7591 11.2455L20.0488 10.6075L19.2364 11.7963L20.4298 11.397L19.599 12.3425L21.0127 12.0717L19.9203 13.008L21.1688 12.9346L20.136 13.6276L21.5635 13.7194L20.2783 14.3436L21.5038 14.6007L20.315 15L21.6736 15.4682L20.2646 15.7344L21.3799 16.2943L20.136 16.377L21.3294 17.171L19.8974 17.07L20.8291 17.9054L19.599 17.6575L20.5491 18.7407L19.1905 18.2726L19.879 19.3099L18.7591 18.7591L19.3971 20.0396L18.2083 19.241L18.5984 20.4298L17.6575 19.6036L17.9329 21.0081L16.9966 19.9249L17.0654 21.1733L16.3769 20.1406L16.2851 21.5635L15.6609 20.2829L15.4039 21.5038L15 20.315L14.5364 21.669L14.2748 20.26L13.7102 21.3845L13.6276 20.1406L12.8336 21.3294L12.93 19.8974L12.1038 20.8337L12.3471 19.6036L11.2639 20.5491L11.7366 19.1905L10.6855 19.8882L11.2455 18.7591L9.95576 19.3925L10.7636 18.2129L9.5748 18.6076L10.401 17.6575L8.99189 17.9375L10.0843 17.0012L8.82665 17.07L9.86855 16.377L8.43193 16.2806L9.72626 15.6563L8.50077 15.4039L9.68495 15L8.32177 14.541L9.73544 14.2656L8.62011 13.7102L9.86854 13.6276L8.6706 12.8336L10.1026 12.9346L9.1663 12.1038L10.401 12.3425L9.45087 11.2639L10.8095 11.7366L10.121 10.6901L11.2455 11.2455L10.6121 9.96035L11.7963 10.7636L11.4015 9.57939L12.3471 10.401L12.0671 8.99189L13.0034 10.0797L12.93 8.82207L13.6276 9.86855L13.7194 8.43193L14.3436 9.72627L14.5961 8.50078L15 9.68037L15.4636 8.31719ZM15 10.2036C12.3503 10.2036 10.2036 12.3494 10.2036 15C10.2036 17.6505 12.3503 19.801 15 19.801C17.6497 19.801 19.801 17.6505 19.801 15C19.801 12.3494 17.6497 10.2036 15 10.2036ZM15.3029 10.6351L15.4819 11.5622L15.8445 10.8324L15.8996 11.6494L16.4183 10.8646L16.3494 11.8009L16.8956 11.1904L16.735 11.9982L17.4418 11.374L17.1343 12.2645L17.8228 11.8101L17.4556 12.549L18.3001 12.1313L17.7723 12.907L18.548 12.6454L18.0064 13.265L18.9289 13.086L18.2175 13.6965L19.0299 13.6506L18.3552 14.105L19.2869 14.1646L18.447 14.5731L19.2502 14.7384L18.4745 15L19.3604 15.3075L18.4378 15.4819L19.1676 15.8445L18.3552 15.8996L19.1355 16.4183L18.1991 16.354L18.8096 16.8956L18.0063 16.7395L18.626 17.4464L17.7401 17.1389L18.1899 17.8182L17.4556 17.4602L17.8732 18.2955L17.0976 17.7723L17.35 18.5479L16.735 18.0109L16.9186 18.9243L16.3081 18.2175L16.3494 19.0345L15.8996 18.3598L15.8399 19.2915L15.4314 18.4516L15.2662 19.2502L15 18.4745L14.6971 19.3558L14.5272 18.4378L14.1601 19.1722L14.105 18.3598L13.5863 19.1355L13.6506 18.1991L13.109 18.8142L13.2696 18.0109L12.5582 18.626L12.8657 17.7401L12.1818 18.1945L12.549 17.4602L11.7045 17.8732L12.2323 17.0976L11.4566 17.3592L11.9982 16.7396L11.0757 16.9186L11.7871 16.3081L10.9655 16.354L11.6494 15.8996L10.7085 15.8354L11.553 15.4314L10.7544 15.2616L11.5301 15L10.6351 14.7017L11.5622 14.5227L10.8324 14.1601L11.6494 14.105L10.8645 13.5863L11.8009 13.6506L11.1904 13.109L11.9982 13.265L11.374 12.5582L12.2644 12.8657L11.8146 12.1864L12.549 12.549L12.1359 11.7091L12.907 12.2323L12.65 11.4566L13.2696 11.9982L13.086 11.0757L13.6965 11.7871L13.6506 10.9655L14.105 11.6494L14.1646 10.7085L14.5731 11.553L14.7384 10.7544L15 11.5255L15.3029 10.6351ZM15 12.2323C13.4722 12.2323 12.2369 13.4717 12.2369 15C12.2369 16.5283 13.4722 17.7677 15 17.7677C16.5278 17.7677 17.7677 16.5283 17.7677 15C17.7677 13.4717 16.5278 12.2323 15 12.2323ZM15.1744 12.4848L15.28 13.0172L15.4865 12.5995L15.5187 13.0677L15.817 12.6179L15.7803 13.1549L16.0924 12.8015L16.0006 13.2696L16.4091 12.907L16.2347 13.4211L16.6294 13.1595L16.4183 13.5863L16.9048 13.3477L16.5973 13.7929L17.0471 13.6414L16.735 13.9994L17.2674 13.8984L16.8543 14.2473L17.3271 14.2197L16.9369 14.4859L17.4739 14.5181L16.9874 14.7522L17.451 14.8485L17.0058 15L17.5152 15.1744L16.9828 15.28L17.4051 15.4865L16.9369 15.5187L17.3867 15.8216L16.8451 15.7803L17.1985 16.0924L16.735 16.0006L17.093 16.4091L16.5789 16.2347L16.8405 16.6248L16.4183 16.4183L16.6569 16.9002L16.2117 16.5973L16.354 17.0471L16.0006 16.735L16.1062 17.2628L15.7527 16.8543L15.7803 17.3271L15.5187 16.9369L15.4865 17.4739L15.2524 16.992L15.1561 17.451L15 17.0012L14.8256 17.5152L14.7292 16.9828L14.5135 17.4051L14.4859 16.9369L14.183 17.3867L14.2197 16.8451L13.9076 17.1985L14.004 16.735L13.5955 17.093L13.7699 16.5789L13.3752 16.8405L13.5863 16.4183L13.0998 16.6569L13.4073 16.2117L12.9575 16.3586L13.2696 16.0006L12.7372 16.1062L13.1503 15.7527L12.6729 15.7803L13.0677 15.5187L12.5261 15.4819L13.0126 15.2479L12.5536 15.1515L12.9988 15L12.4848 14.8256L13.0172 14.7246L12.5949 14.5135L13.0677 14.4859L12.6179 14.183L13.1549 14.2197L12.8015 13.9076L13.2696 13.9994L12.9116 13.5955L13.4211 13.7699L13.1641 13.3798L13.5863 13.5863L13.3477 13.1044L13.7929 13.4073L13.646 12.9575L14.004 13.2696L13.8984 12.7372L14.2473 13.1457L14.2197 12.673L14.4859 13.0677L14.5181 12.5261L14.7522 13.0126L14.8485 12.5536L15 12.9988L15.1744 12.4848ZM15 13.6644C14.2613 13.6644 13.6644 14.261 13.6644 15C13.6644 15.739 14.2613 16.3402 15 16.3402C15.7387 16.3402 16.3402 15.739 16.3402 15C16.3402 14.261 15.7387 13.6644 15 13.6644ZM15.0872 13.7837L15.1331 14.0407L15.2387 13.8388L15.2524 14.0683L15.3947 13.8479L15.3764 14.1096L15.5278 13.9397L15.4865 14.1646L15.6839 13.9902L15.5967 14.2381L15.7894 14.1096L15.6839 14.3161L15.9226 14.2014L15.7757 14.4171L15.9914 14.3436L15.8399 14.5181L16.097 14.4676L15.8996 14.6374L16.1245 14.6236L15.9363 14.7522L16.1979 14.7659L15.9639 14.8807L16.1842 14.9266L15.9685 15L16.2163 15.0872L15.9593 15.1331L16.1658 15.2387L15.9363 15.2524L16.1566 15.3947L15.895 15.3764L16.0648 15.5278L15.8399 15.4865L16.0098 15.6839L15.7665 15.5967L15.8904 15.7849L15.6839 15.6839L15.8032 15.918L15.5875 15.7757L15.6563 15.9914L15.4865 15.8399L15.537 16.097L15.3672 15.8996L15.3764 16.1245L15.2524 15.9363L15.2341 16.1979L15.1239 15.9639L15.0735 16.1842L15 15.9684L14.9174 16.2163L14.8715 15.9593L14.7659 16.1658L14.7522 15.9363L14.6053 16.152L14.6237 15.895L14.4722 16.0648L14.5181 15.8399L14.3207 16.0143L14.4079 15.7665L14.2152 15.8904L14.3161 15.6839L14.0821 15.8032L14.2289 15.5875L14.0132 15.6563L14.1647 15.4865L13.9076 15.537L14.105 15.3672L13.8755 15.3764L14.0683 15.2524L13.8067 15.2341L14.0407 15.1193L13.8158 15.0734L14.0316 15L13.7837 14.9174L14.0407 14.8669L13.8388 14.7659L14.0683 14.7522L13.848 14.6053L14.1096 14.6236L13.9398 14.4722L14.1647 14.5181L13.9903 14.3207L14.2381 14.4079L14.1142 14.2151L14.3161 14.3161L14.2014 14.082L14.4171 14.2289L14.3483 14.0132L14.5181 14.1647L14.4676 13.9076L14.6374 14.105L14.6237 13.8755L14.7522 14.0683L14.7705 13.8067L14.8807 14.0407L14.9266 13.8158L15 14.0316L15.0872 13.7837Z" fill="white"/>
<defs>
<linearGradient id="paint0_linear_869_11757" x1="0" y1="15" x2="46.0825" y2="14.9999" gradientUnits="userSpaceOnUse">
<stop stop-color="#003383"/>
<stop offset="1" stop-color="#00DFDF"/>
</linearGradient>
</defs>
</svg>
