<svg width="36" height="36" viewBox="0 0 36 36" fill="none" xmlns="http://www.w3.org/2000/svg">
<g id="globe-02">
<path id="Icon" d="M18 3C21.7519 7.10753 23.8841 12.4381 24 18C23.8841 23.5619 21.7519 28.8925 18 33M18 3C14.2481 7.10753 12.1159 12.4381 12 18C12.1159 23.5619 14.2481 28.8925 18 33M18 3C9.71573 3 3 9.71573 3 18C3 26.2843 9.71573 33 18 33M18 3C26.2843 3 33 9.71573 33 18C33 26.2843 26.2843 33 18 33M3.75003 13.5H32.25M3.75 22.5H32.25" stroke="black" stroke-width="2" stroke-linecap="round" stroke-linejoin="round"/>
</g>
</svg>
