<svg width="36" height="36" viewBox="0 0 36 36" fill="none" xmlns="http://www.w3.org/2000/svg">
<g id="line-chart-up-02">
<path id="Icon" d="M31.5 31.5H6.9C6.05992 31.5 5.63988 31.5 5.31901 31.3365C5.03677 31.1927 4.8073 30.9632 4.66349 30.681C4.5 30.3601 4.5 29.9401 4.5 29.1V4.5M31.5 10.5L23.3485 18.6515C23.0515 18.9485 22.903 19.097 22.7318 19.1526C22.5811 19.2016 22.4189 19.2016 22.2682 19.1526C22.097 19.097 21.9485 18.9485 21.6515 18.6515L18.8485 15.8485C18.5515 15.5515 18.403 15.403 18.2318 15.3474C18.0811 15.2984 17.9189 15.2984 17.7682 15.3474C17.597 15.403 17.4485 15.5515 17.1515 15.8485L10.5 22.5M31.5 10.5H25.5M31.5 10.5V16.5" stroke="black" stroke-width="2" stroke-linecap="round" stroke-linejoin="round"/>
</g>
</svg>
