<svg width="36" height="36" viewBox="0 0 36 36" fill="none" xmlns="http://www.w3.org/2000/svg">
<g id="lock-02">
<path id="Icon" d="M25.5 16.5V12C25.5 7.85786 22.1421 4.5 18 4.5C13.8579 4.5 10.5 7.85786 10.5 12V16.5M11.7 31.5H24.3C26.8202 31.5 28.0804 31.5 29.043 31.0095C29.8897 30.5781 30.5781 29.8897 31.0095 29.043C31.5 28.0804 31.5 26.8202 31.5 24.3V23.7C31.5 21.1798 31.5 19.9196 31.0095 18.957C30.5781 18.1103 29.8897 17.4219 29.043 16.9905C28.0804 16.5 26.8202 16.5 24.3 16.5H11.7C9.17976 16.5 7.91965 16.5 6.95704 16.9905C6.11031 17.4219 5.4219 18.1103 4.99047 18.957C4.5 19.9196 4.5 21.1798 4.5 23.7V24.3C4.5 26.8202 4.5 28.0804 4.99047 29.043C5.4219 29.8897 6.11031 30.5781 6.95704 31.0095C7.91965 31.5 9.17976 31.5 11.7 31.5Z" stroke="black" stroke-width="2" stroke-linecap="round" stroke-linejoin="round"/>
</g>
</svg>
