<svg width="60" height="60" viewBox="0 0 60 60" fill="none" xmlns="http://www.w3.org/2000/svg">
<path d="M10.6504 27.5495V39.9745C10.6504 44.5245 10.6504 44.5245 14.9504 47.4245L26.7754 54.2495C28.5504 55.2745 31.4504 55.2745 33.2254 54.2495L45.0504 47.4245C49.3504 44.5245 49.3504 44.5245 49.3504 39.9745V27.5495C49.3504 22.9996 49.3504 22.9996 45.0504 20.0996L33.2254 13.2746C31.4504 12.2496 28.5504 12.2496 26.7754 13.2746L14.9504 20.0996C10.6504 22.9996 10.6504 22.9996 10.6504 27.5495Z" stroke="white" stroke-width="3.75" stroke-linecap="round" stroke-linejoin="round"/>
<path d="M43.75 19.075V12.5C43.75 7.5 41.25 5 36.25 5H23.75C18.75 5 16.25 7.5 16.25 12.5V18.9" stroke="white" stroke-width="3.75" stroke-linecap="round" stroke-linejoin="round"/>
<path d="M31.5754 27.4754L33.0004 29.7004C33.2254 30.0504 33.7254 30.4004 34.1004 30.5004L36.6504 31.1504C38.2254 31.5504 38.6504 32.9004 37.6254 34.1504L35.9504 36.1754C35.7004 36.5004 35.5004 37.0754 35.5254 37.4754L35.6754 40.1004C35.7754 41.7254 34.6254 42.5504 33.1254 41.9504L30.6754 40.9754C30.3004 40.8254 29.6754 40.8254 29.3004 40.9754L26.8504 41.9504C25.3504 42.5504 24.2004 41.7004 24.3004 40.1004L24.4504 37.4754C24.4754 37.0754 24.2754 36.4754 24.0254 36.1754L22.3504 34.1504C21.3254 32.9004 21.7504 31.5504 23.3254 31.1504L25.8754 30.5004C26.2754 30.4004 26.7754 30.0254 26.9754 29.7004L28.4004 27.4754C29.3004 26.1254 30.7004 26.1254 31.5754 27.4754Z" stroke="white" stroke-width="3.75" stroke-linecap="round" stroke-linejoin="round"/>
</svg>
