<svg width="28" height="23" viewBox="0 0 28 23" fill="none" xmlns="http://www.w3.org/2000/svg">
<path d="M19 17.5L22.75 21.25M22.75 21.25L26.5 17.5M22.75 21.25V13.75M26.5 7.5H1.5M26.5 10V5.25C26.5 3.84987 26.5 3.14981 26.2275 2.61503C25.9878 2.14462 25.6054 1.76217 25.135 1.52249C24.6002 1.25 23.9001 1.25 22.5 1.25H5.5C4.09987 1.25 3.3998 1.25 2.86502 1.52248C2.39462 1.76217 2.01217 2.14462 1.77248 2.61502C1.5 3.1498 1.5 3.84987 1.5 5.25V14.75C1.5 16.1501 1.5 16.8502 1.77248 17.385C2.01217 17.8554 2.39462 18.2378 2.86502 18.4775C3.3998 18.75 4.09987 18.75 5.5 18.75H14" stroke="white" stroke-width="2" stroke-linecap="round" stroke-linejoin="round"/>
</svg>
