<svg width="726" height="630" viewBox="0 0 726 630" fill="none" xmlns="http://www.w3.org/2000/svg">
<path d="M520.782 550.565C417.352 641.692 226.24 591.678 143.612 555.28C-129.122 440.393 244.017 131.132 444.232 252.413C644.447 373.694 568.78 -57.0855 688.636 22.0908C808.492 101.267 861.097 350.839 813.336 455.307C765.575 559.774 650.07 436.657 520.782 550.565Z" stroke="url(#paint0_linear_3_6198)" stroke-width="1.37953"/>
<path d="M362.021 347.717C307.495 395.68 206.769 369.375 163.221 350.227C19.4806 289.788 216.187 127.015 321.704 190.823C427.221 254.631 387.384 27.9427 450.549 69.5996C513.715 111.256 541.416 242.587 516.231 297.566C491.045 352.545 430.178 287.764 362.021 347.717Z" stroke="url(#paint1_linear_3_6198)" stroke-width="1.37953"/>
<path d="M513.065 540.887C412.068 629.974 225.42 581.055 144.721 545.459C-121.648 433.103 242.715 130.767 438.263 249.367C633.811 367.967 559.853 -53.2264 676.916 24.1987C793.978 101.624 845.388 345.643 798.759 447.779C752.13 549.916 639.311 429.529 513.065 540.887Z" stroke="url(#paint2_linear_3_6198)" stroke-width="1.37953"/>
<path d="M505.429 531.232C406.705 618.228 224.284 570.477 145.414 535.727C-114.918 426.041 241.242 130.799 432.354 246.588C623.466 362.377 551.231 -48.8844 665.637 26.706C780.043 102.296 830.261 340.56 784.674 440.294C739.088 540.027 628.834 422.487 505.429 531.232Z" stroke="url(#paint3_linear_3_6198)" stroke-width="1.37953"/>
<path d="M498.017 521.526C401.65 606.489 223.571 559.844 146.578 525.901C-107.559 418.761 240.098 130.42 426.665 243.517C613.231 356.614 542.691 -45.0601 654.377 28.7727C766.063 102.606 815.099 335.316 770.605 432.721C726.11 530.127 618.475 415.323 498.017 521.526Z" stroke="url(#paint4_linear_3_6198)" stroke-width="1.37953"/>
<path d="M490.382 511.871C396.289 594.743 222.437 549.266 147.272 516.169C-100.828 411.7 238.626 130.453 420.757 240.738C602.887 351.024 534.07 -40.7181 643.099 31.2801C752.128 103.278 799.973 330.233 756.521 425.236C713.069 520.238 607.999 408.281 490.382 511.871Z" stroke="url(#paint5_linear_3_6198)" stroke-width="1.37953"/>
<path d="M482.966 502.165C391.23 583.004 221.72 538.633 148.432 506.342C-93.4736 404.419 237.478 130.073 415.063 237.667C592.649 345.261 525.526 -36.8939 631.835 33.3467C738.144 103.587 784.808 324.988 742.448 417.663C700.087 510.338 597.637 401.116 482.966 502.165Z" stroke="url(#paint6_linear_3_6198)" stroke-width="1.37953"/>
<path d="M475.334 492.51C385.871 571.258 220.587 528.055 149.129 496.611C-86.7403 397.358 236.008 130.106 409.157 234.888C582.306 339.671 516.907 -32.5518 620.559 35.8543C724.212 104.26 769.684 319.906 728.366 410.178C687.048 500.45 587.163 394.075 475.334 492.51Z" stroke="url(#paint7_linear_3_6198)" stroke-width="1.37953"/>
<path d="M467.92 482.804C380.814 559.519 219.873 517.422 150.291 486.784C-79.3838 390.078 234.862 129.726 403.466 231.817C572.07 333.908 508.365 -28.7272 609.297 37.9212C710.229 104.57 754.52 314.662 714.294 402.606C674.068 490.55 576.802 386.911 467.92 482.804Z" stroke="url(#paint8_linear_3_6198)" stroke-width="1.37953"/>
<path d="M460.028 473.559C375.287 548.305 218.682 507.261 150.972 477.395C-72.5223 383.126 233.194 129.458 397.267 228.966C561.339 328.475 499.286 -24.9172 597.506 40.0441C695.727 105.005 738.861 309.743 699.737 395.438C660.614 481.134 565.954 380.126 460.028 473.559Z" stroke="url(#paint9_linear_3_6198)" stroke-width="1.37953"/>
<path d="M452.618 463.884C370.227 536.532 217.971 496.646 152.141 467.622C-65.1445 376.008 232.096 129.458 391.61 226.165C551.124 322.873 490.808 -20.5878 586.299 42.5454C681.79 105.679 723.719 304.663 685.677 387.951C647.636 471.239 555.608 373.073 452.618 463.884Z" stroke="url(#paint10_linear_3_6198)" stroke-width="1.37953"/>
<path d="M444.98 454.199C364.87 524.821 216.833 486.051 152.829 457.838C-58.4334 368.785 230.577 129.112 385.668 223.117C540.759 317.122 482.124 -16.7498 574.967 44.6193C667.811 105.988 708.572 299.417 671.583 380.382C634.594 461.346 545.118 365.921 444.98 454.199Z" stroke="url(#paint11_linear_3_6198)" stroke-width="1.37953"/>
<path d="M437.57 444.523C359.808 513.047 216.121 475.435 153.998 448.064C-51.0567 361.666 229.478 129.111 380.011 220.315C530.543 311.52 473.646 -12.4213 563.76 47.1196C653.874 106.661 693.429 294.336 657.522 372.893C621.615 451.451 534.772 358.867 437.57 444.523Z" stroke="url(#paint12_linear_3_6198)" stroke-width="1.37953"/>
<path d="M429.931 434.838C354.451 501.336 214.984 464.84 154.686 438.28C-44.3456 354.444 227.959 128.765 374.069 217.267C520.179 305.769 464.961 -8.58337 552.428 49.1935C639.894 106.97 678.283 289.09 643.427 365.324C608.572 441.557 524.282 351.715 429.931 434.838Z" stroke="url(#paint13_linear_3_6198)" stroke-width="1.37953"/>
<path d="M422.518 425.132C349.395 489.597 214.27 454.207 155.848 428.453C-36.9892 347.163 226.813 128.386 368.378 214.196C509.942 300.007 456.42 -4.75895 541.166 51.2603C625.912 107.28 663.119 283.846 629.356 357.751C595.593 431.657 513.921 344.551 422.518 425.132Z" stroke="url(#paint14_linear_3_6198)" stroke-width="1.37953"/>
<path d="M414.883 415.476C344.033 477.85 213.135 443.628 156.542 418.72C-30.2579 340.101 225.341 128.418 362.47 211.416C499.598 294.415 447.798 -0.417942 529.888 53.7667C611.977 107.951 647.993 278.762 615.272 350.265C582.551 421.767 503.445 337.508 414.883 415.476Z" stroke="url(#paint15_linear_3_6198)" stroke-width="1.37953"/>
<path d="M407.469 405.772C338.977 466.113 212.421 432.996 157.705 408.895C-22.9008 332.822 224.196 128.04 356.779 208.347C489.362 288.654 439.257 3.40807 518.626 55.8351C597.995 108.262 632.83 273.519 601.201 342.694C569.573 411.869 493.085 330.346 407.469 405.772Z" stroke="url(#paint16_linear_3_6198)" stroke-width="1.37953"/>
<path d="M399.531 396.143C333.387 454.386 211.181 422.428 158.345 399.168C-16.0526 325.75 222.569 128.086 350.593 205.592C478.618 283.098 430.25 7.78338 506.89 58.3823C583.53 108.981 617.158 268.484 586.612 335.252C556.066 402.021 482.21 323.338 399.531 396.143Z" stroke="url(#paint17_linear_3_6198)" stroke-width="1.37953"/>
<path d="M392.118 386.438C328.332 442.649 210.467 411.795 159.508 389.342C-8.69505 318.471 221.423 127.707 344.903 202.522C468.382 277.337 421.71 11.6088 495.629 60.4501C569.548 109.291 601.995 263.241 572.541 327.681C543.088 392.121 471.851 316.175 392.118 386.438Z" stroke="url(#paint18_linear_3_6198)" stroke-width="1.37953"/>
<path d="M384.482 376.783C322.969 430.902 209.331 401.218 160.202 379.611C-1.96465 311.409 219.951 127.74 338.994 199.743C458.037 271.746 413.088 15.9508 484.35 62.9575C555.613 109.964 586.868 258.158 558.456 320.196C530.045 382.233 461.374 309.134 384.482 376.783Z" stroke="url(#paint19_linear_3_6198)" stroke-width="1.37953"/>
<path d="M377.068 367.076C317.911 419.163 208.616 390.584 161.363 369.783C5.39078 304.128 218.803 127.359 333.302 196.671C447.8 265.982 404.545 19.7743 473.087 65.0234C541.63 110.272 571.704 252.913 544.384 312.622C517.064 372.332 451.013 301.968 377.068 367.076Z" stroke="url(#paint20_linear_3_6198)" stroke-width="1.37953"/>
<path d="M369.431 357.392C312.556 407.451 207.481 379.988 162.053 359.999C12.1039 296.906 217.286 127.014 327.362 193.623C437.437 260.232 395.863 23.6123 461.757 67.0974C527.652 110.582 556.559 247.667 530.291 305.053C504.024 362.438 440.525 294.817 369.431 357.392Z" stroke="url(#paint21_linear_3_6198)" stroke-width="1.37953"/>
<defs>
<linearGradient id="paint0_linear_3_6198" x1="395.136" y1="35.7171" x2="444.538" y2="596.073" gradientUnits="userSpaceOnUse">
<stop offset="0.075" stop-color="#003383" stop-opacity="0.1"/>
<stop offset="0.38" stop-color="#003383" stop-opacity="0.6"/>
<stop offset="0.845" stop-color="#232DBD" stop-opacity="0.06"/>
</linearGradient>
<linearGradient id="paint1_linear_3_6198" x1="295.85" y1="76.7923" x2="321.847" y2="371.669" gradientUnits="userSpaceOnUse">
<stop offset="0.075" stop-color="#003383" stop-opacity="0.1"/>
<stop offset="0.38" stop-color="#003383" stop-opacity="0.6"/>
<stop offset="0.845" stop-color="#232DBD" stop-opacity="0.06"/>
</linearGradient>
<linearGradient id="paint2_linear_3_6198" x1="390.285" y1="37.492" x2="438.588" y2="585.376" gradientUnits="userSpaceOnUse">
<stop offset="0.075" stop-color="#003383" stop-opacity="0.1"/>
<stop offset="0.38" stop-color="#003383" stop-opacity="0.6"/>
<stop offset="0.845" stop-color="#232DBD" stop-opacity="0.06"/>
</linearGradient>
<linearGradient id="paint3_linear_3_6198" x1="385.486" y1="39.7104" x2="432.65" y2="574.677" gradientUnits="userSpaceOnUse">
<stop offset="0.075" stop-color="#003383" stop-opacity="0.1"/>
<stop offset="0.38" stop-color="#003383" stop-opacity="0.6"/>
<stop offset="0.845" stop-color="#232DBD" stop-opacity="0.06"/>
</linearGradient>
<linearGradient id="paint4_linear_3_6198" x1="380.9" y1="41.4614" x2="426.965" y2="563.955" gradientUnits="userSpaceOnUse">
<stop offset="0.075" stop-color="#003383" stop-opacity="0.1"/>
<stop offset="0.38" stop-color="#003383" stop-opacity="0.6"/>
<stop offset="0.845" stop-color="#232DBD" stop-opacity="0.06"/>
</linearGradient>
<linearGradient id="paint5_linear_3_6198" x1="376.102" y1="43.6798" x2="421.028" y2="553.256" gradientUnits="userSpaceOnUse">
<stop offset="0.075" stop-color="#003383" stop-opacity="0.1"/>
<stop offset="0.38" stop-color="#003383" stop-opacity="0.6"/>
<stop offset="0.845" stop-color="#232DBD" stop-opacity="0.06"/>
</linearGradient>
<linearGradient id="paint6_linear_3_6198" x1="371.513" y1="45.4307" x2="415.339" y2="542.535" gradientUnits="userSpaceOnUse">
<stop offset="0.075" stop-color="#003383" stop-opacity="0.1"/>
<stop offset="0.38" stop-color="#003383" stop-opacity="0.6"/>
<stop offset="0.845" stop-color="#232DBD" stop-opacity="0.06"/>
</linearGradient>
<linearGradient id="paint7_linear_3_6198" x1="366.717" y1="47.6493" x2="409.404" y2="531.836" gradientUnits="userSpaceOnUse">
<stop offset="0.075" stop-color="#003383" stop-opacity="0.1"/>
<stop offset="0.38" stop-color="#003383" stop-opacity="0.6"/>
<stop offset="0.845" stop-color="#232DBD" stop-opacity="0.06"/>
</linearGradient>
<linearGradient id="paint8_linear_3_6198" x1="362.129" y1="49.4004" x2="403.717" y2="521.115" gradientUnits="userSpaceOnUse">
<stop offset="0.075" stop-color="#003383" stop-opacity="0.1"/>
<stop offset="0.38" stop-color="#003383" stop-opacity="0.6"/>
<stop offset="0.845" stop-color="#232DBD" stop-opacity="0.06"/>
</linearGradient>
<linearGradient id="paint9_linear_3_6198" x1="357.011" y1="51.198" x2="397.539" y2="510.886" gradientUnits="userSpaceOnUse">
<stop offset="0.075" stop-color="#003383" stop-opacity="0.1"/>
<stop offset="0.38" stop-color="#003383" stop-opacity="0.6"/>
<stop offset="0.845" stop-color="#232DBD" stop-opacity="0.06"/>
</linearGradient>
<linearGradient id="paint10_linear_3_6198" x1="352.48" y1="53.3931" x2="391.868" y2="500.163" gradientUnits="userSpaceOnUse">
<stop offset="0.075" stop-color="#003383" stop-opacity="0.1"/>
<stop offset="0.38" stop-color="#003383" stop-opacity="0.6"/>
<stop offset="0.845" stop-color="#232DBD" stop-opacity="0.06"/>
</linearGradient>
<linearGradient id="paint11_linear_3_6198" x1="347.627" y1="55.1685" x2="385.916" y2="489.467" gradientUnits="userSpaceOnUse">
<stop offset="0.075" stop-color="#003383" stop-opacity="0.1"/>
<stop offset="0.38" stop-color="#003383" stop-opacity="0.6"/>
<stop offset="0.845" stop-color="#232DBD" stop-opacity="0.06"/>
</linearGradient>
<linearGradient id="paint12_linear_3_6198" x1="343.094" y1="57.3626" x2="380.244" y2="478.743" gradientUnits="userSpaceOnUse">
<stop offset="0.075" stop-color="#003383" stop-opacity="0.1"/>
<stop offset="0.38" stop-color="#003383" stop-opacity="0.6"/>
<stop offset="0.845" stop-color="#232DBD" stop-opacity="0.06"/>
</linearGradient>
<linearGradient id="paint13_linear_3_6198" x1="338.241" y1="59.138" x2="374.292" y2="468.046" gradientUnits="userSpaceOnUse">
<stop offset="0.075" stop-color="#003383" stop-opacity="0.1"/>
<stop offset="0.38" stop-color="#003383" stop-opacity="0.6"/>
<stop offset="0.845" stop-color="#232DBD" stop-opacity="0.06"/>
</linearGradient>
<linearGradient id="paint14_linear_3_6198" x1="333.653" y1="60.8891" x2="368.604" y2="457.325" gradientUnits="userSpaceOnUse">
<stop offset="0.075" stop-color="#003383" stop-opacity="0.1"/>
<stop offset="0.38" stop-color="#003383" stop-opacity="0.6"/>
<stop offset="0.845" stop-color="#232DBD" stop-opacity="0.06"/>
</linearGradient>
<linearGradient id="paint15_linear_3_6198" x1="328.856" y1="63.1065" x2="362.668" y2="446.625" gradientUnits="userSpaceOnUse">
<stop offset="0.075" stop-color="#003383" stop-opacity="0.1"/>
<stop offset="0.38" stop-color="#003383" stop-opacity="0.6"/>
<stop offset="0.845" stop-color="#232DBD" stop-opacity="0.06"/>
</linearGradient>
<linearGradient id="paint16_linear_3_6198" x1="324.268" y1="64.8592" x2="356.981" y2="435.906" gradientUnits="userSpaceOnUse">
<stop offset="0.075" stop-color="#003383" stop-opacity="0.1"/>
<stop offset="0.38" stop-color="#003383" stop-opacity="0.6"/>
<stop offset="0.845" stop-color="#232DBD" stop-opacity="0.06"/>
</linearGradient>
<linearGradient id="paint17_linear_3_6198" x1="319.207" y1="67.1001" x2="350.781" y2="425.229" gradientUnits="userSpaceOnUse">
<stop offset="0.075" stop-color="#003383" stop-opacity="0.1"/>
<stop offset="0.38" stop-color="#003383" stop-opacity="0.6"/>
<stop offset="0.845" stop-color="#232DBD" stop-opacity="0.06"/>
</linearGradient>
<linearGradient id="paint18_linear_3_6198" x1="314.62" y1="68.8522" x2="345.095" y2="414.509" gradientUnits="userSpaceOnUse">
<stop offset="0.075" stop-color="#003383" stop-opacity="0.1"/>
<stop offset="0.38" stop-color="#003383" stop-opacity="0.6"/>
<stop offset="0.845" stop-color="#232DBD" stop-opacity="0.06"/>
</linearGradient>
<linearGradient id="paint19_linear_3_6198" x1="309.822" y1="71.0707" x2="339.157" y2="403.81" gradientUnits="userSpaceOnUse">
<stop offset="0.075" stop-color="#003383" stop-opacity="0.1"/>
<stop offset="0.38" stop-color="#003383" stop-opacity="0.6"/>
<stop offset="0.845" stop-color="#232DBD" stop-opacity="0.06"/>
</linearGradient>
<linearGradient id="paint20_linear_3_6198" x1="305.233" y1="72.8208" x2="333.469" y2="393.088" gradientUnits="userSpaceOnUse">
<stop offset="0.075" stop-color="#003383" stop-opacity="0.1"/>
<stop offset="0.38" stop-color="#003383" stop-opacity="0.6"/>
<stop offset="0.845" stop-color="#232DBD" stop-opacity="0.06"/>
</linearGradient>
<linearGradient id="paint21_linear_3_6198" x1="300.382" y1="74.5962" x2="327.518" y2="382.391" gradientUnits="userSpaceOnUse">
<stop offset="0.075" stop-color="#003383" stop-opacity="0.1"/>
<stop offset="0.38" stop-color="#003383" stop-opacity="0.6"/>
<stop offset="0.845" stop-color="#232DBD" stop-opacity="0.06"/>
</linearGradient>
</defs>
</svg>
