<svg width="30" height="30" viewBox="0 0 30 30" fill="none" xmlns="http://www.w3.org/2000/svg">
<rect width="30" height="30" rx="15" fill="url(#paint0_linear_869_11604)"/>
<path d="M20.9963 11.6C20.9852 11.488 20.9459 11.3806 20.882 11.2879C20.8181 11.1952 20.7317 11.1202 20.631 11.07L15.2976 8.40336C15.205 8.35702 15.1029 8.33289 14.9993 8.33289C14.8957 8.33289 14.7936 8.35702 14.701 8.40336L9.36764 11.07C9.26715 11.1205 9.18104 11.1956 9.1173 11.2882C9.05355 11.3809 9.01423 11.4881 9.00297 11.6C8.99564 11.6714 8.3623 18.778 14.729 21.6094C14.814 21.6478 14.9063 21.6676 14.9996 21.6676C15.093 21.6676 15.1852 21.6478 15.2703 21.6094C21.637 18.778 21.0036 11.672 20.9963 11.6ZM14.9996 20.2647V15H10.673C10.4141 14.0523 10.292 13.0724 10.3103 12.09L14.9996 9.74536V15H19.3063C18.8003 16.8267 17.641 18.986 14.9996 20.2647Z" fill="white"/>
<defs>
<linearGradient id="paint0_linear_869_11604" x1="0" y1="15" x2="46.0825" y2="14.9999" gradientUnits="userSpaceOnUse">
<stop stop-color="#003383"/>
<stop offset="1" stop-color="#00DFDF"/>
</linearGradient>
</defs>
</svg>
