<svg width="30" height="30" viewBox="0 0 30 30" fill="none" xmlns="http://www.w3.org/2000/svg">
<rect width="30" height="30" rx="15" fill="url(#paint0_linear_869_11599)"/>
<path fill-rule="evenodd" clip-rule="evenodd" d="M11.7992 8.59998C11.3749 8.59998 10.9679 8.76855 10.6678 9.0686C10.3678 9.36866 10.1992 9.77563 10.1992 10.2V19.8C10.1992 20.2243 10.3678 20.6313 10.6678 20.9313C10.9679 21.2314 11.3749 21.4 11.7992 21.4H18.1992C18.6236 21.4 19.0305 21.2314 19.3306 20.9313C19.6306 20.6313 19.7992 20.2243 19.7992 19.8V12.9312C19.7991 12.5069 19.6305 12.1 19.3304 11.8L16.5992 9.06878C16.2992 8.7687 15.8923 8.60007 15.468 8.59998H11.7992ZM13.3992 16.6C13.3992 16.3878 13.3149 16.1843 13.1649 16.0343C13.0149 15.8843 12.8114 15.8 12.5992 15.8C12.387 15.8 12.1836 15.8843 12.0335 16.0343C11.8835 16.1843 11.7992 16.3878 11.7992 16.6V19C11.7992 19.2121 11.8835 19.4156 12.0335 19.5657C12.1836 19.7157 12.387 19.8 12.5992 19.8C12.8114 19.8 13.0149 19.7157 13.1649 19.5657C13.3149 19.4156 13.3992 19.2121 13.3992 19V16.6ZM14.9992 14.2C15.2114 14.2 15.4149 14.2843 15.5649 14.4343C15.7149 14.5843 15.7992 14.7878 15.7992 15V19C15.7992 19.2121 15.7149 19.4156 15.5649 19.5657C15.4149 19.7157 15.2114 19.8 14.9992 19.8C14.787 19.8 14.5836 19.7157 14.4335 19.5657C14.2835 19.4156 14.1992 19.2121 14.1992 19V15C14.1992 14.7878 14.2835 14.5843 14.4335 14.4343C14.5836 14.2843 14.787 14.2 14.9992 14.2ZM18.1992 13.4C18.1992 13.1878 18.1149 12.9843 17.9649 12.8343C17.8149 12.6843 17.6114 12.6 17.3992 12.6C17.187 12.6 16.9836 12.6843 16.8335 12.8343C16.6835 12.9843 16.5992 13.1878 16.5992 13.4V19C16.5992 19.2121 16.6835 19.4156 16.8335 19.5657C16.9836 19.7157 17.187 19.8 17.3992 19.8C17.6114 19.8 17.8149 19.7157 17.9649 19.5657C18.1149 19.4156 18.1992 19.2121 18.1992 19V13.4Z" fill="white"/>
<defs>
<linearGradient id="paint0_linear_869_11599" x1="0" y1="15" x2="46.0825" y2="14.9999" gradientUnits="userSpaceOnUse">
<stop stop-color="#003383"/>
<stop offset="1" stop-color="#00DFDF"/>
</linearGradient>
</defs>
</svg>
