<svg width="30" height="30" viewBox="0 0 30 30" fill="none" xmlns="http://www.w3.org/2000/svg">
<rect width="30" height="30" rx="15" fill="url(#paint0_linear_869_11594)"/>
<g clip-path="url(#clip0_869_11594)">
<path d="M7 12C6.99986 13.1573 7.4012 14.2789 8.13555 15.1733C8.86991 16.0678 9.89182 16.6798 11.027 16.905C11.0924 16.1887 11.2762 15.4882 11.571 14.832C10.695 14.536 10.132 13.864 10 12.91H9.5V12.484H9.966V12.05C9.96533 12.0034 9.96667 11.9584 9.97 11.915H9.5V11.488H10.011C10.236 10.24 11.213 9.50004 12.681 9.50004C12.997 9.50004 13.271 9.53104 13.5 9.58504V10.318C13.2325 10.2589 12.9589 10.2314 12.685 10.236C11.766 10.236 11.147 10.702 10.951 11.488H12.868V11.915H10.888C10.8853 11.9617 10.8843 12.0107 10.885 12.062V12.484H12.868V12.911H10.93C11.048 13.513 11.398 13.941 11.935 14.14C12.4615 13.268 13.1857 12.5319 14.049 11.9912C14.9123 11.4504 15.8906 11.1202 16.905 11.027C16.6597 9.81255 15.9725 8.73231 14.9763 7.99556C13.9802 7.2588 12.746 6.91798 11.513 7.03911C10.2799 7.16024 9.13566 7.73469 8.30191 8.6512C7.46816 9.56772 7.00424 10.761 7 12ZM23 17.5C23 18.9587 22.4205 20.3577 21.3891 21.3891C20.3576 22.4206 18.9587 23 17.5 23C16.0413 23 14.6424 22.4206 13.6109 21.3891C12.5795 20.3577 12 18.9587 12 17.5C12 16.0414 12.5795 14.6424 13.6109 13.611C14.6424 12.5795 16.0413 12 17.5 12C18.9587 12 20.3576 12.5795 21.3891 13.611C22.4205 14.6424 23 16.0414 23 17.5ZM15.25 18.822C15.319 19.657 15.996 20.307 17.214 20.384V21H17.754V20.38C19.013 20.294 19.75 19.64 19.75 18.69C19.75 17.825 19.187 17.38 18.18 17.15L17.754 17.05V15.374C18.294 15.434 18.638 15.721 18.72 16.119H19.668C19.598 15.315 18.889 14.686 17.754 14.617V14H17.214V14.629C16.138 14.732 15.406 15.361 15.406 16.251C15.406 17.038 15.95 17.539 16.856 17.744L17.214 17.829V19.609C16.66 19.529 16.294 19.233 16.211 18.822H15.25ZM17.21 16.927C16.678 16.807 16.39 16.563 16.39 16.195C16.39 15.785 16.701 15.476 17.214 15.386V16.926H17.209L17.21 16.927ZM17.832 17.971C18.477 18.116 18.775 18.351 18.775 18.767C18.775 19.241 18.405 19.567 17.755 19.627V17.953L17.832 17.971Z" fill="white"/>
</g>
<defs>
<linearGradient id="paint0_linear_869_11594" x1="0" y1="15" x2="46.0825" y2="14.9999" gradientUnits="userSpaceOnUse">
<stop stop-color="#003383"/>
<stop offset="1" stop-color="#00DFDF"/>
</linearGradient>
<clipPath id="clip0_869_11594">
<rect width="16" height="16" fill="white" transform="translate(7 7)"/>
</clipPath>
</defs>
</svg>
