<svg width="30" height="30" viewBox="0 0 30 30" fill="none" xmlns="http://www.w3.org/2000/svg">
<rect width="30" height="30" rx="15" fill="url(#paint0_linear_869_11631)"/>
<path d="M22.1875 7.1875H7.8125C7.4668 7.1875 7.1875 7.4668 7.1875 7.8125V22.1875C7.1875 22.5332 7.4668 22.8125 7.8125 22.8125H22.1875C22.5332 22.8125 22.8125 22.5332 22.8125 22.1875V7.8125C22.8125 7.4668 22.5332 7.1875 22.1875 7.1875ZM21.4062 21.4062H8.59375V8.59375H21.4062V21.4062ZM10.9531 15.2344H11.9434C12.0156 15.2344 12.0762 15.1758 12.0762 15.1016V13.5605C12.0762 13.1758 12.3867 12.8652 12.7695 12.8652H16.7871V13.9082C16.7871 14.0195 16.9141 14.0801 17 14.0117L19.1309 12.3379C19.1992 12.2852 19.1992 12.1816 19.1309 12.1289L17 10.4551C16.9141 10.3867 16.7871 10.4492 16.7871 10.5586V11.6016H12.7676C11.6914 11.6016 10.8203 12.4766 10.8203 13.5566V15.0977C10.8203 15.1758 10.8789 15.2344 10.9531 15.2344ZM10.8711 17.8691L13.002 19.543C13.0879 19.6113 13.2148 19.5488 13.2148 19.4395V18.3965H17.2324C18.3086 18.3965 19.1797 17.5215 19.1797 16.4414V14.9004C19.1797 14.8281 19.1211 14.7676 19.0469 14.7676H18.0566C17.9844 14.7676 17.9238 14.8262 17.9238 14.9004V16.4414C17.9238 16.8262 17.6133 17.1367 17.2305 17.1367H13.2148V16.0938C13.2148 15.9824 13.0879 15.9219 13.002 15.9902L10.8711 17.6641C10.8027 17.7129 10.8027 17.8164 10.8711 17.8691Z" fill="white"/>
<defs>
<linearGradient id="paint0_linear_869_11631" x1="0" y1="15" x2="46.0825" y2="14.9999" gradientUnits="userSpaceOnUse">
<stop stop-color="#003383"/>
<stop offset="1" stop-color="#00DFDF"/>
</linearGradient>
</defs>
</svg>
