<svg width="36" height="36" viewBox="0 0 36 36" fill="none" xmlns="http://www.w3.org/2000/svg">
<g id="presentation-chart-02">
<path id="Icon" d="M18 24V31.5M27 31.5L21.0729 26.5607C19.9797 25.6498 19.4331 25.1943 18.823 25.0202C18.2851 24.8668 17.7149 24.8668 17.177 25.0202C16.5669 25.1943 16.0203 25.6498 14.9271 26.5607L9 31.5M12 16.5V18M18 13.5V18M24 10.5V18M33 4.5H3M4.5 4.5H31.5V16.8C31.5 19.3202 31.5 20.5804 31.0095 21.543C30.5781 22.3897 29.8897 23.0781 29.043 23.5095C28.0804 24 26.8202 24 24.3 24H11.7C9.17976 24 7.91965 24 6.95704 23.5095C6.11031 23.0781 5.4219 22.3897 4.99047 21.543C4.5 20.5804 4.5 19.3202 4.5 16.8V4.5Z" stroke="black" stroke-width="2" stroke-linecap="round" stroke-linejoin="round"/>
</g>
</svg>
