<svg width="45" height="46" viewBox="0 0 45 46" fill="none" xmlns="http://www.w3.org/2000/svg">
<g id="qr-code-01">
<path id="Icon" d="M13.2305 22.8975H22.5273V32.1943M5.81156 22.8975H5.79297M15.1084 32.1943H15.0898M22.5459 39.6318H22.5273M39.2803 22.8975H39.2617M5.79297 32.1943H8.58203M29.0352 22.8975H32.7539M5.79297 39.6318H15.0898M22.5273 4.30371V15.46M32.9398 39.6318H36.2867C37.3281 39.6318 37.8487 39.6318 38.2465 39.4292C38.5963 39.2509 38.8808 38.9665 39.0591 38.6166C39.2617 38.2189 39.2617 37.6982 39.2617 36.6568V33.31C39.2617 32.2686 39.2617 31.7479 39.0591 31.3502C38.8808 31.0003 38.5963 30.7159 38.2465 30.5376C37.8487 30.335 37.3281 30.335 36.2867 30.335H32.9398C31.8985 30.335 31.3778 30.335 30.9801 30.5376C30.6302 30.7159 30.3458 31.0003 30.1675 31.3502C29.9648 31.7479 29.9648 32.2686 29.9648 33.31V36.6568C29.9648 37.6982 29.9648 38.2189 30.1675 38.6166C30.3458 38.9665 30.6302 39.2509 30.9801 39.4292C31.3778 39.6318 31.8985 39.6318 32.9398 39.6318ZM32.9398 15.46H36.2867C37.3281 15.46 37.8487 15.46 38.2465 15.2573C38.5963 15.079 38.8808 14.7946 39.0591 14.4447C39.2617 14.047 39.2617 13.5263 39.2617 12.485V9.13809C39.2617 8.09674 39.2617 7.57606 39.0591 7.17832C38.8808 6.82846 38.5963 6.54401 38.2465 6.36575C37.8487 6.16309 37.3281 6.16309 36.2867 6.16309H32.9398C31.8985 6.16309 31.3778 6.16309 30.9801 6.36575C30.6302 6.54401 30.3458 6.82846 30.1675 7.17832C29.9648 7.57606 29.9648 8.09674 29.9648 9.13809V12.485C29.9648 13.5263 29.9648 14.047 30.1675 14.4447C30.3458 14.7946 30.6302 15.079 30.9801 15.2573C31.3778 15.46 31.8985 15.46 32.9398 15.46ZM8.76797 15.46H12.1148C13.1562 15.46 13.6769 15.46 14.0746 15.2573C14.4245 15.079 14.7089 14.7946 14.8872 14.4447C15.0898 14.047 15.0898 13.5263 15.0898 12.485V9.13809C15.0898 8.09674 15.0898 7.57606 14.8872 7.17832C14.7089 6.82846 14.4245 6.54401 14.0746 6.36575C13.6769 6.16309 13.1562 6.16309 12.1148 6.16309H8.76797C7.72662 6.16309 7.20595 6.16309 6.8082 6.36575C6.45834 6.54401 6.17389 6.82846 5.99563 7.17832C5.79297 7.57606 5.79297 8.09674 5.79297 9.13809V12.485C5.79297 13.5263 5.79297 14.047 5.99563 14.4447C6.17389 14.7946 6.45834 15.079 6.8082 15.2573C7.20595 15.46 7.72662 15.46 8.76797 15.46Z" stroke="black" stroke-width="2.47917" stroke-linecap="round" stroke-linejoin="round"/>
</g>
</svg>
