<svg width="46" height="46" viewBox="0 0 46 46" fill="none" xmlns="http://www.w3.org/2000/svg">
<path d="M17.2498 20.125L21.0832 23.9583L29.7082 15.3333M38.3332 40.25V14.95C38.3332 11.7297 38.3332 10.1195 37.7065 8.88955C37.1552 7.80762 36.2755 6.92798 35.1936 6.37671C33.9636 5.75 32.3535 5.75 29.1332 5.75H16.8665C13.6462 5.75 12.0361 5.75 10.8061 6.37671C9.72413 6.92798 8.84449 7.80762 8.29322 8.88955C7.6665 10.1195 7.6665 11.7297 7.6665 14.95V40.25L12.9373 36.4167L17.729 40.25L22.9998 36.4167L28.2707 40.25L33.0623 36.4167L38.3332 40.25Z" stroke="white" stroke-width="2" stroke-linecap="round" stroke-linejoin="round"/>
</svg>
