<svg width="60" height="60" viewBox="0 0 60 60" fill="none" xmlns="http://www.w3.org/2000/svg">
<path d="M30 15.625C31.0355 15.625 31.875 16.4645 31.875 17.5V32.5C31.875 33.5355 31.0355 34.375 30 34.375C28.9645 34.375 28.125 33.5355 28.125 32.5V17.5C28.125 16.4645 28.9645 15.625 30 15.625Z" fill="white"/>
<path d="M32.5 40C32.5 41.3807 31.3807 42.5 30 42.5C28.6193 42.5 27.5 41.3807 27.5 40C27.5 38.6193 28.6193 37.5 30 37.5C31.3807 37.5 32.5 38.6193 32.5 40Z" fill="white"/>
<path fill-rule="evenodd" clip-rule="evenodd" d="M30 3.125C28.2385 3.125 26.6297 3.60898 24.8714 4.42593C23.1702 5.2164 21.201 6.3826 18.7364 7.84213L16.8537 8.95708C14.3883 10.417 12.4193 11.5831 10.9019 12.6986C9.33288 13.8521 8.12943 15.0328 7.25835 16.5803C6.3887 18.1253 5.99603 19.7774 5.80765 21.7376C5.62498 23.6385 5.62498 25.9662 5.625 28.89V31.11C5.62498 34.0338 5.62498 36.3615 5.80765 38.2622C5.99603 40.2228 6.3887 41.8748 7.25835 43.4198C8.12943 44.9673 9.33288 46.148 10.9019 47.3015C12.4193 48.417 14.3883 49.583 16.8537 51.043L18.7365 52.158C21.2009 53.6175 23.1702 54.7838 24.8714 55.574C26.6297 56.391 28.2385 56.875 30 56.875C31.7615 56.875 33.3703 56.391 35.1285 55.574C36.8298 54.7835 38.799 53.6175 41.2635 52.158L43.1462 51.043C45.6115 49.583 47.5807 48.417 49.098 47.3015C50.6673 46.148 51.8705 44.9673 52.7418 43.4198C53.6113 41.8748 54.004 40.2228 54.1923 38.2622C54.375 36.3615 54.375 34.0338 54.375 31.1103V28.89C54.375 25.9665 54.375 23.6384 54.1923 21.7376C54.004 19.7774 53.6113 18.1253 52.7418 16.5803C51.8705 15.0328 50.6673 13.8521 49.098 12.6986C47.5807 11.5831 45.6117 10.4171 43.1462 8.95712L41.2635 7.84213C38.799 6.38258 36.8298 5.2164 35.1285 4.42593C33.3703 3.60898 31.7615 3.125 30 3.125ZM20.5631 11.1186C23.1309 9.59793 24.9401 8.52903 26.4517 7.82673C27.9255 7.1419 28.9767 6.875 30 6.875C31.0233 6.875 32.0745 7.1419 33.5483 7.82673C35.0597 8.52903 36.869 9.59793 39.437 11.1186L41.1522 12.1345C43.7197 13.6549 45.5272 14.7279 46.877 15.72C48.1917 16.6867 48.9525 17.4936 49.4737 18.4197C49.9965 19.3482 50.2997 20.4347 50.4595 22.0964C50.623 23.7971 50.625 25.945 50.625 28.9843V31.0157C50.625 34.055 50.623 36.203 50.4595 37.9035C50.2997 39.5653 49.9965 40.6517 49.4737 41.5802C48.9525 42.5062 48.1917 43.3133 46.877 44.28C45.5272 45.2723 43.7197 46.345 41.1522 47.8655L39.437 48.8815C36.869 50.402 35.0597 51.471 33.5483 52.1733C32.0745 52.858 31.0233 53.125 30 53.125C28.9767 53.125 27.9255 52.858 26.4517 52.1733C24.9401 51.471 23.1309 50.402 20.5631 48.8815L18.8477 47.8655C16.2803 46.345 14.4727 45.2723 13.1231 44.28C11.8082 43.3133 11.0475 42.5062 10.5262 41.5802C10.0036 40.6517 9.70013 39.5653 9.54045 37.9035C9.377 36.203 9.375 34.055 9.375 31.0157V28.9843C9.375 25.945 9.377 23.7971 9.54045 22.0964C9.70013 20.4347 10.0036 19.3482 10.5262 18.4197C11.0475 17.4936 11.8082 16.6867 13.1231 15.72C14.4727 14.7279 16.2803 13.6549 18.8477 12.1345L20.5631 11.1186Z" fill="white"/>
</svg>
