<svg width="28" height="28" viewBox="0 0 28 28" fill="none" xmlns="http://www.w3.org/2000/svg">
<path d="M10.25 10.25H10.2625M17.75 17.75H17.7625M19 9L9 19M26.5 14C26.5 20.9036 20.9036 26.5 14 26.5C7.09644 26.5 1.5 20.9036 1.5 14C1.5 7.09644 7.09644 1.5 14 1.5C20.9036 1.5 26.5 7.09644 26.5 14ZM10.875 10.25C10.875 10.5952 10.5952 10.875 10.25 10.875C9.90482 10.875 9.625 10.5952 9.625 10.25C9.625 9.90482 9.90482 9.625 10.25 9.625C10.5952 9.625 10.875 9.90482 10.875 10.25ZM18.375 17.75C18.375 18.0952 18.0952 18.375 17.75 18.375C17.4048 18.375 17.125 18.0952 17.125 17.75C17.125 17.4048 17.4048 17.125 17.75 17.125C18.0952 17.125 18.375 17.4048 18.375 17.75Z" stroke="black" stroke-width="2" stroke-linecap="round" stroke-linejoin="round"/>
</svg>
