<svg width="36" height="36" viewBox="0 0 36 36" fill="none" xmlns="http://www.w3.org/2000/svg">
<g id="server-05">
<path id="Icon" d="M28.5 13.5C28.5 19.299 23.799 24 18 24M28.5 13.5C28.5 7.70101 23.799 3 18 3M28.5 13.5H7.5M18 24C12.201 24 7.5 19.299 7.5 13.5M18 24C20.6263 21.1247 22.1203 17.3934 22.2014 13.5C22.1203 9.60664 20.6263 5.87527 18 3M18 24C15.3737 21.1247 13.8825 17.3934 13.8014 13.5C13.8825 9.60664 15.3737 5.87527 18 3M18 24V27M7.5 13.5C7.5 7.70101 12.201 3 18 3M21 30C21 31.6569 19.6569 33 18 33C16.3431 33 15 31.6569 15 30M21 30C21 28.3431 19.6569 27 18 27M21 30H31.5M15 30C15 28.3431 16.3431 27 18 27M15 30H4.5" stroke="white" stroke-width="2" stroke-linecap="round" stroke-linejoin="round"/>
</g>
</svg>
