<svg width="868" height="1107" viewBox="0 0 868 1107" fill="none" xmlns="http://www.w3.org/2000/svg">
<g opacity="0.6">
<path d="M752.701 718.926C955.821 562.474 773.981 392.731 657.672 327.417C322.613 191.029 297.783 465.015 461.2 600.268C624.617 735.521 181.855 765.801 263.223 1004.85C357.572 1282.04 498.796 914.491 752.701 718.926Z" stroke="url(#paint0_linear_1327_2961)" stroke-width="3"/>
<path opacity="0.95875" d="M742.266 713.646C951.001 563.183 776.431 387.542 663.059 318.529C334.404 171.578 298.771 445.274 456.336 585.798C613.902 726.322 171.245 743.008 242.883 984.982C325.95 1265.55 481.348 901.724 742.266 713.646Z" stroke="url(#paint1_linear_1327_2961)" stroke-width="3"/>
<path opacity="0.9175" d="M732.072 708.035C946.161 563.744 779.081 382.419 668.783 309.792C346.932 152.457 300.539 425.529 452.061 571.153C603.583 716.777 161.57 719.849 223.392 964.448C295.076 1248.07 464.458 888.398 732.072 708.035Z" stroke="url(#paint2_linear_1327_2961)" stroke-width="3"/>
<path opacity="0.87625" d="M722.131 702.1C941.321 564.158 781.931 377.368 674.838 301.216C360.181 133.689 303.086 405.805 448.38 556.351C593.674 706.897 152.844 696.351 204.773 943.279C264.987 1229.6 448.147 874.527 722.131 702.1Z" stroke="url(#paint3_linear_1327_2961)" stroke-width="3"/>
<path opacity="0.835" d="M712.454 695.848C936.471 564.423 784.971 372.397 681.214 292.812C374.137 115.297 306.408 386.124 445.297 541.409C584.187 696.694 145.076 672.544 187.05 921.501C235.72 1210.17 432.435 860.13 712.454 695.848Z" stroke="url(#paint4_linear_1327_2961)" stroke-width="3"/>
<path opacity="0.79375" d="M703.055 689.288C931.631 564.539 788.191 367.511 687.906 284.59C388.782 97.3028 310.502 366.512 442.817 526.347C575.132 686.182 138.276 648.456 170.244 899.138C207.311 1189.81 417.34 845.224 703.055 689.288Z" stroke="url(#paint5_linear_1327_2961)" stroke-width="3"/>
<path opacity="0.7525" d="M693.943 682.426C926.791 564.505 791.601 362.715 694.904 276.56C404.098 79.729 315.362 346.992 440.942 511.182C566.522 675.372 132.453 624.117 154.375 876.218C179.794 1168.54 402.882 829.827 693.943 682.426Z" stroke="url(#paint6_linear_1327_2961)" stroke-width="3"/>
<path opacity="0.71125" d="M685.131 675.271C921.971 564.323 795.191 358.017 702.201 268.732C420.066 62.5964 320.982 327.589 439.674 495.933C558.366 664.278 127.612 599.556 139.462 852.77C153.202 1146.38 389.078 813.957 685.131 675.271Z" stroke="url(#paint7_linear_1327_2961)" stroke-width="3"/>
<path opacity="0.67" d="M676.629 667.833C917.181 563.992 798.961 353.421 709.786 261.115C436.667 45.9266 327.357 308.324 439.015 480.619C550.674 652.914 123.761 574.803 125.525 828.821C127.569 1123.36 375.944 797.634 676.629 667.833Z" stroke="url(#paint8_linear_1327_2961)" stroke-width="3"/>
<path opacity="0.62875" d="M668.447 660.12C912.411 563.513 802.901 348.933 717.652 253.719C453.881 29.7397 334.477 289.223 438.967 465.258C543.456 641.293 120.905 549.889 112.579 804.401C102.925 1099.52 363.497 780.879 668.447 660.12Z" stroke="url(#paint9_linear_1327_2961)" stroke-width="3"/>
<path opacity="0.5875" d="M660.596 652.141C907.671 562.885 807.001 344.559 725.788 246.552C471.686 14.0551 342.335 270.308 439.528 449.869C536.721 629.429 119.045 524.843 100.641 779.541C79.3001 1074.87 351.752 763.71 660.596 652.141Z" stroke="url(#paint10_linear_1327_2961)" stroke-width="3"/>
<path opacity="0.54625" d="M653.084 643.906C902.971 562.111 811.271 340.303 734.184 239.624C490.062 -1.1079 350.92 251.603 440.698 434.47C530.477 617.337 118.185 499.697 89.7241 754.269C56.7231 1049.45 340.723 746.15 653.084 643.906Z" stroke="url(#paint11_linear_1327_2961)" stroke-width="3"/>
<path opacity="0.505" d="M645.922 635.426C898.321 561.19 815.691 336.172 742.831 232.942C508.985 -15.7306 360.222 233.129 442.477 419.08C524.731 605.032 118.326 474.481 79.8441 728.616C35.2221 1023.29 330.424 728.22 645.922 635.426Z" stroke="url(#paint12_linear_1327_2961)" stroke-width="3"/>
<path opacity="0.46375" d="M639.117 626.71C893.721 560.125 820.271 332.17 751.717 226.515C528.433 -29.7956 370.23 214.911 444.86 403.719C519.49 592.528 119.467 449.225 71.0112 702.615C14.8232 996.432 320.867 709.941 639.117 626.71Z" stroke="url(#paint13_linear_1327_2961)" stroke-width="3"/>
<path opacity="0.4225" d="M632.679 617.769C889.171 558.916 824.991 328.302 760.832 220.351C548.382 -43.2856 380.932 196.969 447.847 388.405C514.762 579.841 121.608 423.961 63.2362 676.296C-4.44877 968.892 312.064 691.336 632.679 617.769Z" stroke="url(#paint14_linear_1327_2961)" stroke-width="3"/>
<path opacity="0.38125" d="M626.614 608.614C884.681 557.564 829.841 324.572 770.165 214.458C568.808 -56.184 392.315 179.326 451.433 373.156C510.551 566.986 124.745 398.719 56.5283 649.693C-22.5717 940.707 304.025 672.427 626.614 608.614Z" stroke="url(#paint15_linear_1327_2961)" stroke-width="3"/>
<path opacity="0.34" d="M620.931 599.257C880.271 556.072 834.841 320.986 779.701 208.841C589.685 -68.4755 404.364 162.003 455.613 357.991C506.862 553.979 128.875 373.53 50.8971 622.836C-39.5219 911.917 296.761 653.238 620.931 599.257Z" stroke="url(#paint16_linear_1327_2961)" stroke-width="3"/>
<path opacity="0.29875" d="M615.635 589.708C875.921 554.441 839.961 317.548 789.441 203.509C610.988 -80.1446 417.066 145.022 460.383 342.929C503.701 540.836 133.993 348.424 46.3493 595.759C-55.2787 882.554 290.28 633.792 615.635 589.708Z" stroke="url(#paint17_linear_1327_2961)" stroke-width="3"/>
<path opacity="0.2575" d="M610.735 579.979C871.651 552.674 845.201 314.261 799.361 198.468C632.692 -91.1775 430.403 128.402 465.737 327.988C501.071 527.573 140.092 323.433 42.8882 568.495C-69.8238 852.655 284.589 614.112 610.735 579.979Z" stroke="url(#paint18_linear_1327_2961)" stroke-width="3"/>
<path opacity="0.21625" d="M606.235 570.083C867.461 550.771 850.551 311.13 809.441 193.724C654.77 -101.561 444.362 112.165 471.669 313.186C498.975 514.206 147.165 298.586 40.5202 541.078C-83.1388 822.256 279.697 594.222 606.235 570.083Z" stroke="url(#paint19_linear_1327_2961)" stroke-width="3"/>
<path opacity="0.175" d="M602.141 560.031C863.371 548.737 856.021 308.159 819.691 189.282C677.195 -111.281 458.924 96.33 478.17 298.541C497.416 500.751 155.204 273.914 39.2481 513.539C-95.2089 791.394 275.609 574.148 602.141 560.031Z" stroke="url(#paint20_linear_1327_2961)" stroke-width="3"/>
<path opacity="0.13375" d="M598.459 549.835C859.361 546.572 861.581 305.351 830.081 185.149C699.939 -120.327 474.071 80.9169 485.234 284.071C496.396 487.225 164.198 249.448 39.0721 485.914C-106.017 760.106 272.33 553.912 598.459 549.835Z" stroke="url(#paint21_linear_1327_2961)" stroke-width="3"/>
<path opacity="0.0925" d="M595.192 539.507C855.451 544.281 867.251 302.71 840.611 181.328C722.976 -128.688 489.785 65.943 492.851 269.793C495.916 473.643 174.137 225.216 39.9931 458.236C-115.552 728.431 269.864 533.541 595.192 539.507Z" stroke="url(#paint22_linear_1327_2961)" stroke-width="3"/>
<path opacity="0.05125" d="M592.345 529.062C851.651 541.865 873.001 300.239 851.261 177.826C746.276 -136.354 506.048 51.4278 501.012 255.726C495.976 460.024 185.009 201.248 42.0112 430.537C-123.801 696.407 268.213 513.058 592.345 529.062Z" stroke="url(#paint23_linear_1327_2961)" stroke-width="3"/>
<path opacity="0.01" d="M589.92 518.51C847.951 539.327 878.831 297.941 862.011 174.645C769.812 -143.314 522.838 37.3887 509.708 241.886C496.577 446.382 196.8 177.574 45.1222 402.853C-130.754 664.074 267.381 492.489 589.92 518.51Z" stroke="url(#paint24_linear_1327_2961)" stroke-width="3"/>
</g>
<defs>
<linearGradient id="paint0_linear_1327_2961" x1="690.964" y1="340.969" x2="373.906" y2="1119.87" gradientUnits="userSpaceOnUse">
<stop stop-color="#2670E9"/>
<stop offset="0.515" stop-color="#00DFDF"/>
<stop offset="1" stop-color="#003383"/>
</linearGradient>
<linearGradient id="paint1_linear_1327_2961" x1="695.715" y1="333.131" x2="350.789" y2="1104.55" gradientUnits="userSpaceOnUse">
<stop stop-color="#2670E9"/>
<stop offset="0.515" stop-color="#00DFDF"/>
<stop offset="1" stop-color="#003383"/>
</linearGradient>
<linearGradient id="paint2_linear_1327_2961" x1="700.764" y1="325.425" x2="327.82" y2="1088.33" gradientUnits="userSpaceOnUse">
<stop stop-color="#2670E9"/>
<stop offset="0.515" stop-color="#00DFDF"/>
<stop offset="1" stop-color="#003383"/>
</linearGradient>
<linearGradient id="paint3_linear_1327_2961" x1="706.103" y1="317.863" x2="305.035" y2="1071.16" gradientUnits="userSpaceOnUse">
<stop stop-color="#2670E9"/>
<stop offset="0.515" stop-color="#00DFDF"/>
<stop offset="1" stop-color="#003383"/>
</linearGradient>
<linearGradient id="paint4_linear_1327_2961" x1="711.727" y1="310.451" x2="282.471" y2="1053" gradientUnits="userSpaceOnUse">
<stop stop-color="#2670E9"/>
<stop offset="0.515" stop-color="#00DFDF"/>
<stop offset="1" stop-color="#003383"/>
</linearGradient>
<linearGradient id="paint5_linear_1327_2961" x1="717.628" y1="303.2" x2="260.174" y2="1033.81" gradientUnits="userSpaceOnUse">
<stop stop-color="#2670E9"/>
<stop offset="0.515" stop-color="#00DFDF"/>
<stop offset="1" stop-color="#003383"/>
</linearGradient>
<linearGradient id="paint6_linear_1327_2961" x1="723.8" y1="296.118" x2="238.197" y2="1013.56" gradientUnits="userSpaceOnUse">
<stop stop-color="#2670E9"/>
<stop offset="0.515" stop-color="#00DFDF"/>
<stop offset="1" stop-color="#003383"/>
</linearGradient>
<linearGradient id="paint7_linear_1327_2961" x1="730.234" y1="289.214" x2="216.6" y2="992.222" gradientUnits="userSpaceOnUse">
<stop stop-color="#2670E9"/>
<stop offset="0.515" stop-color="#00DFDF"/>
<stop offset="1" stop-color="#003383"/>
</linearGradient>
<linearGradient id="paint8_linear_1327_2961" x1="736.924" y1="282.497" x2="195.447" y2="969.742" gradientUnits="userSpaceOnUse">
<stop stop-color="#2670E9"/>
<stop offset="0.515" stop-color="#00DFDF"/>
<stop offset="1" stop-color="#003383"/>
</linearGradient>
<linearGradient id="paint9_linear_1327_2961" x1="743.861" y1="275.974" x2="174.811" y2="946.12" gradientUnits="userSpaceOnUse">
<stop stop-color="#2670E9"/>
<stop offset="0.515" stop-color="#00DFDF"/>
<stop offset="1" stop-color="#003383"/>
</linearGradient>
<linearGradient id="paint10_linear_1327_2961" x1="751.036" y1="269.654" x2="154.771" y2="921.325" gradientUnits="userSpaceOnUse">
<stop stop-color="#2670E9"/>
<stop offset="0.515" stop-color="#00DFDF"/>
<stop offset="1" stop-color="#003383"/>
</linearGradient>
<linearGradient id="paint11_linear_1327_2961" x1="758.441" y1="263.544" x2="135.411" y2="895.348" gradientUnits="userSpaceOnUse">
<stop stop-color="#2670E9"/>
<stop offset="0.515" stop-color="#00DFDF"/>
<stop offset="1" stop-color="#003383"/>
</linearGradient>
<linearGradient id="paint12_linear_1327_2961" x1="766.066" y1="257.651" x2="116.82" y2="868.185" gradientUnits="userSpaceOnUse">
<stop stop-color="#2670E9"/>
<stop offset="0.515" stop-color="#00DFDF"/>
<stop offset="1" stop-color="#003383"/>
</linearGradient>
<linearGradient id="paint13_linear_1327_2961" x1="773.901" y1="251.983" x2="99.0932" y2="839.841" gradientUnits="userSpaceOnUse">
<stop stop-color="#2670E9"/>
<stop offset="0.515" stop-color="#00DFDF"/>
<stop offset="1" stop-color="#003383"/>
</linearGradient>
<linearGradient id="paint14_linear_1327_2961" x1="781.941" y1="246.547" x2="82.3252" y2="810.329" gradientUnits="userSpaceOnUse">
<stop stop-color="#2670E9"/>
<stop offset="0.515" stop-color="#00DFDF"/>
<stop offset="1" stop-color="#003383"/>
</linearGradient>
<linearGradient id="paint15_linear_1327_2961" x1="790.171" y1="241.349" x2="66.6173" y2="779.676" gradientUnits="userSpaceOnUse">
<stop stop-color="#2670E9"/>
<stop offset="0.515" stop-color="#00DFDF"/>
<stop offset="1" stop-color="#003383"/>
</linearGradient>
<linearGradient id="paint16_linear_1327_2961" x1="798.581" y1="236.396" x2="52.0701" y2="747.916" gradientUnits="userSpaceOnUse">
<stop stop-color="#2670E9"/>
<stop offset="0.515" stop-color="#00DFDF"/>
<stop offset="1" stop-color="#003383"/>
</linearGradient>
<linearGradient id="paint17_linear_1327_2961" x1="807.171" y1="231.694" x2="38.7812" y2="715.098" gradientUnits="userSpaceOnUse">
<stop stop-color="#2670E9"/>
<stop offset="0.515" stop-color="#00DFDF"/>
<stop offset="1" stop-color="#003383"/>
</linearGradient>
<linearGradient id="paint18_linear_1327_2961" x1="815.921" y1="227.248" x2="26.8512" y2="681.282" gradientUnits="userSpaceOnUse">
<stop stop-color="#2670E9"/>
<stop offset="0.515" stop-color="#00DFDF"/>
<stop offset="1" stop-color="#003383"/>
</linearGradient>
<linearGradient id="paint19_linear_1327_2961" x1="824.811" y1="223.064" x2="16.3722" y2="646.538" gradientUnits="userSpaceOnUse">
<stop stop-color="#2670E9"/>
<stop offset="0.515" stop-color="#00DFDF"/>
<stop offset="1" stop-color="#003383"/>
</linearGradient>
<linearGradient id="paint20_linear_1327_2961" x1="833.851" y1="219.147" x2="7.43308" y2="610.948" gradientUnits="userSpaceOnUse">
<stop stop-color="#2670E9"/>
<stop offset="0.515" stop-color="#00DFDF"/>
<stop offset="1" stop-color="#003383"/>
</linearGradient>
<linearGradient id="paint21_linear_1327_2961" x1="843.011" y1="215.502" x2="0.118151" y2="574.608" gradientUnits="userSpaceOnUse">
<stop stop-color="#2670E9"/>
<stop offset="0.515" stop-color="#00DFDF"/>
<stop offset="1" stop-color="#003383"/>
</linearGradient>
<linearGradient id="paint22_linear_1327_2961" x1="852.301" y1="212.132" x2="-5.50185" y2="537.619" gradientUnits="userSpaceOnUse">
<stop stop-color="#2670E9"/>
<stop offset="0.515" stop-color="#00DFDF"/>
<stop offset="1" stop-color="#003383"/>
</linearGradient>
<linearGradient id="paint23_linear_1327_2961" x1="861.691" y1="209.044" x2="-9.36178" y2="500.097" gradientUnits="userSpaceOnUse">
<stop stop-color="#2670E9"/>
<stop offset="0.515" stop-color="#00DFDF"/>
<stop offset="1" stop-color="#003383"/>
</linearGradient>
<linearGradient id="paint24_linear_1327_2961" x1="871.171" y1="206.239" x2="-11.4088" y2="462.16" gradientUnits="userSpaceOnUse">
<stop stop-color="#2670E9"/>
<stop offset="0.515" stop-color="#00DFDF"/>
<stop offset="1" stop-color="#003383"/>
</linearGradient>
</defs>
</svg>
