<svg width="1128" height="1141" viewBox="0 0 1128 1141" fill="none" xmlns="http://www.w3.org/2000/svg">
<g opacity="0.6">
<path d="M1009.51 741.207C1218.82 579.992 1031.44 405.082 911.588 337.778C566.329 197.238 540.742 479.566 709.135 618.937C877.527 758.307 421.285 789.509 505.13 1035.84C602.352 1321.46 747.876 942.726 1009.51 741.207Z" stroke="url(#paint0_linear_1_3)" stroke-width="3"/>
<path opacity="0.95875" d="M998.758 735.766C1213.85 580.722 1033.97 399.734 917.139 328.62C578.478 177.195 541.76 459.224 704.123 604.026C866.486 748.828 410.352 766.022 484.171 1015.36C569.767 1304.48 729.896 929.57 998.758 735.766Z" stroke="url(#paint1_linear_1_3)" stroke-width="3"/>
<path opacity="0.9175" d="M988.253 729.984C1208.86 581.301 1036.7 394.455 923.038 319.617C591.387 157.492 543.582 438.878 699.717 588.935C855.853 738.992 400.383 742.158 464.086 994.203C537.953 1286.46 712.492 915.838 988.253 729.984Z" stroke="url(#paint2_linear_1_3)" stroke-width="3"/>
<path opacity="0.87625" d="M978.009 723.868C1203.87 581.727 1039.63 389.251 929.276 310.78C605.041 138.152 546.206 418.553 695.924 573.682C845.642 728.811 391.391 717.945 444.901 972.391C506.948 1267.43 695.684 901.545 978.009 723.868Z" stroke="url(#paint3_linear_1_3)" stroke-width="3"/>
<path opacity="0.835" d="M968.038 717.427C1198.87 582 1042.76 384.128 935.847 302.121C619.421 119.2 549.63 398.273 692.748 558.286C835.866 718.298 383.387 693.413 426.638 949.949C476.791 1247.41 679.494 886.71 968.038 717.427Z" stroke="url(#paint4_linear_1_3)" stroke-width="3"/>
<path opacity="0.79375" d="M958.353 710.666C1193.88 582.119 1046.08 379.093 942.743 293.648C634.512 100.659 553.848 378.064 690.192 542.765C826.535 707.466 376.38 668.592 409.32 926.905C447.516 1226.43 663.94 871.35 958.353 710.666Z" stroke="url(#paint5_linear_1_3)" stroke-width="3"/>
<path opacity="0.7525" d="M948.964 703.596C1188.9 582.085 1049.6 374.152 949.954 285.374C650.294 82.5496 558.856 357.95 688.26 527.139C817.663 696.327 370.379 643.511 392.968 903.288C419.161 1204.51 649.041 855.484 948.964 703.596Z" stroke="url(#paint6_linear_1_3)" stroke-width="3"/>
<path opacity="0.71125" d="M939.883 696.223C1183.94 581.897 1053.3 369.31 957.472 277.307C666.748 64.8958 564.648 337.955 686.953 511.425C809.258 684.896 365.391 618.203 377.602 879.126C391.76 1181.68 634.817 839.131 939.883 696.223Z" stroke="url(#paint7_linear_1_3)" stroke-width="3"/>
<path opacity="0.67" d="M931.122 688.559C1178.99 581.556 1057.18 364.574 965.289 269.458C683.855 47.7185 571.217 318.105 686.275 495.645C801.333 673.185 361.423 592.696 363.24 854.448C365.346 1157.96 621.283 822.312 931.122 688.559Z" stroke="url(#paint8_linear_1_3)" stroke-width="3"/>
<path opacity="0.62875" d="M922.692 680.61C1174.08 581.062 1061.24 359.95 973.394 261.837C701.593 31.0388 578.554 298.422 686.224 479.816C793.895 661.21 358.479 567.024 349.9 829.285C339.952 1133.39 608.457 805.046 922.692 680.61Z" stroke="url(#paint9_linear_1_3)" stroke-width="3"/>
<path opacity="0.5875" d="M914.601 672.389C1169.2 580.416 1065.47 355.442 981.778 254.452C719.94 14.8766 586.65 278.931 686.803 463.958C786.955 648.985 356.563 541.216 337.598 803.667C315.608 1107.99 596.355 787.355 914.601 672.389Z" stroke="url(#paint10_linear_1_3)" stroke-width="3"/>
<path opacity="0.54625" d="M906.861 663.903C1164.36 579.618 1069.86 351.057 990.43 247.313C738.875 -0.747918 595.497 259.656 688.009 448.091C780.521 636.525 355.677 515.304 326.35 777.625C292.344 1081.8 584.99 769.26 906.861 663.903Z" stroke="url(#paint11_linear_1_3)" stroke-width="3"/>
<path opacity="0.505" d="M899.48 655.165C1159.56 578.669 1074.42 346.8 999.339 240.428C758.375 -15.8159 605.083 240.62 689.841 432.233C774.6 623.845 355.822 489.32 316.168 751.192C270.189 1054.84 574.377 750.784 899.48 655.165Z" stroke="url(#paint12_linear_1_3)" stroke-width="3"/>
<path opacity="0.46375" d="M892.469 646.183C1154.82 577.571 1079.13 342.676 1008.5 233.805C778.415 -30.3091 615.396 221.847 692.298 416.404C769.2 610.961 356.998 463.295 307.066 724.399C249.168 1027.16 564.529 731.948 892.469 646.183Z" stroke="url(#paint13_linear_1_3)" stroke-width="3"/>
<path opacity="0.4225" d="M885.834 636.97C1150.13 576.325 1084 338.69 1017.89 227.453C798.971 -44.2098 626.423 203.359 695.375 400.623C764.327 597.887 359.204 437.262 299.054 697.28C229.309 998.781 555.458 712.777 885.834 636.97Z" stroke="url(#paint14_linear_1_3)" stroke-width="3"/>
<path opacity="0.38125" d="M879.585 627.537C1145.51 574.932 1089 334.847 1027.51 221.38C820.018 -57.5009 638.152 185.179 699.07 384.91C759.988 584.641 362.437 411.251 292.143 669.866C210.635 969.74 547.174 693.293 879.585 627.537Z" stroke="url(#paint15_linear_1_3)" stroke-width="3"/>
<path opacity="0.34" d="M873.728 617.894C1140.96 573.395 1094.15 331.152 1037.34 215.593C841.531 -70.1665 650.568 167.329 703.378 369.284C756.187 571.239 366.692 385.295 286.34 642.191C193.169 940.073 539.689 673.519 873.728 617.894Z" stroke="url(#paint16_linear_1_3)" stroke-width="3"/>
<path opacity="0.29875" d="M868.272 608.055C1136.48 571.714 1099.42 327.609 1047.37 210.099C863.483 -82.1909 663.657 149.831 708.293 353.763C752.93 557.695 371.966 359.425 281.653 614.29C176.932 909.817 533.011 653.481 868.272 608.055Z" stroke="url(#paint17_linear_1_3)" stroke-width="3"/>
<path opacity="0.2575" d="M863.222 598.03C1132.08 569.893 1104.82 324.222 1057.59 204.904C885.848 -93.5597 677.401 132.705 713.81 338.367C750.22 544.028 378.251 333.673 278.087 586.196C161.944 879.007 527.147 633.202 863.222 598.03Z" stroke="url(#paint18_linear_1_3)" stroke-width="3"/>
<path opacity="0.21625" d="M858.585 587.832C1127.77 567.933 1110.34 320.996 1067.98 200.015C908.598 -104.259 691.784 115.974 719.922 323.114C748.06 530.254 385.539 308.07 275.647 557.944C148.223 847.683 522.106 612.707 858.585 587.832Z" stroke="url(#paint19_linear_1_3)" stroke-width="3"/>
<path opacity="0.175" d="M854.367 577.474C1123.55 565.836 1115.97 317.935 1078.54 195.438C931.705 -114.275 706.789 99.6566 726.621 308.023C746.454 516.39 393.823 282.647 274.336 529.567C135.786 815.881 517.894 592.021 854.367 577.474Z" stroke="url(#paint20_linear_1_3)" stroke-width="3"/>
<path opacity="0.13375" d="M850.572 566.968C1119.42 563.606 1121.71 315.041 1089.25 191.179C955.142 -123.597 722.397 83.7736 733.9 293.113C745.402 502.451 403.091 257.436 274.155 501.101C124.649 783.641 514.515 571.169 850.572 566.968Z" stroke="url(#paint21_linear_1_3)" stroke-width="3"/>
<path opacity="0.0925" d="M847.206 556.326C1115.39 561.245 1127.54 312.32 1100.1 187.242C978.88 -132.212 738.59 68.3443 741.749 278.4C744.907 488.457 413.333 232.466 275.105 472.58C114.824 751.002 511.973 550.178 847.206 556.326Z" stroke="url(#paint22_linear_1_3)" stroke-width="3"/>
<path opacity="0.05125" d="M844.272 545.562C1111.47 558.755 1133.47 309.773 1111.07 183.633C1002.89 -140.111 755.348 53.3872 750.159 263.905C744.969 474.423 424.535 207.769 277.184 444.038C106.324 718.003 510.273 529.071 844.272 545.562Z" stroke="url(#paint23_linear_1_3)" stroke-width="3"/>
<path opacity="0.01" d="M841.774 534.69C1107.66 556.141 1139.48 307.405 1122.15 180.356C1027.14 -147.284 772.65 38.9207 759.119 249.643C745.588 460.366 436.685 183.374 280.389 415.512C99.1583 684.685 509.415 507.876 841.774 534.69Z" stroke="url(#paint24_linear_1_3)" stroke-width="3"/>
</g>
<defs>
<linearGradient id="paint0_linear_1_3" x1="945.894" y1="351.743" x2="619.183" y2="1154.36" gradientUnits="userSpaceOnUse">
<stop stop-color="#4328F2"/>
<stop offset="0.515" stop-color="#00DFDF"/>
<stop offset="1" stop-color="#47FDA5" stop-opacity="0.5"/>
</linearGradient>
<linearGradient id="paint1_linear_1_3" x1="950.79" y1="343.666" x2="595.362" y2="1138.58" gradientUnits="userSpaceOnUse">
<stop stop-color="#4328F2"/>
<stop offset="0.515" stop-color="#00DFDF"/>
<stop offset="1" stop-color="#47FDA5" stop-opacity="0.5"/>
</linearGradient>
<linearGradient id="paint2_linear_1_3" x1="955.992" y1="335.726" x2="571.694" y2="1121.86" gradientUnits="userSpaceOnUse">
<stop stop-color="#4328F2"/>
<stop offset="0.515" stop-color="#00DFDF"/>
<stop offset="1" stop-color="#47FDA5" stop-opacity="0.5"/>
</linearGradient>
<linearGradient id="paint3_linear_1_3" x1="961.493" y1="327.933" x2="548.215" y2="1104.17" gradientUnits="userSpaceOnUse">
<stop stop-color="#4328F2"/>
<stop offset="0.515" stop-color="#00DFDF"/>
<stop offset="1" stop-color="#47FDA5" stop-opacity="0.5"/>
</linearGradient>
<linearGradient id="paint4_linear_1_3" x1="967.288" y1="320.296" x2="524.964" y2="1085.45" gradientUnits="userSpaceOnUse">
<stop stop-color="#4328F2"/>
<stop offset="0.515" stop-color="#00DFDF"/>
<stop offset="1" stop-color="#47FDA5" stop-opacity="0.5"/>
</linearGradient>
<linearGradient id="paint5_linear_1_3" x1="973.369" y1="312.824" x2="501.989" y2="1065.68" gradientUnits="userSpaceOnUse">
<stop stop-color="#4328F2"/>
<stop offset="0.515" stop-color="#00DFDF"/>
<stop offset="1" stop-color="#47FDA5" stop-opacity="0.5"/>
</linearGradient>
<linearGradient id="paint6_linear_1_3" x1="979.729" y1="305.527" x2="479.343" y2="1044.82" gradientUnits="userSpaceOnUse">
<stop stop-color="#4328F2"/>
<stop offset="0.515" stop-color="#00DFDF"/>
<stop offset="1" stop-color="#47FDA5" stop-opacity="0.5"/>
</linearGradient>
<linearGradient id="paint7_linear_1_3" x1="986.36" y1="298.413" x2="457.088" y2="1022.82" gradientUnits="userSpaceOnUse">
<stop stop-color="#4328F2"/>
<stop offset="0.515" stop-color="#00DFDF"/>
<stop offset="1" stop-color="#47FDA5" stop-opacity="0.5"/>
</linearGradient>
<linearGradient id="paint8_linear_1_3" x1="993.253" y1="291.491" x2="435.291" y2="999.662" gradientUnits="userSpaceOnUse">
<stop stop-color="#4328F2"/>
<stop offset="0.515" stop-color="#00DFDF"/>
<stop offset="1" stop-color="#47FDA5" stop-opacity="0.5"/>
</linearGradient>
<linearGradient id="paint9_linear_1_3" x1="1000.4" y1="284.77" x2="414.027" y2="975.318" gradientUnits="userSpaceOnUse">
<stop stop-color="#4328F2"/>
<stop offset="0.515" stop-color="#00DFDF"/>
<stop offset="1" stop-color="#47FDA5" stop-opacity="0.5"/>
</linearGradient>
<linearGradient id="paint10_linear_1_3" x1="1007.79" y1="278.257" x2="393.377" y2="949.768" gradientUnits="userSpaceOnUse">
<stop stop-color="#4328F2"/>
<stop offset="0.515" stop-color="#00DFDF"/>
<stop offset="1" stop-color="#47FDA5" stop-opacity="0.5"/>
</linearGradient>
<linearGradient id="paint11_linear_1_3" x1="1015.42" y1="271.961" x2="373.427" y2="923" gradientUnits="userSpaceOnUse">
<stop stop-color="#4328F2"/>
<stop offset="0.515" stop-color="#00DFDF"/>
<stop offset="1" stop-color="#47FDA5" stop-opacity="0.5"/>
</linearGradient>
<linearGradient id="paint12_linear_1_3" x1="1023.28" y1="265.889" x2="354.27" y2="895.01" gradientUnits="userSpaceOnUse">
<stop stop-color="#4328F2"/>
<stop offset="0.515" stop-color="#00DFDF"/>
<stop offset="1" stop-color="#47FDA5" stop-opacity="0.5"/>
</linearGradient>
<linearGradient id="paint13_linear_1_3" x1="1031.36" y1="260.048" x2="336.003" y2="865.803" gradientUnits="userSpaceOnUse">
<stop stop-color="#4328F2"/>
<stop offset="0.515" stop-color="#00DFDF"/>
<stop offset="1" stop-color="#47FDA5" stop-opacity="0.5"/>
</linearGradient>
<linearGradient id="paint14_linear_1_3" x1="1039.64" y1="254.447" x2="318.725" y2="835.393" gradientUnits="userSpaceOnUse">
<stop stop-color="#4328F2"/>
<stop offset="0.515" stop-color="#00DFDF"/>
<stop offset="1" stop-color="#47FDA5" stop-opacity="0.5"/>
</linearGradient>
<linearGradient id="paint15_linear_1_3" x1="1048.12" y1="249.091" x2="302.539" y2="803.806" gradientUnits="userSpaceOnUse">
<stop stop-color="#4328F2"/>
<stop offset="0.515" stop-color="#00DFDF"/>
<stop offset="1" stop-color="#47FDA5" stop-opacity="0.5"/>
</linearGradient>
<linearGradient id="paint16_linear_1_3" x1="1056.79" y1="243.987" x2="287.548" y2="771.08" gradientUnits="userSpaceOnUse">
<stop stop-color="#4328F2"/>
<stop offset="0.515" stop-color="#00DFDF"/>
<stop offset="1" stop-color="#47FDA5" stop-opacity="0.5"/>
</linearGradient>
<linearGradient id="paint17_linear_1_3" x1="1065.64" y1="239.142" x2="273.856" y2="737.263" gradientUnits="userSpaceOnUse">
<stop stop-color="#4328F2"/>
<stop offset="0.515" stop-color="#00DFDF"/>
<stop offset="1" stop-color="#47FDA5" stop-opacity="0.5"/>
</linearGradient>
<linearGradient id="paint18_linear_1_3" x1="1074.65" y1="234.56" x2="261.562" y2="702.417" gradientUnits="userSpaceOnUse">
<stop stop-color="#4328F2"/>
<stop offset="0.515" stop-color="#00DFDF"/>
<stop offset="1" stop-color="#47FDA5" stop-opacity="0.5"/>
</linearGradient>
<linearGradient id="paint19_linear_1_3" x1="1083.82" y1="230.249" x2="250.764" y2="666.615" gradientUnits="userSpaceOnUse">
<stop stop-color="#4328F2"/>
<stop offset="0.515" stop-color="#00DFDF"/>
<stop offset="1" stop-color="#47FDA5" stop-opacity="0.5"/>
</linearGradient>
<linearGradient id="paint20_linear_1_3" x1="1093.13" y1="226.212" x2="241.553" y2="629.942" gradientUnits="userSpaceOnUse">
<stop stop-color="#4328F2"/>
<stop offset="0.515" stop-color="#00DFDF"/>
<stop offset="1" stop-color="#47FDA5" stop-opacity="0.5"/>
</linearGradient>
<linearGradient id="paint21_linear_1_3" x1="1102.57" y1="222.456" x2="234.015" y2="592.495" gradientUnits="userSpaceOnUse">
<stop stop-color="#4328F2"/>
<stop offset="0.515" stop-color="#00DFDF"/>
<stop offset="1" stop-color="#47FDA5" stop-opacity="0.5"/>
</linearGradient>
<linearGradient id="paint22_linear_1_3" x1="1112.14" y1="218.984" x2="228.224" y2="554.38" gradientUnits="userSpaceOnUse">
<stop stop-color="#4328F2"/>
<stop offset="0.515" stop-color="#00DFDF"/>
<stop offset="1" stop-color="#47FDA5" stop-opacity="0.5"/>
</linearGradient>
<linearGradient id="paint23_linear_1_3" x1="1121.81" y1="215.801" x2="224.247" y2="515.715" gradientUnits="userSpaceOnUse">
<stop stop-color="#4328F2"/>
<stop offset="0.515" stop-color="#00DFDF"/>
<stop offset="1" stop-color="#47FDA5" stop-opacity="0.5"/>
</linearGradient>
<linearGradient id="paint24_linear_1_3" x1="1131.59" y1="212.911" x2="222.137" y2="476.624" gradientUnits="userSpaceOnUse">
<stop stop-color="#4328F2"/>
<stop offset="0.515" stop-color="#00DFDF"/>
<stop offset="1" stop-color="#47FDA5" stop-opacity="0.5"/>
</linearGradient>
</defs>
</svg>
