<svg width="30" height="30" viewBox="0 0 30 30" fill="none" xmlns="http://www.w3.org/2000/svg">
<rect width="30" height="30" rx="15" fill="url(#paint0_linear_869_11546)"/>
<path d="M10 9C10 7.89688 10.8969 7 12 7H18C19.1031 7 20 7.89688 20 9V21C20 22.1031 19.1031 23 18 23H12C10.8969 23 10 22.1031 10 21V9ZM12 12V14C12 14.5531 12.4469 15 13 15H17C17.5531 15 18 14.5531 18 14V12C18 11.4469 17.5531 11 17 11H13C12.4469 11 12 11.4469 12 12ZM12.5 18C12.6989 18 12.8897 17.921 13.0303 17.7803C13.171 17.6397 13.25 17.4489 13.25 17.25C13.25 17.0511 13.171 16.8603 13.0303 16.7197C12.8897 16.579 12.6989 16.5 12.5 16.5C12.3011 16.5 12.1103 16.579 11.9697 16.7197C11.829 16.8603 11.75 17.0511 11.75 17.25C11.75 17.4489 11.829 17.6397 11.9697 17.7803C12.1103 17.921 12.3011 18 12.5 18ZM13.25 19.75C13.25 19.5511 13.171 19.3603 13.0303 19.2197C12.8897 19.079 12.6989 19 12.5 19C12.3011 19 12.1103 19.079 11.9697 19.2197C11.829 19.3603 11.75 19.5511 11.75 19.75C11.75 19.9489 11.829 20.1397 11.9697 20.2803C12.1103 20.421 12.3011 20.5 12.5 20.5C12.6989 20.5 12.8897 20.421 13.0303 20.2803C13.171 20.1397 13.25 19.9489 13.25 19.75ZM15 18C15.1989 18 15.3897 17.921 15.5303 17.7803C15.671 17.6397 15.75 17.4489 15.75 17.25C15.75 17.0511 15.671 16.8603 15.5303 16.7197C15.3897 16.579 15.1989 16.5 15 16.5C14.8011 16.5 14.6103 16.579 14.4697 16.7197C14.329 16.8603 14.25 17.0511 14.25 17.25C14.25 17.4489 14.329 17.6397 14.4697 17.7803C14.6103 17.921 14.8011 18 15 18ZM15.75 19.75C15.75 19.5511 15.671 19.3603 15.5303 19.2197C15.3897 19.079 15.1989 19 15 19C14.8011 19 14.6103 19.079 14.4697 19.2197C14.329 19.3603 14.25 19.5511 14.25 19.75C14.25 19.9489 14.329 20.1397 14.4697 20.2803C14.6103 20.421 14.8011 20.5 15 20.5C15.1989 20.5 15.3897 20.421 15.5303 20.2803C15.671 20.1397 15.75 19.9489 15.75 19.75ZM17.5 18C17.6989 18 17.8897 17.921 18.0303 17.7803C18.171 17.6397 18.25 17.4489 18.25 17.25C18.25 17.0511 18.171 16.8603 18.0303 16.7197C17.8897 16.579 17.6989 16.5 17.5 16.5C17.3011 16.5 17.1103 16.579 16.9697 16.7197C16.829 16.8603 16.75 17.0511 16.75 17.25C16.75 17.4489 16.829 17.6397 16.9697 17.7803C17.1103 17.921 17.3011 18 17.5 18ZM18.25 19.75C18.25 19.5511 18.171 19.3603 18.0303 19.2197C17.8897 19.079 17.6989 19 17.5 19C17.3011 19 17.1103 19.079 16.9697 19.2197C16.829 19.3603 16.75 19.5511 16.75 19.75C16.75 19.9489 16.829 20.1397 16.9697 20.2803C17.1103 20.421 17.3011 20.5 17.5 20.5C17.6989 20.5 17.8897 20.421 18.0303 20.2803C18.171 20.1397 18.25 19.9489 18.25 19.75ZM14 8.5C13.725 8.5 13.5 8.725 13.5 9C13.5 9.275 13.725 9.5 14 9.5H16C16.275 9.5 16.5 9.275 16.5 9C16.5 8.725 16.275 8.5 16 8.5H14Z" fill="white"/>
<defs>
<linearGradient id="paint0_linear_869_11546" x1="0" y1="15" x2="46.0825" y2="14.9999" gradientUnits="userSpaceOnUse">
<stop stop-color="#003383"/>
<stop offset="1" stop-color="#00DFDF"/>
</linearGradient>
</defs>
</svg>
