<svg width="30" height="30" viewBox="0 0 30 30" fill="none" xmlns="http://www.w3.org/2000/svg">
<rect width="30" height="30" rx="15" fill="url(#paint0_linear_869_11577)"/>
<path d="M22.2266 10.3145V7.8125C22.2266 7.4668 21.9473 7.1875 21.6016 7.1875H8.39845C8.05275 7.1875 7.77345 7.4668 7.77345 7.8125V10.3145C7.44728 10.334 7.18751 10.6055 7.18751 10.9375V13.5098C7.18626 13.9825 7.28198 14.4505 7.46876 14.8848C7.55275 15.084 7.65626 15.2715 7.77345 15.4492V22.1875C7.77345 22.5312 8.05275 22.8125 8.39845 22.8125H13.75V19.375H16.25V22.8125H21.6016C21.9473 22.8125 22.2266 22.5332 22.2266 22.1875V15.4492C22.3456 15.271 22.4476 15.0821 22.5313 14.8848C22.7168 14.4492 22.8125 13.9863 22.8125 13.5098V10.9375C22.8125 10.6055 22.5527 10.334 22.2266 10.3145ZM20.8203 21.4082H17.5V18.75C17.5 18.4043 17.2207 18.125 16.875 18.125H13.125C12.7793 18.125 12.5 18.4043 12.5 18.75V21.4082H9.1797V16.6777C9.23634 16.7051 9.29493 16.7324 9.35548 16.7559C9.79103 16.9395 10.2539 17.0312 10.7305 17.0312C11.207 17.0312 11.668 16.9395 12.1055 16.7559C12.375 16.6426 12.6289 16.498 12.8613 16.3242C12.8652 16.3223 12.8692 16.3223 12.8731 16.3242C13.1062 16.4988 13.3601 16.6438 13.6289 16.7559C14.0645 16.9395 14.5274 17.0312 15.0039 17.0312C15.4805 17.0312 15.9414 16.9395 16.3789 16.7559C16.6484 16.6426 16.9024 16.498 17.1348 16.3242C17.1387 16.3223 17.1426 16.3223 17.1465 16.3242C17.3796 16.4988 17.6335 16.6438 17.9024 16.7559C18.3379 16.9395 18.8008 17.0312 19.2774 17.0312C19.7539 17.0312 20.2149 16.9395 20.6524 16.7559C20.7109 16.7305 20.7695 16.7051 20.8281 16.6777V21.4082H20.8203ZM20.8203 10.3125H9.1797V8.59375H20.8203V10.3125Z" fill="white"/>
<defs>
<linearGradient id="paint0_linear_869_11577" x1="0" y1="15" x2="46.0825" y2="14.9999" gradientUnits="userSpaceOnUse">
<stop stop-color="#003383"/>
<stop offset="1" stop-color="#00DFDF"/>
</linearGradient>
</defs>
</svg>
