<svg width="30" height="30" viewBox="0 0 30 30" fill="none" xmlns="http://www.w3.org/2000/svg">
<rect width="30" height="30" rx="15" fill="url(#paint0_linear_869_11539)"/>
<path d="M18.625 7.96875H11.375C10.8234 7.96875 10.375 8.41719 10.375 8.96875V20.9688C10.375 21.5203 10.8234 21.9688 11.375 21.9688H18.625C19.1766 21.9688 19.625 21.5203 19.625 20.9688V8.96875C19.625 8.41719 19.1766 7.96875 18.625 7.96875ZM15 19.875C14.6547 19.875 14.375 19.5953 14.375 19.25C14.375 18.9047 14.6547 18.625 15 18.625C15.3453 18.625 15.625 18.9047 15.625 19.25C15.625 19.5953 15.3453 19.875 15 19.875Z" fill="white"/>
<defs>
<linearGradient id="paint0_linear_869_11539" x1="0" y1="15" x2="46.0825" y2="14.9999" gradientUnits="userSpaceOnUse">
<stop stop-color="#003383"/>
<stop offset="1" stop-color="#00DFDF"/>
</linearGradient>
</defs>
</svg>
