<svg width="30" height="30" viewBox="0 0 30 30" fill="none" xmlns="http://www.w3.org/2000/svg">
<rect width="30" height="30" rx="15" fill="url(#paint0_linear_869_11560)"/>
<path d="M17.5 15.3125L14 19.6875L12.5 17.9344" stroke="white" stroke-linecap="round" stroke-linejoin="round"/>
<path d="M11.25 11.875V10.625C11.25 9.63044 11.6451 8.67661 12.3483 7.97335C13.0516 7.27009 14.0054 6.875 15 6.875C15.9946 6.875 16.9484 7.27009 17.6517 7.97335C18.3549 8.67661 18.75 9.63044 18.75 10.625V11.875M8.125 11.875C7.95924 11.875 7.80027 11.9408 7.68306 12.0581C7.56585 12.1753 7.5 12.3342 7.5 12.5V20.9375C7.5 22.1187 8.50625 23.125 9.6875 23.125H20.3125C21.4937 23.125 22.5 22.1676 22.5 20.9863V12.5C22.5 12.3342 22.4342 12.1753 22.3169 12.0581C22.1997 11.9408 22.0408 11.875 21.875 11.875H8.125Z" stroke="white" stroke-width="2" stroke-linecap="round" stroke-linejoin="round"/>
<defs>
<linearGradient id="paint0_linear_869_11560" x1="0" y1="15" x2="46.0825" y2="14.9999" gradientUnits="userSpaceOnUse">
<stop stop-color="#003383"/>
<stop offset="1" stop-color="#00DFDF"/>
</linearGradient>
</defs>
</svg>
