<svg width="46" height="46" viewBox="0 0 46 46" fill="none" xmlns="http://www.w3.org/2000/svg">
<path d="M9.58376 26.8334H34.7606C36.7018 26.8334 37.6724 26.8334 38.4451 26.4714C39.1258 26.1526 39.6977 25.6407 40.0898 24.9994C40.5348 24.2714 40.642 23.3067 40.8564 21.3774L41.9776 11.286C42.0431 10.6967 42.0759 10.4021 41.9811 10.174C41.8979 9.97371 41.7492 9.80757 41.5593 9.70274C41.3431 9.58337 41.0466 9.58337 40.4537 9.58337H8.62543M3.8335 3.83337H6.22634C6.73353 3.83337 6.98713 3.83337 7.18553 3.92983C7.3602 4.01474 7.50494 4.15072 7.60058 4.31975C7.70923 4.51175 7.72505 4.76486 7.75669 5.27106L9.49364 33.0624C9.52528 33.5686 9.5411 33.8217 9.64974 34.0137C9.74539 34.1827 9.89013 34.3187 10.0648 34.4036C10.2632 34.5 10.5168 34.5 11.024 34.5H36.4168M14.3752 41.2084H14.3943M31.6252 41.2084H31.6443M15.3335 41.2084C15.3335 41.7376 14.9044 42.1667 14.3752 42.1667C13.8459 42.1667 13.4168 41.7376 13.4168 41.2084C13.4168 40.6791 13.8459 40.25 14.3752 40.25C14.9044 40.25 15.3335 40.6791 15.3335 41.2084ZM32.5835 41.2084C32.5835 41.7376 32.1544 42.1667 31.6252 42.1667C31.0959 42.1667 30.6668 41.7376 30.6668 41.2084C30.6668 40.6791 31.0959 40.25 31.6252 40.25C32.1544 40.25 32.5835 40.6791 32.5835 41.2084Z" stroke="white" stroke-width="2" stroke-linecap="round" stroke-linejoin="round"/>
</svg>
