<svg width="46" height="46" viewBox="0 0 46 46" fill="none" xmlns="http://www.w3.org/2000/svg">
<path d="M10.58 5.06004L7.59 9.0467C6.99778 9.83633 6.70167 10.2311 6.70854 10.5616C6.71452 10.8492 6.84937 11.1189 7.07585 11.2963C7.33612 11.5 7.82963 11.5 8.81667 11.5H37.1833C38.1704 11.5 38.6639 11.5 38.9241 11.2963C39.1506 11.1189 39.2855 10.8492 39.2915 10.5616C39.2983 10.2311 39.0022 9.83633 38.41 9.0467L35.42 5.06004M10.58 5.06004C10.9173 4.61026 11.086 4.38538 11.2998 4.22318C11.4891 4.07952 11.7035 3.97233 11.932 3.90706C12.19 3.83337 12.4711 3.83337 13.0333 3.83337H32.9667C33.5289 3.83337 33.81 3.83337 34.068 3.90706C34.2965 3.97233 34.5109 4.07952 34.7002 4.22318C34.914 4.38538 35.0827 4.61026 35.42 5.06004M10.58 5.06004L6.97667 9.86448C6.52153 10.4713 6.29397 10.7747 6.13237 11.1089C5.98898 11.4054 5.8844 11.7191 5.82121 12.0424C5.75 12.4066 5.75 12.7859 5.75 13.5445L5.75 36.0334C5.75 38.1802 5.75 39.2537 6.16781 40.0737C6.53532 40.795 7.12175 41.3814 7.84304 41.7489C8.66303 42.1667 9.73646 42.1667 11.8833 42.1667L34.1167 42.1667C36.2635 42.1667 37.337 42.1667 38.157 41.7489C38.8782 41.3814 39.4647 40.795 39.8322 40.0737C40.25 39.2537 40.25 38.1802 40.25 36.0334V13.5445C40.25 12.7859 40.25 12.4067 40.1788 12.0424C40.1156 11.7191 40.011 11.4054 39.8676 11.1089C39.706 10.7748 39.4785 10.4713 39.0233 9.86448L35.42 5.06004M30.6667 19.1667C30.6667 21.2 29.8589 23.1501 28.4212 24.5879C26.9834 26.0256 25.0333 26.8334 23 26.8334C20.9667 26.8334 19.0166 26.0256 17.5788 24.5879C16.1411 23.1501 15.3333 21.2 15.3333 19.1667" stroke="white" stroke-width="2" stroke-linecap="round" stroke-linejoin="round"/>
</svg>
