<svg width="30" height="30" viewBox="0 0 30 30" fill="none" xmlns="http://www.w3.org/2000/svg">
<rect width="30" height="30" rx="15" fill="url(#paint0_linear_869_11536)"/>
<g clip-path="url(#clip0_869_11536)">
<path d="M7 7H11.8V8.6H18.2V7H23V11.8H21.4V18.2H23V23H18.2V21.4H11.8V23H7V18.2H8.6V11.8H7V7ZM18.2 11.8V10.2H11.8V11.8H10.2V18.2H11.8V19.8H18.2V18.2H19.8V11.8M8.6 8.6V10.2H10.2V8.6M19.8 8.6V10.2H21.4V8.6M8.6 19.8V21.4H10.2V19.8M19.8 19.8V21.4H21.4V19.8H19.8Z" fill="white"/>
</g>
<defs>
<linearGradient id="paint0_linear_869_11536" x1="0" y1="15" x2="46.0825" y2="14.9999" gradientUnits="userSpaceOnUse">
<stop stop-color="#003383"/>
<stop offset="1" stop-color="#00DFDF"/>
</linearGradient>
<clipPath id="clip0_869_11536">
<rect width="16" height="16" fill="white" transform="translate(7 7)"/>
</clipPath>
</defs>
</svg>
