<svg width="26" height="26" viewBox="0 0 26 26" fill="none" xmlns="http://www.w3.org/2000/svg">
<path d="M9.25 13H3.75C3.04993 13 2.6999 13 2.43251 13.1362C2.19731 13.2561 2.00608 13.4473 1.88624 13.6825C1.75 13.9499 1.75 14.2999 1.75 15V22.25C1.75 22.9501 1.75 23.3001 1.88624 23.5675C2.00608 23.8027 2.19731 23.9939 2.43251 24.1138C2.6999 24.25 3.04993 24.25 3.75 24.25H9.25M9.25 24.25H16.75M9.25 24.25L9.25 8.75C9.25 8.04993 9.25 7.6999 9.38624 7.43251C9.50608 7.19731 9.69731 7.00608 9.93251 6.88624C10.1999 6.75 10.5499 6.75 11.25 6.75H14.75C15.4501 6.75 15.8001 6.75 16.0675 6.88624C16.3027 7.00608 16.4939 7.19731 16.6138 7.43251C16.75 7.6999 16.75 8.04993 16.75 8.75V24.25M16.75 24.25H22.25C22.9501 24.25 23.3001 24.25 23.5675 24.1138C23.8027 23.9939 23.9939 23.8027 24.1138 23.5675C24.25 23.3001 24.25 22.9501 24.25 22.25V3.75C24.25 3.04993 24.25 2.6999 24.1138 2.43251C23.9939 2.19731 23.8027 2.00608 23.5675 1.88624C23.3001 1.75 22.9501 1.75 22.25 1.75H18.75C18.0499 1.75 17.6999 1.75 17.4325 1.88624C17.1973 2.00608 17.0061 2.19731 16.8862 2.43251C16.75 2.6999 16.75 3.04993 16.75 3.75V8" stroke="white" stroke-width="2" stroke-linecap="round" stroke-linejoin="round"/>
</svg>
