<svg width="28" height="28" viewBox="0 0 28 28" fill="none" xmlns="http://www.w3.org/2000/svg">
<path d="M10.25 10.25H10.2625M17.75 17.75H17.7625M19 9L9 19M10.5024 24.7511C10.9121 24.6969 11.3259 24.808 11.6523 25.0594L13.1563 26.2136C13.6535 26.5955 14.3451 26.5955 14.8409 26.2136L16.4019 25.015C16.6935 24.7914 17.0616 24.6928 17.4254 24.7414L19.378 24.9983C19.9988 25.0802 20.5974 24.7344 20.8376 24.1553L21.589 22.3387C21.7292 21.9984 21.9986 21.729 22.3389 21.5887L24.1554 20.8373C24.7345 20.5984 25.0803 19.9984 24.9984 19.3776L24.7512 17.4957C24.697 17.086 24.8081 16.6721 25.0595 16.3458L26.2136 14.8416C26.5955 14.3444 26.5955 13.6528 26.2136 13.157L25.0151 11.5959C24.7915 11.3042 24.6929 10.9362 24.7415 10.5723L24.9984 8.61959C25.0803 7.99878 24.7345 7.40018 24.1554 7.15991L22.3389 6.40854C21.9986 6.26827 21.7292 5.99883 21.589 5.65856L20.8376 3.84195C20.5988 3.2628 19.9988 2.91697 19.378 2.99892L17.4254 3.25585C17.0616 3.30585 16.6935 3.20724 16.4033 2.98503L14.8423 1.78645C14.3451 1.40452 13.6535 1.40452 13.1577 1.78645L11.5967 2.98503C11.3051 3.20724 10.9371 3.30585 10.5732 3.25863L8.62059 3.00169C7.99981 2.91975 7.40124 3.26558 7.16099 3.84473L6.41105 5.66134C6.26939 6.00022 5.99997 6.26966 5.66111 6.41132L3.8446 7.1613C3.26548 7.40157 2.91967 8.00017 3.00161 8.62098L3.25853 10.5737C3.30575 10.9376 3.20715 11.3056 2.98495 11.5959L1.78643 13.157C1.40452 13.6542 1.40452 14.3458 1.78643 14.8416L2.98495 16.4027C3.20854 16.6944 3.30714 17.0624 3.25853 17.4263L3.00161 19.379C2.91967 19.9998 3.26548 20.5984 3.8446 20.8387L5.66111 21.5901C6.00136 21.7303 6.27078 21.9998 6.41105 22.34L7.16238 24.1567C7.40124 24.7358 8.00119 25.0816 8.62198 24.9997L10.5024 24.7511ZM10.875 10.25C10.875 10.5952 10.5952 10.875 10.25 10.875C9.90482 10.875 9.625 10.5952 9.625 10.25C9.625 9.90482 9.90482 9.625 10.25 9.625C10.5952 9.625 10.875 9.90482 10.875 10.25ZM18.375 17.75C18.375 18.0952 18.0952 18.375 17.75 18.375C17.4048 18.375 17.125 18.0952 17.125 17.75C17.125 17.4048 17.4048 17.125 17.75 17.125C18.0952 17.125 18.375 17.4048 18.375 17.75Z" stroke="white" stroke-width="2" stroke-linecap="round" stroke-linejoin="round"/>
</svg>
