<svg width="26" height="26" viewBox="0 0 26 26" fill="none" xmlns="http://www.w3.org/2000/svg">
<path d="M9.25 24.25H3.75C3.04993 24.25 2.6999 24.25 2.43251 24.1138C2.19731 23.9939 2.00608 23.8027 1.88624 23.5675C1.75 23.3001 1.75 22.9501 1.75 22.25V3.75C1.75 3.04993 1.75 2.6999 1.88624 2.43251C2.00608 2.19731 2.19731 2.00608 2.43251 1.88624C2.6999 1.75 3.04993 1.75 3.75 1.75H7.25C7.95007 1.75 8.3001 1.75 8.56749 1.88624C8.80269 2.00608 8.99392 2.19731 9.11376 2.43251C9.25 2.6999 9.25 3.04993 9.25 3.75V6.75M9.25 24.25H16.75M9.25 24.25L9.25 6.75M9.25 6.75H14.75C15.4501 6.75 15.8001 6.75 16.0675 6.88624C16.3027 7.00608 16.4939 7.19731 16.6138 7.43251C16.75 7.6999 16.75 8.04993 16.75 8.75V24.25M16.75 11.75H22.25C22.9501 11.75 23.3001 11.75 23.5675 11.8862C23.8027 12.0061 23.9939 12.1973 24.1138 12.4325C24.25 12.6999 24.25 13.0499 24.25 13.75V22.25C24.25 22.9501 24.25 23.3001 24.1138 23.5675C23.9939 23.8027 23.8027 23.9939 23.5675 24.1138C23.3001 24.25 22.9501 24.25 22.25 24.25H16.75" stroke="black" stroke-width="2" stroke-linecap="round" stroke-linejoin="round"/>
</svg>
