<svg width="45" height="46" viewBox="0 0 45 46" fill="none" xmlns="http://www.w3.org/2000/svg">
<g id="users-01">
<path id="Icon" d="M40.9648 39.4429V35.7241C40.9648 32.2585 38.5946 29.3466 35.3867 28.5209M28.8789 6.51475C31.6046 7.61808 33.5273 10.2903 33.5273 13.4116C33.5273 16.5329 31.6046 19.2052 28.8789 20.3085M31.668 39.4429C31.668 35.9774 31.668 34.2447 31.1018 32.8779C30.347 31.0555 28.8991 29.6076 27.0767 28.8528C25.7099 28.2866 23.9772 28.2866 20.5117 28.2866H14.9336C11.4682 28.2866 9.73543 28.2866 8.36863 28.8528C6.54624 29.6076 5.09835 31.0555 4.34349 32.8779C3.77734 34.2447 3.77734 35.9774 3.77734 39.4429M25.1602 13.4116C25.1602 17.5192 21.8303 20.8491 17.7227 20.8491C13.615 20.8491 10.2852 17.5192 10.2852 13.4116C10.2852 9.304 13.615 5.97412 17.7227 5.97412C21.8303 5.97412 25.1602 9.304 25.1602 13.4116Z" stroke="black" stroke-width="2.47917" stroke-linecap="round" stroke-linejoin="round"/>
</g>
</svg>
