<svg width="201" height="223" viewBox="0 0 201 223" fill="none" xmlns="http://www.w3.org/2000/svg">
<path id="Vector" d="M100.5 223C24.715 196.144 -4.32496 116.099 0.513717 51.7596C22.8145 46.4579 37.1293 32.5959 44.1873 9.47578C80.4657 -3.15859 120.534 -3.15859 156.813 9.47578C163.871 32.5959 178.185 46.4579 200.486 51.7596C205.325 116.099 176.285 196.144 100.5 223ZM187.999 58.3321C169.439 51.3951 156.219 38.0127 148.688 18.5565C148.506 18.0844 148.208 17.6568 147.818 17.3064C147.428 16.956 146.956 16.6922 146.437 16.5351C116.593 7.56711 84.4073 7.56711 54.5626 16.5351C54.0442 16.6922 53.5719 16.956 53.1818 17.3064C52.7916 17.6568 52.4941 18.0844 52.3119 18.5565C44.7807 38.0127 31.5534 51.4071 13.0012 58.3321C12.3564 58.5738 11.8023 58.9826 11.4068 59.5085C11.0113 60.0344 10.7914 60.6547 10.774 61.2934C9.80345 91.6412 16.6542 121.771 30.7692 149.232C46.3361 178.45 69.9518 200.086 99.0622 211.802C99.5152 211.985 100.005 212.08 100.5 212.08C100.995 212.08 101.485 211.985 101.938 211.802C131.048 200.086 154.664 178.45 170.231 149.232C184.346 121.771 191.197 91.6412 190.226 61.2934C190.209 60.6547 189.989 60.0344 189.593 59.5085C189.198 58.9826 188.644 58.5738 187.999 58.3321ZM100.5 205.201C38.3344 179.309 17.1811 113.394 17.8948 63.5618C36.7894 55.8887 50.4193 42.0051 58.4576 22.2851C85.8331 14.4058 115.183 14.4058 142.558 22.2851C150.589 42.0051 164.218 55.8695 183.105 63.5618C183.819 113.394 162.666 179.309 100.5 205.201ZM128.1 83.6055H126.688V64.1013C126.688 57.7304 123.929 51.6204 119.018 47.1154C114.106 42.6105 107.445 40.0796 100.5 40.0796C93.5545 40.0796 86.8935 42.6105 81.9823 47.1154C77.0711 51.6204 74.312 57.7304 74.312 64.1013V83.6055H72.9005C69.0005 83.6093 65.2615 85.0321 62.5039 87.5616C59.7462 90.0912 58.1951 93.5209 58.191 97.0982V135.164C58.1924 138.743 59.7422 142.175 62.5002 144.707C65.2581 147.239 68.9987 148.663 72.9005 148.666H128.1C131.999 148.663 135.738 147.24 138.496 144.71C141.254 142.181 142.805 138.751 142.809 135.174V97.0982C142.805 93.5209 141.254 90.0912 138.496 87.5616C135.738 85.0321 131.999 83.6093 128.1 83.6055ZM81.4694 64.1013C81.4694 59.4716 83.4744 55.0315 87.0434 51.7578C90.6123 48.4841 95.4528 46.6449 100.5 46.6449C105.547 46.6449 110.388 48.4841 113.957 51.7578C117.526 55.0315 119.531 59.4716 119.531 64.1013V83.6055H81.4694V64.1013ZM135.649 135.164C135.647 137 134.851 138.76 133.436 140.059C132.02 141.357 130.101 142.087 128.1 142.089H72.9005C70.8988 142.087 68.9798 141.357 67.5644 140.059C66.1491 138.76 65.353 137 65.351 135.164V97.0982C65.3537 95.2624 66.15 93.5024 67.5652 92.2043C68.9804 90.9062 70.8991 90.1757 72.9005 90.1732H128.1C130.101 90.1757 132.02 90.9062 133.435 92.2043C134.85 93.5024 135.646 95.2624 135.649 97.0982V135.164ZM100.5 99.6375C97.9754 99.6329 95.5305 100.448 93.5981 101.938C91.6657 103.428 90.3705 105.498 89.9419 107.78C89.5134 110.062 89.979 112.41 91.2564 114.407C92.5338 116.404 94.5405 117.923 96.9213 118.693V129.347C96.9213 130.218 97.2983 131.053 97.9695 131.668C98.6406 132.284 99.5509 132.63 100.5 132.63C101.449 132.63 102.359 132.284 103.031 131.668C103.702 131.053 104.079 130.218 104.079 129.347V118.693C106.459 117.923 108.466 116.404 109.744 114.407C111.021 112.41 111.487 110.062 111.058 107.78C110.629 105.498 109.334 103.428 107.402 101.938C105.47 100.448 103.025 99.6329 100.5 99.6375ZM100.5 106.205C101.2 106.205 101.884 106.396 102.466 106.752C103.048 107.109 103.502 107.616 103.77 108.21C104.038 108.803 104.108 109.456 103.971 110.085C103.835 110.715 103.498 111.294 103.003 111.748C102.508 112.202 101.877 112.511 101.191 112.636C100.504 112.762 99.7923 112.697 99.1455 112.452C98.4987 112.206 97.946 111.79 97.557 111.256C97.1681 110.722 96.9605 110.094 96.9605 109.452C96.9612 108.591 97.3343 107.766 97.998 107.157C98.6616 106.548 99.5615 106.206 100.5 106.205Z" fill="black"/>
</svg>
