<svg width="45" height="45" viewBox="0 0 45 45" fill="none" xmlns="http://www.w3.org/2000/svg">
<g id="wallet-01">
<path id="Icon" d="M40.9648 16.1379H3.77734M3.77734 23.5754H10.3719C11.3764 23.5754 11.8786 23.5754 12.3642 23.662C12.7952 23.7388 13.2157 23.8662 13.617 24.0413C14.0691 24.2387 14.4869 24.5172 15.3226 25.0744L16.4039 25.7952C17.2396 26.3524 17.6575 26.631 18.1096 26.8283C18.5108 27.0035 18.9313 27.1308 19.3624 27.2076C19.848 27.2942 20.3502 27.2942 21.3546 27.2942H23.3876C24.392 27.2942 24.8942 27.2942 25.3798 27.2076C25.8108 27.1308 26.2313 27.0035 26.6326 26.8283C27.0847 26.631 27.5025 26.3524 28.3383 25.7952L29.4195 25.0744C30.2553 24.5172 30.6731 24.2387 31.1252 24.0413C31.5265 23.8662 31.947 23.7388 32.378 23.662C32.8636 23.5754 33.3658 23.5754 34.3702 23.5754H40.9648M3.77734 13.7208L3.77734 31.5707C3.77734 33.6534 3.77734 34.6948 4.18266 35.4903C4.53919 36.19 5.10809 36.7589 5.80782 37.1154C6.6033 37.5207 7.64465 37.5207 9.72734 37.5207L35.0148 37.5208C37.0975 37.5208 38.1389 37.5208 38.9344 37.1154C39.6341 36.7589 40.203 36.19 40.5595 35.4903C40.9648 34.6948 40.9648 33.6534 40.9648 31.5708V13.7208C40.9648 11.6381 40.9648 10.5967 40.5595 9.80123C40.203 9.1015 39.6341 8.5326 38.9344 8.17607C38.1389 7.77075 37.0975 7.77075 35.0148 7.77075L9.72734 7.77075C7.64465 7.77075 6.6033 7.77075 5.80782 8.17607C5.10809 8.5326 4.53919 9.1015 4.18266 9.80122C3.77734 10.5967 3.77734 11.6381 3.77734 13.7208Z" stroke="black" stroke-width="2.47917" stroke-linecap="round" stroke-linejoin="round"/>
</g>
</svg>
