<svg width="30" height="30" viewBox="0 0 30 30" fill="none" xmlns="http://www.w3.org/2000/svg">
<rect width="30" height="30" rx="15" fill="url(#paint0_linear_869_11732)"/>
<g clip-path="url(#clip0_869_11732)">
<path d="M21.7094 5.79375C21.8031 5.89062 21.875 6 21.925 6.11563C21.975 6.23125 22 6.35938 22 6.49687V6.5V9.5C22 10.0531 21.5531 10.5 21 10.5C20.4469 10.5 20 10.0531 20 9.5V8.91563L16.7063 12.2063C16.3375 12.575 15.7438 12.6 15.3469 12.2594L12.5 9.81563L9.65 12.2594C9.23125 12.6188 8.6 12.5687 8.24063 12.15C7.88125 11.7313 7.93125 11.1 8.35 10.7406L11.85 7.74062C12.225 7.41875 12.7781 7.41875 13.1531 7.74062L15.95 10.1375L18.5844 7.5H18C17.4469 7.5 17 7.05313 17 6.5C17 5.94687 17.4469 5.5 18 5.5H21C21.275 5.5 21.525 5.6125 21.7063 5.79063L21.7094 5.79375ZM7 15C7 14.1719 7.67188 13.5 8.5 13.5H21.5C22.3281 13.5 23 14.1719 23 15V20C23 20.8281 22.3281 21.5 21.5 21.5H8.5C7.67188 21.5 7 20.8281 7 20V15ZM8.5 18.5V20H10C10 19.1719 9.32812 18.5 8.5 18.5ZM10 15H8.5V16.5C9.32812 16.5 10 15.8281 10 15ZM21.5 18.5C20.6719 18.5 20 19.1719 20 20H21.5V18.5ZM20 15C20 15.8281 20.6719 16.5 21.5 16.5V15H20ZM17 17.5C17 16.9696 16.7893 16.4609 16.4142 16.0858C16.0391 15.7107 15.5304 15.5 15 15.5C14.4696 15.5 13.9609 15.7107 13.5858 16.0858C13.2107 16.4609 13 16.9696 13 17.5C13 18.0304 13.2107 18.5391 13.5858 18.9142C13.9609 19.2893 14.4696 19.5 15 19.5C15.5304 19.5 16.0391 19.2893 16.4142 18.9142C16.7893 18.5391 17 18.0304 17 17.5Z" fill="white"/>
</g>
<defs>
<linearGradient id="paint0_linear_869_11732" x1="0" y1="15" x2="46.0825" y2="14.9999" gradientUnits="userSpaceOnUse">
<stop stop-color="#003383"/>
<stop offset="1" stop-color="#00DFDF"/>
</linearGradient>
<clipPath id="clip0_869_11732">
<rect width="16" height="16" fill="white" transform="translate(7 5.5)"/>
</clipPath>
</defs>
</svg>
