<svg width="30" height="30" viewBox="0 0 30 30" fill="none" xmlns="http://www.w3.org/2000/svg">
<rect width="30" height="30" rx="15" fill="url(#paint0_linear_869_11693)"/>
<path d="M18.1922 11.9031C18.489 11.6078 18.489 11.1266 18.1922 10.8313L17.1 9.73908L17.1015 9.74064C16.8125 9.45158 16.3156 8.9547 15.6125 8.25314C15.2812 7.9297 14.7453 7.93283 14.4172 8.26095L8.26405 14.4094C8.18533 14.4876 8.12285 14.5806 8.08021 14.683C8.03757 14.7855 8.01562 14.8953 8.01562 15.0063C8.01562 15.1172 8.03757 15.2271 8.08021 15.3295C8.12285 15.432 8.18533 15.525 8.26405 15.6031L14.4156 21.75C14.5742 21.9083 14.7892 21.9973 15.0133 21.9973C15.2374 21.9973 15.4523 21.9083 15.6109 21.75L18.1906 19.1719C18.4875 18.8766 18.4875 18.3953 18.1906 18.1C18.048 17.9581 17.855 17.8785 17.6539 17.8785C17.4527 17.8785 17.2598 17.9581 17.1172 18.1L15.164 20.0563C15.0828 20.1375 14.9562 20.1375 14.875 20.0563L9.96092 15.1469C9.87967 15.0656 9.87967 14.9391 9.96092 14.8578L14.8734 9.94845C14.8797 9.9422 14.8875 9.93752 14.8937 9.93127C14.975 9.8672 15.0875 9.87345 15.1625 9.94845L17.1187 11.9031C17.4156 12.2 17.8969 12.2 18.1922 11.9031ZM13.3844 15.0375C13.3844 15.4776 13.5594 15.8997 13.8708 16.2109C14.1823 16.5221 14.6048 16.6969 15.0453 16.6969C15.4858 16.6969 15.9083 16.5221 16.2198 16.2109C16.5312 15.8997 16.7062 15.4776 16.7062 15.0375C16.7062 14.5974 16.5312 14.1754 16.2198 13.8642C15.9083 13.553 15.4858 13.3781 15.0453 13.3781C14.6048 13.3781 14.1823 13.553 13.8708 13.8642C13.5594 14.1754 13.3844 14.5974 13.3844 15.0375ZM21.7625 14.4344L19.8422 12.5235C19.5453 12.2281 19.064 12.2281 18.7687 12.525C18.6982 12.5953 18.6421 12.6788 18.6039 12.7708C18.5657 12.8627 18.546 12.9614 18.546 13.061C18.546 13.1605 18.5657 13.2592 18.6039 13.3511C18.6421 13.4431 18.6982 13.5266 18.7687 13.5969L20.0656 14.8922C20.1469 14.9735 20.1469 15.1 20.0656 15.1813L18.7875 16.4578C18.7169 16.5281 18.6609 16.6116 18.6227 16.7036C18.5845 16.7956 18.5648 16.8942 18.5648 16.9938C18.5648 17.0934 18.5845 17.192 18.6227 17.2839C18.6609 17.3759 18.7169 17.4594 18.7875 17.5297C18.9301 17.6716 19.1231 17.7512 19.3242 17.7512C19.5254 17.7512 19.7183 17.6716 19.8609 17.5297L21.764 15.6281C21.8425 15.5498 21.9047 15.4566 21.9471 15.3542C21.9895 15.2517 22.0113 15.1418 22.0111 15.0309C22.011 14.92 21.9889 14.8103 21.9463 14.7079C21.9036 14.6055 21.8411 14.5126 21.7625 14.4344Z" fill="white"/>
<defs>
<linearGradient id="paint0_linear_869_11693" x1="0" y1="15" x2="46.0825" y2="14.9999" gradientUnits="userSpaceOnUse">
<stop stop-color="#003383"/>
<stop offset="1" stop-color="#00DFDF"/>
</linearGradient>
</defs>
</svg>
