<svg width="30" height="30" viewBox="0 0 30 30" fill="none" xmlns="http://www.w3.org/2000/svg">
<rect width="30" height="30" rx="15" fill="url(#paint0_linear_869_11698)"/>
<path d="M20.75 8.75H9.25C8.97344 8.75 8.75 8.97344 8.75 9.25V20.75C8.75 21.0266 8.97344 21.25 9.25 21.25H20.75C21.0266 21.25 21.25 21.0266 21.25 20.75V9.25C21.25 8.97344 21.0266 8.75 20.75 8.75ZM17.8672 12.7141L14.5766 17.2766C14.5306 17.3408 14.4699 17.3931 14.3997 17.4291C14.3295 17.4652 14.2516 17.4841 14.1727 17.4841C14.0937 17.4841 14.0159 17.4652 13.9456 17.4291C13.8754 17.3931 13.8147 17.3408 13.7688 17.2766L11.8203 14.5766C11.7609 14.4938 11.8203 14.3781 11.9219 14.3781H12.6547C12.8141 14.3781 12.9656 14.4547 13.0594 14.5859L14.1719 16.1297L16.6281 12.7234C16.7219 12.5937 16.8719 12.5156 17.0328 12.5156H17.7656C17.8672 12.5156 17.9266 12.6313 17.8672 12.7141Z" fill="white"/>
<defs>
<linearGradient id="paint0_linear_869_11698" x1="0" y1="15" x2="46.0825" y2="14.9999" gradientUnits="userSpaceOnUse">
<stop stop-color="#003383"/>
<stop offset="1" stop-color="#00DFDF"/>
</linearGradient>
</defs>
</svg>
