<svg width="30" height="30" viewBox="0 0 30 30" fill="none" xmlns="http://www.w3.org/2000/svg">
<rect width="30" height="30" rx="15" fill="url(#paint0_linear_869_11703)"/>
<path d="M21.6667 11C21.6667 10.466 21.4587 9.96333 21.0807 9.586C20.7033 9.208 20.2007 9 19.6667 9C19.1327 9 18.63 9.208 18.2527 9.586L17.664 10.1747C17.31 9.85867 16.844 9.66667 16.3333 9.66667C15.7207 9.66667 15.1787 9.94933 14.8113 10.3847C14.67 10.3533 14.524 10.3333 14.374 10.3333H10.3333V14.3733C10.3333 14.5433 10.3613 14.706 10.4013 14.864C10.0027 15.23 9.748 15.7507 9.748 16.3333C9.748 16.8233 9.92533 17.2727 10.218 17.6207L9.58667 18.2527C9.208 18.63 9 19.1327 9 19.6667C9 20.2007 9.208 20.7033 9.586 21.0807C9.96333 21.4587 10.466 21.6667 11 21.6667C11.3593 21.6667 11.8893 21.5653 12.374 21.0807L12.976 20.468C13.3327 20.798 13.81 21 14.3333 21C14.956 21 15.5053 20.7087 15.8727 20.262C16.0333 20.304 16.1993 20.3333 16.374 20.3333H20.3333V16.2927C20.3333 16.142 20.314 15.9967 20.282 15.8553C20.7173 15.4887 21 14.946 21 14.3333C21 13.8227 20.808 13.3567 20.492 13.0027L21.0807 12.414C21.4587 12.0367 21.6667 11.534 21.6667 11ZM11.6667 11.6667H14.3333C14.702 11.6667 15 11.9653 15 12.3333C15 12.7013 14.702 13 14.3333 13H13V14.3333C13 14.7013 12.7013 15 12.3333 15C11.9647 15 11.6667 14.7013 11.6667 14.3333V11.6667ZM20.138 11.4713L17.9427 13.6667H19C19.3687 13.6667 19.6667 13.9653 19.6667 14.3333C19.6667 14.7013 19.368 15 19 15H15.6667V11.6667C15.6667 11.2987 15.9647 11 16.3333 11C16.702 11 17 11.2987 17 11.6667V12.724L19.1953 10.5287C19.3253 10.3987 19.496 10.3333 19.6667 10.3333C19.8373 10.3333 20.008 10.3987 20.138 10.5287C20.3987 10.7893 20.3987 11.2107 20.138 11.4713ZM15 19C15 19.368 14.702 19.6667 14.3333 19.6667C13.9647 19.6667 13.6667 19.368 13.6667 19V17.862L11.4307 20.138C11.3007 20.268 11.1707 20.3333 11 20.3333C10.8293 20.3333 10.6587 20.268 10.5287 20.138C10.268 19.8773 10.268 19.456 10.5287 19.1953L12.724 17H11.7473C11.3787 17 11.0807 16.7013 11.0807 16.3333C11.0807 15.9653 11.3787 15.6667 11.7473 15.6667H15V19ZM15 15H13.4813C13.5967 14.8033 13.6667 14.5773 13.6667 14.3333V13.6667H14.374C14.602 13.6667 14.8127 13.604 15 13.5033V15ZM15.6667 15.6667H17.4753C17.1867 15.7293 17 15.8867 17 16.2927V17H16.374C16.1133 17 15.8727 17.078 15.6667 17.2073V15.6667ZM15.7073 18.3333C15.7073 17.9653 16.0053 17.6667 16.374 17.6667H17.6667V16.3333C17.6667 15.9653 17.9647 15.6667 18.3333 15.6667C18.702 15.6667 19 15.9653 19 16.3333V19H16.374C16.0053 19 15.7073 18.7013 15.7073 18.3333Z" fill="white"/>
<defs>
<linearGradient id="paint0_linear_869_11703" x1="0" y1="15" x2="46.0825" y2="14.9999" gradientUnits="userSpaceOnUse">
<stop stop-color="#003383"/>
<stop offset="1" stop-color="#00DFDF"/>
</linearGradient>
</defs>
</svg>
