<svg width="30" height="30" viewBox="0 0 30 30" fill="none" xmlns="http://www.w3.org/2000/svg">
<rect width="30" height="30" rx="15" fill="url(#paint0_linear_869_11708)"/>
<path d="M22.3438 20.4688H8.90625V8.28125C8.90625 8.19531 8.83594 8.125 8.75 8.125H7.65625C7.57031 8.125 7.5 8.19531 7.5 8.28125V21.7188C7.5 21.8047 7.57031 21.875 7.65625 21.875H22.3438C22.4297 21.875 22.5 21.8047 22.5 21.7188V20.625C22.5 20.5391 22.4297 20.4688 22.3438 20.4688ZM10.3125 19.2188H20.7812C20.8672 19.2188 20.9375 19.1484 20.9375 19.0625V10.5469C20.9375 10.4062 20.7676 10.3379 20.6699 10.4355L16.5625 14.543L14.1133 12.1211C14.0839 12.092 14.0443 12.0757 14.0029 12.0757C13.9616 12.0757 13.9219 12.092 13.8926 12.1211L10.2012 15.8242C10.1868 15.8386 10.1755 15.8556 10.1678 15.8744C10.1601 15.8932 10.1561 15.9133 10.1562 15.9336V19.0625C10.1562 19.1484 10.2266 19.2188 10.3125 19.2188Z" fill="white"/>
<defs>
<linearGradient id="paint0_linear_869_11708" x1="0" y1="15" x2="46.0825" y2="14.9999" gradientUnits="userSpaceOnUse">
<stop stop-color="#003383"/>
<stop offset="1" stop-color="#00DFDF"/>
</linearGradient>
</defs>
</svg>
