<svg width="36" height="36" viewBox="0 0 36 36" fill="none" xmlns="http://www.w3.org/2000/svg">
<g id="Group">
<path id="Vector" d="M27.0549 20.1789L23.8971 17.8693C23.417 17.5172 22.8303 17.3785 22.2435 17.4692C21.6567 17.5599 21.1447 17.8746 20.7926 18.3547L19.8165 19.6935C19.8058 19.7095 19.7951 19.7255 19.7845 19.7415C19.6351 19.7629 18.8457 19.7789 16.9574 18.2747L16.7547 18.1306C14.7811 16.8184 14.557 16.0663 14.5304 15.9116C14.541 15.8956 14.557 15.8796 14.5677 15.8636L15.5438 14.5248C16.2639 13.538 16.0506 12.1457 15.0584 11.4203L11.842 9.07329C10.8551 8.34785 9.46294 8.56655 8.7375 9.5587L7.75068 10.9136C6.79588 12.2258 6.54517 13.9487 7.08392 15.5222C7.86804 17.7999 9.83633 20.2056 12.9515 22.6806C13.0048 22.7446 13.0688 22.798 13.1381 22.8513C13.2128 22.9047 13.2928 22.958 13.3675 23.0114C13.4422 23.07 13.5169 23.1234 13.5916 23.182C13.6609 23.2354 13.7356 23.2781 13.8102 23.3101C17.1174 25.5184 20.0085 26.6652 22.4195 26.7132C22.4515 26.7132 22.4889 26.7132 22.5209 26.7132C24.0944 26.7132 25.5987 25.9398 26.5481 24.6329L27.535 23.2781C27.887 22.798 28.0257 22.2112 27.935 21.6245C27.8497 21.0431 27.535 20.5257 27.0549 20.1789ZM25.8174 22.0245L24.8306 23.3794C24.2651 24.1529 23.3583 24.5956 22.4675 24.5796C21.0273 24.5476 18.5096 23.9502 14.637 21.2884C10.9192 18.408 9.58029 16.1943 9.11089 14.8341C8.80151 13.9327 8.94019 12.9139 9.47894 12.1778L10.4658 10.8229C10.4924 10.7855 10.5458 10.7749 10.5884 10.8015L13.8049 13.1486C13.8423 13.1752 13.8529 13.2339 13.8263 13.2712L12.8928 14.5461C12.6101 14.8555 12.3594 15.3782 12.402 16.045C12.4874 17.2772 13.5222 18.5414 15.5385 19.8802L15.6612 19.9709C17.5868 21.5071 19.107 22.1099 20.3072 21.8165C20.9526 21.6565 21.374 21.2564 21.5821 20.8937L22.5155 19.6189C22.5422 19.5868 22.6062 19.5762 22.6382 19.5975L25.8014 21.9072C25.8334 21.9232 25.8387 21.9872 25.8174 22.0245Z" fill="black"/>
<path id="Vector_2" d="M17.5439 0C7.87317 0 0 7.86783 0 17.5439C0 21.6192 1.41354 25.5451 3.98992 28.6816L1.02949 34.4478C0.832124 34.8265 0.885465 35.2852 1.1575 35.6159C1.36554 35.8613 1.66425 36 1.97896 36C2.08031 36 2.18166 35.984 2.28301 35.9573L10.3642 33.557C12.6259 34.5758 15.0369 35.0879 17.5386 35.0879C27.2094 35.0879 35.0825 27.22 35.0825 17.5439C35.0825 7.86783 27.2147 0 17.5439 0ZM17.5439 32.9489C15.2236 32.9489 12.9886 32.4475 10.9136 31.45C10.6736 31.338 10.4015 31.3166 10.1508 31.3913L4.07527 33.1996L6.21959 29.0176C6.42229 28.6229 6.35828 28.1482 6.0649 27.8175C3.53119 24.9904 2.13365 21.3365 2.13365 17.5439C2.13365 9.04667 9.04667 2.13365 17.5439 2.13365C26.0412 2.13365 32.9489 9.04667 32.9489 17.5439C32.9489 26.0412 26.0412 32.9489 17.5439 32.9489Z" fill="black"/>
</g>
</svg>
