<svg width="98" height="66" viewBox="0 0 98 66" fill="none" xmlns="http://www.w3.org/2000/svg">
<path fill-rule="evenodd" clip-rule="evenodd" d="M91.4235 0.956543H6.09034C2.73797 0.956543 -0.00488281 3.70313 -0.00488281 7.06006V58.9399C-0.00488281 62.2969 2.73797 65.0435 6.09034 65.0435H91.4235C94.7759 65.0435 97.5188 62.2969 97.5188 58.9399V7.06006C97.5188 3.70313 94.7759 0.956543 91.4235 0.956543Z" fill="#3498D8"/>
<path fill-rule="evenodd" clip-rule="evenodd" d="M20.4081 33.9185H25.2843L22.8462 27.8149L20.4081 33.9185ZM88.3699 22.3218H75.8746L72.827 25.6787L70.0842 22.3218H43.5699L41.1319 27.8149L38.6938 22.3218H28.0271V24.7632L26.8081 22.3218H17.6652L8.82715 43.6841H19.4938L20.7128 40.3272H23.7605L24.9795 43.6841H36.8652V41.2427L37.7795 43.6841H43.8747L44.789 40.9375V43.6841H69.1699L72.2175 40.3272L74.9604 43.6841H87.4556L79.5318 33.0029L88.3699 22.3218ZM51.4937 40.6323H48.1414V28.7305L42.9604 40.6323H39.9128L34.7319 28.7305V40.6323H27.7224L26.5033 37.2754H19.189L17.97 40.6323H14.0081L20.4081 25.3735H25.589L31.3795 39.7168V25.3735H37.17L41.7414 35.7495L46.008 25.3735H51.7985V40.6323H51.4937ZM81.6651 40.6323H77.0937L73.1318 35.4443L68.5604 40.6323H54.8461V25.3735H68.8651L73.1318 30.2564L77.7032 25.3735H81.9699L75.2651 33.0029L81.6651 40.6323ZM58.1985 28.4253V31.1719H65.8175V34.2236H58.1985V37.2754H66.7318L70.6937 32.6978L67.0366 28.4253H58.1985Z" fill="white"/>
</svg>
