<svg width="103" height="68" viewBox="0 0 103 68" fill="none" xmlns="http://www.w3.org/2000/svg">
<g clip-path="url(#clip0_6207_3473)">
<path d="M6.99486 1.95652H96.4304C99.1395 1.95652 101.234 4.0513 101.234 6.51282V61.4872C101.234 63.9487 99.1395 66.0435 96.4304 66.0435H6.99486C4.28574 66.0435 2.1909 63.9487 2.1909 61.4872V6.51282C2.1909 4.0513 4.28574 1.95652 6.99486 1.95652Z" fill="white" stroke="#F3F3F3" stroke-width="2.91304"/>
<path fill-rule="evenodd" clip-rule="evenodd" d="M32.2092 24.408C31.4677 25.2954 30.2812 25.9952 29.0946 25.8952C28.9462 24.6954 29.527 23.4208 30.207 22.6336C30.9485 21.7213 32.2463 21.0714 33.297 21.0215C33.4206 22.2712 32.9385 23.4959 32.2092 24.408ZM33.2845 26.1327C32.2393 26.0719 31.2854 26.4505 30.515 26.7564C30.0192 26.9532 29.5993 27.1199 29.2799 27.1199C28.9215 27.1199 28.4843 26.9443 27.9935 26.747C27.3503 26.4888 26.615 26.1935 25.8438 26.2076C24.0764 26.2327 22.4325 27.2449 21.5301 28.8568C19.6761 32.0811 21.0481 36.8548 22.8403 39.4791C23.718 40.7787 24.7685 42.2035 26.1528 42.1534C26.7619 42.1302 27.2 41.9423 27.6533 41.7477C28.1752 41.5237 28.7175 41.2912 29.5641 41.2912C30.3815 41.2912 30.9001 41.5177 31.3978 41.7352C31.871 41.9421 32.3256 42.1406 33.0002 42.1284C34.4341 42.1035 35.3363 40.8288 36.214 39.5291C37.161 38.1342 37.577 36.7729 37.6403 36.5663L37.6477 36.5424C37.6477 36.5424 37.6345 36.5354 37.6138 36.5259C37.2972 36.3793 34.8775 35.2594 34.8543 32.256C34.8311 29.7353 36.7735 28.458 37.0794 28.2569C37.098 28.2446 37.1105 28.2363 37.1161 28.2321C35.8802 26.3826 33.952 26.1826 33.2845 26.1327ZM43.2096 41.991V22.5086H50.4403C54.1731 22.5086 56.7811 25.1078 56.7811 28.9069C56.7811 32.7059 54.1235 35.3302 50.3415 35.3302H46.2008V41.991H43.2096ZM46.2008 25.0579H49.6492C52.2449 25.0579 53.728 26.4575 53.728 28.9194C53.728 31.3813 52.2449 32.7934 49.6369 32.7934H46.2008V25.0579ZM66.6566 39.6541C65.8656 41.1787 64.1228 42.1409 62.2442 42.1409C59.4631 42.1409 57.5225 40.4664 57.5225 37.9421C57.5225 35.4427 59.4014 34.0057 62.8746 33.7931L66.6072 33.5681V32.4935C66.6072 30.9064 65.5813 30.0441 63.7521 30.0441C62.2442 30.0441 61.1441 30.8315 60.9216 32.031H58.2271C58.3136 29.5067 60.6621 27.6698 63.8386 27.6698C67.2622 27.6698 69.4872 29.4818 69.4872 32.2935V41.991H66.7185V39.6541H66.6566ZM63.0475 39.8291C61.4531 39.8291 60.4396 39.0543 60.4396 37.867C60.4396 36.6425 61.4161 35.93 63.2824 35.8177L66.6072 35.6051V36.7049C66.6072 38.5294 65.0745 39.8291 63.0475 39.8291ZM78.6706 42.7534C77.4717 46.1649 76.0997 47.2895 73.1827 47.2895C72.9604 47.2895 72.2187 47.2646 72.0456 47.2147V44.8777C72.231 44.9027 72.6884 44.9277 72.9233 44.9277C74.2457 44.9277 74.9874 44.3653 75.4446 42.9033L75.7165 42.0409L70.6489 27.8571H73.776L77.2986 39.3666H77.3605L80.8831 27.8571H83.9237L78.6706 42.7534Z" fill="black"/>
</g>
<defs>
<clipPath id="clip0_6207_3473">
<rect width="101.957" height="67" fill="white" transform="translate(0.734375 0.5)"/>
</clipPath>
</defs>
</svg>
