<svg width="103" height="68" viewBox="0 0 103 68" fill="none" xmlns="http://www.w3.org/2000/svg">
<g clip-path="url(#clip0_6207_3463)">
<path d="M6.90795 1.95652H96.3435C99.0526 1.95652 101.147 4.0513 101.147 6.51282V61.4872C101.147 63.9487 99.0526 66.0435 96.3435 66.0435H6.90795C4.19882 66.0435 2.10398 63.9487 2.10398 61.4872V6.51282C2.10398 4.0513 4.19882 1.95652 6.90795 1.95652Z" fill="white" stroke="#F3F3F3" stroke-width="2.91304"/>
<path fill-rule="evenodd" clip-rule="evenodd" d="M49.9245 42.0357V34.1058L54.2144 34.1042C55.983 34.1053 57.4695 33.5496 58.6736 32.4371C59.8906 31.3811 60.5709 29.863 60.5362 28.2808C60.5603 26.7071 59.8813 25.2003 58.6736 24.1477C57.48 23.0291 55.8747 22.4188 54.2144 22.4524H47.3281V42.0357H49.9245ZM49.9245 31.6995V24.8635L54.2789 24.8619C55.2494 24.8353 56.185 25.2138 56.8481 25.901C57.5152 26.5294 57.8915 27.3925 57.8915 28.2939C57.8915 29.1954 57.5152 30.0587 56.8481 30.6869C56.1767 31.3597 55.2442 31.7272 54.2789 31.6995H49.9245Z" fill="#5F6368"/>
<path fill-rule="evenodd" clip-rule="evenodd" d="M71.0665 29.6937C69.9558 28.6998 68.4411 28.203 66.5218 28.203C64.0566 28.203 62.1948 29.0779 60.9369 30.828L63.2239 32.2234C64.0689 31.0379 65.2166 30.4452 66.667 30.4452C67.5917 30.4348 68.4866 30.7623 69.1732 31.3624C69.8578 31.9109 70.2515 32.7285 70.2457 33.5891V34.1641C69.248 33.6172 67.9782 33.3437 66.4364 33.3437C64.6302 33.3458 63.1863 33.7563 62.1047 34.5751C61.0231 35.3937 60.4822 36.4965 60.4822 37.8829C60.4586 39.1454 61.0239 40.3509 62.0208 41.1643C63.0464 42.0394 64.321 42.4769 65.8445 42.4769C67.6293 42.4769 69.0592 41.7112 70.1344 40.1799H70.2473V42.0394H72.7308V33.7813C72.7319 32.0499 72.1771 30.6874 71.0665 29.6937ZM64.0237 39.5784C63.4798 39.1985 63.159 38.5873 63.1626 37.9376C63.1626 37.2079 63.5157 36.6002 64.2269 36.1001C64.9311 35.6073 65.8106 35.361 66.8653 35.361C68.3136 35.361 69.4425 35.6734 70.252 36.2985C70.252 37.3548 69.8221 38.2751 68.9619 39.0596C68.1872 39.8102 67.1369 40.2328 66.0412 40.2346C65.3108 40.2478 64.598 40.0161 64.0237 39.5784Z" fill="#5F6368"/>
<path fill-rule="evenodd" clip-rule="evenodd" d="M86.9765 28.6268L78.3065 47.9321H75.6261L78.8435 41.1772L73.1426 28.6268H75.9648L80.0853 38.2521H80.1417L84.1493 28.6268H86.9765Z" fill="#5F6368"/>
<path fill-rule="evenodd" clip-rule="evenodd" d="M39.416 32.3753C39.417 31.6087 39.3501 30.8433 39.2161 30.0878H28.2656V34.4207H34.5375C34.2782 35.8191 33.4404 37.0542 32.2184 37.8396V40.6522H35.9616C38.1533 38.6943 39.416 35.7989 39.416 32.3753Z" fill="#4285F4"/>
<path fill-rule="evenodd" clip-rule="evenodd" d="M28.279 43.3707C31.4125 43.3707 34.0509 42.3736 35.9749 40.6549L32.2317 37.8423C31.19 38.5267 29.8482 38.9173 28.279 38.9173C25.2503 38.9173 22.6796 36.9391 21.7604 34.2733H17.9043V37.1719C19.8753 40.972 23.8896 43.3703 28.279 43.3707Z" fill="#34A853"/>
<path fill-rule="evenodd" clip-rule="evenodd" d="M21.7556 34.2752C21.2696 32.8784 21.2696 31.3655 21.7556 29.9687V27.0702H17.8995C16.2509 30.2486 16.2509 33.9953 17.8995 37.1737L21.7556 34.2752Z" fill="#FBBC04"/>
<path fill-rule="evenodd" clip-rule="evenodd" d="M28.279 25.3408C29.9349 25.3145 31.5349 25.9208 32.7334 27.0284L36.0475 23.8173C33.946 21.9049 31.1619 20.8549 28.279 20.8875C23.8896 20.8876 19.8753 23.2861 17.9043 27.0861L21.7604 29.9846C22.6796 27.319 25.2503 25.3408 28.279 25.3408Z" fill="#EA4335"/>
</g>
<defs>
<clipPath id="clip0_6207_3463">
<rect width="101.957" height="67" fill="white" transform="translate(0.647461 0.5)"/>
</clipPath>
</defs>
</svg>
