<svg width="103" height="66" viewBox="0 0 103 66" fill="none" xmlns="http://www.w3.org/2000/svg">
<g clip-path="url(#clip0_6207_3492)">
<path d="M95.1802 0.956543H7.81987C3.86551 0.956543 0.648438 4.11272 0.648438 7.99209V58.0079C0.648438 61.8873 3.86551 65.0435 7.81987 65.0435H95.1802C99.1343 65.0435 102.352 61.8873 102.352 58.0079V7.99209C102.352 4.11272 99.1343 0.956543 95.1802 0.956543Z" fill="#164193"/>
<mask id="mask0_6207_3492" style="mask-type:luminance" maskUnits="userSpaceOnUse" x="-82" y="-150" width="276" height="368">
<path d="M-81.8799 -149.228H193.299V217.744H-81.8799V-149.228Z" fill="white"/>
</mask>
<g mask="url(#mask0_6207_3492)">
<path d="M36.1602 35.0668C35.0585 35.0668 34.0985 35.4121 33.3156 36.2238C32.5096 37.0701 32.1967 38.277 32.1967 39.4807C32.1967 40.7617 32.5011 42.0118 33.2858 42.8572C34.0769 43.7048 35.053 44.0018 36.1873 44.0018C37.3386 44.0018 38.2733 43.5317 38.9844 42.8072C39.7994 41.9723 40.1864 40.838 40.1864 39.6202C40.1864 38.2861 39.7958 37.1009 39.0056 36.257C38.3266 35.5302 37.345 35.0668 36.1611 35.0668M29.3955 51.556V32.6934H32.4207V34.0798C32.8379 33.3984 33.6488 32.9237 34.2855 32.7061C34.9233 32.4937 35.5908 32.3853 36.2627 32.385C37.9319 32.385 39.7159 32.9519 41.1662 34.4672C42.504 35.8677 43.2115 37.5697 43.2115 39.5866C43.2113 40.5159 43.0325 41.4364 42.6851 42.2975C42.3464 43.1756 41.8588 43.9487 41.2402 44.5915C40.581 45.2865 39.8315 45.8102 39.007 46.165C38.1843 46.5166 37.4145 46.6955 36.4049 46.6955C35.6703 46.6955 34.9618 46.5829 34.2918 46.348C33.6326 46.1345 32.7097 45.6008 32.3764 45.0189V51.5601H29.4045M63.9214 51.5601L66.4711 45.6122L60.6221 32.6979H63.8053L67.9616 42.3934L71.7995 32.6979H75.0017L67.0513 51.5601H63.9214Z" fill="white"/>
<path d="M49.1914 36.2643C48.4012 37.1079 48.0142 38.2935 48.0142 39.6276C48.0142 40.845 48.4012 41.9797 49.2162 42.8146C49.9269 43.5386 50.8606 44.0092 52.0156 44.0092C53.1525 44.0092 54.126 43.7121 54.9135 42.8645C55.7045 42.0196 56.0025 40.7695 56.0025 39.4881C56.0025 38.2844 55.6932 37.0792 54.8895 36.2312C54.0962 35.4135 53.1399 35.0742 52.0386 35.0742C50.8557 35.0742 49.8713 35.5384 49.1954 36.2643M55.8264 46.4572V45.0299C55.4941 45.6114 54.5712 46.1451 53.9138 46.3591C53.2428 46.5939 52.5276 46.7065 51.7998 46.7065C50.7902 46.7065 50.0208 46.5276 49.1945 46.176C48.3728 45.8217 47.6232 45.297 46.9649 44.6016C46.3391 43.9588 45.8519 43.1861 45.5201 42.3099C45.1679 41.4305 44.9886 40.5229 44.9886 39.5971C44.9886 37.5803 45.6966 35.8787 47.0363 34.4778C48.4888 32.9624 50.2718 32.3955 51.9443 32.3955C52.6151 32.396 53.2815 32.5052 53.9179 32.7189C54.5572 32.9343 55.3695 33.4139 55.7871 34.0908V32.7044H58.8033V46.4572H55.8264ZM78.1577 23.9783L78.0024 14.7953H80.883V26.3822H76.7408L73.8723 16.8703H73.7983L73.9622 26.3822H71.1059V14.7953H75.4179L78.094 23.9783H78.1577ZM25.8311 15.8737L24.2427 26.488H21.1023L23.2552 14.7948H28.4341L30.5833 26.488H27.453L25.9006 15.8737H25.8311ZM39.3902 23.7403L40.8288 14.7953H45.567L45.8271 26.4876H42.9161L42.8349 15.9732H42.7784L40.8337 26.4876H37.8898L35.9379 15.9732H35.8729L35.8006 26.4876H32.8929L33.1575 14.7953H37.9011L39.3324 23.7403H39.3902ZM63.7732 24.7342C64.5859 24.7342 64.8342 24.1773 64.8929 23.8952C64.9169 23.7698 64.9169 23.5981 64.9169 23.4473V14.7953H67.8698V23.1789L67.8369 23.952C67.6382 26.1324 65.9134 26.8387 63.7732 26.8387C61.6375 26.8387 59.9208 26.1369 59.7239 23.952C59.7012 23.6949 59.6916 23.4369 59.695 23.1789V14.7953H62.6376V23.4469C62.6277 23.5977 62.6421 23.7648 62.6602 23.8948C62.7157 24.1764 62.9686 24.7337 63.7727 24.7337M16.207 23.1925C16.3162 23.4764 16.2846 23.8398 16.2295 24.0583C16.1361 24.4489 15.8742 24.8487 15.0908 24.8487C14.3661 24.8487 13.9304 24.4253 13.9304 23.7857L13.9214 22.651H10.8086V23.5536C10.8086 26.1664 12.844 26.9496 15.0249 26.9496C17.138 26.9496 18.8628 26.23 19.1396 24.2813C19.2832 23.267 19.1847 22.6061 19.1324 22.3599C18.6429 19.9042 14.2266 19.1801 13.897 17.8174C13.8405 17.5748 13.85 17.335 13.8834 17.2042C13.9674 16.8212 14.2207 16.4138 14.9445 16.4138C15.6326 16.4138 16.0309 16.8439 16.0309 17.4685V18.1999H18.9332V17.3786C18.9332 14.8275 16.6544 14.4296 15.005 14.4296C12.9416 14.4296 11.2497 15.121 10.9413 17.0311C10.8619 17.5476 10.851 18.0141 10.9639 18.601C11.4728 20.998 15.6055 21.6839 16.2015 23.1961M54.0091 23.178C54.1256 23.4505 54.0768 23.8125 54.0316 24.0319C53.9431 24.4153 53.6704 24.8055 52.9119 24.8055C52.1894 24.8055 51.7542 24.3899 51.7542 23.7553V22.6301H48.6631V23.5304C48.6631 26.1187 50.6845 26.8919 52.8518 26.8919C54.9252 26.8919 56.6446 26.181 56.9155 24.2482C57.0509 23.2497 56.9534 22.5947 56.9006 22.3412C56.4157 19.921 52.0477 19.2042 51.7262 17.8442C51.6825 17.6472 51.6779 17.4434 51.7126 17.2446C51.7903 16.8739 52.0432 16.4724 52.7638 16.4724C53.4447 16.4724 53.8384 16.888 53.8384 17.5099V18.2312H56.7064V17.4199C56.7064 14.8989 54.4488 14.5046 52.8306 14.5046C50.7807 14.5046 49.1029 15.1769 48.8058 17.0756C48.7123 17.5844 48.7006 18.0445 48.8283 18.6346C49.3277 21.0085 53.4171 21.688 54.0095 23.192M88.0256 24.6252C88.8627 24.6252 89.1544 24.0973 89.2131 23.7785C89.2317 23.6304 89.2403 23.4812 89.2389 23.3319V21.6399H88.0514V19.9246H92.1679V23.0667C92.1679 23.2856 92.1588 23.4469 92.1263 23.8398C91.9331 25.9566 90.0954 26.7274 88.0311 26.7274C85.9744 26.7274 84.1453 25.957 83.9565 23.8398C83.9114 23.4469 83.9114 23.2856 83.9114 23.0667V18.1472C83.9135 17.8901 83.9314 17.6334 83.9651 17.3786C84.218 15.18 85.9744 14.4864 88.0315 14.4864C90.0958 14.4864 91.9146 15.1678 92.1164 17.3786C92.1593 17.7397 92.139 18.1472 92.139 18.1472L92.1457 18.5278H89.2145V17.8746C89.2145 17.8746 89.2145 17.593 89.1693 17.4267C89.1242 17.1769 88.8984 16.5832 88.0044 16.5832C87.17 16.5832 86.9172 17.1451 86.8508 17.4267C86.8147 17.5835 86.8079 17.7929 86.8079 17.9832V23.3319C86.8075 23.481 86.8143 23.63 86.8282 23.7785C86.8856 24.0973 87.1781 24.6252 88.0229 24.6252" fill="white"/>
</g>
</g>
<defs>
<clipPath id="clip0_6207_3492">
<rect width="101.703" height="64.0869" fill="white" transform="translate(0.649414 0.956543)"/>
</clipPath>
</defs>
</svg>
