<svg width="56" height="56" viewBox="0 0 56 56" fill="none" xmlns="http://www.w3.org/2000/svg">
<path d="M28 7C32.1102 7 36.128 8.2188 39.5455 10.5023C42.9629 12.7857 45.6265 16.0313 47.1994 19.8286C48.7723 23.6259 49.1838 27.8043 48.382 31.8355C47.5801 35.8666 45.6009 39.5695 42.6946 42.4758C39.7883 45.3821 36.0854 47.3613 32.0542 48.1632C28.0231 48.965 23.8446 48.5535 20.0474 46.9806C16.2501 45.4077 13.0045 42.7442 10.721 39.3267C8.43756 35.9092 7.21876 31.8914 7.21876 27.7812C7.22455 22.2715 9.41586 16.9891 13.3118 13.0931C17.2078 9.1971 22.4903 7.00579 28 7ZM28 4.15625C23.3274 4.15625 18.7598 5.54183 14.8747 8.13778C10.9896 10.7337 7.96148 14.4234 6.17336 18.7404C4.38524 23.0573 3.91738 27.8075 4.82896 32.3903C5.74053 36.9731 7.9906 41.1826 11.2946 44.4866C14.5986 47.7907 18.8082 50.0407 23.391 50.9523C27.9738 51.8639 32.724 51.396 37.0409 49.6079C41.3578 47.8198 45.0475 44.7917 47.6435 40.9066C50.2394 37.0215 51.625 32.4538 51.625 27.7812C51.625 21.5155 49.136 15.5064 44.7054 11.0759C40.2749 6.64531 34.2657 4.15625 28 4.15625Z" fill="white"/>
<path d="M28.4733 7C29.3877 7 31.002 8.60125 32.3802 12.1144C34.0033 16.2531 34.8958 21.8181 34.8958 27.7812C34.8958 33.7444 34.0208 39.3094 32.3802 43.4481C31.002 46.9481 29.392 48.5625 28.4733 48.5625C27.5545 48.5625 25.9445 46.9613 24.5664 43.4481C22.9477 39.3094 22.0508 33.7444 22.0508 27.7812C22.0508 21.8181 22.9258 16.2531 24.5664 12.1144C25.9489 8.59688 27.5633 7 28.4733 7ZM28.4733 4.15625C23.3545 4.15625 19.207 14.735 19.207 27.7812C19.207 40.8275 23.3545 51.4062 28.4733 51.4062C33.592 51.4062 37.7395 40.8275 37.7395 27.7812C37.7395 14.735 33.592 4.15625 28.4733 4.15625Z" fill="white"/>
<path d="M7.72656 35.1621H49.2191" stroke="white" stroke-width="3.3" stroke-miterlimit="10"/>
<path d="M7.72656 20.3965H49.2191" stroke="white" stroke-width="3.3" stroke-miterlimit="10"/>
</svg>
